/* XPM */
static const char * muhkuh_plugin_disabled_16_xpm[] = {
"16 16 12 1",
" 	c None",
".	c #500000",
"+	c #740000",
"@	c #750000",
"#	c #380000",
"$	c #B30000",
"%	c #FF0000",
"&	c #B50000",
"*	c #B40000",
"=	c #4E0000",
"-	c #720000",
";	c #730000",
"                ",
"                ",
"                ",
"      .+@.      ",
"    #$%%%%$#    ",
"    &%%%%%%*    ",
"   =%%%%%%%%.   ",
"   -%%%%%%%%;   ",
"   ;%%%%%%%%-   ",
"   .%%%%%%%%=   ",
"    *%%%%%%&    ",
"    #$%%%%$#    ",
"      .@+.      ",
"                ",
"                ",
"                "};
