<?xml version="1.0" encoding="UTF-8"?>
<!DOCTYPE svg PUBLIC "-//W3C//DTD SVG 1.1//EN" "http://www.w3.org/Graphics/SVG/1.1/DTD/svg11.dtd"><svg version="1.1" viewBox="0 0 5000 5000" preserveAspectRatio="xMidYMid" fill-rule="evenodd" xmlns="http://www.w3.org/2000/svg" xmlns:xlink="http://www.w3.org/1999/xlink"><g visibility="visible" id="Standard"><desc>Master slide</desc></g><g visibility="visible" id="page1"><desc>Slide</desc><g><desc>Drawing</desc><g><g style="stroke:none;fill:rgb(255,0,0)"><path d="M 2500,4000 L 2347,3992 2198,3970 2054,3933 1916,3882 1785,3819 1662,3744 1546,3657 1440,3561 1343,3454 1256,3338 1181,3215 1118,3084 1067,2946 1030,2802 1008,2653 1000,2500 1008,2347 1030,2198 1067,2054 1118,1916 1181,1785 1256,1662 1343,1546 1440,1440 1546,1343 1662,1256 1785,1181 1916,1118 2054,1067 2198,1030 2347,1008 2500,1000 2653,1008 2802,1030 2946,1067 3084,1118 3215,1181 3338,1256 3454,1343 3561,1440 3657,1546 3744,1662 3819,1785 3882,1916 3933,2054 3970,2198 3992,2347 4000,2500 3992,2653 3970,2802 3933,2946 3882,3084 3819,3215 3744,3338 3657,3454 3561,3561 3454,3657 3338,3744 3215,3819 3084,3882 2946,3933 2802,3970 2653,3992 2500,4000 Z"/></g><g style="stroke:none;fill:rgb(0,0,0)"><path d="M 2495,4100 L 2342,4092 2347,3992 2352,3892 2505,3900 2500,4000 2495,4100 Z"/><path d="M 2347,3992 L 2342,4092 2332,4091 2347,3992 Z"/><path d="M 2332,4091 L 2183,4068 2198,3970 2213,3871 2362,3893 2347,3992 2332,4091 Z"/><path d="M 2198,3970 L 2183,4068 2173,4066 2198,3970 Z"/><path d="M 2173,4066 L 2029,4029 2054,3933 2079,3836 2223,3873 2198,3970 2173,4066 Z"/><path d="M 2054,3933 L 2029,4029 2020,4026 2054,3933 Z"/><path d="M 2020,4026 L 1882,3976 1916,3882 1951,3788 2088,3839 2054,3933 2020,4026 Z"/><path d="M 1916,3882 L 1882,3976 1873,3972 1916,3882 Z"/><path d="M 1873,3972 L 1742,3909 1785,3819 1829,3729 1960,3792 1916,3882 1873,3972 Z"/><path d="M 1785,3819 L 1742,3909 1733,3904 1785,3819 Z"/><path d="M 1733,3904 L 1610,3829 1662,3744 1713,3658 1837,3733 1785,3819 1733,3904 Z"/><path d="M 1662,3744 L 1610,3829 1602,3824 1662,3744 Z"/><path d="M 1602,3824 L 1486,3737 1546,3657 1606,3577 1721,3664 1662,3744 1602,3824 Z"/><path d="M 1546,3657 L 1486,3737 1479,3731 1546,3657 Z"/><path d="M 1479,3731 L 1372,3635 1440,3561 1507,3486 1613,3583 1546,3657 1479,3731 Z"/><path d="M 1440,3561 L 1372,3635 1365,3628 1440,3561 Z"/><path d="M 1365,3628 L 1269,3521 1343,3454 1417,3387 1514,3493 1440,3561 1365,3628 Z"/><path d="M 1343,3454 L 1269,3521 1263,3514 1343,3454 Z"/><path d="M 1263,3514 L 1176,3398 1256,3338 1336,3279 1423,3394 1343,3454 1263,3514 Z"/><path d="M 1256,3338 L 1176,3398 1171,3390 1256,3338 Z"/><path d="M 1171,3390 L 1096,3267 1181,3215 1267,3163 1342,3287 1256,3338 1171,3390 Z"/><path d="M 1181,3215 L 1096,3267 1091,3258 1181,3215 Z"/><path d="M 1091,3258 L 1028,3127 1118,3084 1208,3040 1271,3171 1181,3215 1091,3258 Z"/><path d="M 1118,3084 L 1028,3127 1024,3118 1118,3084 Z"/><path d="M 1024,3118 L 974,2980 1067,2946 1161,2912 1212,3049 1118,3084 1024,3118 Z"/><path d="M 1067,2946 L 974,2980 971,2971 1067,2946 Z"/><path d="M 971,2971 L 934,2827 1030,2802 1127,2777 1164,2921 1067,2946 971,2971 Z"/><path d="M 1030,2802 L 934,2827 932,2817 1030,2802 Z"/><path d="M 932,2817 L 909,2668 1008,2653 1107,2638 1129,2787 1030,2802 932,2817 Z"/><path d="M 1008,2653 L 909,2668 908,2658 1008,2653 Z"/><path d="M 908,2658 L 900,2505 1000,2500 1100,2495 1108,2648 1008,2653 908,2658 Z"/><path d="M 1000,2500 L 900,2505 900,2495 1000,2500 Z"/><path d="M 900,2495 L 908,2342 1008,2347 1108,2352 1100,2505 1000,2500 900,2495 Z"/><path d="M 1008,2347 L 908,2342 909,2332 1008,2347 Z"/><path d="M 909,2332 L 932,2183 1030,2198 1129,2213 1107,2362 1008,2347 909,2332 Z"/><path d="M 1030,2198 L 932,2183 934,2173 1030,2198 Z"/><path d="M 934,2173 L 971,2029 1067,2054 1164,2079 1127,2223 1030,2198 934,2173 Z"/><path d="M 1067,2054 L 971,2029 974,2020 1067,2054 Z"/><path d="M 974,2020 L 1024,1882 1118,1916 1212,1951 1161,2088 1067,2054 974,2020 Z"/><path d="M 1118,1916 L 1024,1882 1028,1873 1118,1916 Z"/><path d="M 1028,1873 L 1091,1742 1181,1785 1271,1829 1208,1960 1118,1916 1028,1873 Z"/><path d="M 1181,1785 L 1091,1742 1096,1733 1181,1785 Z"/><path d="M 1096,1733 L 1171,1610 1256,1662 1342,1713 1267,1837 1181,1785 1096,1733 Z"/><path d="M 1256,1662 L 1171,1610 1176,1602 1256,1662 Z"/><path d="M 1176,1602 L 1263,1486 1343,1546 1423,1606 1336,1721 1256,1662 1176,1602 Z"/><path d="M 1343,1546 L 1263,1486 1269,1479 1343,1546 Z"/><path d="M 1269,1479 L 1365,1372 1440,1440 1514,1507 1417,1613 1343,1546 1269,1479 Z"/><path d="M 1440,1440 L 1365,1372 1372,1365 1440,1440 Z"/><path d="M 1372,1365 L 1479,1269 1546,1343 1613,1417 1507,1514 1440,1440 1372,1365 Z"/><path d="M 1546,1343 L 1479,1269 1486,1263 1546,1343 Z"/><path d="M 1486,1263 L 1602,1176 1662,1256 1721,1336 1606,1423 1546,1343 1486,1263 Z"/><path d="M 1662,1256 L 1602,1176 1610,1171 1662,1256 Z"/><path d="M 1610,1171 L 1733,1096 1785,1181 1837,1267 1713,1342 1662,1256 1610,1171 Z"/><path d="M 1785,1181 L 1733,1096 1742,1091 1785,1181 Z"/><path d="M 1742,1091 L 1873,1028 1916,1118 1960,1208 1829,1271 1785,1181 1742,1091 Z"/><path d="M 1916,1118 L 1873,1028 1882,1024 1916,1118 Z"/><path d="M 1882,1024 L 2020,974 2054,1067 2088,1161 1951,1212 1916,1118 1882,1024 Z"/><path d="M 2054,1067 L 2020,974 2029,971 2054,1067 Z"/><path d="M 2029,971 L 2173,934 2198,1030 2223,1127 2079,1164 2054,1067 2029,971 Z"/><path d="M 2198,1030 L 2173,934 2183,932 2198,1030 Z"/><path d="M 2183,932 L 2332,909 2347,1008 2362,1107 2213,1129 2198,1030 2183,932 Z"/><path d="M 2347,1008 L 2332,909 2342,908 2347,1008 Z"/><path d="M 2342,908 L 2495,900 2500,1000 2505,1100 2352,1108 2347,1008 2342,908 Z"/><path d="M 2500,1000 L 2495,900 2505,900 2500,1000 Z"/><path d="M 2505,900 L 2658,908 2653,1008 2648,1108 2495,1100 2500,1000 2505,900 Z"/><path d="M 2653,1008 L 2658,908 2668,909 2653,1008 Z"/><path d="M 2668,909 L 2817,932 2802,1030 2787,1129 2638,1107 2653,1008 2668,909 Z"/><path d="M 2802,1030 L 2817,932 2827,934 2802,1030 Z"/><path d="M 2827,934 L 2971,971 2946,1067 2921,1164 2777,1127 2802,1030 2827,934 Z"/><path d="M 2946,1067 L 2971,971 2980,974 2946,1067 Z"/><path d="M 2980,974 L 3118,1024 3084,1118 3049,1212 2912,1161 2946,1067 2980,974 Z"/><path d="M 3084,1118 L 3118,1024 3127,1028 3084,1118 Z"/><path d="M 3127,1028 L 3258,1091 3215,1181 3171,1271 3040,1208 3084,1118 3127,1028 Z"/><path d="M 3215,1181 L 3258,1091 3267,1096 3215,1181 Z"/><path d="M 3267,1096 L 3390,1171 3338,1256 3287,1342 3163,1267 3215,1181 3267,1096 Z"/><path d="M 3338,1256 L 3390,1171 3398,1176 3338,1256 Z"/><path d="M 3398,1176 L 3514,1263 3454,1343 3394,1423 3279,1336 3338,1256 3398,1176 Z"/><path d="M 3454,1343 L 3514,1263 3521,1269 3454,1343 Z"/><path d="M 3521,1269 L 3628,1365 3561,1440 3493,1514 3387,1417 3454,1343 3521,1269 Z"/><path d="M 3561,1440 L 3628,1365 3635,1372 3561,1440 Z"/><path d="M 3635,1372 L 3731,1479 3657,1546 3583,1613 3486,1507 3561,1440 3635,1372 Z"/><path d="M 3657,1546 L 3731,1479 3737,1486 3657,1546 Z"/><path d="M 3737,1486 L 3824,1602 3744,1662 3664,1721 3577,1606 3657,1546 3737,1486 Z"/><path d="M 3744,1662 L 3824,1602 3829,1610 3744,1662 Z"/><path d="M 3829,1610 L 3904,1733 3819,1785 3733,1837 3658,1713 3744,1662 3829,1610 Z"/><path d="M 3819,1785 L 3904,1733 3909,1742 3819,1785 Z"/><path d="M 3909,1742 L 3972,1873 3882,1916 3792,1960 3729,1829 3819,1785 3909,1742 Z"/><path d="M 3882,1916 L 3972,1873 3976,1882 3882,1916 Z"/><path d="M 3976,1882 L 4026,2020 3933,2054 3839,2088 3788,1951 3882,1916 3976,1882 Z"/><path d="M 3933,2054 L 4026,2020 4029,2029 3933,2054 Z"/><path d="M 4029,2029 L 4066,2173 3970,2198 3873,2223 3836,2079 3933,2054 4029,2029 Z"/><path d="M 3970,2198 L 4066,2173 4068,2183 3970,2198 Z"/><path d="M 4068,2183 L 4091,2332 3992,2347 3893,2362 3871,2213 3970,2198 4068,2183 Z"/><path d="M 3992,2347 L 4091,2332 4092,2342 3992,2347 Z"/><path d="M 4092,2342 L 4100,2495 4000,2500 3900,2505 3892,2352 3992,2347 4092,2342 Z"/><path d="M 4000,2500 L 4100,2495 4100,2505 4000,2500 Z"/><path d="M 4100,2505 L 4092,2658 3992,2653 3892,2648 3900,2495 4000,2500 4100,2505 Z"/><path d="M 3992,2653 L 4092,2658 4091,2668 3992,2653 Z"/><path d="M 4091,2668 L 4068,2817 3970,2802 3871,2787 3893,2638 3992,2653 4091,2668 Z"/><path d="M 3970,2802 L 4068,2817 4066,2827 3970,2802 Z"/><path d="M 4066,2827 L 4029,2971 3933,2946 3836,2921 3873,2777 3970,2802 4066,2827 Z"/><path d="M 3933,2946 L 4029,2971 4026,2980 3933,2946 Z"/><path d="M 4026,2980 L 3976,3118 3882,3084 3788,3049 3839,2912 3933,2946 4026,2980 Z"/><path d="M 3882,3084 L 3976,3118 3972,3127 3882,3084 Z"/><path d="M 3972,3127 L 3909,3258 3819,3215 3729,3171 3792,3040 3882,3084 3972,3127 Z"/><path d="M 3819,3215 L 3909,3258 3904,3267 3819,3215 Z"/><path d="M 3904,3267 L 3829,3390 3744,3338 3658,3287 3733,3163 3819,3215 3904,3267 Z"/><path d="M 3744,3338 L 3829,3390 3824,3398 3744,3338 Z"/><path d="M 3824,3398 L 3737,3514 3657,3454 3577,3394 3664,3279 3744,3338 3824,3398 Z"/><path d="M 3657,3454 L 3737,3514 3731,3521 3657,3454 Z"/><path d="M 3731,3521 L 3635,3628 3561,3561 3486,3493 3583,3387 3657,3454 3731,3521 Z"/><path d="M 3561,3561 L 3635,3628 3628,3635 3561,3561 Z"/><path d="M 3628,3635 L 3521,3731 3454,3657 3387,3583 3493,3486 3561,3561 3628,3635 Z"/><path d="M 3454,3657 L 3521,3731 3514,3737 3454,3657 Z"/><path d="M 3514,3737 L 3398,3824 3338,3744 3279,3664 3394,3577 3454,3657 3514,3737 Z"/><path d="M 3338,3744 L 3398,3824 3390,3829 3338,3744 Z"/><path d="M 3390,3829 L 3267,3904 3215,3819 3163,3733 3287,3658 3338,3744 3390,3829 Z"/><path d="M 3215,3819 L 3267,3904 3258,3909 3215,3819 Z"/><path d="M 3258,3909 L 3127,3972 3084,3882 3040,3792 3171,3729 3215,3819 3258,3909 Z"/><path d="M 3084,3882 L 3127,3972 3118,3976 3084,3882 Z"/><path d="M 3118,3976 L 2980,4026 2946,3933 2912,3839 3049,3788 3084,3882 3118,3976 Z"/><path d="M 2946,3933 L 2980,4026 2971,4029 2946,3933 Z"/><path d="M 2971,4029 L 2827,4066 2802,3970 2777,3873 2921,3836 2946,3933 2971,4029 Z"/><path d="M 2802,3970 L 2827,4066 2817,4068 2802,3970 Z"/><path d="M 2817,4068 L 2668,4091 2653,3992 2638,3893 2787,3871 2802,3970 2817,4068 Z"/><path d="M 2653,3992 L 2668,4091 2658,4092 2653,3992 Z"/><path d="M 2658,4092 L 2505,4100 2500,4000 2495,3900 2648,3892 2653,3992 2658,4092 Z"/><path d="M 2500,4000 L 2505,4100 2495,4100 2500,4000 Z"/></g><g/></g></g></g></svg>