/* XPM */
static const char * muhkuh_016_xpm[] = {
"16 16 74 1",
" 	c None",
".	c #000000",
"+	c #8C8C70",
"@	c #B1B18E",
"#	c #B5B490",
"$	c #FFFFCF",
"%	c #F4F4C6",
"&	c #A8A888",
"*	c #565652",
"=	c #A3A39C",
"-	c #9C9C89",
";	c #8A8A83",
">	c #C3C3C2",
",	c #B4B48F",
"'	c #F5F5F5",
")	c #C9C9C9",
"!	c #484848",
"~	c #7D7D78",
"{	c #575753",
"]	c #B4B4AF",
"^	c #6C6C6C",
"/	c #9B9B99",
"(	c #50504A",
"_	c #94947C",
":	c #FDFDCD",
"<	c #575747",
"[	c #ECECBF",
"}	c #FCFCCC",
"|	c #F5F5C7",
"1	c #CACAA4",
"2	c #E0E0B6",
"3	c #817968",
"4	c #A99189",
"5	c #AA888A",
"6	c #7C6464",
"7	c #73625E",
"8	c #73675C",
"9	c #807168",
"0	c #8D7572",
"a	c #E5B2BA",
"b	c #FFC7CF",
"c	c #C18C9C",
"d	c #936279",
"e	c #9C787E",
"f	c #A35883",
"g	c #9E5E7E",
"h	c #EAB6BD",
"i	c #A68388",
"j	c #D5A5AD",
"k	c #A96688",
"l	c #C48E9F",
"m	c #D8A8AF",
"n	c #FBC4CC",
"o	c #EEBAC1",
"p	c #D9A9B0",
"q	c #DAAAB2",
"r	c #FEC6CE",
"s	c #D0A2A8",
"t	c #927475",
"u	c #947577",
"v	c #9A777B",
"w	c #A07C81",
"x	c #BB9298",
"y	c #BF969C",
"z	c #776063",
"A	c #9C797E",
"B	c #98767B",
"C	c #967C7A",
"D	c #73635D",
"E	c #675954",
"F	c #A09381",
"G	c #C4C09F",
"H	c #FCFCCD",
"I	c #EDEDC0",
"     .  .   .   ",
"     .... .+@.  ",
"  . .#$$%....   ",
" .&..*=-;>.     ",
".,..')!~{]      ",
" .  ^/(_:<.     ",
"     .[}$$.     ",
"     .$$$$|.    ",
"    .1$$$234... ",
"   .567890abcde ",
"  .fgbhbbbbbbbi ",
" .jklbbbbbbbbb. ",
" .mbbbbbbbnop.  ",
"  .qbrstuvwxy.  ",
"   ..zABCDE..   ",
"     .FGH$I.    "};
