/* XPM */
const char *icon_famfamfam_silk_arrow_up[] = {
/* width height ncolors chars_per_pixel */
"16 16 63 1",
/* colors */
"  c #5FAD56",
". c #367A31",
"X c #30722B",
"o c #88CA7E",
"O c #2D6E28",
"+ c #85C87B",
"@ c #83C679",
"# c #95CC8E",
"$ c #7DC073",
"% c #91CA8A",
"& c #89C682",
"* c #65B45B",
"= c #3F8539",
"- c #397D33",
"; c #33752D",
": c #93CB8B",
"> c #438A3C",
", c #3D8236",
"< c #A7D69E",
"1 c #A5D49C",
"2 c #A3D49A",
"3 c #9FD296",
"4 c #73C667",
"5 c #72C466",
"6 c #256421",
"7 c #22601E",
"8 c #5EAC55",
"9 c #59A650",
"0 c #58A44F",
"q c #539E4A",
"w c #529C49",
"e c #2B6B26",
"r c #9ACF93",
"t c #8EC987",
"y c #8CC785",
"u c #85C37E",
"i c #87CA7C",
"p c #9CD094",
"a c #98CE90",
"s c #70C265",
"d c #4C9545",
"f c #FFFFFF",
"g c #68B85D",
"h c #468D3F",
"j c #82C27D",
"k c #7EC079",
"l c #65AC5D",
"z c #A1D398",
"x c #74C768",
"c c #72C566",
"v c #509A48",
"b c #71C365",
"n c #6EBF62",
"m c #86C37D",
"M c #296925",
"N c #4A9242",
"B c #266522",
"V c #87C581",
"C c #80C17A",
"Z c #7CBF76",
"A c #7ABD74",
"S c #78BD72",
"D c None",
/* pixels */
"DDDDDDDDDDDDDDDD",
"DDDDDDD4sDDDDDDD",
"DDDDDDco+gDDDDDD",
"DDDDD5i<1$8DDDDD",
"DDDDbn@2zm0qDDDD",
"DDDDDD*3plDDDDDD",
"DDDDDD ravDDDDDD",
"DDDDDD9#:NDDDDDD",
"DDDDDDq%t>DDDDDD",
"DDDDDDdy&,DDDDDD",
"DDDDDDhVu.DDDDDD",
"DDDDDD=jCXDDDDDD",
"DDDDDD-kZeDDDDDD",
"DDDDDD;ASBDDDDDD",
"DDDDDDOM67DDDDDD",
"DDDDDDDDDDDDDDDD"
};
