/* XPM */
const char *icon_famfamfam_silk_bullet_green[] = {
/* width height ncolors chars_per_pixel */
"16 16 36 1",
/* colors */
"  c #C2E2C1",
". c #B5DCB4",
"X c #38972F",
"o c #3FB739",
"O c #9BD697",
"+ c #328529",
"@ c #2A611E",
"# c #90C28C",
"$ c #8BCC8A",
"% c #89CC88",
"& c #3EB037",
"* c #2F7625",
"= c #2D7223",
"- c #9DD09A",
"; c #95CC92",
": c #95D295",
"> c #BBDFBA",
", c #40BA3A",
"< c #3FB639",
"1 c #37942E",
"2 c #358E2C",
"3 c #348A2B",
"4 c #95CB91",
"5 c #3FB338",
"6 c #3DAD36",
"7 c #3BA734",
"8 c #FFFFFF",
"9 c #A4D4A2",
"0 c #A3D4A1",
"q c #389D31",
"w c #9BD099",
"e c #85CA83",
"r c #C0E1C0",
"t c #3CA634",
"y c #399E31",
"u c None",
/* pixels */
"uuuuuuuuuuuuuuuu",
"uuuuuuuuuuuuuuuu",
"uuuuuuuuuuuuuuuu",
"uuuuuuuuuuuuuuuu",
"uuuuuuuuuuuuuuuu",
"uuuuuu,o56uuuuuu",
"uuuuu,O >;quuuuu",
"uuuuu<r:%91uuuuu",
"uuuuu&.$e-3uuuuu",
"uuuuu740w#*uuuuu",
"uuuuuuX2+=uuuuuu",
"uuuuuuuuuuuuuuuu",
"uuuuuuuuuuuuuuuu",
"uuuuuuuuuuuuuuuu",
"uuuuuuuuuuuuuuuu",
"uuuuuuuuuuuuuuuu"
};
