/* XPM */
const char *icon_famfamfam_silk_database_refresh[] = {
/* width height ncolors chars_per_pixel */
"16 16 150 2",
/* colors */
"   c #B1B1B1",
" . c #AFAFAF",
" X c #75B16F",
" o c #B2DAAB",
" O c #ADADAD",
" + c #ABABAB",
" @ c #A9A9A9",
" # c #A7A7A7",
" $ c #367A31",
" % c #A5A5A5",
" & c #91CA87",
" * c #A3A3A3",
" = c #A1A1A1",
" - c #9F9F9F",
" ; c #D2D4D1",
" : c #2D6E28",
" > c #2A6A25",
" , c #999999",
" < c #83C479",
" 1 c #63955D",
" 2 c #959595",
" 3 c #5A9554",
" 4 c #919191",
" 5 c #387B32",
" 6 c #A7D59F",
" 7 c #33752D",
" 8 c #69B95E",
" 9 c #FEFEFE",
" 0 c #FCFCFC",
" q c #7BB973",
" w c #F8F8F8",
" e c #F6F6F6",
" r c #568852",
" t c #F4F4F4",
" y c #F2F2F2",
" u c #F0F0F0",
" i c #D7ECD4",
" p c #EEEEEE",
" a c #EAEAEA",
" s c #6AA962",
" d c #E8E8E8",
" f c #68A760",
" g c #E6E6E6",
" h c #63A15B",
" j c #E2E2E2",
" k c #E0E0E0",
" l c #DEDEDE",
" z c #5E9D56",
" x c #DCDCDC",
" c c #70A16B",
" v c #D8D8D8",
" b c #D6D6D6",
" n c #D4D4D4",
" m c #9FD099",
" M c #D2D2D2",
" N c #4E9746",
" B c #6FC063",
" V c #D0D0D0",
" C c #649B5F",
" Z c #B6CAB3",
" A c #CECECE",
" S c #82C279",
" D c #276623",
" F c #256421",
" G c #7EBE75",
" H c #7AC271",
" J c #C4C4C4",
" K c #C2C2C2",
" L c #C0C0C0",
" P c #BCBCBC",
" I c #BABABA",
" U c #B8B8B8",
" Y c #B7B8B7",
" T c #B6B6B6",
" R c #B4B4B4",
" E c #B2B2B2",
" W c #B0B0B0",
" Q c #AEAEAE",
" ! c #B1D9AA",
" ~ c #ACACAC",
" ^ c #AFD9A8",
" / c #59A650",
" ( c #97CD8D",
" ) c #94CB8A",
" _ c #8EC984",
" ` c #6AA064",
" ' c #2F712A",
" ] c #2E6F29",
" [ c #2B6B26",
" { c #969696",
" } c #909090",
" | c #8C8C8C",
".  c #67B75D",
".. c #64B35A",
".X c #61AF57",
".o c #3B8035",
".O c #5CA952",
".+ c #ADD8A5",
".@ c #AAD6A2",
".# c #8DC882",
".$ c #8CC881",
".% c #9CD294",
".& c #5D9B56",
".* c #5A9953",
".= c #589751",
".- c #4C9545",
".; c #6BBC60",
".: c #FFFFFF",
".> c #68B85D",
"., c #468D3F",
".< c #FDFDFD",
".1 c #236220",
".2 c #FBFBFB",
".3 c #205E1D",
".4 c #F9F9F9",
".5 c #41873A",
".6 c #F7F7F7",
".7 c #F5F5F5",
".8 c #74B46C",
".9 c #F3F3F3",
".0 c #EDEDED",
".q c #E7E7E7",
".w c #65A45D",
".e c #E1E1E1",
".r c #97CF8E",
".t c #DDDDDD",
".y c #DBDBDB",
".u c #599A51",
".i c #D9D9D9",
".p c #8FCD86",
".a c #D5D5D5",
".s c #CFCFCF",
".d c #4B9443",
".f c #296925",
".g c #83C37A",
".h c #CDCDCD",
".j c #246320",
".k c #458C3D",
".l c #215F1D",
".z c #78B76F",
".x c #BFBFBF",
".c c #BEBFBE",
".v c #74B36B",
".b c #72B569",
".n c #BBBBBB",
".m c #B9B9B9",
".M c #B7B7B7",
".N c #B5B5B5",
".B c #B3B3B3",
".V c None",
/* pixels */
".V.V.V I U.M T R.B.V.V.V.V.V.V.V",
".V.n V d.9.< 0.0 k K O.V.V.V.V.V",
" I.e 9.:.:.:.:.:.:.2.s q.V.V.V.V",
".m w 9.:.:.:.:.:.:.2 a.b...V.V.V",
".M.6 V x d.4 i.p B.;.  S G /.V.V",
".N e j.h J Z <.% o ^.+.@ 6.8 N.V",
" R.7 p g j m.r !.g.X.O.z.v.-.V.V",
" E t a.e.t H.>.. X.x j.&.d.V.V.V",
" W.9.q.t.i k.y J Y.n.e 1.V.V.V.V",
" Q y j v.a x v L.B c k {.V.V.V.V",
" ~ u l n M.y ;.c C 3 l } 5 7 ] >",
" @ l.9.y M.y b ` s.w.o $.=.# h F",
".V % A.0 t.7.u f ( ) & _.$ f.j.V",
".V.V = - = + # r z.* ' [ D.1.V.V",
".V.V.V.V.V.V.V.V 7 ].V.V.V.V.V.V",
".V.V.V.V.V.V.V.V.V.f.V.V.V.V.V.V"
};
