/* XPM */
const char *icon_famfamfam_silk_database_delete[] = {
/* width height ncolors chars_per_pixel */
"16 16 117 2",
/* colors */
"   c #B1B1B1",
" . c #AFAFAF",
" X c #D0753B",
" o c #ADADAD",
" O c #E16803",
" + c #ABABAB",
" @ c #A9A9A9",
" # c #A7A7A7",
" $ c #BF581D",
" % c #A5A5A5",
" & c #A3A3A3",
" * c #EA7905",
" = c #A1A1A1",
" - c #9F9F9F",
" ; c #999999",
" : c #959595",
" > c #B94403",
" , c #919191",
" < c #E67721",
" 1 c #F6B58D",
" 2 c #BC4305",
" 3 c #FF924D",
" 4 c #FEFEFE",
" 5 c #FCFCFC",
" 6 c #FAFAFA",
" 7 c #FF7F18",
" 8 c #F49D63",
" 9 c #F8F8F8",
" 0 c #F6F6F6",
" q c #F4F4F4",
" w c #F2F2F2",
" e c #F0F0F0",
" r c #EEEEEE",
" t c #EAEAEA",
" y c #E8E8E8",
" u c #E6E6E6",
" i c #E2E2E2",
" p c #E0E0E0",
" a c #DEDEDE",
" s c #DCDCDC",
" d c #BC4204",
" f c #D8D8D8",
" g c #EE7600",
" h c #D6D6D6",
" j c #D4D4D4",
" k c #D2D2D2",
" l c #D0D0D0",
" z c #CECECE",
" x c #BA541C",
" c c #C4C4C4",
" v c #C2C2C2",
" b c #C0C0C0",
" n c #BCBCBC",
" m c #BABABA",
" M c #B8B8B8",
" N c #B6B6B6",
" B c #B4B4B4",
" V c #B2B2B2",
" C c #B0B0B0",
" Z c #AEAEAE",
" A c #ACACAC",
" S c #BD4D04",
" D c #A0A0A0",
" F c #9E9E9E",
" G c #B94503",
" H c #BA4304",
" J c #8C8C8C",
" K c #F5A872",
" L c #B64E13",
" P c #DD6401",
" I c #BC4205",
" U c #EB8A40",
" Y c #BF5A22",
" T c #FFFFFF",
" R c #C4571D",
" E c #C28F74",
" W c #FDFDFD",
" Q c #FBFBFB",
" ! c #BE8B70",
" ~ c #F7F7F7",
" ^ c #F5F5F5",
" / c #F3F3F3",
" ( c #EFEFEF",
" ) c #EDEDED",
" _ c #EBEBEB",
" ` c #E7E7E7",
" ' c #C86527",
" ] c #E5E5E5",
" [ c #E3E3E3",
" { c #FF7711",
" } c #E1E1E1",
" | c #DDDDDD",
".  c #F7B58D",
".. c #DBDBDB",
".X c #D9D9D9",
".o c #F87600",
".O c #CB6B2D",
".+ c #FED6B8",
".@ c #D5D5D5",
".# c #AC7657",
".$ c #D1D1D1",
".% c #EF7F18",
".& c #CFCFCF",
".* c #FECDAE",
".= c #CDCDCD",
".- c #FF8621",
".; c #C9C9C9",
".: c #B84503",
".> c #C3C3C3",
"., c #BFBFBF",
".< c #BDBDBD",
".1 c #BBBBBB",
".2 c #B9B9B9",
".3 c #B7B7B7",
".4 c #B5B5B5",
".5 c #B3B3B3",
".6 c None",
/* pixels */
".6.6.6.6.6.6.6.6.6.6.6.6.6.6.6.6",
".6.6.6.6.6 m M.3 N B.5.6.6.6.6.6",
".6.6.6.1 l y / W 5 ) p v o.6.6.6",
".6.6 m } 4 T T T T T T Q.& @.6.6",
".6.6.2 9 4 T T T T T T Q t #.6.6",
".6.6.3 ~ ` ( 0 Q 6 e a.> u %.6.6",
".6.6.4 0 _ a h.@.$.> n b ] &.6.6",
".6.6 B ^ r u i u }.= v v [ D.6.6",
".6.6 V q t } | [ a.;.<., i F.6.6",
".6.6 C / ` |.X p.. c ! Y 2 L.6.6",
".6.6 Z w i f.@ s f E X. .+ K.O.6",
".6.6 A e a j k.. h x 1 3 {.- U >",
".6.6 @ a /.. k.. h I.* T T T.% d",
".6.6.6 % z ) q ^ q $ 8 7.o g O G",
".6.6.6.6 = - = + #.# ' < * P S.6",
".6.6.6.6.6.6.6.6.6.6.6 G d G.6.6"
};
