/* XPM */
static const char *icon_famfamfam_silk_door_out[] = {
/* width height ncolors chars_per_pixel */
"16 16 178 2",
/* colors */
"   c #A66E2C",
" . c #B89058",
" X c #3E7639",
" o c #D7B47D",
" O c #A5A5A5",
" + c #A3A3A3",
" @ c #A1A1A1",
" # c #B18547",
" $ c #9D9D9D",
" % c #2D6E28",
" & c #DAB883",
" * c #2C6C27",
" = c #9B9B9B",
" - c #D39D6F",
" ; c #999999",
" : c #989998",
" > c #E6D0A9",
" , c #BC844B",
" < c #C99A5B",
" 1 c #AA7436",
" 2 c #D1A666",
" 3 c #955D14",
" 4 c #CC9E61",
" 5 c #B58B51",
" 6 c #79BE72",
" 7 c #BA844C",
" 8 c #7D7D7D",
" 9 c #9B631D",
" 0 c #D1A773",
" q c #B58447",
" w c #E2C79E",
" e c #777777",
" r c #757575",
" t c #D29A6A",
" y c #D7B37C",
" u c #B78F56",
" i c #377931",
" p c #717171",
" a c #D3AB78",
" s c #34752E",
" d c #E3CBA2",
" f c #9D6725",
" g c #B3884B",
" h c #54904D",
" j c #DAB185",
" k c #D7B382",
" l c #83C37B",
" z c #515151",
" x c #C18952",
" c c #4F4F4F",
" v c #925A10",
" b c #7FC177",
" n c #CA9B5E",
" m c #474747",
" M c #454545",
" N c #986019",
" B c #3E8237",
" V c #71BB69",
" C c #3B7E34",
" Z c #925C13",
" A c #CC9F63",
" S c #CF9766",
" D c #66A55E",
" F c #B18345",
" G c #41763D",
" H c #AF8143",
" J c #94CC8B",
" K c #8DC884",
" L c #A87432",
" P c #C89658",
" I c #B67E43",
" U c #E1C798",
" Y c #2A6A26",
" T c #4F8947",
" R c #276623",
" E c #DDBF94",
" W c #E1B863",
" Q c #7CC073",
" ! c #468B3E",
" ~ c #8F570C",
" ^ c #C68E59",
" / c #EDC45E",
" ( c #B68D53",
" ) c #75BC6F",
" _ c #FFD44B",
" ` c #D69E6F",
" ' c #C48E5A",
" ] c #D49C6D",
" [ c #3F773A",
" { c #AE8041",
" } c #DEC291",
" | c #A4A4A4",
".  c #D2AB78",
".. c #A2A2A2",
".X c #AB7334",
".o c #A0A0A0",
".O c #DAB983",
".+ c #9C9C9C",
".@ c #9A9A9A",
".# c #CDA069",
".$ c #D09A6C",
".% c #D4AF7D",
".& c #E8D3AB",
".* c #E7D1AA",
".= c #945C13",
".- c #7CBF75",
".; c #808080",
".: c #DCBD8B",
".> c #7E7E7E",
"., c #CB9360",
".< c #7C7C7C",
".1 c #D9B788",
".2 c #7A7A7A",
".3 c #CFA367",
".4 c #AE7F40",
".5 c #BF8954",
".6 c #727272",
".7 c #DBBB8D",
".8 c #30702A",
".9 c #5D9D56",
".0 c #606060",
".q c #D6AF74",
".w c #5C5C5C",
".e c #E5CEA7",
".r c #C99A5A",
".t c #DFB45F",
".y c #599152",
".u c #54954D",
".i c #585858",
".p c #88C680",
".a c #DCB287",
".s c #509149",
".d c #545454",
".f c #E0C398",
".g c #AF7C3D",
".h c #FFFFFF",
".j c #91590F",
".k c #4C4C4C",
".l c #D4AD75",
".z c #B4894F",
".x c #4A4A4A",
".c c #3F8338",
".v c #B47E45",
".b c #AD7E3E",
".n c #A16925",
".m c #BA8A4E",
".M c #C99260",
".N c #B88B42",
".B c #67A65F",
".V c #65A45D",
".C c #C79554",
".Z c #D69E70",
".A c #B9915A",
".S c #40733C",
".D c #D7B37E",
".F c #96CD8D",
".G c #B1793B",
".H c #CC9666",
".J c #92CB89",
".K c #D1A86E",
".L c #DAB984",
".P c #D49E71",
".I c #A56F2F",
".U c #86C57D",
".Y c #286724",
".T c #B0793D",
".R c #E7D1AB",
".E c #256321",
".W c #478C3F",
".Q c #90580D",
".! c #458A3D",
".~ c #DCBD89",
".^ c #77BD6E",
"./ c #CC9F62",
".( c #DFC18F",
".) c #9C641F",
"._ c #69A760",
".` c None",
/* pixels */
".`.`.`.`.`.`.`.`.`.`.`.`.` ] t S",
".`.`.`.`.`.`.`.`.`.`.`.Z ] j.A.,",
".`.`.;.>.<.2 e r.6.P `.a.& > . ^",
".`.` 8 ; ;.@.@ = = -.*.R U } u x",
".`.`.2 :.y.@ =.+.+.$.e.(.~.: ( ,",
".`.` e h.! =.+ $ $.H d.~.O.L 5 I",
".`.` T._.V B C i s.M w & o.D.z.G",
".`.W.B.F.J K.p l.8 '.f y.q / g.X",
" ! D J.U Q.^ V.- *.5 E.l W _.N  ",
".`.c.9.p l b 6 ).Y 7.7.K 2.t #.n",
".`.` X.u.s % Y R.E.v.1.3 4 A F.)",
".`.`.0 [ G @.... +.T k./.r n H N",
".`.`.w.o.S.. + + | 1.% <.C P {.=",
".`.`.i.... + | | O.I.  a 0.#.4.j",
" ; p.d z c.k.x m M f L.g q.m.b ~",
".`.`.`.`.`.`.`.`.`.`.`.` v.Q Z ~"
};
