/* XPM */
const char *icon_famfamfam_silk_folder_add[] = {
/* width height ncolors chars_per_pixel */
"16 16 130 2",
/* colors */
"   c #F6E1AC",
" . c #F4D754",
" X c #E3C76B",
" o c #759758",
" O c #FAEDB3",
" + c #FFFDFA",
" @ c #F7E385",
" # c #FEFAEF",
" $ c #FAECAC",
" % c #928C32",
" & c #F3D88E",
" * c #FEFCF2",
" = c #FDFAF1",
" - c #F9E9A1",
" ; c #F6E9C9",
" : c #F7E38B",
" > c #8FBB6A",
" , c #F9E9A4",
" < c #FCF2C8",
" 1 c #F6DF76",
" 2 c #F6DC6C",
" 3 c #E2C35F",
" 4 c #DAAA36",
" 5 c #FEFBEE",
" 6 c #F2D47F",
" 7 c #DA9A36",
" 8 c #8DBA64",
" 9 c #8BBA62",
" 0 c #F6DE72",
" q c #F4D85C",
" w c #FEFDF4",
" e c #D8872D",
" r c #F5E09F",
" t c #F8E48E",
" y c #FFFDF8",
" u c #B2D295",
" i c #DAAF35",
" p c #DAAB35",
" a c #B6D49C",
" s c #F5DA63",
" d c #FCF4D7",
" f c #FEFCF0",
" g c #D8B22C",
" h c #3E6D1C",
" j c #F2D581",
" k c #F8E694",
" l c #FFFFFE",
" z c #F5DE91",
" x c #FEFCF3",
" c c #B1D390",
" v c #FDFAF2",
" b c #D8862C",
" n c #87B960",
" m c #F5DE94",
" M c #F4DC93",
" N c #FEFCF6",
" B c #DAAE34",
" V c #FBF7E9",
" C c #E2C360",
" Z c #EFD07A",
" A c #D98E33",
" S c #578F2D",
" D c #F7E285",
" F c #FEFBEF",
" G c #DAA637",
" H c #F5DB65",
" J c #FFFEFD",
" K c #EECF72",
" L c #8FBC67",
" P c #AEB354",
" I c #EFD494",
" U c #618A47",
" Y c #EFD280",
" T c #F5DB68",
" R c #B4D495",
" E c #FFFDF6",
" W c #B1D692",
" Q c #668E4F",
" ! c #F7E181",
" ~ c #D9B132",
" ^ c #EDCA6A",
" / c #E4C76B",
" ( c #F6DE76",
" ) c #FBF6E8",
" _ c #E1C25E",
" ` c #DAB336",
" ' c #DAAF36",
" ] c #538C28",
" [ c #DAAB36",
" { c #E9C173",
" } c #DAA136",
" | c #D0E6BA",
".  c #628944",
".. c #FCF6D8",
".X c #FEFCF1",
".o c #F6E07C",
".O c #EECE88",
".+ c #F8E695",
".@ c #FBEFB9",
".# c #FFFFFF",
".$ c #FFFCF5",
".% c #D8882D",
".& c #F3D786",
".* c #4C7B31",
".= c #376B19",
".- c #F4DB9E",
".; c #FAF0DC",
".: c #E6CD79",
".> c #FEFCF7",
"., c #D9B434",
".< c #DAA435",
".1 c #F9E89C",
".2 c #EFD385",
".3 c #FBF7EA",
".4 c #F8E591",
".5 c #DA9435",
".6 c #F3DA96",
".7 c #EACB6C",
".8 c #D8B32C",
".9 c #81AB61",
".0 c #B4B75B",
".q c #DBB63C",
".w c #FFFEFE",
".e c #FEFEFD",
".r c #8CBC65",
".t c #E5CA74",
".y c #87BA60",
".u c #F4DDA7",
".i c #EECF76",
".p c None",
/* pixels */
".p.p.p.p.p.p.p.p.p.p.p.p.p.p.p.p",
".p.p.p.p.p.p.p.p.p.p.p.p.p.p.p.p",
".p.p.p.p.p.p.p.p.p.p.p.p.p.p.p.p",
".p., _ C C C 3.q.p.p.p.p.p.p.p.p",
".p `.e l.w J l.3 / X X X.:.t.p.p",
".p i.> t z r   F w x.X F 5 + '.p",
".p 4 = m M j ^.7.2 Y Z.i K V B.p",
".p p ) I.O { ; * x * f F 5 l [.p",
".p G l y E.$ x.. k @ 1 T q d.<.p",
".p } N <.@ $.1 :.o 2.0 o Q U %.p",
".p 7 v O ,.+ D ( H P.9 R | > S.=",
".p.5 # -.4 ! 0 s ..  c W.#.r L.=",
".p A.;.u.-.6 &.& 6.* a.#.#.# u.=",
".p.p.% e.%.%.%.%.% h 9.y.# n L.=",
".p.p.p.p.p.p.p.p.p.= ] 8 u 8 ].=",
".p.p.p.p.p.p.p.p.p.p.=.=.=.=.=.p"
};
