/* XPM */
static const char *icon_famfamfam_silk_lightbulb[] = {
/* width height ncolors chars_per_pixel */
"16 16 161 2",
/* colors */
"   c #FEFCEC",
" . c #FDF7E1",
" X c #FBF1B4",
" o c #F8E586",
" O c #D98B33",
" + c #FEFCEF",
" @ c #EAB975",
" # c #E4A958",
" $ c #F9E9C9",
" % c #ECA34C",
" & c #E69D46",
" * c #F8E3B4",
" = c #554C3F",
" - c #F6E173",
" ; c #F8EA96",
" : c #F5DCA7",
" > c #F8E5CB",
" , c #F5DE68",
" < c #F3D4A5",
" 1 c #F5D99D",
" 2 c #EFC476",
" 3 c #F7E177",
" 4 c #FEFBEB",
" 5 c #F2CA90",
" 6 c #FBECC7",
" 7 c #FDF9D6",
" 8 c #FDF7D6",
" 9 c #FFFEF9",
" 0 c #BBA788",
" q c #FDE541",
" w c #EDBF6D",
" e c #FEFAE4",
" r c #F1CD88",
" t c #F4DBA2",
" y c #DC9238",
" u c #555048",
" i c #E5AA6F",
" p c #F4D698",
" a c #E4A243",
" s c #FDF6CF",
" d c #8B8F94",
" f c #F5E2B0",
" g c #F6E072",
" h c #F1CEAC",
" j c #F0C680",
" k c #F5E25D",
" l c #FDF6D2",
" z c #776E5F",
" x c #DEA761",
" c c #FEF9E0",
" v c #FDF9DF",
" b c #E68609",
" n c #F7BE4B",
" m c #EEC377",
" M c #F1D191",
" N c #D18233",
" B c #FDF9E2",
" V c #B19C7D",
" C c #FEFCF0",
" Z c #F7E572",
" A c #D68027",
" S c #FEFEDC",
" D c #FBF1B8",
" F c #FEFADC",
" G c #FDF8DB",
" H c #A2A5A6",
" J c #9FA1A3",
" K c #EBA138",
" L c #F5E1B2",
" P c #4A473F",
" I c #F6E174",
" U c #F6E46A",
" Y c #EFC88B",
" T c #F3D546",
" R c #F0CB82",
" E c #FDF9D4",
" W c #F7E482",
" Q c #FBEFD2",
" ! c #FCF4C9",
" ~ c #FFFDED",
" ^ c #FEFBEC",
" / c #FDF5C0",
" ( c #BEA27F",
" ) c #EDBB6B",
" _ c #FEF8E2",
" ` c #FBC351",
" ' c #EFB463",
" ] c #F6E0AF",
" [ c #ECBE77",
" { c #FEFAE5",
" } c #ECA64C",
" | c #FEF9DB",
".  c #EAB36B",
".. c #E4AE6F",
".X c #FCF2CF",
".o c #D67F29",
".O c #FAEBC3",
".+ c #FBF2BA",
".@ c #57432D",
".# c #41413F",
".$ c #F8E4B7",
".% c #A2A2A8",
".& c #FCF5C8",
".* c #E89116",
".= c #958163",
".- c #FEFAEB",
".; c #EA992F",
".: c #FDF9E0",
".> c #DE7C16",
"., c #EAEAEB",
".< c #534B43",
".1 c #D88931",
".2 c #FEFCEE",
".3 c #FBF1CA",
".4 c #FAEB8A",
".5 c #EEC57B",
".6 c #FCF0D8",
".7 c #BFA785",
".8 c #A3957A",
".9 c #EBBD78",
".0 c #8C7F35",
".q c #FCF0C4",
".w c #ECBE6F",
".e c #EFB568",
".r c #CCCCCD",
".t c #988A3A",
".y c #FFFFFF",
".u c #FDE647",
".i c #F8DFB6",
".p c #E3AA66",
".a c #E2A865",
".s c #FCF4C7",
".d c #F6E175",
".f c #98999D",
".g c #BBBCBC",
".h c #FDF6DF",
".j c #7D7768",
".k c #FDF7D5",
".l c #FBF1A8",
".z c #F6DEAD",
".x c #FDF4E2",
".c c #E9B568",
".v c #F0AE65",
".b c #FCF3D7",
".n c #F5DC59",
".m c #FCF6CD",
".M c #ECC078",
".N c #F7E37C",
".B c #E7AC5C",
".V c #EFC39C",
".C c #F6E071",
".Z c #E9BE78",
".A c #E8AF56",
".S c #454544",
".D c #F7E2CB",
".F c #F3D3A6",
".G c #EFB160",
".H c #FCF4D3",
".J c #DE994C",
".K c #766E60",
".L c None",
/* pixels */
".L.L.L.L.L : 1 M R 2 w m.L.L.L.L",
".L.L.L.z.$ 6.b . _.6.i ).A.L.L.L",
".L.L t.O B.:.k s !.s 7.- 5 a.L.L",
".L p * { G e C 9 9 + l X ~.  #.L",
".L r Q | v ^.2 + + 4 c D.l > y.L",
".L.5.h.&.m 8.H.X.3.q.+ ; Z.x.1.L",
".L.w $ E.N o.G.e ' } W.n.4.D O.L",
".L.M Y   3.;.d I , - b T S i.J.L",
".L.L.c < F K I U k g.* / h A.L.L",
".L.L.L.B.F.v I - g.C %.V.o.L.L.L",
".L.L.L.L x & n.u q `.> N.L.L.L.L",
".L.L.L.L.L.=.8.t.0.K.@.L.L.L.L.L",
".L.L.L.L.L.j H.%.f d.<.L.L.L.L.L",
".L.L.L.L.L z.g.,.r J =.L.L.L.L.L",
".L.L.L.L.L.L u.S.# P.L.L.L.L.L.L",
".L.L.L.L.L.L.L.L.L.L.L.L.L.L.L.L"
};
