/* XPM */
static const char *icon_famfamfam_silk_plugin_disabled[] = {
/* width height ncolors chars_per_pixel */
"16 16 59 1",
/* colors */
"  c #B1B1B1",
". c #AFAFAF",
"X c #ADADAD",
"o c #ABABAB",
"O c #A9A9A9",
"+ c #A7A7A7",
"@ c #A5A5A5",
"# c #A3A3A3",
"$ c #9F9F9F",
"% c #9D9D9D",
"& c #9B9B9B",
"* c #999999",
"= c #979797",
"- c #959595",
"; c #939393",
": c #8F8F8F",
"> c #8D8D8D",
", c #CCCCCC",
"< c #CACACA",
"1 c #C8C8C8",
"2 c #C6C6C6",
"3 c #C4C4C4",
"4 c #C2C2C2",
"5 c #C0C0C0",
"6 c #BEBEBE",
"7 c #BCBCBC",
"8 c #BABABA",
"9 c #B8B8B8",
"0 c #B6B6B6",
"q c #B4B4B4",
"w c #B2B2B2",
"e c #B0B0B0",
"r c #AEAEAE",
"t c #ACACAC",
"y c #AAAAAA",
"u c #A8A8A8",
"i c #A6A6A6",
"p c #A4A4A4",
"a c #A2A2A2",
"s c #A0A0A0",
"d c #9A9A9A",
"f c #989898",
"g c #929292",
"h c #909090",
"j c #8E8E8E",
"k c #8C8C8C",
"l c #8A8A8A",
"z c #FFFFFF",
"x c #CBCBCB",
"c c #C7C7C7",
"v c #C5C5C5",
"b c #C3C3C3",
"n c #BFBFBF",
"m c #BDBDBD",
"M c #BBBBBB",
"N c #B9B9B9",
"B c #B7B7B7",
"V c #B5B5B5",
"C c None",
/* pixels */
"CCCCCCCCCCCCCCCC",
"CCCCC7890CCCCCCC",
"CCCCCM,<qCCCCCCC",
"CCCCCB<3 CCCCCCC",
"CmMNBV<1roOiCCCC",
"CM,x<<1cv34#CCCC",
"C9x<Mwe. ebsCCCC",
"C0qMcertoO4t&f-C",
"CCC.2XtyO+.nmm;C",
"CCCt3oOu+@XmMMhC",
"CroqbO+ip#mpg:>C",
"Cob4 5n6myMgCCCC",
"Cu4+5o&*@8N:CCCC",
"C@5n6&CC;NBkCCCC",
"Ca$%d=CChjklCCCC",
"CCCCCCCCCCCCCCCC"
};
