/* XPM */
static const char *icon_famfamfam_silk_plugin_add[] = {
/* width height ncolors chars_per_pixel */
"16 16 132 2",
/* colors */
"   c #458536",
" . c #97D28D",
" X c #63AD5D",
" o c #83D079",
" O c #6FC062",
" + c #80CE76",
" @ c #6CBE5F",
" # c #7DCA73",
" $ c #68BC5B",
" % c #52A14C",
" & c #77C46D",
" * c #89CA82",
" = c #4E9D48",
" - c #88CA81",
" ; c #A7D99C",
" : c #8FBB6A",
" > c #A6D99B",
" , c #A1D796",
" < c #5BB651",
" 1 c #3B6F1E",
" 2 c #87CB79",
" 3 c #65B45E",
" 4 c #77C369",
" 5 c #82CF77",
" 6 c #80CD75",
" 7 c #93CF8B",
" 8 c #92CF8A",
" 9 c #90CF88",
" 0 c #8ECD86",
" q c #8DCD85",
" w c #8DBA64",
" e c #8BBA62",
" r c #64BB59",
" t c #61B956",
" y c #60B955",
" u c #5DB752",
" i c #6BB963",
" p c #67B55F",
" a c #B2D295",
" s c #63B15B",
" d c #9CD493",
" f c #99D290",
" g c #95D08C",
" h c #B6D49C",
" j c #73C267",
" k c #69BC5D",
" l c #78C66F",
" z c #76C46D",
" x c #B1D390",
" c c #5FB853",
" v c #89CA83",
" b c #72C069",
" n c #87B960",
" m c #4A9945",
" M c #6EBC65",
" N c #3B7C29",
" B c #A2D798",
" V c #A1D797",
" C c #9DD593",
" Z c #95CF8B",
" A c #94CF8A",
" S c #578F2D",
" D c #72C165",
" F c #71C164",
" G c #82CF78",
" H c #82CD78",
" J c #6DBF60",
" K c #7ECB74",
" L c #7DCB73",
" P c #7CC972",
" I c #7BC971",
" U c #55A44F",
" Y c #7AC770",
" T c #8FBC67",
" R c #51A04B",
" E c #8ACB83",
" W c #4F9E49",
" Q c #6FBF65",
" ! c #B4D495",
" ~ c #B1D692",
" ^ c #668E4F",
" / c #A4D899",
" ( c #A2D897",
" ) c #6DB566",
" _ c #6CB565",
" ` c #538C28",
" ' c #61AF5A",
" ] c #73C265",
" [ c #5EAD57",
" { c #5DAB56",
" } c #D0E6BA",
" | c #81CE76",
".  c #5AA953",
".. c #59A752",
".X c #61A250",
".o c #8CCC84",
".O c #8BCC83",
".+ c #88CA80",
".@ c #71C066",
".# c #FFFFFF",
".$ c #63BA58",
".% c #7AC072",
".& c #61BA56",
".* c #4C7B31",
".= c #5D8945",
".- c #6F975A",
".; c #376B19",
".: c #5B8743",
".> c #6AB862",
"., c #9ED595",
".< c #98D18F",
".1 c #96D18D",
".2 c #94CF8B",
".3 c #91CF88",
".4 c #6DA95E",
".5 c #85C97C",
".6 c #81AB61",
".7 c #6ABD5E",
".8 c #69BD5D",
".9 c #66BB5A",
".0 c #64BB58",
".q c #8CBC65",
".w c #72C169",
".e c #4D9C48",
".r c #87BA60",
".t c #6FBD66",
".y c #479642",
".u c #469641",
".i c #43923E",
".p c #A3D899",
".a c #A2D898",
".s c None",
/* pixels */
".s.s.s.s.s.s.s.s.s.s.s.s.s.s.s.s",
".s.s.s.s.s G 6 # Y.s.s.s.s.s.s.s",
".s.s.s.s.s H ;.a z.s.s.s.s.s.s.s",
".s.s.s.s.s P ( . b.s.s.s.s.s.s.s",
".s o | K I l V C M.> p s.s.s.s.s",
".s + > / B ,., d.< g A [.s.s.s.s",
".s L.p V 2 4 ] F j.@.2. .s.s.s.s",
".s Y &.5 d D O @.8.9 9 ) % = m.s",
".s.s.s.t f J.7 $ r.& Q.O *.+.u.s",
".s.s.s i.1 k.9.$ y u.4.- ^.:  .s",
".s M.>.% 7.0.& c <.X.6 ! } : S.;",
".s.> Z 8.w 0.o E -.= x ~.#.q T.;",
".s 3.3 t q _ % W X.* h.#.#.# a.;",
".s ' 0.o v %.s.s.y 1 e.r.# n T.;",
".s {.. U R.e.s.s.i N ` w a w `.;",
".s.s.s.s.s.s.s.s.s.s.;.;.;.;.;.s"
};
