/* XPM */
const char *icon_famfamfam_silk_plugin_delete[] = {
/* width height ncolors chars_per_pixel */
"16 16 142 2",
/* colors */
"   c #CF753A",
" . c #E16803",
" X c #97D28D",
" o c #EA7905",
" O c #63AD5D",
" + c #83D079",
" @ c #B35411",
" # c #6FC062",
" $ c #80CE76",
" % c #6CBE5F",
" & c #7DCA73",
" * c #68BC5B",
" = c #B94403",
" - c #52A14C",
" ; c #77C46D",
" : c #89CA82",
" > c #4E9D48",
" , c #88CA81",
" < c #AE540F",
" 1 c #958D42",
" 2 c #A7D99C",
" 3 c #A6D99B",
" 4 c #8B8938",
" 5 c #A1D796",
" 6 c #5BB651",
" 7 c #87CB79",
" 8 c #65B45E",
" 9 c #77C369",
" 0 c #B35310",
" q c #82CF77",
" w c #80CD75",
" e c #E67721",
" r c #93CF8B",
" t c #92CF8A",
" y c #F6B58D",
" u c #90CF88",
" i c #8ECD86",
" p c #8DCD85",
" a c #FF924D",
" s c #64BB59",
" d c #61B956",
" f c #60B955",
" g c #FF7F18",
" h c #F49D63",
" j c #5DB752",
" k c #6BB963",
" l c #67B55F",
" z c #63B15B",
" x c #9CD493",
" c c #99D290",
" v c #95D08C",
" b c #BC4204",
" n c #EE7600",
" m c #73C267",
" M c #69BC5D",
" N c #78C66F",
" B c #82732A",
" V c #76C46D",
" C c #5FB853",
" Z c #89CA83",
" A c #72C069",
" S c #4A9945",
" D c #6EBC65",
" F c #A2D798",
" G c #A1D797",
" H c #C76525",
" J c #9DD593",
" K c #BD4D04",
" L c #95CF8B",
" P c #94CF8A",
" I c #72C165",
" U c #71C164",
" Y c #82CF78",
" T c #82CD78",
" R c #6DBF60",
" E c #7ECB74",
" W c #7DCB73",
" Q c #7CC972",
" ! c #7BC971",
" ~ c #55A44F",
" ^ c #7AC770",
" / c #B94503",
" ( c #BA4304",
" ) c #C96B2D",
" _ c #51A04B",
" ` c #8ACB83",
" ' c #4F9E49",
" ] c #6FBF65",
" [ c #A4D899",
" { c #A2D897",
" } c #6DB566",
" | c #F5A872",
".  c #6CB565",
".. c #61AF5A",
".X c #73C265",
".o c #5EAD57",
".O c #5DAB56",
".+ c #81CE76",
".@ c #5AA953",
".# c #59A752",
".$ c #DD6401",
".% c #8CCC84",
".& c #8BCC83",
".* c #88CA80",
".= c #71C066",
".- c #EB8A40",
".; c #FFFFFF",
".: c #C4571D",
".> c #B95C1C",
"., c #63BA58",
".< c #7AC072",
".1 c #61BA56",
".2 c #6AB862",
".3 c #9ED595",
".4 c #FF7711",
".5 c #98D18F",
".6 c #96D18D",
".7 c #94CF8B",
".8 c #F7B58D",
".9 c #91CF88",
".0 c #BC4304",
".q c #F87600",
".w c #FED6B8",
".e c #85C97C",
".r c #EF7F18",
".t c #FECDAE",
".y c #6ABD5E",
".u c #69BD5D",
".i c #FF8621",
".p c #66BB5A",
".a c #B84503",
".s c #64BB58",
".d c #72C169",
".f c #4D9C48",
".g c #7A6E22",
".h c #6FBD66",
".j c #479642",
".k c #469641",
".l c #43923E",
".z c #A3D899",
".x c #A2D898",
".c c None",
/* pixels */
".c.c.c.c.c.c.c.c.c.c.c.c.c.c.c.c",
".c.c.c.c.c Y w & ^.c.c.c.c.c.c.c",
".c.c.c.c.c T 2.x V.c.c.c.c.c.c.c",
".c.c.c.c.c Q { X A.c.c.c.c.c.c.c",
".c +.+ E ! N G J D.2 l z.c.c.c.c",
".c $ 3 [ F 5.3 x.5 v P.o.c.c.c.c",
".c W.z G 7 9.X U m.=.7.@.c.c.c.c",
".c ^ ;.e x I # %.u.p u } - > S.c",
".c.c.c.h c R.y * s.1 ].& :.*.k.c",
".c.c.c k.6 M.p., f j 1.>.0 @.g.c",
".c D.2.< r.s.1 C 6 4  .8.w | ).c",
".c.2 L t.d i.% ` , < y a.4.i.- =",
".c 8.9 d p.  - ' O.0.t.;.;.;.r b",
".c.. i.% Z -.c.c.j 0 h g.q n . /",
".c.O.# ~ _.f.c.c.l B H e o.$ K.c",
".c.c.c.c.c.c.c.c.c.c.c / b /.c.c"
};
