/* XPM */
static const char *icon_famfamfam_silk_tag_blue[] = {
/* width height ncolors chars_per_pixel */
"16 16 88 1",
/* colors */
"  c #B1B1B1",
". c #AFAFAF",
"X c #ADADAD",
"o c #ABABAB",
"O c #9CD6FF",
"+ c #97D2FD",
"@ c #BCE2FD",
"# c #96D4FF",
"$ c #8CCFFF",
"% c #9AD5FF",
"& c #BDE3FD",
"* c #D6ECFB",
"= c #FCFCFC",
"- c #FAFAFA",
"; c #BAE1FD",
": c #E8E8E8",
"> c #E4E4E4",
", c #E2E2E2",
"< c #E0E0E0",
"1 c #89CEFE",
"2 c #DEDEDE",
"3 c #DCDCDC",
"4 c #DADADA",
"5 c #D8D8D8",
"6 c #9BD6FF",
"7 c #D4D4D4",
"8 c #D2D2D2",
"9 c #D0D0D0",
"0 c #CECECE",
"q c #CACACA",
"w c #C8C8C8",
"e c #C4C4C4",
"r c #98D4FF",
"t c #C0C0C0",
"y c #EAF5FD",
"u c #E8F3FB",
"i c #BCBCBC",
"p c #BABABA",
"a c #B8B8B8",
"s c #B6B6B6",
"d c #B4B4B4",
"f c #B2B2B2",
"g c #AEAEAE",
"h c #ACACAC",
"j c #8BCFFF",
"k c #AAAAAA",
"l c #8ACFFE",
"z c #8DCCF7",
"x c #97D1FA",
"c c #86CDFD",
"v c #D5ECFB",
"b c #89CEFF",
"n c #FFFFFF",
"m c #FDFDFD",
"M c #FBFBFB",
"N c #F7F7F7",
"B c #F3F3F3",
"V c #E7F3FB",
"C c #83CCFF",
"Z c #EBEBEB",
"A c #D3EBFB",
"S c #E9E9E9",
"D c #9ED7FF",
"F c #E7E7E7",
"G c #E5E5E5",
"H c #88CDFD",
"J c #D9D9D9",
"K c #F7FBFD",
"L c #D7D7D7",
"P c #D5D5D5",
"I c #F3F7F9",
"U c #D3D3D3",
"Y c #D1D1D1",
"T c #CDCDCD",
"R c #CBCBCB",
"E c #C9C9C9",
"W c #C7C7C7",
"Q c #C5C5C5",
"! c #C3C3C3",
"~ c #98D5FF",
"^ c #C1C1C1",
"/ c #8ED0FF",
"( c #BDBDBD",
") c #B9B9B9",
"_ c #B7B7B7",
"` c #FBFCFD",
"' c #B5B5B5",
"] c None",
/* pixels */
"P78Y90T]]]]]]]]]",
"Ummmmm>T]]]]]]]]",
"8m,0<mm,R]]]]]]]",
"9mT]qBMm<W]]]]]]",
"0m<qwNu&m2!]]]]]",
"Tmm=NylC@m3t]]]]",
"RZm-V1#%j@m4(]]]",
"]WSmACrD6j@mJ)]]",
"]]!:m*H~D6b;mL']",
"]]]tFm*H~O/z`J_]",
"]]]]iGm*c$xIJ_]]",
"]]]]]a>mv+KJ_]]]",
"]]]]]]d,mmJs]]]]",
"]]]]]]] <5s]]]]]",
"]]]]]]]]Xs]]]]]]",
"]]]]]]]]]]]]]]]]"
};
