/* XPM */
const char *icon_famfamfam_silk_tick[] = {
/* width height ncolors chars_per_pixel */
"16 16 83 1",
/* colors */
"  c #61A758",
". c #5FA556",
"X c #5CA953",
"o c #5CA353",
"O c #367A31",
"+ c #56A14D",
"@ c #33762E",
"# c #549F4B",
"$ c #86CC7C",
"% c #7EC874",
"& c #6DB463",
"* c #6CB262",
"= c #6AB260",
"- c #6AB060",
"; c #66B65C",
": c #68AE5E",
"> c #63B059",
", c #3D8337",
"< c #5FAC55",
"1 c #3C8136",
"2 c #3A7F34",
"3 c #397D33",
"4 c #377B31",
"5 c #34772E",
"6 c #87CD7C",
"7 c #85C97A",
"8 c #83C978",
"9 c #81C976",
"0 c #76BD6B",
"q c #499242",
"w c #6ABB5F",
"e c #69B95E",
"r c #478E40",
"t c #67B75C",
"y c #66B55B",
"u c #67AD5C",
"i c #3F8438",
"p c #90D284",
"a c #87CC7B",
"s c #5CA354",
"d c #579F4F",
"f c #79C06D",
"g c #529D4A",
"h c #499141",
"j c #8FD182",
"k c #64AC5B",
"l c #86C979",
"z c #60A657",
"x c #5DA454",
"c c #5AA651",
"v c #357930",
"b c #57A24E",
"n c #55A04C",
"m c #32752D",
"M c #82CB78",
"N c #6DB563",
"B c #6DB363",
"V c #69AF5F",
"C c #3D8237",
"Z c #3B8035",
"A c #3A7E34",
"S c #387C32",
"D c #35782F",
"F c #8ACE7F",
"G c #89CE7E",
"H c #85C87A",
"J c #82CA77",
"K c #81CA76",
"L c #6ABA5F",
"P c #FFFFFF",
"I c #65B45A",
"U c #408539",
"Y c #8DCF81",
"T c #8BCF7F",
"R c #89CD7D",
"E c #85CB79",
"W c #5AA252",
"Q c #59A051",
"! c #539E4B",
"~ c #519C49",
"^ c #519A49",
"/ c #8DCE80",
"( c None",
/* pixels */
"((((((((((((((((",
"((((((((((((((((",
"((((((((((((b(((",
"(((((((((((+BV((",
"((((((((((n*jHz(",
"(((((((((#-YT U(",
"((((((((!VFGzC((",
"((;f(((g:R6.1(((",
"(yl/c(~u$ExZ((((",
"(>0p7=&8Mo2(((((",
"((cNGaK9WA((((((",
"(((^kJ%Q3(((((((",
"((((rsdS((((((((",
"(((((,4(((((((((",
"((((((((((((((((",
"(((((((((((((((("
};
