/* XPM */
const char *icon_famfamfam_silk_wrench[] = {
/* width height ncolors chars_per_pixel */
"16 16 108 2",
/* colors */
"   c #4B7DD1",
" . c #799FDD",
" X c #5D89D2",
" o c #9BB8E7",
" O c #9D9D9D",
" + c #9AB6E6",
" @ c #9B9B9B",
" # c #999999",
" $ c #959595",
" % c #939393",
" & c #A3BDE8",
" * c #8F8F8F",
" = c #8D8D8D",
" - c #BACDEE",
" ; c #4579D1",
" : c #898989",
" > c #96B4E5",
" , c #878787",
" < c #858585",
" 1 c #838383",
" 2 c #818181",
" 3 c #5787D5",
" 4 c #85A7E1",
" 5 c #83A5DF",
" 6 c #9CB9E7",
" 7 c #9BB7E6",
" 8 c #789EDE",
" 9 c #A5BEE9",
" 0 c #BBCEEE",
" q c #5183D5",
" w c #4F81D3",
" e c #B8CCEE",
" r c #B7CCED",
" t c #94B3E5",
" y c #EEEEEE",
" u c #E4E4E4",
" i c #E2E2E2",
" p c #B3C8EC",
" a c #799FDE",
" s c #D4D4D4",
" d c #81A4DF",
" f c #477BD1",
" g c #D2D2D2",
" h c #CCCCCC",
" j c #C8C8C8",
" k c #C6C6C6",
" l c #C4C4C4",
" z c #C2C2C2",
" x c #C0C0C0",
" c c #BCBCBC",
" v c #BABABA",
" b c #ABC2EA",
" n c #7199DC",
" m c #7B9BD2",
" M c #87A9E1",
" N c #ACACAC",
" B c #A8C0EA",
" V c #A7C0E9",
" C c #9E9E9E",
" Z c #9C9C9C",
" A c #989898",
" S c #969696",
" D c #8CAEE2",
" F c #929292",
" G c #8CA9D8",
" H c #8E8E8E",
" J c #BACEEE",
" K c #7FA5DF",
" L c #8C8C8C",
" P c #8A8A8A",
" I c #888888",
" U c #868686",
" Y c #749CDE",
" T c #848484",
" R c #ACC3EA",
" E c #828282",
" W c #6591D9",
" Q c #94B3E6",
" ! c #92B1E4",
" ~ c #88A7DA",
" ^ c #497DD1",
" / c #B3C8ED",
" ( c #A5BFE9",
" ) c #BCCFEF",
" _ c #98B6E6",
" ` c #98B4E6",
" ' c #AEC6EB",
" ] c #ADC4EA",
" [ c #FFFFFF",
" { c #8BADE3",
" } c #89A9E1",
" | c #6F97DB",
".  c #E7E7E7",
".. c #9DB9E7",
".X c #9CB7E6",
".o c #DDDDDD",
".O c #D7D7D7",
".+ c #99B7E6",
".@ c #CFCFCF",
".# c #C7C7C7",
".$ c #C5C5C5",
".% c #C3C3C3",
".& c #739CDE",
".* c #B9B9B9",
".= c #ABC3EA",
".- c #B5B5B5",
".; c #4D7FD3",
".: c None",
/* pixels */
".:.:.:.:.:.:.:.:.:.: Z @ #.:.:.:",
".:.:.:.:.:.:.:.:.: @ u y S.:.:.:",
".:.:.:.:.:.:.:.: @ i. .* %.:.:.:",
".:.:.:.:.:.:.:.: A u.@ F.: H L P",
".:.:.:.:.:.:.:.: S.o.$ * = N.O ,",
".:.:.:.:.:.:.:.: % s j c v z l <",
".:.:.:.:.: { ~ F.# h.# k.% x T.:",
".:.:.:.: } 6 _ G g.- : , < 1.:.:",
".:.:.: M.X ) J D m I.:.:.:.:.:.:",
".:.: 4.+ 0 V & p d X.:.:.:.:.:.:",
".: 5 ` - ( >.. ' a q.:.:.:.:.:.:",
" K Q e 9 t 7 ] 8 w.:.:.:.:.:.:.:",
" . r & ! + R Y.;.:.:.:.:.:.:.:.:",
" | / o `.=.& ^.:.:.:.:.:.:.:.:.:",
" W d b B n f.:.:.:.:.:.:.:.:.:.:",
".: 3 q   ;.:.:.:.:.:.:.:.:.:.:.:"
};
