/* XPM */
static char * muhkuh_uninstall_032_xpm[] = {
"32 32 314 2",
"  	c None",
". 	c #2C200E",
"+ 	c #2F1D0E",
"@ 	c #3B240F",
"# 	c #42280E",
"$ 	c #583411",
"% 	c #39392F",
"& 	c #43290E",
"* 	c #674117",
"= 	c #49422F",
"- 	c #6F6F5B",
"; 	c #8A896F",
"> 	c #615A45",
", 	c #4A341B",
"' 	c #323229",
") 	c #7D7D65",
"! 	c #ACAC8D",
"~ 	c #818169",
"{ 	c #FF0000",
"] 	c #2F1E0A",
"^ 	c #5F5744",
"/ 	c #F4F4C6",
"( 	c #FFFFCF",
"_ 	c #96967A",
": 	c #313128",
"< 	c #323127",
"[ 	c #8E6652",
"} 	c #939377",
"| 	c #CFCFA8",
"1 	c #CACAA4",
"2 	c #C5C59F",
"3 	c #303027",
"4 	c #A41511",
"5 	c #DCDCB2",
"6 	c #D7D7AF",
"7 	c #797962",
"8 	c #7D7C66",
"9 	c #E6473A",
"0 	c #FC0B09",
"a 	c #B1B18F",
"b 	c #949479",
"c 	c #60604D",
"d 	c #3A3A31",
"e 	c #282821",
"f 	c #323228",
"g 	c #701F19",
"h 	c #FE0000",
"i 	c #FFBC98",
"j 	c #686855",
"k 	c #7F140F",
"l 	c #5B5B4B",
"m 	c #8A8A6F",
"n 	c #84846B",
"o 	c #C3C39D",
"p 	c #A95142",
"q 	c #F11816",
"r 	c #A8A195",
"s 	c #A3A393",
"t 	c #B5B598",
"u 	c #FEFECE",
"v 	c #C0C09F",
"w 	c #A0A095",
"x 	c #B69592",
"y 	c #FA0606",
"z 	c #676753",
"A 	c #97977A",
"B 	c #CCCCA5",
"C 	c #B1B190",
"D 	c #37372C",
"E 	c #FF8787",
"F 	c #FFFFFF",
"G 	c #DDDDDC",
"H 	c #959581",
"I 	c #B0B0AC",
"J 	c #A8A8A8",
"K 	c #EF3F3F",
"L 	c #9D9D7D",
"M 	c #D0D0AA",
"N 	c #929277",
"O 	c #2A2A23",
"P 	c #FC0E0E",
"Q 	c #FA0808",
"R 	c #C1A9A9",
"S 	c #84847A",
"T 	c #D1D1D0",
"U 	c #8A4B4B",
"V 	c #B3B391",
"W 	c #969679",
"X 	c #22221B",
"Y 	c #7F7F7F",
"Z 	c #FF6E6E",
"` 	c #DA4040",
" .	c #F8F8F8",
"..	c #A0A08C",
"+.	c #9F9F8C",
"@.	c #EB2927",
"#.	c #3B3B32",
"$.	c #333326",
"%.	c #636363",
"&.	c #F8D8D8",
"*.	c #FF0606",
"=.	c #FE0303",
"-.	c #A87E74",
";.	c #F0F0C3",
">.	c #FFBF9B",
",.	c #D34141",
"'.	c #FD493B",
").	c #FF483A",
"!.	c #FE0F0C",
"~.	c #44372E",
"{.	c #EB0201",
"].	c #FF876D",
"^.	c #FF0100",
"/.	c #FF7760",
"(.	c #8E8E73",
"_.	c #FF0604",
":.	c #FFE5B9",
"<.	c #F6F6C7",
"[.	c #2C2C24",
"}.	c #303025",
"|.	c #F95041",
"1.	c #FF624F",
"2.	c #D3D3AC",
"3.	c #1F1F1A",
"4.	c #4C4C3F",
"5.	c #FFEEC1",
"6.	c #FF1F19",
"7.	c #FF0201",
"8.	c #FFD7AE",
"9.	c #B9B997",
"0.	c #20201A",
"a.	c #AEAE8D",
"b.	c #FFC9A3",
"c.	c #FF0705",
"d.	c #FF0E0B",
"e.	c #FFE6BA",
"f.	c #DFDFB5",
"g.	c #88846F",
"h.	c #443D37",
"i.	c #49393C",
"j.	c #594549",
"k.	c #564447",
"l.	c #3E3132",
"m.	c #404032",
"n.	c #DCDCB3",
"o.	c #ECECBF",
"p.	c #FF8D72",
"q.	c #FF4235",
"r.	c #D0CDA7",
"s.	c #6C6457",
"t.	c #705E5B",
"u.	c #C59AA0",
"v.	c #FCC4CC",
"w.	c #EAB5BA",
"x.	c #7A5464",
"y.	c #805468",
"z.	c #B58B94",
"A.	c #604B4E",
"B.	c #2D2325",
"C.	c #3C3131",
"D.	c #776260",
"E.	c #87706E",
"F.	c #7B6764",
"G.	c #6B5E57",
"H.	c #BB342D",
"I.	c #C33534",
"J.	c #E6B4BB",
"K.	c #FFC7CF",
"L.	c #E0AEB4",
"M.	c #6D3F58",
"N.	c #AF478F",
"O.	c #5D334F",
"P.	c #DAABB2",
"Q.	c #35292A",
"R.	c #47383A",
"S.	c #BA9096",
"T.	c #FCC5CD",
"U.	c #FC1B1C",
"V.	c #FF0101",
"W.	c #FF8E93",
"X.	c #E8B6BD",
"Y.	c #AE848C",
"Z.	c #BE9098",
"`.	c #514041",
" +	c #423335",
".+	c #EEBAC1",
"++	c #A27883",
"@+	c #754360",
"#+	c #743F5F",
"$+	c #A47A85",
"%+	c #FF9FA6",
"&+	c #FF2526",
"*+	c #FF2426",
"=+	c #FF0D0D",
"-+	c #FFABB2",
";+	c #574546",
">+	c #937478",
",+	c #C1959D",
"'+	c #8E4175",
")+	c #FF66CF",
"!+	c #EE5FC1",
"~+	c #7C5164",
"{+	c #FF5F63",
"]+	c #FF858A",
"^+	c #FFB2B9",
"/+	c #FF1819",
"(+	c #FF2324",
"_+	c #FFBFC7",
":+	c #4D3C3F",
"<+	c #CA9DA4",
"[+	c #B28A90",
"}+	c #873C6E",
"|+	c #AF498F",
"1+	c #74405F",
"2+	c #D2A2AA",
"3+	c #FF1F21",
"4+	c #FF1D1E",
"5+	c #FFC5CD",
"6+	c #FFAAB0",
"7+	c #FF1112",
"8+	c #E1B0B7",
"9+	c #35282C",
"0+	c #281F21",
"a+	c #DFAEB5",
"b+	c #BE949A",
"c+	c #B28990",
"d+	c #EEBAC2",
"e+	c #FF7A7F",
"f+	c #FFA1A8",
"g+	c #FF0404",
"h+	c #FFA8AF",
"i+	c #654F52",
"j+	c #2B2222",
"k+	c #D4A6AD",
"l+	c #FF7175",
"m+	c #FF1617",
"n+	c #FFC2CA",
"o+	c #FF9CA2",
"p+	c #FF0A0B",
"q+	c #FF383A",
"r+	c #FEC6CE",
"s+	c #84686A",
"t+	c #8F6E73",
"u+	c #FF3C3F",
"v+	c #FF7C81",
"w+	c #FD969C",
"x+	c #FE0909",
"y+	c #D26C71",
"z+	c #A17E83",
"A+	c #584446",
"B+	c #332A2A",
"C+	c #CC9FA6",
"D+	c #FF3538",
"E+	c #FFC6CE",
"F+	c #E4B2B9",
"G+	c #9C7A7E",
"H+	c #665053",
"I+	c #5C484B",
"J+	c #584548",
"K+	c #564346",
"L+	c #883D40",
"M+	c #F60505",
"N+	c #E81516",
"O+	c #755C5D",
"P+	c #352B2B",
"Q+	c #332929",
"R+	c #86696C",
"S+	c #E7B5BC",
"T+	c #FFC1C9",
"U+	c #FE1718",
"V+	c #D08E93",
"W+	c #775D60",
"X+	c #5D484C",
"Y+	c #685154",
"Z+	c #B89096",
"`+	c #F5BFC7",
" @	c #FF8E94",
".@	c #604A4D",
"+@	c #302729",
"@@	c #463639",
"#@	c #533F43",
"$@	c #47393D",
"%@	c #4D3435",
"&@	c #886A6E",
"*@	c #CEA1A7",
"=@	c #EDB9C0",
"-@	c #CD9FA6",
";@	c #B48C92",
">@	c #A88489",
",@	c #937377",
"'@	c #8F5659",
")@	c #E41314",
"!@	c #C01819",
"~@	c #98787C",
"{@	c #E7B4BC",
"]@	c #A07E82",
"^@	c #776561",
"/@	c #504841",
"(@	c #787162",
"_@	c #86826D",
":@	c #A09F82",
"<@	c #4B4B3D",
"[@	c #634F51",
"}@	c #AC868B",
"|@	c #8E7473",
"1@	c #4D443F",
"2@	c #666053",
"3@	c #B2B190",
"4@	c #F3F3C5",
"5@	c #BCBC99",
"6@	c #3D3D31",
"7@	c #D2D2AB",
"8@	c #F8F8C9",
"9@	c #272720",
"                                .                               ",
"                    + @       # $               %               ",
"                    & * = - ; > ,           ' ) ! ~             ",
"                {   ] ^ / ( ( ( _ :     < [ } | 1 2 3           ",
"                { { 4 5 ( ( ( ( ( 6 7 8 9 0 a b c d             ",
"          e f g { { h i ( ( ( ( ( ( j k { {                     ",
"      l m n o p { { { q r s t u v w x y { {                     ",
"    z A B C D   { { { { E F G H I J K { { {                     ",
"    L M N O     P { { { Q R F S T U { { {                       ",
"    V W X     Y Z { { { { `  ...+.@.{ { {                       ",
"    #.$.      %.&.*.{ { { =.-.;.>.{ { {                         ",
"                %.,.{ { { { '.( ).{ { !.~.                      ",
"                    {.{ { { { ].^.{ { /.(.                      ",
"                      { { { { { { { _.:.<.[.                    ",
"                    }.|.{ { { { { { 1.( ( 2.3.                  ",
"                    4.5.6.{ { { { 7.8.( ( ( 9.0.                ",
"                    a.( b.c.{ { { d.e.( ( f.g.h.i.j.k.l.        ",
"                  m.n.o.( p.{ { { { q.r.s.t.u.v.w.x.y.z.A.      ",
"              B.C.D.E.F.G.H.{ { { { { I.J.K.K.K.L.M.N.O.P.Q.    ",
"          R.S.T.K.K.K.K.K.U.{ { { { { V.W.K.K.K.K.X.Y.Z.K.`.    ",
"         +.+++@+#+$+K.K.%+{ { &+*+{ { { =+-+K.K.K.K.K.K.K.;+    ",
"        >+,+'+)+!+~+K.K.{+{ { ]+^+/+{ { { (+_+K.K.K.K.K.K.:+    ",
"        <+[+}+|+1+2+K.K.3+{ 4+5+K.6+7+{ { { {+K.K.K.K.K.8+9+    ",
"      0+a+K.b+c+d+K.K.6+{ { e+K.K.K.f+=+{ { g+h+K.K.K.K.i+      ",
"      j+k+K.K.K.K.K.K.l+{ m+n+K.K.K.K.o+p+{ { q+K.K.r+s+        ",
"        t+K.K.K.K.K.K.u+{ v+K.K.K.K.K.K.w+x+{ { y+z+A+          ",
"        B+C+K.K.K.K.K.7+D+E+K.F+G+H+I+J+K+L+M+{ N+O+P+          ",
"          Q+R+S+K.K.T+U+V+W+X+Y+Z+`+K.K.K.K.%+7+{  @.@          ",
"              +@@@#@$@%@&@*@r+K.K.K.=@-@;@>@,@'@)@!@            ",
"                    ~@K.K.K.{@]@^@/@(@_@:@<@                    ",
"                    [@}@|@1@2@3@4@( ( ( ( 5@                    ",
"                      6@7@u ( ( ( ( ( ( ( 8@9@                  "};
