/* XPM */
static char * muhkuh_uninstall_016_xpm[] = {
"16 16 96 2",
"  	c None",
". 	c #000000",
"+ 	c #FF0000",
"@ 	c #180000",
"# 	c #550000",
"$ 	c #8C8C70",
"% 	c #B1B18E",
"& 	c #E93429",
"* 	c #FFFFCF",
"= 	c #F4F4C6",
"- 	c #4C0000",
"; 	c #F80000",
"> 	c #A8A888",
", 	c #160000",
"' 	c #FE0000",
") 	c #BE726D",
"! 	c #9C9C89",
"~ 	c #8D867F",
"{ 	c #F71818",
"] 	c #CC0000",
"^ 	c #B4B48F",
"/ 	c #FC3F3F",
"( 	c #E00B0B",
"_ 	c #7E7B76",
": 	c #9E322F",
"< 	c #905151",
"[ 	c #BF5749",
"} 	c #FE1F19",
"| 	c #F20605",
"1 	c #0A0000",
"2 	c #A30000",
"3 	c #FE0404",
"4 	c #FF7B63",
"5 	c #110000",
"6 	c #FF1D17",
"7 	c #FF0403",
"8 	c #FFE7BB",
"9 	c #F5F5C7",
"0 	c #CACAA4",
"a 	c #FFB693",
"b 	c #EB8B71",
"c 	c #817968",
"d 	c #A99189",
"e 	c #AA888A",
"f 	c #7C6464",
"g 	c #AD3836",
"h 	c #FA0504",
"i 	c #E9939A",
"j 	c #FFC7CF",
"k 	c #C18C9C",
"l 	c #936279",
"m 	c #9C787E",
"n 	c #A35883",
"o 	c #9E5E7E",
"p 	c #F92E30",
"q 	c #FF3E40",
"r 	c #FF5E62",
"s 	c #FF1E1F",
"t 	c #FFBEC6",
"u 	c #A68388",
"v 	c #D5A5AD",
"w 	c #A96688",
"x 	c #C48E9F",
"y 	c #FFB9C1",
"z 	c #FF0303",
"A 	c #FF9AA0",
"B 	c #FFC6CE",
"C 	c #FF4B4E",
"D 	c #D8A8AF",
"E 	c #FF878C",
"F 	c #FF3538",
"G 	c #FFC4CC",
"H 	c #FD4244",
"I 	c #FE0506",
"J 	c #DD949A",
"K 	c #DAAAB2",
"L 	c #FE7579",
"M 	c #D68B90",
"N 	c #927475",
"O 	c #947577",
"P 	c #9A777B",
"Q 	c #A17A7E",
"R 	c #E73235",
"S 	c #E43D40",
"T 	c #776063",
"U 	c #9C797E",
"V 	c #98767B",
"W 	c #967C7A",
"X 	c #73635D",
"Y 	c #675954",
"Z 	c #010000",
"` 	c #4E0000",
" .	c #A09381",
"..	c #C4C09F",
"+.	c #FCFCCD",
"@.	c #EDEDC0",
"          .     .       .       ",
"        + @ . . .   # $ % .     ",
"    .   + & * * = - ; . .       ",
"  . > , ' + ) ! ~ { ]           ",
". ^ . . / + ( _ : +             ",
"  .     < + + [ } | 1           ",
"          2 + 3 + 4 .           ",
"          5 6 + 7 8 9 .         ",
"        . 0 a + + b c d . . .   ",
"      . e f g ' + h i j k l m   ",
"    . n o j p q r + s t j j u   ",
"  . v w x y z A B C + r j j .   ",
"  . D j j E F j j G H I J .     ",
"    . K j L M N O P Q R S .     ",
"      . . T U V W X Y Z `       ",
"          .  ...+.* @..         "};
