/* XPM */
static char * muhkuh_test_ok_32_xpm[] = {
"32 32 23 1",
" 	c None",
".	c #245B24",
"+	c #122412",
"@	c #244924",
"#	c #498049",
"$	c #5BB65B",
"%	c #000000",
"&	c #80FF80",
"*	c #375B37",
"=	c #376D37",
"-	c #378037",
";	c #243724",
">	c #5BA45B",
",	c #49A449",
"'	c #6DDB6D",
")	c #001200",
"!	c #499249",
"~	c #6DC86D",
"{	c #6DED6D",
"]	c #5BC85B",
"^	c #123712",
"/	c #80ED80",
"(	c #121212",
"                                ",
"             .+  +@             ",
"             +#$$.+             ",
"            %$&&&&*    %@=.     ",
"     @==-=+.$&&&&&&=+;#>,,')    ",
"    *!~,@) +{&&&&&&'@*=!!!.     ",
"    >'=%   +!,$&&],,=           ",
"    -^     {&,$]{>>~&-          ",
"          *&&@>${$#$&=          ",
"           =>,,&&$,,.           ",
"           %~&&&&&&&@           ",
"           )&&&&&&&&=           ",
"           @&&&&&&&&>           ",
"           >&&&&&&&&/+          ",
"          @&&&&&&&&&&!          ",
"         ('&&&&&&&&&&&;         ",
"     %@*==..!/&&&&&&',.%%       ",
"    ($$#>''',.=>$,=@=,$]!#;     ",
"    !!@-@>'''']!!,]''''$;@#^    ",
"   ('.!!@$''''''''''''''-@=#    ",
"   ;'$*=$''''''''''''''''''!    ",
"   @'''''''''''''''''''''''#    ",
"   +'''''''''''''''''''''''@    ",
"    ='''''''''''''''''''''!     ",
"     *~''''''''~]~'''''''#%     ",
"      )@-#-*@.;.-+*.;.*=^       ",
"         )=,.&>$&*&{@$=         ",
"        +,>!=.@@.@.*-!!*        ",
"        ;''''''''''''''$        ",
"         +=>'''''''''>=(        ",
"           ^*.......*#%         ",
"           !&&&&&&&&&&^         "};
