/* XPM */
static char * muhkuh_test_failed_32_xpm[] = {
"28 32 23 1",
" 	c None",
".	c #5B2424",
"+	c #241212",
"@	c #121212",
"#	c #492424",
"$	c #371212",
"%	c #924949",
"&	c #372424",
"*	c #000000",
"=	c #FF8080",
"-	c #5B3737",
";	c #B65B5B",
">	c #DB6D6D",
",	c #C85B5B",
"'	c #6D3737",
")	c #A44949",
"!	c #ED6D6D",
"~	c #804949",
"{	c #ED8080",
"]	c #C86D6D",
"^	c #803737",
"/	c #A45B5B",
"(	c #120000",
"                            ",
"           .+  @#           ",
"          @$.%%#&           ",
"          *%====-           ",
"       *+.;======.          ",
"     +%>%&%%,====>'.$*      ",
"    -%='@>==)!==~;#$;,'#    ",
"   #~{' %==={)=;>={  #])$   ",
"   )>.  ,==^-%=%^#=-  *..   ",
"   ^#   ,==>,/=;;>=#        ",
"        %===)!==%,^         ",
"         )>);====]~         ",
"         #;!======,         ",
"         %========{@        ",
"        +{========='        ",
"        /==========!@       ",
"       .{===========%       ",
"   +.'''#./======={;%(      ",
"  ^>)%]>>]~#~,>,%.#^);/~.*  ",
" #]#-'#>>>>>/''^)>>>>>.##%* ",
" /%')~#>>>>>>>>>>>>>>>%&#%$ ",
"(>]##-,>>>>>>>>>>>>>>>>];>. ",
"+>>>>>>>>>>>>>>>>>>>>>>>>># ",
"(>>>>>>>>>>>>>>>>>>>>>>>>>+ ",
" ^>>>>>>>>>>>>>>>>>>>>>>>%  ",
" *%>>>>>>>>>>>>>>>>>>>>>/(  ",
"   #)>>>>];%^'''~);]>>]^(   ",
"     (+###'~);;;)~'.#&(     ",
"     *;>>>>>>>>>>>>>>>&     ",
"     *,>>,%-####-%;>>>$     ",
"      +#++)>====>/'##&      ",
"         '========={(       "};
