/* XPM */
const char *icon_famfamfam_silk_database_add[] = {
/* width height ncolors chars_per_pixel */
"16 16 107 2",
/* colors */
"   c #B1B1B1",
" . c #AFAFAF",
" X c #ADADAD",
" o c #ABABAB",
" O c #A9A9A9",
" + c #A7A7A7",
" @ c #A5A5A5",
" # c #A3A3A3",
" $ c #A1A1A1",
" % c #9F9F9F",
" & c #999999",
" * c #959595",
" = c #919191",
" - c #8FBB6A",
" ; c #8DBA64",
" : c #8BBA62",
" > c #FEFEFE",
" , c #FCFCFC",
" < c #FAFAFA",
" 1 c #F8F8F8",
" 2 c #F6F6F6",
" 3 c #72965D",
" 4 c #F4F4F4",
" 5 c #F2F2F2",
" 6 c #49782E",
" 7 c #F0F0F0",
" 8 c #EEEEEE",
" 9 c #EAEAEA",
" 0 c #B2D295",
" q c #E8E8E8",
" w c #E6E6E6",
" e c #E2E2E2",
" r c #E0E0E0",
" t c #DEDEDE",
" y c #DCDCDC",
" u c #B6D49C",
" i c #D8D8D8",
" p c #D6D6D6",
" a c #D4D4D4",
" s c #D2D2D2",
" d c #D0D0D0",
" f c #CECECE",
" g c #C4C4C4",
" h c #B1D390",
" j c #C2C2C2",
" k c #87B960",
" l c #C0C0C0",
" z c #BCBCBC",
" x c #BABABA",
" c c #B8B8B8",
" v c #B6B6B6",
" b c #B4B4B4",
" n c #B2B2B2",
" m c #B0B0B0",
" M c #AEAEAE",
" N c #ACACAC",
" B c #578F2D",
" V c #A0A0A0",
" C c #9E9E9E",
" Z c #8FBC67",
" A c #8C8C8C",
" S c #B4D495",
" D c #B1D692",
" F c #668E4F",
" G c #3F7022",
" H c #538C28",
" J c #D0E6BA",
" K c #95A68A",
" L c #FFFFFF",
" P c #FDFDFD",
" I c #FBFBFB",
" U c #F7F7F7",
" Y c #F5F5F5",
" T c #608948",
" R c #4C7B31",
" E c #F3F3F3",
" W c #376B19",
" Q c #5C8544",
" ! c #EFEFEF",
" ~ c #EDEDED",
" ^ c #EBEBEB",
" / c #E7E7E7",
" ( c #E5E5E5",
" ) c #E3E3E3",
" _ c #E1E1E1",
" ` c #94A788",
" ' c #DDDDDD",
" ] c #DBDBDB",
" [ c #D9D9D9",
" { c #D5D5D5",
" } c #D1D1D1",
" | c #CFCFCF",
".  c #CDCDCD",
".. c #81AB61",
".X c #C9C9C9",
".o c #8CBC65",
".O c #C3C3C3",
".+ c #87BA60",
".@ c #647F55",
".# c #BFBFBF",
".$ c #BDBDBD",
".% c #BBBBBB",
".& c #B9B9B9",
".* c #B7B7B7",
".= c #B5B5B5",
".- c #B3B3B3",
".; c None",
/* pixels */
".;.;.;.;.;.;.;.;.;.;.;.;.;.;.;.;",
".;.;.;.;.; x c.* v b.-.;.;.;.;.;",
".;.;.;.% d q E P , ~ r j X.;.;.;",
".;.; x _ > L L L L L L I | O.;.;",
".;.;.& 1 > L L L L L L I 9 +.;.;",
".;.;.* U / ! 2 I < 7 t.O w @.;.;",
".;.;.= 2 ^ t p { }.O z l ( #.;.;",
".;.; b Y 8 w e w _.  j j ) V.;.;",
".;.; n 4 9 _ ' ) t.X.$.# e C.;.;",
".;.; m E / ' [ r ] g K 3 F Q.;.;",
".;.; M 5 e i { y i `.. S J - B W",
".;.; N 7 t a s ] p T h D L.o Z W",
".;.; O t E ] s ] p R u L L L 0 W",
".;.;.; @ f ~ 4 Y 4 G :.+ L k Z W",
".;.;.;.; $ % $ o +.@ H ; 0 ; H W",
".;.;.;.;.;.;.;.;.;.; W W W W W.;"
};
