/* XPM */
const char *icon_famfamfam_silk_folder_database[] = {
/* width height ncolors chars_per_pixel */
"16 16 155 2",
/* colors */
"   c #F6E1AC",
" . c #F4D754",
" X c #FDFAEB",
" o c #EDE6D8",
" O c #ADADAD",
" + c #ABABAB",
" @ c #F6DD6D",
" # c #F6F2E4",
" $ c #FAEDB3",
" % c #F1D272",
" & c #A5A5A5",
" * c #F5DA62",
" = c #F4D757",
" - c #FEFAEF",
" ; c #939393",
" : c #FAECAC",
" > c #F3D88E",
" , c #FDFAF1",
" < c #F9E9A1",
" 1 c #DAD4C8",
" 2 c #D8D2C6",
" 3 c #FAECAF",
" 4 c #F9E9A4",
" 5 c #FCF2C8",
" 6 c #E1A851",
" 7 c #F2D347",
" 8 c #E2C35F",
" 9 c #EAC57E",
" 0 c #FBF2CA",
" q c #DAAA36",
" w c #F2D47F",
" e c #DA9A36",
" r c #F6DE72",
" t c #FAFAFA",
" y c #D8872D",
" u c #F8F8F8",
" i c #F6F6F6",
" p c #F4F4F4",
" a c #F2F2F2",
" s c #F5E09F",
" d c #F0F0F0",
" f c #F8E48E",
" g c #ECECEC",
" h c #FFFDF8",
" j c #DAAF35",
" k c #DAAB35",
" l c #E4E4E4",
" z c #E2E2E2",
" x c #F0CB26",
" c c #F5DA63",
" v c #F1CF69",
" b c #D6D6D6",
" n c #F2D581",
" m c #D0D0D0",
" M c #CACACA",
" N c #FFFFFE",
" B c #F8E38A",
" V c #F5DE91",
" C c #C8C8C8",
" Z c #C6C6C6",
" A c #FDFAF2",
" S c #D8862C",
" D c #FDF9E8",
" F c #E1AE4F",
" G c #F8EAC2",
" H c #BCBCBC",
" J c #BABABA",
" K c #F5DE94",
" L c #B8B8B8",
" P c #F4DC93",
" I c #B6B6B6",
" U c #B4B4B4",
" Y c #FEFCF6",
" T c #B2B2B2",
" R c #B0B0B0",
" E c #FDF9EB",
" W c #E2C360",
" Q c #A8A8A8",
" ! c #DBDBDA",
" ~ c #D98E33",
" ^ c #F7E285",
" / c #A2A2A2",
" ( c #FEFBEF",
" ) c #DAA637",
" _ c #9E9E9E",
" ` c #9A9A9A",
" ' c #E9C060",
" ] c #FFFEFD",
" [ c #8C8C8C",
" { c #FEFAE8",
" } c #FDF8E7",
" | c #F2D379",
".  c #868686",
".. c #F8E48C",
".X c #FFFDF6",
".o c #F7E181",
".O c #B1B1B0",
".+ c #B3B0A8",
".@ c #FBF6E8",
".# c #EDD777",
".$ c #E1C25E",
".% c #F5DA61",
".& c #DAB336",
".* c #F7E07A",
".= c #F2DD7F",
".- c #DAA136",
".; c #F6DD6F",
".: c #F7E387",
".> c #DED8CB",
"., c #F8E695",
".< c #FBEFB9",
".1 c #FFFFFF",
".2 c #F2D039",
".3 c #FBFBFB",
".4 c #FFFCF5",
".5 c #F9F9F9",
".6 c #D8882D",
".7 c #F3D786",
".8 c #F1CD2E",
".9 c #F1F1F1",
".0 c #F3D347",
".q c #F4DB9E",
".w c #EFEFEF",
".e c #EDEDED",
".r c #FAF0DC",
".t c #FEFCF7",
".y c #D9B434",
".u c #E4AF60",
".i c #F3D654",
".p c #F7DF79",
".a c #FBF7EA",
".s c #F8E591",
".d c #DA9435",
".f c #DBDBDB",
".g c #F3DA96",
".h c #D9D9D9",
".j c #D7D7D7",
".k c #D5D5D5",
".l c #D1D1D1",
".z c #CFCFCF",
".x c #CBCBCB",
".c c #DBB63C",
".v c #FFFEFE",
".b c #FEFEFD",
".n c #F1D06C",
".m c #E9D36E",
".M c #C5C5C5",
".N c #E3AE5B",
".B c #F4DDA7",
".V c #BBBBBB",
".C c #B9B9B9",
".Z c #B7B7B7",
".A c #B5B5B5",
".S c #F7E182",
".D c None",
/* pixels */
".D.D.D.D.D.D.D.D.D.C.Z.A T R.D.D",
".D.D.D.D.D.D.D J b.e.5.3 d.h +.D",
".D.D.D.D.D.D.D L i p.5.3 i i Q.D",
".D.D.D.D.D.D.D I a.h l z C.9 &.D",
".D.D.D.D.D.D.D U u.f.w m m.1 /.D",
".y.$ W W W 8.c.O u.k.w.x.x.1 _.D",
".&.b N.v ] N.a.+ u.l g.M Z.1 `.D",
" j.t f V s   (.O t.j z M.z.1 ;.D",
" q , K P n ' F.d.d.d.d.d.d.d [.D",
" k.@ 9.N 6.u X E o.> 1 2 !.d.D.D",
" ) N h.X.4 { 3 f.:.=.#.m #.d.D.D",
".- Y 5.< :.. B.S.p @.% = }.d.D.D",
" e A $ 4., ^.o.*.; *.i 7 D.d.D.D",
".d - <.s.o r c ..0.2.8 x 0.d.D.D",
" ~.r.B.q.g >.7 w | %.n v G ~.D.D",
".D.6 y.6.6.6.6.6.6.6.6 y.6 S.D.D"
};
