/* XPM */
const char *icon_famfamfam_silk_folder_edit[] = {
/* width height ncolors chars_per_pixel */
"16 16 151 2",
/* colors */
"   c #F6E1AC",
" . c #DD9841",
" X c #875F28",
" o c #E3C76B",
" O c #EED379",
" + c #D7B973",
" @ c #FAEDB3",
" # c #F7E15A",
" $ c #AA641C",
" % c #BD8849",
" & c #D1952B",
" * c #F9E3B2",
" = c #FEFAEF",
" - c #F4DDAD",
" ; c #EEC765",
" : c #F5DF5B",
" > c #FAECAC",
" , c #FEFCF2",
" < c #FDFAF1",
" 1 c #F9E9A1",
" 2 c #AA8943",
" 3 c #F6E9C9",
" 4 c #EDC328",
" 5 c #F9E9A4",
" 6 c #FCF2C8",
" 7 c #F1D47B",
" 8 c #E2C35F",
" 9 c #F7DF63",
" 0 c #C78C48",
" q c #F5E4AD",
" w c #FBF2CA",
" e c #DAAA36",
" r c #DC9742",
" t c #C59849",
" y c #DA9A36",
" u c #F8E25D",
" i c #D39C5A",
" p c #DC9945",
" a c #D1B790",
" s c #CA9251",
" d c #D8A558",
" f c #E7C08B",
" g c #B3772D",
" h c #FEFDF4",
" j c #D8872D",
" k c #BE7A1A",
" l c #E7BE77",
" z c #EED681",
" x c #F5E09F",
" c c #F0D379",
" v c #F8E48E",
" b c #FFFDF8",
" n c #DAAF35",
" m c #D2AF6C",
" M c #DAAB35",
" N c #E1C260",
" B c #D89A54",
" V c #F1CF69",
" C c #FDF6C4",
" Z c #D8B22C",
" A c #F2D581",
" S c #F0D2B4",
" D c #FFFFFE",
" F c #F5DE91",
" G c #BC8D42",
" H c #FEFCF3",
" J c #F4E3B1",
" K c #FDFAF2",
" L c #83652B",
" P c #D8862C",
" I c #D7A363",
" U c #F2D67A",
" Y c #F8EAC2",
" T c #FFF2E0",
" R c #F5DE94",
" E c #F4DC93",
" W c #FEFCF6",
" Q c #E2C360",
" ! c #EDD078",
" ~ c #D98E33",
" ^ c #B9792E",
" / c #C98541",
" ( c #FEFBEF",
" ) c #F9C991",
" _ c #DAA637",
" ` c #553D11",
" ' c #EED47C",
" ] c #FFFEFD",
" [ c #EFD494",
" { c #F9C794",
" } c #D89C38",
" | c #EFD280",
".  c #EBC75B",
".. c #F5DC5E",
".X c #FFFDF6",
".o c #D9B132",
".O c #EDCA6A",
".+ c #E4C76B",
".@ c #FBF6E8",
".# c #F6DD6C",
".$ c #D5B67A",
".% c #E2C25F",
".& c #E1C25E",
".* c #DAB336",
".= c #EDCA6D",
".- c #FDF6C2",
".; c #E9C173",
".: c #DAA136",
".> c #F6D3AE",
"., c #FFF3E5",
".< c #FCF6D8",
".1 c #FEFCF1",
".2 c #C38333",
".3 c #EECE88",
".4 c #F8E695",
".5 c #FBEFB9",
".6 c #FCE0C4",
".7 c #FFFFFF",
".8 c #E7CB77",
".9 c #FFFCF5",
".0 c #D8882D",
".q c #D09D46",
".w c #FAF0DC",
".e c #E6CD79",
".r c #FEFCF7",
".t c #D9B434",
".y c #D7882F",
".u c #F9E89C",
".i c #EFD385",
".p c #FBF7EA",
".a c #F2D974",
".s c #DA9835",
".d c #F8E591",
".f c #DA9435",
".g c #F7E25B",
".h c #EACB6C",
".j c #D8B32C",
".k c #DBB185",
".l c #D39F66",
".z c #DBB63C",
".x c #E2A14D",
".c c #FFFEFE",
".v c #FEFEFD",
".b c #E5CA74",
".n c #FDF7C7",
".m c #F4DDA7",
".M c #EFD2AC",
".N c #E4C955",
".B c #EFD46D",
".V c #F5DC5F",
".C c None",
/* pixels */
".C.C.C.C.C.C.C.C.C.C.C.C.C.C.C.C",
".C.C.C.C.C.C.C.C.C.C.C.C.C.C.C.C",
".C.C.C.C.C.C.C.C.C.C.C.C.C.C.C.C",
".C.t.& Q Q Q 8.z.C.C.C.C.C.C.C.C",
".C.*.v D.c ] D.p.+ o o o.e.b.C.C",
".C n.r v F x   ( h H.1 J d.k.q.C",
".C e < R E A.O.h.i |.  l S.,.M 0",
".C M.@ [.3.; 3 , H q z * f.>.6.l",
".C _ D b.X.9 H.<.a ' C.#.= I i.C",
".C.: W 6.5 >.u.B O.n.V.g U.x }.C",
".C y K @ 5.4 N.8.n.. # 7 . -.s.C",
".C.f = 1.d.% +.- 9 u c r 4 w.f.C",
".C ~.w.m m.$ a.N : ! p ; V Y ~.C",
".C.C.0 j 2 T B k t.2.y.0 j.0 P.C",
".C.C.C.C L { ) / $.C.C.C.C.C.C.C",
".C.C.C.C ` X % G.C.C.C.C.C.C.C.C"
};
