/* XPM */
const char *icon_famfamfam_flags_ad[] = {
/* width height ncolors chars_per_pixel */
"16 11 161 2",
/* colors */
"   c #BCA77D",
" . c #EBEB23",
" X c #F25656",
" o c #DFDF00",
" O c #C2AE7C",
" + c #415BC7",
" @ c #EF4949",
" # c #E5D052",
" $ c #C7B74F",
" % c #F9F976",
" & c #E10000",
" * c #E81514",
" = c #5D71D5",
" - c #CD0000",
" ; c #EC2425",
" : c #5B71D3",
" > c #EB2424",
" , c #FCFC86",
" < c #596DD1",
" 1 c #CCC04D",
" 2 c #91A0E0",
" 3 c #A7B2E5",
" 4 c #8C9ADB",
" 5 c #E91B1B",
" 6 c #EF0000",
" 7 c #3951C5",
" 8 c #FCFC75",
" 9 c #F37D6D",
" 0 c #B4BFEB",
" q c #CAA262",
" w c #DB0000",
" e c #F2F240",
" r c #FCFC8C",
" t c #C70000",
" y c #FBFB81",
" u c #D3B285",
" i c #5167CF",
" p c #F5F550",
" a c #97A5E2",
" s c #AEB9E8",
" d c #F76A6A",
" f c #EB2523",
" g c #EC3B3B",
" h c #F03635",
" j c #CCB98B",
" k c #D3D300",
" l c #EEEE2B",
" z c #F45D5D",
" x c #F34545",
" c c #677BD7",
" v c #B0BBED",
" b c #B59D71",
" n c #F4F448",
" m c #D50000",
" M c #919FDF",
" N c #2B47BD",
" B c #F5F500",
" V c #F4F45F",
" C c #9BA8E2",
" Z c #E0A97A",
" A c #E1E100",
" S c #FAFA68",
" D c #F1403C",
" F c #F13C3C",
" G c #F54D4D",
" H c #EA1E1E",
" J c #9EAAE8",
" K c #96A4E0",
" L c #5F73D5",
" P c #FDFD8F",
" I c #5D71D3",
" U c #F9F960",
" Y c #E9D361",
" T c #EC3A3A",
" R c #A3AFE6",
" E c #EF3733",
" W c #8695DA",
" Q c #F34644",
" ! c #E81515",
" ~ c #ABB6E7",
" ^ c #DBDB00",
" / c #EDED40",
" ( c #FBFB7C",
" ) c #F10000",
" _ c #B8A276",
" ` c #F2F252",
" ' c #EE302B",
" ] c #F5F54B",
" [ c #F86F70",
" { c #DD0000",
" } c #FDFD00",
" | c #F45C4B",
".  c #D1A46A",
".. c #EA1D1D",
".X c #A3AEE2",
".o c #D8AE74",
".O c #1933B7",
".+ c #94A1DD",
".@ c #DACF6F",
".# c #F2F258",
".$ c #EB0000",
".% c #99A7E5",
".& c #7D8DDA",
".* c #2F49BF",
".= c #B1996B",
".- c #556BD7",
".; c #9FACE4",
".: c #4961CB",
".> c #F1F13C",
"., c #0D2BB1",
".< c #8494DD",
".1 c #CFCF00",
".2 c #B4BEEB",
".3 c #9BA8E3",
".4 c #EE2D2D",
".5 c #E50000",
".6 c #B2BCE9",
".7 c #EEEE46",
".8 c #A6B3E7",
".9 c #8C9BDE",
".0 c #F7F75C",
".q c #EA3636",
".w c #96A4E1",
".e c #F0F04B",
".r c #F3F344",
".t c #F3F16F",
".y c #AC9465",
".u c #F03335",
".i c #F6F654",
".p c #EDED2A",
".a c #E82D2D",
".s c #031FAD",
".d c #CB0000",
".f c #E93131",
".g c #EE2C2C",
".h c #ED4242",
".j c #F23D3D",
".k c #0011AD",
".l c #D7D700",
".z c #8C9ADD",
".x c #F1EE69",
".c c #F56464",
".v c #8B9ADC",
".b c #F1624C",
".n c #E61010",
".m c #F9F900",
".M c #C50000",
".N c #9EAAE1",
".B c #FBFB6F",
".V c #FBFB05",
".C c #B0996B",
".Z c #919FDE",
".A c #F1504F",
".S c #CBBC57",
".D c #9FACE5",
".F c #B7C0EC",
".G c #E70000",
".H c #D0AF7D",
".J c #99A6DF",
".K c #D30000",
".L c None",
/* pixels */
" c L L =.- }.V.m.m B B ) 6.$.G.5",
" :.F.F 0 v P r , y ( % [ d.c z &",
" L.F.8 R J 8.B.t.x.0.i G x.j X {",
" I.2 R.D.%.B j u.H O ] Q F h.A w",
" <.6.;.3 a S Z 9 Y. .r D.u.4 @ m",
" i s C.w 2 U.o Y | q.> E.g ;.h.K",
".: ~ K M.9.@  .b #.= 1 ' > H g -",
" + 3.Z.v.< p _ b.C.y l f.. !.q.d",
" 7.X 4 W.& n e.S $.p . 5 *.n.f t",
" N.N.J.+.z V.# `.e.7 / T.q.f.a.M",
".*.O.,.s.k A o ^.l k.1 -.d t.M.M"
};
