/* XPM */
const char *icon_famfamfam_flags_ae[] = {
/* width height ncolors chars_per_pixel */
"16 11 109 2",
/* colors */
"   c #000000",
" . c #F50000",
" X c #74C774",
" o c #6DC36D",
" O c #FC6666",
" + c #0F0F0E",
" @ c #5CBB5C",
" # c #53B753",
" $ c #F4F5F5",
" % c #51B751",
" & c #FA5D5D",
" * c #EF0000",
" = c #47B347",
" - c #42B142",
" ; c #37AB37",
" : c #31A931",
" > c #F95455",
" , c #FD0000",
" < c #61BE60",
" 1 c #F95858",
" 2 c #4B4B4B",
" 3 c #FCFCFC",
" 4 c #FAFAFA",
" 5 c #F8F8F8",
" 6 c #F6F6F6",
" 7 c #F4F4F4",
" 8 c #F2F2F2",
" 9 c #3D3D3D",
" 0 c #393939",
" q c #353535",
" w c #FB4A49",
" e c #F70000",
" r c #007D00",
" t c #2F2F2F",
" y c #007900",
" u c #007500",
" i c #FE5959",
" p c #007300",
" a c #FD6F6F",
" s c #006D00",
" d c #292929",
" f c #006900",
" g c #006300",
" h c #005D00",
" j c #232323",
" k c #005900",
" l c #005300",
" z c #004D00",
" x c #004700",
" c c #004100",
" v c #70C571",
" b c #131313",
" n c #FE5F5F",
" m c #0B0B0B",
" M c #FB4545",
" N c #F10000",
" B c #FD5454",
" V c #FC6A6A",
" C c #FF7B7A",
" Z c #FE7979",
" A c #FE5858",
" S c #FF0000",
" D c #FB6162",
" F c #FD4F50",
" G c #FC4F4F",
" H c #69C269",
" J c #65C065",
" K c #FD5353",
" L c #54BA54",
" P c #F90000",
" I c #4EB44E",
" U c #4CB64C",
" Y c #49B249",
" T c #3DAE3D",
" R c #FC4A4B",
" E c #FA3F3F",
" W c #2CA62C",
" Q c #F30000",
" ! c #505050",
" ~ c #181919",
" ^ c #FDFDFD",
" / c #FBFBFB",
" ( c #F9F9F9",
" ) c #58B957",
" _ c #464646",
" ` c #F7F7F7",
" ' c #F5F5F5",
" ] c #FE7777",
" [ c #424242",
" { c #F3F3F3",
" } c #F93A3A",
" | c #343434",
".  c #FF7B7B",
".. c #323232",
".X c #FB4949",
".o c #2E2E2E",
".O c #ED0000",
".+ c #2C2C2C",
".@ c #D7D7D7",
".# c #D5D5D5",
".$ c #D1D1D1",
".% c #1E1E1E",
".& c #CFCFCF",
".* c #FE5C5C",
".= c #FE7273",
".- c #FB0000",
".; c #FE7676",
".: c #FA4444",
".> c None",
/* pixels */
" S S S S , r y u p s f g h k l z",
" S. .  Z ] X v o H J < @ ) # I x",
" S C n.* i L % U = - T ; : W Y c",
" S Z.* i B ^ 3 / 4 ( 5 ` 6 ' 6.@",
" ,.; A B F 3 / 4 ( 5 ` 6 ' 7 '.#",
" ,.= K G R / 4 ( 5 ` 6 ' 7 { $.$",
" , a G w M 4 ( 5 ` 6 ' 7 { 8 7.$",
".- V.X M E ( 5 ` 6 ' 7 { 8 8 {.&",
" P O.: E } |.o d j.% ~ b + m t  ",
" e D & 1 > ! 2 _ [ 9 0 q.. t.+  ",
" . Q N *.O                      "
};
