/* XPM */
const char *icon_famfamfam_flags_af[] = {
/* width height ncolors chars_per_pixel */
"16 11 152 2",
/* colors */
"   c #000000",
" . c #797A7A",
" X c #F17776",
" o c #717272",
" O c #F96060",
" + c #F50000",
" @ c #999999",
" # c #969796",
" $ c #E10000",
" % c #EEBDBB",
" & c #FB6F6F",
" * c #A06E40",
" = c #FB7C7C",
" - c #898989",
" ; c #249C25",
" : c #64BB64",
" > c #ED4040",
" , c #F54C4B",
" < c #777777",
" 1 c #737373",
" 2 c #F85B5B",
" 3 c #BF9775",
" 4 c #DB0000",
" 5 c #49AD49",
" 6 c #45AF45",
" 7 c #6D6D6D",
" 8 c #6B6B6B",
" 9 c #FB0505",
" 0 c #42A942",
" q c #656565",
" w c #3BA53B",
" e c #35A535",
" r c #36A336",
" t c #5F5F5F",
" y c #FC8686",
" u c #A47143",
" i c #2DA12D",
" p c #2CA12C",
" a c #EB2323",
" s c #575757",
" d c #FD0000",
" f c #249D24",
" g c #F36A69",
" h c #F4B2AF",
" j c #AE7D53",
" k c #50B04F",
" l c #FB8181",
" z c #F13C3C",
" x c #3EAA3D",
" c c #007500",
" v c #006D00",
" b c #292929",
" n c #F24040",
" m c #006700",
" M c #CF0000",
" N c #005300",
" B c #925723",
" V c #F04B4B",
" C c #004D00",
" Z c #A9784A",
" A c #1B1B1B",
" S c #004500",
" D c #F34444",
" F c #191919",
" G c #FA6F6F",
" H c #171717",
" J c #003B00",
" K c #151515",
" L c #003300",
" P c #131313",
" I c #F8C9C9",
" U c #002D00",
" Y c #002700",
" T c #002500",
" R c #E8807E",
" E c #002100",
" W c #001F00",
" Q c #F44848",
" ! c #001B00",
" ~ c #F45E5F",
" ^ c #001700",
" / c #828383",
" ( c #ED2A2A",
" ) c #F68385",
" _ c #FA6868",
" ` c #787979",
" ' c #A0693A",
" ] c #FD8F8F",
" [ c #EEA0A1",
" { c #6D6D6E",
" } c #6F1500",
" | c #F2C9C9",
".  c #ED4F51",
".. c #EF3232",
".X c #969696",
".o c #949494",
".O c #929292",
".+ c #D70000",
".@ c #975E2A",
".# c #8E8E8E",
".$ c #6ABE6A",
".% c #848484",
".& c #5DB85D",
".* c #7E7E7E",
".= c #F25252",
".- c #7A7A7A",
".; c #56B456",
".: c #F90000",
".> c #0F9110",
"., c #747474",
".< c #6E6E6E",
".1 c #666666",
".2 c #3CAA3C",
".3 c #F97676",
".4 c #36A236",
".5 c #F25858",
".6 c #31A031",
".7 c #319E31",
".8 c #2D9E2D",
".9 c #585858",
".0 c #EEC8C7",
".q c #F96262",
".w c #F4C1C3",
".e c #0B0909",
".r c #505050",
".t c #DF0000",
".y c #1E981E",
".u c #1D981D",
".i c #EEB4B3",
".p c #F13939",
".a c #159415",
".s c #FC7575",
".d c #FC8B8C",
".f c #F75959",
".g c #FA6869",
".h c #000101",
".j c #EE4646",
".k c #36A535",
".l c #F28785",
".z c #F55050",
".x c #F0C9C8",
".c c #F7C6C5",
".v c #E77B7A",
".b c #F7D3D2",
".n c #170000",
".m c #F65454",
".M c #F9CACA",
".N c #159514",
".B c #9B6432",
".V c #EE2B2B",
".C c #D30000",
".Z c None",
/* pixels */
" b A A A K d 9.:.: + + } c v m m",
" H @ @ #.o ].d y l =.3 3.$ :.& N",
" A @ /.*.-.s &.g.q 2.m j 6 x.; C",
" F.X.* .., & G I.c ) , Z.2.k k S",
" P.O ` 1.< _.M.l X.w D u e i 5 J",
".e.# 1 {.1 O.b %.i | z ' p ; 0 L",
".h - 7.1 t.f h.x.0 [...B f.y w U",
"  .% q t.9.z g R.v. .V.@.u.a r Y",
"  .* t s.r Q n.p.. ( a B.N.>.6 E",
"   < o 8 q ~.5.= V.j > *.4.7.8 ^",
"           $.t 4.+.C M.n Y W ! T"
};
