/* XPM */
const char *icon_famfamfam_flags_ag[] = {
/* width height ncolors chars_per_pixel */
"16 11 147 2",
/* colors */
"   c #000000",
" . c #848071",
" X c #E86F6A",
" o c #FBDF47",
" O c #390000",
" + c #70A8DE",
" @ c #AB0000",
" # c #5B5A59",
" $ c #6BA4DC",
" % c #E4C547",
" & c #FADE42",
" * c #B90000",
" = c #E39999",
" - c #614E4E",
" ; c #7C7765",
" : c #5E9DDC",
" > c #7B7B7B",
" , c #797979",
" < c #777777",
" 1 c #B5B36B",
" 2 c #F5ECEC",
" 3 c #DB0000",
" 4 c #E75A54",
" 5 c #ED837E",
" 6 c #B30000",
" 7 c #5E91CB",
" 8 c #DE504B",
" 9 c #F4EEEE",
" 0 c #F08984",
" q c #EE8582",
" w c #F0C9C9",
" e c #DE3E37",
" r c #535353",
" t c #C1BF80",
" y c #67A1DA",
" u c #3A3937",
" i c #D50000",
" p c #DB4741",
" a c #F8F8F8",
" s c #F6F6F6",
" d c #AD0000",
" f c #E8625E",
" g c #DE4D47",
" h c #DA332C",
" j c #ED6C66",
" k c #313131",
" l c #DFBF3D",
" z c #689CD7",
" x c #CCB969",
" c c #CF0000",
" v c #EE706A",
" b c #E55954",
" n c #CD5964",
" m c #BB0000",
" M c #EC635E",
" N c #7A2626",
" B c #6DA3D5",
" V c #EA7773",
" C c #428AD9",
" Z c #CDBB6D",
" A c #5B9AE1",
" S c #E25954",
" D c #79ACDA",
" F c #656560",
" G c #302C2C",
" H c #645F5F",
" J c #DD0000",
" K c #8E7B7B",
" L c #83AFDD",
" P c #7CAEE0",
" I c #C90000",
" U c #4684CC",
" Y c #AD5D72",
" T c #5D98D2",
" R c #E4544F",
" E c #B50000",
" W c #B19D51",
" Q c #E96761",
" ! c #EA7979",
" ~ c #DD3831",
" ^ c #8C7F51",
" / c #DA342E",
" ( c #393731",
" ) c #DF544D",
" _ c #2B2C2D",
" ` c #E75E58",
" ' c #D70000",
" ] c #E9A09F",
" [ c #C30000",
" { c #D72B24",
" } c #DD4B44",
" | c #E6C84C",
".  c #D86060",
".. c #D82F28",
".X c #EAC83C",
".o c #EDCBCA",
".O c #5A5854",
".+ c #74AAE1",
".@ c #75A9D8",
".# c #DF3932",
".$ c #CA2424",
".% c #DB6666",
".& c #E50000",
".* c #DD4D47",
".= c #7F6F36",
".- c #4788D9",
".; c #CE7B7A",
".: c #BD0000",
".> c #518FDC",
"., c #5C5C5C",
".< c #810000",
".1 c #E05550",
".2 c #787774",
".3 c #EC7B76",
".4 c #DF0000",
".5 c #DBC154",
".6 c #CB0000",
".7 c #F7F7F7",
".8 c #5692DD",
".9 c #F5F5F5",
".0 c #E4544D",
".q c #B70000",
".w c #ED7F7A",
".e c #B14949",
".r c #DA342C",
".t c #A35C5C",
".y c #639ED9",
".u c #AE9842",
".i c #DB4444",
".p c #B72D3B",
".a c #71A6D6",
".s c #EACA4B",
".d c #D90000",
".f c #E9746F",
".g c #C50000",
".h c #585757",
".j c #B10000",
".k c #E66762",
".l c #4D8CDA",
".z c #943F5A",
".x c #E75E59",
".c c #58595A",
".v c #E76B66",
".b c #E03931",
".n c #D30000",
".m c #D82F29",
".M c None",
/* pixels */
" O                              ",
".q K > , <.2 . Z x ; F.,.h r -.<",
".&.; H., #.5 W | %.u l u k G.e @",
".4 !.t.c.O ^.s o &.X.= ( _ N.i m",
" J 0 v L P t D.@.a B 1 T 7 e S *",
" 3 q j n z A.8.>.l.- C U.p.#.1 E",
" 3 5 Q M Y.+ + $ y.y :.z.b / 8 6",
".d.w f.x 4 ] a.7 s.9 = ~.r.m g.j",
" '.3 ` b R.0 w s.9.o.$ h.. { } d",
".n V.f X.v.k.% 2 9.  ) 8.* } p d",
" i c.6 I.g [.: * * E E.j.j d d.j"
};
