/* XPM */
const char *icon_famfamfam_flags_ai[] = {
/* width height ncolors chars_per_pixel */
"16 11 161 2",
/* colors */
"   c #115BB9",
" . c #4189C7",
" X c #88A8CE",
" o c #FFBEBF",
" O c #FE8186",
" + c #00006D",
" @ c #62A2D0",
" # c #001B91",
" $ c #EAA0AA",
" % c #4892CA",
" & c #000070",
" * c #FFAAAE",
" = c #5299CD",
" - c #5199CC",
" ; c #4AB4E6",
" : c #F9EEED",
" > c #F88890",
" , c #F8D86B",
" < c #4F95CA",
" 1 c #6AA7D4",
" 2 c #5DA0D1",
" 3 c #00005F",
" 4 c #398BC8",
" 5 c #005EBB",
" 6 c #71A8D4",
" 7 c #4D95CB",
" 8 c #347FC3",
" 9 c #9EB1D2",
" 0 c #000076",
" q c #F4B4BD",
" w c #4B91C9",
" e c #C96C89",
" r c #AED4F2",
" t c #D4CADC",
" y c #3A84C2",
" u c #FFE5EF",
" i c #004BB4",
" p c #3A86C5",
" a c #3081C5",
" s c #6BA6D4",
" d c #6AA6D3",
" f c #D2546D",
" g c #66A0CF",
" h c #000068",
" j c #448DC8",
" k c #FFADB0",
" l c #2975BE",
" z c #4A86C4",
" x c #2C76B7",
" c c #5B9DCE",
" v c #F0F5FA",
" b c #FB9195",
" n c #005BBA",
" m c #F9EFEF",
" M c #66A4D2",
" N c #FFC5CA",
" B c #F9DCE5",
" V c #4E64B4",
" C c #000057",
" Z c #569BCC",
" A c #71ABD6",
" S c #4C96CC",
" D c #7BB0D9",
" F c #00005A",
" G c #559BCE",
" H c #FF878B",
" J c #5295CB",
" K c #68BFE7",
" L c #919BBD",
" P c #B090AA",
" I c #458EC8",
" U c #FF9498",
" Y c #5DA0CF",
" T c #FC9095",
" R c #F7E296",
" E c #00017E",
" W c #000049",
" Q c #2D80C4",
" ! c #68A5D3",
" ~ c #002EA2",
" ^ c #64BDE6",
" / c #81B3DB",
" ( c #5CA0D1",
" ) c #FDF6F5",
" _ c #5A86B8",
" ` c #5F5AA6",
" ' c #4C95CB",
" ] c #9EC7EA",
" [ c #4A91C9",
" { c #FEFAF9",
" } c #62A1D0",
" | c #61BBE6",
".  c #7CB1D9",
".. c #000B84",
".X c #569CCE",
".o c #549ACC",
".O c #3385C6",
".+ c #00004F",
".@ c #F5BAC2",
".# c #001691",
".$ c #F7B1BA",
".% c #62A3D3",
".& c #F5E5A7",
".* c #77ADD7",
".= c #000052",
".- c #5096CB",
".; c #5695C7",
".: c #4E94C9",
".> c #00003E",
"., c #A95681",
".< c #5A9DCE",
".1 c #002297",
".2 c #EDF3F8",
".3 c #001E97",
".4 c #2B60B7",
".5 c #000041",
".6 c #65A4D2",
".7 c #B05981",
".8 c #7DB2D9",
".9 c #3F89C7",
".0 c #589DCF",
".q c #579BCE",
".w c #55B5E3",
".e c #4DB6E5",
".r c #6EA9D4",
".t c #97CDEF",
".y c #000044",
".u c #5FA0CF",
".i c #F6E6A7",
".p c #79AED8",
".a c #5499CE",
".s c #5D68B6",
".d c #4692CA",
".f c #001289",
".g c #75ACD7",
".h c #DF94A1",
".j c #E5939D",
".k c #74ACD6",
".l c #AD839E",
".z c #000036",
".x c #5A9ED0",
".c c #599ECF",
".v c #002599",
".b c #3F88C6",
".n c #A7CAEA",
".m c #B0809A",
".M c #4791C7",
".N c #000039",
".B c #F9DF7E",
".V c #00279C",
".C c #559CCE",
".Z c #5398CC",
".A c #4691C9",
".S c #5C9DCE",
".D c #FF8A8E",
".F c #5298CE",
".G c #5098CC",
".H c #4C92C8",
".J c #EF8188",
".K c #7FB0D9",
".L c None",
/* pixels */
".s   5.,.7 n z e.v.3.#.f.. E 0 &",
".4 B r.@.$.n N ].K.p.k 6 s !.6 h",
" f * U H O.D >.J g.0 1. .* Y @ 3",
" ` t o T b k $ P.S.F v : m.2 c C",
" i u 9.h.j.t q _.a S.i.B { R.q.=",
" V X y.l.m x.; L J.d.i ) ,.&.o W",
" ~ /.% 2.c.C - ' % . | K ^.w.-.y",
".V.8 (.c G.G '.A I.b 4.e ; Q.:.>",
".1 D.x.X = 7 % j.9 p 8.O a l w.N",
" #.g A.r d M }.u.< Z.Z <.H [.M.z",
".f.. E 0 + h 3 F.=.+ W.5.>.N.z.z"
};
