/* XPM */
const char *icon_famfamfam_flags_am[] = {
/* width height ncolors chars_per_pixel */
"16 11 156 2",
/* colors */
"   c #6F6EC3",
" . c #F76565",
" X c #FBCF86",
" o c #D74B00",
" O c #D74900",
" + c #F3BB67",
" @ c #F0B043",
" # c #EFB859",
" $ c #F4B954",
" % c #F98181",
" & c #6A6AC1",
" * c #F50000",
" = c #FB1313",
" - c #F55C5C",
" ; c #7777C7",
" : c #F96D6D",
" > c #FC9494",
" , c #5555B6",
" < c #5455B5",
" 1 c #F38900",
" 2 c #6666C0",
" 3 c #9191D3",
" 4 c #FA7171",
" 5 c #8F8FD1",
" 6 c #7373C6",
" 7 c #EFB155",
" 8 c #4242AD",
" 9 c #F76464",
" 0 c #FB7575",
" q c #EF0000",
" w c #DF5D00",
" e c #F7C377",
" r c #F45757",
" t c #DF5900",
" y c #F86868",
" u c #FB0505",
" i c #6B6BC1",
" p c #F8C57B",
" a c #F2B55E",
" s c #FA8484",
" d c #ED7900",
" f c #4747AE",
" g c #F8C367",
" h c #5858B8",
" j c #FB7B7B",
" k c #E90000",
" l c #FB8888",
" z c #D95900",
" x c #F9C56B",
" c c #D95500",
" v c #FD9797",
" b c #F46A6A",
" n c #D95100",
" m c #D94F00",
" M c #FAC983",
" N c #F6BE5E",
" B c #F2B964",
" V c #5050B3",
" C c #6161BD",
" Z c #FB2525",
" A c #8C8CD0",
" S c #5D5DB9",
" D c #F7C062",
" F c #E76B00",
" G c #EFB043",
" H c #F70000",
" J c #E30000",
" K c #F4B955",
" L c #FBD18A",
" P c #5959B8",
" I c #F59700",
" U c #F0B247",
" Y c #6A6AC2",
" T c #F77676",
" R c #6666BE",
" E c #F5BB59",
" W c #09099B",
" Q c #F45352",
" ! c #4646AF",
" ~ c #FC7E7E",
" ^ c #F1B44B",
" / c #F87A7A",
" ( c #F10000",
" ) c #FC8B8B",
" _ c #E16100",
" ` c #6262BD",
" ' c #F1B95B",
" ] c #F1B35B",
" [ c #4B4BB0",
" { c #EF7D00",
" } c #03039B",
" | c #000063",
".  c #FC9191",
".. c #FB7979",
".X c #EB0000",
".o c #797AC9",
".O c #6565BC",
".+ c #FB7B7C",
".@ c #F3B74F",
".# c #7272C5",
".$ c #E96F00",
".% c #5050B4",
".& c #E50000",
".* c #F90D0D",
".= c #5D5DBA",
".- c #6E6EC4",
".; c #F79500",
".: c #F5BD6B",
".> c #0F0F9F",
"., c #FB7878",
".< c #F55C5B",
".1 c #F6BF6F",
".2 c #F0B248",
".3 c #00005B",
".4 c #F6605F",
".5 c #F30000",
".6 c #FB1515",
".7 c #E36500",
".8 c #F9C87F",
".9 c #6666BF",
".0 c #F2B861",
".q c #6060B9",
".w c #F7C173",
".e c #5353B6",
".r c #F18D00",
".t c #F18300",
".y c #F66F6F",
".u c #F55757",
".i c #FAC66F",
".p c #EFB357",
".a c #5E5EBA",
".s c #6F6FC4",
".d c #F87E7E",
".f c #FC8F8F",
".g c #ED0000",
".h c #F77373",
".j c #4B4BB1",
".k c #DD5500",
".l c #5C5CBB",
".z c #F8C366",
".x c #5858B7",
".c c #F70303",
".v c #EEAC3B",
".b c #7676C7",
".n c #FD9796",
".m c #EB7300",
".M c #FC9595",
".N c #F66161",
".B c #EFAE3F",
".V c #6161BC",
".C c #F3B750",
".Z c #FC8181",
".A c #7272C6",
".S c #F70909",
".D c #D75500",
".F c None",
/* pixels */
" Z.6.6.6 =.*.S.c H *.5 ( ( q.g.X",
" = v v.M >. .f ) l s %.d / T.h k",
".6.n.Z ~.+.. 0 4 : y ..N -.u.y.&",
" u.M ~ j., 0 4 : y 9.4.< r Q b J",
".> 3.o ; 6.s i.9 `.a P ,.%.j.O |",
" W 5.b.#   & R.V.=.x < V [ f.q.3",
" } A.A.- Y 2 C.l h.e V.j ! 8 S.3",
".; L.i x g D N E K.C ^.2 @.B ' c",
" I X x.z D N E $.@ ^ U G.B.v # z",
" 1 M.8 p e.w.1.: + B.0 a ].p 7 O",
".r.t { d.m.$ F.7 _ w t.k n m o.D"
};
