/* XPM */
const char *icon_famfamfam_flags_ao[] = {
/* width height ncolors chars_per_pixel */
"16 11 115 2",
/* colors */
"   c #EF5050",
" . c #EE4545",
" X c #EB2B2B",
" o c #ADAD2F",
" O c #ED3A3A",
" + c #F5D730",
" @ c #AB2727",
" # c #F18151",
" $ c #C72828",
" % c #83812D",
" & c #A82727",
" * c #F38181",
" = c #C42828",
" - c #F27676",
" ; c #F48585",
" : c #A52727",
" > c #CC2929",
" , c #F06060",
" < c #F26F6F",
" 1 c #EF5555",
" 2 c #F4D02E",
" 3 c #F16464",
" 4 c #BE2828",
" 5 c #F05959",
" 6 c #ED3F3F",
" 7 c #434343",
" 8 c #EC3434",
" 9 c #3F3F3F",
" 0 c #3D3D3D",
" q c #3B3B3B",
" w c #393939",
" e c #373737",
" r c #353535",
" t c #333333",
" y c #ED3838",
" u c #313131",
" i c #2F2F2F",
" p c #2D2D2D",
" a c #2B2B2B",
" s c #B82828",
" d c #232323",
" f c #212121",
" g c #EF5A40",
" h c #1F1F1F",
" j c #1D1D1D",
" k c #F48A8A",
" l c #B52828",
" z c #F37F7F",
" x c #858530",
" c c #F6F22B",
" v c #C62828",
" b c #B9B72E",
" n c #F3B039",
" m c #807F2B",
" M c #F16969",
" N c #CE2929",
" B c #D8D52B",
" V c #882626",
" C c #C32828",
" Z c #F05E5E",
" A c #EF5353",
" S c #6D6D2F",
" D c #EE4848",
" F c #F48989",
" G c #CCCC2C",
" H c #EC3232",
" J c #F27373",
" K c #EB2727",
" L c #BA2828",
" P c #F4C835",
" I c #EE4F47",
" U c #F06160",
" Y c #EE4747",
" T c #ED3C3C",
" R c #F18446",
" E c #F06859",
" W c #EC3131",
" Q c #BF2929",
" ! c #F4C131",
" ~ c #404040",
" ^ c #3C3C3C",
" / c #3A3A3A",
" ( c #383838",
" ) c #F38383",
" _ c #363636",
" ` c #343434",
" ' c #323232",
" ] c #303030",
" [ c #F0645F",
" { c #2E2E2E",
" } c #F5E62E",
" | c #2C2C2C",
".  c #2A2A2A",
".. c #282828",
".X c #F48787",
".o c #262626",
".O c #F16D6D",
".+ c #A32727",
".@ c #222222",
".# c #202020",
".$ c #F37C7C",
".% c #1E1E1E",
".& c #F06262",
".* c #7F7F31",
".= c #1C1C1C",
".- c #F5D831",
".; c #E6E32C",
".: c #F16666",
".> c #F6F12B",
"., c #EE4C4C",
".< c #F05B5B",
".1 c #B12727",
".2 c #ED4141",
".3 c #C8C82C",
".4 c None",
/* pixels */
" N > N N $ v = C C Q 4 L s l.1.1",
" > k F.X ; * z.$ - J < M.: ,.< @",
" > F <.O M.: [ # } R., Y.2 T 1 &",
" >.X.O M.: U E.> P c Y 6 O 8   :",
" $ ).:.& Z 5.-   I ! T y W X D.+",
" 4 z 3 Z.< A n + g 2 y H X K . V",
".o 7 q w ( o.* b.; S ] i p | ` f",
" d ~ e _ r x G.3 % B p a. .. ].=",
".@ 9 _ r t ' ] i { | m. .... i.=",
".@ 0 ^ / w ( e _ r t ' u ] i i.=",
" f f f.#.# h h.%.%.% j.=.=.=.=.="
};
