/* XPM */
const char *icon_famfamfam_flags_as[] = {
/* width height ncolors chars_per_pixel */
"16 11 162 2",
/* colors */
"   c #888A8C",
" . c #EE9694",
" X c #0000EB",
" o c #E79397",
" O c #A5A5A5",
" + c #A9A9FF",
" @ c #A28C81",
" # c #0400F2",
" $ c #9D9D9D",
" % c #8E4D32",
" & c #D05A73",
" * c #6500B6",
" = c #5757F7",
" - c #A0A099",
" ; c #A06440",
" : c #5650EC",
" > c #9A9AFD",
" , c #E8E9CF",
" < c #DB4E42",
" 1 c #E9D366",
" 2 c #E88C80",
" 3 c #D46C7D",
" 4 c #E77268",
" 5 c #9A86E9",
" 6 c #4C4CF9",
" 7 c #7D7DFE",
" 8 c #E9E8C9",
" 9 c #7339AF",
" 0 c #DE605F",
" q c #0000A1",
" w c #F2A19A",
" e c #F9E4DC",
" r c #0000F7",
" t c #B17B50",
" y c #E58080",
" u c #EA817B",
" i c #F3AAA8",
" p c #0000E3",
" a c #E99391",
" s c #0D0BFD",
" d c #98502A",
" f c #BC9B78",
" g c #F1AB9F",
" h c #F0E8C2",
" j c #B5835A",
" k c #B94065",
" l c #FAFAFA",
" z c #0000FD",
" x c #F8F8F8",
" c c #BDA086",
" v c #F6F6F6",
" b c #C10000",
" n c #770003",
" m c #C4A079",
" M c #F4F4F4",
" N c #FAF1F0",
" B c #0000E9",
" V c #6161FC",
" C c #7B624F",
" Z c #F3AFA7",
" A c #9595FD",
" S c #A8A9FF",
" D c #EAE0C2",
" F c #A7A7FE",
" G c #EDD6C5",
" H c #BB0000",
" J c #0000EF",
" K c #CD7592",
" L c #7474FA",
" P c #EB8C81",
" I c #ECB8B0",
" U c #DF5D51",
" Y c #EED980",
" T c #9E9A98",
" R c #C3A78E",
" E c #7574FE",
" W c #F0D6CE",
" Q c #B1A4F0",
" ! c #A1A1FE",
" ~ c #0000F5",
" ^ c #C691BC",
" / c #E46C66",
" ( c #1111FF",
" ) c #0000E1",
" _ c #E4E4C5",
" ` c #A2A2A2",
" ' c #5353FA",
" ] c #CEB095",
" [ c #E58B77",
" { c #F8F1E9",
" } c #7979FE",
" | c #BB5786",
".  c #E5786D",
".. c #0000FB",
".X c #B58D6F",
".o c #E05C51",
".O c #F8F6F6",
".+ c #BFA672",
".@ c #0000E7",
".# c #5F5FF8",
".$ c #9B0000",
".% c #F0E4AF",
".& c #EC847A",
".* c #E4E0E2",
".= c #9797FD",
".- c #403DED",
".; c #C5A27E",
".: c #9E9EFD",
".> c #0000ED",
"., c #A053B0",
".< c #EA7E7B",
".1 c #E9CB4B",
".2 c #9B91F0",
".3 c #0303FD",
".4 c #F8CFC7",
".5 c #6F6FFD",
".6 c #8A8AFD",
".7 c #810000",
".8 c #F3C9C2",
".9 c #4545F8",
".0 c #9191FD",
".q c #E3DAD3",
".w c #E67770",
".e c #D2B59E",
".r c #FBFBFB",
".t c #00009D",
".y c #F9F9F9",
".u c #F7F7F7",
".i c #0000F3",
".p c #6F6AF6",
".a c #E07B81",
".s c #0000DF",
".d c #7474FE",
".f c #F4BBB2",
".g c #5A5AF5",
".h c #A0A09E",
".j c #8384FC",
".k c #9572CF",
".l c #BA73AE",
".z c #7755CC",
".x c #6565F9",
".c c #E97F79",
".v c #2121FF",
".b c #F0DE93",
".n c #A8A8FF",
".m c #A7A6FE",
".M c #0000F9",
".N c #6C6CF9",
".B c #F4F4F0",
".V c #0D0DFF",
".C c #0B0BFD",
".Z c #A16AB6",
".A c #5A5AFB",
".S c #A4A4FE",
".D c #0000FC",
".F c #030000",
".G c #C47DAA",
".H c #D7453C",
".J c #EDDC7F",
".K c #7C7CFB",
".L c #EACE51",
".P c None",
/* pixels */
".v ( ( (.C.3 z...M.M.M r.t n H b",
".V + S F.S !.: > A.2 ^ o a i.4 @",
" (.n 7 } E.5.p.Z 3 /.<.f G R f C",
" (.m }.d.k K.w.c Z { x ] t % c T",
" s Q.G y u w e l.y x.e j.X d m  ",
" * ..& g N.r l.y x.J.B ,.* ;.; $",
" # 5.l.a 4 P.8.O.u v.% Y 8.+.q O",
".D.= V.g.z | 0.o 2 W M 1.L.1.b.h",
".M.0.A ' 6.9.- 9 k.H < [ D _ h `",
".M.6.j.K L.N.x.# = :., & U.  I -",
" r ~.i J.> X B.@ p ) ).s q.F.7.$"
};
