/* XPM */
const char *icon_famfamfam_flags_at[] = {
/* width height ncolors chars_per_pixel */
"16 11 127 2",
/* colors */
"   c #F06868",
" . c #F62C2C",
" X c #F77272",
" o c #FC4C4C",
" O c #F26363",
" + c #F50000",
" @ c #F87676",
" # c #E10000",
" $ c #FC6666",
" % c #F83434",
" & c #F97A7A",
" * c #FD8B8B",
" = c #F87C7C",
" - c #F4F5F5",
" ; c #FE8F8F",
" : c #FB4747",
" > c #FA5D5D",
" , c #EF0000",
" < c #F98080",
" 1 c #F37A7A",
" 2 c #F21313",
" 3 c #F95455",
" 4 c #FA8484",
" 5 c #FC6565",
" 6 c #FD0000",
" 7 c #F74949",
" 8 c #FE7474",
" 9 c #E90000",
" 0 c #FA4242",
" q c #FCA0A0",
" w c #FB8888",
" e c #F95858",
" r c #FEFEFE",
" t c #FDFCFD",
" y c #FCFCFC",
" u c #FBFCFB",
" i c #FAFAFA",
" p c #F8F8F8",
" a c #FA7D7D",
" s c #F6F6F6",
" d c #F4F4F4",
" f c #FA5C5C",
" g c #F0F0F0",
" h c #EEEEEE",
" j c #EAEAEA",
" k c #FB8181",
" l c #E8E8E8",
" z c #FE9091",
" x c #E2E2E2",
" c c #FB6060",
" v c #F70000",
" b c #F72E2E",
" n c #FE5959",
" m c #E30000",
" M c #FC8585",
" N c #F85353",
" B c #F67F7F",
" V c #F22C2C",
" C c #F95757",
" Z c #FE5F5F",
" A c #F77879",
" S c #F10000",
" D c #F62929",
" F c #DD0000",
" G c #FD5454",
" H c #FF3535",
" J c #F74E4E",
" K c #FF7B7A",
" L c #FE7979",
" P c #F23232",
" I c #FF0000",
" U c #FB6162",
" Y c #EB0000",
" T c #FD7071",
" R c #FD8888",
" E c #F26666",
" W c #FC6969",
" Q c #F36A6A",
" ! c #F83737",
" ~ c #F90000",
" ^ c #E50000",
" / c #F64242",
" ( c #FD6D6D",
" ) c #F46E6E",
" _ c #F33535",
" ` c #F74646",
" ' c #FA3F3F",
" ] c #F52323",
" [ c #F43939",
" { c #F30000",
" } c #DF0000",
" | c #FDFDFD",
".  c #F53D3D",
".. c #FBFBFB",
".X c #F10B0B",
".o c #F9F9F9",
".O c #F7F7F7",
".+ c #F5F5F5",
".@ c #FE7777",
".# c #FB2F2F",
".$ c #F1F1F1",
".% c #FB8B8B",
".& c #EFEFEF",
".* c #F10F0E",
".= c #E9E9E9",
".- c #F93A3A",
".; c #F85050",
".: c #FF7B7B",
".> c #F41E1E",
"., c #E1E1E1",
".< c #DFDFDF",
".1 c #ED0000",
".2 c #F57171",
".3 c #F93C3D",
".4 c #F73131",
".5 c #FE5C5C",
".6 c #F67575",
".7 c #FD5151",
".8 c #F74B4B",
".9 c #FB0000",
".0 c #F31919",
".q c #FEA4A4",
".w c #F22F2F",
".e c #FA4444",
".r c #E70000",
".t c #F66E6E",
".y c None",
/* pixels */
" I I I I 6 6 6 6.9 ~ v + { S ,.1",
" I.:.: L.@ 8 T ( W 5 c f C N J Y",
" I K Z.5 n G.7 o : 0.3 !.4 . 7 9",
" H.q z ; * R M k a & @ X.t   B.r",
".= r r | t y.. i.o p.O.$ g j.+ x",
".= r | y y.. i.o p.O s g.&.= -.,",
".= | y u.. i.o p.O s.+.& h l d.<",
".# q.% w 4 < = A.6.2 ) Q E O 1 }",
" ~ $.e '.- % b D ].>.0 2.*.X.w }",
" v U > e 3.;.8 ` /.  [ _ P.w V F",
" + { S ,.1.1 Y 9.r ^ m # } F F F"
};
