/* XPM */
const char *icon_famfamfam_flags_aw[] = {
/* width height ncolors chars_per_pixel */
"16 11 170 2",
/* colors */
"   c #8FC7E2",
" . c #F7E343",
" X c #6CB4DA",
" o c #69B2D7",
" O c #67B0D5",
" + c #007DBF",
" @ c #80BEDD",
" # c #3F99C8",
" $ c #006FBF",
" % c #003991",
" & c #73B7DA",
" * c #F9EA69",
" = c #8AC3E0",
" - c #002391",
" ; c #0063AB",
" : c #499ECB",
" > c #63AED4",
" , c #62AED3",
" < c #DFB300",
" 1 c #56A7D1",
" 2 c #004BAB",
" 3 c #6EB5D8",
" 4 c #F6E23E",
" 5 c #004597",
" 6 c #62AED6",
" 7 c #60ACD4",
" 8 c #1189C5",
" 9 c #0F89C3",
" 0 c #0F87C3",
" q c #91C8E3",
" w c #002D97",
" e c #0D87C1",
" r c #E26D6D",
" t c #006DB1",
" y c #51A3CF",
" u c #F9E965",
" i c #6AB3D7",
" p c #4EA1CC",
" a c #83BFDF",
" s c #0055B1",
" d c #7EBBDA",
" f c #76BADC",
" g c #59A8D0",
" h c #E37171",
" j c #58A8CF",
" k c #004D9D",
" l c #4CA1CD",
" z c #68B1D8",
" x c #F5E139",
" c c #2191C7",
" v c #F7E65C",
" b c #FBDB00",
" n c #00379D",
" m c #7CBBDB",
" M c #F2DC2C",
" N c #0075B7",
" B c #F5E350",
" V c #6FB6D8",
" C c #0061B7",
" Z c #0781C1",
" A c #6CB2D5",
" S c #87C2DF",
" D c #63AFD6",
" F c #7DBFDF",
" G c #61ADD4",
" H c #459BC9",
" J c #5EABD1",
" K c #F6E354",
" L c #F9E64D",
" P c #54A6D1",
" I c #3694C4",
" U c #6DB4D9",
" Y c #4FA2CC",
" T c #003FA3",
" R c #1D91C9",
" E c #007DBD",
" W c #7BBFE0",
" Q c #F7E558",
" ! c #5EABD4",
" ~ c #F4E24B",
" ^ c #00338F",
" / c #66B0D5",
" ( c #0061A9",
" ) c #74B9DC",
" _ c #F8E548",
" ` c #57A7D0",
" ' c #72B7DA",
" ] c #F2DF42",
" [ c #489ECB",
" { c #002D95",
" } c #002995",
" | c #F3DF46",
".  c #0067AF",
".. c #68AFD3",
".X c #91C8E4",
".o c #F3E149",
".O c #004B9B",
".+ c #67B1D5",
".@ c #4B9FCA",
".# c #64ADD2",
".$ c #5BAAD3",
".% c #3E98C7",
".& c #75BADC",
".* c #006DB5",
".= c #70B4D7",
".- c #67B1D8",
".; c #0581BD",
".: c #005BB5",
".> c #FBE957",
"., c #5FA9D0",
".< c #79B9D9",
".1 c #3A96C6",
".2 c #71B6DB",
".3 c #53A4CE",
".4 c #6EB6D8",
".5 c #F8E861",
".6 c #84C0DD",
".7 c #003BA1",
".8 c #449BC9",
".9 c #5EABD2",
".0 c #F7D500",
".q c #5BA7CF",
".w c #99C8E1",
".e c #75B7D8",
".r c #51A4CF",
".t c #FAE852",
".y c #005DA7",
".u c #59A9D0",
".i c #8DC5E2",
".p c #55A3CC",
".a c #0045A7",
".s c #F2DD40",
".d c #1991C9",
".f c #003F93",
".g c #158BC5",
".h c #59A9D3",
".j c #54A5CE",
".k c #8AC3E2",
".l c #002593",
".z c #479ECB",
".x c #0051AD",
".c c #E88989",
".v c #DDAF00",
".b c #9FC4DC",
".n c #F2DF46",
".m c #6BB3D7",
".M c #FBEA5C",
".N c #F4DF34",
".B c #5CAAD2",
".V c #0F8BC5",
".C c #76BADB",
".Z c #003199",
".A c #0071B3",
".S c #9DC4DD",
".D c #8EC6E2",
".F c #0B83C1",
".G c #4DA1CD",
".H c #001F85",
".J c #55A6CE",
".K c #64AFD6",
".L c #F3DE2F",
".P c #FCEE7A",
".I c #0079B9",
".U c #FAEB6E",
".Y c #70B6DB",
".T c #50A2CC",
".R c #439BC9",
".E c #FBED72",
".W c #F2DB27",
".Q c None",
/* pixels */
" c.g.d 8 0.F.; E.I N.A t.  ;.y (",
" 9.b.c.w.X  .i = S.6 @ m.<.e.= k",
" R.c h r W.C & V.m.+ >.9.u.J A.O",
".V.S r d f '.4 i O , J g.j.T.. 5",
" e q F.& ' 3 i / , J j.j Y.@.#.f",
" Z.D ).2 U o.K G.B `.3 p : H., %",
" +.k.Y X z D 7.$ 1.r.G [.8 #.q ^",
" b.P.M.>.t L _ . 4 x.N.L M.W | <",
".* a.- 6 !.h P y l.z.R.%.1 I.p.H",
".0.E.U * u.5 v Q K B ~.o.n ].s.v",
" $ C.: s.x 2.a T.7 n.Z w }.l - {"
};
