/* XPM */
const char *icon_famfamfam_flags_az[] = {
/* width height ncolors chars_per_pixel */
"16 11 169 2",
/* colors */
"   c #139F40",
" . c #2FA455",
" X c #54BDE0",
" o c #970000",
" O c #F4E2E2",
" + c #D96868",
" @ c #0063AB",
" # c #C73C3C",
" $ c #D76666",
" % c #DE797A",
" & c #42B4DB",
" * c #E9B5B6",
" = c #7BCDE8",
" - c #3FB364",
" ; c #DA6C6C",
" : c #E38E8F",
" > c #C30303",
" , c #D35B5B",
" < c #006DB1",
" 1 c #58B9D9",
" 2 c #E4AAAA",
" 3 c #50B471",
" 4 c #DF7877",
" 5 c #D66161",
" 6 c #DE7676",
" 7 c #004D9D",
" 8 c #7BCAE4",
" 9 c #51BADF",
" 0 c #DB6769",
" q c #6DC3E0",
" w c #0075B7",
" e c #D97274",
" r c #DC6B6D",
" t c #77C8E3",
" y c #1EA349",
" u c #EABAB9",
" i c #DD6F71",
" p c #C10000",
" a c #EFC2C1",
" s c #0081BD",
" d c #E59393",
" f c #007DBD",
" g c #34AE5B",
" h c #990000",
" j c #DD7574",
" k c #CC4949",
" l c #D25A5C",
" z c #2CA253",
" x c #CE5858",
" c c #007D00",
" v c #2CAAD4",
" b c #007500",
" n c #0061A9",
" m c #006F00",
" M c #CF4F4F",
" N c #D46261",
" B c #006700",
" V c #0053A9",
" C c #E48A8B",
" Z c #006300",
" A c #005D00",
" S c #37AFD8",
" D c #005700",
" F c #0089C3",
" G c #0087C3",
" H c #BB0000",
" J c #0085C3",
" K c #005100",
" L c #79C9E4",
" P c #CB3E41",
" I c #004D00",
" U c #D05353",
" Y c #004700",
" T c #4CB7DC",
" R c #DF7B7C",
" E c #004100",
" W c #003D00",
" Q c #003900",
" ! c #930000",
" ~ c #003500",
" ^ c #003300",
" / c #61BE80",
" ( c #002F00",
" ) c #002D00",
" _ c #C30101",
" ` c #DD7070",
" ' c #002900",
" ] c #E59B9C",
" [ c #002700",
" { c #DB6E6E",
" } c #5CBBDB",
" | c #0067AF",
".  c #3AB160",
".. c #74C7E2",
".X c #39A95F",
".o c #4EB4D7",
".O c #F0CECE",
".+ c #3DB2DA",
".@ c #65C0DD",
".# c #32A558",
".$ c #D45D5D",
".% c #DC7272",
".& c #0F9C3C",
".* c #EDBFC1",
".= c #D76363",
".- c #4BB26D",
".; c #E18787",
".: c #D05252",
".> c #53B7D8",
"., c #66C384",
".< c #44B669",
".1 c #CD4345",
".2 c #3DAC62",
".3 c #D56767",
".4 c #CF474A",
".5 c #CD4948",
".6 c #870000",
".7 c #DC7171",
".8 c #CA4545",
".9 c #58B979",
".0 c #54B775",
".q c #47B6DC",
".w c #005DA7",
".e c #CF4D4D",
".r c #DD7575",
".t c #5FC2E3",
".y c #0083C1",
".u c #D96867",
".i c #DE7979",
".p c #950000",
".a c #D26060",
".s c #5CC0E3",
".d c #D25556",
".f c #C94040",
".g c #D96A6A",
".h c #D76868",
".j c #49B5DA",
".k c #69C2DF",
".l c #D95D60",
".z c #0091C7",
".x c #5DBC7D",
".c c #CA4444",
".v c #31ADD6",
".b c #DB7D7C",
".n c #D55F5F",
".m c #2EAB55",
".M c #2FA956",
".N c #0071B3",
".B c #29A550",
".V c #0B9A39",
".C c #D15251",
".Z c #70C5E2",
".A c #CE4E4E",
".S c #008FCD",
".D c #61BEDD",
".F c #46B069",
".G c #42AE65",
".H c #23A54D",
".J c #E58F8F",
".K c #0079B9",
".L c #E0898A",
".P c #59BFE2",
".I c #D25858",
".U c #F4DCDC",
".Y c #F1D8D9",
".T c #35A85B",
".R c #18A145",
".E c #EFCDCD",
".W c None",
/* pixels */
".z F F F G.y s f.K w.N < | @.w n",
" J 8 8 L t...Z q.k.@.D } 1.>.o 7",
".S =.t.s.P X 9 T.q &.+ S.v v.j V",
" _ d R.i 6.% {.g $ 5.$.I U M.3 o",
" >.J 4 j `.u a.U ] u.b.C.e.5 N h",
" p :.r.7 ;.L O.h.E.Y 2.A k.8.a.p",
" p C i r 0.l.*.O % * e.4.1 P l !",
" H.; ; +.=.n ,.d.:.A k.c.f # x.6",
" c.,.< -.  g.m.B.H y.R  .&.V.M Q",
" m /.x.9.0 3.-.F.G.2.X.T.# . z [",
" b B Z A D K I Y E W Q ^ ( ) ' ~"
};
