/* XPM */
const char *icon_famfamfam_flags_ba[] = {
/* width height ncolors chars_per_pixel */
"16 11 156 2",
/* colors */
"   c #F6CF2B",
" . c #DDE2F0",
" X c #FBD947",
" o c #4B66DB",
" O c #F4CC1F",
" + c #7B90E9",
" @ c #1033CC",
" # c #0000C3",
" $ c #1A3CCF",
" % c #4B66DE",
" & c #0000AF",
" * c #F3AF00",
" = c #00009B",
" - c #D8DCF1",
" ; c #FCDD65",
" : c #425ED8",
" > c #0000C9",
" , c #879AEA",
" < c #7989CF",
" 1 c #7B8FE8",
" 2 c #FADC5C",
" 3 c #0000A1",
" 4 c #3453D7",
" 5 c #687EDF",
" 6 c #4965DB",
" 7 c #2F4DD2",
" 8 c #3F5CDB",
" 9 c #8D9FEC",
" 0 c #F5CD25",
" q c #FBB900",
" w c #F3C819",
" e c #2344D3",
" r c #3B58DA",
" t c #B5B3B3",
" y c #3A58D9",
" u c #000093",
" i c #797878",
" p c #667EE3",
" a c #4561DD",
" s c #4461DC",
" d c #5F76DC",
" f c #4F6AE0",
" g c #9D9B9B",
" h c #F9D63C",
" j c #798EE8",
" k c #F5B300",
" l c #0000AD",
" z c #D0D5EE",
" x c #2949D5",
" c c #405DDB",
" v c #F2C714",
" b c #000099",
" n c #536DDD",
" m c #8F8D8D",
" M c #4662DA",
" N c #0B2FCB",
" B c #546FE1",
" V c #7086E2",
" C c #0000C7",
" Z c #F3CA25",
" A c #2F4ED7",
" S c #2E4ED6",
" D c #E9EDFC",
" F c #0000B3",
" G c #4662DD",
" H c #F8D337",
" J c #7288E7",
" K c #00009F",
" L c #F6D02B",
" P c #506BE0",
" I c #FCDF69",
" U c #F4CB1F",
" Y c #E3E7F9",
" T c #3D5AD7",
" R c #546EDD",
" E c #F1CB33",
" W c #3453D8",
" Q c #FDBD00",
" ! c #B8C3F3",
" ~ c #FDE16D",
" ^ c #8194E8",
" / c #555353",
" ( c #0000B9",
" ) c #CDD5F7",
" _ c #0000A5",
" ` c #F8D754",
" ' c #6A82E5",
" ] c #DBDFF4",
" [ c #FBD84D",
" { c #FAE077",
" } c #000091",
" | c #FAD542",
".  c #5F79E4",
".. c #F6D13E",
".X c #F8D236",
".o c #F1C50E",
".O c #0000BF",
".+ c #3350D3",
".@ c #F7B900",
".# c #F7B300",
".$ c #5C75E4",
".% c #6F85E6",
".& c #A2A1A1",
".* c #7286DF",
".= c #000097",
".- c #617AE2",
".; c #F9D43D",
".: c #FBDD60",
".> c #405DDC",
"., c #2647D3",
".< c #F7D131",
".1 c #DEE2F6",
".2 c #0000C5",
".3 c #F5CC25",
".4 c #8A8989",
".5 c #4966DE",
".6 c #F3C919",
".7 c #5D76E1",
".8 c #4460D9",
".9 c #00009D",
".0 c #F9DA57",
".q c #536FE1",
".w c #3A57D9",
".e c #FCE071",
".r c #4E69DC",
".t c #1438CE",
".y c #D4D8EF",
".u c #4562DD",
".i c #2C4CD5",
".p c #798DE5",
".a c #5872DF",
".s c #3F5CD7",
".d c #0000CB",
".f c #4F6BE0",
".g c #0000B7",
".h c #2547DB",
".j c #969494",
".k c #5872E2",
".l c #EBAF00",
".z c #0000A3",
".x c #E1E5F8",
".c c #F7D030",
".v c #3B58D6",
".b c #00008F",
".n c #888686",
".m c #2C4BD1",
".M c #768BE8",
".N c #807E7E",
".B c #506ADD",
".V c #3654D4",
".C c #0000BD",
".Z c #F7D44A",
".A c #F9B700",
".S c #0000A9",
".D c #2042D2",
".F c None",
/* pixels */
".d.h ) /.@.l Q Q q.A.# k * F & l",
".d + ! D t {.e ~ I ;.: 2.0 n.r.S",
".d 1.  9 Y.& ` [ X |.; H.<.i 6 _",
" > j.$.k ,.x g.Z | h.X.<  .,.8 3",
" >.M.k B P ^.1.j...X.c  .3.D.s.9",
" C J.q.f % G.p ] m E L 0 U $.v b",
".2.% f.5.u.> r V -.n Z O.6.t.V.=",
" # '.5 a c y W A 5.y.N w v @.+ u",
".O p s 8.w 4 S x e d z i.o N 7 }",
".C.-.7.a R.B o M : T.* ..4 7.m.b",
" (.g F & l.S _.z K =.= l <.S.b.b"
};
