/* XPM */
const char *icon_famfamfam_flags_be[] = {
/* width height ncolors chars_per_pixel */
"16 11 134 2",
/* colors */
"   c #000000",
" . c #F7F72F",
" X c #F62C2C",
" o c #727273",
" O c #F7F746",
" + c #DFD100",
" @ c #F50000",
" # c #F21414",
" $ c #FAFA42",
" % c #F2F23A",
" & c #F6F62A",
" * c #545455",
" = c #A50000",
" - c #F9F93A",
" ; c #7B7B7B",
" : c #797979",
" > c #777777",
" , c #F33232",
" < c #EF0000",
" 1 c #F62B2B",
" 2 c #6F6F6F",
" 3 c #F9F33D",
" 4 c #C70000",
" 5 c #FBF660",
" 6 c #F43636",
" 7 c #FBE700",
" 8 c #F21313",
" 9 c #5F5F5F",
" 0 c #F3F219",
" q c #5D5D5D",
" w c #F8F835",
" e c #595959",
" r c #F74949",
" t c #535353",
" y c #504F50",
" u c #E90000",
" i c #4F4F4F",
" p c #F52626",
" a c #494949",
" s c #454545",
" d c #C10000",
" f c #3F3F3F",
" g c #FA5C5C",
" h c #E1E300",
" j c #F3F340",
" k c #F7F730",
" l c #F7F130",
" z c #F64444",
" x c #F5EE24",
" c c #E30000",
" v c #F9F974",
" b c #FAFA40",
" n c #F85353",
" m c #F22C2C",
" M c #F95757",
" N c #F52525",
" B c #F43B3B",
" V c #DBDD00",
" C c #F10000",
" Z c #F5F54B",
" A c #F4ED1F",
" S c #F6F642",
" D c #F53F3F",
" F c #F9F93B",
" G c #C90000",
" H c #F74E4E",
" J c #FDE900",
" K c #F23232",
" L c #FCFC4B",
" P c #F5F523",
" I c #FDFD6D",
" U c #D5E100",
" Y c #F42020",
" T c #F4ED39",
" R c #EB0000",
" E c #616162",
" W c #F4F446",
" Q c #FCFC65",
" ! c #F5F53D",
" ~ c #F8F836",
" ^ c #585959",
" / c #F8F236",
" ( c #C30000",
" ) c #F7E900",
" _ c #FBFB46",
" ` c #F4F41E",
" ' c #F83737",
" ] c #F7F72E",
" [ c #CFDB00",
" { c #767676",
" } c #E50000",
" | c #F21010",
".  c #6A6A6A",
".. c #F41F1F",
".X c #F33535",
".o c #666666",
".O c #F1EF00",
".+ c #F6F651",
".@ c #FAFA41",
".# c #5C5C5C",
".$ c #585858",
".% c #FDFD51",
".& c #F6F629",
".* c #545454",
".= c #F30000",
".- c #F7F74B",
".; c #F2F250",
".: c #4B4A4B",
".> c #494A49",
"., c #F10B0B",
".< c #7B7B7A",
".1 c #444444",
".2 c #F31A1A",
".3 c #3A3A3A",
".4 c #F9F93C",
".5 c #F10F0E",
".6 c #F1F134",
".7 c #FCFC4C",
".8 c #F5F524",
".9 c #ED0000",
".0 c #F8F834",
".q c #F9F700",
".w c #F73131",
".e c #F7F754",
".r c #FDFD71",
".t c #D1DF00",
".y c #F6EF2B",
".u c #F31919",
".i c #403F3F",
".p c #F22F2F",
".a c #FBFB47",
".s c #E70000",
".d c #FCFC69",
".f c None",
/* pixels */
"          .O J J 7.q ) @.= C <.9",
"   ; ; : > v.r I.d Q 5 g M n H R",
"  .< 9.# e.e.%.7.a $ 3 '.w X r u",
"   :.# ^.*.+ L.a $.4 /.w 1 p z.s",
"   {.$.* y Z _.@.4 ~ l 1 N Y D.s",
"   o t i.: W b F ~ k.y N...2 B }",
"   2 i.> s j - w . & x...u # 6 c",
"  .  a s.i %.0 . &.8 A.u # | , 4",
"  .o.1 f.3.6 ].& P ` 0 8.5.,.p (",
"   E q.$ *.;.- O S ! T.X K.p m d",
"           V U.t [ h + 4 4 ( G ="
};
