/* XPM */
const char *icon_famfamfam_flags_bg[] = {
/* width height ncolors chars_per_pixel */
"16 11 144 2",
/* colors */
"   c #000000",
" . c #8EAE6A",
" X c #3BAC3C",
" o c #F50000",
" O c #76C776",
" + c #E10000",
" @ c #5B872A",
" # c #FC6666",
" $ c #F83434",
" % c #68913A",
" & c #749B49",
" * c #FDFDFE",
" = c #53B953",
" - c #4FBB4F",
" ; c #4FB74F",
" : c #FA5D5D",
" > c #EF0000",
" , c #4BB54B",
" < c #40B340",
" 1 c #41AF41",
" 2 c #3FAB3F",
" 3 c #3BAD3B",
" 4 c #36AB36",
" 5 c #36A936",
" 6 c #F21313",
" 7 c #2FAB2F",
" 8 c #F95455",
" 9 c #497A14",
" 0 c #457610",
" q c #24A524",
" w c #638E34",
" e c #1F9F1F",
" r c #E90000",
" t c #618A32",
" y c #F95858",
" u c #FEFEFE",
" i c #19A119",
" p c #FCFCFC",
" a c #FAFAFA",
" s c #F8F8F8",
" d c #F6F6F6",
" f c #EAF6EA",
" g c #E8F4E8",
" h c #E4F2E4",
" j c #E2F0E2",
" k c #008500",
" l c #3BB03A",
" z c #008300",
" x c #DDECDD",
" c c #F70000",
" v c #F72E2E",
" b c #E30000",
" n c #527F1F",
" m c #004900",
" M c #F22C2C",
" N c #003F00",
" B c #003D00",
" V c #003B00",
" C c #F10000",
" Z c #F62929",
" A c #DD0000",
" S c #E0EDDF",
" D c #F23232",
" F c #FB6162",
" G c #E1E3E3",
" H c #EB0000",
" J c #4D7C19",
" K c #6FC86F",
" L c #2AA52B",
" P c #709845",
" I c #58BA58",
" U c #54B854",
" Y c #F90000",
" T c #50B650",
" R c #49B849",
" E c #4BB44B",
" W c #E50000",
" Q c #F64242",
" ! c #45B645",
" ~ c #46B246",
" ^ c #40B040",
" / c #F33535",
" ( c #3BAA3B",
" ) c #F74646",
" _ c #35AE35",
" ` c #36AC36",
" ' c #FA3F3F",
" ] c #30A830",
" [ c #30A630",
" { c #F52323",
" } c #2AA82A",
" | c #2BA42B",
".  c #F43939",
".. c #568324",
".X c #25A225",
".o c #25A025",
".O c #F30000",
".+ c #1FA41F",
".@ c #209E20",
".# c #FFFFFF",
".$ c #DF0000",
".% c #FDFDFD",
".& c #1A9C1A",
".* c #F53D3D",
".= c #FBFBFB",
".- c #149E14",
".; c #F10B0B",
".: c #F9F9F9",
".> c #F7F7F7",
"., c #F5F5F5",
".< c #F3F3F3",
".1 c #F1F1F1",
".2 c #EDF7ED",
".3 c #EFEFEF",
".4 c #E9F5E9",
".5 c #EDEDED",
".6 c #E7F3E7",
".7 c #EBEBEB",
".8 c #E6F3E6",
".9 c #F10F0E",
".0 c #E9E9E9",
".q c #F93A3A",
".w c #E3F1E3",
".e c #E7E7E7",
".r c #F85050",
".t c #E0EFE0",
".y c #E5E5E5",
".u c #F41E1E",
".i c #DFEDDF",
".p c #DBEBDB",
".a c #DFDFDF",
".s c #ED0000",
".d c #DDDDDD",
".f c #D1E7D1",
".g c #5F8A2F",
".h c #72C673",
".j c #6C943F",
".k c #B7D3B7",
".l c #F74B4B",
".z c #F31919",
".x c #F22F2F",
".c c #FA4444",
".v c #E70000",
".b c None",
/* pixels */
".,.,.,.,.,.<.<.1.3.3.5.7.0.e.y G",
".,.#.# u u u *.% p p.= a.: s.>.a",
".,.# u u u.%.% p.= a.: s.> d.>.d",
".f.2 f.4 g.6.8 h.w j.t.i x.p S.k",
" z O I U T E ~ 1 X 5 [ |.o.@ 2 B",
" z.h = ; , ~ ^ 3 4 ] L.X e.& ( V",
" k K - R ! < l _ 7 } q.+ i.- ` N",
" m . & P.j % w.g @.. n J 9 0 t  ",
" Y #.c '.q $ v Z {.u.z 6.9.;.x.$",
" c F : y 8.r.l ) Q.*.  / D.x M A",
" o.O C >.s.s H r.v W b +.$ A A A"
};
