/* XPM */
const char *icon_famfamfam_flags_bo[] = {
/* width height ncolors chars_per_pixel */
"16 11 156 2",
/* colors */
"   c #F4A25B",
" . c #FB756C",
" X c #F0994D",
" o c #C1DC53",
" O c #E4D130",
" + c #F50000",
" @ c #FC8F87",
" # c #67DD67",
" $ c #FF1503",
" % c #FE887F",
" & c #E5D334",
" * c #EDDD53",
" = c #F9B173",
" - c #F39F56",
" ; c #CBA300",
" : c #4FD94F",
" > c #EF9648",
" , c #FB887F",
" < c #4AD74A",
" 1 c #E7D539",
" 2 c #46D546",
" 3 c #FE978F",
" 4 c #41D341",
" 5 c #FBC18F",
" 6 c #F2E468",
" 7 c #EF0000",
" 8 c #3BD13B",
" 9 c #3BCD3B",
" 0 c #38CD38",
" q c #F8695E",
" w c #ECDC4E",
" e c #F87D75",
" r c #B8D63F",
" t c #F7AC6D",
" y c #FC786F",
" u c #C59D00",
" i c #1DC71D",
" p c #E7C900",
" a c #E9D944",
" s c #E90000",
" d c #EFDE57",
" f c #00B700",
" g c #BCD849",
" h c #00B300",
" j c #00B100",
" k c #FD948D",
" l c #00AF00",
" z c #E9D851",
" x c #00AB00",
" c c #EBD949",
" v c #F76459",
" b c #00A700",
" n c #F77A70",
" m c #00A300",
" M c #009F00",
" N c #009D00",
" B c #009900",
" V c #F0E05B",
" C c #009300",
" Z c #009100",
" A c #008F00",
" S c #008B00",
" D c #008700",
" F c #008300",
" G c #ECDB4D",
" H c #F70000",
" J c #FF9C95",
" K c #F8AF70",
" L c #E9D843",
" P c #FA847C",
" I c #E5D335",
" U c #F56D00",
" Y c #F10000",
" T c #B3D235",
" R c #F4E87F",
" E c #F1A462",
" W c #F9B377",
" Q c #B5D43A",
" ! c #FC8C84",
" ~ c #E8D73E",
" ^ c #FE857C",
" / c #E9CF00",
" ( c #E9CD00",
" ) c #6FE06F",
" _ c #F29C52",
" ` c #EB0000",
" ' c #6BDE6B",
" ] c #C3DD58",
" [ c #F6EA87",
" { c #F1E161",
" } c #63DC63",
" | c #19C51A",
".  c #F96D63",
".. c #5BD85B",
".X c #E8D84E",
".o c #55D855",
".O c #C5DF5D",
".+ c #F2E365",
".@ c #F1E364",
".# c #51D651",
".$ c #4DD44D",
".% c #FA7167",
".& c #EEDE57",
".* c #49D249",
".= c #DB1F00",
".- c #41D041",
".; c #F90000",
".: c #B8D446",
".> c #3ECE3E",
"., c #36D036",
".< c #F0E05C",
".1 c #31CE31",
".2 c #2BCC2B",
".3 c #E9DA55",
".4 c #F3E56C",
".5 c #26CA26",
".6 c #22C822",
".7 c #93C500",
".8 c #FD1100",
".9 c #FD0B00",
".0 c #FD0900",
".q c #EDDD52",
".w c #AFCE2C",
".e c #FD0100",
".r c #BAD744",
".t c #FD918A",
".y c #F30000",
".u c #F5A864",
".i c #B0D030",
".p c #46D145",
".a c #FD7F76",
".s c #EBDA49",
".d c #C9A100",
".f c #F6AA68",
".g c #FE837A",
".h c #FE9991",
".j c #ED0000",
".k c #D0E57A",
".l c #E8D73F",
".z c #F1E15F",
".x c #F5E884",
".c c #FF9D95",
".v c #F5A560",
".b c #FE9B94",
".n c #F98178",
".m c #ACCD28",
".M c #FD7C72",
".N c #E9D943",
".B c #F66054",
".V c #519500",
".C c #F7766C",
".Z c #5EDA5F",
".A c #FB0000",
".S c #EBD948",
".D c #BFDA4E",
".F c None",
/* pixels */
" $ $ $ $.8.9.0.e.A.; H +.y Y 7.j",
" $.c.c.b.h 3 k.t @ ! , P.n e n `",
" $ J % ^.g.a.M y ..%.  q v.B.C s",
" U 5 W = K t.f.u.v   - _ X > E.=",
" / [.4 6.+ {.< d * w.s a.l 1.3 ;",
" (.x 6.@ {.<.&.q G c.N ~ 1 I z.d",
" p R.@.z V.&.q G.S L ~ 1 & O.X u",
".7.k.O ] o.D g.r r Q T.i.w.m.:.V",
" f ) : < 2 4 8.,.1.2.5.6 i | 9 D",
" h ' # }.Z...o.#.$.*.p.-.> 9 0 F",
" j l x b m M N B C Z A S D D F F"
};
