/* XPM */
const char *icon_famfamfam_flags_bs[] = {
/* width height ncolors chars_per_pixel */
"16 11 151 2",
/* colors */
"   c #000000",
" . c #F6CD2B",
" X c #FBD747",
" o c #F4CA1F",
" O c #F9D83B",
" + c #E58F00",
" @ c #727273",
" # c #2CCED6",
" $ c #53D8D8",
" % c #00C5C5",
" & c #F7CF2F",
" * c #4B4846",
" = c #0FC4CD",
" - c #008383",
" ; c #00B1B1",
" : c #49D5DB",
" > c #009D9D",
" , c #00CBCB",
" < c #0BC2CC",
" 1 c #58D9D9",
" 2 c #F8D136",
" 3 c #DF8300",
" 4 c #59E4E7",
" 5 c #797979",
" 6 c #FBD846",
" 7 c #008989",
" 8 c #00B7B7",
" 9 c #F9D53A",
" 0 c #2ECFD7",
" q c #F9D33A",
" w c #554C45",
" e c #6F6F6F",
" r c #00A3A3",
" t c #58DFDF",
" y c #35CDCD",
" u c #F7D031",
" i c #50D7D7",
" p c #C4AA4B",
" a c #3ADCDF",
" s c #42D5DD",
" d c #5CCFCF",
" f c #618485",
" g c #008F8F",
" h c #00BDBD",
" j c #69DFDF",
" k c #F5CB25",
" l c #535353",
" z c #4F4F4F",
" x c #79E8E8",
" c c #F3C819",
" v c #F8D235",
" b c #F4CF3B",
" n c #4CD8E0",
" m c #494949",
" M c #FDDA51",
" N c #00A9A9",
" B c #4BD5D5",
" V c #009BA9",
" C c #E79300",
" Z c #00C3C3",
" A c #70E2E2",
" S c #46D3D3",
" D c #13C6CF",
" F c #F4CA20",
" G c #61DDDD",
" H c #008181",
" J c #00AFAF",
" K c #F7CF30",
" L c #1EC9D3",
" P c #5CDBDB",
" I c #2FCBD3",
" U c #F8D134",
" Y c #32CCCC",
" T c #5DD2D2",
" R c #008787",
" E c #00B5B5",
" W c #F2C410",
" Q c #F6CE2B",
" ! c #F4C91F",
" ~ c #39CFCF",
" ^ c #F4CD36",
" / c #FCD84B",
" ( c #37D2DA",
" ) c #BA9E3F",
" _ c #29CDD6",
" ` c #004B4B",
" ' c #00A7A7",
" ] c #F5CD26",
" [ c #FAD542",
" { c #F3C81A",
" } c #F8D236",
" | c #009393",
".  c #00C1C1",
".. c #F6CD2A",
".X c #767676",
".o c #54DBE2",
".O c #54D8D8",
".+ c #6A6A6A",
".@ c #445F5F",
".# c #6DE0E0",
".$ c #586C6C",
".% c #666666",
".& c #455656",
".* c #F6D344",
".= c #E38B00",
".- c #009999",
".; c #C3AA54",
".: c #77E3E3",
".> c #5C5C5C",
"., c #585858",
".< c #008799",
".1 c #F5CC25",
".2 c #545454",
".3 c #FAD641",
".4 c #34D1D9",
".5 c #00B3B3",
".6 c #4B4A4B",
".7 c #494A49",
".8 c #2FCACA",
".9 c #7B7B7A",
".0 c #3DD4DB",
".q c #18C7D1",
".w c #009F9F",
".e c #F5D23F",
".r c #7B9E9E",
".t c #47D7DE",
".y c #2CCACA",
".u c #3FBFBF",
".i c #008B8B",
".p c #00B9B9",
".a c #F9D33C",
".s c #51DAE1",
".d c #F2C614",
".f c #001B1B",
".g c #F5CB24",
".h c #42D2D2",
".j c #BA9E40",
".k c #74E2E2",
".l c #7BDFDF",
".z c #4ED7D7",
".x c #009191",
".c c #625950",
".v c #65DDDD",
".b c #DCBC40",
".n c #3DD0D0",
".m c #31D0D8",
".M c #5F7B7B",
".N c #23CBD4",
".B c #00ABAB",
".V c #F3CC32",
".C c None",
/* pixels */
" ` % , Z Z.  h h.p 8.5 ; J.B ' N",
"  .r.l x.:.k A.# j.v G P 1 $.z >",
"  .9.M d 4.o.s n.t s.0 (.m # : V",
"   5.>.$.; M / X [.a } u Q ].* C",
"  .X.,.2.c p 6.3.a 2 K Q.1 F.e C",
"   @ l z.6 *.b O 2 K . k o { b +",
"   e z.7 w.j 9 v &...g o c.d ^.=",
"  .+ m.& ) q U &...g ! c.d W.V 3",
"  .%.@.u a.4 0 _.N L.q D = < I.<",
"   f T t.O i B S.h.n ~ y Y.8.y H",
".f.B E ' r.w >.- |.x g.i R R - 7"
};
