/* XPM */
const char *icon_famfamfam_flags_bt[] = {
/* width height ncolors chars_per_pixel */
"16 11 152 2",
/* colors */
"   c #F5A487",
" . c #E3CFC1",
" X c #ECBA95",
" o c #FCDF4B",
" O c #FCDB4B",
" + c #FDE26D",
" @ c #F3B300",
" # c #F3B100",
" $ c #E10000",
" % c #F19151",
" & c #F26B10",
" * c #DFBB56",
" = c #F39F00",
" - c #DDE5EC",
" ; c #F68542",
" : c #F4741F",
" > c #F48236",
" , c #F38035",
" < c #D6D7E5",
" 1 c #F9AB5F",
" 2 c #FEE274",
" 3 c #F4632C",
" 4 c #F48239",
" 5 c #EBDDD5",
" 6 c #E8DBA7",
" 7 c #D4DBE6",
" 8 c #EDEBEE",
" 9 c #FEE477",
" 0 c #FBDC49",
" q c #FBDA49",
" w c #D9E0E4",
" e c #F98858",
" r c #FBDC60",
" t c #E0C0C0",
" y c #FAFAF7",
" u c #F8D753",
" i c #FBBF00",
" p c #FDE16F",
" a c #FBBD00",
" s c #F30700",
" d c #D6DDEE",
" f c #FCE88F",
" g c #E90000",
" h c #F8E28B",
" j c #ED5300",
" k c #D78B57",
" l c #E7E4E4",
" z c #FEDF5F",
" x c #EAEAEA",
" c c #FEE376",
" v c #ED0F00",
" b c #ED0B00",
" n c #F5BF00",
" m c #F4853B",
" M c #F5B900",
" N c #BA977C",
" B c #F5B100",
" V c #E30000",
" C c #FEDC58",
" Z c #F36419",
" A c #F27C2F",
" S c #FFE57A",
" D c #FEE579",
" F c #F0F2F6",
" G c #DEE0E1",
" H c #F78E4E",
" J c #FCD94F",
" K c #FDE271",
" L c #F10000",
" P c #EFBB00",
" I c #F26F14",
" U c #DD0000",
" Y c #FDDB53",
" T c #F25714",
" R c #FBD647",
" E c #F86934",
" W c #EB0000",
" Q c #F37F32",
" ! c #FCE479",
" ~ c #E7E4E2",
" ^ c #D4CECC",
" / c #DDD8D8",
" ( c #F26413",
" ) c #E8E4BB",
" _ c #ECD75F",
" ` c #EF1500",
" ' c #F7C300",
" ] c #DBE2ED",
" [ c #F7BB00",
" { c #F56D23",
" } c #FBD346",
" | c #F7B700",
".  c #F98F55",
".. c #E6CAB9",
".X c #E50000",
".o c #FADD5C",
".O c #EAEAEB",
".+ c #F1670B",
".@ c #F78649",
".# c #F57326",
".$ c #F5873D",
".% c #F3701A",
".& c #FEDC59",
".* c #FFE57B",
".= c #F16B0E",
".- c #EAD2C3",
".; c #F66D2A",
".: c #F4741E",
".> c #F2D24D",
"., c #CE6D3E",
".< c #E90500",
".1 c #F1B700",
".2 c #FEDE5C",
".3 c #DF0000",
".4 c #F88A50",
".5 c #CFD7DD",
".6 c #FDDB51",
".7 c #F68D44",
".8 c #FDD951",
".9 c #FEE273",
".0 c #FBDE45",
".q c #E5CD61",
".w c #FDDB54",
".e c #EFE8E5",
".r c #F27B2C",
".t c #E0D7C9",
".y c #FAE472",
".u c #FCDF6A",
".i c #DFDFDF",
".p c #F36319",
".a c #F27D2F",
".s c #D8E2CE",
".d c #F58A3F",
".f c #E68844",
".g c #FBE462",
".h c #F27F32",
".j c #D6D7D9",
".k c #FDDA50",
".l c #FCDA4F",
".z c #F9C300",
".x c #F9C100",
".c c #F9BF00",
".v c #D6D0CF",
".b c #F9BD00",
".n c #FCE266",
".m c #F2E69B",
".M c #F46720",
".N c #EAEDF3",
".B c #E70000",
".V c #E8D8D0",
".C c #F7DD57",
".Z c None",
/* pixels */
" ' i.c.c.c.b [ | a.c | B #.1 P j",
" i.*.* D 9 2 K + f h r.o.C u H W",
".z S z.2.&.w.6 ! y F.O _ * 3.@.<",
".z D.2.&.w.8 o R x.N.e 8.,.#.7.B",
".x c C.w.k O.>.q 6 ] N.5 ..M.d.B",
".c.9 Y.l O } d < w - ~ l :.% m.X",
" [ p J q.0 ) 7 5.V.j.-.f Z I > V",
" M.u 0.m.s.v /...;  .i ^ T & Q.3",
" @.n.y.t t E G k {.:.p (.=.+.a.3",
" n.g 1 e. .4 X % ;.$ 4 ,.h A.r U",
" = s L ` v b W g.B.X V $.3 U U U"
};
