/* XPM */
const char *icon_famfamfam_flags_ca[] = {
/* width height ncolors chars_per_pixel */
"16 11 146 2",
/* colors */
"   c #EDE1E2",
" . c #BF0000",
" X c #E87B81",
" o c #E56167",
" O c #F5EDED",
" + c #E92929",
" @ c #EBE3E3",
" # c #DA4148",
" $ c #D41514",
" % c #EF8084",
" & c #F49796",
" * c #D72424",
" = c #F8A4A7",
" - c #EF757A",
" ; c #A50000",
" : c #EA5D5E",
" > c #E98B8B",
" , c #FAFBFB",
" < c #DC2C2C",
" 1 c #F49599",
" 2 c #E3464D",
" 3 c #DB0000",
" 4 c #C70000",
" 5 c #DE373E",
" 6 c #F69094",
" 7 c #EE6E75",
" 8 c #E24545",
" 9 c #F28186",
" 0 c #F39094",
" q c #F7A1A5",
" w c #FEFEFE",
" e c #DC464C",
" r c #FCFCFC",
" t c #D50000",
" y c #EA525D",
" u c #FAFAFA",
" i c #EE6D6E",
" p c #F6F6F6",
" a c #F17E7E",
" s c #F4F4F4",
" d c #F2F2F2",
" f c #E8DDDB",
" g c #AD0000",
" h c #DD4A50",
" j c #F7EBED",
" k c #EEEEEE",
" l c #F07373",
" z c #ECECEC",
" x c #F8FAFB",
" c c #EA8384",
" v c #E91F27",
" b c #F17C81",
" n c #DE6A6B",
" m c #E54D51",
" M c #EC5E65",
" N c #E03335",
" B c #F28B8F",
" V c #E30000",
" C c #CF0000",
" Z c #E85757",
" A c #D4D4D4",
" S c #BB0000",
" D c #CCCCCC",
" F c #A70000",
" G c #DA2932",
" H c #C4C4C4",
" J c #F8A4A8",
" K c #EA5F5F",
" L c #F5D0D3",
" P c #C90000",
" I c #E86A6A",
" U c #F3F5F5",
" Y c #B50000",
" T c #ED2F37",
" R c #A10000",
" E c #D61D1D",
" W c #F5999E",
" Q c #E9686E",
" ! c #E8686D",
" ~ c #EF393F",
" ^ c #E03D44",
" / c #C30000",
" ( c #E23C3C",
" ) c #F0EEEE",
" _ c #EA6B6B",
" ` c #DB5559",
" ' c #E26C6D",
" ] c #E9AFAF",
" [ c #F58B90",
" { c #F6EDED",
" } c #D93636",
" | c #EC5959",
".  c #D8232B",
".. c #EC6666",
".X c #E8A8A7",
".o c #F79EA2",
".O c #ED272F",
".+ c #E64F56",
".@ c #E8C0C1",
".# c #DF0000",
".$ c #EC7176",
".% c #F4868B",
".& c #FDFDFD",
".* c #E74343",
".= c #FBFBFB",
".- c #F9F9F9",
".; c #F8F7F8",
".: c #F7F7F7",
".> c #F5F5F5",
"., c #F3F3F3",
".< c #EF2D37",
".1 c #F1F1F1",
".2 c #EFEFEF",
".3 c #ECBDBE",
".4 c #EDEDED",
".5 c #EBEBEB",
".6 c #F0848A",
".7 c #E9E9E9",
".8 c #DB4444",
".9 c #EECECD",
".0 c #E9686C",
".q c #F14B53",
".w c #DF4F55",
".e c #ED6366",
".r c #E7131B",
".t c #D90000",
".y c #EE6E74",
".u c #EDE6E6",
".i c #E2555B",
".p c #EF353D",
".a c #E64E55",
".s c #F17A7A",
".d c #B10000",
".f c #CBCBCB",
".g c #F1ECED",
".h c #ED7476",
".j c #E45B60",
".k c #EA6E73",
".l c #C5C5C5",
".z c #BFBFBF",
".x c #E56164",
".c c #DD3038",
".v c #F13F45",
".b c #EF3B43",
".n c #D30000",
".m c None",
/* pixels */
".q.b.v + s s s s s.,.,.4.n.t.n C",
".< J J & w.& r { j ,.-.; I.$.k P",
" ~ = 6 a.& r x c X U p.> 8.a ! /",
".p q [.s r L.9.e :.@.3., ( 2 o .",
" T.o.% l.=.0.h 7 Q.x.8.1 N ^.j S",
".O W 9 i u > | M y.* n.2 < 5.i Y",
" v 1 b...- O '.+ m `   k *.c.w.d",
".r 0 - K.:.>.g.X ].u k.5 E G h g",
" V B.y Z.> s d f @.4.5.7 $.  e F",
".#.6 % _ p s d.2 ) k.4 z } e # ;",
" 3.t t 4 A D.f.f.l H H.z R F ; ;"
};
