/* XPM */
const char *icon_famfamfam_flags_cc[] = {
/* width height ncolors chars_per_pixel */
"16 11 152 2",
/* colors */
"   c #000000",
" . c #57A26C",
" X c #46985B",
" o c #CAC448",
" O c #459D67",
" + c #549D79",
" @ c #D1BE27",
" # c #81B36D",
" $ c #3E9256",
" % c #1F8648",
" & c #61AC7F",
" * c #D4C441",
" = c #388E50",
" - c #87B976",
" ; c #004F19",
" : c #36915B",
" > c #349359",
" , c #338F58",
" < c #77B591",
" 1 c #FFE982",
" 2 c #E1CD4A",
" 3 c #4FA270",
" 4 c #4B9E6C",
" 5 c #499E6A",
" 6 c #5FA283",
" 7 c #81B576",
" 8 c #268B4E",
" 9 c #6AB187",
" 0 c #25894D",
" q c #B9C06B",
" w c #E2D365",
" e c #559F6F",
" r c #4B9A6F",
" t c #FFF67E",
" y c #659E4D",
" u c #E2CF51",
" i c #4C9B52",
" p c #CFC952",
" a c #3A965E",
" s c #39945D",
" d c #147F3F",
" f c #137F3E",
" g c #107D3B",
" h c #EAD455",
" j c #4D9C63",
" k c #2C8E53",
" l c #C2C03E",
" z c #69B085",
" x c #005900",
" c c #005700",
" v c #005500",
" b c #005300",
" n c #005100",
" m c #499F6C",
" M c #004D00",
" N c #004B00",
" B c #004900",
" V c #479D6A",
" C c #60A251",
" Z c #004500",
" A c #005D17",
" S c #004300",
" D c #003F00",
" F c #003D00",
" G c #429765",
" H c #409963",
" J c #3F9962",
" K c #003700",
" L c #3D9760",
" P c #005D03",
" I c #003100",
" U c #002B00",
" Y c #002500",
" T c #002300",
" R c #001D00",
" E c #1A8444",
" W c #001900",
" Q c #198243",
" ! c #001700",
" ~ c #4C9D5E",
" ^ c #001100",
" / c #000F00",
" ( c #58A677",
" ) c #000B00",
" _ c #000900",
" ` c #8CAA47",
" ' c #5AA76F",
" ] c #000500",
" [ c #37955D",
" { c #DAC941",
" } c #50A06F",
" | c #93B051",
".  c #318F57",
".. c #74B38F",
".X c #2F8D55",
".o c #6FB38A",
".O c #59A571",
".+ c #0B7A38",
".@ c #ECD24F",
".# c #469C68",
".$ c #F3E284",
".% c #258B4E",
".& c #24894D",
".* c #5C9A42",
".= c #6FA658",
".- c #1F8748",
".; c #6AA453",
".: c #3C9354",
".> c #1E8547",
"., c #ACCC8A",
".< c #5DA97B",
".1 c #CFC33C",
".2 c #3C9861",
".3 c #3B9860",
".4 c #2C8A51",
".5 c #B3CD8D",
".6 c #4EA16F",
".7 c #FEEE59",
".8 c #4FA066",
".9 c #72B48F",
".0 c #2B8E53",
".q c #2A8A52",
".w c #59A073",
".e c #E6CC3E",
".r c #A8BA4D",
".t c #43965A",
".y c #66AE83",
".u c #65AE82",
".i c #FEF17D",
".p c #429B66",
".a c #44985E",
".s c #3D9961",
".d c #FDED54",
".f c #198244",
".g c #188243",
".h c #64AE70",
".j c #54A474",
".k c #57A16D",
".l c #529F68",
".z c #6CAD71",
".x c #70B58C",
".c c #FEDD58",
".v c #6DB389",
".b c #2E8C4B",
".n c #DACA4F",
".m c #ADC472",
".M c #49A06C",
".N c #449C67",
".B c #4E9232",
".V c #E3D154",
".C c #7CAD5F",
".Z c None",
/* pixels */
" P P P P x c b M B S F K v U Y R",
" P.5 t.$ <...x.v z.u & 7 w #.6 !",
" P 1 6 -.7 +.O e V.p.s [ C k 5 /",
" A.i.m q.d.w r h u.2 |. .0 8.C _",
" ;.,.c.d.h.k.V p.3.r { `.%.*.n U",
" b.9.z ' ..l.@ ~ X i l 0.- E.=  ",
" n.o 3 m.8 j 2 o $.q.& %.f @ :  ",
" N 9.M O H.a.t.e.1.& % Q d g ,  ",
" Z.y.N J a >.: =.b.>.g f.B.+.X  ",
" D &.< (.j } 4.# G L s.; * y.4  ",
" K I U T R ! ^ ) ]       W      "
};
