/* XPM */
const char *icon_famfamfam_flags_cd[] = {
/* width height ncolors chars_per_pixel */
"16 11 116 2",
/* colors */
"   c #FFFF23",
" . c #F2000E",
" X c #008DBF",
" o c #55D1F8",
" O c #BFF186",
" + c #05CAFF",
" @ c #4AB5D6",
" # c #FF380D",
" $ c #57D5FD",
" % c #FFFF12",
" & c #FF5627",
" * c #02C4FF",
" = c #71E0FF",
" - c #EFFF6F",
" ; c #B3F8A1",
" : c #FF0010",
" > c #FE000F",
" , c #CA0000",
" < c #64C0DB",
" 1 c #55D0F7",
" 2 c #FF6419",
" 3 c #66C4E0",
" 4 c #0092C1",
" 5 c #FF5326",
" 6 c #0094C4",
" 7 c #F8000F",
" 8 c #C40000",
" 9 c #62BBD5",
" 0 c #61BBD4",
" q c #B8B600",
" w c #FFFF0A",
" e c #F5000F",
" r c #F4000E",
" t c #C10000",
" y c #B2EEAC",
" u c #56D3FA",
" i c #BDEF85",
" p c #FFFF10",
" a c #FFFD10",
" s c #04C8FF",
" d c #C6F391",
" f c #58D7FF",
" g c #C5F190",
" h c #FFFB2A",
" j c #00B9F4",
" k c #C3F6B2",
" l c #B80000",
" z c #70E0FF",
" x c #54CEF4",
" c c #70DEFF",
" v c #BBF6AA",
" b c #6FDCFE",
" n c #F52528",
" m c #FF0011",
" M c #4EC884",
" N c #65C2DD",
" B c #C1DA07",
" V c #05CFFF",
" C c #00B4ED",
" Z c #05CBFF",
" A c #FF7831",
" S c #4AB4D6",
" D c #FF370D",
" F c #B20000",
" G c #4BB8DA",
" H c #6DD7F8",
" J c #00C1FD",
" K c #C9FDB7",
" L c #F7000F",
" P c #07FFF6",
" I c #6FDBFD",
" U c #63BFDA",
" Y c #BCFCB7",
" T c #3DFFA0",
" R c #0088B4",
" E c #0086B4",
" W c #FF6519",
" Q c #FF252A",
" ! c #FF6319",
" ~ c #FE2529",
" ^ c #0098CB",
" / c #49B3D4",
" ( c #6CD4F3",
" ) c #FFFF11",
" _ c #4BB7D9",
" ` c #C86200",
" ' c #C5EF91",
" ] c #62BCD5",
" [ c #61BAD4",
" { c #00B2E8",
" } c #CCF19B",
" | c #FFFF00",
".  c #B4EFAB",
".. c #FFFF2B",
".X c #FF000F",
".o c #63BED9",
".O c #49B2D3",
".+ c #FC000F",
".@ c #00BDF8",
".# c #C80000",
".$ c #57D4FB",
".% c #B9FBB6",
".& c #0089B6",
".* c #BCEE84",
".= c #4AB6D7",
".- c #00BFFB",
".; c #F9000F",
".: c #0089B9",
".> c #6ED9FA",
"., c #F6000F",
".< c #62BDD7",
".1 c #F6FF81",
".2 c #0086B2",
".3 c #0084B2",
".4 c #48B1D1",
".5 c None",
/* pixels */
" V V T V V Z + s J.@ j C { B.# t",
" V Y  .% z = c I.> H ( } h 5 n F",
" P.. % % ; f.$ o x g a D e . Q l",
" V.1 % - $ u 1 d p D L r : : A q",
" + K f v o y p D.;., m : ! p ' X",
" * b u.  ) #.+ 7 m : 2 p.*.= U.:",
".- k w # >.; m m W p i _ @ /.< R",
" | &.X.+ m m W p O G.= S.O.4 9.3",
" ,.+.+.+ W p O G G G.= S.O.4 9.3",
" , ~ W p O 3 3 3 N <.o.< ] 0 [.3",
" 8 ` M ^ ^ ^ 6 4 X.:.& E.2.3.3.3"
};
