/* XPM */
const char *icon_famfamfam_flags_cg[] = {
/* width height ncolors chars_per_pixel */
"16 11 126 2",
/* colors */
"   c #F7F72F",
" . c #FAFA3F",
" X c #F6AF2B",
" o c #F6A52B",
" O c #77E377",
" + c #76E376",
" @ c #6FE16F",
" # c #9EE844",
" $ c #6DDF6D",
" % c #F21414",
" & c #FAFA42",
" * c #E10000",
" = c #66DD66",
" - c #F52B24",
" ; c #B1EC46",
" : c #5FDF5F",
" > c #F1C901",
" , c #54DB54",
" < c #53DB53",
" 1 c #ACEB62",
" 2 c #51D951",
" 3 c #50D950",
" 4 c #4FD94F",
" 5 c #4BD74B",
" 6 c #CAF265",
" 7 c #F9F93A",
" 8 c #49D749",
" 9 c #FAFA5C",
" 0 c #EDC300",
" q c #F33232",
" w c #EDBF00",
" e c #F9F93D",
" r c #7BE47A",
" t c #F3CB09",
" y c #F43636",
" u c #F75346",
" i c #F21313",
" p c #50D84C",
" a c #F8F835",
" s c #F9F957",
" d c #4DD500",
" f c #F74949",
" g c #E90000",
" h c #F5CD11",
" j c #F52826",
" k c #00C700",
" l c #00C300",
" z c #00C100",
" x c #ED4900",
" c c #00BF00",
" v c #00BD00",
" b c #00BB00",
" n c #00B900",
" m c #00B700",
" M c #00B100",
" N c #F6BD29",
" B c #6EDF69",
" V c #ABEB45",
" C c #F7F730",
" Z c #F64444",
" A c #E30000",
" S c #FAFA40",
" D c #F7AE4E",
" F c #F22C2C",
" G c #4DD74B",
" H c #F52725",
" J c #F43B3B",
" K c #EFC500",
" L c #DD0000",
" P c #F53F3F",
" I c #F9F93B",
" U c #FAFA5D",
" Y c #F23232",
" T c #BFF047",
" R c #7BE47B",
" E c #F6AA2B",
" W c #79E479",
" Q c #F42020",
" ! c #74E274",
" ~ c #F9F955",
" ^ c #6AE06A",
" / c #EB0000",
" ( c #F8F836",
" ) c #5CDE5C",
" _ c #59DC59",
" ` c #F9F958",
" ' c #58DC58",
" ] c #49D649",
" [ c #F7F72E",
" { c #F7D117",
" } c #F8F850",
" | c #E50000",
".  c #F64242",
".. c #F6B32A",
".X c #F21010",
".o c #FBFB60",
".O c #F7F731",
".+ c #F41F1F",
".@ c #F33535",
".# c #F8F853",
".$ c #FAFA41",
".% c #F52B23",
".& c #F43939",
".* c #DF0000",
".= c #F53D3D",
".- c #F10B0B",
".; c #F31A1A",
".: c #F7CB4B",
".> c #F9F93C",
"., c #F10F0E",
".< c #F41E1E",
".1 c #B4ED47",
".2 c #B3ED46",
".3 c #F8F834",
".4 c #F6A02C",
".5 c #72E273",
".6 c #70E271",
".7 c #F52A25",
".8 c #4DD84B",
".9 c #F8F837",
".0 c #A5EA45",
".q c #58DC59",
".w c #F31919",
".e c #F22F2F",
".r c #E70000",
".t c None",
/* pixels */
" k l l l l z v v n m { h t > K x",
" l R R W O !.6 $ B 6.o 9 s.# D /",
" l r : ) _ , 2 p T & e.9.O.4 f g",
" l W ).q , 2.8.1 &.> (.O o j Z.r",
" z + ' , 3 G.2.$.> ( C E H Q P.r",
" c.5 < 4 5 ; S I ( C X.7.+.; J |",
" v @ 4 8 V S 7 a  .. -.+.w % y A",
" b ^ ].0 . 7.3  .. -.+.w %.X q.*",
" m = # . 7.3 [ N.%.<.w i.,.-.e.*",
" M 1 U ` ~ }.: u. .=.&.@ Y.e F L",
" d t > K 0 w / g.r | A *.* L L L"
};
