/* XPM */
const char *icon_famfamfam_flags_ch[] = {
/* width height ncolors chars_per_pixel */
"11 11 65 1",
/* colors */
"  c #FC4C4C",
". c #F50000",
"X c #FC6666",
"o c #F85758",
"O c #FB4747",
"+ c #FA5D5D",
"@ c #EF0000",
"# c #F85B5B",
"$ c #F75050",
"% c #F72F2F",
"& c #FC6565",
"* c #FD0000",
"= c #E90000",
"- c #F95858",
"; c #FEFEFE",
": c #FDFCFD",
"> c #FCFCFC",
", c #FBFCFB",
"< c #FAFAFA",
"1 c #F8F8F8",
"2 c #F62A2A",
"3 c #FE7A7A",
"4 c #FB6060",
"5 c #F70000",
"6 c #FE5959",
"7 c #E30000",
"8 c #FE5F5F",
"9 c #FD7575",
"0 c #FB4545",
"q c #F10000",
"w c #FA5B5B",
"e c #F62929",
"r c #FC6A6A",
"t c #FF7B7A",
"y c #FE7979",
"u c #FF0000",
"i c #FB6162",
"p c #F74747",
"a c #EB0000",
"s c #F95859",
"d c #FC6969",
"f c #F90000",
"g c #E50000",
"h c #F64242",
"j c #FD6D6D",
"k c #F74646",
"l c #FA3F3F",
"z c #F52323",
"x c #F30000",
"c c #FA4142",
"v c #FDFDFD",
"b c #F53D3D",
"n c #FBFBFB",
"m c #F9F9F9",
"M c #F7F7F7",
"N c #F95B5B",
"B c #FF7B7B",
"V c #FB4949",
"C c #ED0000",
"Z c #FE5C5C",
"A c #FD7272",
"S c #FB0000",
"D c #FA4444",
"F c #E70000",
"G c None",
/* pixels */
"uuuu****Sf5",
"uBBy339jd&.",
"ut8Z;vv O4x",
"uyZ6vv>Ocwq",
"*y;v:>n<mN@",
"*3v>>n<m1#C",
"*A>,n<m1M$a",
"SrV0<m1%2p=",
"fXDlm1MezhF",
"5i+-so$khbg",
".xq@CCa=Fg7"
};
