/* XPM */
const char *icon_famfamfam_flags_ck[] = {
/* width height ncolors chars_per_pixel */
"16 11 149 2",
/* colors */
"   c #000000",
" . c #00002B",
" X c #571D59",
" o c #385086",
" O c #4D6194",
" + c #4C6193",
" @ c #374E85",
" # c #000003",
" $ c #485D8F",
" % c #7081A9",
" & c #000045",
" * c #000031",
" = c #43598D",
" - c #2E467F",
" ; c #2D467E",
" : c #E6C3CA",
" > c #42578C",
" , c #6B7DA7",
" < c #7C8CB1",
" 1 c #526695",
" 2 c #000009",
" 3 c #556A9B",
" 4 c #373781",
" 5 c #00004B",
" 6 c #3D558A",
" 7 c #516697",
" 8 c #3C5389",
" 9 c #3A5187",
" 0 c #D31B19",
" q c #4C6092",
" w c #000037",
" e c #4F618B",
" r c #5F719E",
" t c #7384AB",
" y c #908EB7",
" u c #000023",
" i c #6377A5",
" p c #DDD3DE",
" a c #D4BAC8",
" s c #485E91",
" d c #324B82",
" f c #475C90",
" g c #324982",
" h c #445A8D",
" j c #2F477F",
" k c #6C7EA7",
" l c #707FA1",
" z c #F0AAA8",
" x c #E6B9BF",
" c c #EC8583",
" v c #F8F8F8",
" b c #F6F6F6",
" n c #F4F4F4",
" m c #F0ACAB",
" M c #E89596",
" N c #516596",
" B c #947DA3",
" V c #7585AC",
" C c #8B3155",
" Z c #6F578F",
" A c #374E86",
" S c #E8CED4",
" D c #5F72A0",
" F c #4A5F92",
" G c #C78696",
" H c #5B6E9C",
" J c #4A5C88",
" K c #44598C",
" L c #D99097",
" P c #566A9A",
" I c #41578C",
" U c #3F558A",
" Y c #2A427C",
" T c #6779A4",
" R c #846D99",
" E c #6475A1",
" W c #6375A0",
" Q c #475C8E",
" ! c #5A6D9A",
" ~ c #6B6197",
" ^ c #A5536D",
" / c #465C90",
" ( c #E36C6B",
" ) c #40568A",
" _ c #687AA4",
" ` c #3E5488",
" ' c #7989AE",
" ] c #C58999",
" [ c #DAABB4",
" { c #516597",
" } c #3C5289",
" | c #4F6395",
".  c #253D79",
".. c #4E6394",
".X c #395086",
".o c #8D1D41",
".O c #591F5D",
".+ c #93A0C7",
".@ c #000019",
".# c #BB677B",
".$ c #E18689",
".% c #D86F73",
".& c #5B6E9D",
".* c #5A6E9C",
".= c #576A99",
".- c #6B7DA6",
".; c #41578A",
".: c #445683",
".> c #D8A4AE",
"., c #A4ACCA",
".< c #826995",
".1 c #891D43",
".2 c #F7F7F7",
".3 c #8F769B",
".4 c #F3F3F3",
".5 c #00196B",
".6 c #556A9A",
".7 c #00001F",
".8 c #F1F1F1",
".9 c #868BB3",
".0 c #536898",
".q c #3E558A",
".w c #D4ABB7",
".e c #3D5389",
".r c #E27879",
".t c #00000B",
".y c #4E6293",
".u c #E57372",
".i c #4B6090",
".p c #60719E",
".a c #EA7D7A",
".s c #DFBFC8",
".d c #000039",
".f c #4B6093",
".g c #203A76",
".h c #344B83",
".j c #E08587",
".k c #6F80A9",
".l c #000025",
".z c #000011",
".x c #C3C3C3",
".c c #42588D",
".v c #29417B",
".b c #506594",
".n c #002977",
".m c #00003F",
".M c #AF7B95",
".N c #3E517F",
".B c None",
/* pixels */
".# Z.n.1.o.5 X ^ u.m w * ..l.7.@",
" 4 : p [.> a S., l t.k.- T W r.z",
" 0 M c.u (.a.r.% e.0 | F.2 U ! 2",
" C x z.j.$ m L.M J.. v h U 9 b #",
" ~.s y ] G.+.w B.: s =.q.X.h.b  ",
".O.9 i R.< 3 ,.3.N.2 6.X.h j q.x",
" 5 < D.& P 7 O f.c.e o d - Y $  ",
" & '.* P { + f > 8 A n - Y. .4  ",
".m V.6 N.f / I } @ g ;.v.8.g.;  ",
".d % k _ E.p H.= 1.y.i Q K ) `  ",
" * ..l.7.@.z.t #                "
};
