/* XPM */
const char *icon_famfamfam_flags_cl[] = {
/* width height ncolors chars_per_pixel */
"16 11 122 2",
/* colors */
"   c #78ABDC",
" . c #66A7DE",
" X c #F5EDED",
" o c #F3EBEB",
" O c #0061D3",
" + c #599EDB",
" @ c #91C3E7",
" # c #F50000",
" $ c #85BAE5",
" % c #F21414",
" & c #E10000",
" * c #FC6666",
" = c #F83434",
" - c #6AAADE",
" ; c #FDFDFE",
" : c #5CA1DA",
" > c #50A1E2",
" , c #F33232",
" < c #FA5D5D",
" 1 c #EF0000",
" 2 c #D8EAF7",
" 3 c #F43636",
" 4 c #F72F2F",
" 5 c #F21313",
" 6 c #62A4DC",
" 7 c #F95455",
" 8 c #FD0000",
" 9 c #E90000",
" 0 c #54A6E5",
" q c #F95858",
" w c #FCFCFC",
" e c #FAFAFA",
" r c #F8F8F8",
" t c #F6F6F6",
" y c #F4F4F4",
" u c #F62A2A",
" i c #F93B3A",
" p c #FB4A49",
" a c #F8F1F1",
" s c #F70000",
" d c #F72E2E",
" f c #F6EFEF",
" g c #58A7E5",
" h c #F4EDED",
" j c #E30000",
" k c #FD6F6F",
" l c #F22C2C",
" z c #77B1E2",
" x c #549ADA",
" c c #005DC3",
" v c #005BC3",
" b c #0059C3",
" n c #FB4545",
" m c #F10000",
" M c #F62929",
" N c #DD0000",
" B c #DAEAF7",
" V c #FC6A6A",
" C c #003FAF",
" Z c #FAF2F2",
" A c #F23232",
" S c #5293D1",
" D c #EDEFEF",
" F c #F4ECEC",
" G c #FB6162",
" H c #EB0000",
" J c #FA4040",
" K c #DFEDF8",
" L c #E5D3D3",
" P c #F52424",
" I c #FC4F4F",
" U c #F90000",
" Y c #E50000",
" T c #F64242",
" R c #F21010",
" E c #D7E9F6",
" W c #F41F1F",
" Q c #F33535",
" ! c #F74646",
" ~ c #FA3F3F",
" ^ c #7BB5E4",
" / c #F52323",
" ( c #F43939",
" ) c #0053C1",
" _ c #F30000",
" ` c #DF0000",
" ' c #FDFDFD",
" ] c #F53D3D",
" [ c #FBFBFB",
" { c #F10B0B",
" } c #F9F9F9",
" | c #F7F7F7",
".  c #F5F5F5",
".. c #F3F3F3",
".X c #5695D3",
".o c #F1F1F1",
".O c #EFEFEF",
".+ c #EBEBEB",
".@ c #F10F0E",
".# c #0067C7",
".$ c #E9E9E9",
".% c #F93A3A",
".& c #E7E7E7",
".* c #F85050",
".= c #F41E1E",
".- c #FB4949",
".; c #F9F2F2",
".: c #F7F0F0",
".> c #ED0000",
"., c #5B98D4",
".< c #85BDE6",
".1 c #76B9EB",
".2 c #7AB6E5",
".3 c #F83535",
".4 c #F74B4B",
".5 c #FB0000",
".6 c #F31919",
".7 c #F22F2F",
".8 c #FA4444",
".9 c #E70000",
".0 c #DAEBF7",
".q c None",
/* pixels */
".# c b v ) c ' ' [ } |. ...o.O D",
" v ^.0.2 z $ ; ' w w [ e } r |.+",
" b K B 2 + - ' w [ e } r | t |.$",
" b.< E @ x . w [ e } r | t.  t.&",
" O.1 g 0 > 6 [ e } r | t.  y. .&",
" C  .,.X S : Z.; a.: f X F o h L",
" 8 k I p n J i.3 4 u P W.6 % 3 j",
".5 V.- n ~.% = 4 u P W.6 % R , `",
" U *.8 ~.% = d M /.=.6 5.@ {.7 `",
" s G < q 7.*.4 ! T ] ( Q A.7 l N",
" # _ m 1.>.> H 9.9 Y j & ` N N N"
};
