/* XPM */
const char *icon_famfamfam_flags_cm[] = {
/* width height ncolors chars_per_pixel */
"16 11 155 2",
/* colors */
"   c #F4F436",
" . c #54BA55",
" X c #F3F300",
" o c #DFDF00",
" O c #F74030",
" + c #FC4C4C",
" @ c #F7C32F",
" # c #79C979",
" $ c #77CB77",
" % c #F53524",
" & c #F7F749",
" * c #F3F31A",
" = c #E10000",
" - c #ED5E54",
" ; c #6AC36A",
" : c #F83434",
" > c #EDEF00",
" , c #5FBF5F",
" < c #5CBD5C",
" 1 c #59BF59",
" 2 c #54BD54",
" 3 c #FAFA5C",
" 4 c #53B953",
" 5 c #EB554B",
" 6 c #50BB50",
" 7 c #FB4747",
" 8 c #4FB74F",
" 9 c #49B549",
" 0 c #F6F644",
" q c #F4301F",
" w c #44B144",
" e c #FC4B4B",
" r c #F2F22C",
" t c #F5F525",
" y c #F72F2F",
" u c #7BCA7A",
" i c #E7E700",
" p c #F4F53B",
" a c #FC6565",
" s c #F9F957",
" d c #FD0000",
" f c #F2F22F",
" g c #E90000",
" h c #FA4242",
" j c #F84736",
" k c #FAC741",
" l c #F5F53F",
" z c #F8C435",
" x c #F5F500",
" c c #F2F232",
" v c #FB4C46",
" b c #F17B74",
" n c #F4F420",
" m c #F62A2A",
" M c #E1E100",
" N c #F93B3A",
" B c #009100",
" V c #FB6E60",
" C c #008D00",
" Z c #008900",
" A c #008700",
" S c #008500",
" D c #008300",
" F c #007F00",
" G c #F70000",
" H c #007B00",
" J c #F72E2E",
" K c #007700",
" L c #007500",
" P c #E30000",
" I c #006F00",
" U c #006700",
" Y c #006300",
" T c #EC5A51",
" R c #005F00",
" E c #EFEF00",
" W c #F2F210",
" Q c #FABC40",
" ! c #F3F332",
" ~ c #F6F62B",
" ^ c #F62929",
" / c #F2F213",
" ( c #C90000",
" ) c #F3F335",
" _ c #F9DD3B",
" ` c #E9E900",
" ' c #F93C3C",
" ] c #F1F10B",
" [ c #F5F526",
" { c #7BCA7B",
" } c #79C879",
" | c #EB0000",
".  c #FD7071",
".. c #76C876",
".X c #F52424",
".o c #6FC46F",
".O c #F1F10E",
".+ c #66C066",
".@ c #F8DE36",
".# c #5CBE5C",
".$ c #5DBC5D",
".% c #E3E300",
".& c #FC6969",
".* c #58BC58",
".= c #E7453A",
".- c #58BA58",
".; c #54BA54",
".: c #F63A2B",
".> c #F90000",
"., c #4FB84F",
".< c #4BB84B",
".1 c #E50000",
".2 c #49B449",
".3 c #F64242",
".4 c #45B645",
".5 c #FD6D6D",
".6 c #45B245",
".7 c #3FB03F",
".8 c #F7F731",
".9 c #3AB03A",
".0 c #F1F100",
".q c #F8F853",
".w c #F74646",
".e c #F44939",
".r c #F3F319",
".t c #F52323",
".y c #DDDD00",
".u c #EA4F46",
".i c #FA4142",
".p c #F53D3D",
".a c #F83C36",
".s c #F6F62C",
".d c #EBEB00",
".f c #F7F74E",
".g c #F2F214",
".h c #40B33F",
".j c #F41E1E",
".k c #F94C3D",
".l c #E84A40",
".z c #F9C53C",
".x c #E63F34",
".c c #F7B630",
".v c #E5E500",
".b c #72C673",
".n c #FD5151",
".m c #F8F837",
".M c #F32B19",
".N c #E85950",
".B c #F74B4B",
".V c #FB0000",
".C c #F4F41F",
".Z c #61BE62",
".A c #E70000",
".S c #58BC59",
".D c None",
/* pixels */
" B Z Z Z C = d d.V.> G x X.0 E >",
" S { { # $ b. .5.& a V 3 s.q.f.d",
" Z u ,.# 1 -.n + 7 h.k.m.8.s & `",
" A } <.S 2 T e 7.i ' j.8 ~ [ 0 i",
" A...*.; 6 5 v k.z.a O ~ t n l i",
" D.b 4.,.<.u Q _.@.c.: t.C * p.v",
" F.o 8 9.4.l N z @ m %.C.r.g  .%",
" H ;.2.6.h.= : y m.X q.r.g W ! o",
" K.+ w.7.9.x J ^.t.j.M /.O ] f o",
" I.Z.$.- ..N.B.w.3.p.e ) c f r.y",
" L U Y R R ( | g.A.1 P M o.y.y.y"
};
