/* XPM */
const char *icon_famfamfam_flags_cn[] = {
/* width height ncolors chars_per_pixel */
"16 11 135 2",
/* colors */
"   c #FADC7B",
" . c #DF3C3D",
" X c #DE3C3C",
" o c #E44F4F",
" O c #AB0000",
" + c #F5CC4B",
" @ c #D83636",
" # c #E45C5C",
" $ c #DB2F2F",
" % c #E86F6D",
" & c #DF4040",
" * c #E65754",
" = c #E55353",
" - c #D10F0E",
" ; c #EA7F47",
" : c #EF9859",
" > c #CD0000",
" , c #D31313",
" < c #EE8979",
" 1 c #E54500",
" 2 c #E25353",
" 3 c #D92626",
" 4 c #B90000",
" 5 c #E86666",
" 6 c #E4524B",
" 7 c #A50000",
" 8 c #DD4444",
" 9 c #ED8950",
" 0 c #ED9246",
" q c #E35757",
" w c #FADD7A",
" e c #DE3B3B",
" r c #ED7F7B",
" t c #FAE25C",
" y c #D83535",
" u c #DB2E2E",
" i c #C70000",
" p c #B30000",
" a c #E14E4E",
" s c #D61F1F",
" d c #9F0000",
" f c #ED964C",
" g c #D62C2C",
" h c #DC3F3F",
" j c #E45454",
" k c #D11010",
" l c #D92525",
" z c #F6CF51",
" x c #D72323",
" c c #DD3636",
" v c #E34949",
" b c #E14747",
" n c #D50000",
" m c #C10000",
" M c #E25455",
" N c #DE3A3A",
" B c #D51A1A",
" V c #D92B2B",
" C c #E34F4F",
" Z c #D00B0B",
" A c #DF4B4B",
" S c #DC3131",
" D c #CF0000",
" F c #E96F6F",
" G c #E04242",
" H c #DE3736",
" J c #DD3535",
" K c #A70000",
" L c #D72F2F",
" P c #F09B54",
" I c #D51919",
" U c #DB2C2C",
" Y c #EC9046",
" T c #D92A2A",
" R c #E86A6A",
" E c #DE3B3C",
" W c #F5CB4B",
" Q c #A10000",
" ! c #F1A851",
" ~ c #DA3B3B",
" ^ c #DD3434",
" / c #E14545",
" ( c #D70000",
" ) c #C30000",
" _ c #E76565",
" ` c #AF0000",
" ' c #D83232",
" ] c #D92929",
" [ c #FDF35F",
" { c #E86969",
" } c #DF4949",
" | c #D10000",
".  c #E14241",
".. c #BD0000",
".X c #D72020",
".o c #A90000",
".O c #D51E1E",
".+ c #E66060",
".@ c #E14444",
".# c #D82424",
".$ c #DE3737",
".% c #EC7976",
".& c #E34A49",
".* c #D62F2F",
".= c #CB0000",
".- c #DC4242",
".; c #F5BF71",
".: c #DE3B3A",
".> c #B70000",
"., c #FBE65C",
".< c #A30000",
".1 c #DD4646",
".2 c #D41919",
".3 c #E03F3F",
".4 c #DA3939",
".5 c #D71F1F",
".6 c #E45D5D",
".7 c #DB3030",
".8 c #E04142",
".9 c #DB3D3D",
".0 c #F9DA74",
".q c #E15050",
".w c #E66162",
".e c #DC3434",
".r c #9D0000",
".t c #EA7273",
".y c #E75C59",
".u c #E65858",
".i c #D31414",
".p c #ED8479",
".a c #F2A577",
".s c #D30000",
".d c #E35858",
".f c #DA2B2B",
".g c None",
/* pixels */
" ( n.s n n 1 D D >.= i i ) m....",
" n r  .p.a.0.; % { _.+ # q 2 a.>",
".s w [ t.y P z f b G ..$ S U } p",
".s <., : j ! W ;.8 X H S.f 3 8 `",
".s.%.u * 9 + Y.  E c.7.f l.X h O",
" |.t = C 6 0 & e c.7 V l.5 B ~ K",
" D F o.& / &.: J $ T.# s I.i @ 7",
" > R v /.3 N ^ $ T.# s I.i k ' Q",
".= 5.@.3 N.e u ] x.O.2 , - Z L Q",
" i.w.6.d M.q A.1.-.9.4 y '.* g.r",
" i ) m.. 4.> p ` O.o K.< Q d.r Q"
};
