/* XPM */
const char *icon_famfamfam_flags_cr[] = {
/* width height ncolors chars_per_pixel */
"16 11 161 2",
/* colors */
"   c #E73B3B",
" . c #E63B3A",
" X c #00002B",
" o c #F4F6F6",
" O c #EA4A4B",
" + c #00006D",
" @ c #95A9D4",
" # c #EDAEAD",
" $ c #DF1F1F",
" % c #000045",
" & c #E10000",
" * c #829ACB",
" = c #ED5454",
" - c #000031",
" ; c #91A7D3",
" : c #B90000",
" > c #E63636",
" , c #DF6967",
" < c #5C7AB6",
" 1 c #E84545",
" 2 c #000073",
" 3 c #EE5858",
" 4 c #7B94C7",
" 5 c #F4F5F5",
" 6 c #F2F3F3",
" 7 c #F0F1F1",
" 8 c #00004B",
" 9 c #F9A1A1",
" 0 c #DE1A1A",
" q c #000037",
" w c #F9C6C5",
" e c #7790C6",
" r c #000783",
" t c #000023",
" y c #748EC3",
" u c #E03636",
" i c #859DCD",
" p c #000079",
" a c #EEA4A3",
" s c #E32F2F",
" d c #F6B9B8",
" f c #F18785",
" g c #E74040",
" h c #E5E9E9",
" j c #93A8D4",
" k c #F9C8C8",
" l c #ED5353",
" z c #000051",
" x c #6F8AC1",
" c c #6C88BE",
" v c #7F97CA",
" b c #EF6F6F",
" n c #FAFAFA",
" m c #F8F8F8",
" M c #000029",
" N c #F0ACAB",
" B c #F5BDBD",
" V c #FBFEFE",
" C c #F9FCFC",
" Z c #E22A2A",
" A c #F7FAFA",
" S c #F3B2B1",
" D c #F5F8F8",
" F c #E73B3C",
" G c #7791C5",
" H c #000057",
" J c #FCD4D4",
" K c #E94141",
" L c #94A9D4",
" P c #F2B4B3",
" I c #D3413F",
" U c #BB0000",
" Y c #F7BCBB",
" T c #829ACC",
" R c #000071",
" E c #E12525",
" W c #00005D",
" Q c #F4BCBB",
" ! c #F17273",
" ~ c #DD0000",
" ^ c #FBFDFD",
" / c #F7F9F9",
" ( c #F5F7F7",
" ) c #F1AFAE",
" _ c #F7C2C1",
" ` c #EA4B4B",
" ' c #F17676",
" ] c #FAC8C7",
" [ c #000063",
" { c #627FB9",
" } c #EB4F4F",
" | c #E02020",
".  c #738EC3",
".. c #DDDFDF",
".X c #ECA2A2",
".o c #00003B",
".O c #E53535",
".+ c #5B79B5",
".@ c #6F8AC2",
".# c #00007D",
".$ c #E94646",
".% c #FBFCFC",
".& c #F9FAFA",
".* c #F5F6F6",
".= c #F3F4F4",
".- c #8BA2D0",
".; c #000055",
".: c #F1F2F2",
".> c #89A0CE",
"., c #F6BFBF",
".< c #E94A49",
".1 c #00198D",
".2 c #DD1919",
".3 c #F4B4B3",
".4 c #6582BB",
".5 c #E01F1F",
".6 c #859ECD",
".7 c #E43030",
".8 c #F3B6B5",
".9 c #FBCBCA",
".0 c #FAC9C9",
".q c #E23B3B",
".w c #00005B",
".e c #EEA7A6",
".r c #DF0000",
".t c #DC1414",
".y c #F9F9F9",
".u c #E33F3F",
".i c #F7F7F7",
".p c #B70000",
".a c #F1F1F1",
".s c #00017F",
".d c #FCFFFF",
".f c #000075",
".g c #FAFDFD",
".h c #E32B2B",
".j c #F8FBFB",
".k c #F6F9F9",
".l c #7A94C8",
".z c #000061",
".x c #F8C4C3",
".c c #F3BEBE",
".v c #F9FFFF",
".b c #F5B7B6",
".n c #EBA09F",
".m c #E84040",
".M c #000F85",
".N c #000985",
".B c #EB4F50",
".V c #607DB8",
".C c #000025",
".Z c #F4B9B8",
".A c #7F97C9",
".S c #000067",
".D c #8FA4D2",
".F c #E02424",
".G c #EFAAA9",
".H c #FCFEFE",
".J c #00003F",
".K c #6984BD",
".L c None",
/* pixels */
".M.N.N.N r.s.# p.f R +.S [ W H.;",
".1 @ L j ;.D.-.> i T v.l e. .@ H",
".v.d.H.H V ^.g C.j A.k D ( o ( h",
" 9 J.9.0 ] w.x _., B Q.Z.8 P.c ,",
" & ' 3 =.B `.$ K F >.7.h E |.u U",
".r ! l } O.$.m   >.7.h E.5 0.q :",
" ~ b }.< 1 g ..O s Z.F $.2.t u.p",
" f k Y d.b.3 S ) N.G.e a.X.n # I",
" /.% n.&.y m.i.* 5.= 6.:.a 7.:..",
" 2.6 *.A 4 G y x c.K.4 {.V <.+ X",
".S.z.w H z 8 %.J.o q - X M.C t.C"
};
