/* XPM */
const char *icon_famfamfam_flags_cs[] = {
/* width height ncolors chars_per_pixel */
"16 11 139 2",
/* colors */
"   c #6A6ABE",
" . c #000081",
" X c #7B7BC8",
" o c #00006D",
" O c #8888CE",
" + c #F26363",
" @ c #F50000",
" # c #7979C9",
" $ c #E10000",
" % c #FC6666",
" & c #5857B9",
" * c #F83434",
" = c #E5C9C9",
" - c #000087",
" ; c #E3C7C7",
" : c #FDE7E7",
" > c #4242AD",
" , c #F87C7C",
" < c #F4F5F5",
" 1 c #5353B7",
" 2 c #FA5D5D",
" 3 c #EF0000",
" 4 c #7A7AC6",
" 5 c #6160BE",
" 6 c #F98080",
" 7 c #6D6DC3",
" 8 c #000079",
" 9 c #F21313",
" 0 c #F95455",
" q c #FA8484",
" w c #6969C2",
" e c #E90000",
" r c #FCA0A0",
" t c #FB8888",
" y c #F95858",
" u c #FEFEFE",
" i c #FDFCFD",
" p c #FCFCFC",
" a c #FBFCFB",
" s c #FAFAFA",
" d c #F8F8F8",
" f c #F6F6F6",
" g c #6E6EC0",
" h c #F4F4F4",
" j c #5454B7",
" k c #F2F2F2",
" l c #5F5FBB",
" z c #7070C5",
" x c #F70000",
" c c #F72E2E",
" v c #4E4EB4",
" b c #E30000",
" n c #000043",
" m c #A4A4DA",
" M c #4C4CB2",
" N c #5959B8",
" B c #000085",
" V c #F22C2C",
" C c #3737A7",
" Z c #7777C8",
" A c #000071",
" S c #00005D",
" D c #F77879",
" F c #F10000",
" G c #8E8FD1",
" H c #F62929",
" J c #DD0000",
" K c #3131A4",
" L c #F23232",
" P c #4949AE",
" I c #5C5CBA",
" U c #000063",
" Y c #FB6162",
" T c #EB0000",
" R c #7272C2",
" E c #000091",
" W c #F26666",
" Q c #8181CA",
" ! c #00007D",
" ~ c #9090D2",
" ^ c #7474C7",
" / c #F36A6A",
" ( c #F90000",
" ) c #7D7DC9",
" _ c #F37777",
" ` c #E50000",
" ' c #F64242",
" ] c #F46E6E",
" [ c #F33535",
" { c #2C2CA1",
" } c #000083",
" | c #F74646",
".  c #7B7BCA",
".. c #FB2929",
".X c #FA3F3F",
".o c #F52323",
".O c #F43939",
".+ c #F30000",
".@ c #DF0000",
".# c #FDFDFD",
".$ c #F53D3D",
".% c #FBFBFB",
".& c #F10B0B",
".* c #F9F9F9",
".= c #E7CDCD",
".- c #F7F7F7",
".; c #F5F5F5",
".: c #000089",
".> c #F3F3F3",
"., c #5151B4",
".< c #FB8B8B",
".1 c #FDE9E9",
".2 c #000075",
".3 c #8B8BCF",
".4 c #F10F0E",
".5 c #F93A3A",
".6 c #F85050",
".7 c #000061",
".8 c #F41E1E",
".9 c #3D3CAA",
".0 c #00004D",
".q c #ED0000",
".w c #F57171",
".e c #7676C4",
".r c #5C5CBB",
".t c #8585CC",
".y c #7F7FC6",
".u c #F67575",
".i c #00007B",
".p c #3535AF",
".a c #4747B0",
".s c #000067",
".d c #F74B4B",
".f c #F31919",
".g c #F22F2F",
".h c #FA4444",
".j c #6565C0",
".k c #E70000",
".l c None",
/* pixels */
" E.:.:.: - } . ! 8.2 A o.s U S.7",
" B. .  # Z ^ z 7 w.j 5.r & 1 v.0",
" } X l I N j., M.a >.9 C K { P n",
".p m ~ G.3 O.t Q ) 4.e R g  .y.i",
".1 u u.# i p.% s.* d.- f.; h.;.=",
".1 u.# p p.% s.* d.- f.; h.> < =",
" :.# p a.% s.* d.- f.; h.> k h ;",
".. r.< t q 6 , D.u.w ] / W + _.@",
" ( %.h.X.5 * c H.o.8.f 9.4.&.g.@",
" x Y 2 y 0.6.d | '.$.O [ L.g V J",
" @.+ F 3.q.q T e.k ` b $.@ J J J"
};
