/* XPM */
const char *icon_famfamfam_flags_cv[] = {
/* width height ncolors chars_per_pixel */
"16 11 140 2",
/* colors */
"   c #3A8EF5",
" . c #004FFB",
" X c #77B2FC",
" o c #FCFBE0",
" O c #F0EA5D",
" + c #6BABFA",
" @ c #F1854E",
" # c #F4EF6E",
" $ c #F14B4B",
" % c #9CC3CA",
" & c #F8F27F",
" * c #98C1C6",
" = c #EA2D2D",
" - c #67A9F9",
" ; c #61A6FD",
" : c #3F91F6",
" > c #000FE7",
" , c #0009E7",
" < c #70AEFB",
" 1 c #0000DD",
" 2 c #69ABFE",
" 3 c #84BAFE",
" 4 c #F4F5F5",
" 5 c #0025ED",
" 6 c #001DED",
" 7 c #6CACFA",
" 8 c #4B97F4",
" 9 c #65A9FD",
" 0 c #4494F7",
" q c #E92828",
" w c #5FA3F7",
" e c #75B1FC",
" r c #0000E3",
" t c #FCF478",
" y c #7FB5DE",
" u c #96BEC3",
" i c #0039F3",
" p c #4192F7",
" a c #207DF1",
" s c #509AF5",
" d c #FEFEFE",
" f c #4997F8",
" g c #7EAFB5",
" h c #FCFCFC",
" j c #93BEC3",
" k c #FAFAFA",
" l c #85BBFE",
" z c #4491F3",
" x c #F8F8F8",
" c c #F6F6F6",
" v c #F4F4F4",
" b c #7AB4FD",
" n c #F2F2F2",
" m c #004BF9",
" M c #0049F9",
" N c #F04545",
" B c #2480F1",
" V c #F8996A",
" C c #9EC5CA",
" Z c #559DF6",
" A c #6EAFFE",
" S c #66A4D5",
" D c #0061FF",
" F c #CF0000",
" G c #F5EF70",
" H c #9EC5CD",
" J c #0005E5",
" K c #73B0FC",
" L c #6BADFE",
" P c #4A98F8",
" I c #2983F2",
" U c #3E91F6",
" Y c #5AA0F7",
" T c #6FAEFB",
" R c #4E99F5",
" E c #001DEB",
" W c #0017EB",
" Q c #78B0DC",
" ! c #4190F2",
" ~ c #0000E1",
" ^ c #4F9BF9",
" / c #9CC2C7",
" ( c #4394F7",
" ) c #0031F1",
" _ c #3E8EF2",
" ` c #88BDFF",
" ' c #EB3231",
" ] c #0045F7",
" [ c #F7F077",
" { c #63A6F8",
" } c #8EBABF",
" | c #5DA3FC",
".  c #F77B7B",
".. c #A1C7CB",
".X c #92BEC6",
".o c #005FFD",
".O c #005DFD",
".+ c #8FBAC3",
".@ c #005BFD",
".# c #81B9FE",
".$ c #0059FD",
".% c #0053FD",
".& c #68A9F9",
".* c #4794F3",
".= c #7EB7FE",
".- c #559FFA",
".; c #EF7E44",
".: c #348AF4",
".> c #6EA9D7",
"., c #FDFDFD",
".< c #FBFBFB",
".1 c #0015E9",
".2 c #85BCFE",
".3 c #F9F9F9",
".4 c #0011E9",
".5 c #F7F7F7",
".6 c #F5F5F5",
".7 c #F3F3F3",
".8 c #0000DF",
".9 c #67ABFE",
".0 c #4594F7",
".q c #E5E5E5",
".w c #4090F2",
".e c #398DF5",
".r c #002BEF",
".t c #DFDFDF",
".y c #0025EF",
".u c #ED0000",
".i c #4E9BF9",
".p c #2D86F3",
".a c #FBEE76",
".s c #57A0FB",
".d c #F6E65D",
".f c #EB4646",
".g c #003FF5",
".h c #F25050",
".j c #539EFA",
".k c #F35454",
".l c #83B9FE",
".z c None",
/* pixels */
" D D D D.o.@.$.% . M ].g i ).r.y",
" D ` `.2 3.#.= b X K T + - { w E",
" D ` A L 2 9 ; |.s.j ^ P.0 : Y.1",
" D l L.9 H C t *.X.i f 0 :   Z >",
".O.l.9.. & y.s Q G } ( U.e.: s ,",
"., d., o h.< k.3 x.5 c.6 v.7 4.q",
".u.  V.a.k.h $ N @.d.; ' = q.f F",
".< h.<.< k.3 x.5 c.6 v.7 n n.7.t",
" m e.- j #.> p S O g.p I B a !.8",
" ] < 7.& % / [ u.+ R 8.* z.w _ 1",
".g i ).r 5 6 W.4 , J r ~.8 1 1 1"
};
