/* XPM */
const char *icon_famfamfam_flags_cx[] = {
/* width height ncolors chars_per_pixel */
"16 11 168 2",
/* colors */
"   c #3535C9",
" . c #4B4DCE",
" X c #59D05D",
" o c #000081",
" O c #00006D",
" + c #B0B0E8",
" @ c #79DD79",
" # c #77DD77",
" $ c #7979DD",
" % c #4949CF",
" & c #74DB74",
" * c #7677DA",
" = c #0000AF",
" - c #6DD96D",
" ; c #6A6AD8",
" : c #3A3ACA",
" > c #00009B",
" , c #5F5FD7",
" < c #5CD35C",
" 1 c #CAED44",
" 2 c #54D354",
" 3 c #51D151",
" 4 c #4ECD4E",
" 5 c #6666D7",
" 6 c #EAF835",
" 7 c #3434C7",
" 8 c #42CB42",
" 9 c #0000B5",
" 0 c #0000A1",
" q c #3939C5",
" w c #30C530",
" e c #00008D",
" r c #2FC12F",
" t c #2BC32B",
" y c #2CB636",
" u c #25C125",
" i c #24C124",
" p c #51B76B",
" a c #8BDB19",
" s c #61D460",
" d c #D3EE4C",
" f c #14BB14",
" g c #5C91A1",
" h c #A3E641",
" j c #58D257",
" k c #10B910",
" l c #8EDD1F",
" z c #0000A7",
" x c #0BB70B",
" c c #C7EF36",
" v c #504FD1",
" b c #000093",
" n c #4B4BCC",
" m c #00AF00",
" M c #00AD00",
" N c #00AB00",
" B c #00A700",
" V c #00A500",
" C c #00A300",
" Z c #00A100",
" A c #009D00",
" S c #009B00",
" D c #009700",
" F c #37C836",
" G c #009300",
" H c #008F00",
" J c #1F4A93",
" K c #008B00",
" L c #7B7BDD",
" P c #008500",
" I c #6161D4",
" U c #008100",
" Y c #007700",
" T c #007300",
" R c #828287",
" E c #006F00",
" W c #006B00",
" Q c #8484DF",
" ! c #006900",
" ~ c #006500",
" ^ c #C5EE30",
" / c #000085",
" ( c #4040D1",
" ) c #9FE53C",
" _ c #7DD300",
" ` c #3232C3",
" ' c #0000B3",
" ] c #5959D2",
" [ c #3D3DC7",
" { c #ECF942",
" } c #000100",
" | c #5859D4",
".  c #000077",
".. c #E1E1F7",
".X c #2AC32B",
".o c #2929CA",
".O c #C0EA20",
".+ c #131DB1",
".@ c #4242C8",
".# c #E8E8F7",
".$ c #D6F32F",
".% c #5555D4",
".& c #69D869",
".* c #0000A5",
".= c #8BDB1A",
".- c #5353D2",
".; c #65D665",
".: c #5151D0",
".> c #CBEA2E",
"., c #87877D",
".< c #00175F",
".1 c #4CD04C",
".2 c #000069",
".3 c #4BD04B",
".4 c #49CC49",
".5 c #47CE47",
".6 c #7EE13B",
".7 c #42CC42",
".8 c #1819BC",
".9 c #3DCA3D",
".0 c #3CCA3C",
".q c #0000AB",
".w c #3BC63B",
".e c #000041",
".r c #37C837",
".t c #5454CF",
".y c #2424C1",
".u c #36C436",
".i c #000097",
".p c #31C631",
".a c #6363D7",
".s c #19AC2A",
".d c #4949CE",
".f c #3A3AC9",
".g c #5050CE",
".h c #C5EE31",
".j c #1E1EBE",
".k c #4646D8",
".l c #0000B1",
".z c #5050D1",
".x c #000089",
".c c #9EE13F",
".v c #7BC397",
".b c #DFDFF3",
".n c #33C332",
".m c #7B85D3",
".M c #95E02C",
".N c #C3ED2B",
".B c #2F5D92",
".V c #4646CA",
".C c #3ECA36",
".Z c #00008F",
".A c #3535C3",
".S c #7676DB",
".D c #2E2EC6",
".F c #70DA71",
".G c #00007B",
".H c #0F7D4A",
".J c #5467C0",
".K c #A9E753",
".L c #A9A9E5",
".P c #C2EC26",
".I c #5C5CD5",
".U c #4242CC",
".Y c #D3DE4E",
".T c #2323C8",
".R c #E2E2F5",
".E c None",
/* pixels */
".< C m m m M N B V Z A S D G H K",
" =.m.v @ # &.F -.&.; s < j.K 4 P",
" 9 L , g X 2 3.1.5.7.9.r.p.M.4 U",
" 9 $.I |.J p.3.5 8.0 F.h.N.P 1 _",
" '.S...a v . d h ) c w t u.O.c Y",
".l Q.-.%.R.k {.6.C ^.X u l.=.w T",
".l.#.z ].: (.Y 6.$.> i l a f.u E",
".q ; % +.L :   R.,.y J.s f k.n W",
" z 5.d.U.f 7.D.o.T.j.8.+.H x r !",
" 0 I *.b.t.g n.V.@ [ q.A `.B y ~",
".* >.i b.Z e.x / o.G.  O.2.2.e }"
};
