/* XPM */
const char *icon_famfamfam_flags_cy[] = {
/* width height ncolors chars_per_pixel */
"16 11 78 1",
/* colors */
"  c #F7D678",
". c #F8D547",
"X c #FBDF8C",
"o c #F9F2D6",
"O c #FBDD64",
"+ c #FDFDFE",
"@ c #FDF3D3",
"# c #F4F5F5",
"$ c #F8D97B",
"% c #9AD09F",
"& c #FDF1C5",
"* c #F6F6F3",
"= c #F7E594",
"- c #A5D8AD",
"; c #FACD41",
": c #FEFEFE",
"> c #FCFCFC",
", c #FBFCFB",
"< c #FAFAFA",
"1 c #F8F8F8",
"2 c #F6F6F6",
"3 c #F4F4F4",
"4 c #F2F2F2",
"5 c #F7E397",
"6 c #E1ECE1",
"7 c #FCDA6A",
"8 c #FCF7E4",
"9 c #FDFDFC",
"0 c #9ED5A5",
"q c #BBDFB1",
"w c #FAF8EF",
"e c #CEE4C0",
"r c #EFEFF1",
"t c #87C991",
"y c #F8F1D5",
"u c #F8FAF9",
"i c #F2F2F3",
"p c #8DCC96",
"a c #F8D95A",
"s c #F6F5F0",
"d c #FBD456",
"f c #A6D7AE",
"g c #FFFFFF",
"h c #FDFDFD",
"j c #FBFBFB",
"k c #F9F9F9",
"l c #F7F9F7",
"z c #FCFAF2",
"x c #F7F7F7",
"c c #F5F5F5",
"v c #F3F3F3",
"b c #F1F1F1",
"n c #EFEFEF",
"m c #EDEDED",
"M c #EBEBEB",
"N c #E9E9E9",
"B c #E7E7E7",
"V c #E5E5E5",
"C c #DFEDDF",
"Z c #E3E3E3",
"A c #E1E3E1",
"S c #E1E1E1",
"D c #DFDFDF",
"F c #7AC182",
"G c #DDDDDD",
"H c #DBDBDB",
"J c #D9D9D9",
"K c #D7D7D7",
"L c #D5D5D5",
"P c #D3D3D3",
"I c #D1D1D1",
"U c #CFCFCF",
"Y c #FAD340",
"T c #F9D33F",
"R c #F8F8F7",
"E c #EAE6A7",
"W c #F9CD42",
"Q c None",
/* pixels */
"bbbbbrnmmMNBVZSD",
"cgg:::+h>>j<k1xD",
"cg:::hh>j<kRx2xG",
"c:::9@8Xwo$ *c2H",
"c::h&7d;W.5sc3cK",
"v:h>zOYTa=2c3v#L",
"bh>,uqEye-c3v43P",
"b>jjl0tfFp3v44vP",
"n><<k1C%63v4bb4U",
"mj<kk1xx2c3vi44U",
"MNBVADGHJKLPIUUU"
};
