/* XPM */
const char *icon_famfamfam_flags_de[] = {
/* width height ncolors chars_per_pixel */
"16 11 160 2",
/* colors */
"   c #784C4B",
" . c #4C493A",
" X c #F44B4B",
" o c #653635",
" O c #CAB8AF",
" + c #969689",
" @ c #A5897A",
" # c #F2DE76",
" $ c #F96060",
" % c #9F7E7E",
" & c #9B7A7A",
" * c #F24242",
" = c #A37E2F",
" - c #EC2425",
" ; c #EB2424",
" : c #F3E07A",
" > c #FCD5A4",
" , c #FC7373",
" < c #F7E78B",
" 1 c #AA7F2F",
" 2 c #F4E053",
" 3 c #F44A4A",
" 4 c #757575",
" 5 c #7E5353",
" 6 c #6F6F6F",
" 7 c #F5E482",
" 8 c #896161",
" 9 c #4C4A3C",
" 0 c #835B5B",
" q c #8D8D7F",
" w c #F95F5F",
" e c #93732F",
" r c #AE8E2F",
" t c #F29D47",
" y c #F5E25A",
" u c #FB6E6E",
" i c #5B5B5B",
" p c #F65252",
" a c #4D4D4D",
" s c #A1792F",
" d c #454545",
" f c #4C4738",
" g c #F44949",
" h c #F0B66C",
" j c #F0DC6F",
" k c #F85A5A",
" l c #BABAB1",
" z c #EDD737",
" x c #B8B8AF",
" c c #B6B6AD",
" v c #F13C3C",
" b c #FAED9D",
" n c #B0B0A7",
" m c #EA1E1E",
" M c #9A9A8E",
" N c #8E6868",
" B c #FB6D6D",
" V c #977474",
" C c #F65151",
" Z c #FCB2A9",
" A c #F5A556",
" S c #EF3333",
" D c #F34444",
" F c #F5E587",
" G c #3F3F31",
" H c #AC7F2F",
" J c #FAB26B",
" K c #B3882F",
" L c #A98D2F",
" P c #828383",
" I c #EE2C2B",
" U c #F19941",
" Y c #FA6868",
" T c #F13B3B",
" R c #F4E27F",
" E c #B3B3A9",
" W c #FCAFA5",
" Q c #ADADA3",
" ! c #714544",
" ~ c #BD3F2F",
" ^ c #919184",
" / c #F2DD4B",
" ( c #A93F2F",
" ) c #936F6F",
" _ c #F9EB94",
" ` c #EF3232",
" ' c #F27F70",
" ] c #F34343",
" [ c #EFDA69",
" { c #EB8B2A",
" } c #66493C",
" | c #B7792F",
".  c #A3852F",
".. c #FDB5AC",
".X c #F65253",
".o c #E8821D",
".O c #46463A",
".+ c #B4852F",
".@ c #F7AA5D",
".# c #7E7E7E",
".$ c #4C4C43",
".% c #A07F2F",
".& c #7A7A7A",
".* c #F9EB9A",
".= c #EE2D2D",
".- c #F17C6B",
".; c #AAAA9F",
".: c #A6A69B",
".> c #A2A297",
"., c #696869",
".< c #9D792F",
".1 c #F9E668",
".2 c #626262",
".3 c #EFD93D",
".4 c #E6CD1D",
".5 c #FB6D6E",
".6 c #3F3F2F",
".7 c #FBF1A2",
".8 c #EBD42F",
".9 c #49493C",
".0 c #47473A",
".q c #F03335",
".w c #545454",
".e c #9D3F2F",
".r c #E8CF22",
".t c #EFDB6B",
".y c #BE4435",
".u c #AB852F",
".i c #FA6666",
".p c #A1762F",
".a c #F38476",
".s c #F4A24F",
".d c #F1DB45",
".f c #EE9032",
".g c #404136",
".h c #F75959",
".j c #EE2C2C",
".k c #EA8724",
".l c #9E7C2F",
".z c #FD7979",
".x c #E9D129",
".c c #9E9D92",
".v c #F1DD73",
".b c #F8E991",
".n c #F9AF64",
".m c #B6A72F",
".M c #B6A12F",
".N c #BC3F2F",
".B c #9B842F",
".V c #EF9439",
".C c #A83F2F",
".Z c #F96161",
".A c #B68B2F",
".S c #A53F2F",
".D c #EFE06D",
".F c #F7E461",
".G c #3E3D3D",
".H c #A9822F",
".J c #6C3C3C",
".K c None",
/* pixels */
".$ . f 9.O.g G.6.6.6.6.6.6.6.6.6",
".0 l l x c E n Q.;.:.>.c M + ^.6",
".9 l P.#.& 4 6.,.2 i.w a d.G q.6",
" } O % & V ) N 8 0 5   !.J o @.6",
".y...z , u Y.Z k.X X D v.q.=.a (",
" ~ Z ,.5.i $.h p 3 ] v S.j - '.C",
".N W B.i w.h C g * T ` I ; m.-.S",
" | > J.n.@ A.s t U.V.f {.k.o h.e",
".m.7.1.F y 2 /.d.3 z.8.x.r.4.D.B",
".M b.* _.b < F 7 R : #.v j.t [.<",
" r.A.+ K H 1 L.u.H. .%.l =.p s e"
};
