/* XPM */
const char *icon_famfamfam_flags_dj[] = {
/* width height ncolors chars_per_pixel */
"16 11 154 2",
/* colors */
"   c #61A9C2",
" . c #88AEF9",
" X c #A7C3FD",
" o c #8DDF8D",
" O c #1961EF",
" + c #93B7FD",
" @ c #4B87FF",
" # c #0045E7",
" $ c #0039E7",
" % c #8CAFF6",
" & c #FEB7B7",
" * c #82A2F6",
" = c #69AEC6",
" - c #80A8F7",
" ; c #50D750",
" : c #4BD54B",
" > c #135DEF",
" , c #46D346",
" < c #4381FD",
" 1 c #39CF39",
" 2 c #36D136",
" 3 c #9BBBFA",
" 4 c #34CF34",
" 5 c #35CD35",
" 6 c #FECACA",
" 7 c #2ECF2E",
" 8 c #2FCB2F",
" 9 c #AFC9FD",
" 0 c #2AD12A",
" q c #2ACD2A",
" w c #29CD29",
" e c #276DF5",
" r c #5DA6C0",
" t c #24CF24",
" y c #A4C2FC",
" u c #24CB24",
" i c #23CB23",
" p c #1FCD1F",
" a c #6DB1C9",
" s c #1FC91F",
" d c #1EC91E",
" f c #19CB19",
" g c #96B7F8",
" h c #48D644",
" j c #A1C0FC",
" k c #81A9F7",
" l c #FEFEFE",
" z c #FDFCFD",
" x c #FCFCFC",
" c c #7F9FF5",
" v c #FAFAFA",
" b c #95B3FA",
" n c #F9FAF9",
" m c #8CB2FB",
" M c #00B500",
" N c #FDF3F3",
" B c #8BB0FA",
" V c #FBF1F1",
" C c #00A700",
" Z c #00A500",
" A c #00A300",
" S c #009F00",
" D c #009D00",
" F c #009900",
" G c #95B7FD",
" H c #95E796",
" J c #D6E4FE",
" K c #009300",
" L c #33CC32",
" P c #009100",
" I c #4B87FD",
" U c #008F00",
" Y c #008B00",
" T c #DDF4DD",
" R c #008900",
" E c #008700",
" W c #008300",
" Q c #008100",
" ! c #8DA9F5",
" ~ c #0FC40E",
" ^ c #5B93FF",
" / c #B7ECB7",
" ( c #004DEB",
" ) c #FEFDFD",
" _ c #004981",
" ` c #93B4F7",
" ' c #ABEAAB",
" ] c #4583FD",
" [ c #EAF1FD",
" { c #7EA6F6",
" } c #71B3CB",
" | c #86A5F7",
".  c #FD6E6E",
".. c #99B9F9",
".X c #7AA2F5",
".o c #FCB2B2",
".O c #92B6FC",
".+ c #74DE74",
".@ c #3F7DFD",
".# c #84ABF8",
".$ c #18C719",
".% c #C8DAFF",
".& c #58D858",
".* c #2167F3",
".= c #4BD64B",
".- c #8CB2FC",
".; c #A9C5FE",
".: c #42D242",
".> c #3DD03D",
"., c #7CA5F6",
".< c #3575F9",
".1 c #34CE34",
".2 c #2FD22F",
".3 c #32CC32",
".4 c #2FCE2F",
".5 c #2FCA2F",
".6 c #2CCA2C",
".7 c #1963F1",
".8 c #004BE9",
".9 c #19C819",
".0 c #14CA14",
".q c #8FB3FB",
".w c #14C614",
".e c #13C613",
".r c #10C410",
".t c #74B3C9",
".y c #0BC20B",
".u c #FFFFFF",
".i c #FDFDFD",
".p c #FBFBFB",
".a c #65ACC4",
".s c #F9F9F9",
".d c #2D71F7",
".f c #F7F7F7",
".g c #8BB1FA",
".h c #A0BFFE",
".j c #E9F7E9",
".k c #7B9CF4",
".l c #8FB2F7",
".z c #4381FF",
".x c #C9DAFB",
".c c #C3D7FF",
".v c #FCA9A9",
".b c #FDFCFC",
".n c #BFE3D6",
".m c #ABC7FE",
".M c #8BAAF9",
".N c #8AA8F8",
".B c #54D855",
".V c #3979FB",
".C c #9EBEFB",
".Z c #FAFAFC",
".A c #F3F7FF",
".S c None",
/* pixels */
".c ^.z @ I ] <.@.V.<.d e.*.7 > O",
".u.A.%.m.m.m.; X y j.C 3.. g ` (",
".u.u l J.h + G.O.q.g ..# k {.l.8",
".u l l l [ 9.- m B ..# -.,.X % #",
".i ) & N z.Z.x b.M.N | * c.k ! $",
".i 6. .v x.p v.n } a =.a   r.t _",
".i.b.o V.p n ' h.2 0 t p f.0 2 K",
".p x.p.p T.+ 4.4 q u s.9.w.r L E",
".s x v /.=.1 7 w i d.$.e ~.y 8 E",
".f.j H.&.B ; : ,.:.> 1 5.3.5.6 Q",
" o M Z C A S D F K P U Y E E W R"
};
