/* XPM */
const char *icon_famfamfam_flags_dm[] = {
/* width height ncolors chars_per_pixel */
"16 11 148 2",
/* colors */
"   c #000000",
" . c #AF8342",
" X c #83CD83",
" o c #80CD80",
" O c #7C7B76",
" + c #7FCB7F",
" @ c #EA6B30",
" # c #EF662B",
" $ c #73736D",
" % c #F16C44",
" & c #589EDD",
" * c #6FC36F",
" = c #6AC16A",
" - c #66C166",
" ; c #66BF66",
" : c #65BF65",
" > c #62BF62",
" , c #F47340",
" < c #5EBB5E",
" 1 c #5CBB5C",
" 2 c #189A19",
" 3 c #5AB95A",
" 4 c #58B958",
" 5 c #54B954",
" 6 c #4FB34F",
" 7 c #E86E55",
" 8 c #4AB34A",
" 9 c #F88854",
" 0 c #F5E457",
" q c #45B145",
" w c #3CD553",
" e c #DD621F",
" r c #3DA93D",
" t c #3BA93B",
" y c #38A738",
" u c #74B327",
" i c #F36F31",
" p c #F4E13B",
" a c #219F21",
" s c #E7BB00",
" d c #F68362",
" f c #A97B37",
" g c #FCFCFC",
" h c #5F5E58",
" j c #FBFCFB",
" k c #EA824C",
" l c #F4F4F4",
" z c #BA9258",
" x c #F2F2F2",
" c c #4BB44A",
" v c #45AE44",
" b c #91B42F",
" n c #008900",
" m c #76B83C",
" M c #008700",
" N c #474640",
" B c #008300",
" V c #008100",
" C c #007B00",
" Z c #007700",
" A c #007100",
" S c #006D00",
" D c #60BD5B",
" F c #006700",
" G c #006300",
" H c #005D00",
" J c #005700",
" K c #005100",
" L c #004D00",
" P c #004B00",
" I c #99BA3D",
" U c #F78462",
" Y c #004500",
" T c #72B427",
" R c #003900",
" E c #003300",
" W c #003100",
" Q c #002F00",
" ! c #002D00",
" ~ c #002900",
" ^ c #68C369",
" / c #65C166",
" ( c #E87053",
" ) c #9F6D22",
" _ c #E05634",
" ` c #4E4D46",
" ' c #FDED6A",
" ] c #F5E241",
" [ c #F16D2A",
" { c #FDE100",
" } c #FDDB00",
" | c #E77337",
".  c #7BCA7B",
".. c #E9BF00",
".X c #2E2D26",
".o c #73C673",
".O c #282720",
".+ c #FDEC66",
".@ c #6AC26A",
".# c #62BE62",
".$ c #5EBE5E",
".% c #F37735",
".& c #5A5A54",
".* c #7FCD50",
".= c #55B655",
".- c #53B653",
".; c #4FB64F",
".: c #4EB64E",
".> c #E0FA4C",
"., c #FEEE6D",
".< c #42B042",
".1 c #40AE40",
".2 c #40AC40",
".3 c #3DAE3D",
".4 c #B08545",
".5 c #3EAA3E",
".6 c #3AA83A",
".7 c #38AA38",
".8 c #37AA37",
".9 c #32A832",
".0 c #97CB46",
".q c #51CF39",
".w c #FEF287",
".e c #F7E134",
".r c #61BD60",
".t c #AB7E39",
".y c #1D9C1D",
".u c #1C9C1C",
".i c #FDFDFD",
".p c #E05632",
".a c #FBFBFB",
".s c #F9F9F9",
".d c #F5F5F5",
".f c #F3F3F3",
".g c #56554F",
".h c #FDEF7F",
".j c #E5E5E5",
".k c #E3E3E3",
".l c #F16B42",
".z c #E47135",
".x c #79C87A",
".c c #F7E65E",
".v c #57C02A",
".b c #36A3E4",
".n c #F98953",
".m c #42A8E9",
".M c #F37136",
".N c None",
/* pixels */
" n n n n M B V }  .s A S F G H J",
" n X X o +. .x.h $ g = :.r 1 4 K",
" n X ^ - >.$ z 9 7 d.4.<.3.7.- P",
" M o / >.$ z k.*.m D |.t.8.9 6 Y",
" {.w., '.+.n.0.> w.b m.M ] p 0 s",
"   O h.&.g ( , &.q @ # _.X.O N  ",
".i.i g j.a U I.%.e.v u %.f x l.k",
" C.o 5.; c ..z b [ T e ) a.y.5 W",
" Z *.: 8 q.1 f i.p.l ) a.u 2 t !",
" A.@ ;.# < 3.=.c `.d v.2 r.6 y ~",
" S F G H J K L..  .j R E Q ! ~ ~"
};
