/* XPM */
const char *icon_famfamfam_flags_do[] = {
/* width height ncolors chars_per_pixel */
"16 11 142 2",
/* colors */
"   c #F5F6F7",
" . c #BF0000",
" X c #758ACC",
" o c #EE6666",
" O c #E42E2E",
" + c #E83F3F",
" @ c #FCF7F7",
" # c #EF6A6A",
" $ c #000059",
" % c #5D75BE",
" & c #EC5D5D",
" * c #F4F8FC",
" = c #E22525",
" - c #EDF2F5",
" ; c #F6ECEA",
" : c #556DB9",
" > c #3A57AF",
" , c #93A3D8",
" < c #788DCE",
" 1 c #00005F",
" 2 c #E73A3A",
" 3 c #F4F5F5",
" 4 c #EE6565",
" 5 c #DB0000",
" 6 c #EB5858",
" 7 c #8FA1D7",
" 8 c #6078C0",
" 9 c #EC4F4F",
" 0 c #E12020",
" q c #7287CB",
" w c #435EB4",
" e c #E53131",
" r c #EC5C5C",
" t c #516BBB",
" y c #E94242",
" u c #7E92D0",
" i c #001D9D",
" p c #EFF3F6",
" a c #E73736",
" s c #ED6060",
" d c #6D83C9",
" f c #3E5AB2",
" g c #FEFEFE",
" h c #FCFCFC",
" j c #0329A3",
" k c #D50000",
" l c #FAFAFA",
" z c #94A4D8",
" x c #F8F8F8",
" c c #F6F6F6",
" v c #F4F4F4",
" b c #E42C2C",
" n c #EB5757",
" m c #0027A3",
" M c #FBF5F4",
" N c #445FB4",
" B c #E53030",
" V c #CF0000",
" C c #EDF3FD",
" Z c #BB0000",
" A c #E63434",
" S c #3F5BB2",
" D c #EA4545",
" F c #95A5D8",
" G c #7B8FCF",
" H c #E43F3F",
" J c #00005D",
" K c #E85050",
" L c #ED6162",
" P c #EB4949",
" I c #566FBB",
" U c #546DB9",
" Y c #DD0000",
" T c #E9D5D1",
" R c #E42B2B",
" E c #C90000",
" W c #EA5455",
" Q c #E83C3C",
" ! c #91A1D7",
" ~ c #FAF4F2",
" ^ c #4762B6",
" / c #000063",
" ( c #F8F4F3",
" ) c #8B9DD4",
" _ c #7187CB",
" ` c #E74B4B",
" ' c #EA4444",
" ] c #D70000",
" [ c #C30000",
" { c #E73737",
" } c #F7EDEB",
" | c #93A4D8",
".  c #0025A1",
".. c #0023A1",
".X c #E95353",
".o c #E73B3A",
".O c #4863B6",
".+ c #000055",
".@ c #516AB8",
".# c #D10000",
".$ c #3654AE",
".% c #F6F8FA",
".& c #435FB4",
".* c #7186CA",
".= c #E84E4E",
".- c #E73636",
".; c #D9DFE7",
".: c #586FBB",
".> c #FDFDFD",
"., c #3B57AF",
".< c #FBFBFB",
".1 c #94A5D8",
".2 c #F9F9F9",
".3 c #CB0000",
".4 c #798DCE",
".5 c #F7F7F7",
".6 c #F5F5F5",
".7 c #F3F3F3",
".8 c #F7EEED",
".9 c #E32B2B",
".0 c #E83C3D",
".q c #E5E5E5",
".w c #8F9FD6",
".e c #E74949",
".r c #D90000",
".t c #E84040",
".y c #F7F9FD",
".u c #C50000",
".i c #F9F6F5",
".p c #FBEFED",
".a c #5B72BD",
".s c #5A72BC",
".d c #F06F6F",
".f c #4D67B9",
".g c #E22626",
".h c #F2F7FB",
".j c #001F9F",
".k c #000053",
".l c #EB4A49",
".z c #697FC7",
".x c #E64444",
".c c None",
/* pixels */
" j j j j. .j i C.p.r ] k.# V.3 E",
" j F.1 | !.w ).y @ 4 s r n.X.=.u",
" j z u G.4 X q * M y.0 { e b.e [",
" m , G < X _ d.h ~ Q a e R.g.x .",
".. 7 < X.* d.z.%.i.- B.9 = 0 H Z",
".> g.> h h.< l.2 x.5 c.6 v.7 3.q",
" Y.d 9.l D.t.o (   t.f.O N S.a J",
" 5 # P D + 2 A } p.f.O.& S.,.: $",
".r o ' + 2 A O ; - ^ w f >.$ :.+",
" ] L & 6 W K `.8 p 8 %.s I U.@.k",
" k.# V.3 E.u [ T.; / 1 J $.+.k.k"
};
