/* XPM */
const char *icon_famfamfam_flags_dz[] = {
/* width height ncolors chars_per_pixel */
"16 11 137 2",
/* colors */
"   c #559574",
" . c #79AE94",
" X c #74AA8F",
" o c #F5FCFA",
" O c #F3D7D7",
" + c #4C916E",
" @ c #8BB9A2",
" # c #87B59E",
" $ c #E8CFCC",
" % c #117141",
" & c #0D6F3D",
" * c #68A486",
" = c #DF5550",
" - c #3E8560",
" ; c #096B39",
" : c #629E80",
" > c #F4E8E8",
" , c #4EA280",
" < c #E57066",
" 1 c #7DB197",
" 2 c #E67B74",
" 3 c #F5CBCB",
" 4 c #E0584D",
" 5 c #E0E3E1",
" 6 c #92BEA8",
" 7 c #8FBCA5",
" 8 c #EAD9D7",
" 9 c #73AB90",
" 0 c #6FA98C",
" q c #68A385",
" w c #FCFCFC",
" e c #458E69",
" r c #FAFAFA",
" t c #F8F8F8",
" y c #E67166",
" u c #F6F6F6",
" i c #F4F4F4",
" p c #F2F2F2",
" a c #F0F0F0",
" s c #62A182",
" d c #EEEEEE",
" f c #DB5144",
" g c #ECECEC",
" h c #669A7C",
" j c #E6E6E6",
" k c #004B11",
" l c #95BFAA",
" z c #94BFA9",
" x c #F1D3D3",
" c c #EDB9B8",
" v c #D8D8D8",
" b c #D6D6D6",
" n c #6EA68A",
" m c #005F2B",
" M c #116F3F",
" N c #D2D2D2",
" B c #6AA486",
" V c #D0D0D0",
" C c #CECECE",
" Z c #FCFBFB",
" A c #004F17",
" S c #003500",
" D c #85B59D",
" F c #002D00",
" G c #002300",
" H c #001B00",
" J c #619E80",
" K c #CE6E61",
" L c #001100",
" P c #000B00",
" I c #000500",
" U c #036737",
" Y c #75AB90",
" T c #5B9E7D",
" R c #8D9580",
" E c #004709",
" W c #F5F0F0",
" Q c #F1ECEC",
" ! c #8AB8A1",
" ~ c #8C9B82",
" ^ c #E15E52",
" / c #67A385",
" ( c #7FB299",
" ) c #21794D",
" _ c #7AAE94",
" ` c #BEC7C3",
" ' c #549775",
" ] c #539574",
" [ c #94BFAA",
" { c #DD554A",
" } c #8EBBA4",
" | c #6FA88C",
".  c #D65A50",
".. c #EBF4F2",
".X c #F9F9F9",
".o c #D17B6F",
".O c #F7F7F7",
".+ c #F5F5F5",
".@ c #0B6D3D",
".# c #F3F3F3",
".$ c #F1F1F1",
".% c #EFEFEF",
".& c #EDEDED",
".* c #F4EAEA",
".= c #036535",
".- c #EBEBEB",
".; c #016533",
".: c #85B9A1",
".> c #5B9A7B",
"., c #5A9A7A",
".< c #E5E5E5",
".1 c #E3E3E3",
".2 c #E1E1E1",
".3 c #DDDDDD",
".4 c #F3ECEC",
".5 c #DBDBDB",
".6 c #74AB90",
".7 c #D9D9D9",
".8 c #E78C84",
".9 c #DD776D",
".0 c #6FA78B",
".q c #6EA78A",
".w c #727056",
".e c #005721",
".r c #F2EEEE",
".t c #CBCBCB",
".y c #C9C9C9",
".u c #549C7A",
".i c #E3746C",
".p c #E77166",
".a c #69A788",
".s c #758569",
".d c #549170",
".f c #619F80",
".g c #E7908A",
".h c #B96D60",
".j c None",
/* pixels */
" ) % % %.@ U m.= 5 j j.<.1.2.3.5",
" & l [ 6 7 @ #.: o w Z r.X t.O.7",
" % z 1 . Y 0 B R x.4.$.% d.&.O v",
" M 6 ..6 | ~.9 y.g O Q.%.& g u b",
" ; } 9.0.a.o.p h 8.8.r.%.&.-.+ N",
".; !.q * s <.h , ^ 4 f.$ a g.# V",
" m D /.f T K =.d $ 2 W i.$.% p C",
".e ( J., '.s.  {.i 3.* p.$ a p.t",
" A _., ] + e -.w c > p.$ a.% a.t",
" E X n q :.>  .u...#.# p p a a.y",
" k S F G H L I P ` V V C.t.t.y.y"
};
