/* XPM */
const char *icon_famfamfam_flags_ec[] = {
/* width height ncolors chars_per_pixel */
"16 11 155 2",
/* colors */
"   c #E24D4D",
" . c #EC332C",
" X c #F5E262",
" o c #5589CA",
" O c #F7E47B",
" + c #DD3E3E",
" @ c #5983A6",
" # c #000045",
" $ c #E10000",
" % c #D82F2F",
" & c #DFB100",
" * c #F3DB59",
" = c #CD0000",
" - c #F35550",
" ; c #A50000",
" : c #F4DD5D",
" > c #658EAE",
" , c #4B81C6",
" < c #F5E175",
" 1 c #769BB8",
" 2 c #EDC500",
" 3 c #FBEB92",
" 4 c #2E6BBA",
" 5 c #EF0000",
" 6 c #F7D10D",
" 7 c #DB0000",
" 8 c #FAE77D",
" 9 c #F2DA54",
" 0 c #C70000",
" q c #FCED96",
" w c #F2504B",
" e c #F7635D",
" r c #467DC4",
" t c #F3DE6C",
" y c #6E95B3",
" u c #000065",
" i c #FCED99",
" p c #115389",
" a c #F9D715",
" s c #ED3832",
" d c #F4E070",
" f c #D42120",
" g c #E7BB00",
" h c #D50000",
" j c #C10000",
" k c #316EBC",
" l c #F6E16B",
" z c #DC3838",
" x c #002DA3",
" c c #FDEB75",
" v c #97B4CA",
" b c #608BAB",
" n c #FBE869",
" m c #FCEC95",
" M c #FDDF0B",
" N c #5D87A8",
" B c #7298B6",
" V c #F4DE62",
" C c #F8E787",
" Z c #FBE880",
" A c #81A3BE",
" S c #F3CF01",
" D c #CF0000",
" F c #FDEA71",
" G c #F9E577",
" H c #326FBC",
" J c #EFC900",
" K c #EFC700",
" L c #F24C46",
" P c #5A8CCC",
" I c #E04848",
" U c #DD0000",
" Y c #F8E683",
" T c #3C76BF",
" R c #F5DF62",
" E c #FEEC78",
" W c #F0433D",
" Q c #5588CA",
" ! c #F9D927",
" ~ c #3772BD",
" ^ c #F5DF4E",
" / c #D62A2A",
" ( c #FEF08F",
" ) c #E9BF00",
" _ c #F7D311",
" ` c #F9E88A",
" ' c #FCE983",
" ] c #D31D1D",
" [ c #D70000",
" { c #F6E152",
" } c #DF4343",
" | c #5084C8",
".  c #C30000",
".. c #F55A55",
".X c #5480A4",
".o c #0025A1",
".O c #F4DE49",
".+ c #D83F3F",
".@ c #F9D719",
".# c #F9D519",
".$ c #D52525",
".% c #2D6AB9",
".& c #447ABF",
".* c #E3B300",
".= c #D10000",
".- c #F6E279",
".; c #7CA4D8",
".: c #ED352F",
".> c #5185C8",
"., c #F1CB00",
".< c #FAE98D",
".1 c #417AC2",
".2 c #DA3333",
".3 c #F5D107",
".4 c #CB0000",
".5 c #4C81C6",
".6 c #FAE765",
".7 c #477DC1",
".8 c #F65F58",
".9 c #F7E26F",
".0 c #EBC100",
".q c #2967B7",
".w c #F8E45C",
".e c #6C93B0",
".r c #D90000",
".t c #3772BE",
".y c #FCE96D",
".u c #C50000",
".i c #F8E473",
".p c #FCED98",
".a c #E35252",
".s c #5F8FCE",
".d c #F9E660",
".f c #78A1D6",
".g c #F6DF67",
".h c #F5DF66",
".j c #F14742",
".k c #4179C1",
".l c #2463B5",
".z c #E97272",
".x c #6991B0",
".c c #F7E57F",
".v c #7DA0BD",
".b c #000067",
".n c #7A9EBA",
".m c #EE3C35",
".M c #F76762",
".N c #F9D517",
".B c #FBEA90",
".V c #E5B900",
".C c #F7E357",
".Z c #D30000",
".A c #FAE67B",
".S c #EF4039",
".D c None",
/* pixels */
" !.@.@.@.N _ 6.3 S., J K 2.0 ) )",
" a i i q m 3.B.< ` C Y.c O.- <.V",
".@.p ' Z 8.A G.i.9 l.g R : * d.*",
".# q Z 8.A G.i.9 l.h V : * 9 t &",
" M ( E c F.y n.6.d.w.C { ^.O X g",
" p v A.v.n 1 B y.x > b N @.X.e #",
" x.;.s P o.>.5 r.1 T.t H 4.q.7.b",
".o.f P Q | , r.k T ~ k.%.q.l.& u",
" D.z.a   I } + z.2 % /.$ f ].+ ;",
" 5.M e.8.. - w L.j W.S.m s.: ..=",
" $ U 7.r [ h.Z D =.4 0 0.u j j. "
};
