/* XPM */
const char *icon_famfamfam_flags_ee[] = {
/* width height ncolors chars_per_pixel */
"16 11 115 2",
/* colors */
"   c #000000",
" . c #0033B9",
" X c #5195DA",
" o c #4E93D7",
" O c #727273",
" + c #65A1DD",
" @ c #000DA5",
" # c #498FD5",
" $ c #0043BF",
" % c #0041BF",
" & c #00009B",
" * c #5396D8",
" = c #6F6F6F",
" - c #0021B1",
" ; c #7BB0E4",
" : c #599BDD",
" > c #589BDC",
" , c #6DA7E0",
" < c #535353",
" 1 c #3180D0",
" 2 c #504F50",
" 3 c #4F4F4F",
" 4 c #4B4B4B",
" 5 c #FCFCFC",
" 6 c #FAFAFA",
" 7 c #F8F8F8",
" 8 c #000093",
" 9 c #454545",
" 0 c #F6F6F6",
" q c #F4F4F4",
" w c #414141",
" e c #F2F2F2",
" r c #3F3F3F",
" t c #2C7CCE",
" y c #3B3B3B",
" u c #353535",
" i c #2F2F2F",
" p c #2B2B2B",
" a c #0005A3",
" s c #252525",
" d c #003BBD",
" f c #1F1F1F",
" g c #191919",
" h c #3D88D4",
" j c #3C88D3",
" k c #0013A9",
" l c #478FD7",
" z c #00009F",
" x c #5C9BDB",
" c c #74ABE2",
" v c #3784D1",
" b c #428BD5",
" n c #5C9DDE",
" m c #4C92D8",
" M c #002DB5",
" N c #448CD3",
" B c #F2F2F3",
" V c #767676",
" C c #2B7CCE",
" Z c #3B3B3C",
" A c #000097",
" S c #0037BB",
" D c #5898D9",
" F c #2A2B2B",
" G c #267ACC",
" H c #585858",
" J c #545454",
" K c #3181D0",
" L c #4B4A4B",
" P c #FBFBFB",
" I c #494A49",
" U c #F9F9F9",
" Y c #77ADE3",
" T c #464646",
" R c #F7F7F7",
" E c #5498DB",
" W c #F5F5F5",
" Q c #F3F3F3",
" ! c #404040",
" ~ c #F1F1F1",
" ^ c #69A4DF",
" / c #5F9FDF",
" ( c #363636",
" ) c #0019AD",
" _ c #E5E5E5",
" ` c #3784D2",
" ' c #E3E3E3",
" ] c #303030",
" [ c #E1E1E1",
" { c #DFDFDF",
" } c #2A2A2A",
" | c #DBDBDB",
".  c #D9D9D9",
".. c #D9D7D9",
".X c #D7D7D7",
".o c #242424",
".O c #D3D3D3",
".+ c #70A9E2",
".@ c #202020",
".# c #D1D1D1",
".$ c #CFCFCF",
".% c #4B92D8",
".& c #1A1A1A",
".* c #CBCBCB",
".= c #0027B3",
".- c #C9C9C9",
".; c #619EDD",
".: c #141414",
".> c #C5C5C5",
"., c #79AEE4",
".< c #C3C3C3",
".1 c #C1C1C1",
".2 c #BFBFBF",
".3 c #3B3B3A",
".4 c None",
/* pixels */
" $ $ $ $ % d S . M.= - ) k @ a z",
" $ ; ;., Y c.+ , ^ +.; x D * o &",
" $ ; / n : E X m l b h ` K t # A",
" %., n > E X.% l b j v 1 C G N 8",
"   V H J 2 4 T w Z ( ] p s.@ r  ",
"   O < 3 L T ! y ( ] F s f.& y  ",
"   = 3 I 9 !.3 u i }.o f g.: (  ",
" _ 5 P P 6 U 7 R 0 W q Q e e Q.<",
" ' 5 6 6 U 7 R 0 W q Q e ~ ~ e.1",
" [ P 6 U U 7 R R 0 W q Q B e e.2",
" { |. ...X.O.#.$.*.-.>.>.<.1.2.2"
};
