/* XPM */
const char *icon_famfamfam_flags_eg[] = {
/* width height ncolors chars_per_pixel */
"16 11 127 2",
/* colors */
"   c #000000",
" . c #ED4E4E",
" X c #707071",
" o c #6C6C6D",
" O c #F2E597",
" + c #F8A4A4",
" @ c #E10000",
" # c #EEDE89",
" $ c #8B8B8B",
" % c #0F0F0E",
" & c #545455",
" * c #E8D883",
" = c #F68E8E",
" - c #F26969",
" ; c #F15151",
" : c #F4F5F5",
" > c #DFCC66",
" , c #DB0000",
" < c #F48585",
" 1 c #F36D6D",
" 2 c #EB3737",
" 3 c #EFDD72",
" 4 c #636363",
" 5 c #5D5D5D",
" 6 c #ED5353",
" 7 c #EC6969",
" 8 c #F04C4C",
" 9 c #F17A7B",
" 0 c #E90000",
" q c #FEFEFE",
" w c #FDFCFD",
" e c #4B4B4B",
" r c #FCFCFC",
" t c #FBFCFB",
" y c #D50000",
" u c #EE5757",
" i c #FAFAFA",
" p c #ED6D6D",
" a c #F6F6F6",
" s c #F4F4F4",
" d c #F67979",
" f c #F2F2F2",
" g c #F35F5F",
" h c #3F3F3F",
" j c #3D3D3D",
" k c #EE7171",
" l c #393939",
" z c #F25454",
" x c #353535",
" c c #2F2F2F",
" v c #EF4747",
" b c #EF7575",
" n c #E30000",
" m c #292929",
" M c #F4E383",
" N c #CF0000",
" B c #232323",
" V c #F13535",
" C c #F57474",
" Z c #131313",
" A c #EC3C3D",
" S c #0B0B0B",
" D c #EB4949",
" F c #7B7B7C",
" G c #E9DA88",
" H c #A0A0A0",
" J c #F0DD74",
" K c #EB0000",
" L c #616162",
" P c #F25959",
" I c #E92C2C",
" U c #D70000",
" Y c #F2BB76",
" T c #888888",
" R c #DECB62",
" E c #F67777",
" W c #848484",
" Q c #808080",
" ! c #7A7A7A",
" ~ c #F77B7B",
" ^ c #F67B7A",
" / c #E50000",
" ( c #6A6A6A",
" ) c #EF7E80",
" _ c #ED7E7E",
" ` c #666666",
" ' c #F47071",
" ] c #F48888",
" [ c #585858",
" { c #F26565",
" } c #F1DE77",
" | c #505050",
".  c #F35C5C",
".. c #181919",
".X c #DF0000",
".o c #FDFDFD",
".O c #FBFBFB",
".+ c #464646",
".@ c #F7F7F7",
".# c #F2E07B",
".$ c #444444",
".% c #F5F5F5",
".& c #424242",
".* c #F3F3F3",
".= c #F69090",
".- c #E93131",
".; c #F05C5C",
".: c #ED4242",
".> c #3A3A3A",
"., c #E7E7E7",
".< c #F3E27F",
".1 c #343434",
".2 c #E5E5E5",
".3 c #323232",
".4 c #E3E3E3",
".5 c #2E2E2E",
".6 c #F16060",
".7 c #ED0000",
".8 c #2C2C2C",
".9 c #D90000",
".0 c #F7F8F3",
".q c #1E1E1E",
".w c #F58B8B",
".e c #FAFAF9",
".r c #E70000",
".t c #D30000",
".y c None",
/* pixels */
".7 K K K 0 0.r.r / n @.X ,.9.9 U",
" K ~ ~ d E C ' 1 - {.6.; u 6 ..t",
" K ^ g.  P z ; 8 v.: A 2.- I D N",
" V +.= =.w ] < ) Y 9 b k p 7 _ y",
".o q q.o w r.e O.#.0.@ a.% s.%.,",
".o q.o r r.O M # J } a.% s.* :.2",
".o.o r t.O i.< G * 3.% s.* f s.4",
" c H $ T W Q F > R X o ( ` 4 !  ",
"   `.$ h.>.1.5 m B.q.. Z % S c  ",
"   L 5 [ & | e.+.& j l x.3 c.8  ",
"                                "
};
