/* XPM */
const char *icon_famfamfam_flags_er[] = {
/* width height ncolors chars_per_pixel */
"16 11 167 2",
/* colors */
"   c #000000",
" . c #55A03F",
" X c #F16669",
" o c #F46762",
" O c #EF2F2F",
" + c #804A95",
" @ c #F6C142",
" # c #0000C3",
" $ c #F8C851",
" % c #F8C251",
" & c #577BE3",
" * c #F6D63B",
" = c #E10000",
" - c #688CED",
" ; c #6588EA",
" : c #C30900",
" > c #FB735B",
" , c #69C569",
" < c #3D6EE7",
" 1 c #5F3500",
" 2 c #F8CB4A",
" 3 c #E92F2F",
" 4 c #E72D2D",
" 5 c #EE2A2A",
" 6 c #F6907A",
" 7 c #0000C9",
" 8 c #F38F6D",
" 9 c #53B953",
" 0 c #F4AF46",
" q c #817E38",
" w c #4EB74E",
" e c #D8897A",
" r c #EF0000",
" t c #499B32",
" y c #44B344",
" u c #E73333",
" i c #5864CC",
" p c #8AB675",
" a c #2CA92C",
" s c #2BA92B",
" d c #616BCE",
" f c #875297",
" g c #0000BB",
" h c #597EE7",
" j c #61C060",
" k c #EC4648",
" l c #58BC57",
" z c #EF5F44",
" x c #FB7B7E",
" c c #F5474A",
" v c #DC352E",
" b c #F6C940",
" n c #0000D5",
" m c #009100",
" M c #008B00",
" N c #008900",
" B c #0000C1",
" V c #008500",
" C c #FBDD73",
" Z c #FACC51",
" A c #007F00",
" S c #5C7FE6",
" D c #007B00",
" F c #3C68E1",
" G c #007700",
" H c #007100",
" J c #006D00",
" K c #006900",
" L c #006300",
" P c #005F00",
" I c #FACB5E",
" U c #EF7857",
" Y c #005100",
" T c #FBD776",
" R c #004D00",
" E c #004900",
" W c #F7CD47",
" Q c #DF2F37",
" ! c #F5753F",
" ~ c #003F00",
" ^ c #F47634",
" / c #70C571",
" ( c #01009D",
" ) c #EF594D",
" _ c #6082E6",
" ` c #E83639",
" ' c #B1375C",
" ] c #FA7F5E",
" [ c #F29D42",
" { c #FAB54D",
" } c #B8613E",
" | c #F9D059",
".  c #346DEC",
".. c #F11A1A",
".X c #0B6B00",
".o c #AC72A9",
".O c #0000CD",
".+ c #0000B9",
".@ c #F13034",
".# c #6F76D3",
".$ c #6DC86D",
".% c #F33639",
".& c #97874E",
".* c #65C265",
".= c #0005DD",
".- c #B1A078",
".; c #5CBE5C",
".: c #C53C5E",
".> c #EC3B3F",
"., c #CA6852",
".< c #0000BF",
".1 c #F56162",
".2 c #EF4D45",
".3 c #F7C64C",
".4 c #E50000",
".5 c #49B449",
".6 c #E44844",
".7 c #42B442",
".8 c #DB272E",
".9 c #3DB43D",
".0 c #E63F3C",
".q c #F41F1F",
".w c #F6A155",
".e c #F57B7C",
".r c #37B037",
".t c #597DE4",
".y c #3964DF",
".u c #31AC31",
".i c #D34A4A",
".p c #3B73EE",
".a c #AA4F28",
".s c #EC2424",
".d c #26AA26",
".f c #0000C5",
".g c #5479E2",
".h c #DF0000",
".j c #7E8ADD",
".k c #4673E8",
".l c #6E7021",
".z c #EC5D37",
".x c #F59C50",
".c c #FAD86F",
".v c #ED5F63",
".b c #000DD5",
".n c #EF773D",
".m c #F7BD4B",
".M c #D3647E",
".N c #F16B56",
".B c #550041",
".V c #B93E61",
".C c #B10000",
".Z c #567AE3",
".A c #F6C046",
".S c #965694",
".D c #EB2525",
".F c #6285E8",
".G c #F27E7E",
".H c #3C6BE7",
".J c #0000BD",
".K c #F4B93A",
".L c #F9C156",
".P c #F59059",
".I c #54AF48",
".U c #E70000",
".Y c #6D8EEC",
".T c #F7753A",
".R c None",
/* pixels */
" : 1.X N m M V A D G H J K L P P",
" r x.G e.- p /.$ ,.* j.; l 9 w Y",
".U.e o ] > U.,.&.I.7.9.r.u a.5 R",
".U 6 I |.L Z { c.6 } q t s.d y E",
".4 T.P.w $ ) W z.>.%.@ v.a.l . ~",
".U C.N %.3 k @.n ` u 4.D.q...i  ",
".4.c.x.m.A [ *.z 3 5.s.8 ' +.# 7",
" = 8 2 0 b.K ^ O Q.V f i <.  h B",
".h X.2 !.T.0.:.S d.k.p.H F.y &.J",
".4.1.v.M.o.j.Y - ;.F _ S.t.Z.g.+",
".C.B (.b.= n.O 7.f # B.<.J g.+.+"
};
