/* XPM */
const char *icon_famfamfam_flags_et[] = {
/* width height ncolors chars_per_pixel */
"16 11 159 2",
/* colors */
"   c #000000",
" . c #F4F436",
" X c #B0D588",
" o c #EF4225",
" O c #79AE94",
" + c #F23C14",
" @ c #004D13",
" # c #519452",
" $ c #8FBB8F",
" % c #F50000",
" & c #488E49",
" * c #4E9370",
" = c #86C4D2",
" - c #F3F31A",
" ; c #E10000",
" : c #69A470",
" > c #96C9B0",
" , c #FC6666",
" < c #F83434",
" 1 c #F52E31",
" 2 c #70A970",
" 3 c #619E7F",
" 4 c #FBFC49",
" 5 c #FA5D5D",
" 6 c #EF0000",
" 7 c #004305",
" 8 c #77AD91",
" 9 c #69A383",
" 0 c #F5F525",
" q c #85C2DA",
" w c #FDFD6F",
" e c #E7E700",
" r c #F21313",
" t c #F95455",
" y c #F4F53B",
" u c #6BB3DE",
" i c #00450B",
" p c #90C8D4",
" a c #65A182",
" s c #FBFB45",
" d c #E90000",
" f c #F95858",
" g c #317B5C",
" h c #F5F53F",
" j c #F45A3F",
" k c #F4F420",
" l c #5C9B7C",
" z c #FEFE58",
" x c #B0D589",
" c c #F70000",
" v c #E30000",
" b c #9ACBB2",
" n c #006500",
" m c #F22C2C",
" M c #52998C",
" N c #003D00",
" B c #FB6545",
" V c #003900",
" C c #003500",
" Z c #7EBCCB",
" A c #002D00",
" S c #FDFD53",
" D c #76AD77",
" F c #002700",
" G c #F6F62B",
" H c #FC846A",
" J c #002100",
" K c #F10000",
" L c #001B00",
" P c #001900",
" I c #7ABDE8",
" U c #001500",
" Y c #001300",
" T c #CC465C",
" R c #DD0000",
" E c #FDFD00",
" W c #C94259",
" Q c #619D62",
" ! c #F23232",
" ~ c #FCFC4B",
" ^ c #7BAB96",
" / c #5F9A81",
" ( c #74AB8F",
" ) c #5C987E",
" _ c #68B2E3",
" ` c #6AB3DB",
" ' c #539675",
" ] c #549476",
" [ c #FB6162",
" { c #4C914D",
" } c #EB0000",
" | c #64B0E2",
".  c #77ABD7",
".. c #F35532",
".X c #E3E300",
".o c #F23810",
".O c #F11E23",
".+ c #004B0F",
".@ c #F90000",
".# c #7BB095",
".$ c #E50000",
".% c #F64242",
".& c #FA613F",
".* c #F33535",
".= c #519572",
".- c #F74646",
".; c #FA3F3F",
".: c #F3F319",
".> c #6BA3D1",
"., c #9ACBB3",
".< c #F43939",
".1 c #004315",
".2 c #F30000",
".3 c #FEFE73",
".4 c #DF0000",
".5 c #F53D3D",
".6 c #6EB6E4",
".7 c #F10B0B",
".8 c #428B66",
".9 c #2C7657",
".0 c #FDFD54",
".q c #72AB74",
".w c #3D8361",
".e c #FEFE76",
".r c #FB6949",
".t c #77BBE6",
".y c #F2F214",
".u c #F10F0E",
".i c #F93A3A",
".p c #98CAAD",
".a c #F85050",
".s c #589878",
".d c #6DA586",
".f c #ED0000",
".g c #70A98C",
".h c #59967C",
".j c #FDFC50",
".k c #FCFC4F",
".l c #005921",
".z c #7CBEE7",
".x c #F34119",
".c c #377F61",
".v c #E5E500",
".b c #77BAE2",
".n c #71B9E6",
".m c #F74B4B",
".M c #63B0E2",
".N c #FB0000",
".B c #73B8CA",
".V c #F31919",
".C c #F22F2F",
".Z c #FA4444",
".A c #F4F41F",
".S c #E70000",
".D c #BADB92",
".F c #498A6F",
".G c #52955A",
".H c #4D968A",
".J c None",
/* pixels */
".l @ @ @.+ i 7 N V C A F J P Y L",
".+.#.# O 8 (.g.d 9 a 3 l.s ' *  ",
".1 ^ / ).h ].= M.H.8.w.c g.9.F  ",
" n $ D.q 2 :.b I.t u.G # { & Q U",
" E.e z.0.j p.z.D b.6 Z G 0 k h e",
" E.3 S.k ~ q.D., > x ` 0.A - y.v",
" E w.k 4 s =.n.p X |.B.A.:.y ..X",
".N H.r B.& j.  _.M.> o.x +.o...4",
".@ ,.Z.;.i < 1 T W.O.V r.u.7.C.4",
" c [ 5 f t.a.m.-.%.5.<.* !.C m R",
" %.2 K 6.f.f } d.S.$ v ;.4 R R R"
};
