/* XPM */
const char *icon_famfamfam_flags_fi[] = {
/* width height ncolors chars_per_pixel */
"16 11 127 2",
/* colors */
"   c #F5F6F7",
" . c #0029B9",
" X c #E7EBF3",
" o c #B9C1D3",
" O c #4977D2",
" + c #5580D7",
" @ c #3A6CCD",
" # c #A7B1C1",
" $ c #00009B",
" % c #507CD2",
" & c #83A4E3",
" * c #4E7AD0",
" = c #000087",
" - c #4473D0",
" ; c #B7BFD7",
" : c #6990DD",
" > c #DBE1ED",
" , c #F5F5F6",
" < c #F4F5F5",
" 1 c #F3F3F4",
" 2 c #F1F1F2",
" 3 c #406FCF",
" 4 c #3F6FCE",
" 5 c #5983D7",
" 6 c #D3D9E5",
" 7 c #D1D7E3",
" 8 c #4C7AD4",
" 9 c #3A6BCC",
" 0 c #4776D2",
" q c #D5DBED",
" w c #5E86D8",
" e c #FEFEFE",
" r c #6C93DF",
" t c #FCFCFC",
" y c #517DD5",
" u c #6B91DE",
" i c #FAFAFA",
" p c #3567CA",
" a c #F8F8F8",
" s c #81A3E3",
" d c #F6F6F6",
" f c #F4F4F4",
" g c #F2F2F2",
" h c #C1CBD9",
" j c #B5BDCD",
" k c #5984D9",
" l c #000099",
" z c #0035BD",
" x c #638BDC",
" c c #002FBD",
" v c #002BBD",
" b c #000085",
" n c #E5EBF5",
" m c #5480D7",
" M c #E3E9F3",
" N c #DDE3ED",
" B c #DBDFEB",
" V c #4473D1",
" C c #D9DDE9",
" Z c #D7DBE7",
" A c #FCFDFE",
" S c #00009F",
" D c #4F7CD5",
" F c #F8F9FA",
" G c #CDD3DD",
" H c #4D7AD3",
" J c #F6F7F8",
" K c #F4F5F6",
" L c #5A85D9",
" P c #668EDE",
" I c #658EDD",
" U c #4A78D3",
" Y c #648CDC",
" T c #5581D7",
" R c #85A5E5",
" E c #4574D1",
" W c #C1C9D7",
" Q c #BFC7D5",
" ! c #BBC3D1",
" ~ c #F9FAFA",
" ^ c #B9C1CF",
" / c #B7BFCD",
" ( c #668DDA",
" ) c #80A1E3",
" _ c #F4F4F5",
" ` c #F2F2F3",
" ' c #4172D0",
" ] c #5680D4",
" [ c #678FDE",
" { c #F6F8FA",
" } c #3265CB",
" | c #3063C9",
".  c #0029BB",
".. c #E5EBF3",
".X c #DFE3ED",
".o c #628BDC",
".O c #DDE1EB",
".+ c #6089DA",
".@ c #FFFFFF",
".# c #FDFDFD",
".$ c #376ACC",
".% c #FBFBFB",
".& c #F9F9F9",
".* c #0033C1",
".= c #F7F7F7",
".- c #80A2E2",
".; c #F5F5F5",
".: c #F3F3F3",
".> c #F1F1F1",
"., c #F9FBFC",
".< c #F7F9FA",
".1 c #DBDFEF",
".2 c #628AD8",
".3 c #3D6DCE",
".4 c #87A7E5",
".5 c #638CDC",
".6 c #00008F",
".7 c #C7CFDB",
".8 c #C3C9D7",
".9 c #BFC3D3",
".0 c #537FD6",
".q c #5F88DB",
".w c #5E88DA",
".e c #FBFCFD",
".r c #4F7BD5",
".t c #F7F8F9",
".y c None",
/* pixels */
"...... n c.  z q.X > B C Z 6 7 W",
" X.@.@ e R & ).# t t.% i.& a.= G",
"...@ e e u [ Y t.% i.& a.= d.=.7",
" M A A.e P.5.q ~ F.t J   K f < h",
".*.4 r : x.q L 5.0.r U V 3 @ ].6",
" v s I.o.w k T y 8 0 '.3.$ } % =",
" ..- Y.+ k + D H O - 4 9 p | * b",
".1.,.< { m D U.= , _ 1 ` 2 2 ` o",
" N t i i D U E d.; f.: g.>.> g /",
".O.% i.& (.2 w.= d.; f.: ` g g /",
" C Z 6 7 S l $ ;.8 Q.9 ! ^ / j #"
};
