/* XPM */
const char *icon_famfamfam_flags_fj[] = {
/* width height ncolors chars_per_pixel */
"16 11 165 2",
/* colors */
"   c #005BFB",
" . c #D7888E",
" X c #57A7F7",
" o c #59A1F9",
" O c #BC6D7A",
" + c #311D6F",
" @ c #68B3F7",
" # c #AC7B95",
" $ c #60ACF9",
" % c #0041E7",
" & c #003DE7",
" * c #000059",
" = c #D13F3C",
" - c #CD6A70",
" ; c #F1A9A7",
" : c #E5BFC6",
" > c #5CAAF8",
" , c #5EA4FA",
" < c #E6B053",
" 1 c #0055ED",
" 2 c #CF5354",
" 3 c #004DED",
" 4 c #CE656A",
" 5 c #65AFFA",
" 6 c #816795",
" 7 c #8CC2F2",
" 8 c #4DA7F6",
" 9 c #6DB4FB",
" 0 c #9295C3",
" q c #63A7FB",
" w c #0065F3",
" e c #7EC0FB",
" r c #5CADF4",
" t c #C56D7B",
" y c #5178C5",
" u c #DAB9C4",
" i c #7ABEFA",
" p c #52AAF7",
" a c #CF6F74",
" s c #0077F9",
" d c #0075F9",
" f c #002FDF",
" g c #002DDF",
" h c #5E85CE",
" j c #0029DF",
" k c #D9A7AF",
" l c #5BB1F9",
" z c #D54845",
" x c #99A7D3",
" c c #9A7A9C",
" v c #5AADF8",
" b c #76BCF9",
" n c #54A7F2",
" m c #C37C8C",
" M c #8BC4FD",
" N c #63B4FA",
" B c #E57472",
" V c #00006B",
" C c #D87479",
" Z c #D35C5D",
" A c #E38687",
" S c #003BE5",
" D c #CDE2F5",
" F c #0037E5",
" G c #7D7FB7",
" H c #59AAF3",
" J c #E5B050",
" K c #E36B69",
" L c #52A9F6",
" P c #6FB8F8",
" I c #A6AFD5",
" U c #004DEB",
" Y c #0049EB",
" T c #84C0FC",
" R c #B86070",
" E c #5BAAF8",
" W c #E28182",
" Q c #EAEEF3",
" ! c #42A0F3",
" ~ c #64AFFA",
" ^ c #69558F",
" / c #0063F1",
" ( c #57ACF7",
" ) c #005FF1",
" _ c #57A8F7",
" ` c #67194B",
" ' c #B7697F",
" ] c #7F133B",
" [ c #F1A6A4",
" { c #CF3A37",
" } c #88C3FC",
" | c #60B1F9",
".  c #E9CFD4",
".. c #60ADF9",
".X c #D9A1AA",
".o c #87BEF1",
".O c #CCE3F6",
".+ c #C9DFF3",
".@ c #979AC2",
".# c #69B2FB",
".$ c #0071F7",
".% c #006FF7",
".& c #0029DD",
".* c #0027DD",
".= c #64B0F6",
".- c #CF1919",
".; c #5CAFF8",
".: c #71B7FC",
".> c #C7DFF4",
"., c #EDF1F5",
".< c #65B0FA",
".1 c #E4B7BE",
".2 c #D54846",
".3 c #60AEF5",
".4 c #EB8583",
".5 c #0081FD",
".6 c #0035E3",
".7 c #53A7F2",
".8 c #0031E3",
".9 c #4CA4F5",
".0 c #D23B39",
".q c #6DB5FB",
".w c #DAABB4",
".e c #E2D6E0",
".r c #E7EDF2",
".t c #89193D",
".y c #E97C7A",
".u c #50A5F2",
".i c #E6BFC6",
".p c #69B1FA",
".a c #C07C8D",
".s c #0047E9",
".d c #0043E9",
".f c #9393C0",
".g c #55A8F3",
".h c #0059EF",
".j c #E79495",
".k c #0055EF",
".l c #4DA1F5",
".z c #6AB4F7",
".x c #E7B459",
".c c #7FC0FB",
".v c #80B8FC",
".b c #56A6F7",
".n c #73B9F9",
".m c #72B9F8",
".M c #E0787A",
".N c #0069F5",
".B c #9FA4CB",
".V c #52A4F6",
".C c #549EF8",
".Z c #6EB7F7",
".A c #46A1F4",
".S c #CC6066",
".D c #5BA9F8",
".F c #77BCF9",
".G c #007BFB",
".H c #002FE1",
".J c #789DD9",
".K c #EAEFF3",
".L c #9A83A8",
".P c #6BB5F7",
".I c #832349",
".U c #E8B559",
".Y c None",
/* pixels */
" t 6 V ].t * ` '   d.$.N w /.h.k",
" +.i.e.w.X u. .B.v T e i b.m.Z U",
".-.j.4 B K.y.M C q N |.; ( L.z.s",
".I.1 [ W A ; . # , l 4 Z.x 2 a %",
" ^ :.L.a m.@ k c o v.S.U < J - &",
" G x h 0.f y.J I.C p.O.,.2.K D F",
".5 M.:.q.#.<.. > _ 8 R z.0 = O.8",
".G } 9.# 5 $ E X.V.9.> Q =.r.+ f",
" s T.p ~ $.D.b.V.l.A ! 7 {.o n j",
".%.c i.F.n P.P @.=.3 r H.g.7.u.*",
".N w ).h 1 3 Y.d & S.6.H g.&.*.*"
};
