/* XPM */
const char *icon_famfamfam_flags_fm[] = {
/* width height ncolors chars_per_pixel */
"16 11 140 2",
/* colors */
"   c #1963AD",
" . c #AAC6E2",
" X c #A8C4E0",
" o c #3579BB",
" O c #3377B9",
" + c #96B7D8",
" @ c #AEC7DF",
" # c #001F7D",
" $ c #BFD4E9",
" % c #88AED4",
" & c #A3C0DE",
" * c #95B7DA",
" = c #004197",
" - c #0B59A5",
" ; c #8FB1D4",
" : c #9FBEDD",
" > c #B9D0E6",
" , c #002783",
" < c #90B5D8",
" 1 c #7BA2CA",
" 2 c #ABC7E2",
" 3 c #8EB1D6",
" 4 c #6F9BC8",
" 5 c #9DBEDE",
" 6 c #4181BF",
" 7 c #417FBF",
" 8 c #7AA2CC",
" 9 c #ADC6DD",
" 0 c #0353A3",
" q c #002F89",
" w c #84A9CF",
" e c #002D89",
" r c #97BADB",
" t c #93B4D7",
" y c #1F69B1",
" u c #FCFCFC",
" i c #A8C2DB",
" p c #A0BFDD",
" a c #F6F6F6",
" s c #84ABD2",
" d c #83A9D1",
" f c #82A9D0",
" g c #AEC8E4",
" h c #92B6D9",
" j c #ADC8E3",
" k c #91B4D8",
" l c #397BBD",
" z c #00398F",
" x c #709CC8",
" c c #A5C0DB",
" v c #9FBFDF",
" b c #6E9AC6",
" n c #9BBBDB",
" m c #7EA7CF",
" M c #99B9D9",
" N c #B1C9E0",
" B c #A8C4E1",
" V c #8AAED4",
" C c #85AACF",
" Z c #115DA9",
" A c #78A1CC",
" S c #77A1CB",
" D c #86ACD3",
" F c #85ACD2",
" G c #2B73B5",
" H c #7FA6CC",
" J c #002581",
" K c #002181",
" L c #729DC9",
" P c #9EBEDD",
" I c #B8CEE6",
" U c #81AAD1",
" Y c #9CBCDB",
" T c #80A8D0",
" R c #00479B",
" E c #7EA6CE",
" W c #89ADD2",
" Q c #6C99C6",
" ! c #9BBCDD",
" ~ c #6A97C4",
" ^ c #9ABCDC",
" / c #7AA4CD",
" ( c #95B6D7",
" ) c #A5C3E0",
" _ c #89AFD5",
" ` c #88ADD4",
" ' c #BDD3E7",
" ] c #87ADD3",
" [ c #86ADD2",
" { c #B0CAE4",
" } c #3D7DBF",
" | c #3B7DBD",
".  c #00358D",
".. c #83ABD2",
".X c #82A9D1",
".o c #81A9D0",
".O c #8EB2D6",
".+ c #BFD2E5",
".@ c #9DBDDE",
".# c #99B9DA",
".$ c #7CA5CE",
".% c #003D93",
".& c #003B93",
".* c #A5C2DF",
".= c #3175B9",
".- c #2D73B5",
".; c #82A8CD",
".: c #97B9DB",
".> c #759FCA",
"., c #FBFBFB",
".< c #BAD0E6",
".1 c #F5F5F5",
".2 c #AEC9E4",
".3 c #92B7D9",
".4 c #7DA4CB",
".5 c #7CA4CA",
".6 c #91B5D8",
".7 c #8CAFD3",
".8 c #A6C1DC",
".9 c #6F9BC7",
".0 c #6E99C6",
".q c #B5CCE4",
".w c #276FB5",
".e c #002B85",
".r c #98B8D8",
".t c #002985",
".y c #256DB3",
".u c #8AAFD4",
".i c #004D9F",
".p c #85ABCF",
".a c #98BADB",
".s c #6795C2",
".d c #3F7FBF",
".f c #00338B",
".g c #B9CFE4",
".h c #7FA5CC",
".j c #91B4D7",
".k c #8FB2D5",
".l c #709CC7",
".z c None",
/* pixels */
" 6 6 6 6.d | o.= G.y y   Z - 0.i",
" 6 { {.2 j 2 B > I p P n M + t R",
" 6 { v 5 !.a < u., ` % s.o E.k =",
" 7 g.@ ^ r.3.6.* & ].X T.$ 8.7.&",
" } j ^.: $ '.j _ [ F N @ A.> W. ",
" l ..: h u.,.q F f.+ a.1 L x C q",
" O X * k.<.g V U m E 9 i 4 b.;.e",
".- ) k.O _...X.r ( S x 4.0 ~ H ,",
".w & 3.u D d / a.1.9.l Q ~.s.4 K",
" y : Y.# + t ;.8 c.p w.;.h.5 1 #",
"   Z - 0.i R =.% z.f e.t J K # #"
};
