/* XPM */
const char *icon_famfamfam_flags_fo[] = {
/* width height ncolors chars_per_pixel */
"16 11 105 2",
/* colors */
"   c #BF0000",
" . c #5982EC",
" X c #EE8173",
" o c #F9FEFE",
" O c #0000C3",
" + c #547EEA",
" @ c #6F93ED",
" # c #E34A36",
" $ c #0000B5",
" % c #DB0000",
" & c #E85D4B",
" * c #D1CFCF",
" = c #B30000",
" - c #0007D9",
" ; c #DD361F",
" : c #2459DE",
" > c #517BE9",
" , c #EB6754",
" < c #FEFEFE",
" 1 c #2F62E2",
" 2 c #EA6553",
" 3 c #FCFCFC",
" 4 c #4674E8",
" 5 c #FAFAFA",
" 6 c #4572E7",
" 7 c #F8F8F8",
" 8 c #F6F6F6",
" 9 c #F4F4F4",
" 0 c #2055DD",
" q c #F2F2F2",
" w c #2A5EE0",
" e c #E95E4B",
" r c #4170E6",
" t c #406EE5",
" y c #7799F0",
" u c #5882EC",
" i c #E0402B",
" p c #3465E3",
" a c #4B77E9",
" s c #3063E2",
" d c #E04F3B",
" f c #4F7AE9",
" g c #DE3B25",
" h c #4B76E5",
" j c #EF8274",
" k c #547DE7",
" l c #3566E3",
" z c #0003D7",
" x c #547FEA",
" c c #E65440",
" v c #1950DB",
" b c #3B6BE5",
" n c #3A69E4",
" m c #7094EE",
" M c #507BE9",
" N c #2E60E2",
" B c #E66150",
" V c #1F55DD",
" C c #F2F2F3",
" Z c #3667E3",
" A c #E54F3B",
" S c #DB311A",
" D c #4977E8",
" F c #E9624F",
" G c #0000B1",
" H c #FFFFFF",
" J c #FDFDFD",
" K c #FBFBFB",
" L c #F9F9F9",
" P c #F7F7F7",
" I c #F5F5F5",
" U c #3F6DE1",
" Y c #E75946",
" T c #F3F3F3",
" R c #F1F1F1",
" E c #EFEFEF",
" W c #EDEDED",
" Q c #EBEBEB",
" ! c #E54E3A",
" ~ c #E9E9E9",
" ^ c #E7E7E7",
" / c #E5E5E5",
" ( c #7698EF",
" ) c #E3E3E3",
" _ c #E1E1E1",
" ` c #DDDDDD",
" ' c #DBDBDB",
" ] c #D9D9D9",
" [ c #D90000",
" { c #D7D7D7",
" } c #D5D5D5",
" | c #2559DE",
".  c #D3D3D3",
".. c #E24530",
".X c #D1D1D1",
".o c #0011DB",
".O c #000FDB",
".+ c #CDCDCD",
".@ c #3665DE",
".# c #E96351",
".$ c #E34934",
".% c #0000BD",
".& c #144CDA",
".* c #2B5EE0",
".= c None",
/* pixels */
" T T T T.o % - E W W Q ~ ^ / ) _",
" T H H < y j m J 3 3 K 5 L 7 P `",
" T H < < . , > 3 K 5 L 7 P 8 P '",
" T < < o x.# a K 5 L 7 P 8 I 8 ]",
".O ( u + M e 4 r b Z s.* | 0 U $",
" [ X 2 F & Y c A #.. i g ; S d =",
" z @ f D 6 c b l 1 w : V v.&.@ G",
" E 3 K K t ! p P 8 I 9 T q q T.X",
" W 3 5 5 n.$ N 8 I 9 T q R R q.+",
" Q K 5 L k B h P 8 I 9 T C q q.+",
" ~ ^ / ) O  .% ] { }. .X *.+.+.+"
};
