/* XPM */
const char *icon_famfamfam_flags_ga[] = {
/* width height ncolors chars_per_pixel */
"16 11 157 2",
/* colors */
"   c #000095",
" . c #F4F436",
" X c #F7F72F",
" o c #3DAD31",
" O c #436FC9",
" + c #00006D",
" @ c #7394CD",
" # c #79C979",
" $ c #6286D0",
" % c #F3F31A",
" & c #74C774",
" * c #3E6BC7",
" = c #5E83C2",
" - c #6DC36D",
" ; c #F6F62A",
" : c #000087",
" > c #5CBD5C",
" , c #5CBB5C",
" < c #F9F93A",
" 1 c #5EBE54",
" 2 c #59BB59",
" 3 c #3A69C6",
" 4 c #5BBC51",
" 5 c #54B954",
" 6 c #53B753",
" 7 c #698DD3",
" 8 c #51B751",
" 9 c #FBFC49",
" 0 c #4CB54C",
" q c #668AC6",
" w c #49B149",
" e c #47B347",
" r c #4CB442",
" t c #7596D8",
" y c #90ABD8",
" u c #3DAD3D",
" i c #00008D",
" p c #F5F525",
" a c #5179BB",
" s c #FDFD6F",
" d c #E7E700",
" f c #F8F835",
" g c #F4F53B",
" h c #2CA52C",
" j c #557CCC",
" k c #FBFB45",
" l c #61BE60",
" z c #5982D3",
" x c #F5F53F",
" c c #5A80C0",
" v c #56B94B",
" b c #4773CB",
" n c #0029B7",
" m c #00007F",
" M c #F4F420",
" N c #4FB344",
" B c #547ED1",
" V c #FEFE58",
" C c #F7F730",
" Z c #008900",
" A c #3666C4",
" S c #008300",
" D c #008100",
" F c #007D00",
" G c #007B00",
" H c #007700",
" J c #5E85D4",
" K c #007300",
" L c #0007A3",
" P c #FAFA40",
" I c #006F00",
" U c #006B00",
" Y c #006500",
" T c #000099",
" R c #005F00",
" E c #005900",
" W c #005500",
" Q c #005100",
" ! c #004900",
" ~ c #004700",
" ^ c #004100",
" / c #70C571",
" ( c #FDFD53",
" ) c #F6F62B",
" _ c #0013A9",
" ` c #6A8EC8",
" ' c #5B82CD",
" ] c #F9F93B",
" [ c #FDFD00",
" { c #42B036",
" } c #00008B",
" | c #557DBD",
".  c #FCFC4B",
".. c #37AA2B",
".X c #001DAF",
".o c #32A826",
".O c #557CCA",
".+ c #809FDD",
".@ c #7BCA7B",
".# c #77C877",
".$ c #F8F836",
".% c #000091",
".& c #678DD8",
".* c #69C269",
".= c #80CD79",
".- c #65C065",
".; c #FBFB46",
".: c #00007D",
".> c #5FBE5F",
"., c #E3E300",
".< c #6289D6",
".1 c #4EB44E",
".2 c #51B747",
".3 c #0001A1",
".4 c #587FCC",
".5 c #42B042",
".6 c #517ACF",
".7 c #83A2DF",
".8 c #003FA7",
".9 c #658AD2",
".0 c #000083",
".q c #7BC97A",
".w c #37AA37",
".e c #FAFA41",
".r c #F3F319",
".t c #31A831",
".y c #7193D7",
".u c #537BCA",
".i c #4C76CD",
".p c #000DA7",
".a c #FEFE73",
".s c #4D76BA",
".d c #5F84CF",
".f c #00009D",
".g c #58B957",
".h c #FDFD54",
".j c #FEFE76",
".k c #F9F93C",
".l c #F2F214",
".z c #47B23C",
".x c #F5F524",
".c c #6286C4",
".v c #6F91CA",
".b c #FDFC50",
".n c #FCFC4F",
".m c #7D9DDB",
".M c #E5E500",
".N c #0023B3",
".B c #6D90D5",
".V c #F4F41F",
".C c #65C15C",
".Z c #7999DA",
".A c #62BF59",
".S c #6487C2",
".D c #4973B8",
".F c #7798CE",
".G c None",
/* pixels */
" S S S S D F G H K I U Y R E W Q",
" S.@.@ #.# & / -.*.- l ,.g 6.1 !",
" D.q.> > 2 5 8 0 e.5 u.w.t h w ^",
" Z.=.C.A 1 4 v.2 r.z { o...o N ~",
" [.j V.h.b. .;.e.k.$ C ) p M x d",
" [.a (.n. .; P ].$ C ) p.V % g.M",
" [ s.n 9 k P < f X ;.x.V.r.l ..,",
".8 y.F @.v ` q.c = c | a.s.D.S +",
" n.7.&.< J z B.6.i b O * 3 A j :",
".N.+.m.Z t.y.B 7.9 $.d '.4.O.u m",
".X _.p L.3.f T  .% i } :.0.0.: m"
};
