/* XPM */
const char *icon_famfamfam_flags_gb[] = {
/* width height ncolors chars_per_pixel */
"16 11 139 2",
/* colors */
"   c #FF4C4C",
" . c #FE3234",
" X c #FF5959",
" o c #FE8A7C",
" O c #FEFDF9",
" + c #F49A9D",
" @ c #7A9EC0",
" # c #0C2893",
" $ c #851F3A",
" % c #F52E2E",
" & c #FFFFFD",
" * c #112D91",
" = c #B8D5EC",
" - c #FC3638",
" ; c #F3817E",
" : c #FF5F5F",
" > c #C5C0DB",
" , c #CFD6E8",
" < c #FFA5A7",
" 1 c #FFEDEC",
" 2 c #8696D5",
" 3 c #B7C3DA",
" 4 c #FFB1AA",
" 5 c #F9635F",
" 6 c #193498",
" 7 c #F78B8B",
" 8 c #FB5243",
" 9 c #FF948C",
" 0 c #F4A2AC",
" q c #FFE8E8",
" w c #7282C4",
" e c #FF3D3D",
" r c #E54241",
" t c #7B97C6",
" y c #496BB6",
" u c #FD5448",
" i c #FF6061",
" p c #9FAFDC",
" a c #D4D5EF",
" s c #841734",
" d c #3A3FA4",
" f c #6E80C3",
" g c #6483C3",
" h c #3756AE",
" j c #EB604D",
" k c #6181C0",
" l c #FF6464",
" z c #5A81B9",
" x c #FF9388",
" c c #851B38",
" v c #8DBCD7",
" b c #6483C6",
" n c #93B3D3",
" m c #BCC9EE",
" M c #14317E",
" N c #FE4545",
" B c #A2B0DB",
" V c #4369A2",
" C c #001167",
" Z c #FFFFFE",
" A c #112C9C",
" S c #FEFDFD",
" D c #9C516F",
" F c #9299BE",
" G c #748ED2",
" H c #F73434",
" J c #8D9DD0",
" K c #A1B0DD",
" L c #A3AFD5",
" P c #7E91D5",
" I c #F95346",
" U c #C9C8E3",
" Y c #5460AF",
" T c #BF99B5",
" R c #FB2F31",
" E c #00136D",
" W c #D0DCED",
" Q c #F52B2B",
" ! c #CCD6E9",
" ~ c #5A66B8",
" ^ c #FDFCF8",
" / c #AC607E",
" ( c #001570",
" ) c #944463",
" _ c #FF5C5C",
" ` c #6B72A4",
" ' c #7180C1",
" ] c #FF6D69",
" [ c #FF6569",
" { c #F78778",
" } c #DBE1F4",
" | c #001773",
".  c #45356E",
".. c #E8605C",
".X c #FEFEFF",
".o c #FF5555",
".O c #8295CE",
".+ c #FBFCFC",
".@ c #FF5758",
".# c #9EAAD2",
".$ c #AC617D",
".% c #FF4E4E",
".& c #E1BEDF",
".* c #5C74C6",
".= c #FA3F3F",
".- c #AD6381",
".; c #C9D5E8",
".: c #92A1D3",
".> c #555EAB",
"., c #FC2B2D",
".< c #FA292B",
".1 c #FFFFFF",
".2 c #FF5454",
".3 c #FDFDFD",
".4 c #FCFDFC",
".5 c #A4A8CA",
".6 c #FC827F",
".7 c #181B9A",
".8 c #FFC1BD",
".9 c #00136B",
".0 c #FF8E85",
".q c #F08A8A",
".w c #6284C1",
".e c #4866B8",
".r c #D9DDED",
".t c #F9FFFF",
".y c #CBD4E9",
".u c #90B2D0",
".i c #5766B6",
".p c #4149A7",
".a c #082590",
".s c #3F5EB2",
".d c #3D5CB0",
".f c #FFFEFE",
".g c #FEFEFD",
".h c #7B9DC5",
".j c #8C9CCF",
".k c #F93939",
".l c None",
/* pixels */
" F = t b g k.r.- /.r y.e.d z D.h",
".5 4.X } B p.X 9.0.X.: J U o O.u",
".w m <.8.1 2.1 [ i.1 G 0 7.1.# 6",
".w K P.&.6.1.1 _.@.1 ] q W.p w *",
".r.X.1.1.1.1.1.o.%.1.1.1.1.1.X !",
".$ x l : X.2.%   N.=.k H % Q I $",
".r.X.1.1.1.1.1 e -.1 Z.1.3.4.+.;",
".s.j ~ a 1 5.1 . R.1 & r T.7 Y.9",
" h L.1 ;.q.*.1.,.<.f d.t +...O C",
" n.g { > ' f.X u 8 S.i.> 3 ^ j `",
" @ ) V A #.a , c s.y | ( E M v. "
};
