/* XPM */
const char *icon_famfamfam_flags_gd[] = {
/* width height ncolors chars_per_pixel */
"16 11 157 2",
/* colors */
"   c #F0CC2F",
" . c #FCE069",
" X c #F87048",
" o c #F6D342",
" O c #F2D113",
" + c #F3D035",
" @ c #FCDB4B",
" # c #F5D423",
" $ c #FDE26D",
" % c #F7D546",
" & c #F50000",
" * c #5ABF2C",
" = c #50B240",
" - c #2AA42B",
" ; c #F7CD5D",
" : c #FAE042",
" > c #8BBB4F",
" , c #F7C853",
" < c #FCDD65",
" 1 c #84BF73",
" 2 c #F9DA58",
" 3 c #F6D42A",
" 4 c #FEE274",
" 5 c #7BB96A",
" 6 c #5FB94B",
" 7 c #67B249",
" 8 c #F55E37",
" 9 c #50B550",
" 0 c #EF0000",
" q c #49B949",
" w c #45B145",
" e c #7DA04E",
" r c #4FA13B",
" t c #D8DD58",
" y c #F9DF3D",
" u c #FEE559",
" i c #38A524",
" p c #179914",
" a c #2BA32B",
" s c #70AE19",
" d c #FD0000",
" f c #25A125",
" g c #F3D419",
" h c #ED5F00",
" j c #1F9F1F",
" k c #E90000",
" l c #1AA31A",
" z c #199B19",
" x c #F6D729",
" c c #E5CE36",
" v c #ED3F00",
" b c #F7D64B",
" n c #89C47A",
" m c #88C279",
" M c #C37036",
" N c #FB7300",
" B c #C3D43F",
" V c #F70000",
" C c #4B9E36",
" Z c #F9D63C",
" A c #C9D231",
" S c #E30000",
" D c #9CC854",
" F c #FCE14C",
" G c #F5CE24",
" H c #E73D00",
" J c #F8D334",
" K c #419C2F",
" L c #64C844",
" P c #F56F00",
" I c #FDE271",
" U c #F10000",
" Y c #86BF76",
" T c #DD0000",
" R c #7FBD6F",
" E c #FBE047",
" W c #FBDC47",
" Q c #DDCE3A",
" ! c #76B966",
" ~ c #E13B00",
" ^ c #80D35F",
" / c #608C2C",
" ( c #F7D62F",
" ) c #F6643C",
" _ c #F4C736",
" ` c #FF0000",
" ' c #EB0000",
" ] c #F4CF39",
" [ c #9BBD2A",
" { c #D70000",
" } c #FEE47B",
" | c #F9DB55",
".  c #FADB42",
".. c #FD8900",
".X c #8AAC62",
".o c #F5D13D",
".O c #5CC05C",
".+ c #FD7700",
".@ c #FD7300",
".# c #31A62B",
".$ c #54BA54",
".% c #D5DF5C",
".& c #F4D41E",
".* c #F90000",
".= c #F9DC3A",
".- c #4BB44B",
".; c #E50000",
".: c #FADD5C",
".> c #F7D92E",
"., c #46B246",
".< c #58A644",
".1 c #45B245",
".2 c #FEE577",
".3 c #D7C51F",
".4 c #53A43F",
".5 c #F8D850",
".6 c #E94100",
".7 c #36B00B",
".8 c #5AAC49",
".9 c #FBDD60",
".0 c #26A626",
".q c #25A225",
".w c #F75D00",
".e c #20A620",
".r c #F30000",
".t c #1F9C1F",
".y c #F86B43",
".u c #DF0000",
".i c #FDE351",
".p c #F9DA57",
".a c #14A014",
".s c #DF8955",
".d c #109C10",
".f c #E9D751",
".g c #FDE554",
".h c #AFCA46",
".j c #E32300",
".k c #89BA31",
".l c #F2CD32",
".z c #A9C336",
".x c #ED0000",
".c c #479B32",
".v c #B3C40E",
".b c #FEE479",
".n c #A0C43A",
".m c #F8DC34",
".M c #87BD3F",
".N c #5BBC59",
".B c #F5C93B",
".V c #CA7B46",
".C c #9FBA7B",
".Z c #FB0000",
".A c #49AC30",
".S c #F8DC37",
".D c #E70000",
".F c #F3DD53",
".G c None",
/* pixels */
" ` ` ` `...@ d.+ N.*.w P.r U 0.x",
" d.C }.b.2 4 I $ . <.9.:.p , e k",
" d n ^.% u.g.i F E : y.S A *.8.D",
" ` m.O.N D.f @ W.  Z c.k.#.0.<.D",
" d Y t.$ 9 6.h X.y.z.A a f.e.4.D",
" d 1.F.s.-.,.V.B _ M -.q j l r.;",
" d R > 7 w =.n ) 8 [ i.t z.a C S",
".Z 5 q.1.M Q J ( 3 G.3 s p.d.c.u",
" V ! L B.=.m.> x #.& g O.v.7 K T",
" &.X ; 2 |.5 b % o.o ] +.l   / {",
" &.r U 0 h v '.6 H.;.j ~.u T T T"
};
