/* XPM */
const char *icon_famfamfam_flags_gh[] = {
/* width height ncolors chars_per_pixel */
"16 11 148 2",
/* colors */
"   c #F4F436",
" . c #F2EF2A",
" X c #F62C2C",
" o c #939430",
" O c #FC4C4C",
" + c #4A4B3B",
" @ c #F50000",
" # c #92953C",
" $ c #F3F31A",
" % c #6AC36A",
" & c #189C19",
" * c #58B958",
" = c #FB4747",
" - c #FBFC49",
" ; c #EF0000",
" : c #F62B2B",
" > c #44B144",
" , c #A1A140",
" < c #3FAF3F",
" 1 c #989A41",
" 2 c #FC4B4B",
" 3 c #F5F525",
" 4 c #39A939",
" 5 c #34A934",
" 6 c #FDFD6F",
" 7 c #E7E700",
" 8 c #32A532",
" 9 c #2FA72F",
" 0 c #F4F53B",
" q c #FC6565",
" w c #FD0000",
" e c #F74949",
" r c #23A123",
" t c #FE7474",
" y c #FBFB45",
" u c #1F9F1F",
" i c #E90000",
" p c #FA4242",
" a c #1E9F1E",
" s c #F52626",
" d c #F5F53F",
" f c #149914",
" g c #F83736",
" h c #139913",
" j c #109710",
" k c #ECEF36",
" l c #0B950B",
" z c #FA5C5C",
" x c #F4F420",
" c c #FEFE58",
" v c #F7F730",
" b c #FB6060",
" n c #F70000",
" m c #F64444",
" M c #FE5959",
" N c #007300",
" B c #006F00",
" V c #FAFA40",
" C c #33A632",
" Z c #006900",
" A c #F85353",
" S c #006300",
" D c #005D00",
" F c #005900",
" G c #005300",
" H c #004D00",
" J c #004700",
" K c #004100",
" L c #F95757",
" P c #003D00",
" I c #003900",
" U c #003300",
" Y c #002D00",
" T c #002900",
" R c #FDFD53",
" E c #002700",
" W c #F6F62B",
" Q c #002500",
" ! c #FE5F5F",
" ~ c #002100",
" ^ c #001F00",
" / c #F10000",
" ( c #FD5454",
" ) c #FDFD00",
" _ c #F0F346",
" ` c #F74E4E",
" ' c #FF7B7A",
" ] c #54B755",
" [ c #FE7979",
" { c #FCFC4B",
" } c #F93C3C",
" | c #FF0000",
".  c #EB0000",
".. c #FD7071",
".X c #66C066",
".o c #FBFB46",
".O c #605E2F",
".+ c #5DBC5D",
".@ c #E3E300",
".# c #FC6969",
".$ c #F9F43A",
".% c #F83737",
".& c #F90000",
".* c #50B450",
".= c #4BB24B",
".- c #49B449",
".; c #FD6D6D",
".: c #45B245",
".> c #46B046",
"., c #42AE42",
".< c #3DAC3D",
".1 c #3AAC3A",
".2 c #34AA34",
".3 c #35A835",
".4 c #F3F319",
".5 c #2EA62E",
".6 c #2FA42F",
".7 c #2CA22C",
".8 c #2AA42A",
".9 c #29A429",
".0 c #24A224",
".q c #F30000",
".w c #FEFE73",
".e c #434336",
".r c #FA4142",
".t c #199C19",
".y c #FDFD54",
".u c #FE7777",
".i c #FEFE76",
".p c #F2F214",
".a c #40AF3F",
".s c #FF7B7B",
".d c #F5F524",
".f c #ED0000",
".g c #F93C3D",
".h c #686635",
".j c #FDFC50",
".k c #FCFC4F",
".l c #F73131",
".z c #FE5C5C",
".x c #E5E500",
".c c #FD5151",
".v c #FB0000",
".b c #0F970E",
".n c #F4F41F",
".m c #61BE62",
".M c #E70000",
".N c None",
/* pixels */
" | | | | w w w w.v.& n @.q / ;.f",
" |.s.s [.u t...;.# q b z L A `. ",
" | ' !.z M (.c O = p.g.%.l X e i",
" | [.z M (.c 2 =.r } g.l : s m.M",
" ).i c.y.j { _ 1 # k v W 3 x d 7",
" ).w R.k {.o , +.e o W 3.n $ 0.x",
" ) 6.k - y V.$.h.O ..d.n.4.p  .@",
" N %.-.:.a.1.2 9.8.0 u.t f j C E",
" B.X > <.1 5.5.9 r a & h.b l.6 ~",
" Z.m.+ * ].*.=.>.,.< 4.3 8.6.7 ^",
" S D F G H J K P I U Y T Q ~ ^ ^"
};
