/* XPM */
const char *icon_famfamfam_flags_gi[] = {
/* width height ncolors chars_per_pixel */
"16 11 114 2",
/* colors */
"   c #F23F32",
" . c #B93D35",
" X c #EBB055",
" o c #F50000",
" O c #E10000",
" + c #FB847C",
" @ c #F7776E",
" # c #FDFDFE",
" $ c #E9E7E7",
" % c #EDCCCA",
" & c #F4F5F5",
" * c #EF0000",
" = c #F7E5E4",
" - c #F4584D",
" ; c #F7F2F1",
" : c #F24D41",
" > c #F44639",
" , c #C9C7C7",
" < c #F86B61",
" 1 c #E90000",
" 2 c #F54A3D",
" 3 c #FEFEFE",
" 4 c #EDD4D3",
" 5 c #FDFCFD",
" 6 c #FCFCFC",
" 7 c #FBFCFB",
" 8 c #D50000",
" 9 c #FAFAFA",
" 0 c #F8F8F8",
" q c #F6F6F6",
" w c #F4F4F4",
" e c #F2F2F2",
" r c #F85B50",
" t c #EEE5E4",
" y c #F35A41",
" u c #FAF3F3",
" i c #F1DEDD",
" p c #F70000",
" a c #F45042",
" s c #E30000",
" d c #E1A13F",
" f c #F2382C",
" g c #EC5E54",
" h c #EBD3D0",
" j c #F04337",
" k c #EFE2E1",
" l c #F15245",
" z c #F2F1F1",
" x c #F10000",
" c c #DD0000",
" v c #F05B51",
" b c #F15448",
" n c #F26A60",
" m c #F9746A",
" M c #F2584C",
" N c #FB6B62",
" B c #EEAB58",
" V c #FA786E",
" C c #F7E0DE",
" Z c #F2483B",
" A c #FA685D",
" S c #FC948D",
" D c #DE3D31",
" F c #E50000",
" G c #F34135",
" H c #F95F55",
" J c #F6F3F3",
" K c #F30000",
" L c #F14E43",
" P c #F96358",
" I c #FFFFFF",
" U c #DF0000",
" Y c #FDFDFD",
" T c #FBFBFB",
" R c #F9E3E2",
" E c #F9F9F9",
" W c #F7F7F7",
" Q c #F5F5F5",
" ! c #F3F3F3",
" ~ c #EFEFEF",
" ^ c #EDEDED",
" / c #EBEBEB",
" ( c #E9E9E9",
" ) c #E7E7E7",
" _ c #E5E5E5",
" ` c #E3E3E3",
" ' c #E8554A",
" ] c #E1E1E1",
" [ c #DFDFDF",
" { c #ED0000",
" } c #DBDBDB",
" | c #F91505",
".  c #E8A73C",
".. c #D9D9D9",
".X c #D7D7D7",
".o c #D5D5D5",
".O c #D1D1D1",
".+ c #CFCFCF",
".@ c #CDCDCD",
".# c #CBCBCB",
".$ c #F76055",
".% c #F55E53",
".& c #FDFCFC",
".* c #F35C51",
".= c #FBFAFA",
".- c #E1483C",
".; c #F86D63",
".: c #AD6965",
".> c #F23B2F",
"., c #E3CAC8",
".< c #FA7C72",
".1 c #F3F2F2",
".2 c #E70000",
".3 c None",
/* pixels */
" ~ ~ ~ ~ ^ ^ / ( ( ) _ ` ] [ }..",
" ~ I I 3 3 3 # Y 6 6 T 9 E 0 W.X",
" ~ I 3 3 3.& u + = 9 E 0 W q W.o",
" ~ 3 3 3 Y R.; v.% C 0 W q Q q.O",
" ^ 3 3 Y 5 4 g.: ' h W q Q w Q.+",
" / 3 Y 6 6 @ : Z j L J Q w ! &.@",
" / Y 6 7 T %.- . D., Q w ! e w.#",
" $ 6.=.= 9 ; k d i t w ! z z.1 ,",
" | S.< V m <.$.  y -.* M b l n U",
" p N A P H r B X a 2 > G  .> f c",
" o K x * { { 1 8.2 F s O U c c c"
};
