/* XPM */
const char *icon_famfamfam_flags_gl[] = {
/* width height ncolors chars_per_pixel */
"16 11 125 2",
/* colors */
"   c #FA4647",
" . c #FC6D6D",
" X c #F6B6B6",
" o c #F93B3C",
" O c #F89797",
" + c #F50000",
" @ c #F21414",
" # c #E10000",
" $ c #E51111",
" % c #FC6666",
" & c #FEF2F2",
" * c #F33232",
" = c #FB4747",
" - c #FA5D5D",
" ; c #EF0000",
" : c #F9CFCF",
" > c #F43636",
" , c #FC4B4B",
" < c #F87575",
" 1 c #F21313",
" 2 c #F38787",
" 3 c #F95455",
" 4 c #F99A9A",
" 5 c #F7F4F4",
" 6 c #F6DCDC",
" 7 c #FD0000",
" 8 c #E90000",
" 9 c #F48B8B",
" 0 c #F95858",
" q c #FEFEFE",
" w c #FCFCFC",
" e c #FBFCFB",
" r c #FAFAFA",
" t c #F8F8F8",
" y c #F49898",
" u c #F6F6F6",
" i c #F4F4F4",
" p c #FB4646",
" a c #F77070",
" s c #FD5555",
" d c #F56E6E",
" f c #F8F1F1",
" g c #F70000",
" h c #E30000",
" j c #FD6F6F",
" k c #FEE3E3",
" l c #F22C2C",
" z c #FA4141",
" x c #FEFDFD",
" c c #FDE5E5",
" v c #FA9D9D",
" b c #FBC2C2",
" n c #F10000",
" m c #F58E8E",
" M c #DD0000",
" N c #FD5454",
" B c #FC6A6A",
" V c #F23232",
" C c #FCA5A5",
" Z c #EFEFF1",
" A c #FE9393",
" S c #FB4B4B",
" D c #FB6162",
" F c #FDA9A9",
" G c #EB0000",
" H c #F52424",
" J c #FD4F50",
" K c #F90000",
" L c #F69191",
" P c #E50000",
" I c #F64242",
" U c #F55858",
" Y c #F21010",
" T c #FDF7F7",
" R c #F41F1F",
" E c #FE9292",
" W c #F33535",
" Q c #F43939",
" ! c #FBC0C0",
" ~ c #F30000",
" ^ c #F9BEBE",
" / c #FEB9B9",
" ( c #FFFFFF",
" ) c #DF0000",
" _ c #F53D3D",
" ` c #FBFBFB",
" ' c #F10B0B",
" ] c #F9F9F9",
" [ c #F7F7F7",
" { c #F5F5F5",
" } c #F1F1F1",
" | c #FCA3A3",
".  c #EFEFEF",
".. c #EDEDED",
".X c #EBEBEB",
".o c #F10F0E",
".O c #E9E9E9",
".+ c #E7E7E7",
".@ c #E5E5E5",
".# c #F41E1E",
".$ c #F79494",
".% c #E3E3E3",
".& c #E1E1E1",
".* c #FEEDED",
".= c #DFDFDF",
".- c #ED0000",
".; c #DDDDDD",
".: c #D9D9D9",
".> c #D7D7D7",
"., c #F86A6A",
".< c #F75252",
".1 c #D5D5D5",
".2 c #FD6565",
".3 c #F6F2F2",
".4 c #FD5151",
".5 c #FC6767",
".6 c #FB0000",
".7 c #FD5E5E",
".8 c #F31919",
".9 c #F22F2F",
".0 c #FA4444",
".q c #E70000",
".w c #FBA0A1",
".e c #FA5151",
".r c None",
/* pixels */
" } } } } } Z. .....X.O.+.@.%.&.=",
" } ( ( q q.* c T w w ` r ] t [.;",
" } ( q & A.7 s.5 b r ] t [ u [.:",
" } q x E N.4 , =   : t [ u { u.>",
" } q k N J , p z o < [ u { i {.1",
".2 / F C |.w v 4 O.$ L m 9 2 y $",
" 7 j . e ` r ] t [ X H R.8 @ > h",
".6 B S ! r ] t [.3 U R.8 @ Y * )",
" K %.0.e ^ f 5 6 d.#.8 1.o '.9 )",
" g D - 0 3., a.< I _ Q W V.9 l M",
" + ~ n ;.-.- G 8.q P h # ) M M M"
};
