/* XPM */
const char *icon_famfamfam_flags_gn[] = {
/* width height ncolors chars_per_pixel */
"16 11 145 2",
/* colors */
"   c #F7F72F",
" . c #FCF14B",
" X c #F7F746",
" o c #CBDB00",
" O c #F50000",
" + c #FAFA42",
" @ c #FC6666",
" # c #EEF436",
" $ c #F6F62A",
" % c #FBF046",
" & c #5CBB5C",
" * c #F9F93A",
" = c #EDD500",
" - c #F9ED3A",
" ; c #53B753",
" : c #FA5D5D",
" > c #EF0000",
" , c #FBFB00",
" < c #44AF44",
" 1 c #3FAD3F",
" 2 c #37AB37",
" 3 c #E7E700",
" 4 c #EAF024",
" 5 c #31A931",
" 6 c #32A532",
" 7 c #F95455",
" 8 c #F8F835",
" 9 c #2BA52B",
" 0 c #FD0000",
" q c #FDF251",
" w c #209F20",
" e c #1F9F1F",
" r c #F95858",
" t c #149914",
" y c #139913",
" u c #109710",
" i c #FDF254",
" p c #0B950B",
" a c #F7F730",
" s c #FB4A49",
" d c #F70000",
" f c #FE5959",
" g c #FD6F6F",
" h c #FAFA40",
" j c #33A632",
" k c #006500",
" l c #FAEE40",
" z c #005F00",
" x c #005900",
" c c #005500",
" v c #005100",
" b c #004900",
" n c #004300",
" m c #003D00",
" M c #003700",
" N c #E7EE19",
" B c #003100",
" V c #002D00",
" C c #002B00",
" Z c #002900",
" A c #002700",
" S c #002300",
" D c #FE5F5F",
" F c #002100",
" G c #FB4545",
" H c #F10000",
" J c #F6F642",
" K c #FD5454",
" L c #F9F93B",
" P c #FDFD00",
" I c #FC6A6A",
" U c #FF7B7A",
" Y c #FDEB00",
" T c #FE7979",
" R c #FCFC4B",
" E c #F5F523",
" W c #E9E900",
" Q c #FE5858",
" ! c #FDFD6D",
" ~ c #FF0000",
" ^ c #FB6162",
" / c #EAF039",
" ( c #FCFC65",
" ) c #F5F53D",
" _ c #F8F836",
" ` c #FD4F50",
" ' c #FC4F4F",
" ] c #FBFB46",
" [ c #F4F41E",
" { c #FEF574",
" } c #FD5353",
" | c #F7F72E",
".  c #F90000",
".. c #4EB44E",
".X c #F8EE50",
".o c #49B249",
".O c #E8EF1F",
".+ c #EFF53D",
".@ c #FC4A4B",
".# c #3BAA3B",
".$ c #ECF230",
".% c #36A836",
".& c #35A835",
".* c #FAFA41",
".= c #FA3F3F",
".- c #31A831",
".; c #2FA42F",
".: c #2CA62C",
".> c #2CA22C",
"., c #FDFD51",
".< c #26A226",
".1 c #F6F629",
".2 c #25A225",
".3 c #F30000",
".4 c #F7F74B",
".5 c #1A9C1A",
".6 c #199C19",
".7 c #58B957",
".8 c #149A14",
".9 c #FE7777",
".0 c #EBEB00",
".q c #EBF12B",
".w c #F9F93C",
".e c #F93A3A",
".r c #FF7B7B",
".t c #F2F760",
".y c #FB4949",
".u c #FCFC4C",
".i c #F5F524",
".p c #ED0000",
".a c #F8F834",
".s c #F9F900",
".d c #F8EC34",
".f c #FE5C5C",
".g c #E5EF00",
".h c #FE7273",
".j c #FDFD71",
".k c #E5E500",
".l c #FB0000",
".z c #0F970E",
".x c #FE7676",
".c c #FBFB47",
".v c #FA4444",
".b c #FCFC69",
".n c None",
/* pixels */
" ~ ~ ~ ~ 0 Y P P ,.s.g k z x c v",
" ~.r.r T.9 {.j !.b (.t &.7 ;.. b",
" ~ U D.f f i.,.u.c +.+ 2 5.:.o n",
" ~ T.f f K q R.c +.w #.- 9.< < m",
" 0.x Q K ` . ].*.w _.$ 9.2 w 1 M",
" 0.h } '.@ % h L _ a.q.2 e.5.# B",
" 0 g ' s G l * 8   $ 4 e.6.8.% V",
".l I.y G.= -.a   $.i.O.6 t u j Z",
".  @.v.=.e.d |.1 E [ N y.z p.; S",
" d ^ : r 7.X.4 X J ) /.& 6.;.> F",
" O.3 H >.p =.0 W 3.k o C A S F S"
};
