/* XPM */
const char *icon_famfamfam_flags_gq[] = {
/* width height ncolors chars_per_pixel */
"16 11 158 2",
/* colors */
"   c #BFC1C2",
" . c #E1E0E0",
" X c #AB0000",
" o c #D74C4C",
" O c #CC1D1D",
" + c #79C979",
" @ c #D85050",
" # c #DF6364",
" $ c #8FC5FC",
" % c #74C774",
" & c #DDD7D5",
" * c #0D87FD",
" = c #CD0000",
" - c #6DC36D",
" ; c #E9F7FB",
" : c #B90000",
" > c #D95454",
" , c #A50000",
" < c #5FBD5F",
" 1 c #D8DCDD",
" 2 c #5CBB5C",
" 3 c #E46F6F",
" 4 c #54B754",
" 5 c #53B753",
" 6 c #F4F5F5",
" 7 c #4CB34C",
" 8 c #80BEFD",
" 9 c #42AD42",
" 0 c #0783FD",
" q c #B30000",
" w c #98C9FA",
" e c #37A737",
" r c #DE4C4B",
" t c #DB4848",
" y c #2CA12C",
" u c #F9F6F6",
" i c #99CBFE",
" p c #007DF9",
" a c #F3F0F0",
" s c #F1EEEE",
" d c #61BE60",
" f c #FDFCFD",
" g c #FCFCFC",
" h c #90C38B",
" j c #F9FCF9",
" k c #FAFAFA",
" l c #F7FAF7",
" z c #F8F8F8",
" x c #F5F8F5",
" c c #F6F6F6",
" v c #E26C6C",
" b c #8ABF85",
" n c #F3F6F3",
" m c #F4F4F4",
" M c #D73D3D",
" N c #F1F4F1",
" B c #F2F2F2",
" V c #990000",
" C c #008900",
" Z c #008700",
" A c #008300",
" S c #008100",
" D c #007D00",
" F c #007900",
" G c #DEDEDE",
" H c #007500",
" J c #007100",
" K c #006D00",
" L c #1187FF",
" P c #006700",
" I c #006300",
" U c #006100",
" Y c #005D00",
" T c #F9F5F5",
" R c #004D00",
" E c #004300",
" W c #F1EDED",
" Q c #70C571",
" ! c #D44343",
" ~ c #D12929",
" ^ c #F4F7F3",
" / c #9ACDF7",
" ( c #DD5C5C",
" ) c #9EA5D0",
" _ c #F1F6FD",
" ` c #1389DF",
" ' c #005FDD",
" ] c #D73535",
" [ c #A10000",
" { c #CE201F",
" } c #88C1FC",
" | c #9BCDFE",
".  c #D33E3E",
".. c #7BCA7B",
".X c #91C8FE",
".o c #77C877",
".O c #1589FB",
".+ c #A1D0FD",
".@ c #037FFD",
".# c #69C269",
".$ c #E16869",
".% c #65C065",
".& c #AF0000",
".* c #F9F0B8",
".= c #9B0000",
".- c #5CBA5C",
".; c #D54646",
".: c #59B859",
".> c #51B451",
"., c #4EB44E",
".< c #49AE49",
".1 c #D64A4A",
".2 c #47B047",
".3 c #BD0000",
".4 c #3DAA3D",
".5 c #A90000",
".6 c #31A431",
".7 c #91BEF3",
".8 c #FAF7F7",
".9 c #7CBBFC",
".0 c #DEE2E2",
".q c #F4F1F1",
".w c #F2EFEF",
".e c #F8EFB6",
".r c #FBFBFB",
".t c #F9FBF9",
".y c #F8FBF8",
".u c #58B957",
".i c #F7F7F7",
".p c #BDC4BE",
".a c #F5F5F5",
".s c #B70000",
".d c #F2F5F2",
".f c #F3F3F3",
".g c #A30000",
".h c #C5C8C9",
".j c #E7E7E7",
".k c #D94242",
".l c #E5E5E5",
".z c #E3E3E3",
".x c #DFE5DF",
".c c #0071F5",
".v c #88C3FD",
".b c #DD6060",
".n c #E05959",
".m c #F8F4F4",
".M c #CF2424",
".N c #D73939",
".B c #F2EEEE",
".V c #9D0000",
".C c #8FCAE9",
".Z c #DB5757",
".A c #007BFB",
".S c #B9BFB9",
".D c #1589FF",
".F c #83BFFE",
".G c #D32E2E",
".H c None",
/* pixels */
" ` C C C Z A S D F H J K P I Y U",
".O.C.. +.o % Q -.#.% d 2.u 5., R",
".D / <.-.: 4.> 7.2 9.4 e.6 y.< E",
" L |.+ j.t.y l.*.e x ^ n.d N.d.x",
" * i.F _ f g.r h b z.i c.a m.a.j",
" 0.X 8 } g.r k.p.S.i c.a m.f 6.l",
".@.v.9 ;.r k.0.h   1.a m.f B m.z",
".A $ w.8 u T.m . G.q a.B s W.w &",
" p.7.n r t.k M.N ].G ~.M { O.  V",
".c ) 3 v.$ #.b (.Z > @ o.1.; !.=",
" ' =.3 :.s q.& X.5 ,.g [.V.= V.V"
};
