/* XPM */
const char *icon_famfamfam_flags_gr[] = {
/* width height ncolors chars_per_pixel */
"16 11 152 2",
/* colors */
"   c #F6F6F8",
" . c #4F73D5",
" X c #BBC7E9",
" o c #F1F2F3",
" O c #F0F0F2",
" + c #E9EDF5",
" @ c #0023B9",
" # c #97AAE0",
" $ c #E6E9F2",
" % c #95A8DE",
" & c #073BC3",
" * c #E4E7F0",
" = c #A3B5E5",
" - c #F2F4F7",
" ; c #CFD7EF",
" : c #00009B",
" > c #C2CCEC",
" , c #C0CCEA",
" < c #889FDE",
" 1 c #002FBF",
" 2 c #BDC8E7",
" 3 c #000087",
" 4 c #9DAFE2",
" 5 c #A9BAE7",
" 6 c #F9F9FA",
" 7 c #3760CD",
" 8 c #BECAEB",
" 9 c #8184CD",
" 0 c #0018A1",
" q c #F3F3F4",
" w c #0001AB",
" e c #E8EAF3",
" r c #F8F9FC",
" t c #E2E4ED",
" y c #4D72D5",
" u c #335CCC",
" i c #3F67D1",
" p c #D2D6DD",
" a c #8BA2E0",
" s c #C2CDEB",
" d c #8FA3DA",
" f c #F3F5FA",
" g c #D9DFF1",
" h c #EDEFF4",
" j c #0000A7",
" k c #FEFEFE",
" l c #FCFCFC",
" z c #3961CE",
" x c #C0CBEC",
" c c #375FCC",
" v c #000093",
" b c #EEF1F8",
" n c #C8CAD6",
" m c #093DC3",
" M c #92A7E3",
" N c #001DB7",
" B c #F9FAFC",
" V c #A6B7E6",
" C c #F5F6F8",
" Z c #4D71D4",
" A c #E2E2E2",
" S c #C5D0ED",
" D c #E2E5EF",
" F c #C4CEEC",
" G c #E0E3ED",
" H c #F3F4F9",
" J c #8182C8",
" K c #F0F2F6",
" L c #0029BD",
" P c #EFF0F5",
" I c #EEF0F4",
" U c #ECEEF2",
" Y c #0335C3",
" T c #BFCAEA",
" R c #BECAE9",
" E c #00009F",
" W c #F7F7F9",
" Q c #F5F5F7",
" ! c #BCC8EA",
" ~ c #00008B",
" ^ c #B8C4E6",
" / c #E8ECF4",
" ( c #E5E8F1",
" ) c #F7F9FC",
" _ c #000FAF",
" ` c #315ACB",
" ' c #B7C4E8",
" ] c #9BACDD",
" [ c #B3C0E4",
" { c #3D65D0",
" } c #3C63CF",
" | c #000091",
".  c #B9C6ED",
".. c #2B56C8",
".X c #0D3FC5",
".o c #0A34A1",
".O c #AAB0C7",
".+ c #FAFAFB",
".@ c #F8F8F9",
".# c #F4F4F5",
".$ c #899FD8",
".% c #849CDD",
".& c #BBC7E8",
".* c #F2F2F3",
".= c #BAC5E7",
".- c #F0F0F1",
".; c #EBEDF6",
".: c #0000AB",
".> c #97AADF",
"., c #093BC4",
".< c #8FA5E1",
".1 c #F7F8FB",
".2 c #000097",
".3 c #4C71D4",
".4 c #B9C5E9",
".5 c #8098DC",
".6 c #B6C3E6",
".7 c #B5C1E5",
".8 c #E8E8EC",
".9 c #2D57C9",
".0 c #FFFFFF",
".q c #7A92D9",
".w c #FDFDFD",
".e c #FBFBFB",
".r c #0035C1",
".t c #5876C8",
".y c #D0D0D4",
".u c #BDC8E9",
".i c #EDF0F7",
".p c #EDEEF7",
".a c #9AADE1",
".s c #F7F7FA",
".d c #8CA2DD",
".f c #F6F7F9",
".g c #355ECD",
".h c #F4F5F7",
".j c #0007AD",
".k c #0000A3",
".l c #E3E6F0",
".z c #92A5DC",
".x c #D5D5D5",
".c c #00008F",
".v c #F2F3F8",
".b c #F1F3F7",
".n c #A0B2E3",
".m c #2F58CA",
".M c #B5C2E7",
".N c #7C95DA",
".B c #0017B3",
".V c #8CA1D9",
".C c #0721A9",
".Z c None",
/* pixels */
".X.X.x.x m.,.r 1 L @ N.B _.j w j",
".X ..0 k y Z B r ).1.s.f C.h - p",
" A.0 k k k.w > x 8 ! X.4 '.M R 9",
" A k k k.w.w M.< a <.%.5.N.q.d 0",
" & y k.w i { f H.v.b K P h U I n",
" Y.3.w l { } z 7.g u `.m.9.. c.C",
".8 l.e.+ 6.@ W   Q.# q o O.-.*.y",
" # ; S F s , T.u.&.= ^.6.7 [ 2 J",
".t.  5 V =.n 4.a.> %.z d.V.$ ].o",
" g b.i.p.; + / e $ ( *.l D t G.O",
".B _.j.: j.k E :.2 v |.c ~ ~ 3 3"
};
