/* XPM */
const char *icon_famfamfam_flags_gt[] = {
/* width height ncolors chars_per_pixel */
"16 11 138 2",
/* colors */
"   c #629EF8",
" . c #4289F3",
" X c #004DFB",
" o c #2E7DF3",
" O c #6BA5FA",
" + c #F8FAFD",
" @ c #458DF9",
" # c #438BF7",
" $ c #2376F2",
" % c #5A9BFD",
" & c #5E9CF7",
" * c #D9DDE5",
" = c #74AAFC",
" - c #68A3FA",
" ; c #0009E7",
" : c #F0F4F8",
" > c #CBCFD7",
" , c #EFF2F7",
" < c #0003E7",
" 1 c #7CAFFD",
" 2 c #3482F5",
" 3 c #0000DD",
" 4 c #FDFDFE",
" 5 c #5E9EFD",
" 6 c #0019ED",
" 7 c #FAFBFE",
" 8 c #66A3FE",
" 9 c #2375F1",
" 0 c #3883F5",
" q c #0000E3",
" w c #0033F3",
" e c #0031F3",
" r c #EDEFF4",
" t c #3481F4",
" y c #6AA6FE",
" u c #FCFCFC",
" i c #FAFAFA",
" p c #297AF3",
" a c #F8F8F8",
" s c #85B5FE",
" d c #F6F6F6",
" f c #F4F4F4",
" g c #5999F7",
" h c #0047F9",
" j c #0367FF",
" k c #E3E7ED",
" l c #82B3FE",
" z c #4087F2",
" x c #5A9BFB",
" c c #5094FB",
" v c #005FFF",
" b c #005DFF",
" n c #005BFF",
" m c #F6F8FC",
" M c #63A0FD",
" N c #F4F6FA",
" B c #F2F4F8",
" V c #7FB1FE",
" C c #66A1F9",
" Z c #5F9EFC",
" A c #3F89F7",
" S c #5597FC",
" D c #5497FB",
" F c #EBEEF4",
" G c #EAEEF3",
" H c #3280F4",
" J c #6FA8FB",
" K c #0015EB",
" L c #428AF3",
" P c #0000E1",
" I c #4B8FF5",
" U c #BBC1CB",
" Y c #F3F5F8",
" T c #002DF1",
" R c #62A1FE",
" E c #478DF4",
" W c #F1F5F9",
" Q c #1F73F1",
" ! c #EEF1F6",
" ~ c #003DF7",
" ^ c #84B5FE",
" / c #78AEFC",
" ( c #458DF8",
" ) c #0059FD",
" _ c #2476F2",
" ` c #0055FD",
" ' c #0053FD",
" ] c #0051FD",
" [ c #599BFB",
" { c #3986F6",
" } c #5E9CF9",
" | c #5597FA",
".  c #FDFDFD",
".. c #5093F5",
".X c #4B90FA",
".o c #6AA5FE",
".O c #FBFBFB",
".+ c #F9F9F9",
".@ c #2879F2",
".# c #0011E9",
".$ c #F7F7F7",
".% c #448AF3",
".& c #5E9EFC",
".* c #F5F5F5",
".= c #3D87F6",
".- c #0000DF",
".; c #EBEBEB",
".: c #E9E9E9",
".> c #67A3FE",
"., c #E7E7E7",
".< c #002DEF",
".1 c #3985F5",
".2 c #0025EF",
".3 c #0023EF",
".4 c #5596F6",
".5 c #4F93FA",
".6 c #6EA8FE",
".7 c #2E7EF4",
".8 c #2D7CF3",
".9 c #D7D7D7",
".0 c #F7F9FD",
".q c #63A1FD",
".w c #F5F7FB",
".e c #D3D3D3",
".r c #F3F5F9",
".t c #7FB2FE",
".y c #D1D1D1",
".u c #CFCFCF",
".i c #3D86F2",
".p c #0000E5",
".a c #0045F5",
".s c #297AF2",
".d c #87B7FF",
".f c #0035F5",
".g c #66A2F9",
".h c #3E88F6",
".j c #ECEFF5",
".k c None",
/* pixels */
" j v v b ' k.;.:.:., *.f e T.2.<",
" n.d.d ^ V 7 4.  u u.w - C   & K",
" v.d.6.o R +.  u.O i W ( #.h g.#",
" b s y.> 5.0 u.O i.+ : A.=.1.4 ;",
" ) l 8.q % m.O i.+ a , { 0 t.. <",
" `.t M.& S.w i.+ a.$ ! 2 H o I.p",
" ] 1 Z [ c N.+ a.$ d.j.7.8.s E q",
" X / x D.X.r a.$ d.* F p.@ _.%.-",
" h = |.5 @ B.$ d.* f G $ 9 Q z.-",
" ~ J O.g } Y.$.$ d.* r L . z.i 3",
".a w T.3 6 >.9.e.y.u U P.- 3 3 3"
};
