/* XPM */
const char *icon_famfamfam_flags_gw[] = {
/* width height ncolors chars_per_pixel */
"16 11 152 2",
/* colors */
"   c #FCF14B",
" . c #9DD840",
" X c #D44A49",
" o c #F3CB00",
" O c #F3C900",
" + c #FB4A4B",
" @ c #DC5454",
" # c #F50000",
" $ c #F7F749",
" % c #FAFA42",
" & c #DFAD00",
" * c #FC6666",
" = c #94CF30",
" - c #F57676",
" ; c #FAFA5C",
" : c #97D136",
" > c #47A63A",
" , c #EDC100",
" < c #FA5D5D",
" 1 c #EF0000",
" 2 c #4BB34B",
" 3 c #F6F644",
" 4 c #F9F93D",
" 5 c #664F4F",
" 6 c #F5F525",
" 7 c #39A939",
" 8 c #34AB34",
" 9 c #32A532",
" 0 c #2FA72F",
" q c #F95455",
" w c #2CA32C",
" e c #2AA52A",
" r c #F9F957",
" t c #FD0000",
" y c #24A324",
" u c #FD5C5C",
" i c #1F9F1F",
" p c #E7B700",
" a c #F95858",
" s c #199D19",
" d c #F5F53F",
" f c #149914",
" g c #139913",
" h c #109710",
" j c #FDF254",
" k c #0B950B",
" l c #F4F420",
" z c #F7F730",
" x c #3BAE3A",
" c c #F70000",
" v c #FE5959",
" b c #33A632",
" n c #118F00",
" m c #8ECB25",
" M c #E1B100",
" N c #004700",
" B c #004100",
" V c #003D00",
" C c #003B00",
" Z c #003900",
" A c #003500",
" S c #003300",
" D c #003100",
" F c #002F00",
" G c #002D00",
" H c #002700",
" J c #F6F62B",
" K c #5B5353",
" L c #EFC500",
" P c #002500",
" I c #002300",
" U c #FE5F5F",
" Y c #FB4545",
" T c #F10000",
" R c #FD5454",
" E c #FC6A6A",
" W c #FF7B7A",
" Q c #87C81A",
" ! c #FE7979",
" ~ c #DBA500",
" ^ c #FCFC4B",
" / c #FDFD6D",
" ( c #98CF3B",
" ) c #8D7273",
" _ c #FF0000",
" ` c #FB6162",
" ' c #654F4F",
" ] c #F5F526",
" [ c #E9BB00",
" { c #FCFC65",
" } c #F8F836",
" | c #FBFB46",
".  c #FEF574",
".. c #A7D046",
".X c #189D19",
".o c #F90000",
".O c #41A334",
".+ c #6F5858",
".@ c #46B046",
".# c #FBFB60",
".$ c #42AE42",
".% c #F7F731",
".& c #3DAC3D",
".* c #F8F853",
".= c #35AA35",
".- c #36A836",
".; c #35A835",
".: c #FAFA41",
".> c #FA3F3F",
"., c #2FA82F",
".< c #2EA82E",
".1 c #2FA42F",
".2 c #29A429",
".3 c #F1C700",
".4 c #FDFD51",
".5 c #24A224",
".6 c #23A223",
".7 c #F30000",
".8 c #FDF151",
".9 c #1FA01F",
".0 c #1EA01E",
".q c #90CD2B",
".w c #199C19",
".e c #149A14",
".r c #DDA900",
".t c #F6F62C",
".y c #FE7777",
".u c #5BAE50",
".i c #F7F74E",
".p c #F66F6F",
".a c #F9F93C",
".s c #F93A3A",
".d c #8BCA1F",
".f c #9AD33B",
".g c #4BA840",
".h c #FF7B7B",
".j c #FB4949",
".k c #FCFC4C",
".l c #EBBF00",
".z c #ED0000",
".x c #D7A100",
".c c #FE5C5C",
".v c #FDFD71",
".b c #F8F837",
".n c #FC4F50",
".m c #FB0000",
".M c #0F970E",
".N c #FBFB47",
".B c #FA4444",
".V c #E5B500",
".C c #FCFC69",
".Z c None",
/* pixels */
" _ _ _ _ t O o.3 L L ,.l [ p.V M",
" _.h.h !.y. .v /.C {.# ; r.*.i &",
" _ W U.c v j.4.k.N % 4.b.%.t $.r",
" _ ! u v R.8 ^.N %.a }.% J ] 3 ~",
" t -.+ @.n   |.:.a } z J 6 l d.x",
" t ) K 5 +.. ..f : =.q m.d Q ( n",
" t.p ' X Y.g x.=., e.5 i.w.e.- G",
".m E.j Y.> > 8 0 e y.9 s f h b D",
".o *.B.>.s.O.<.2.6.0.X g.M k.1 P",
" c ` < a q.u 2.@.$.& 7.; 9.1 w H",
" #.7 T 1.z C N N B V Z S F G I A"
};
