/* XPM */
const char *icon_famfamfam_flags_gy[] = {
/* width height ncolors chars_per_pixel */
"16 11 165 2",
/* colors */
"   c #83833B",
" . c #F7F72F",
" X c #8D907D",
" o c #47B152",
" O c #FBFB75",
" + c #7AC377",
" @ c #F7F75D",
" # c #F8F8BE",
" $ c #F0F3C0",
" % c #42AE46",
" & c #F4F43C",
" * c #CD0000",
" = c #39A747",
" - c #B57779",
" ; c #65BF65",
" : c #150900",
" > c #EFF2B8",
" , c #5CBB5C",
" < c #189619",
" 1 c #B0A163",
" 2 c #D5E7BC",
" 3 c #B24F4B",
" 4 c #53B753",
" 5 c #DAF1D8",
" 6 c #9E8B3A",
" 7 c #CAD051",
" 8 c #82C881",
" 9 c #3DAB3D",
" 0 c #3DA93D",
" q c #F5F525",
" w c #39A939",
" e c #F64545",
" r c #EDF9DD",
" t c #32A532",
" y c #73BF68",
" u c #FD0000",
" i c #E2EEC8",
" p c #61BE60",
" a c #FB4646",
" s c #0B950B",
" d c #70C475",
" f c #009300",
" g c #D8EAC1",
" h c #6D6241",
" j c #F7F730",
" k c #008900",
" l c #FCFC56",
" z c #C1605F",
" x c #FB4A49",
" c c #007F00",
" v c #007D00",
" b c #007900",
" n c #007700",
" m c #6B4E3F",
" M c #15AB1B",
" N c #007500",
" B c #007100",
" V c #FD6F6F",
" C c #006D00",
" Z c #FCFDCD",
" A c #33A432",
" S c #006700",
" D c #006300",
" F c #D94545",
" G c #006100",
" H c #CAE8CA",
" J c #005D00",
" K c #005700",
" L c #004D00",
" P c #004B00",
" I c #BA4444",
" U c #004700",
" Y c #004500",
" T c #004300",
" R c #004100",
" E c #003D00",
" W c #003B00",
" Q c #003900",
" ! c #E8EFE4",
" ~ c #003500",
" ^ c #003300",
" / c #002F00",
" ( c #FB6666",
" ) c #002D00",
" _ c #002900",
" ` c #002700",
" ' c #F6F62B",
" ] c #0F960E",
" [ c #8ACF91",
" { c #E2E335",
" } c #FD5454",
" | c #FC6A6A",
".  c #000100",
".. c #FE7979",
".X c #FE5858",
".o c #E6EC5D",
".O c #71C178",
".+ c #E6F3D4",
".@ c #FC7B7A",
".# c #FF0000",
".$ c #39391D",
".% c #777046",
".& c #DCEDCA",
".* c #744040",
".= c #14981C",
".- c #FC4F4F",
".; c #D3E7C1",
".: c #6DC06D",
".> c #C19192",
"., c #69C069",
".< c #D1EACC",
".1 c #FD5353",
".2 c #2BA32F",
".3 c #DB5959",
".4 c #E8F4D2",
".5 c #55B455",
".6 c #F90000",
".7 c #F2F5BE",
".8 c #4EB44E",
".9 c #F7F7AF",
".0 c #49B249",
".q c #F8F83C",
".w c #46AC46",
".e c #44AE44",
".r c #42AC42",
".t c #FC4A4B",
".y c #E9EA41",
".u c #37AA37",
".i c #1E9D25",
".p c #35A835",
".a c #31A831",
".s c #F3F3D9",
".d c #2FA42F",
".f c #2CA62C",
".g c #2CA22C",
".h c #F44F50",
".j c #269E26",
".k c #BAC03A",
".l c #58B957",
".z c #71C069",
".x c #139613",
".c c #53B352",
".v c #109210",
".b c #4CB255",
".n c #794040",
".m c #F8F845",
".M c #F1F67D",
".N c #F9F93C",
".B c #CDD5B3",
".V c #FB4949",
".C c #A27554",
".Z c #C1E1BE",
".A c #44AE50",
".S c #F5F5A5",
".D c #39A845",
".F c #FE5C5C",
".G c #FE7273",
".H c #F6F635",
".J c #F5F8C9",
".K c #FB0000",
".L c #FE7676",
".P c #5DBB68",
".I c #D30000",
".U c #F4F636",
".Y c None",
/* pixels */
".$ = M k c v v b N B C S D J K K",
".I.>.B r 5 [ d.:., ; p ,.l 4.8 P",
".#.@ z 1.M Z.+ H.P % 0.u.a.f.0 Y",
".#...F.3.C 7 l O.J.& 8 o.2.j.e R",
" u.L.X }.h 3.%.y.N.m.9 $.;.z.5 T",
" u.G.1.-.t a.*  .U j ' q &.s ! n",
" u V.- x e.n 6 { ..H.S > 2 y.c W",
".K |.V F m.k.q @.7 g +.D.=.v A /",
".6 ( I h.o # i.Z.A.i <.x ] s.d )",
" * - X.4.<.O.b.w.r 9 w.p t.d.g `",
" :.  f G L P P U R E Q ^ / ) _ ~"
};
