/* XPM */
const char *icon_famfamfam_flags_hk[] = {
/* width height ncolors chars_per_pixel */
"16 11 136 2",
/* colors */
"   c #E73B3B",
" . c #EE3838",
" X c #BF0000",
" o c #F57B7A",
" O c #EF5D5D",
" + c #EE4545",
" @ c #F7CECE",
" # c #E22C2C",
" $ c #E83F3F",
" % c #F9C5C6",
" & c #EC5050",
" * c #EB3838",
" = c #EF4949",
" - c #E41A1A",
" ; c #E10000",
" : c #F37071",
" > c #F15858",
" , c #CD0000",
" < c #F24F4F",
" 1 c #FBAAAA",
" 2 c #F16565",
" 3 c #DF0B0B",
" 4 c #E63636",
" 5 c #EB3131",
" 6 c #F37474",
" 7 c #F25C5C",
" 8 c #EE5858",
" 9 c #F55555",
" 0 c #F35353",
" q c #FB9696",
" w c #F8D8D8",
" e c #EB4B4B",
" r c #E83131",
" t c #EF5C5C",
" y c #EE4444",
" u c #DB0000",
" i c #E11313",
" p c #F25555",
" a c #F05353",
" s c #C70000",
" d c #E52424",
" f c #F06060",
" g c #E32F2F",
" h c #F26F6F",
" j c #ED5353",
" k c #E63535",
" l c #E90000",
" z c #D50000",
" x c #EE5757",
" c c #C10000",
" v c #E41F1F",
" b c #F47777",
" n c #F35F5F",
" m c #F25454",
" M c #F57B7B",
" N c #EC4E4E",
" B c #E30000",
" V c #F7CECF",
" C c #F15656",
" Z c #CF0000",
" A c #BB0000",
" S c #F06162",
" D c #FAECEC",
" F c #E43232",
" G c #E72B2B",
" H c #EC3E3D",
" J c #ED5455",
" K c #E10F0E",
" L c #F47676",
" P c #FACDCE",
" I c #EC4040",
" U c #C90000",
" Y c #F05151",
" T c #F26D6D",
" R c #E62626",
" E c #F67E7E",
" W c #EA3737",
" Q c #EF4A49",
" ! c #FABDBD",
" ~ c #EB0000",
" ^ c #E31919",
" / c #E92C2C",
" ( c #D70000",
" ) c #E84242",
" _ c #F35050",
" ` c #C30000",
" ' c #F26666",
" ] c #EF4A4C",
" [ c #E21B1B",
" { c #E94646",
" } c #EC3F3F",
" | c #E11010",
".  c #E63939",
".. c #F57979",
".X c #E50000",
".o c #E21414",
".O c #F35656",
".+ c #D10000",
".@ c #F15454",
".# c #E73D3D",
".$ c #E62525",
".% c #EC3838",
".& c #BD0000",
".* c #F7C3C3",
".= c #F8D0D1",
".- c #EB3A3A",
".; c #FBC0C0",
".: c #FBEEEE",
".> c #F37273",
"., c #DF0000",
".< c #CB0000",
".1 c #EB3C3D",
".2 c #F04F4F",
".3 c #F9AAAA",
".4 c #E52020",
".5 c #FC8B8C",
".6 c #EA4949",
".7 c #E93131",
".8 c #FCD1D1",
".9 c #ED4242",
".0 c #F5E1E1",
".q c #F6D8D8",
".w c #ED0000",
".e c #F8E7E7",
".r c #D90000",
".t c #EA2E2E",
".y c #E94444",
".u c #F15959",
".i c #E82C2C",
".p c #F8A7A8",
".a c #F68F8F",
".s c #E70000",
".d c #F99E9F",
".f c #F7CACB",
".g c #F26A6A",
".h c None",
/* pixels */
".w ~ ~ ~ l l.s.X B ;., u u ( z (",
" l M M.. b 6 : T.g 2 f t x j N Z",
" ~ o n 7.u.@ Y.5 q.9.1 W.7.i.6 Z",
" ~.. 7.u C.O m.: ! 9 H r G R.y.<",
" l L >.@ p.8.; P %.e @.%.$.4 $ U",
" l.> a.2 ] 1 D.d.p.* E.t v -   s",
".s h.2 Q + I.3.= V.q / v ^.o 4 `",
".X.g = + } < w.f.a.0 . ^.o | F c",
" B ' y }.- * _ 5 d 0 [ i K 3 g X",
"., S O 8 J & e { ).#.  k F g # A",
" ; u.r ( z.+ Z , U s ` ` c X.& `"
};
