/* XPM */
const char *icon_famfamfam_flags_hm[] = {
/* width height ncolors chars_per_pixel */
"16 11 167 2",
/* colors */
"   c #B3BCD4",
" . c #697FB3",
" X c #A9B5D4",
" o c #355297",
" O c #E26564",
" + c #000017",
" @ c #909EC2",
" # c #753D69",
" $ c #000003",
" % c #000059",
" & c #A1A2C2",
" * c #778EBD",
" = c #1B3B87",
" - c #E68E8F",
" ; c #E7716F",
" : c #3D599B",
" > c #E17F80",
" , c #B38298",
" < c #475E9E",
" 1 c #C9D0E2",
" 2 c #C8D0E1",
" 3 c #00005F",
" 4 c #CA8794",
" 5 c #94A3C5",
" 6 c #22408A",
" 7 c #254183",
" 8 c #355196",
" 9 c #A5B2CF",
" 0 c #4862A2",
" q c #000037",
" w c #576FAA",
" e c #C4CCE0",
" r c #E5DDE6",
" t c #7589BA",
" y c #304D94",
" u c #00000F",
" i c #8D9BC1",
" p c #E8B9BE",
" a c #DEB8BE",
" s c #4C6CAC",
" d c #E46C6B",
" f c #000051",
" g c #49639F",
" h c #5D74AC",
" j c #BAC2D9",
" k c #912541",
" l c #5B72AA",
" z c #5A72A9",
" x c #C77783",
" c c #877FA7",
" v c #28478F",
" b c #576AA6",
" n c #B77187",
" m c #000029",
" M c #9A89A9",
" N c #4B4D8D",
" B c #455F9E",
" V c #5271AE",
" C c #E8CCD1",
" Z c #A490AC",
" A c #667BB1",
" S c #E97A79",
" D c #F1A7A5",
" F c #778ABB",
" G c #325095",
" H c #8F9EC2",
" J c #314E94",
" K c #8D2743",
" L c #445FA0",
" P c #00002F",
" I c #3C5798",
" U c #AEB8D3",
" Y c #5068A5",
" T c #EDD8DC",
" R c #00001B",
" E c #7186B8",
" W c #003795",
" Q c #6F84B6",
" ! c #9DABCC",
" ~ c #B6BFD4",
" ^ c #29468F",
" / c #000049",
" ( c #435C9B",
" ) c #000035",
" _ c #697EB3",
" ` c #C3CADD",
" ' c #355197",
" ] c #00000D",
" [ c #000063",
" { c #5069A4",
" } c #8A749B",
" | c #002387",
".  c #7285B8",
".. c #00003B",
".X c #405C9E",
".o c #6D81B3",
".O c #3E5A9C",
".+ c #97A4C5",
".@ c #4C65A3",
".# c #000B73",
".$ c #4A63A1",
".% c #000013",
".& c #BAC4DA",
".* c #5D74AD",
".= c #48619F",
".- c #DB8C91",
".; c #9AA8CB",
".: c #E28284",
".> c #385499",
"., c #365297",
".< c #7F89B7",
".1 c #A6B3D0",
".2 c #000041",
".3 c #9495BB",
".4 c #5870AB",
".5 c #435D9D",
".6 c #556EA8",
".7 c #40599A",
".8 c #00002D",
".9 c #536AA6",
".0 c #94A4C8",
".q c #203F8B",
".w c #000019",
".e c #CD0909",
".r c #6B4575",
".t c #000005",
".y c #405B9D",
".u c #00005B",
".i c #ACB6D2",
".p c #DDACB3",
".a c #7086B8",
".s c #405DA0",
".d c #5A71A9",
".f c #9AA9CA",
".g c #4F6AA8",
".h c #00001F",
".j c #5A7AB6",
".k c #D6666A",
".l c #4962A2",
".z c #F1A4A2",
".x c #445E9D",
".c c #5F6EA7",
".v c #B2BBD4",
".b c #E0E2EA",
".n c #EAC6C9",
".m c #00004D",
".M c #A4B0D0",
".N c #314D94",
".B c #304D93",
".V c #000039",
".C c #C88B97",
".Z c #E06F70",
".A c #4C6CAB",
".S c #8C789E",
".D c #000025",
".F c #8F3555",
".G c #3B569A",
".H c #DBE0EB",
".J c #3A5699",
".K c #9FB9DB",
".L c #000053",
".P c #DDC3CC",
".I c #4A63A2",
".U c #00003F",
".Y c #E7E9F0",
".T c #DCA4AA",
".R c None",
/* pixels */
" x c W K k | # n.# [ 3.u g f.U.V",
" N.n r.p.T.P T X t.  . e 2.1 h..",
".e - S d O ;.Z.k.c.g.l A.i '.6 q",
".F p.z >.: D.- , b !.l.O ' U.o.8",
".< C &.C 4.K a Z.; j.& o i  .v.D",
".r.3.j.S } s.a M < 9 z y.$ H.=.D",
" [ *.* V.A Y 0.s.X.> G.B 5 J B.h",
" 3 F.4.M 1.I L.y.G.,.N ^.q 6 ( R",
" % E w.H.Y.f :.J 8 y v.x.+ =.7 +",
".L Q _.0 ` l.d.9 {.@.5 ~.b @ I u",
".m /.2.. ) P m.D.h.w.% ] 7.t $ $"
};
