/* XPM */
const char *icon_famfamfam_flags_hn[] = {
/* width height ncolors chars_per_pixel */
"16 11 153 2",
/* colors */
"   c #516ECD",
" . c #3758C4",
" X c #2F50BC",
" o c #00006D",
" O c #001FA5",
" + c #5773CC",
" @ c #000059",
" # c #7D94DA",
" $ c #3154C1",
" % c #5975D1",
" & c #C2CCEC",
" * c #F3F4FB",
" = c #C0CAEA",
" - c #000087",
" ; c #B0BDE4",
" : c #2C4EBF",
" > c #AEBBE2",
" , c #F9F9FA",
" < c #F8F9F9",
" 1 c #00005F",
" 2 c #A9B5DD",
" 3 c #F4F5F5",
" 4 c #F3F3F4",
" 5 c #6983D3",
" 6 c #B9C4E6",
" 7 c #00004B",
" 8 c #00008D",
" 9 c #B8C4E8",
" 0 c #667FD3",
" q c #C5CFEE",
" w c #7088D6",
" e c #000051",
" r c #D0D8F2",
" t c #8498D9",
" y c #FEFEFE",
" u c #00079D",
" i c #FCFCFC",
" p c #FBFCFB",
" a c #FAFAFA",
" s c #F8F8F8",
" d c #4261C3",
" f c #000093",
" g c #F6F6F6",
" h c #5572CF",
" j c #F4F4F4",
" k c #6C84D5",
" l c #F2F2F2",
" z c #00007F",
" x c #4463C8",
" c c #000057",
" v c #3456C2",
" b c #F3F4F9",
" n c #2347BB",
" m c #4C6ACC",
" M c #B5BFE7",
" N c #EBECF1",
" B c #000071",
" V c #2E50BF",
" C c #607ACF",
" Z c #C1CAEC",
" A c #4F6BC8",
" S c #4766CA",
" D c #5B76CD",
" F c #3F5EC2",
" G c #00008B",
" H c #BBC6E9",
" J c #A2B0E1",
" K c #B9C4E7",
" L c #6881D3",
" P c #8797CD",
" I c #4A67C6",
" U c #8393C9",
" Y c #5C78D1",
" T c #4262C8",
" R c #000063",
" E c #7F95DC",
" W c #4967C8",
" Q c #00079B",
" ! c #1339B4",
" ~ c #3D5EC6",
" ^ c #3A5AC3",
" / c #CDD6F0",
" ( c #7A91DA",
" ) c #FAFAFB",
" _ c #5C77CD",
" ` c #294BBC",
" ' c #000055",
" ] c #0011A1",
" [ c #97A8DF",
" { c #B4BFE1",
" } c #5F7BD3",
" | c #000097",
".  c #748BD7",
".. c #5873CC",
".X c #879BD9",
".o c #3B5BC0",
".O c #000083",
".+ c #E8EBF6",
".@ c #647ED1",
".# c #183EB8",
".$ c #B2BDE2",
".% c #00006F",
".& c #C6D0EF",
".* c #E3E5F1",
".= c #4664C4",
".- c #536FCA",
".; c #3757BF",
".: c #3655BE",
".> c #8195D6",
"., c #B2BFE5",
".< c #7B92DA",
".1 c #455BA5",
".2 c #FDFDFD",
".3 c #FBFBFB",
".4 c #F9F9F9",
".5 c #ADB9E0",
".6 c #0F36B2",
".7 c #F7F7F7",
".8 c #ABB7DE",
".9 c #BFCAEB",
".0 c #F5F5F5",
".q c #BEC8EA",
".w c #BDC8E9",
".e c #000089",
".r c #3B519B",
".t c #F3F3F3",
".y c #000075",
".u c #E7E7E7",
".i c #E5E5E5",
".p c #0B32B1",
".a c #8197DC",
".s c #00004D",
".d c #B6C2E5",
".f c #657FD1",
".g c #B4C0E3",
".h c #000399",
".j c #3F5EC6",
".k c #00008F",
".l c #00007B",
".z c #C7C7C7",
".x c #607BCF",
".c c #C5C5C5",
".v c #AEBAE0",
".b c #000067",
".n c #C2CDED",
".m c #C1C1C1",
".M c #A6B5E2",
".N c #000053",
".B c #1E42B9",
".V c #000D9F",
".C c #EAEDF3",
".Z c #778FD8",
".A c None",
/* pixels */
" O ] ] ].V Q.h | f.k G -.O z.l.l",
".V.a.a E # (.Z.  w k L.@ C D +.%",
" u.< } Y % h   m S T ~ . $ : W.b",
" P r.& q.n Z.9.q H 9 M., ; > 6.1",
".u y y.2 * [.3 , < s.X.C.0 j.0.z",
".u y.2 i ).+ a.M J.7.* 4 j.t 3.c",
".i.2 i p b t.4 s.7 g.> N.t l j.m",
" U / & =.w K 6.d.g.$.v.5.8 2 {.r",
" 8 0 x.j ^ v V ` n.B.# !.6.p X 7",
".e 5.f.x _...- A I.= d F.o.;.: 7",
".l.O z.l.y B o.b R 1 @ c.N e.s '"
};
