/* XPM */
const char *icon_famfamfam_flags_hr[] = {
/* width height ncolors chars_per_pixel */
"16 11 130 2",
/* colors */
"   c #FB7676",
" . c #F85C5C",
" X c #F62C2C",
" o c #6EC8DF",
" O c #488DD1",
" + c #001FA5",
" @ c #5D99D5",
" # c #5496D6",
" $ c #F96060",
" % c #F50000",
" & c #0051BF",
" * c #83B4E3",
" = c #5E9DD9",
" - c #6AA4DE",
" ; c #F75757",
" : c #7FB2E2",
" > c #F4F5F5",
" , c #F0F1F1",
" < c #EF0000",
" 1 c #FA7374",
" 2 c #F62B2B",
" 3 c #000997",
" 4 c #609CD7",
" 5 c #FE7B7B",
" 6 c #FC4B4B",
" 7 c #FD797A",
" 8 c #3A85CC",
" 9 c #F72F2F",
" 0 c #5180B1",
" q c #FB6E6E",
" w c #5A98D4",
" e c #FD0000",
" r c #F74949",
" t c #5193D5",
" y c #E90000",
" u c #FEFEFE",
" i c #FDFCFD",
" p c #F52626",
" a c #FCFCFC",
" s c #FBFCFB",
" d c #0041B7",
" f c #3F88CD",
" g c #000093",
" h c #F6F6F6",
" j c #F4F4F4",
" k c #F2F2F2",
" l c #5594D2",
" z c #67A3DD",
" x c #F62A2A",
" c c #FBD0D0",
" v c #0019A3",
" b c #F70000",
" n c #5192D1",
" m c #6CA4DB",
" M c #87B6E5",
" N c #F64444",
" B c #FE5959",
" V c #004BBD",
" C c #478DD1",
" Z c #6CA6DE",
" A c #FA4141",
" S c #0027A9",
" D c #0057C3",
" F c #FE5F5F",
" G c #F10000",
" H c #FD5454",
" J c #000395",
" K c #FF7B7A",
" L c #72A9E0",
" P c #FE7979",
" I c #6FA7DD",
" U c #0033AF",
" Y c #63A0DB",
" T c #FF0000",
" R c #EB0000",
" E c #FA4040",
" W c #000D9B",
" Q c #438ACF",
" ! c #000091",
" ~ c #5896D3",
" ^ c #F9CCCC",
" / c #F83737",
" ( c #599AD7",
" ) c #3E86CD",
" _ c #F90000",
" ` c #5494D2",
" ' c #7BAFE1",
" ] c #F85151",
" [ c #F43736",
" { c #4274A9",
" } c #74A9DD",
" | c #3682CB",
".  c #F30000",
".. c #FA4142",
".X c #FDFDFD",
".o c #659ED8",
".O c #FBFBFB",
".+ c #66C4DC",
".@ c #F83636",
".# c #F7F7F7",
".$ c #F5F5F5",
".% c #F3F3F3",
".& c #5695D3",
".* c #EFEFEF",
".= c #4C90D3",
".- c #002DAD",
".; c #E7E7E7",
".: c #E5E5E5",
".> c #FF7B7B",
"., c #3B85CC",
".< c #E3E3E3",
".1 c #ED0000",
".2 c #62A0DB",
".3 c #F93C3D",
".4 c #77ACDF",
".5 c #00008F",
".6 c #0039B3",
".7 c #F73131",
".8 c #FE5C5C",
".9 c #68A1DA",
".0 c #F7C8C8",
".q c #FA6565",
".w c #F83535",
".e c #FB0000",
".r c #00139F",
".t c #E70000",
".y c #67A3DC",
".u c #0045B9",
".i c #FB6969",
".p c None",
/* pixels */
" T T T T e e e e.e _ b %.  G <.1",
" T.>.> P P 5 7   1 q.i.q $ . ; R",
" T K F.8 B H L o -.+.3 /.7 X r y",
" T P.8 B H ] 6 c.. ^ [.7 2 p N.t",
".X u u.X i.# c A ^.@ k h.$ j.$.;",
".X u.X a a h E ^.@.0 ,.$ j.% >.:",
".X.X a s.O.$ ^.w.0 x.* j.% k j.<",
" D M Z z Y = 0 9 x { O Q f., ~ g",
" & *.y.2 = ( # t.= C Q ) 8 | l !",
" V : '.4 } I m.9.o 4 @ w.& ` n.5",
".u d.6 U.- S + v.r W 3 J g !.5.5"
};
