/* XPM */
const char *icon_famfamfam_flags_ht[] = {
/* width height ncolors chars_per_pixel */
"16 11 158 2",
/* colors */
"   c #969ADC",
" . c #6F82DA",
" X c #7E8FE2",
" o c #F16455",
" O c #4B63D1",
" + c #6075D5",
" @ c #E9321F",
" # c #F22814",
" $ c #0001B9",
" % c #E72913",
" & c #F53724",
" * c #0000AF",
" = c #7B8DE2",
" - c #FC5E4F",
" ; c #E10000",
" : c #465FCF",
" > c #919FE7",
" , c #EE4734",
" < c #00009B",
" 1 c #6369C7",
" 2 c #7689E0",
" 3 c #000FBF",
" 4 c #8C9BE5",
" 5 c #0527C7",
" 6 c #8A99E3",
" 7 c #0000B5",
" 8 c #677CDB",
" 9 c #667ADA",
" 0 c #F4321F",
" q c #7B8CDE",
" w c #DB0000",
" e c #F44636",
" r c #E94735",
" t c #787DD1",
" y c #001FC5",
" u c #F0513F",
" i c #000079",
" p c #6378DA",
" a c #EB3723",
" s c #FD0000",
" d c #6B7DDB",
" f c #E73E2C",
" g c #E90000",
" h c #7379CF",
" j c #5E74D8",
" k c #7F84D4",
" l c #E82E19",
" z c #F94B3A",
" x c #FB5A49",
" c c #5970D6",
" v c #7284DE",
" b c #ED412E",
" n c #EE5746",
" m c #FD7B6F",
" M c #E30000",
" N c #94A3E8",
" B c #5A60C3",
" V c #93A1E7",
" C c #F47566",
" Z c #7889DD",
" A c #CF0000",
" S c #000099",
" D c #676DC9",
" F c #546CD4",
" G c #EC4E3D",
" H c #F5796A",
" J c #5D71D6",
" K c #7485DC",
" L c #5258BE",
" P c #F15645",
" I c #E8412F",
" U c #F26C5D",
" Y c #6B80DD",
" T c #5068D3",
" R c #EC3C29",
" E c #E5200B",
" W c #6F76CD",
" Q c #00009F",
" ! c #F25A49",
" ~ c #C90000",
" ^ c #6A70C8",
" / c #586DD4",
" ( c #E5240E",
" ) c #0019C3",
" _ c #95A4E8",
" ` c #6F81DD",
" ' c #5469D3",
" ] c #FA5040",
" [ c #EB3724",
" { c #798AE0",
" } c #D70000",
" | c #8F9EE5",
".  c #EE4634",
".. c #F15544",
".X c #6A7DDB",
".o c #4F65D1",
".O c #E94432",
".+ c #6679DA",
".@ c #0000AB",
".# c #E50000",
".$ c #E9321E",
".% c #D10000",
".& c #0B15AF",
".* c #7286DF",
".= c #F7402F",
".- c #ED412F",
".; c #8696E2",
".: c #6B7ED8",
".> c #F26858",
"., c #E52510",
".< c #7C8DE2",
".1 c #6175D8",
".2 c #565CC0",
".3 c #EF5B4B",
".4 c #0007BB",
".5 c #0000B1",
".6 c #677AD7",
".7 c #DF0000",
".8 c #7687DF",
".9 c #CB0000",
".0 c #E82D19",
".q c #F63B2A",
".w c #EC3C2A",
".e c #ED5242",
".r c #5F65C5",
".t c #EF4B3A",
".y c #0013C1",
".u c #6C72CB",
".i c #F37062",
".p c #586DD5",
".a c #0327C7",
".s c #7B81D3",
".d c #0325C7",
".f c #0123C5",
".g c #F1513F",
".h c #94A4E8",
".j c #6276D8",
".k c #0000A3",
".l c #EB4B39",
".z c #D90000",
".x c #C50000",
".c c #6F83DE",
".v c #6E81DD",
".b c #E72A14",
".n c #5369D3",
".m c #0021C7",
".M c #8393E1",
".N c #F84535",
".B c #8F9EE6",
".V c #F32D19",
".C c #FB5445",
".Z c #E8402F",
".A c #7F8FE0",
".S c #E70000",
".D c #F04C3A",
".F c #EF6050",
".G c #D30000",
".H c None",
/* pixels */
" 5.a 5 5.f y ).y 3.4 $ 7.5 *.@.@",
".a _.h V > | 4 6.;.M.A q Z K ..k",
".a N X.< {.8 v ` d 9.j J.p '.: Q",
".d V = {.8 v.v.X.+.1 J /.n.o.6 <",
".m.B 2.*.c Y 8 p j c F T O : + S",
".&   k.s t h W.u D 1.r B.2 L ^ i",
" s m - x.C ] z.N.=.q & 0.V # e M",
" g H ! P.g.D ,.-.w [ @ l.b.,.O ~",
".S C.. u.t.  b R a.$.0 % ( E I.x",
".#.i U.> o.F.3 n.e G.l r.O.Z f.x",
" M ;.7 w.z } }.G.% A.9 ~ ~.x.x.x"
};
