/* XPM */
const char *icon_famfamfam_flags_hu[] = {
/* width height ncolors chars_per_pixel */
"16 11 120 2",
/* colors */
"   c #000000",
" . c #BF0000",
" X c #AB0000",
" o c #54A455",
" O c #E04B4B",
" + c #E45C5C",
" @ c #D72B2B",
" # c #DC3C3D",
" $ c #CD0000",
" % c #DE4242",
" & c #B90000",
" * c #6AB36A",
" = c #66AF66",
" - c #F4F5F5",
" ; c #DF5353",
" : c #188419",
" > c #DA3737",
" , c #4B9F4B",
" < c #49A149",
" 1 c #C70000",
" 2 c #469D46",
" 3 c #B30000",
" 4 c #EA7B7B",
" 5 c #429942",
" 6 c #E55F5F",
" 7 c #3A973A",
" 8 c #399539",
" 9 c #359335",
" 0 c #328F32",
" q c #2F912F",
" w c #2F8F2F",
" e c #298D29",
" r c #FEFEFE",
" t c #FDFCFD",
" y c #248B24",
" u c #FCFCFC",
" i c #FBFCFB",
" p c #FAFAFA",
" a c #F8F8F8",
" s c #1F871F",
" d c #1E871E",
" f c #F6F6F6",
" g c #F4F4F4",
" h c #F2F2F2",
" j c #148114",
" k c #138113",
" l c #0B7B0B",
" z c #E66969",
" x c #339032",
" c c #004F00",
" v c #004700",
" b c #004100",
" n c #D93131",
" m c #003B00",
" M c #003500",
" N c #002F00",
" B c #002700",
" V c #002100",
" C c #001B00",
" Z c #001300",
" A c #000D00",
" S c #0F7E0E",
" D c #000700",
" F c #61AD62",
" G c #E45959",
" H c #000100",
" J c #C90000",
" K c #D52626",
" L c #E14C4C",
" P c #E87777",
" I c #DE4142",
" U c #C30000",
" Y c #E35454",
" T c #AF0000",
" R c #DD4E4E",
" E c #5DAA5D",
" W c #58A858",
" Q c #E46565",
" ! c #50A250",
" ~ c #BD0000",
" ^ c #459E45",
" / c #DC3C3C",
" ( c #449E44",
" ) c #A90000",
" _ c #3F9A3F",
" ` c #3D983D",
" ' c #DC4949",
" ] c #E25C5C",
" [ c #349434",
" { c #E66D6D",
" } c #E15151",
" | c #2E902E",
".  c #2C8C2C",
".. c #2A8E2A",
".X c #E36060",
".o c #FDFDFD",
".O c #238A23",
".+ c #FBFBFB",
".@ c #F9F9F9",
".# c #F7F7F7",
".$ c #F5F5F5",
".% c #B70000",
".& c #F3F3F3",
".* c #198419",
".= c #DA3736",
".- c #A30000",
".; c #107E10",
".: c #DB4444",
".> c #E7E7E7",
"., c #E15757",
".< c #E5E5E5",
".1 c #E3E3E3",
".2 c #EA7B7A",
".3 c #409B3F",
".4 c #E97979",
".5 c #D72C2C",
".6 c #E87071",
".7 c #E87474",
".8 c #DF4747",
".9 c None",
/* pixels */
" $ $ $ $ $ J J 1 U U . ~ &.% 3 T",
" $ 4 4.4 P.7.6 { z Q.X ]., ; R X",
" $.2 6 + G Y } L.8 % # > n.5 ' )",
" $.4 + G Y } O.8 I /.= n @ K.:.-",
".o r r.o t u.+ p.@ a.# f.$ g.$.>",
".o r.o u u.+ p.@ a.# f.$ g.& -.<",
".o.o u i.+ p.@ a.# f.$ g.& h g.1",
" c * < ^.3 7 [ q.. y s.* j.; x  ",
" v = ( _ 7 [ | e.O d : k S l w  ",
" b F E W o ! , 2 5 ` 8 9 0 w.   ",
" m M N B V C Z A D H            "
};
