/* XPM */
const char *icon_famfamfam_flags_id[] = {
/* width height ncolors chars_per_pixel */
"16 11 111 2",
/* colors */
"   c #BF0000",
" . c #E55046",
" X c #F1A9A4",
" o c #E6665E",
" O c #E24E43",
" + c #EA776F",
" @ c #EC9A95",
" # c #E76A62",
" $ c #E9635A",
" % c #F08C85",
" & c #E2473C",
" * c #ED766E",
" = c #EFA49E",
" - c #DB0000",
" ; c #E65C53",
" : c #EF8780",
" > c #C70000",
" , c #EB6D65",
" < c #EC7A73",
" 1 c #DB3327",
" 2 c #E6554C",
" 3 c #E35349",
" 4 c #E9645C",
" 5 c #DF0300",
" 6 c #DD372C",
" 7 c #FCFCFC",
" 8 c #FBFCFB",
" 9 c #D50000",
" 0 c #FAFAFA",
" q c #E25E55",
" w c #F8F8F8",
" e c #F6F6F6",
" r c #C10000",
" t c #E5574E",
" y c #F4F4F4",
" u c #DF1103",
" i c #F2F2F2",
" p c #EA6860",
" a c #F0A7A1",
" s c #EE847E",
" d c #EB6C64",
" f c #E24E44",
" g c #E86157",
" h c #F08A83",
" j c #CF0000",
" k c #EC7068",
" l c #BB0000",
" z c #ED7F76",
" x c #E35248",
" c c #F18E87",
" v c #EEA09B",
" b c #EE817A",
" n c #E8918B",
" m c #E34B41",
" M c #DD0000",
" N c #C90000",
" B c #E99E99",
" V c #B50000",
" C c #E86056",
" Z c #E04237",
" A c #F6BDB9",
" S c #F08B85",
" D c #ED736B",
" F c #DF4439",
" G c #E86F66",
" H c #E68E88",
" J c #E1483E",
" K c #F2F2F3",
" L c #DF3D32",
" P c #E96860",
" I c #E9948E",
" U c #D10000",
" Y c #EA6C64",
" T c #F2ABA7",
" R c #ED9E98",
" E c #EA675D",
" W c #E05046",
" Q c #DF0000",
" ! c #FDFDFD",
" ~ c #FBFBFB",
" ^ c #F9F9F9",
" / c #CB0000",
" ( c #E75A50",
" ) c #F7F7F7",
" _ c #F5F5F5",
" ` c #ED817A",
" ' c #F3F3F3",
" ] c #F1F1F1",
" [ c #EFEFEF",
" { c #EDEFED",
" } c #EDEDED",
" | c #EBEBEB",
".  c #E95E55",
".. c #E9E9E9",
".X c #E65C52",
".o c #E7E7E7",
".O c #E5E5E5",
".+ c #E3E3E3",
".@ c #E1E1E1",
".# c #EA9791",
".$ c #DFDFDF",
".% c #DDDDDD",
".& c #D90000",
".* c #CB1F13",
".= c #F3AEAA",
".- c #E9645B",
".; c #E46259",
".: c #D30000",
".> c #E0483E",
"., c #E9736B",
".< c None",
/* pixels */
" u 5 5 5 M M -.&.& 9.: U j / N >",
" Q c c % h : s ` z < +., G # o r",
" 5 c * D k d p 4 g ; t 3 f J.;  ",
" Q S D k Y P.- C.X t x O.> F q l",
" - b E $.  ( 2 . m & Z L 6 1 W V",
" , A.= T X a = v R @.# I n H B.*",
" ! ! 7 8 ~ 0 ^ w ) e _ y ' i y.+",
" ~ 7 ~ ~ 0 ^ w ) e _ y ' i i '.$",
" ^ 7 0 0 ^ w ) e _ y ' i ] ] i.$",
" ) ~ 0 ^ ^ w ) ) e _ y ' K i i.%",
" _ ' ] [ { } |...o.O.+.@.$.%.%.%"
};
