/* XPM */
const char *icon_famfamfam_flags_ie[] = {
/* width height ncolors chars_per_pixel */
"16 11 135 2",
/* colors */
"   c #F88237",
" . c #77C777",
" X c #F6EEE7",
" o c #E10000",
" O c #F67B2B",
" + c #F6792B",
" @ c #6AC36A",
" # c #F4741F",
" $ c #F4721F",
" % c #F48236",
" & c #5FBF5F",
" * c #FDFDFE",
" = c #5CBD5C",
" - c #F26913",
" ; c #58B958",
" : c #54B954",
" > c #53B953",
" , c #54B754",
" < c #4FB74F",
" 1 c #50B550",
" 2 c #4BB34B",
" 3 c #F78F49",
" 4 c #C5B5A9",
" 5 c #45B145",
" 6 c #44B144",
" 7 c #F57A26",
" 8 c #7BCA7A",
" 9 c #F31F00",
" 0 c #F4EBE4",
" q c #FBFAF8",
" w c #E90000",
" e c #FCFCFC",
" r c #FAFAFA",
" t c #F68C44",
" y c #F8F8F8",
" u c #F6F6F6",
" i c #F4F4F4",
" p c #F0F8F0",
" a c #EEF6EE",
" s c #ECF4EC",
" d c #F77E31",
" f c #E9F2E9",
" g c #ED1B00",
" h c #009100",
" j c #F57725",
" k c #008900",
" l c #F57525",
" z c #008700",
" x c #008500",
" c c #008300",
" v c #007F00",
" b c #F4853B",
" n c #007B00",
" m c #007700",
" M c #007500",
" N c #E30000",
" B c #006F00",
" V c #F27C2F",
" C c #006700",
" Z c #F3EAE2",
" A c #006300",
" S c #005B00",
" D c #F5893F",
" F c #005300",
" G c #F8F0EA",
" H c #F4ECE6",
" J c #F26D14",
" K c #DD0000",
" L c #58BB59",
" P c #54B555",
" I c #F52100",
" U c #7BCA7B",
" Y c #79C879",
" T c #EB0000",
" R c #F7EFE8",
" E c #76C876",
" W c #F37F32",
" Q c #F26A10",
" ! c #6FC46F",
" ~ c #66C066",
" ^ c #F37F35",
" / c #5DBC5D",
" ( c #58BC58",
" ) c #59BA59",
" _ c #EF1300",
" ` c #4FB64F",
" ' c #E50000",
" ] c #49B449",
" [ c #45B045",
" { c #F1670B",
" } c #3FAE3F",
" | c #3AAA3A",
".  c #F3701A",
".. c #F5ECE5",
".X c #F1690E",
".o c #FA995C",
".O c #E1DFDB",
".+ c #DF0000",
".@ c #FDFDFD",
".# c #FBFBFB",
".$ c #F9F9F9",
".% c #F7F7F7",
".& c #F5F5F5",
".* c #EFF7EF",
".= c #F89653",
".- c #EDF5ED",
".; c #F78131",
".: c #EBF3EB",
".> c #EAF3EA",
"., c #F27B2C",
".< c #E7E7E7",
".1 c #E5E7E5",
".2 c #40AD3F",
".3 c #E5E5E5",
".4 c #E3E3E3",
".5 c #F99857",
".6 c #F36F19",
".7 c #F36D19",
".8 c #F27D2F",
".9 c #D1D1D1",
".0 c #CFCFCF",
".q c #F9F1EB",
".w c #CBCBCB",
".e c #F7934E",
".r c #C9C9C9",
".t c #F27F32",
".y c #72C673",
".u c #F67C2C",
".i c #F11900",
".p c #F47520",
".a c #B7C7B7",
".s c #61BE62",
".d c #E70000",
".f c #F26E14",
".g c None",
/* pixels */
" h k k z c.1.<.<.3.4.O I 9.i _ g",
" x U U Y . e *.@ e e q.o.5.=.e T",
" k 8 & = ) p.@ e.# r.q  .;.u 3 w",
" z Y = L ,.* e.# r.$ G d O 7 t.d",
" z E ( : 1 a.# r.$ y R + j.p D.d",
" c.y > ` 2.- r.$ y.% X l #.  b '",
" v ! < ] [ s.$ y.% u.. $.6.f % N",
" n @ ] 5.2.> y.% u.& 0.7 J Q W.+",
" m ~ 6 } | f.% u.& i Z -.X {.8.+",
" B.s / ; P.:.%.% u.& H ^.t V., K",
" M C A S F.a.9.0.w.r 4 o.+ K K K"
};
