/* XPM */
const char *icon_famfamfam_flags_in[] = {
/* width height ncolors chars_per_pixel */
"16 11 155 2",
/* colors */
"   c #FBD747",
" . c #F6DB6D",
" X c #FDD535",
" o c #D3CA90",
" O c #88C388",
" + c #FDE06D",
" @ c #F7DD71",
" # c #FDE78E",
" $ c #F3A900",
" % c #79B979",
" & c #75B775",
" * c #C4CBE4",
" = c #F7D549",
" - c #FCDD65",
" ; c #69B169",
" : c #FDFDFE",
" > c #64AF64",
" , c #FBFBFC",
" < c #FEE274",
" 1 c #5FA95F",
" 2 c #5BA95B",
" 3 c #F3F3F4",
" 4 c #57A757",
" 5 c #58A558",
" 6 c #4DA14D",
" 7 c #499F49",
" 8 c #ED9F00",
" 9 c #419941",
" 0 c #409940",
" q c #3D973D",
" w c #3C973C",
" e c #BDC0D9",
" r c #FFE47B",
" t c #F7D031",
" y c #E3E5E7",
" u c #FBB500",
" i c #E7B100",
" p c #FCFCFC",
" a c #FBFCFB",
" s c #F9D957",
" d c #FAFAFA",
" f c #FDDA51",
" g c #F6F6F6",
" h c #F4F4F4",
" j c #F2F2F2",
" k c #8A9ECE",
" l c #FEDF5F",
" z c #FCE588",
" x c #007300",
" c c #006F00",
" v c #F5AD00",
" b c #006900",
" n c #FEEDA4",
" m c #006300",
" M c #005D00",
" N c #005900",
" B c #005300",
" V c #004D00",
" C c #004700",
" Z c #004100",
" A c #003D00",
" S c #003900",
" D c #003300",
" F c #002D00",
" G c #FDE271",
" H c #002900",
" J c #002700",
" K c #002500",
" L c #002100",
" P c #001F00",
" I c #FCFDFE",
" U c #FBFDFD",
" Y c #EFA300",
" T c #A4ACB8",
" R c #F2F3F4",
" E c #A1AAB5",
" W c #FCDF69",
" Q c #8495CA",
" ! c #9AA5CF",
" ~ c #FDBF00",
" ^ c #E3E3E5",
" / c #FDBD00",
" ( c #FDBB00",
" ) c #FDB900",
" _ c #84C084",
" ` c #80BE80",
" ' c #7DBC7D",
" ] c #389539",
" [ c #71B471",
" { c #F8DE75",
" } c #E99700",
" | c #6DB46D",
".  c #6DB26D",
".. c #FAD542",
".X c #69B269",
".o c #69B069",
".O c #FDFEFE",
".+ c #65AE65",
".@ c #FCFCFD",
".# c #FBFCFC",
".$ c #62AC62",
".% c #60AC60",
".& c #C9CDE2",
".* c #F5F6F6",
".= c #5BAA5B",
".- c #F4F4F5",
".; c #5BA85B",
".: c #F2F2F3",
".> c #59A659",
"., c #56A656",
".< c #56A456",
".1 c #55A455",
".2 c #F7B100",
".3 c #BBC2DE",
".4 c #52A452",
".5 c #53A253",
".6 c #FADB5C",
".7 c #4EA24E",
".8 c #97A9D5",
".9 c #FEE377",
".0 c #459C45",
".q c #F9D43D",
".w c #FBDD60",
".e c #FEDC59",
".r c #7F92C7",
".t c #F8D853",
".y c #D8D09A",
".u c #FEDE5C",
".i c #FDFDFD",
".p c #65AF64",
".a c #FBFBFB",
".s c #F1A500",
".d c #F5DE7E",
".f c #F7F7F7",
".g c #F5F5F5",
".h c #F3F3F3",
".j c #F4DA69",
".k c #FDDB54",
".l c #96A8D3",
".z c #F6CE2C",
".x c #FFBF00",
".c c #F7D74E",
".v c #E3E3E3",
".b c #838CBD",
".n c #FCE68B",
".m c #FFE47A",
".M c #FEE479",
".N c #FCD84C",
".B c #EB9B00",
".V c #FEE890",
".C c #A1B3DA",
".Z c #F9B300",
".A c #F8D237",
".S c #FBFCFD",
".D c None",
/* pixels */
".x.x.x.x ~ / ( ) u.Z.2 v $.s Y 8",
".x r r.M.9 < G + W -.w.6 s.t.c.B",
".x.m l.u.e.k f.N  ...q.A t.z = }",
" X n.V #.n z.y T E o { @ ..j.d i",
" U.O I.S.S.#.C !.&.8.f.*.- R.- y",
".i :.@ , ,.a.l e.b k g.- 3.:.- ^",
".i.i p a.a d * Q.r.3.g h.h j h.v",
" x O |.X.p.%.= 4.4.7 7.0 9 q.> J",
" c _ ; >.% 2.,.4 6 7.0 0 w ].< L",
" b ` ' % & [. .o.+.$ 1.; 5.1.5 P",
" m M N B V C Z A S D F H K L P P"
};
