/* XPM */
const char *icon_famfamfam_flags_io[] = {
/* width height ncolors chars_per_pixel */
"16 11 170 2",
/* colors */
"   c #75A158",
" . c #565FB1",
" X c #6F9C5C",
" o c #FEAAA7",
" O c #000081",
" + c #F5EBED",
" @ c #BCC0E0",
" # c #BBC0DF",
" $ c #00006D",
" % c #79A855",
" & c #B4B8D8",
" * c #C7C9E4",
" = c #000059",
" - c #EBD54E",
" ; c #D6D8EC",
" : c #DAA7B8",
" > c #636ABA",
" , c #EDD4DB",
" < c #7AA563",
" 1 c #000991",
" 2 c #8D8AC2",
" 3 c #AAC59C",
" 4 c #DEDFED",
" 5 c #94B383",
" 6 c #FDD3D0",
" 7 c #000073",
" 8 c #5D64B7",
" 9 c #A6B1C3",
" 0 c #FB9896",
" q c #DCDDEE",
" w c #6A71BD",
" e c #D77D8D",
" r c #00004B",
" t c #D7D7E9",
" y c #A9AED3",
" u c #837EBB",
" i c #F1CCD1",
" p c #B7BBDA",
" a c #000037",
" s c #EECC39",
" d c #CE4542",
" f c #E2C3CC",
" g c #666DBC",
" h c #656DBB",
" j c #AAAED7",
" k c #A7ACD4",
" l c #F5A1A0",
" z c #5D65B3",
" x c #85AC70",
" c c #4049A7",
" v c #C3C6E2",
" b c #C2C4E1",
" n c #A94D73",
" m c #7EA95F",
" M c #A9ABCF",
" N c #5E65B7",
" B c #00003D",
" V c #E0E0F1",
" C c #9DA2CD",
" Z c #F7F2F7",
" A c #00007F",
" S c #DDCD7A",
" D c #00006B",
" F c #5961B5",
" G c #9DA2D0",
" H c #585FB4",
" J c #000057",
" K c #676EBC",
" L c #5259AE",
" P c #B57F9F",
" I c #BCC0E1",
" U c #DBD3E5",
" Y c #000043",
" T c #E9B6BE",
" R c #9DA2D3",
" E c #B3B6D8",
" W c #8188C8",
" Q c #535BB2",
" ! c #C4C5E2",
" ~ c #999DC5",
" ^ c #A7ABD6",
" / c #D3D4EA",
" ( c #636DB1",
" ) c #6068B8",
" _ c #000071",
" ` c #9397BF",
" ' c #C1A0BE",
" ] c #75A15F",
" [ c #8F93BB",
" { c #6E75BF",
" } c #9287BE",
" | c #A382B1",
".  c #F5D9DD",
".. c #DADBEA",
".X c #000049",
".o c #5C64B7",
".O c #676FBB",
".+ c #BBBFDF",
".@ c #454DAA",
".# c #75A551",
".$ c #C74446",
".% c #535AB1",
".& c #C3C6E0",
".* c #00004F",
".= c #6269B9",
".- c #C2C6E2",
".; c #F9BFBF",
".: c #F55F5F",
".> c #4E56AF",
"., c #FCA4A1",
".< c #6C9B4B",
".1 c #BDC0DD",
".2 c #A3A8D4",
".3 c #9BB597",
".4 c #F8B4B4",
".5 c #A12955",
".6 c #B07356",
".7 c #AFB3D9",
".8 c #EEDBE2",
".9 c #F2D6DC",
".0 c #B8ABCE",
".q c #C1C5DA",
".w c #000041",
".e c #00290F",
".r c #FEE3E1",
".t c #AA6646",
".y c #A1A3CB",
".u c #F5DEE2",
".i c #719A60",
".p c #000083",
".a c #FB9F9C",
".s c #998FC3",
".d c #00005B",
".f c #4F57AF",
".g c #B2A564",
".h c #B4B8DD",
".j c #5960B2",
".k c #000089",
".l c #81AA65",
".z c #EFCF43",
".x c #000075",
".c c #4951AC",
".v c #A72B53",
".b c #DDC945",
".n c #5860B4",
".m c #B1B6DD",
".M c #000061",
".N c #CE5A4E",
".B c #3F278B",
".V c #000039",
".C c #8F75AB",
".Z c #5B4799",
".A c #D4D5EB",
".S c #AB6D4C",
".D c #833771",
".F c #5F67B7",
".G c #F49FA1",
".H c #000067",
".J c #76A356",
".K c #DEE0EE",
".L c #99BB7F",
".P c #000053",
".I c #DEA7B6",
".U c #4A52AC",
".Y c #898ECC",
".T c #E0CEDC",
".R c #B9C1D0",
".E c #8F9BB4",
".W c #9EA2D0",
".Q c None",
/* pixels */
" e.C 1.5.v O.D.B.p A 7 $.e D.H.M",
".Z.u Z.9 T.8 + R I.A.R.L 3.3.q M",
".:.4 o.a 0., l | K >.F < ].i x J",
" n. .r.;.G 6 i } j * m %.#   5.y",
".s ,.0 :.I.m f u N F . X.S.< ( r",
" P U V.T ' ! 4 2.2 b.J 9.t.E.l ~",
".k.Y { w g.= 8.n Q.f.U.N.z.$.j Y",
".O ;.h @ q ^ # t G.1.W S d - p `",
" A W h ).o H.%.>.c.@ c.g s.b L.V",
" z /.+ v.K.7.-.. k.& y E.6 C & [",
".x _ D.H.M.d =.P.*.X Y.w B.V a a"
};
