/* XPM */
const char *icon_famfamfam_flags_iq[] = {
/* width height ncolors chars_per_pixel */
"16 11 142 2",
/* colors */
"   c #000000",
" . c #F2F4F4",
" X c #F62C2C",
" o c #F67071",
" O c #FC4C4C",
" + c #F50000",
" @ c #D4ECD6",
" # c #8FCD92",
" $ c #8C8B8C",
" % c #0F0F0E",
" & c #C3E6C5",
" * c #F97A7A",
" = c #545455",
" - c #888588",
" ; c #FD8B8B",
" : c #7F7D7F",
" > c #F4F5F5",
" , c #FB4747",
" < c #EF0000",
" 1 c #F6FBFA",
" 2 c #636363",
" 3 c #8BD08D",
" 4 c #5D5D5D",
" 5 c #FC6565",
" 6 c #FD0000",
" 7 c #F74949",
" 8 c #FE7474",
" 9 c #E90000",
" 0 c #FA4242",
" q c #FEFEFE",
" w c #4B4B4B",
" e c #FCFCFC",
" r c #ADDDAE",
" t c #F4F4F4",
" y c #F2F2F2",
" u c #EFF4EF",
" i c #3F3F3F",
" p c #FA5C5C",
" a c #3D3D3D",
" s c #E9F4E9",
" d c #E7F6E7",
" f c #F9FEFC",
" g c #393939",
" h c #353535",
" j c #F5F8F8",
" k c #FE9091",
" l c #FB6060",
" z c #F70000",
" x c #95CF96",
" c c #EEF6F1",
" v c #2F2F2F",
" b c #FE5959",
" n c #F77273",
" m c #8DCF8E",
" M c #292929",
" N c #FC8585",
" B c #F85353",
" V c #232323",
" C c #F67F7F",
" Z c #F95757",
" A c #131313",
" S c #F1F9F0",
" D c #FE5F5F",
" F c #0B0B0B",
" G c #F10000",
" H c #BDE0C0",
" J c #FD5454",
" K c #FF3535",
" L c #FA7E7F",
" P c #F74E4E",
" I c #FF7B7A",
" U c #FE7979",
" Y c #BEE4C4",
" T c #A0A0A0",
" R c #FF0000",
" E c #EDF7F2",
" W c #EB0000",
" Q c #616162",
" ! c #FD7071",
" ~ c #8D8A8D",
" ^ c #848284",
" / c #FCFCFD",
" ( c #FC6969",
" ) c #7D7A7D",
" _ c #F83737",
" ` c #7A7A7A",
" ' c #787678",
" ] c #F90000",
" [ c #737273",
" { c #FD6D6D",
" } c #706E70",
" | c #F8FCFC",
".  c #9CD39E",
".. c #6B6A6B",
".X c #6C686C",
".o c #9BD19D",
".O c #666666",
".+ c #89CD8B",
".@ c #585858",
".# c #F30000",
".$ c #505050",
".% c #BCE2BD",
".& c #181919",
".* c #FDFDFD",
".= c #B3E0B4",
".- c #464646",
".; c #6BBF6D",
".: c #444444",
".> c #F5F5F5",
"., c #FE7777",
".< c #424242",
".1 c #A8DAA9",
".2 c #EAF5EA",
".3 c #3A3A3A",
".4 c #E4F3E4",
".5 c #E7E7E7",
".6 c #343434",
".7 c #E5E5E5",
".8 c #FF7B7B",
".9 c #323232",
".0 c #E3E3E3",
".q c #FE8F91",
".w c #2E2E2E",
".e c #ED0000",
".r c #2C2C2C",
".t c #F93C3D",
".y c #FB8284",
".u c #F73131",
".i c #1E1E1E",
".p c #F87777",
".a c #FE5C5C",
".s c #BDE3BD",
".d c #FD8889",
".f c #FD5151",
".g c #CAE7CD",
".h c #F56A6A",
".j c #FB0000",
".k c #C1E5C4",
".l c #FEA4A4",
".z c #E70000",
".x c #B4E1B7",
".c c None",
/* pixels */
" R R R R 6 6 6 6.j ] z +.# G <.e",
" R.8.8 U., 8 ! { ( 5 l p Z B P W",
" R I D.a b J.f O , 0.t _.u X 7 9",
" K.l k.q ;.d N.y L *.p n o.h C.z",
".* q f.x / | 1.k & j E c.  ..>.5",
".* q.= 3.1 Y @.+ m.g H #.;.o >.7",
".*.* e r d.4 S.s.%.2 s u x y t.0",
" v T $ ~ - ^ : ) ' [ }...X 2 `  ",
"  .O.: i.3.6.w M V.i.& A % F v  ",
"   Q 4.@ =.$ w.-.< a g h.9 v.r  ",
"                                "
};
