/* XPM */
const char *icon_famfamfam_flags_ir[] = {
/* width height ncolors chars_per_pixel */
"16 11 148 2",
/* colors */
"   c #F62C2C",
" . c #F2A5A5",
" X c #F9A2A2",
" o c #48B449",
" O c #F5CCCC",
" + c #F50000",
" @ c #E10000",
" # c #6DC36D",
" $ c #F9F7F7",
" % c #69C169",
" & c #65BF65",
" * c #F52727",
" = c #AFDEB1",
" - c #F3AFAF",
" ; c #F4F5F5",
" : c #DF8381",
" > c #4EB74E",
" , c #FA5D5D",
" < c #4EB34E",
" 1 c #EF0000",
" 2 c #4BB34B",
" 3 c #FAB9B9",
" 4 c #F10F0F",
" 5 c #44B144",
" 6 c #3EAF3E",
" 7 c #3FA33F",
" 8 c #33A933",
" 9 c #F95455",
" 0 c #F42222",
" q c #E90000",
" w c #F95858",
" e c #FEFEFE",
" r c #FDFCFD",
" t c #FCFCFC",
" y c #FBFCFB",
" u c #FAFAFA",
" i c #B3DFB4",
" p c #F6F6F6",
" a c #52B851",
" s c #F4F4F4",
" d c #F79191",
" f c #F2F2F2",
" g c #009100",
" h c #008900",
" j c #008700",
" k c #008500",
" l c #008300",
" z c #008100",
" x c #F70000",
" c c #007D00",
" v c #F8EFF1",
" b c #D7EED7",
" n c #007900",
" m c #FBBCBC",
" M c #007500",
" N c #007100",
" B c #E30000",
" V c #006D00",
" C c #006700",
" Z c #2EA62D",
" A c #006300",
" S c #CDE6CD",
" D c #006100",
" F c #005D00",
" G c #C8E4C8",
" H c #004D00",
" J c #004B00",
" K c #BDE4BD",
" L c #F22C2C",
" P c #FA4141",
" I c #F10000",
" U c #60BF61",
" Y c #F88787",
" T c #DD0000",
" R c #F8B5B5",
" E c #F3C7C7",
" W c #F31C1C",
" Q c #F23232",
" ! c #FA4747",
" ~ c #F93C3C",
" ^ c #FB6162",
" / c #7CCA7C",
" ( c #7BCA7B",
" ) c #FBD5D5",
" _ c #79C879",
" ` c #EB0000",
" ' c #77C877",
" ] c #74C674",
" [ c #F78282",
" { c #F2C2C2",
" } c #F21717",
" | c #5EBE5E",
".  c #5CBA5C",
".. c #5ABC5A",
".X c #FC6969",
".o c #56BA56",
".O c #F83737",
".+ c #53B653",
".@ c #F90000",
".# c #E50000",
".$ c #F64242",
".% c #F7CCCD",
".& c #FBF3F5",
".* c #F33535",
".= c #F6ABAB",
".- c #39AC39",
".; c #F74646",
".: c #D4ECD5",
".> c #F9D2D2",
"., c #F8BABA",
".< c #F11212",
".1 c #FB8585",
".2 c #FA9B9B",
".3 c #F43939",
".4 c #F30000",
".5 c #61BD60",
".6 c #DF0000",
".7 c #FDFDFD",
".8 c #FCE5E5",
".9 c #F53D3D",
".0 c #FBFBFB",
".q c #58B957",
".w c #F7F7F7",
".e c #F5F5F5",
".r c #F3F3F3",
".t c #E7E7E7",
".y c #F85050",
".u c #E5E5E5",
".i c #E3E3E3",
".p c #D9EFD9",
".a c #F4A8A8",
".s c #ED0000",
".d c #CFE9CF",
".f c #CCE7CC",
".g c #C9E9C9",
".h c #F73131",
".j c #F6F2F2",
".k c #B7E3B7",
".l c #B8E1B8",
".z c #70C471",
".x c #F74B4B",
".c c #AAD9AA",
".v c #F22F2F",
".b c #E70000",
".n c #FAB6B7",
".m c #A3D5A3",
".M c #F9B4B6",
".N c None",
/* pixels */
" g h h h j l z c n M N V C A F D",
" k ( ( _ ' ].z # % &.5. .q.+ < J",
" h / U |...o a > o 5 6.- 8 Z 2 H",
".k.g.p K b.l.: i.d =.f.c G.m S 7",
".7 e e.7 r t.&.n.M v.w p.e s.e.t",
".7 e.7 t t.0.2 X., d p.e s.r ;.u",
".7.7 t y.0 u $ Y [.j.e s.r f s.i",
".1.8 m ) 3.> R.%.= O.a E . { - :",
".@.X ! P ~.O.h   * 0 W }.< 4 Q.6",
" x ^ , w 9.y.x.;.$.9.3.* Q.v L T",
" +.4 I 1.s.s ` q.b.# B @.6 T T T"
};
