/* XPM */
const char *icon_famfamfam_flags_is[] = {
/* width height ncolors chars_per_pixel */
"16 11 130 2",
/* colors */
"   c #7296C9",
" . c #DE2828",
" X c #517CBC",
" o c #4D78B8",
" O c #000045",
" + c #3D6DB2",
" @ c #87A6D3",
" # c #FDFDFE",
" $ c #2B5EAA",
" % c #5A83C1",
" & c #002D97",
" * c #5983C0",
" = c #00004B",
" - c #DB0000",
" ; c #4674B7",
" : c #000B83",
" > c #557FBF",
" , c #000983",
" < c #2358A5",
" 1 c #B30000",
" 2 c #EB5C5B",
" 3 c #000065",
" 4 c #3F6EB3",
" 5 c #6D93C9",
" 6 c #EF7A79",
" 7 c #FEFEFE",
" 8 c #FDFCFD",
" 9 c #FCFCFC",
" 0 c #FBFCFB",
" q c #E54241",
" w c #001189",
" e c #FAFAFA",
" r c #4673B3",
" t c #F8F8F8",
" y c #F6F6F6",
" u c #C10000",
" i c #F4F4F4",
" p c #3A6AB1",
" a c #F2F2F2",
" s c #396AB0",
" d c #E74846",
" f c #00006B",
" g c #EA5756",
" h c #7194C9",
" j c #000057",
" k c #3566AF",
" l c #001D8F",
" z c #3466AE",
" x c #000043",
" c c #EB5B5A",
" v c #4271B5",
" b c #89A8D3",
" n c #507CBC",
" m c #3062AD",
" M c #000071",
" N c #5881BD",
" B c #00005D",
" V c #E95251",
" C c #6A90C8",
" Z c #000049",
" A c #4B78BA",
" S c #285CA8",
" D c #275CA7",
" F c #E33837",
" G c #6088C1",
" H c #E14342",
" J c #4472B6",
" K c #E75655",
" L c #6E93C8",
" P c #00004F",
" I c #EF7877",
" U c #7A9CCD",
" Y c #4A75B5",
" T c #799ACC",
" R c #DF2D2C",
" E c #001187",
" W c #4070B5",
" Q c #5982BD",
" ! c #87A5D3",
" ~ c #7598CB",
" ^ c #5882BF",
" / c #DC2422",
" ( c #000055",
" ) c #E74847",
" _ c #00198D",
" ` c #4675B7",
" ' c #406FB1",
" ] c #5580BF",
" [ c #537EBD",
" { c #5F87C2",
" } c #89A8D4",
" | c #00005B",
".  c #FDFDFD",
".. c #2F62AD",
".X c #E64342",
".o c #FBFBFB",
".O c #2C60AA",
".+ c #7699CB",
".@ c #F9F9F9",
".# c #F7F7F7",
".$ c #F5F5F5",
".% c #557FBB",
".& c #F3F3F3",
".* c #00037F",
".= c #EDEFED",
".- c #000075",
".; c #EBEBEB",
".: c #EA5856",
".> c #002F99",
"., c #E7E7E7",
".< c #4370B3",
".1 c #000061",
".2 c #E3E3E3",
".3 c #507BB9",
".4 c #7C9ECD",
".5 c #5C84BE",
".6 c #E43E3C",
".7 c #7095CB",
".8 c #E33C3B",
".9 c #6D91C8",
".0 c #E74D4C",
".q c #6A8FC5",
".w c #00007B",
".e c #5D86C2",
".r c #4773B3",
".t c #E95351",
".y c #E13332",
".u c #658BC3",
".i c #00178B",
".p c None",
/* pixels */
".>.>.>.>.  -.  l.i E ,.*.w.- M f",
".> } } @ 7 6 #.4 T ~ h.9.q.u G 3",
".> b.7 5 7 2.  { % ] X A ` v.5.1",
" & ! 5 C. .: 9 * > n A ; W + N |",
".  7 7.  8.t.o e.@ t.# y.$ i.$.,",
" - I c g V.0 ).X.6 F.y R . / H 1",
". .  9 0.o d.@ t.# y.$ i.& a i.2",
" _ U.e ^ e q t J 4 p k m.O S.r Z",
" w.+ ^ [.@.8.# 4 s z.. $ D <.< O",
" :   L.q.@ K.# Q.%.3 o Y r.< ' x",
".*.w.- M.= u.; B j ( P = Z O x x"
};
