/* XPM */
const char *icon_famfamfam_flags_it[] = {
/* width height ncolors chars_per_pixel */
"16 11 113 2",
/* colors */
"   c #F62C2C",
" . c #F50000",
" X c #F21414",
" o c #77C777",
" O c #E10000",
" + c #6AC36A",
" @ c #5FBF5F",
" # c #FDFDFE",
" $ c #5CBD5C",
" % c #58B958",
" & c #54B954",
" * c #53B953",
" = c #54B754",
" - c #F33232",
" ; c #4FB74F",
" : c #50B550",
" > c #EF0000",
" , c #4BB34B",
" < c #F62B2B",
" 1 c #45B145",
" 2 c #44B144",
" 3 c #F43636",
" 4 c #7BCA7A",
" 5 c #F21313",
" 6 c #F74949",
" 7 c #E90000",
" 8 c #FEFEFE",
" 9 c #F52626",
" 0 c #FCFCFC",
" q c #FAFAFA",
" w c #F8F8F8",
" e c #F6F6F6",
" r c #F4F4F4",
" t c #FA5C5C",
" y c #009100",
" u c #008900",
" i c #008700",
" p c #008500",
" a c #008300",
" s c #007F00",
" d c #007B00",
" f c #007700",
" g c #007500",
" h c #F64444",
" j c #E30000",
" k c #006F00",
" l c #006700",
" z c #F85353",
" x c #006300",
" c c #005B00",
" v c #005300",
" b c #F22C2C",
" n c #F95757",
" m c #F52525",
" M c #F43B3B",
" N c #F10000",
" B c #DD0000",
" V c #F53F3F",
" C c #58BB59",
" Z c #F74E4E",
" A c #54B555",
" S c #F23232",
" D c #F42020",
" F c #7BCA7B",
" G c #79C879",
" H c #EB0000",
" J c #76C876",
" K c #6FC46F",
" L c #66C066",
" P c #5DBC5D",
" I c #58BC58",
" U c #59BA59",
" Y c #F83737",
" T c #4FB64F",
" R c #E50000",
" E c #49B449",
" W c #F21010",
" Q c #45B045",
" ! c #3FAE3F",
" ~ c #F41F1F",
" ^ c #F33535",
" / c #3AAA3A",
" ( c #F30000",
" ) c #DF0000",
" _ c #FDFDFD",
" ` c #FBFBFB",
" ' c #F10B0B",
" ] c #F9F9F9",
" [ c #F7F7F7",
" { c #F5F5F5",
" } c #F3F3F3",
" | c #F31A1A",
".  c #F10F0E",
".. c #40AD3F",
".X c #E5E5E5",
".o c #E3E3E3",
".O c #E1E1E1",
".+ c #DFDFDF",
".@ c #ED0000",
".# c #DDDDDD",
".$ c #DBDBDB",
".% c #F73131",
".& c #CDCDCD",
".* c #C9C9C9",
".= c #72C673",
".- c #C7C7C7",
".; c #C3C3C3",
".: c #C1C1C1",
".> c #F31919",
"., c #F22F2F",
".< c #61BE62",
".1 c #E70000",
".2 c None",
/* pixels */
" y u u i a.X.o.O.+.#.$ . ( N >.@",
" p F F G o 8 # _ 0 0 ` t n z Z H",
" u 4 @ $ U _ _ 0 ` q ] Y.%   6 7",
" i G $ C = _ 0 ` q ] w.% < 9 h.1",
" i J I & : 0 ` q ] w [ < m D V.1",
" a.= * T , ` q ] w [ e m ~ | M R",
" s K ; E Q q ] w [ e { ~.> X 3 j",
" d + E 1.. ] w [ e { r.> X W - )",
" f L 2 ! / w [ e { r } 5.  '., )",
" k.< P % A w [ [ e { r ^ S., b B",
" g l x c v.&.*.-.;.:.: O ) B B B"
};
