/* XPM */
const char *icon_famfamfam_flags_jp[] = {
/* width height ncolors chars_per_pixel */
"16 11 81 1",
/* colors */
"  c #F73737",
". c #F4D5D5",
"X c #F93B3C",
"o c #F49393",
"O c #F73030",
"+ c #F83434",
"@ c #F7F5F5",
"# c #FDFDFE",
"$ c #F55555",
"% c #F89493",
"& c #F4F5F5",
"* c #FB4747",
"= c #F62B2B",
"- c #FC4B4B",
"; c #F72F2F",
": c #FEFEFE",
"> c #FCFCFC",
", c #FBFCFB",
"< c #FAFAFA",
"1 c #F8F8F8",
"2 c #F6F6F6",
"3 c #F4F4F4",
"4 c #F2F2F2",
"5 c #FB4646",
"6 c #F62A2A",
"7 c #F93B3A",
"8 c #FA4848",
"9 c #FDAAAA",
"0 c #F47D7D",
"q c #F3EFEF",
"w c #FA4141",
"e c #F8F7F7",
"r c #F93C3C",
"t c #E1E3E3",
"y c #FB7979",
"u c #F6DADA",
"i c #FA4040",
"p c #F52424",
"a c #F6F4F4",
"s c #F5BBBB",
"d c #F2F2F3",
"f c #FDEAEA",
"g c #FCD2D2",
"h c #F52A2A",
"j c #FC5555",
"k c #F93B3B",
"l c #FAAFAF",
"z c #F99797",
"x c #FA4142",
"c c #FFFFFF",
"v c #FDFDFD",
"b c #FBFBFB",
"n c #F9F9F9",
"m c #FC7E7F",
"M c #F83636",
"N c #F7F7F7",
"B c #F5F5F5",
"V c #F3F3F3",
"C c #F1F1F1",
"Z c #FDBBBB",
"A c #EFEFEF",
"S c #EDEDED",
"D c #FBE7E7",
"F c #EBEBEB",
"G c #E9E9E9",
"H c #E7E7E7",
"J c #E5E5E5",
"K c #E1E3E1",
"L c #DFDFDF",
"P c #DDDDDD",
"I c #F65B5B",
"U c #F7A1A1",
"Y c #DBDBDB",
"T c #D9D9D9",
"R c #D7D7D7",
"E c #D5D5D5",
"W c #D3D3D3",
"Q c #D1D1D1",
"! c #CFCFCF",
"~ c #F83535",
"^ c None",
/* pixels */
"BBBBBVVCAASFGHJt",
"Bcc:::#v>>b<n1NL",
"Bc:::vZmyln1N2NP",
"B:::v9-*xr%N2B2Y",
"B::vfj5wXM uB3BR",
"V:v>g5ikMO=s3V&E",
"Cv>,D87~;6h.V43W",
"C>bb<z+;6p0V44VW",
"A><<neUI$oq4CC4!",
"Sb<nn1N@aB3Vd44!",
"FGHJKLPYTREWQ!!!"
};
