/* XPM */
const char *icon_famfamfam_flags_kh[] = {
/* width height ncolors chars_per_pixel */
"16 11 160 2",
/* colors */
"   c #BF0000",
" . c #7F93E3",
" X c #000081",
" o c #970000",
" O c #C81919",
" + c #CF2E2D",
" @ c #6F86DD",
" # c #DA5252",
" $ c #0000AF",
" % c #F7E8E8",
" & c #E47676",
" * c #F6E8E7",
" = c #F5E6E6",
" - c #D84746",
" ; c #495EC8",
" : c #00009B",
" > c #F3E4E4",
" , c #DD5858",
" < c #DC5857",
" 1 c #E59B9B",
" 2 c #516CD3",
" 3 c #C61010",
" 4 c #5B75D6",
" 5 c #CE3232",
" 6 c #DE5C5C",
" 7 c #000DBF",
" 8 c #0007BF",
" 9 c #C91816",
" 0 c #DB4F4F",
" q c #D23839",
" w c #D03837",
" e c #6979D3",
" r c #CF3636",
" t c #D74B4B",
" y c #0000A1",
" u c #CE2B2B",
" i c #D23C3C",
" p c #5768CB",
" a c #4A5DC8",
" s c #8B0000",
" d c #F9F6F6",
" f c #0000BB",
" g c #8894DD",
" h c #0000A7",
" j c #DD5B5A",
" k c #F8F8F8",
" l c #DC5959",
" z c #000093",
" x c #F6F6F6",
" c c #6A83DD",
" v c #F4F4F4",
" b c #CD2626",
" n c #00007F",
" m c #738ADF",
" M c #5A74D7",
" N c #0000AD",
" B c #4865CF",
" V c #000099",
" C c #D33F3F",
" Z c #DB5454",
" A c #576BCD",
" S c #000085",
" D c #CF3B3B",
" F c #DD6363",
" G c #5F77D8",
" H c #4461CE",
" J c #F4E6E6",
" K c #0007BD",
" L c #2B44BC",
" P c #0003BD",
" I c #CD2525",
" U c #0000B3",
" Y c #3452C8",
" T c #00009F",
" R c #CD3232",
" E c #5D6ECF",
" W c #00008B",
" Q c #DB5150",
" ! c #F7F2F2",
" ~ c #DB5353",
" ^ c #0000B9",
" / c #DA5152",
" ( c #CC2020",
" ) c #C30000",
" _ c #3655C9",
" ` c #00007D",
" ' c #5366CB",
" ] c #E47979",
" [ c #D84A49",
" { c #768CE0",
" } c #000069",
" | c #415ECD",
".  c #D34444",
".. c #4459C6",
".X c #F4DEDE",
".o c #5A6BCB",
".O c #687FDC",
".+ c #8095E3",
".@ c #677FDB",
".# c #6B7CD5",
".$ c #F4EBEB",
".% c #4F62CA",
".& c #000097",
".* c #5670D4",
".= c #BD0000",
".- c #DD5454",
".; c #E58180",
".: c #EEDCDB",
".> c #7C91E2",
"., c #637BDA",
".< c #6576D2",
".1 c #E27273",
".2 c #F2E2E2",
".3 c #0000B1",
".4 c #394FC1",
".5 c #798FE2",
".6 c #5263C9",
".7 c #C91F1F",
".8 c #D94949",
".9 c #D74947",
".0 c #6172D1",
".q c #F7F7F7",
".w c #4558C6",
".e c #7684D5",
".r c #C81414",
".t c #000089",
".y c #4D68D1",
".u c #2238B4",
".i c #E8A3A3",
".p c #344BBF",
".a c #8F0000",
".s c #E26F6F",
".d c #3D5BCB",
".f c #0000B7",
".g c #3F54C3",
".h c #647CDA",
".j c #D94F4F",
".k c #4E63CB",
".l c #0000A3",
".z c #F6E5E5",
".x c #C81A1A",
".c c #2F47BD",
".v c #556FD5",
".b c #DE6F6E",
".n c #00008F",
".m c #3957CA",
".M c #4255BF",
".N c #00007B",
".B c #5F78D8",
".V c #DB6061",
".C c #CF3131",
".Z c #F5DEDD",
".A c #F5F4F4",
".S c #E16A6A",
".D c #0007B3",
".F c #6E7ED6",
".G c #F7EDEC",
".H c #263BB7",
".J c #0000A9",
".K c None",
/* pixels */
" 7 K K K P f ^.f U.3 N.J h.l T T",
" 8.+.+ ..>.5 { m @ c.@., G M.v V",
".D g.F.# e.<.0 E A '.% a.w.g.o S",
" ) ] 6 l Z / t F.V i q.C u b.  o",
" ) & ,.- Q.; j.Z.X.9.b + I ( C o",
"  .1 ~.j # %.i = J 1.2 5.7.x D.a",
"  .s 0 [ < d * k ! >.A w O.r r.a",
".=.S.8 -.z d.G.q x.$ v.: 9 3 R s",
" y.e p.6.k ;...g.4.p.c L.H.u.M }",
" $.O.h.B 4.* 2.y B H |.d.m _ Y `",
" N h.l T :.& z.n W.t S X n `.N `"
};
