/* XPM */
const char *icon_famfamfam_flags_km[] = {
/* width height ncolors chars_per_pixel */
"16 11 151 2",
/* colors */
"   c #8B89C4",
" . c #82813A",
" X c #6098F6",
" o c #63AF71",
" O c #FBFB75",
" + c #DF411F",
" @ c #8B8BC7",
" # c #9BCD9E",
" $ c #F0D900",
" % c #FDFD7D",
" & c #0001E7",
" * c #FEFE74",
" = c #0000DD",
" - c #DE3B24",
" ; c #FAFA5C",
" : c #8986C1",
" > c #FEFE77",
" , c #E13F2A",
" < c #53A953",
" 1 c #50A950",
" 2 c #001BED",
" 3 c #0013ED",
" 4 c #EAD300",
" 5 c #46A346",
" 6 c #DBA597",
" 7 c #DB3510",
" 8 c #B30000",
" 9 c #0000E3",
" 0 c #F3F979",
" q c #7BBC7A",
" w c #F1DA00",
" e c #DD361F",
" r c #DC3914",
" t c #FDFD86",
" y c #F9F957",
" u c #6CB66B",
" i c #5993F4",
" p c #FCFCFC",
" a c #DE3D19",
" s c #FAFAFA",
" d c #F8F8F8",
" f c #4D8AF2",
" g c #F6F6F6",
" h c #F4F4F4",
" j c #8985C0",
" k c #D4EA7B",
" l c #9DCF5C",
" z c #EBF4EB",
" x c #F1D7D0",
" c c #E8F4E8",
" v c #B36E3A",
" b c #EBD400",
" n c #6B9FF8",
" m c #DB3119",
" M c #006F00",
" N c #D3E8D3",
" B c #F2DB00",
" V c #006700",
" C c #73A2F9",
" Z c #528FF3",
" A c #F8F869",
" S c #D35635",
" D c #DE4B36",
" F c #CAE4CA",
" G c #005900",
" H c #005300",
" J c #ECF8F2",
" K c #68B566",
" L c #F7F775",
" P c #ED5134",
" I c #6D6DA7",
" U c #005517",
" Y c #F5F5F4",
" T c #649BF7",
" R c #8884BE",
" E c #DA2E14",
" W c #8882BE",
" Q c #FAFA71",
" ! c #0039C3",
" ~ c #ECD500",
" ^ c #000FEB",
" / c #F7F764",
" ( c #B50000",
" ) c #0000E1",
" _ c #FDFD6D",
" ` c #689EF7",
" ' c #002FF1",
" ] c #9787B5",
" [ c #FCFC79",
" { c #E14624",
" } c #5C95F5",
" | c #FCFC65",
".  c #4F8CF2",
".. c #59963F",
".X c #4FA700",
".o c #80A562",
".O c #F1D5CE",
".+ c #EFD3CC",
".@ c #EDD600",
".# c #8A87C2",
".$ c #F4DBD4",
".% c #F3D9D3",
".& c #F2D9D2",
".* c #8E8DC9",
".= c #FBFB60",
".- c #6EA7BD",
".; c #F8F853",
".: c #40A040",
".> c #E7D600",
"., c #74B973",
".< c #79A3F9",
".1 c #EED700",
".2 c #FBFBFB",
".3 c #60B15F",
".4 c #E05232",
".5 c #F9F9F9",
".6 c #F7F7F7",
".7 c #E24B2A",
".8 c #F5F5F5",
".9 c #0007E9",
".0 c #EEF7EE",
".q c #F7F74E",
".w c #0000DF",
".e c #EAF3EA",
".r c #E8F3E8",
".t c #5590F3",
".y c #8D8CC7",
".u c #E7E7E7",
".i c #8B8AC5",
".p c #E4452F",
".a c #DCEDDC",
".s c #41A140",
".d c #FEFE79",
".f c #0021EF",
".g c #F1D8D3",
".h c #4FA751",
".j c #CFE7CF",
".k c #CEE7CE",
".l c #8EC87B",
".z c #0000E5",
".x c #FDFD71",
".c c #F9F96D",
".v c #B9DDB9",
".b c #EFD800",
".n c #E84E2F",
".m c #F6F660",
".M c #F6F6F5",
".N c #7D9B74",
".B c #FCFC69",
".V c #5CB05D",
".C c None",
/* pixels */
".X.> B B w w w w w $.b.b.1.@ ~ ~",
" V.l k.d > *.x _.B |.= ; y.;.q b",
" M q u l 0 t % [ O Q.c A /.m L 4",
" G q c.a.,.j p.2 s.5 d.6 g Y.M.u",
" G z.0.V.k.h # J.5 d.6 g.8 h.8.u",
" G z.v <.e 5.:.o.$.%.& x.O.+.g 6",
" G z z 1 F.s . S.p , - e m E D 8",
" G K.r N.. v P.n.7 { + a r 7.4 (",
" G K.3.N ].*.y.i  .# : j R W @ I",
" H o.-.< C n ` T X } i.t Z.  f =",
" U ! '.f 2 3 ^.9 &.z 9 ).w = = ="
};
