/* XPM */
const char *icon_famfamfam_flags_kr[] = {
/* width height ncolors chars_per_pixel */
"16 11 123 2",
/* colors */
"   c #B1B1B1",
" . c #CFD7D5",
" X c #CBD3D1",
" o c #CBD1D1",
" O c #E84249",
" + c #DBDADA",
" @ c #C5D2EC",
" # c #DADCDC",
" $ c #E9EEEE",
" % c #878787",
" & c #ABAAA7",
" * c #FDFDFE",
" = c #7F7F7F",
" - c #7C7B7C",
" ; c #F4F5F5",
" : c #777777",
" > c #E9E9EA",
" , c #6B6B6B",
" < c #696969",
" 1 c #F79695",
" 2 c #D3D3D1",
" 3 c #E7363D",
" 4 c #F1F7F5",
" 5 c #EFF5F3",
" 6 c #636363",
" 7 c #EDF1F1",
" 8 c #C67993",
" 9 c #EBF1EF",
" 0 c #F3B1B5",
" q c #E1E7E5",
" w c #DFE5E3",
" e c #DDE3E1",
" r c #FA4442",
" t c #5569C2",
" y c #FEFEFE",
" u c #D7DBDB",
" i c #D5DBD9",
" p c #FCFCFC",
" a c #FAFAFA",
" s c #D1D7D5",
" d c #F8F8F8",
" f c #CFD5D3",
" g c #F6F6F6",
" h c #F4F4F4",
" j c #CBD1CF",
" k c #F2F2F2",
" l c #FB4646",
" z c #AAA9A8",
" x c #EE3D43",
" c c #EAEAEA",
" v c #E8E8E8",
" b c #676666",
" n c #D0D0CD",
" m c #F97875",
" M c #A3ACD9",
" N c #3A6DD5",
" B c #E3434F",
" V c #DADADA",
" C c #6D92DC",
" Z c #FBD6D6",
" A c #FA4141",
" S c #D8DADB",
" D c #C8C8C8",
" F c #C6C6C6",
" G c #C2C2C2",
" H c #FCDADA",
" J c #C9D5ED",
" K c #FDF6F5",
" L c #AEAEAE",
" P c #F8F0F0",
" I c #E8EEF4",
" U c #9E9E9E",
" Y c #ADB0B0",
" T c #3C72D9",
" R c #EDECE8",
" E c #8C8C8C",
" W c #CFD3D1",
" Q c #F5F4F3",
" ! c #FC8A8A",
" ~ c #7E7E7E",
" ^ c #3A76DD",
" / c #F2F2F3",
" ( c #ADAFAF",
" ) c #FB4A4A",
" _ c #585858",
" ` c #565656",
" ' c #F2F4F9",
" ] c #656EBE",
" [ c #FFFFFF",
" { c #FDFDFD",
" } c #FBFBFB",
" | c #F7F7F7",
".  c #7AA1E6",
".. c #F5F5F5",
".X c #F3F3F3",
".o c #4B67C5",
".O c #E9E9E9",
".+ c #2A66D6",
".@ c #E7E7E7",
".# c #F2F5F5",
".$ c #DFDFDF",
".% c #DAD9DA",
".& c #D9D9D9",
".* c #D7D7D7",
".= c #D5D5D5",
".- c #B59DC3",
".; c #EDF3F3",
".: c #AAC4F0",
".> c #EBF1F1",
"., c #CBCBCB",
".< c #E9EFEF",
".1 c #E7EDED",
".2 c #E5EBEB",
".3 c #C5C5C5",
".4 c #E3E9E9",
".5 c #586FC7",
".6 c #BBBBBB",
".7 c #D9E1DF",
".8 c #BAB9BA",
".9 c #D7DFDD",
".0 c #D3D9D9",
".q c #D1D9D7",
".w c None",
/* pixels */
" 4 4 4 4 4 5 5.; 7 9.<.1.2.4 q w",
" 4 [ [.* F h * { p p k.8 D d | e",
" 4 [ c E - # { H Z a S b : + |.7",
" 4 y V % ( K ! ) r m P Y 6 G g.9",
" 4 y y v.# 0 l A x 3 1 $.% h.. i",
" 5 y { p p.- O B ].o 8.. h.X ;.q",
".; { p.O Q.: t.5 ^.+ M R.& k h s",
" 7 p.= = z '.  T N C I & _.6.X f",
".> p.$ ~ , 2 | J @ / n ` <., k X",
".< } a.3 L > | | g...@ U   k k o",
".1.2.4 q w e.7.9 u.0.q . W X o j"
};
