/* XPM */
const char *icon_famfamfam_flags_kw[] = {
/* width height ncolors chars_per_pixel */
"16 11 141 2",
/* colors */
"   c #000000",
" . c #F4B0B1",
" X c #E50B0B",
" o c #727273",
" O c #F15455",
" + c #E50F0E",
" @ c #79CD79",
" # c #7BC37B",
" $ c #74C774",
" % c #E71313",
" & c #D74545",
" * c #CD0000",
" = c #6DC36D",
" - c #F2ABAB",
" ; c #E92F2F",
" : c #5CBB5C",
" > c #7B877B",
" , c #4D4944",
" < c #54B954",
" 1 c #5CA95C",
" 2 c #53B753",
" 3 c #797979",
" 4 c #F4F5F5",
" 5 c #51B751",
" 6 c #4CB54C",
" 7 c #4FA94F",
" 8 c #49B149",
" 9 c #47B347",
" 0 c #DB0000",
" q c #6F6F6F",
" w c #F83A3A",
" e c #C70000",
" r c #3DAD3D",
" t c #5F695F",
" y c #EFA4A4",
" u c #2CA52C",
" i c #484945",
" p c #EB2323",
" a c #535353",
" s c #4F4F4F",
" d c #61BE60",
" f c #F95858",
" g c #FCFCFC",
" h c #D50000",
" j c #494949",
" k c #FAFAFA",
" l c #F8F8F8",
" z c #F6F6F6",
" x c #F3AEAE",
" c c #F4F4F4",
" v c #F2F2F2",
" b c #C53F3F",
" n c #F8B6B6",
" m c #009100",
" M c #008900",
" N c #F0AEAE",
" B c #008100",
" V c #E2E0E2",
" C c #007D00",
" Z c #E0E0E0",
" A c #007900",
" S c #007500",
" D c #007300",
" F c #006F00",
" G c #006B00",
" H c #006500",
" J c #CF0000",
" K c #005F00",
" L c #005900",
" P c #005500",
" I c #005100",
" U c #004900",
" Y c #004100",
" T c #70C571",
" R c #B4DEB4",
" E c #ADDAAD",
" W c #F10000",
" Q c #AAD8AA",
" ! c #AECEAE",
" ~ c #A8D6A8",
" ^ c #E82F2F",
" / c #DD0000",
" ( c #C90000",
" ) c #646762",
" _ c #EC3939",
" ` c #DDDFDF",
" ' c #77C877",
" ] c #D70000",
" [ c #585F59",
" { c #ED3D3D",
" } c #69C269",
" | c #B0DBAF",
".  c #EE3434",
".. c #65C065",
".X c #59BC59",
".o c #F05050",
".O c #767676",
".+ c #4EB44E",
".@ c #E93232",
".# c #D10000",
".$ c #42B042",
".% c #6A6A6A",
".& c #666666",
".* c #E91E1E",
".= c #37AA37",
".- c #31A831",
".; c #5C5C5C",
".: c #585858",
".> c #545454",
"., c #EF4B4B",
".< c #F1A9A9",
".1 c #DF0000",
".2 c #FBFBFB",
".3 c #494A49",
".4 c #F9F9F9",
".5 c #58B957",
".6 c #F7F7F7",
".7 c #7B7B7A",
".8 c #F5F5F5",
".9 c #F3F3F3",
".0 c #E81919",
".q c #ED4242",
".w c #F5B3B3",
".e c #E7E7E7",
".r c #E5E5E5",
".t c #E3E3E3",
".y c #EA3535",
".u c #EE4646",
".i c #ED2E2E",
".p c #EEA2A2",
".a c #EFA6A6",
".s c #BCE3BC",
".d c #B9E1B9",
".f c #E82C2C",
".g c #E15D5D",
".h c #B7DFB7",
".j c #D9A4A4",
".k c #B2DDB2",
".l c #B3DBB3",
".z c #EC2929",
".x c None",
/* pixels */
"   M m M B C A S D F G H K L P I",
"   > # @ ' $ T = }.. d :.5 2.+ U",
"  .7 t 1.X < 5 6 9.$ r.=.- u 8 Y",
"   3.; [ !.s.d.h R.k | E Q ~.l 7",
"  .O.:.> V g.2 k.4 l.6 z.8 c.8.e",
"   o a s Z.2 k.4 l.6 z.8 c.9 4.r",
"   q s.3 ` k.4 l.6 z.8 c.9 v c.t",
"  .% j i.j n.w . x -.<.a y.p N &",
"  .& , b w. .i.z p.*.0 % + X ^ e",
"   ).g f O.o.,.u.q { _.y.@ ;.f (",
"   0 W.1 / 0 ] ] h.# J * * ( ( ("
};
