/* XPM */
const char *icon_famfamfam_flags_ky[] = {
/* width height ncolors chars_per_pixel */
"16 11 153 2",
/* colors */
"   c #000000",
" . c #5D666F",
" X c #C3CDDD",
" o c #C1CBDB",
" O c #63744D",
" + c #D8A9B3",
" @ c #3B5289",
" # c #49609A",
" $ c #000963",
" % c #000003",
" & c #445A95",
" * c #586DA2",
" = c #6A7EAD",
" - c #54699E",
" ; c #EA9293",
" : c #DFC2CA",
" > c #C2696F",
" , c #E4D3DC",
" < c #3A4E8B",
" 1 c #738159",
" 2 c #364E87",
" 3 c #8D7FA1",
" 4 c #000031",
" 5 c #DAB5BE",
" 6 c #6F7FAE",
" 7 c #D397A0",
" 8 c #573965",
" 9 c #6D7AA2",
" 0 c #8B8EB2",
" q c #B5717F",
" w c #B29D7F",
" e c #647350",
" r c #6A7277",
" t c #364C90",
" y c #455B98",
" u c #753D61",
" i c #E4C9D1",
" p c #405793",
" a c #7C92BA",
" s c #3F5592",
" d c #772D4F",
" f c #001D75",
" g c #DABFCA",
" h c #394B8F",
" j c #E88A8C",
" k c #676F9B",
" l c #6B7CAC",
" z c #7E7097",
" x c #49609B",
" c c #344D8D",
" v c #6F7E5D",
" b c #C0656B",
" n c #455C97",
" m c #00002F",
" M c #7F95BC",
" N c #2C4385",
" B c #3D548F",
" V c #667AAA",
" C c #7F749B",
" Z c #9C97B4",
" A c #D0B4BC",
" S c #3C5291",
" D c #7F2F4F",
" F c #000049",
" G c #B09978",
" H c #374E8C",
" J c #5D72A4",
" K c #415C99",
" L c #DE868B",
" P c #D9B5BE",
" I c #233D82",
" U c #B7A16E",
" Y c #3B4E7F",
" T c #465997",
" R c #304288",
" E c #425993",
" W c #6577A8",
" Q c #E08E93",
" ! c #00003B",
" ~ c #C38E9E",
" ^ c #F1B3B4",
" / c #2E4889",
" ( c #000027",
" ) c #3F5793",
" _ c #475987",
" ` c #CE966D",
" ' c #4E649B",
" ] c #6175A7",
" [ c #485C95",
" { c #713D61",
" } c #C5CFDE",
" | c #5368A3",
".  c #607049",
".. c #C090A1",
".X c #465E96",
".o c #97AACB",
".O c #00002D",
".+ c #000019",
".@ c #E0777B",
".# c #C0A065",
".$ c #445C97",
".% c #2F4989",
".& c #CAAC72",
".* c #4C5E8B",
".= c #425895",
".- c #405893",
".; c #5469A0",
".: c #647AA9",
".> c #50659C",
"., c #CBACB5",
".< c #F1B6B6",
".1 c #CB322E",
".2 c #000033",
".3 c #2A4187",
".4 c #00001F",
".5 c #E09398",
".6 c #E2C1C8",
".7 c #3A5290",
".8 c #415483",
".9 c #6174A9",
".0 c #00000B",
".q c #495F98",
".w c #2E4B8E",
".e c #35488B",
".r c #E2D9E2",
".t c #BFCADA",
".y c #D7BF95",
".u c #344E8D",
".i c #000039",
".p c #E69FA4",
".a c #AC9C6E",
".s c #273373",
".d c #CCA373",
".f c #2D4486",
".g c #2F4088",
".h c #D1423D",
".j c #000025",
".k c #30437F",
".l c #77845E",
".z c #3B4F8D",
".x c #3B4D8D",
".c c #000011",
".v c #C33339",
".b c #E48084",
".n c #294485",
".m c #3F5594",
".M c #6D7BA0",
".N c #4F649D",
".B c #526196",
".V c #00003F",
".C c #4B6099",
".Z c #3B4E86",
".A c None",
/* pixels */
" q 3 f d D $ {.j.V.i 4 m (.4.+.c",
".s :.r 5 + g ,.M l W.9 9.y.; '.0",
".v.p ;.b.@ j L.*.B.= K.l 1.w.q %",
" u.6 ^ Q.5.< 7 _ [ S.h `.d.1 &  ",
" k i Z.. ~.o P.8 s t A > b.,.m  ",
" 8 0 | C z T.: Y < R v M a e.x  ",
" F 6.N x y.-.z.e.%.f } X o.t H  ",
".V = # n p.7.u.%.3 G.& O. .# w  ",
" ! V.$ ).7 c /.n I.k r U.a ..Z  ",
".2 ] J * -.>.C.X E B h @ 2.g N  ",
".O (.4.+.c.0 %                  "
};
