/* XPM */
const char *icon_famfamfam_flags_kz[] = {
/* width height ncolors chars_per_pixel */
"16 11 162 2",
/* colors */
"   c #87A903",
" . c #CADB91",
" X c #7CDBFA",
" o c #73DAFB",
" O c #00A3ED",
" + c #46C8F3",
" @ c #91E3FE",
" # c #009DED",
" $ c #5CD2F8",
" % c #CCDB96",
" & c #7ED3D4",
" * c #DFBF00",
" = c #F2E48D",
" - c #75D6EC",
" ; c #DFCA38",
" : c #60CFF5",
" > c #87DDF7",
" , c #7ADFFE",
" < c #00AFF3",
" 1 c #09C3FF",
" 2 c #53CAF2",
" 3 c #C2D78F",
" 4 c #F8D336",
" 5 c #F8D136",
" 6 c #5CCDF4",
" 7 c #5BCDF3",
" 8 c #A2CC8D",
" 9 c #54CEF6",
" 0 c #76DBFD",
" q c #AACC81",
" w c #0087DF",
" e c #0085DF",
" r c #0083DF",
" t c #71D7F8",
" y c #70D7F7",
" u c #F0E387",
" i c #64D2F5",
" p c #00B5F9",
" a c #CEDE97",
" s c #D0D46E",
" d c #00B3F9",
" f c #EDDE7A",
" g c #73DBFD",
" h c #79DAF9",
" j c #03BFFF",
" k c #D3E09F",
" l c #8FE2FE",
" z c #38C2F1",
" x c #008BE5",
" c c #BED794",
" v c #75D8F8",
" b c #A2C87F",
" n c #9FD2A7",
" m c #97CFA9",
" M c #8CE2FE",
" N c #8ED8D5",
" B c #8AE0FC",
" V c #7FDDFB",
" C c #78C7B2",
" Z c #D8E4AA",
" A c #0FC3FD",
" S c #71D8F7",
" D c #B5CA6D",
" F c #83D8E1",
" G c #009DEB",
" H c #7CD7E4",
" J c #0097EB",
" K c #59CCF3",
" L c #75DCFE",
" P c #7CD1D0",
" I c #45C8F3",
" U c #7FD6E0",
" Y c #68D4F1",
" T c #00ABF1",
" R c #55CAF2",
" E c #5ECEE7",
" W c #D4E1A2",
" Q c #72CBC9",
" ! c #41C6F2",
" ~ c #5ECFF4",
" ^ c #C6D88A",
" / c #6DDAFC",
" ( c #0087DD",
" ) c #0081DD",
" _ c #94E4FE",
" ` c #007FDD",
" ' c #AFD191",
" ] c #00B1F7",
" [ c #75DBFD",
" { c #75D8F3",
" } c #69D6FB",
" | c #3BC6F2",
".  c #8BCBAC",
".. c #56CBF2",
".X c #0089E3",
".o c #4FCCF5",
".O c #0087E3",
".+ c #00BFFD",
".@ c #6CD5F7",
".# c #00BDFD",
".$ c #00BBFD",
".% c #00B9FD",
".& c #8EDFF4",
".* c #7ADCFE",
".= c #13C3FF",
".- c #74DAF8",
".; c #75D8F9",
".: c #4BCAF4",
".> c #68D3F6",
"., c #0097E9",
".< c #0093E9",
".1 c #55CFF7",
".2 c #EBDD75",
".3 c #D8E4AB",
".4 c #E7CF46",
".5 c #C5D06D",
".6 c #58CCF3",
".7 c #50CDF5",
".8 c #79D9F9",
".9 c #72DAFC",
".0 c #00A7EF",
".q c #00A1EF",
".w c #71D2E7",
".e c #59D0F7",
".r c #6FD0E5",
".t c #D2D15F",
".y c #6FDAFC",
".u c #61CDE1",
".i c #D3CE56",
".p c #B2CA71",
".a c #BCD388",
".s c #62D5F9",
".d c #EAD352",
".f c #00ADF5",
".g c #55CEF6",
".h c #A3D5AE",
".j c #6BD8FB",
".k c #3DC4F2",
".l c #5FD3F9",
".z c #3CC4F1",
".x c #A8CD8B",
".c c #53D0F7",
".v c #F9D53C",
".b c #ABD5A5",
".n c #0085E1",
".m c #00B5FB",
".M c #5BD1F8",
".N c #7CDEFE",
".B c #64D6FA",
".V c #82CDBB",
".C c #64D4FA",
".Z c #0095E7",
".A c #ECD653",
".S c #8DD5C9",
".D c #008FE7",
".F c #FAD543",
".G c #79DCFE",
".H c #D8E4A9",
".J c #4ACAF4",
".K c #EFE284",
".L c #68D3F7",
".P c None",
/* pixels */
" j * 1.= A.+.$.%.m d ].f < T.0.q",
" j =.3 _ @ l M B.& > V X.8 v y G",
" j Z ,.N.* 0.9 N c.b Y $.e.g.@.,",
" j.H a.G g o S 3.F.d n.c 9.7.>.Z",
".+ u L [.- { H.A.v 4.t E.o.: i.D",
".#.K ..y F U.h.a 5.4.x. .J + : x",
".% W /.j -.S s P m.V Q D I ! 6.O",
".m k ^ }.s & '.5.i 8 ; b !.k K e",
" p f.B.C.l.M.1.u q.p C |.z z.. r",
" ].2 % h.; t.@.L.w.r ~ 7.6 R 2 `",
".f   T.0 O # J.<.D x.X.n w ( ` )"
};
