/* XPM */
const char *icon_famfamfam_flags_la[] = {
/* width height ncolors chars_per_pixel */
"16 11 152 2",
/* colors */
"   c #000000",
" . c #000081",
" X c #A36493",
" o c #A06090",
" O c #FC6D6D",
" + c #0017B9",
" @ c #F23535",
" # c #F50000",
" $ c #5F81D7",
" % c #E10000",
" & c #5D7DD5",
" * c #829EE2",
" = c #000087",
" - c #0025BF",
" ; c #A46590",
" : c #F02C2C",
" > c #954D7E",
" , c #718DDB",
" < c #A76996",
" 1 c #FD7777",
" 2 c #6484D8",
" 3 c #FA5D5D",
" 4 c #6382D7",
" 5 c #EF0000",
" 6 c #DB0000",
" 7 c #F75050",
" 8 c #6D8BDA",
" 9 c #FE7B7B",
" 0 c #395FC8",
" q c #5075CE",
" w c #5C7ED3",
" e c #7490DA",
" r c #6987D9",
" t c #FD0000",
" y c #C090B1",
" u c #F95858",
" i c #FAFAFA",
" p c #9F5A8A",
" a c #8AA2E2",
" s c #F8F8F8",
" d c #6D88D6",
" f c #335DC8",
" g c #863D78",
" h c #ECEFF6",
" j c #833975",
" k c #8F4D84",
" l c #3F68CD",
" z c #3E66CC",
" x c #5478D1",
" c c #F70000",
" v c #6385D9",
" b c #6784D3",
" n c #2D59C5",
" m c #E30000",
" M c #F44242",
" N c #7691DB",
" B c #3962CA",
" V c #5074D0",
" C c #F54646",
" Z c #CFD7F0",
" A c #0021BD",
" S c #5C7DD5",
" D c #9C5E90",
" F c #AF739C",
" G c #995A8D",
" H c #F23939",
" J c #4B6ECE",
" K c #F10000",
" L c #905084",
" P c #803671",
" I c #5A7DD6",
" U c #C9D3ED",
" Y c #9F5D8C",
" T c #F33D3D",
" R c #F74E4E",
" E c #00008B",
" W c #4B72D1",
" Q c #315CC8",
" ! c #F23232",
" ~ c #7B98DF",
" ^ c #456ACB",
" / c #5679D5",
" ( c #5B7AD0",
" ) c #859FE2",
" _ c #843E7B",
" ` c #EB0000",
" ' c #E3E8F2",
" ] c #F85455",
" [ c #4066C9",
" { c #AD7099",
" } c #6B8BDC",
" | c #FB6565",
".  c #000091",
".. c #355FC8",
".X c #995282",
".o c #496FCB",
".O c #FC6969",
".+ c #0011B5",
".@ c #F90000",
".# c #2F59C5",
".$ c #F95C5C",
".% c #F02F2F",
".& c #E50000",
".* c #87437D",
".= c #FA6060",
".- c #000083",
".; c #230000",
".: c #2A55C3",
".> c #001BBB",
"., c #E6E9F4",
".< c #F75353",
".1 c #6A88DA",
".2 c #4C70CD",
".3 c #F30000",
".4 c #B279A0",
".5 c #DF0000",
".6 c #F85757",
".7 c #F9F9F9",
".8 c #F7F7F7",
".9 c #6888DB",
".0 c #6584D8",
".q c #EDF0F7",
".w c #4A6ECE",
".e c #486CCC",
".r c #6D034F",
".t c #587BD5",
".y c #8B4880",
".u c #7D326F",
".i c #3A61C8",
".p c #FD7979",
".a c #6284D8",
".s c #ED0000",
".d c #D90000",
".f c #FA6162",
".g c #355DC6",
".h c #B17FA8",
".j c #5E80D7",
".k c #CED6EF",
".l c #9F6393",
".z c #FC7071",
".x c #B1769E",
".c c #9C5686",
".v c #F74B4B",
".b c #955589",
".n c #FB0000",
".m c #335DC7",
".M c #7F9BE0",
".N c #6585D7",
".B c #FC7474",
".V c #E70000",
".C c #4D003F",
".Z c None",
/* pixels */
" t t t t t.n.@.@ c c #.3 K K 5.s",
" t 9 9.p 1.B.z O.O |.=.$.6.< R `",
".r y.4.x F { < X o Y p.c.X > ;.;",
" - a , 8.1 4 N Z.k d.w J ^ [ (. ",
" A ) }.9.a 2.q i.7., V l z B x E",
".> * r.0 & e i.7 s.8 b 0.i.g q =",
" +.M v $.t S h s.8 '.e...m.#.2.-",
".+ ~.j I / W.N U U w Q f n.:.o .",
".C.h.l D G.b k.y.* _ g j P.u L  ",
" #.f 3 u ] 7.v C M T H @ !.% :.d",
".3 K K 5.s `.V.& m %.5.5 6 6.d.d"
};
