/* XPM */
const char *icon_famfamfam_flags_lb[] = {
/* width height ncolors chars_per_pixel */
"16 11 138 2",
/* colors */
"   c #BF0000",
" . c #E5402F",
" X c #E12A14",
" o c #F47365",
" O c #439644",
" + c #D8E8DA",
" @ c #EE6455",
" # c #FDFBFB",
" $ c #F68477",
" % c #F6F5F4",
" & c #F27769",
" * c #FAFBFB",
" = c #F7887B",
" - c #E5E3E3",
" ; c #F4F5F5",
" : c #F06C5D",
" > c #ED5443",
" , c #57A357",
" < c #DB0000",
" 1 c #499949",
" 2 c #459945",
" 3 c #85BA84",
" 4 c #ED6353",
" 5 c #3E933E",
" 6 c #C5C3C3",
" 7 c #E43E29",
" 8 c #EE6757",
" 9 c #FEFEFE",
" 0 c #FDFCFD",
" q c #FCFCFC",
" w c #FBFCFB",
" e c #D50000",
" r c #FAFAFA",
" t c #F8F8F8",
" y c #E84430",
" u c #F6F6F6",
" i c #C10000",
" p c #F3F6F3",
" a c #F4F4F4",
" s c #F06B5C",
" d c #F2F2F2",
" f c #E43E2C",
" g c #EC5341",
" h c #AD0000",
" j c #F16F60",
" k c #DEEADE",
" l c #F1F4F4",
" z c #F16656",
" x c #7DB37B",
" c c #CF0000",
" v c #BB0000",
" b c #EB5746",
" n c #F26A5A",
" m c #EB4E3C",
" M c #FEFDFD",
" N c #FDFBFC",
" B c #F6F5F5",
" V c #DD0000",
" C c #E43621",
" Z c #ED5F4E",
" A c #C90000",
" S c #E94533",
" D c #B50000",
" F c #E53A25",
" G c #529D53",
" H c #F78C7F",
" J c #EB5F4F",
" K c #F17062",
" L c #EE5A48",
" P c #499B4A",
" I c #E22D18",
" U c #449745",
" Y c #D8E9DA",
" T c #FEFCFC",
" R c #D70000",
" E c #EF5C4C",
" W c #C30000",
" Q c #EB4F3E",
" ! c #62A862",
" ~ c #F47161",
" ^ c #5AA45A",
" / c #EEF2EF",
" ( c #57A257",
" ) c #F37A6D",
" _ c #F27A6C",
" ` c #ED6050",
" ' c #D10000",
" ] c #E94835",
" [ c #A0CDA2",
" { c #E64432",
" } c #BD0000",
" | c #F47E71",
".  c #439643",
".. c #3E943E",
".X c #3B923B",
".o c #CEE4CF",
".O c #F27365",
".+ c #EF6858",
".@ c #DF0000",
".# c #FDFDFD",
".$ c #FBFBFB",
".% c #CB0000",
".& c #EC5B4B",
".* c #F68679",
".= c #F5F5F5",
".- c #B70000",
".; c #F3F3F3",
".: c #E84E3D",
".> c #A3CAA4",
"., c #E5E5E5",
".< c #F3F7F6",
".1 c #EE5846",
".2 c #E3E3E3",
".3 c #E1E1E1",
".4 c #DFDFDF",
".5 c #EA5242",
".6 c #96C697",
".7 c #D90000",
".8 c #EA4B38",
".9 c #E74735",
".0 c #C50000",
".q c #CBDFCB",
".w c #F58174",
".e c #B10000",
".r c #E84B39",
".t c #EF5E4D",
".y c #E54936",
".u c #E3311D",
".i c #F7F6F6",
".p c #C1C1C1",
".a c #F36D5E",
".s c #F5F4F4",
".d c #BFBFBF",
".f c #BBBBBB",
".g c #F06251",
".h c #E7F0E6",
".j c #D30000",
".k c None",
/* pixels */
".@.@.@.@ V V <.7.7 e.j ' c.% A.0",
".@ = =.* $.w | ) &.O j s 8 4 Z i",
".@ H o ~.a n z.g.t L > Q.8 S J  ",
" - M M T # N.h 3 x k t.i B.s % 6",
"., 9 9.# 0 q [ ( P.6.< u.= a.=.p",
".2 9.# q q.o ^ 2.  1.q.= a.; ;.d",
".3.# q w * ! , U 5 O G l.; d a.f",
".4 q.$.$ r p Y...X.> + / d d.;.f",
" R _ E.1 g m ] y 7 F C.u I X.y h",
".j K :.+ @ `.& b.5.:.r.9 { . f h",
" ' c.% A.0 W   } v.- D.e.e h h h"
};
