/* XPM */
const char *icon_famfamfam_flags_lc[] = {
/* width height ncolors chars_per_pixel */
"16 11 153 2",
/* colors */
"   c #90B5F7",
" . c #5280F9",
" X c #719EF3",
" o c #779DEF",
" O c #3369F5",
" + c #F7ED2F",
" @ c #6B94ED",
" # c #83AAF4",
" $ c #F6D142",
" % c #2A62E2",
" & c #C5F5F9",
" * c #8DB1F7",
" = c #4F7CF9",
" - c #7399EE",
" ; c #BBE2F9",
" : c #F7D346",
" > c #6B94F0",
" , c #81A6F5",
" < c #7BA2EF",
" 1 c #5E87ED",
" 2 c #948C8A",
" 3 c #6C9EF4",
" 4 c #2A63F2",
" 5 c #6E95EC",
" 6 c #6E93EC",
" 7 c #F5D23D",
" 8 c #76A7F7",
" 9 c #2A5FDE",
" 0 c #5481FA",
" q c #91B4F7",
" w c #947437",
" e c #4A4141",
" r c #8CB2F2",
" t c #4876F8",
" y c #F4C71E",
" u c #81A9F1",
" i c #2A5FE1",
" p c #7A9CF4",
" a c #F7CC2E",
" s c #89B0F2",
" d c #6D95F1",
" f c #BBE1F8",
" g c #80A7F3",
" h c #386BF5",
" j c #C0F2F6",
" k c #91B5F3",
" l c #89AEF5",
" z c #D0A22F",
" x c #81A5F7",
" c c #3F3B3C",
" v c #887F7D",
" b c #92B9F7",
" n c #2A5EDD",
" m c #759CF5",
" M c #B4CBF4",
" N c #F7D84B",
" B c #A5C7F9",
" V c #6C92EC",
" C c #4172FA",
" Z c #658FEF",
" A c #668DF0",
" S c #3B3B3B",
" D c #5982ED",
" F c #A0C3F7",
" G c #9FEDF9",
" H c #2A62E3",
" J c #7EA4F0",
" K c #D1DCE8",
" L c #5F8AF9",
" P c #2A5FDC",
" I c #356AF4",
" U c #4B7AF9",
" Y c #6197F4",
" T c #97EDF7",
" R c #3F6FF7",
" E c #7CA2F4",
" W c #5983EC",
" Q c #3168F3",
" ! c #6E95F0",
" ~ c #6F93F1",
" ^ c #A2C6F8",
" / c #638EEF",
" ( c #2A61E2",
" ) c #2A5FE2",
" _ c #F5D123",
" ` c #8CB0F6",
" ' c #567FEC",
" ] c #6999EE",
" [ c #B2C3ED",
" { c #F4D939",
" } c #4374F7",
" | c #80A5F4",
".  c #3B6FF9",
".. c #2A60DB",
".X c #55548B",
".o c #89AEF6",
".O c #88AEF5",
".+ c #F6ED2A",
".@ c #6891F0",
".# c #9AC0F6",
".$ c #78A9EF",
".% c #ADBEE1",
".& c #2A5EDE",
".* c #6F96F0",
".= c #A3C7F8",
".- c #F8E250",
".; c #79A1F3",
".: c #517EFA",
".> c #8EB1F7",
"., c #4580EE",
".< c #9FC3F7",
".1 c #9DEDF8",
".2 c #2A62E4",
".3 c #6089EE",
".4 c #749DF1",
".5 c #87B9F3",
".6 c #3468F1",
".7 c #4D7CF9",
".8 c #8AAFF6",
".9 c #7097ED",
".0 c #618BF2",
".q c #8F6B24",
".w c #2A5FDD",
".e c #2A5DDD",
".r c #68AAF2",
".t c #F6D429",
".y c #5581FA",
".u c #8BE6F3",
".i c #5384EE",
".p c #7199F1",
".a c #7DBAF6",
".s c #4674F5",
".d c #97BBF5",
".f c #2A5FE0",
".g c #363636",
".h c #81AFF3",
".j c #2A62ED",
".k c #82A9F4",
".l c #CBDCE9",
".z c #93B9F4",
".x c #4F7DFA",
".c c #8BB0F6",
".v c #88B0F3",
".b c #2C64F2",
".n c #86AEF1",
".m c #9DC2F7",
".M c #5F88EF",
".N c #386BF7",
".B c #8FB5F3",
".V c #B0C5EF",
".C c #CA9F35",
".Z c #6C6B9F",
".A c None",
/* pixels */
" L.: 0 0 . = = C.  } R h I Q 4.6",
".x B B.= ^ F q ; f l.z.B r s.n.2",
".y B b  .> ` 8.l K 3.;.4.p.* u H",
" 0.=   *.c x G 2 v T ~.p d > J (",
" . ^ *.8.o m & e c j.0 !.@ Z < )",
".7.<.8.O ,.a M S.g.V.r A /.3 o i",
" U.m.O # p.1.Z.C z.X.u.M.3 1 -.f",
" t.#.k | X.5 w +.+.q.$.i 1 D.9.&",
" }.d g E Y [ a.t _ y.%., W ' 5.&",
".N.z k.v.h.- N : $ 7 { ] @ 6 V n",
".s O Q.b.j %.2 ( ) i.w 9.& P.e.."
};
