/* XPM */
const char *icon_famfamfam_flags_li[] = {
/* width height ncolors chars_per_pixel */
"16 11 161 2",
/* colors */
"   c #000095",
" . c #BF0000",
" X c #E12E14",
" o c #EE3C24",
" O c #4A72C6",
" + c #E6533D",
" @ c #E43D24",
" # c #E2462F",
" $ c #0015A5",
" % c #E85742",
" & c #E64129",
" * c #EA503A",
" = c #E0CF6E",
" - c #587EC6",
" ; c #B90000",
" : c #000087",
" > c #EC563F",
" , c #F4DC67",
" < c #ED371F",
" 1 c #7494D4",
" 2 c #F0462F",
" 3 c #577CC8",
" 4 c #E12D13",
" 5 c #6487CE",
" 6 c #E43C23",
" 7 c #F6624F",
" 8 c #DB0000",
" 9 c #7090D3",
" 0 c #3A66BF",
" q c #756096",
" w c #000079",
" e c #4671C4",
" r c #E34932",
" t c #6C8ED2",
" y c #EF412A",
" u c #3562BD",
" i c #4D74C4",
" p c #FBE063",
" a c #F2503A",
" s c #E90000",
" d c #F9DE61",
" f c #00099D",
" g c #D50000",
" h c #E3371E",
" j c #654E89",
" k c #3766C2",
" l c #C10000",
" z c #4F76C9",
" x c #819ED9",
" c c #00007F",
" v c #305EBB",
" b c #E94C34",
" n c #796599",
" m c #FBDF5F",
" M c #A1ABA2",
" N c #F14B35",
" B c #CF0000",
" V c #000099",
" C c #EE5F49",
" Z c #F45A45",
" A c #E23219",
" S c #BB0000",
" D c #705B93",
" F c #ED6855",
" G c #2C5EBD",
" H c #000071",
" J c #9F91B7",
" K c #9FB0C4",
" L c #001DA9",
" P c #0019A9",
" I c #E85B46",
" U c #ED6C58",
" Y c #5D84CF",
" T c #DD0000",
" R c #275ABB",
" E c #C90000",
" W c #ED5A44",
" Q c #00008B",
" ! c #F35540",
" ~ c #E2432C",
" ^ c #7F9DD9",
" / c #4C77CB",
" ( c #5178C6",
" ) c #C2C3AA",
" _ c #456FC4",
" ` c #D70000",
" ' c #00039B",
" ] c #E54B35",
" [ c #8A79A8",
" { c #C30000",
" } c #000091",
" | c #94A8C2",
".  c #4673C8",
".. c #7A9BDA",
".X c #F0DA6D",
".o c #E64F39",
".O c #ED4C36",
".+ c #7D699B",
".@ c #E3371F",
".# c #406BC2",
".$ c #F2E086",
".% c #8675A7",
".& c #614A86",
".* c #819EDA",
".= c #8371A4",
".- c #000FA1",
".; c #416FC6",
".: c #D10000",
".> c #3B67C0",
"., c #BD0000",
".< c #000083",
".1 c #00006F",
".2 c #001DA7",
".3 c #547BCB",
".4 c #001BA7",
".5 c #0019A7",
".6 c #E0290E",
".7 c #6C5790",
".8 c #DF0000",
".9 c #F5DB5D",
".0 c #CB0000",
".q c #517BCB",
".w c #E7472F",
".e c #F67F6F",
".r c #000075",
".t c #00000B",
".y c #E94B34",
".u c #776497",
".i c #EA2E14",
".p c #ED5A45",
".a c #EE705D",
".s c #8F9EA1",
".d c #3263C0",
".f c #4A73C7",
".g c #E9D675",
".h c #6083CC",
".j c #EB6350",
".k c #5C81C8",
".l c #3D6AC4",
".z c #EC3219",
".x c #F07462",
".c c #E23319",
".v c #C50000",
".b c #3662BD",
".n c #E6422A",
".m c #DE260B",
".M c #BEC1A7",
".N c #F17866",
".B c #F55F49",
".V c #69528C",
".C c #5B7FCA",
".Z c #E7462E",
".A c #290B61",
".S c #688AD0",
".D c #EB553F",
".F c #E02A10",
".G c #806D9F",
".H c #F27C6A",
".J c #3F6BC2",
".K c #EA604B",
".L c None",
/* pixels */
".2.4.2 L P $.- f ' V   } Q :.< c",
".5.* K ).$.M | 1 9 t.S 5.h.C 3 w",
".4 x.g.X , d =.3 z.f _.#.>.b (.r",
".4 ^ M p m.9.s z O _.J 0 u v i.1",
" P.. Y.k -.q /. .;.l k.d G R e H",
".A J [.%.=.G.+ n q D.7.V j.&.u.t",
" s.e 7.B Z ! a N 2 y o <.z.i.O.:",
".8.H C.p > * b.w.n @.@.c X.F r.,",
".8.N W.D *.y.Z & 6 h A 4.6.m # S",
" T.x.a U F.j.K I % +.o ] r # ~ ;",
" 8 ` g.: B B.0 E.v { l .., S ; ;"
};
