/* XPM */
const char *icon_famfamfam_flags_lk[] = {
/* width height ncolors chars_per_pixel */
"16 11 160 2",
/* colors */
"   c #F4D41F",
" . c #F6D44C",
" X c #9A3045",
" o c #FD9250",
" O c #FC924F",
" + c #B86576",
" @ c #A03A4E",
" # c #C8826B",
" $ c #A84659",
" % c #E1B316",
" & c #B9674F",
" * c #F8DE68",
" = c #9B2D3F",
" - c #AA4B68",
" ; c #AC4E60",
" : c #F5D95B",
" > c #DB9E45",
" , c #F7D853",
" < c #52934C",
" 1 c #A0383D",
" 2 c #D89842",
" 3 c #F4CA25",
" 4 c #C17571",
" 5 c #CB7B28",
" 6 c #DDA21F",
" 7 c #EFC837",
" 8 c #639F63",
" 9 c #B35C6D",
" 0 c #C77B3B",
" q c #5F9D5F",
" w c #9A2F44",
" e c #5A995A",
" r c #F6D537",
" t c #559755",
" y c #E7BB25",
" u c #F0CA3B",
" i c #9F374C",
" p c #A3413C",
" a c #F88840",
" s c #F4CA2B",
" d c #B8664D",
" f c #A33F53",
" g c #F9D954",
" h c #F7D752",
" j c #D0842C",
" k c #D1914E",
" l c #EBC32F",
" z c #AF5365",
" x c #FB8E49",
" c c #B25954",
" v c #F9D957",
" b c #68A267",
" n c #BB6735",
" m c #C57C77",
" M c #9C314F",
" N c #B55D6E",
" B c #FE9759",
" V c #ECC533",
" C c #EBC067",
" Z c #F5D249",
" A c #B05769",
" S c #5D9C5C",
" D c #CA8254",
" F c #70A768",
" G c #549653",
" H c #A3403B",
" J c #9C3248",
" K c #CC842E",
" L c #4A9049",
" P c #A13B5A",
" I c #F7DC65",
" U c #EFC61B",
" Y c #A13C50",
" T c #F1CD3E",
" R c #FB8B45",
" E c #A9485B",
" W c #E2B318",
" Q c #EDBE30",
" ! c #9D3238",
" ~ c #C67521",
" ^ c #E5B91E",
" / c #B45A6C",
" ( c #B2586A",
" ) c #982B40",
" _ c #B25A2B",
" ` c #AC4D6E",
" ' c #EDBD29",
" ] c #F6DB60",
" [ c #AC4E64",
" { c #B7645E",
" } c #E5B14C",
" | c #5E9D5F",
".  c #AD5068",
".. c #F6D538",
".X c #ECBD42",
".o c #9F3443",
".O c #F6D54F",
".+ c #F2D34B",
".@ c #EAC12C",
".# c #BB6747",
".$ c #F2CE41",
".% c #A03847",
".& c #E3B61B",
".* c #F2D34E",
".= c #D69836",
".- c #CF8A43",
".; c #BF6D3A",
".: c #FC8E4B",
".> c #FEA264",
"., c #B05753",
".< c #E6BA21",
".1 c #66A266",
".2 c #FA873F",
".3 c #F8873D",
".4 c #C46F17",
".5 c #EDBF35",
".6 c #589A58",
".7 c #6FA768",
".8 c #519451",
".9 c #F4D756",
".0 c #4F944F",
".q c #AE504A",
".w c #F9DF72",
".e c #A5415F",
".r c #E1B115",
".t c #448C44",
".y c #F9D854",
".u c #C5711E",
".i c #B8662F",
".p c #F9823A",
".a c #F1C621",
".s c #F4CF45",
".d c #DEA740",
".f c #AD4E4F",
".g c #FE9859",
".h c #982B41",
".j c #DC992A",
".k c #D6962E",
".l c #FEA166",
".z c #CF8210",
".x c #A94A62",
".c c #B66072",
".v c #9D3549",
".b c #FE9A5C",
".n c #F5D34C",
".m c #E8BF28",
".M c #F7D551",
".N c #C36E1B",
".B c #FD9554",
".V c #4E9046",
".C c #C97824",
".Z c #F9D956",
".A c #F3D550",
".S c #ECC532",
".D c #D59340",
".F c #9C313A",
".G c #B15B55",
".H c #AF525D",
".J c #CB8240",
".K c None",
/* pixels */
" v v v v g ,.M.O.n Z.s.$ T u 7 V",
" v.7 F.l.>.w C m +.c 9 A z { k.j",
" v b q.b B * 4 # /.  [.H $ &.G j",
".Z.1 S.g.B I N ` } D > 2.J.q f 5",
".y 8.6.B o ] ( -.X...5.f.=.; @.C",
" h | G O.: : z.x r.- Q '   K.v ~",
".O e.0 x R.9 ;.e.D s 3.a U 1 X.u",
" . t L R.2.A E P.# 0.k n 6.F.h.N",
" Z.8.t.2.p.+ c d M.%.o = !.i p.4",
".s <.V a.3.*.d., Y i J w ) H _.z",
".$ T u 7.S l.@.m y.< ^.& W %.r.r"
};
