/* XPM */
const char *icon_famfamfam_flags_lr[] = {
/* width height ncolors chars_per_pixel */
"16 11 110 2",
/* colors */
"   c #BF0000",
" . c #E16B63",
" X c #AB0000",
" o c #D74D42",
" O c #DD5E55",
" + c #000059",
" @ c #DE6259",
" # c #CD0000",
" $ c #B90000",
" % c #A50000",
" & c #E0665E",
" * c #FDFDFE",
" = c #F4F5F5",
" - c #B3B5D3",
" ; c #DB594F",
" : c #B3B3D3",
" > c #6669A5",
" , c #C70000",
" < c #E37067",
" 1 c #B30000",
" 2 c #FBEDEB",
" 3 c #F5E7E5",
" 4 c #D13F34",
" 5 c #DF655C",
" 6 c #FEFEFE",
" 7 c #DE635B",
" 8 c #FCFCFC",
" 9 c #FAFAFA",
" 0 c #F8F8F8",
" q c #D85F55",
" w c #F6F6F6",
" e c #F4F4F4",
" r c #F2F2F2",
" t c #990000",
" y c #D4473D",
" u c #DC5C52",
" i c #DB5A51",
" p c #000057",
" a c #D64D42",
" s c #D54B41",
" d c #CF0000",
" f c #DC5E55",
" g c #E37169",
" h c #A70000",
" j c #D74F46",
" k c #E4756D",
" l c #DB574D",
" z c #DA574C",
" x c #D9554B",
" c c #E0685F",
" v c #6B6DA8",
" b c #E57971",
" n c #C90000",
" m c #D5483D",
" M c #DB5950",
" N c #E16C63",
" B c #A10000",
" V c #DC665E",
" C c #E37068",
" Z c #D7594F",
" A c #D03B31",
" S c #E4746C",
" D c #C30000",
" F c #DBCBC9",
" G c #AF0000",
" H c #9B0000",
" J c #A0A1C7",
" K c #B3B4D3",
" L c #F2F2F3",
" P c #6668A5",
" I c #6364A2",
" U c #BD0000",
" Y c #E16D65",
" T c #A90000",
" R c #00005B",
" E c #DF6F66",
" W c #FDFDFD",
" Q c #FBFBFB",
" ! c #F9F9F9",
" ~ c #F7F7F7",
" ^ c #E8867F",
" / c #F5F5F5",
" ( c #D34439",
" ) c #B70000",
" _ c #F3F3F3",
" ` c #E06860",
" ' c #A30000",
" ] c #F7F7FA",
" [ c #E16C64",
" { c #EBD9D7",
" } c #E98E86",
" | c #DE6157",
".  c #E5D3D1",
".. c #DD5F56",
".X c #C50000",
".o c #E1CDCD",
".O c #EFEFF5",
".+ c #8587B8",
".@ c #8487B7",
".# c #D9C7C5",
".$ c #D95248",
".% c #F7EBE9",
".& c #D85047",
".* c #9D0000",
".= c #DE635A",
".- c #D34338",
".; c #D9544B",
".: c #E0675F",
".> c #6A6CA7",
"., c None",
/* pixels */
" R R R R + d d # n ,.X D   U $ )",
" R - ] K.+ 6 * W 8 8 Q 9 ! 0 ~ {",
" R ] 6.O v b k g Y ` 5 | u l E G",
" R :.O J > W 8 Q 9 ! 0 ~ w / w. ",
" p.@.> P I C [ c 7.. i z.$ o V h",
" 2 6 W 8 8 Q 9 ! 0 ~ w / e _ =.o",
" # } S < N.:.= O M x.& a m ( q B",
".% 8 Q Q 9 ! 0 ~ w / e _ r r _ F",
" n ^ . & @ f ;.; j s y.- 4 A Z.*",
" 3 Q 9 ! ! 0 ~ ~ w / e _ L r r.#",
" D   U $ ) 1 G X T % ' B.* H t t"
};
