/* XPM */
const char *icon_famfamfam_flags_ls[] = {
/* width height ncolors chars_per_pixel */
"16 11 142 2",
/* colors */
"   c #239C32",
" . c #F9F7F1",
" X c #2E88BE",
" o c #CADDE7",
" O c #4798C6",
" + c #67A7CB",
" @ c #257EB5",
" # c #8EBEDA",
" $ c #297D9E",
" % c #FDFDFE",
" & c #EDEBEB",
" * c #189E19",
" = c #000369",
" - c #3D92C2",
" ; c #78B1D1",
" : c #1F9B2D",
" > c #003183",
" , c #318BC0",
" < c #E7F0F2",
" 1 c #D5C09B",
" 2 c #42AF42",
" 3 c #3BAD3B",
" 4 c #388EC0",
" 5 c #39A939",
" 6 c #E1D3B7",
" 7 c #F5EFE5",
" 8 c #32A532",
" 9 c #2A85BC",
" 0 c #FAFAF7",
" q c #71ADD0",
" w c #199F19",
" e c #FCFCFC",
" r c #FAFAFA",
" t c #149B14",
" y c #149914",
" u c #139913",
" i c #001975",
" p c #109710",
" a c #0B950B",
" s c #C0A16B",
" d c #257EB3",
" f c #1F9D25",
" g c #2F8AC0",
" h c #33A632",
" j c #FBF9F7",
" k c #004B00",
" l c #348BBE",
" z c #004700",
" x c #004300",
" c c #004100",
" v c #003D00",
" b c #003B00",
" n c #003900",
" m c #FCFBFB",
" M c #003500",
" N c #003300",
" B c #003100",
" V c #4094C3",
" C c #002F00",
" Z c #002D00",
" A c #4491BD",
" S c #002900",
" D c #002700",
" F c #569EC8",
" G c #CCB383",
" H c #2F87BC",
" J c #BEA068",
" K c #249451",
" L c #2D87BA",
" P c #F7F9F9",
" I c #58A2CD",
" U c #CBB385",
" Y c #208D5A",
" T c #BDC9CD",
" R c #2A85BA",
" E c #F8F6F3",
" W c #509AC8",
" Q c #2683B9",
" ! c #C6AA79",
" ~ c #D1E1EA",
" ^ c #00418D",
" / c #D3BD96",
" ( c #D2BD95",
" ) c #4BA673",
" _ c #3C91C1",
" ` c #EDE6D7",
" ' c #B2CFDF",
" ] c #C1A36D",
" [ c #DFD0B2",
" { c #2B86BA",
" } c #3FA949",
" | c #FBF9F5",
".  c #D1BA8D",
".. c #3DAC3D",
".X c #F1F4F5",
".o c #549FCB",
".O c #E1D2B7",
".+ c #36A836",
".@ c #35A835",
".# c #1A9B21",
".$ c #2FA42F",
".% c #000165",
".& c #2CA22C",
".* c #EDF2F4",
".= c #F7F2EA",
".- c #1EA01E",
".; c #3087BB",
".: c #46AE4C",
".> c #FDFDFD",
"., c #199E19",
".< c #4997C3",
".1 c #247B98",
".2 c #FBFBFB",
".3 c #D2BC94",
".4 c #F9F9F9",
".5 c #2A81B5",
".6 c #00136B",
".7 c #EDEDED",
".8 c #DFCFB1",
".9 c #EBEBEB",
".0 c #2B85B9",
".q c #E9E9E9",
".w c #E7E7E7",
".e c #E5E5E5",
".r c #F8F6F1",
".t c #E3E3E3",
".y c #6F9DB3",
".u c #DFDFDF",
".i c #DDDDDD",
".p c #DBDBDB",
".a c #348ABE",
".s c #549BC3",
".d c #E8EDEE",
".f c #D4BD95",
".g c #FCFCFB",
".h c #BD9D64",
".j c #FBFAFA",
".k c #1F9935",
".l c #0F970E",
".z c #E3DDD5",
".x c #D2BD96",
".c c None",
/* pixels */
".7.7.7.7.9.9.q.q.w.e.t.u.i.p T ^",
".7 6.= 7.8.g %.> e e.2 r.4 # F.%",
".7 ..  G [.>.> e.2 r.4.* O L.< =",
" & / s J ] m e.2 r.4 o _.0 Q A D",
".z.3 1 U ! E.2 r.X + , { @ Y } x",
".q.r ].h `.j r ~ V.; R d.k.# 3 b",
".q.O (.x.f P q 4 H 9.1 :., t.+ M",
".w j 0 |.d.s l g.5 K f w y p h B",
".e e r ' -.a X $  .- * u.l a.$ Z",
".t < ; I.o W ).: 2.. 5.@ 8.$.& D",
".y > i i.6 n z k c v n N C Z S M"
};
