/* XPM */
const char *icon_famfamfam_flags_lt[] = {
/* width height ncolors chars_per_pixel */
"16 11 161 2",
/* colors */
"   c #BF0000",
" . c #D9D136",
" X c #E53939",
" o c #F8E265",
" O c #FFEC83",
" + c #F6DA38",
" @ c #FCEA80",
" # c #E63D3D",
" $ c #F9DF48",
" % c #F3C500",
" & c #3BAE3C",
" * c #F9E469",
" = c #6FC56F",
" - c #CD0000",
" ; c #E20F0E",
" : c #C33824",
" > c #B90000",
" , c #E0DA50",
" < c #E23232",
" 1 c #BD2B14",
" 2 c #FBE671",
" 3 c #54B954",
" 4 c #53B953",
" 5 c #50B750",
" 6 c #4FB74F",
" 7 c #4BB54B",
" 8 c #EDB700",
" 9 c #49B549",
" 0 c #46B346",
" q c #DB0000",
" w c #C70000",
" e c #3FAD3F",
" r c #3BAD3B",
" t c #36AB36",
" y c #35AB35",
" u c #36A936",
" i c #FDEB83",
" p c #E41919",
" a c #FCE357",
" s c #F7E05C",
" d c #FBD500",
" f c #2FA92F",
" g c #FBD100",
" h c #2BA52B",
" j c #E4DE5D",
" k c #2AA52A",
" l c #770000",
" z c #24A324",
" x c #209F20",
" c c #1F9F1F",
" v c #199D19",
" b c #D50000",
" n c #149B14",
" m c #C10000",
" M c #FEE869",
" N c #AD0000",
" B c #FDE55E",
" V c #DED646",
" C c #F5C500",
" Z c #AB9B00",
" A c #008300",
" S c #3BAE3A",
" D c #007B00",
" F c #EE5D5D",
" G c #E30000",
" H c #CF5645",
" J c #E12C2C",
" K c #E82929",
" L c #CF0000",
" P c #DA7A6A",
" I c #DAD33B",
" U c #EC3A3A",
" Y c #E10B0B",
" T c #BB0000",
" R c #F7DC3D",
" E c #003B00",
" W c #DCD540",
" Q c #002F00",
" ! c #EFBB00",
" ~ c #DCD64D",
" ^ c #DD0000",
" / c #F7DE57",
" ( c #ED5858",
" ) c #E31313",
" _ c #C90000",
" ` c #E52F2F",
" ' c #C7422F",
" ] c #C1331F",
" [ c #C94834",
" { c #D15B49",
" } c #76C876",
" | c #E22F2F",
".  c #E9B100",
".. c #D70000",
".X c #FCE879",
".o c #F7DF53",
".O c #2AA52B",
".+ c #BC2610",
".@ c #C30000",
".# c #F26666",
".$ c #FAE56D",
".% c #D7CF30",
".& c #58BC58",
".* c #CE523F",
".= c #F7CD00",
".- c #F7CB00",
".; c #F7C900",
".: c #EBE67F",
".> c #E72323",
"., c #E1DB54",
".< c #4FB84F",
".1 c #EB3434",
".2 c #BF2E19",
".3 c #46B246",
".4 c #45B245",
".5 c #D10000",
".6 c #FCE775",
".7 c #41B041",
".8 c #40B040",
".9 c #E3DD59",
".0 c #BD0000",
".q c #3BAA3B",
".w c #DFD84B",
".e c #30A830",
".r c #EA5050",
".t c #FEE766",
".y c #25A225",
".u c #F1C100",
".i c #F1BF00",
".p c #E61E1E",
".a c #EF6162",
".s c #1FA01F",
".d c #FDE45B",
".f c #F8E160",
".g c #C54532",
".h c #1A9C1A",
".j c #FCE97B",
".k c #E5DF61",
".l c #EC5455",
".z c #F8DE42",
".x c #B70000",
".c c #EF4444",
".v c #FFD300",
".b c #FCE97E",
".n c #FBE152",
".m c #FEE662",
".M c #E94B4B",
".N c #EBB900",
".B c #EA2E2E",
".V c #72C673",
".C c #E74242",
".Z c #EE3F3F",
".A c #F9CD00",
".S c #FAE04D",
".D c #CB4C3A",
".F c #E43535",
".G c #D1C700",
".H c #E84646",
".J c #E6E064",
".K c #C53D2A",
".L c None",
/* pixels */
" d g g g g.A.=.-.; C %.u.i ! 8.N",
" g i i @.b.j.X.6 2.$ * o.f s /. ",
".v O M.t.m B.d a.n.S $.z R +.o. ",
".G.:.J.k j.9., ,.w V W I ..% ~ Z",
" A }.& 3 5 7 0.7 & t.e h.y x e E",
" D.V 4 6 7.3.8 r t.e.O.y c.h.q Q",
" D =.< 9.4.8 S y f k z.s v n u Q",
" N P { H.*.D [ '.K : ].2 1.+.g l",
" G.#.c.Z U.1.B K.>.p p ) ; Y `  ",
" ^.a F (.l.r.M.H.C # X.F < | J.x",
" q.. b.5 L - _ w.@ m m.0 T >.x >"
};
