/* XPM */
const char *icon_famfamfam_flags_lu[] = {
/* width height ncolors chars_per_pixel */
"16 11 146 2",
/* colors */
"   c #B7DDFC",
" . c #0055E7",
" X c #FB736C",
" o c #FE847C",
" O c #88C1F2",
" + c #FD9892",
" @ c #7BBFF9",
" # c #A1D1FA",
" $ c #F50000",
" % c #FA9F9C",
" & c #FE867F",
" * c #0069ED",
" = c #F96A63",
" - c #0065ED",
" ; c #FC8F8A",
" : c #FEBDBA",
" > c #FCA5A1",
" , c #FF291D",
" < c #8EC6F4",
" 1 c #FE9E99",
" 2 c #FD271B",
" 3 c #7FC2F9",
" 4 c #F90B00",
" 5 c #F4F5F5",
" 6 c #EF0000",
" 7 c #0079F3",
" 8 c #3FA0F2",
" 9 c #FB1105",
" 0 c #70B9F7",
" q c #48A5F4",
" w c #3B9EF1",
" e c #0047DF",
" r c #51AAF6",
" t c #0081F9",
" y c #003BDF",
" u c #E90000",
" i c #FBA29F",
" p c #FEFEFE",
" a c #FDFCFD",
" s c #FCFCFC",
" d c #FBFCFB",
" f c #FAFAFA",
" g c #F8F8F8",
" h c #F6F6F6",
" j c #F4F4F4",
" k c #FDA8A4",
" l c #F2F2F2",
" z c #F76259",
" x c #0053E5",
" c c #F9857F",
" v c #F89995",
" b c #5BACF2",
" n c #E0E0E0",
" m c #DEDEDE",
" M c #DCDCDC",
" N c #63B1F3",
" B c #005FEB",
" V c #F5908B",
" C c #91C8F5",
" Z c #F65D54",
" A c #60AFF3",
" S c #75BBF7",
" D c #9BCDF8",
" F c #F10000",
" G c #E71F17",
" H c #FFA09B",
" J c #0075F1",
" K c #FD958F",
" L c #0185F5",
" P c #FDABA6",
" I c #97CBF7",
" U c #FA8882",
" Y c #F99C98",
" T c #0049DD",
" R c #0043DD",
" E c #0041DD",
" W c #003FDD",
" Q c #0081F7",
" ! c #68B8FA",
" ~ c #EB0000",
" ^ c #FD170B",
" / c #83C3FA",
" ( c #F6938E",
" ) c #97C8F3",
" _ c #6AB5F5",
" ` c #004DE3",
" ' c #FA6F67",
" ] c #379CF1",
" [ c #5DAEF2",
" { c #F79792",
" } c #FF1F13",
" | c #FC928D",
".  c #4CA8F5",
".. c #66B3F4",
".X c #55ADF7",
".o c #FF372D",
".O c #FEACA9",
".+ c #F8665E",
".@ c #005BE9",
".# c #FC776F",
".$ c #94CAF6",
".% c #FB8B85",
".& c #FF2719",
".* c #86BFF2",
".= c #FD2117",
".- c #78BDF8",
".; c #9ECFF9",
".: c #F77E77",
".> c #F30000",
"., c #44A2F3",
".< c #FDFDFD",
".1 c #F69F9A",
".2 c #006FEF",
".3 c #FBFBFB",
".4 c #5AB0F8",
".5 c #A7D4FB",
".6 c #F9F9F9",
".7 c #F7F7F7",
".8 c #F5F5F5",
".9 c #FD7D76",
".0 c #F3F3F3",
".q c #EDEDED",
".w c #63B5FA",
".e c #8BC4F3",
".r c #FE817A",
".t c #A4D2FB",
".y c #F70500",
".u c #ED0000",
".i c #61B5FB",
".p c #86C5FB",
".a c #5FB3F9",
".s c #FF6D67",
".d c #FF9B95",
".f c #FE9994",
".g c #FEAFAB",
".h c #FD7A72",
".j c #6DB7F6",
".k c #0F81DF",
".l c #F7746C",
".z c #84C5FC",
".x c #FE9D97",
".c c #0049E1",
".v c #F8817A",
".b c #55A9F2",
".n c #FD1D0F",
".m c None",
/* pixels */
".o , , , 2.=.n ^ 9 4.y $.> F 6.u",
".& H H 1.x.f + K | ;.% U c.v.: ~",
" }.d & o.r.9.h.# X ' =.+ z Z.l u",
".s :.g.O P k > i % Y v { ( V.1 G",
".q p p.< a s.3 f.6 g.7 h.8 j.8 n",
".q p.< s s.3 f.6 g.7 h.8 j.0 5 m",
".q.< s d.3 f.6 g.7 h.8 j.0 l j M",
".i  .5.t #.; D I.$ C <.e O.* ).k",
" t.z !.w.a.4.X r.  q., 8 w ].b y",
" Q.p / 3 @.- S 0.j _.. N A [ b W",
" L 7 J.2 * - B.@ . x `.c e R E T"
};
