/* XPM */
const char *icon_famfamfam_flags_ly[] = {
/* width height ncolors chars_per_pixel */
"16 11 133 2",
/* colors */
"   c #80D380",
" . c #7ED37E",
" X c #7DD37D",
" o c #7AD17A",
" O c #73CD73",
" + c #71CD71",
" @ c #62C962",
" # c #61C961",
" $ c #5EC75E",
" % c #5DC75D",
" & c #5CC35C",
" * c #17A618",
" = c #5AC55A",
" - c #58C558",
" ; c #56C356",
" : c #55C355",
" > c #54C354",
" , c #51C151",
" < c #52BF52",
" 1 c #50C150",
" 2 c #4CBF4C",
" 3 c #49BB49",
" 4 c #47BD47",
" 5 c #46BD46",
" 6 c #47B947",
" 7 c #46B946",
" 8 c #44BB44",
" 9 c #41BB41",
" 0 c #40B940",
" q c #41B741",
" w c #3FB93F",
" e c #3BB73B",
" r c #3AB73A",
" t c #3AB33A",
" y c #39B339",
" u c #37B537",
" i c #36B536",
" p c #77D076",
" a c #31B331",
" s c #30B330",
" d c #2FB12F",
" f c #2AAF2A",
" g c #21AB21",
" h c #20AB20",
" j c #1CA91C",
" k c #009900",
" l c #41BA40",
" z c #009700",
" x c #009500",
" c c #009300",
" v c #009100",
" b c #008F00",
" n c #008D00",
" m c #008B00",
" M c #008900",
" N c #008700",
" B c #008500",
" V c #008100",
" C c #007B00",
" Z c #007700",
" A c #007100",
" S c #006D00",
" D c #006700",
" F c #006300",
" G c #005F00",
" H c #005D00",
" J c #005900",
" K c #005700",
" L c #005300",
" P c #005100",
" I c #004D00",
" U c #004B00",
" Y c #004900",
" T c #1CA81B",
" R c #004700",
" E c #004500",
" W c #004300",
" Q c #58C559",
" ! c #41BB42",
" ~ c #83D483",
" ^ c #82D482",
" / c #80D480",
" ( c #7BD27B",
" ) c #35B536",
" _ c #79D079",
" ` c #75CE75",
" ' c #6FCC6F",
" ] c #6DCC6D",
" [ c #6ACA6A",
" { c #68CC68",
" } c #69CA69",
" | c #24AD25",
".  c #65CA65",
".. c #65C865",
".X c #61C861",
".o c #62C662",
".O c #60C660",
".+ c #59C259",
".@ c #57C257",
".# c #55C055",
".$ c #53C253",
".% c #50C050",
".& c #4FC04F",
".* c #50BE50",
".= c #4EC04E",
".- c #4EBE4E",
".; c #4BBE4B",
".: c #4ABE4A",
".> c #4BBC4B",
"., c #49BE49",
".< c #46BC46",
".1 c #45BC45",
".2 c #40BA40",
".3 c #40B640",
".4 c #3CB83C",
".5 c #3BB83B",
".6 c #3DB43D",
".7 c #3CB43C",
".8 c #3AB63A",
".9 c #37B637",
".0 c #37B237",
".q c #35B435",
".w c #34B434",
".e c #30B230",
".r c #2FB22F",
".t c #2BB02B",
".y c #26AE26",
".u c #25AE25",
".i c #44B943",
".p c #82D483",
".a c #65C866",
".s c #5DC45E",
".d c None",
/* pixels */
" k k k k k x c b m N B V C Z A S",
" k ~.p / . ( _ ` + ] }...O &.@ D",
" k ^ {.  @ $ = ; , 2 4 !.4.9 < F",
" k  .  # % = : ,.; 5 9.4 u a.- H",
" z X.X % = : 1.;.< l.5 i a.t 3 J",
" x o % Q :.%.;.<.2 e ) s.t.y 7 L",
" v p - >.&.:.1 0 r.q.e.t.u g q I",
" n O.$.&.:.1 w.8.q.r f.u h j.6 U",
" M '.=., 8 w.8.w d f | h T * t R",
" B [.a.o.s.+.#.*.> 6.i.3.7 y.0 E",
" V C Z A S D F G J K P I Y R W W"
};
