/* XPM */
const char *icon_famfamfam_flags_mc[] = {
/* width height ncolors chars_per_pixel */
"16 11 107 2",
/* colors */
"   c #F96767",
" . c #F62C2C",
" X c #F65A5A",
" o c #F93B3C",
" O c #FA6B6B",
" + c #FC4C4C",
" @ c #F73030",
" # c #F50000",
" $ c #F75E5E",
" % c #F45151",
" & c #F55555",
" * c #FB4747",
" = c #EF0000",
" - c #F62B2B",
" ; c #FC4B4B",
" : c #F34C4C",
" > c #FC6565",
" , c #FD0000",
" < c #F74949",
" 1 c #FE7474",
" 2 c #E90000",
" 3 c #FA4242",
" 4 c #F52626",
" 5 c #FCFCFC",
" 6 c #FBFCFB",
" 7 c #FAFAFA",
" 8 c #F8F8F8",
" 9 c #F83736",
" 0 c #F6F6F6",
" q c #F4F4F4",
" w c #F2F2F2",
" e c #FB4646",
" r c #FA5C5C",
" t c #FB6060",
" y c #F70000",
" u c #F64444",
" i c #FE5959",
" p c #F85353",
" a c #FA4141",
" s c #F95757",
" d c #F52525",
" f c #FE5F5F",
" g c #F10000",
" h c #F53F3F",
" j c #FD5454",
" k c #FD0505",
" l c #F74E4E",
" z c #FF7B7A",
" x c #FE7979",
" c c #FE5858",
" v c #F93C3C",
" b c #F42020",
" n c #FE9393",
" m c #FF0000",
" M c #EB0000",
" N c #FD7071",
" B c #FD4F50",
" V c #FC6969",
" C c #F83737",
" Z c #F90000",
" A c #F2F2F3",
" S c #E50000",
" D c #FD6D6D",
" F c #FD7A7A",
" G c #F30000",
" H c #FA4142",
" J c #FDFDFD",
" K c #FBFBFB",
" L c #F9F9F9",
" P c #F83636",
" I c #F7F7F7",
" U c #F5F5F5",
" Y c #FE7777",
" T c #F3F3F3",
" R c #F1F1F1",
" E c #EBEBEB",
" W c #E9E9E9",
" Q c #E7E7E7",
" ! c #E5E5E5",
" ~ c #FF7B7B",
" ^ c #E3E3E3",
" / c #FC7778",
" ( c #DFDFDF",
" ) c #ED0000",
" _ c #DBDBDB",
" ` c #D9D9D9",
" ' c #F93C3D",
" ] c #D7D7D7",
" [ c #D3D3D3",
" { c #F46666",
" } c #D1D1D1",
" | c #F73131",
".  c #CFCFCF",
".. c #FE5C5C",
".X c #CBCBCB",
".o c #FB7070",
".O c #C9CBC9",
".+ c #C9C9C9",
".@ c #C7C7C7",
".# c #FD5151",
".$ c #C5C5C5",
".% c #F86363",
".& c #FB0000",
".* c #FE7676",
".= c #FC7474",
".- c #E70000",
".; c None",
/* pixels */
" m m m m , , , ,.& Z y # G g = )",
" m ~ ~ x Y 1 N D V > t r s p l M",
" m z f.. i j.# + * 3 ' C | . < 2",
" m x.. i j.# ; * H v 9 | - 4 u.-",
" ,.* c j B ; e a o P @ - d b h.-",
" k n F /.=.o O  .% $ X & % : { S",
" E J 5 6 K 7 L 8 I 0 U q T w q.X",
" W 5 K K 7 L 8 I 0 U q T w w T.+",
" Q 5 7 7 L 8 I 0 U q T w R R w.$",
" ! K 7 L L 8 I I 0 U q T A w w.$",
" ^ ^ ( _ ` ] ] [ }. .X.O.+.$.@.$"
};
