/* XPM */
const char *icon_famfamfam_flags_md[] = {
/* width height ncolors chars_per_pixel */
"16 11 156 2",
/* colors */
"   c #BF0000",
" . c #4C67D2",
" X c #637BD8",
" o c #D83B2C",
" O c #F9E948",
" + c #F7E63C",
" @ c #9E8B48",
" # c #0000AF",
" $ c #FDF17A",
" % c #DF5043",
" & c #5470D6",
" * c #F8E640",
" = c #D53022",
" - c #DF5B50",
" ; c #D1BE52",
" : c #F5E43D",
" > c #B90000",
" , c #E15448",
" < c #A50000",
" 1 c #5F79DA",
" 2 c #5E79D9",
" 3 c #D73627",
" 4 c #F4E31E",
" 5 c #EDC700",
" 6 c #6982DD",
" 7 c #4F6CD4",
" 8 c #F7EA2E",
" 9 c #0000B5",
" 0 c #7F94E2",
" q c #A99652",
" w c #0000A1",
" e c #5A75D8",
" r c #DE4B3E",
" t c #C70000",
" y c #FBED6A",
" u c #D84538",
" i c #B30000",
" p c #7B90E1",
" a c #9F0000",
" s c #FBD100",
" d c #5571D6",
" f c #D63122",
" g c #6B83DB",
" h c #FDED5B",
" j c #E7BF00",
" k c #748ADD",
" l c #E16054",
" z c #DD4639",
" x c #DC4638",
" c c #C10000",
" v c #F6E436",
" b c #AD0000",
" n c #DD5346",
" m c #B1A15C",
" M c #667FDC",
" N c #FCEC56",
" B c #D83B2D",
" V c #ED9E41",
" C c #000099",
" Z c #3C5ACD",
" A c #F4E344",
" S c #BB0000",
" D c #8498E2",
" F c #DB4133",
" G c #E56C61",
" H c #F5E331",
" J c #A70000",
" K c #4663D0",
" L c #A49152",
" P c #516CD4",
" I c #8196E2",
" U c #0000B3",
" Y c #FBEB51",
" T c #D73628",
" R c #F6E54C",
" E c #F9E845",
" W c #FDE300",
" Q c #FDDF00",
" ! c #D3291A",
" ~ c #A10000",
" ^ c #FDD300",
" / c #F7E750",
" ( c #6F87DD",
" ) c #0000B9",
" _ c #E9C100",
" ` c #637CDB",
" ' c #F5E230",
" ] c #FEF27B",
" [ c #788EDF",
" { c #0000A5",
" } c #5E78D6",
" | c #DA4B3E",
".  c #F2D723",
".. c #FCEE65",
".X c #A79457",
".o c #F7D900",
".O c #DB4F42",
".+ c #FCEF72",
".@ c #D73527",
".# c #E2594C",
".$ c #F8E95A",
".% c #0000AB",
".& c #E3BB00",
".* c #F4E12B",
".= c #E26459",
".- c #97833D",
".; c #5974D7",
".: c #D42C1D",
".> c #DE574B",
"., c #9A8743",
".< c #A90000",
".1 c #4A67D2",
".2 c #FAE94B",
".3 c #D8483B",
".4 c #A08D4C",
".5 c #0009BB",
".6 c #0007BB",
".7 c #0005BB",
".8 c #0003BB",
".9 c #FDF351",
".0 c #EEA046",
".q c #F7E855",
".w c #5F79D9",
".e c #DB4E41",
".r c #F3E026",
".t c #00009D",
".y c #F8E842",
".u c #DC4538",
".i c #E67066",
".p c #FDEE5E",
".a c #AF9E57",
".s c #A30000",
".d c #FDF075",
".f c #97823C",
".g c #415FCF",
".h c #DE4B3D",
".j c #EBC900",
".k c #E4695D",
".l c #9A8642",
".z c #5671D6",
".x c #C50000",
".c c #8497E2",
".v c #B10000",
".b c #DA4032",
".n c #627CDB",
".m c #F9DB00",
".M c #FAEA4D",
".N c #DA4B3F",
".B c #DED042",
".V c #8195E2",
".C c #E7D84E",
".Z c #677FD9",
".A c #E5BD00",
".S c #0000A9",
".D c #F4D929",
".F c None",
/* pixels */
".5.5.5.5.7 Q W ^ s.m.o t.x c   S",
".5 D D I 0 ] $.d.+.. y.i G.k.= >",
".5.c 6 M `.p.9 m.a.M O % r z l i",
".6.V M ` 1 h.C ; q.B.y.h x F -.v",
".8 0.n.w e N.X.# , @ +.u.b B.> b",
" ) p 2 e.z Y L.0 V., v.b B T n.<",
" 9 [.; d P.2.4.g Z.- H o 3 f.O J",
" U k & 7 . E *.l.f '.*.@ f.:.N.s",
" # ( 7.1 K * 8.D.  4.r =.: !.3 ~",
".% g.Z X }.$.q / R : A.e |.3 u a",
".S { w.t C 5.j _ j.A.& <.s ~ a a"
};
