/* XPM */
const char *icon_famfamfam_flags_me[] = {
/* width height ncolors chars_per_pixel */
"16 12 144 2",
/* colors */
"   c #E24136",
" . c #EE040A",
" X c #E8BC3B",
" o c #E30309",
" O c #F2CB3E",
" + c #D8B535",
" @ c #D8B335",
" # c #EB040A",
" $ c #FFDB3A",
" % c #E00309",
" & c #FB4237",
" * c #CB0308",
" = c #DEAD2A",
" - c #DC4136",
" ; c #5D3B68",
" : c #DB4135",
" > c #E70409",
" , c #E6B83F",
" < c #DD0309",
" 1 c #E40006",
" 2 c #F84237",
" 3 c #C80308",
" 4 c #D84135",
" 5 c #EA4136",
" 6 c #F6040A",
" 7 c #D8A72A",
" 8 c #D54135",
" 9 c #FFD839",
" 0 c #FED438",
" q c #D70309",
" w c #F24237",
" e c #FFE146",
" r c #FFDF46",
" t c #E74136",
" y c #F3040A",
" u c #E89C33",
" i c #D40309",
" p c #EE4236",
" a c #F0040A",
" s c #E69634",
" d c #EDB63E",
" f c #D10309",
" g c #E3A034",
" h c #E14136",
" j c #EBBA3F",
" k c #FFD642",
" l c #E6C03A",
" z c #FED441",
" x c #E29433",
" c c #CD0308",
" v c #D86426",
" b c #FFDE45",
" n c #E9BC40",
" m c #EA040A",
" M c #DE9C32",
" N c #DF0309",
" B c #E1BC38",
" V c #CA0308",
" C c #FFE73E",
" Z c #DC0309",
" A c #E3B43D",
" S c #F6CE3F",
" D c #DDB837",
" F c #E7C13A",
" G c #DE772B",
" H c #DAA92A",
" J c #E3BC40",
" K c #D74135",
" L c #D90309",
" P c #219C7C",
" I c #D3AC44",
" U c #F44237",
" Y c #E3B02C",
" T c #F5040A",
" R c #D44135",
" E c #E3BD39",
" W c #E7B53D",
" Q c #D60309",
" ! c #D5B235",
" ~ c #EDC63C",
" ^ c #FFE23D",
" / c #E32412",
" ( c #DFB938",
" ) c #EBAE3A",
" _ c #E7B32C",
" ` c #E8A437",
" ' c #ED4236",
" ] c #E34136",
" [ c #EF040A",
" { c #DBAA2A",
" } c #E40309",
" | c #F2BC30",
".  c #D00309",
".. c #CF0308",
".X c #DBB737",
".o c #D9B535",
".O c #FFDA43",
".+ c #E04136",
".@ c #EC040A",
".# c #FFD843",
".$ c #E10309",
".% c #F38A31",
".& c #FC4237",
".* c #CC0308",
".= c #D6B335",
".- c #EFC73D",
".; c #0E66B1",
".: c #FFDF3C",
".> c #DD4136",
"., c #E80409",
".< c #FAD041",
".1 c #F08831",
".2 c #FFED3F",
".3 c #FFEB3F",
".4 c #FFE93F",
".5 c #FA040A",
".6 c #EBC33C",
".7 c #D94135",
".8 c #E50409",
".9 c #DB0309",
".0 c #F64237",
".q c #F7040A",
".w c #EFB92F",
".e c #D80309",
".r c #F34237",
".t c #E1AE2B",
".y c #E84136",
".u c #0F65B1",
".i c #FFDD45",
".p c #F4040A",
".a c #FBD141",
".s c #D50309",
".d c #EBB52E",
".f c #F04237",
".g c #FFE63E",
".h c #E54136",
".j c #F1040A",
".k c #E96F29",
".l c #42A668",
".z c #EC2112",
".x c #D20309",
".c c #DC6826",
".v c #EC4236",
".b c None",
/* pixels */
" e e e e e r b.i.O.# k z.a.< S O",
".2.&.& & & 2 2.0 U w.f p.v 5.y |",
".3.&.5.q 6.p.j [.@ m > }.$ N.h.w",
".4 & 6 T y a . u ` 1 o % <.9  .d",
" C 2.p.j [.%.z ) g / s Z L q.+ _",
".g.0 a . #.1 d.u.; W x.e Q i.> Y",
" ^.r.@ m >.k j P.l A.c.s.x.  :.t",
".:.f.,.8 o % < n , I ; f.. c 4 =",
" $ ' }.$ N Z X G J v M...* V K {",
" 9 5 % <.9.e Q i f.. c * V 3 8 H",
" 0 t.h ] h.+.> - :.7 K K 8 R R 7",
".- ~.6 F l E B ( D.X.o + @.= ! !"
};
