/* XPM */
const char *icon_famfamfam_flags_mg[] = {
/* width height ncolors chars_per_pixel */
"16 11 133 2",
/* colors */
"   c #F62C2C",
" . c #F93B3C",
" X c #FC4C4C",
" o c #F73030",
" O c #F50000",
" + c #D43F2B",
" @ c #64BD64",
" # c #189C19",
" $ c #FD6A6A",
" % c #52B752",
" & c #FB4747",
" * c #EF0000",
" = c #F62B2B",
" - c #4BB14B",
" ; c #D23A25",
" : c #55BB58",
" > c #FC4B4B",
" , c #39A939",
" < c #35AD35",
" 1 c #34A934",
" 2 c #32A532",
" 3 c #2FA72F",
" 4 c #2AAD2A",
" 5 c #FC6565",
" 6 c #24AB24",
" 7 c #FD0000",
" 8 c #F74949",
" 9 c #23A123",
" 0 c #CE311A",
" q c #1F9F1F",
" w c #E90000",
" e c #FA4242",
" r c #1E9F1E",
" t c #19A519",
" y c #FEFEFE",
" u c #FDFCFD",
" i c #F52626",
" p c #FCFCFC",
" a c #14A314",
" s c #FBFCFB",
" d c #FAFAFA",
" f c #149914",
" g c #F83736",
" h c #139913",
" j c #109710",
" k c #FB4646",
" l c #0B950B",
" z c #FA5C5C",
" x c #3BAE3A",
" c c #FB6060",
" v c #F70000",
" b c #F64444",
" n c #33A632",
" m c #F85353",
" M c #D94E3B",
" N c #005D00",
" B c #004700",
" V c #FA4141",
" C c #004100",
" Z c #003F00",
" A c #F95757",
" S c #DB5240",
" D c #003D00",
" F c #003900",
" G c #F52525",
" H c #003500",
" J c #003300",
" K c #003100",
" L c #002F00",
" P c #002D00",
" I c #002900",
" U c #002700",
" Y c #F10000",
" T c #F53F3F",
" R c #F74E4E",
" E c #D84936",
" W c #F93C3C",
" Q c #F42020",
" ! c #EB0000",
" ~ c #FD7071",
" ^ c #D64430",
" / c #9B0000",
" ( c #FC6969",
" ) c #F83737",
" _ c #F90000",
" ` c #4DB44D",
" ' c #FE8585",
" ] c #FD6D6D",
" [ c #46B046",
" { c #42AE42",
" } c #3DAC3D",
" | c #FC6062",
".  c #36B036",
".. c #35A835",
".X c #2FB02F",
".o c #2EA62E",
".O c #2FA42F",
".+ c #2CA22C",
".@ c #FD6666",
".# c #2AA42A",
".$ c #29A429",
".% c #24A224",
".& c #1FA81F",
".* c #F30000",
".= c #FA4142",
".- c #FFFFFF",
".; c #FDFDFD",
".: c #199C19",
".> c #FBFBFB",
"., c #F9F9F9",
".< c #D54E3B",
".1 c #F83636",
".2 c #E7675D",
".3 c #EFEFEF",
".4 c #EDEDED",
".5 c #EBEBEB",
".6 c #E9E9E9",
".7 c #E7E7E7",
".8 c #E5E5E5",
".9 c #E3E3E3",
".0 c #E1E1E1",
".q c #DFDFDF",
".w c #ED0000",
".e c #DBDBDB",
".r c #D9D9D9",
".t c #F93C3D",
".y c #F73131",
".u c #FD5151",
".i c #D1351F",
".p c #FB0000",
".a c #0F970E",
".s c #E70000",
".d c None",
/* pixels */
".3.3.3.3.4 7 7 7.p _ v O.* Y *.w",
".3.-.- y y ' ~ ] ( 5 c z A m R !",
".3.- y y y $.u X & e.t ).y   8 w",
".3 y y y.;.@ > &.= W g.y = i b.s",
".4 y y.; u | k V ..1 o = G Q T.s",
".5 y.; p p.2 S M E ^ + ;.i 0.< /",
".5.; p s.> : x <.X 4 6.& t a.  B",
".6 p.>.> d % 1 3.#.% q.: f j n K",
".7 p d d., `.o.$ 9 r # h.a l.O P",
".8.> d.,., @ - [ { } ,.. 2.O.+ U",
".9.0.q.e.r N C Z C D F J L P I H"
};
