/* XPM */
const char *icon_famfamfam_flags_mk[] = {
/* width height ncolors chars_per_pixel */
"16 11 164 2",
/* colors */
"   c #FE7158",
" . c #F4D81F",
" X c #EB3D00",
" o c #FCDE69",
" O c #FA7940",
" + c #F56524",
" @ c #F6CF42",
" # c #F24014",
" $ c #FAD35D",
" % c #F7BF2F",
" & c #F50000",
" * c #F7CD46",
" = c #FC7866",
" - c #E10000",
" ; c #F52D24",
" : c #F86C37",
" > c #FB8947",
" , c #F83E34",
" < c #F5AC23",
" 1 c #F83434",
" 2 c #EDEF00",
" 3 c #F65D2B",
" 4 c #F1CA0E",
" 5 c #F7772F",
" 6 c #F46E36",
" 7 c #F1940B",
" 8 c #F33232",
" 9 c #EF0000",
" 0 c #F34D00",
" q c #FC514B",
" w c #FBE300",
" e c #FB9646",
" r c #F76549",
" t c #F95455",
" y c #F7D431",
" u c #F6762A",
" i c #F98D3A",
" p c #FD0000",
" a c #E7C500",
" s c #F8C753",
" d c #FE7474",
" f c #FEFD73",
" g c #E90000",
" h c #F9793A",
" j c #FA4242",
" k c #F7AE31",
" l c #F52626",
" z c #F53E3D",
" x c #F5F500",
" c c #F8C035",
" v c #F2BE2F",
" b c #FA5C5C",
" n c #FE7F59",
" m c #FD996F",
" M c #FB5A49",
" N c #F6A729",
" B c #FAAF44",
" V c #FB6060",
" C c #F70000",
" Z c #F72E2E",
" A c #F64444",
" S c #E30000",
" D c #F9BC3C",
" F c #FE9776",
" G c #FCE74F",
" H c #F32C19",
" J c #FB5145",
" K c #F78F30",
" L c #FDF353",
" P c #F10000",
" I c #FD5C54",
" U c #FF8F7A",
" Y c #DD0000",
" T c #FD5454",
" R c #F9F93B",
" E c #FA9640",
" W c #FDFD00",
" Q c #FC6A6A",
" ! c #FE7979",
" ~ c #F44020",
" ^ c #FDE300",
" / c #F24114",
" ( c #F9423C",
" ) c #FBBE47",
" _ c #FF0000",
" ` c #FC714F",
" ' c #E9C700",
" ] c #FDDD6D",
" [ c #FADB3F",
" { c #FCC84B",
" } c #EB0000",
" | c #FD7071",
".  c #F6842B",
".. c #FD5950",
".X c #F8F836",
".o c #F3E61A",
".O c #F4791F",
".+ c #FAAF3F",
".@ c #EF3100",
".# c #FC844B",
".$ c #F25A13",
".% c #F6382B",
".& c #F90000",
".* c #E50000",
".= c #F21010",
".- c #F42D1F",
".; c #FD3900",
".: c #FA8942",
".> c #FD3500",
"., c #F33535",
".< c #F88436",
".1 c #FFF77B",
".2 c #F2E32C",
".3 c #F87636",
".4 c #F4F43B",
".5 c #DDDD00",
".6 c #F43939",
".7 c #FC6665",
".8 c #FB8346",
".9 c #FFD97B",
".0 c #F66F2A",
".q c #F96F58",
".w c #F30000",
".e c #F97C3A",
".r c #FEE25C",
".t c #F74D00",
".y c #DF0000",
".u c #F5B625",
".i c #FFFF00",
".p c #FABE41",
".a c #FE7777",
".s c #F39D19",
".d c #FE8859",
".f c #F7EF4E",
".g c #F85050",
".h c #FEC45F",
".j c #F41E1E",
".k c #FB4949",
".l c #FD9751",
".z c #FDBF54",
".x c #ED0000",
".c c #F6AE2C",
".v c #F93C3D",
".b c #FBF062",
".n c #F96857",
".m c #FE5C5C",
".M c #F52E25",
".N c #FF7700",
".B c #E5E500",
".V c #FB6645",
".C c #FCBA4C",
".Z c #F56C3F",
".A c #FD5151",
".S c #F2472F",
".D c #FF6700",
".F c #F74B4B",
".G c #FB0000",
".H c #F31919",
".J c #E70000",
".K c #DD0300",
".L c #F24B32",
".P c #FE8879",
".I c #F77230",
".U c None",
/* pixels */
".i.D _ _ p p p ^ w.& C &.w P.@ 2",
".N.1.9.P.a d | ] o.7 V b.n s.f X",
" _ U.h.r.d T.A.C ) j.v : y.c r g",
" _ !.m n.z.l q >.: (.< k 3 l A.J",
".> F   I...#.8.p D.3.I.%.M ~.Z.J",
" W f L G { e E R.X K. .u ..o.4.B",
".; m ` M J O.e c %.0 +.- H / 6 S",
".G Q.k.V.+ i , 5 u ;.O.s #.= 8.y",
".& = B [ h 1 Z N <.j.H.$ 4 7.S.y",
".t.b $.q t.g.F * @ z.6.,.L v.2 Y",
" x 0 P 9.x.x } ' a.* S -.y Y.K.5"
};
