/* XPM */
const char *icon_famfamfam_flags_mn[] = {
/* width height ncolors chars_per_pixel */
"16 11 142 2",
/* colors */
"   c #4135EC",
" . c #1E19EE",
" X c #0000EB",
" o c #2E2EF7",
" O c #F62C2C",
" + c #4242FA",
" @ c #7D75F5",
" # c #FDAC53",
" $ c #5B50EE",
" % c #4B4BFC",
" & c #F50000",
" * c #2A2AF6",
" = c #F21414",
" - c #E10000",
" ; c #FD5650",
" : c #4747FB",
" > c #FA655D",
" , c #F33232",
" < c #2F2FF7",
" 1 c #EF0000",
" 2 c #F62B2B",
" 3 c #6055F2",
" 4 c #3C37F3",
" 5 c #FBDA49",
" 6 c #F43636",
" 7 c #4C4CFC",
" 8 c #FBCC49",
" 9 c #F21313",
" 0 c #7070FE",
" q c #473BED",
" w c #241FEF",
" e c #3434F8",
" r c #FD0000",
" t c #FEC359",
" y c #FDDD6F",
" u c #F74949",
" i c #E90000",
" p c #F52626",
" a c #0000FD",
" s c #5151FD",
" d c #F95B3A",
" f c #3030F7",
" g c #4B4BF7",
" h c #0000E9",
" j c #FA5C5C",
" k c #F70000",
" l c #F64444",
" z c #FE5959",
" x c #E30000",
" c c #F85353",
" v c #FE6B5C",
" b c #3535F8",
" n c #0000EF",
" m c #F22C2C",
" M c #F95757",
" N c #FB6545",
" B c #FEAC58",
" V c #F52525",
" C c #F43B3B",
" Z c #FE8776",
" A c #6D6DFD",
" S c #3E39F0",
" D c #F10000",
" F c #4D41EE",
" G c #DD0000",
" H c #F53F3F",
" J c #FD5454",
" K c #FE7F79",
" L c #F74E4E",
" P c #FF7B7A",
" I c #6969FC",
" U c #574CF1",
" Y c #F23232",
" T c #4241FA",
" R c #FB7162",
" E c #3D3DF5",
" W c #F42020",
" Q c #3636F8",
" ! c #FF0000",
" ~ c #FAD33F",
" ^ c #EB0000",
" / c #4646F7",
" ( c #0000FB",
" ) c #1E1EF4",
" _ c #0000E7",
" ` c #4242F6",
" ' c #0000D3",
" ] c #413CF5",
" [ c #3B3BF9",
" { c #F83737",
" } c #F90000",
" | c #FC6A4B",
".  c #6560F7",
".. c #E50000",
".X c #F21010",
".o c #2323F5",
".O c #FA5F3F",
".+ c #F41F1F",
".@ c #F33535",
".# c #302BF1",
".$ c #F95B55",
".% c #0000D9",
".& c #4040FA",
".* c #F96958",
".= c #F30000",
".- c #FEDE5C",
".; c #DF0000",
".: c #3C3CF9",
".> c #FFB57B",
"., c #F10B0B",
".< c #FEDC73",
".1 c #FBDA45",
".2 c #FE7777",
".3 c #F31A1A",
".4 c #3530F2",
".5 c #2424F5",
".6 c #F10F0E",
".7 c #FECE5F",
".8 c #FAB244",
".9 c #FF7B7B",
".0 c #FCDB6A",
".q c #ED0000",
".w c #4141FA",
".e c #0000F9",
".r c #6565FC",
".t c #F73131",
".y c #0000E5",
".u c #5246F0",
".i c #FEC879",
".p c #2929F6",
".a c #FD8354",
".s c #5B51F2",
".d c #FCD64F",
".f c #FCD04F",
".g c #FB0000",
".h c #F31919",
".j c #4646FB",
".k c #F22F2F",
".l c #E70000",
".z c #FCD866",
".x c #2A24F0",
".c c None",
/* pixels */
" ! ! ! ! r h a a (.e n &.= D 1.q",
" !.9.> K.2 @ 0 A I.r.  j M c L ^",
" ! P.7 v z 3 s 7 : + ] {.t O u i",
" !.i.- t J.s % : T.: 4.t 2 p l.l",
" r Z B.a ; U.j.w [ Q.4 2 V W H.l",
" r.< #.d |.u.& [ Q f.# V.+.3 C..",
" r y.f 5 N F [ b < *.x.+.h = 6 x",
".g.0 8.1.O q e < *.5 w.h =.X ,.;",
" }.z.8 ~ d   o.p.o ) . 9.6.,.k.;",
" k R >.*.$ $ g / ` E S.@ Y.k m G",
" &.= D 1.q ' X h _.y.% -.; G G G"
};
