/* XPM */
const char *icon_famfamfam_flags_mo[] = {
/* width height ncolors chars_per_pixel */
"16 11 156 2",
/* colors */
"   c #BED44D",
" . c #9AD19A",
" X c #97CF97",
" o c #93CD93",
" O c #46B247",
" + c #56B950",
" @ c #79C979",
" # c #74C774",
" $ c #45B049",
" % c #B8DEB7",
" & c #6AC36A",
" * c #6AC16A",
" = c #5FBF5F",
" - c #5CBD5C",
" ; c #5CBB5C",
" : c #59BB59",
" > c #58B958",
" , c #54B954",
" < c #53B953",
" 1 c #53B753",
" 2 c #F3F7F4",
" 3 c #4FB74F",
" 4 c #50B350",
" 5 c #49B549",
" 6 c #46B146",
" 7 c #44B144",
" 8 c #44AF44",
" 9 c #42AD42",
" 0 c #3FAF3F",
" q c #3FAD3F",
" w c #5CBB4B",
" e c #3DAB3D",
" r c #3AAB3A",
" t c #39A939",
" y c #7BCA7A",
" u c #37A937",
" i c #31A931",
" p c #32A532",
" a c #30A530",
" s c #2BA52B",
" d c #25A125",
" f c #B2D050",
" g c #209F20",
" h c #199B19",
" j c #71C569",
" k c #149914",
" l c #F6F6F6",
" z c #109710",
" x c #F3F6F3",
" c c #0B950B",
" v c #EEF4EE",
" b c #009100",
" n c #40AE3F",
" m c #008900",
" M c #008700",
" N c #008500",
" B c #008300",
" V c #008100",
" C c #DCECDC",
" Z c #007F00",
" A c #007D00",
" S c #007B00",
" D c #D8ECD8",
" F c #007700",
" G c #007500",
" H c #D6EAD6",
" J c #007100",
" K c #006F00",
" L c #006D00",
" P c #D1EAD1",
" I c #33A632",
" U c #006700",
" Y c #006300",
" T c #006100",
" R c #45B13D",
" E c #005D00",
" W c #005700",
" Q c #005100",
" ! c #004D00",
" ~ c #004B00",
" ^ c #004500",
" / c #003F00",
" ( c #003D00",
" ) c #003B00",
" _ c #003900",
" ` c #003500",
" ' c #70C371",
" ] c #003300",
" [ c #003100",
" { c #B4DCB4",
" } c #002F00",
" | c #002D00",
".  c #45B036",
".. c #002900",
".X c #002700",
".o c #ABDAAB",
".O c #5FBD4C",
".+ c #54B755",
".@ c #7BCA7B",
".# c #79C879",
".$ c #77C877",
".% c #76C876",
".& c #6FC46F",
".* c #57BA54",
".= c #66C066",
".- c #65BE65",
".; c #5CBE5C",
".: c #5DBC5D",
".> c #4BB33E",
"., c #58BC58",
".< c #4EB44E",
".1 c #A8D7AA",
".2 c #4BB24B",
".3 c #49B449",
".4 c #49B249",
".5 c #49B049",
".6 c #47B047",
".7 c #45B245",
".8 c #9CC027",
".9 c #45B045",
".0 c #62BE51",
".q c #45AE45",
".w c #71C56D",
".e c #3EAC3E",
".r c #7FC97E",
".t c #3BAA3B",
".y c #37AA37",
".u c #36A836",
".i c #35A835",
".p c #2FA42F",
".a c #2CA62C",
".s c #86CB88",
".d c #2CA22C",
".f c #26A226",
".g c #41AE30",
".h c #61BD60",
".j c #1B9C1B",
".k c #1A9C1A",
".l c #F9F9F9",
".z c #58B957",
".x c #149A14",
".c c #28A22B",
".v c #139813",
".b c #AEDCAF",
".n c #39AA2B",
".m c #E1EDE1",
".M c #B9D456",
".N c #A7C737",
".B c #51B542",
".V c #72C673",
".C c #57B94B",
".Z c #0F970E",
".A c #66BA67",
".S c #61BE62",
".D c #58BC59",
".F c None",
/* pixels */
" b m m m M B V A F G J L U Y E T",
" N.@.@ @.$ # '.w j.-.h ;.z 1.< !",
" m y =.; :.*.0.O  .B R.y i.a.4 ~",
" M.# -.D.*.M.C *.r.>. .N s.f 8 ^",
" M.%., , + w O.b 2 $.g.n d g q /",
" B.V < 3 f.s.o D x %.1.c.8.k.t )",
" Z.& 3 5 6 P.l v H l C o h.x.u `",
" S &.3.7 n.9.<.6.e 9 a.j k z I [",
" F.= 7 0 r u . {.m X.A.v.Z c.p |",
" K.S.: >.+ 4.2.5.q e t.i p.p.d.X",
" G U Y E W Q ! ^ / ( _ ] } |.. `"
};
