/* XPM */
const char *icon_famfamfam_flags_mp[] = {
/* width height ncolors chars_per_pixel */
"16 11 153 2",
/* colors */
"   c #F4DB7F",
" . c #00002B",
" X c #E6BF99",
" o c #7284B5",
" O c #778EA6",
" + c #F4BFAA",
" @ c #D3CFB1",
" # c #6785B4",
" $ c #5172A5",
" % c #EED190",
" & c #7E97BA",
" * c #FAE295",
" = c #002B7D",
" - c #00297D",
" ; c #000045",
" : c #CFD4BA",
" > c #839BC2",
" , c #000031",
" < c #CCD5D8",
" 1 c #B2C2C5",
" 2 c #00001D",
" 3 c #5979A9",
" 4 c #6A88B3",
" 5 c #7F97C1",
" 6 c #385F99",
" 7 c #C0B897",
" 8 c #8DA4C8",
" 9 c #476AA1",
" 0 c #E6DFA5",
" q c #00004B",
" w c #FCE8B4",
" e c #5879AB",
" r c #E0DD9F",
" t c #5475A7",
" y c #000037",
" u c #CDD4AA",
" i c #809ABB",
" p c #6684B2",
" a c #6584B1",
" s c #7995BE",
" d c #000023",
" f c #305794",
" g c #89A488",
" h c #859EC3",
" j c #000051",
" k c #5D7CAC",
" l c #ADBCB5",
" z c #F8F8F8",
" x c #000029",
" c c #E9CE90",
" v c #90A7CA",
" b c #ACBDC1",
" n c #6B89B6",
" m c #000361",
" M c #517BC4",
" N c #000057",
" B c #7DA1A3",
" V c #89A1C6",
" C c #42679E",
" Z c #00257B",
" A c #A1B2C3",
" S c #F4D68D",
" D c #869CB9",
" F c #6685B4",
" G c #5072A5",
" H c #00002F",
" J c #91A6C7",
" K c #7692BD",
" L c #728EB9",
" P c #000B67",
" I c #000767",
" U c #3D639C",
" Y c #7F99BF",
" T c #00005D",
" R c #4D70A5",
" E c #8FA6C8",
" W c #5D7DAE",
" Q c #002D81",
" ! c #C9B980",
" ~ c #94A6B9",
" ^ c #6F8CB9",
" / c #E5C881",
" ( c #7A95BD",
" ) c #DDDCBB",
" _ c #345B96",
" ` c #8BA4C7",
" ' c #00116D",
" ] c #D7CA8A",
" [ c #8FA2B7",
" { c #A6B8BD",
" } c #EFDF87",
" | c #6180AE",
".  c #738FB9",
".. c #00003B",
".X c #6B9F9D",
".o c #001D73",
".O c #476BB2",
".+ c #000027",
".@ c #728FBB",
".# c #B8C5E2",
".$ c #708DB9",
".% c #6A87B3",
".& c #7A95C6",
".* c #608AB3",
".= c #EFD58D",
".- c #B4C5CA",
".; c #375E98",
".: c #A9BBBF",
".> c #000041",
"., c #E3D4A2",
".< c #002379",
".1 c #829488",
".2 c #F7E59B",
".3 c #7692BB",
".4 c #41679E",
".5 c #F3E8B8",
".6 c #FDEDA4",
".7 c #5274A8",
".8 c #C0CCBE",
".9 c #6281B1",
".0 c #4B6EA1",
".q c #002D7F",
".w c #6E8AB6",
".e c #000033",
".r c #395F99",
".t c #4C70A5",
".y c #00001F",
".u c #486CA1",
".i c #9EB5A6",
".p c #D0D095",
".a c #000F6B",
".s c #C3C1A6",
".d c #5777A9",
".f c #5575A7",
".g c #3658A3",
".h c #7691BA",
".j c #4D78AC",
".k c #849AC1",
".l c #000039",
".z c #466AB9",
".x c #4E6FA3",
".c c #001771",
".v c #6F8BB6",
".b c #F4E486",
".n c #3C629B",
".m c #B4C3C8",
".M c #90A7C9",
".N c #8FA5C8",
".B c #00003F",
".V c #FAF0A6",
".C c #002377",
".Z c #001F77",
".A c None",
/* pixels */
" Q Q Q Q = Z.C.o.c.a I m T N j q",
" Q v v E 8 A.8.5 w ) ~.h L.w.% ;",
" Q.M s K [ u ! X + * ] O.7 R a.B",
".q.N K.@ l.6.i i.- o / 0.t.u |.l",
" - `.@.$.,.p.z 5.#.g B } 9 C k.e",
".< V ^ n r :.& J z.k.O.b.4 U 3 H",
".Z h n # @.V.j & < M g.=.n.r.f x",
".c > F.9 D % c b.:.s  .1 6 _ $ d",
" ' Y.9 W e.X.2.: { S 7.; _ f.x.y",
" P (.3. .v 4 p.m 1.*.d t G.x.0 2",
" m T N j q ;.>.. y , ..+ d.y 2 2"
};
