/* XPM */
const char *icon_famfamfam_flags_ms[] = {
/* width height ncolors chars_per_pixel */
"16 11 161 2",
/* colors */
"   c #E2CBD4",
" . c #00002B",
" X c #000017",
" o c #6469AE",
" O c #00006D",
" + c #AB7594",
" @ c #D89EA9",
" # c #5261B0",
" $ c #000059",
" % c #424B9D",
" & c #6067AD",
" * c #747ABA",
" = c #000031",
" - c #535CAA",
" ; c #869ED2",
" : c #00001D",
" > c #DFB9C3",
" , c #313C99",
" < c #4950A0",
" 1 c #B15D75",
" 2 c #9B8A55",
" 3 c #00005F",
" 4 c #404BA1",
" 5 c #33449E",
" 6 c #000037",
" 7 c #434C9D",
" 8 c #000023",
" 9 c #000383",
" 0 c #91A1C5",
" q c #3B459F",
" w c #777FBC",
" e c #4E55A1",
" r c #94A775",
" t c #6E7ABD",
" y c #6D89DD",
" u c #3D4DA4",
" i c #EA817E",
" p c #D66C71",
" a c #4E5CAE",
" s c #4D5CAD",
" d c #D7ACB7",
" f c #7994E2",
" g c #36459D",
" h c #232E91",
" j c #9A7FA6",
" k c #00003D",
" l c #000029",
" z c #8B70A1",
" x c #3849A2",
" c c #836DA3",
" v c #E69394",
" b c #A49360",
" n c #000015",
" m c #7581C0",
" M c #7490E0",
" N c #EEA19F",
" B c #E47271",
" V c #9DA4D0",
" C c #6B3371",
" Z c #2C3796",
" A c #D3808B",
" S c #000043",
" D c #708CDF",
" F c #2E3F9B",
" G c #8D1D43",
" H c #00002F",
" J c #38489E",
" K c #5E7FD7",
" L c #4A59A9",
" P c #9CAAD5",
" I c #00005D",
" U c #6975BA",
" Y c #6875B9",
" T c #C59E44",
" R c #394AA2",
" E c #3848A1",
" W c #001795",
" Q c #000049",
" ! c #4857AA",
" ~ c #7591E0",
" ^ c #000035",
" / c #4251A4",
" ( c #948AB9",
" ) c #5360AE",
" _ c #6482D9",
" ` c #33449F",
" ' c #DFD3DE",
" ] c #717EBE",
" [ c #718DDF",
" { c #000063",
" } c #5260B0",
" | c #C18499",
".  c #E26867",
".. c #273293",
".X c #00004F",
".o c #D8AAB6",
".O c #5C69B3",
".+ c #9D964A",
".@ c #6C89DD",
".# c #CD1517",
".$ c #C36B7D",
".% c #5A5CA7",
".& c #4958AA",
".* c #9F90B9",
".= c #9E8D58",
".- c #000069",
".; c #424CA3",
".: c #000055",
".> c #6572B8",
"., c #E3C2CA",
".< c #6470B7",
".1 c #E87A76",
".2 c #E07578",
".3 c #2F2583",
".4 c #4352A7",
".5 c #4E509E",
".6 c #7F1947",
".7 c #8EA3CC",
".8 c #4D5BAA",
".9 c #000019",
".0 c #2D3F9B",
".q c #464FA3",
".w c #3E4EA5",
".e c #00005B",
".r c #C68496",
".t c #E07B7E",
".y c #9B7EA7",
".u c #4E56A4",
".i c #81214F",
".p c #4655A6",
".a c #67235D",
".s c #9E8C57",
".d c #EE9E9C",
".f c #D7B6C4",
".g c #717AB9",
".h c #5764B0",
".j c #E1B2BA",
".k c #6886DB",
".l c #404BA0",
".z c #5B6CB7",
".x c #4D56A6",
".c c #6D69AB",
".v c #4453A7",
".b c #E08384",
".n c #5160AD",
".m c #4F5EAB",
".M c #5259A4",
".N c #606DB5",
".B c #91A571",
".V c #000025",
".C c #4E5CAD",
".Z c #8B6C9D",
".A c #000011",
".S c #000067",
".D c #5865B0",
".F c #6361A7",
".G c #283A98",
".H c #1E2A8E",
".J c #7F9AC2",
".K c #5765B2",
".L c None",
/* pixels */
".$ c W.6 G 9.a 1.S { I.e.:.X Q S",
".3 > '.o @.f   V w * Y.< o &.h k",
".# v i B. .1.2 p.F - f ~ [ y.n ^",
".i.j.d.t.b N A +.%.u M.7 0.k.8 H",
".c.,.* |.r P d.y.x < D ; r _.M l",
" C (.z z.Z a.g j.5 7.@.J.B K e 8",
" O m.K #.C.&.v.w R q b T.= 2.q :",
".- ] } s !.4.w x ` F ,.s.+ h 4.9",
" { t s !.4 u E 5.0.G Z.. h.H J n",
" 3 U.>.N.O.D ).m L.p /.;.l % g.A",
" $.:.X Q S k 6 = ..V 8 : X n.A.A"
};
