/* XPM */
const char *icon_famfamfam_flags_mt[] = {
/* width height ncolors chars_per_pixel */
"16 11 112 2",
/* colors */
"   c #FDF5F5",
" . c #F62C2C",
" X c #D3D2D2",
" o c #F73030",
" O c #F50000",
" + c #F21414",
" @ c #E10000",
" # c #C9C8C8",
" $ c #FEFDFC",
" % c #F3F1F1",
" & c #F1EFEF",
" * c #F84141",
" = c #F6EAEA",
" - c #FDFDFE",
" ; c #F64C4C",
" : c #F33232",
" > c #EF0000",
" , c #F62B2B",
" < c #F43636",
" 1 c #CFCDCD",
" 2 c #F21313",
" 3 c #FC6565",
" 4 c #F74949",
" 5 c #FC7272",
" 6 c #E90000",
" 7 c #FA4242",
" 8 c #FEFEFE",
" 9 c #FDFCFD",
" 0 c #F52626",
" q c #FCFCFC",
" w c #FBFCFB",
" e c #FAFAFA",
" r c #F8F8F8",
" t c #F83736",
" y c #FA5C5C",
" u c #F7EDED",
" i c #F62A2A",
" p c #D6D4D3",
" a c #FB6060",
" s c #F70000",
" d c #F64444",
" f c #E30000",
" g c #F85353",
" h c #F73B3B",
" j c #F22C2C",
" k c #F95757",
" l c #F52525",
" z c #F43B3B",
" x c #FAF9F9",
" c c #FBF0F0",
" v c #F10000",
" b c #F9EEEE",
" n c #DD0000",
" m c #F53F3F",
" M c #FB5252",
" N c #F74E4E",
" B c #F63636",
" V c #F23232",
" C c #F93C3C",
" Z c #F42020",
" A c #EFDDDD",
" S c #EB0000",
" D c #FEFCFC",
" F c #F52424",
" G c #F83737",
" H c #F90000",
" J c #E50000",
" K c #F21010",
" L c #F41F1F",
" P c #F33535",
" I c #BDB8B8",
" U c #F43939",
" Y c #FA4C4C",
" T c #F53030",
" R c #F30000",
" E c #DF0000",
" W c #FDFDFD",
" Q c #F53D3D",
" ! c #FBFBFB",
" ~ c #F10B0B",
" ^ c #F9F9F9",
" / c #F83636",
" ( c #F7F7F7",
" ) c #F5F5F5",
" _ c #FCF2F2",
" ` c #F3F3F3",
" ' c #F31A1A",
" ] c #F1F1F1",
" [ c #EFEFEF",
" { c #EDEDED",
" } c #EBEBEB",
" | c #F10F0E",
".  c #E7E7E7",
".. c #E5E5E5",
".X c #F41E1E",
".o c #E3E3E3",
".O c #E1E1E1",
".+ c #F94747",
".@ c #ED0000",
".# c #DDDDDD",
".$ c #DBDBDB",
".% c #F93C3D",
".& c #F73131",
".* c #D9C5C5",
".= c #FB0000",
".- c #F31919",
".; c #FAEFEF",
".: c #F22F2F",
".> c #F8EDED",
"., c #F7EBEC",
".< c #E70000",
".1 c None",
/* pixels */
" ] & ] ] ] ] ] A.= H s O R v >.@",
" ) x X $ 8 8 -   5 3 a y k g N S",
" % p I 1 8 W W _ M 7.% G.& . 4 6",
" ) D # 8 W W q c Y C t.& , 0 d.<",
" ` 8 8 W 9 q !.;.+ / o , l Z m.<",
" ] 8 W q q ! e b * o , l L ' z J",
" [ W q w ! e ^.> h i F L.- + < f",
" [ q ! ! e ^ r., B F L.- + K : E",
" { q e e ^ r ( = T.X.- 2 | ~.: E",
" { ! e ^ ^ r ( u ; Q U P V.: j n",
" }. ...o.O.#.$.*.< J f @ E n n n"
};
