/* XPM */
const char *icon_famfamfam_flags_mv[] = {
/* width height ncolors chars_per_pixel */
"16 11 148 2",
/* colors */
"   c #EE524F",
" . c #EF5050",
" X c #BF0000",
" o c #ED4E4E",
" O c #83E983",
" + c #E83232",
" @ c #E22C2C",
" # c #F15455",
" $ c #E6524A",
" % c #F16162",
" & c #58D755",
" * c #ED655E",
" = c #F67474",
" - c #EB635C",
" ; c #F57273",
" : c #E10000",
" > c #79EB7C",
" , c #63E163",
" < c #E74741",
" 1 c #F15858",
" 2 c #62DF62",
" 3 c #75E978",
" 4 c #72E975",
" 5 c #5DDF5D",
" 6 c #E7564E",
" 7 c #B90000",
" 8 c #F25C5C",
" 9 c #58DF5B",
" 0 c #58DD5B",
" q c #E23C35",
" w c #DB0000",
" e c #EC4242",
" r c #E5423B",
" t c #D6F5D7",
" y c #E93535",
" u c #EB4444",
" i c #63DE62",
" p c #ED5353",
" a c #5BDA5A",
" s c #F77777",
" d c #E90000",
" f c #EB3D3D",
" g c #C10000",
" h c #F77B7A",
" j c #F67979",
" k c #89E387",
" l c #4FDA51",
" z c #9BE99C",
" x c #80E77E",
" c c #DB1D16",
" v c #DAF6DA",
" b c #6CE16A",
" n c #E30000",
" m c #F57071",
" M c #CF0000",
" N c #E3433B",
" B c #E12522",
" V c #E10B0B",
" C c #BB0000",
" Z c #E83636",
" A c #B5ECB5",
" S c #B2EEB2",
" D c #E32B27",
" F c #F46969",
" G c #DE2722",
" H c #EC4D4A",
" J c #EB4949",
" K c #DD0000",
" L c #F56D6D",
" P c #5CE360",
" I c #C90000",
" U c #F26060",
" Y c #E54D46",
" T c #E52F2F",
" R c #EA5E58",
" E c #F46F6F",
" W c #E0312A",
" Q c #6CE46C",
" ! c #EB0000",
" ~ c #7AEA7D",
" ^ c #E22F2F",
" / c #CBF1CD",
" ( c #E92C2C",
" ) c #4FD44C",
" _ c #D70000",
" ` c #F05757",
" ' c #5FDE5F",
" ] c #BFF3C1",
" [ c #C30000",
" { c #F26666",
" } c #6CE66F",
" | c #7BEE81",
".  c #65E468",
".. c #EF5B59",
".X c #E44841",
".o c #F36A6A",
".O c #E83B3B",
".+ c #F77B7B",
".@ c #E01F1C",
".# c #F05F5D",
".$ c #F05D5D",
".% c #E50000",
".& c #5FE665",
".* c #93ED95",
".= c #D10000",
".- c #E93F3F",
".; c #78E577",
".: c #8DEB8F",
".> c #BD0000",
"., c #88E98A",
".< c #51E057",
".1 c #D6F4D7",
".2 c #D0F4D1",
".3 c #E63232",
".4 c #60DD5F",
".5 c #73E775",
".6 c #F26565",
".7 c #6DE56F",
".8 c #EF4B4B",
".9 c #6AE56C",
".0 c #F67676",
".q c #52D751",
".w c #DF0000",
".e c #DE1A16",
".r c #CB0000",
".t c #70E975",
".y c #E43C36",
".u c #A2ECA3",
".i c #EF4444",
".p c #7DE67B",
".a c #74E272",
".s c #DD221B",
".d c #EE4646",
".f c #D90000",
".g c #EF5754",
".h c #DD1511",
".j c #C50000",
".k c #EB3939",
".l c #56D854",
".z c #E23730",
".x c #DA1911",
".c c #F77979",
".v c #F45F5F",
".b c #E70000",
".n c #D30000",
".m c #E95B54",
".M c #DF2C26",
".N c None",
/* pixels */
" ! d.b.b.b.% n n :.w K w.f _.n.n",
" !.+.+.c s = m L F.6 U 8 ` p o M",
" ! h.v * - R.m 6 $ Y.X N q ( J.r",
" d j.# O | ~ 4.* ] }. .&.4 D u I",
".b.0.. x >.5.: v.2.u , P a B.-.j",
".b ;.g.p 3 Q S t 5 2 ' 9 &.@.O [",
".% E  .;.t.9.,.1 / z 0.<.q.e Z X",
" n.o H.a.7 b i k A a.l l ).h.3.>",
" n {.i < r.y.z W.M G.s c.x V T.>",
".w %.$ 1 # ..8.d e f.k y + ^ @ 7",
" K w _.n.= M.r I.j [ g X.> C 7 C"
};
