/* XPM */
const char *icon_famfamfam_flags_mx[] = {
/* width height ncolors chars_per_pixel */
"16 11 154 2",
/* colors */
"   c #53A172",
" . c #BF0000",
" X c #E5E5DA",
" o c #AB0000",
" O c #E6676B",
" + c #429764",
" @ c #E25A5D",
" # c #CD0000",
" $ c #81BB98",
" % c #B90000",
" & c #60AA7E",
" * c #A3B29F",
" = c #5CA67A",
" - c #FDFDFE",
" ; c #FAFBFB",
" : c #F9FBFA",
" > c #F7F9F8",
" , c #9AAA96",
" < c #F5F7F6",
" 1 c #E56266",
" 2 c #75B58F",
" 3 c #E1E0D5",
" 4 c #71B38B",
" 5 c #6EAF88",
" 6 c #C70000",
" 7 c #4E9E6F",
" 8 c #B30000",
" 9 c #489A69",
" 0 c #005F0B",
" q c #005D0B",
" w c #E86A6F",
" e c #F7F4F4",
" r c #DC393F",
" t c #64AB81",
" y c #F3F0F0",
" u c #60A97D",
" i c #FCFCFC",
" p c #9EAD99",
" a c #FAFAFA",
" s c #D72A30",
" d c #DE3F44",
" f c #3C9460",
" g c #F6F6F6",
" h c #F5F6F5",
" j c #F4F4F4",
" k c #AD0000",
" l c #D93035",
" z c #52A172",
" x c #DEE4DE",
" c c #FBF7F7",
" v c #005300",
" b c #65AA81",
" n c #DC383E",
" m c #004F00",
" M c #004900",
" N c #004300",
" B c #003D00",
" V c #835F3F",
" C c #003900",
" Z c #003100",
" A c #D7292F",
" S c #002F00",
" D c #DE3E43",
" F c #DFD5C4",
" G c #7CB994",
" H c #001F00",
" J c #E3DFDF",
" K c #79B791",
" L c #DE4D50",
" P c #E35E62",
" I c #5BA67A",
" U c #57A476",
" Y c #56A275",
" T c #C90000",
" R c #DC353A",
" E c #69AD84",
" W c #9FB9AC",
" Q c #E24A50",
" ! c #489C6A",
" ~ c #D82A2F",
" ^ c #E86C70",
" / c #81BC98",
" ( c #7FBA96",
" ) c #AF0000",
" _ c #5CA77A",
" ` c #00610F",
" ' c #FBFCFC",
" ] c #9DAD99",
" [ c #F8FAF9",
" { c #F6F8F7",
" } c #F5F8F6",
" | c #F4F6F5",
".  c #E0454A",
".. c #D1C5AE",
".X c #BD0000",
".o c #4D9D6E",
".O c #DA343A",
".+ c #A90000",
".@ c #C6AF8C",
".# c #E1494E",
".$ c #D6272C",
".% c #F9F5F6",
".& c #005701",
".* c #F4F1F1",
".= c #DD494D",
".- c #FDFDFD",
".; c #FBFBFB",
".: c #9BAA96",
".> c #F7F7F7",
"., c #E5E7E2",
".< c #F5F5F5",
".1 c #B70000",
".2 c #BAB19A",
".3 c #79B792",
".4 c #D92F35",
".5 c #E04449",
".6 c #EBEBEB",
".7 c #E9EBE9",
".8 c #E9E9E9",
".9 c #005D07",
".0 c #C9C3C3",
".q c #E7E7E7",
".w c #52A072",
".e c #DF5155",
".r c #4E9E6E",
".t c #DA3339",
".y c #D7D7D7",
".u c #DA4246",
".i c #E05559",
".p c #C50000",
".a c #8D7D6A",
".s c #D3D3D3",
".d c #D1D5D1",
".f c #67AD83",
".g c #DE3B40",
".h c #F8F4F4",
".j c #D1D1D1",
".k c #64AB80",
".l c #F6F2F2",
".z c #CFCFCF",
".x c #B10000",
".c c #60A77C",
".v c #F2EEEE",
".b c #DAD0BC",
".n c #D8CEBA",
".m c #DD484C",
".M c #005F0D",
".N c #DC464B",
".B c #DF3F44",
".V c #81BC99",
".C c #D92E34",
".Z c #E04348",
".A c #57A376",
".S c None",
/* pixels */
" 0 ` ` ` q.7.6.8.8.q J # # T 6.p",
".M /.V ( K ' -.- i i c ^ w O 1 .",
".M $.f.k I ;.- i.; a.% Q.#.5 P.X",
" 0 ( t u U : i.b.n h.h. .Z d @ %",
".9 G & = z [ F.@ V.. e.B D r.i.1",
".&.3 _.A 7 > X.2.a 3.l.g n.O.e 8",
" v 2 U.w ! { * W p.:.* R.t l L 8",
" m 4  .o + }., ] , x y.4.C s.= )",
" M 5.r 9 f |.> g.< j.v ~ A.$.N o",
" N E b.c Y <.>.> g.< y.m.m.N.u.+",
" B C Z S H.d.y.s.j.z.0 ).x k k )"
};
