/* XPM */
const char *icon_famfamfam_flags_my[] = {
/* width height ncolors chars_per_pixel */
"16 11 158 2",
/* colors */
"   c #DF2626",
" . c #9491D0",
" X c #DCD085",
" o c #DDBBBB",
" O c #0000C3",
" + c #E43B3B",
" @ c #F9EAEA",
" # c #F7E8E8",
" $ c #DDA7A7",
" % c #F5E6E6",
" & c #F3E4E4",
" * c #B8B1AA",
" = c #D7A1A1",
" - c #FAEEEE",
" ; c #F9EEED",
" : c #DFC3C3",
" > c #DCCF81",
" , c #FBE7E5",
" < c #E9B9B9",
" 1 c #E7B7B7",
" 2 c #0000C9",
" 3 c #4646DC",
" 4 c #FCF4F3",
" 5 c #FBF2F2",
" 6 c #E13434",
" 7 c #E74747",
" 8 c #87774B",
" 9 c #E15158",
" 0 c #F8E9E8",
" q c #A09AB6",
" w c #DD424A",
" e c #F5E5E5",
" r c #E75857",
" t c #F2E899",
" y c #F8EBEB",
" u c #F6E9E9",
" i c #E02F2F",
" p c #B1ADC3",
" a c #E3DA9E",
" s c #F4E7E7",
" d c #D50000",
" f c #F2E37B",
" g c #F2E89C",
" h c #DD2222",
" j c #F9EFEF",
" k c #F7EDED",
" l c #E74646",
" z c #0B0397",
" x c #726FBD",
" c c #0000C1",
" v c #E8DA7E",
" b c #E84A4A",
" n c #928FCF",
" m c #E24444",
" M c #CF0000",
" N c #DBA5A3",
" B c #DF2A2A",
" V c #E6DB89",
" C c #D79F9F",
" Z c #BB0000",
" A c #D59D9D",
" S c #E84C4D",
" D c #DC1D1D",
" F c #F6E8E8",
" G c #F4E6E6",
" H c #E64141",
" J c #F7DFDF",
" K c #E5B3B3",
" L c #E03B3B",
" P c #FBF0F0",
" I c #3B3BD9",
" U c #7C7AC6",
" Y c #EBD3D3",
" T c #E54343",
" R c #C90000",
" E c #F1C7C5",
" W c #EFC3C3",
" Q c #E23636",
" ! c #EDC1C1",
" ~ c #E23839",
" ^ c #4040DA",
" / c #DA1A1A",
" ( c #F6E7E7",
" ) c #D70000",
" _ c #F4E5E5",
" ` c #F2E3E3",
" ' c #C30000",
" ] c #FAEFEE",
" [ c #F9EDED",
" { c #F8EDEC",
" } c #F7EBEB",
" | c #E23132",
".  c #DE464F",
".. c #E13131",
".X c #0D0797",
".o c #EE6F6F",
".O c #E54242",
".+ c #F2E37C",
".@ c #4141D7",
".# c #E04A54",
".$ c #6D6DE1",
".% c #DCD084",
".& c #4C4CDB",
".* c #D10000",
".= c #F2E57F",
".- c #E33939",
".; c #D79D9D",
".: c #E7C7C7",
".> c #E5C5C5",
"., c #F7E8E7",
".< c #F6E6E6",
".1 c #4B4ADD",
".2 c #F4E4E4",
".3 c #F2E2E2",
".4 c #0000C5",
".5 c #E3AFAF",
".6 c #DFABAB",
".7 c #DE474E",
".8 c #F7EAEA",
".9 c #F1E7EE",
".0 c #DDA9A9",
".q c #F3E6E6",
".w c #CB0000",
".e c #FCF2F2",
".r c #B70000",
".t c #F5EFF5",
".y c #DA3640",
".u c #FAF0F0",
".i c #F5EA95",
".p c #F8EEEE",
".a c #E23434",
".s c #C3AD25",
".d c #EBBDBD",
".f c #DBCF82",
".g c #EEE5EE",
".h c #DDD4A5",
".j c #DC3C45",
".k c #DD2525",
".l c #E45050",
".z c #DDD187",
".x c #D90000",
".c c #E76F77",
".v c #E02B2B",
".b c #E43C3C",
".n c #E04F59",
".m c #EA4F4F",
".M c #B10000",
".N c #DED38B",
".B c #110999",
".V c #F5E7E7",
".C c #F3E5E5",
".Z c #F4E77C",
".A c #4747DB",
".S c #E33E3E",
".D c #E95151",
".F c #FBF1F0",
".G c #F2E89B",
".H c None",
/* pixels */
" 2.B.s.s.X.4 O c R.x ) d.* M.w R",
".B g g p.h a n.$.t.e 5.u j.p k Y",
" 8.G * V.=.+ X.& 9.D S 7.O.b r '",
" 8 t q.N f v.f.A.9 @ 0.,.< e F.:",
" z.i.Z U X > x.@.7 7 T.S ~ 6.l Z",
".4 ..z.%.1 3 ^ I.g # ( e.2 & s.>",
" R.c.n.#.  w.j.y |.-.a i B.k m.r",
" , 4.F P ] ; { } u.V G & `.3.q :",
".x.o.m b l H + Q...v   h D / L.M",
" J P - [ [ y.8 # F % _.C `.3.3 o",
" E W !.d < 1 K.5.6.0 $ N = C A.;"
};
