/* XPM */
const char *icon_famfamfam_flags_mz[] = {
/* width height ncolors chars_per_pixel */
"16 11 171 2",
/* colors */
"   c #000000",
" . c #E59100",
" X c #BBAF7F",
" o c #6A4C54",
" O c #F5D223",
" + c #DF8F7B",
" @ c #C2424B",
" # c #F50000",
" $ c #2A2C36",
" % c #F7D346",
" & c #74C774",
" * c #F1CA0B",
" = c #F3A100",
" - c #E2DDC6",
" ; c #6DC36D",
" : c #FC6666",
" > c #DF9500",
" , c #E6E3CD",
" < c #F95959",
" 1 c #FA9E3F",
" 2 c #F5D03D",
" 3 c #59C159",
" 4 c #5CBB5C",
" 5 c #DF8700",
" 6 c #E6C977",
" 7 c #53B753",
" 8 c #4CB74C",
" 9 c #F9DB3A",
" 0 c #EF0000",
" q c #49B349",
" w c #47B547",
" e c #363741",
" r c #F7D62E",
" t c #42B342",
" y c #FC574B",
" u c #EDA300",
" i c #ED9F00",
" p c #F8D750",
" a c #F2C95E",
" s c #DFD8BF",
" d c #31AB31",
" f c #F2CA2C",
" g c #F3CE19",
" h c #61BE60",
" j c #E6E2CC",
" k c #504750",
" l c #E4D8CA",
" z c #F2CA2F",
" x c #FB4646",
" c c #E79300",
" v c #BC4040",
" b c #403740",
" n c #3B3B3B",
" m c #E8F0E8",
" M c #3B333B",
" N c #E5EEE5",
" B c #009100",
" V c #F2CC32",
" C c #008900",
" Z c #008700",
" A c #E1EAE1",
" S c #008500",
" D c #362D36",
" F c #008300",
" G c #FB4A49",
" H c #008100",
" J c #F0675F",
" K c #F70000",
" L c #007D00",
" P c #007900",
" I c #007500",
" U c #007100",
" Y c #006D00",
" T c #6C726E",
" R c #006700",
" E c #006300",
" W c #252525",
" Q c #006100",
" ! c #E2DBC4",
" ~ c #005D00",
" ^ c #1F1F1F",
" / c #005100",
" ( c #004D00",
" ) c #EAE5CF",
" _ c #E18B00",
" ` c #242631",
" ' c #70C571",
" ] c #FB5545",
" [ c #FA4D44",
" { c #463C45",
" } c #FC7A6A",
" | c #917E74",
".  c #EFA700",
".. c #FF7B7A",
".X c #FE7979",
".o c #EEC558",
".O c #F6D242",
".+ c #F2CC13",
".@ c #FB7B62",
".# c #F51500",
".$ c #F3CD35",
".% c #553C46",
".& c #2F313B",
".* c #E0DAC1",
".= c #FF0000",
".- c #FAC45D",
".; c #79CE79",
".: c #77C877",
".> c #F4CF39",
"., c #E4DEC8",
".< c #F4CF64",
".1 c #F9D955",
".2 c #1F212B",
".3 c #69C269",
".4 c #E99900",
".5 c #65C065",
".6 c #F9E158",
".7 c #F1CB0E",
".8 c #CD8376",
".9 c #F9D5C2",
".0 c #54BC54",
".q c #51BA51",
".w c #F90000",
".e c #F4D01E",
".r c #4EB44E",
".t c #E28766",
".y c #353640",
".u c #3DB03D",
".i c #37AE37",
".p c #E38F00",
".a c #2A2B2B",
".s c #2CA82C",
".d c #F1B700",
".f c #8FA05C",
".g c #4E464E",
".h c #E2DDC8",
".j c #F6D429",
".k c #F2D12F",
".l c #4B424B",
".z c #58B957",
".x c #F7D54B",
".c c #141622",
".v c #FD5655",
".b c #E9F1E9",
".n c #DD8900",
".m c #E7EFE7",
".M c #DD8700",
".N c #DD8300",
".B c #DD8100",
".V c #E4EDE4",
".C c #363636",
".Z c #E3EBE3",
".A c #E2EBE2",
".S c #E0E9E0",
".D c #DEE7DE",
".F c #303030",
".G c #91BE7B",
".H c #FA4548",
".J c #CF5159",
".K c #312831",
".L c #E56A54",
".P c #EB9D00",
".I c #FE685C",
".U c #1A1A1A",
".Y c #F8D834",
".T c #E5E0CA",
".R c #B9CDB9",
".E c #191B26",
".W c #E70000",
".Q c #8D2F00",
".! c None",
/* pixels */
".Q S B C Z F H L P I U Y R E ~ Q",
".= +.G.;.: & ' ;.3.5 h 4.z 7.r (",
".=.. J.f 3.0.q 8 w t.u.i d.s q /",
".=.X.I < l.b m.m N.V.Z A.S.D.A.R",
" #.8.o.L.v.J o k.l { b M D.K.g  ",
" 0 6 T a y x v n.C.F.a W ^.U n  ",
".W |.<.t.H @.%.y.& $ `.2.E.c e  ",
".w } G ].9 ) , j.T., - !.* s.h X",
".w : [ 1 9.Y r.j O.e g.+.7 *.k >",
" K.@.-.6.1 p.x %.O 2.>.$ V z f.B",
".# =.d.  u i.P.4 c ..p _ 5.M.N.n"
};
