/* XPM */
const char *icon_famfamfam_flags_na[] = {
/* width height ncolors chars_per_pixel */
"16 11 159 2",
/* colors */
"   c #948FB9",
" . c #DDEADC",
" X c #F97874",
" o c #000081",
" O c #F68688",
" + c #F93B3C",
" @ c #EDB2AD",
" # c #F73030",
" $ c #F50000",
" % c #55BC5C",
" & c #96D59C",
" * c #8C88C1",
" = c #000087",
" - c #9195D3",
" ; c #A3A8DE",
" : c #000073",
" > c #189C19",
" , c #E0E1F2",
" < c #FA5D5D",
" 1 c #EF0000",
" 2 c #F3D0D3",
" 3 c #FB706B",
" 4 c #F2E4E9",
" 5 c #3FAB3F",
" 6 c #6D6DC3",
" 7 c #00008D",
" 8 c #F9615F",
" 9 c #39A939",
" 0 c #F95B5F",
" q c #DEE2D5",
" w c #000079",
" e c #EDE9F1",
" r c #32A532",
" t c #E4E4F2",
" y c #EDD266",
" u c #3FB142",
" i c #5A5ABA",
" p c #25A125",
" a c #8582C3",
" s c #7D7BC5",
" d c #ECC0BB",
" f c #88D08D",
" g c #199B19",
" h c #F70D07",
" j c #E1E2F2",
" k c #149914",
" l c #F83736",
" z c #139913",
" x c #F3B2AE",
" c c #109710",
" v c #8482C5",
" b c #F7777A",
" n c #0B950B",
" m c #FA8C8A",
" M c #7970A3",
" N c #ECD26B",
" B c #F93B3A",
" V c #9B9FD8",
" C c #7070C5",
" Z c #ABDDAF",
" A c #F7A9AB",
" S c #6767C6",
" D c #DDD7E7",
" F c #F62C2D",
" G c #33A632",
" H c #006500",
" J c #F85353",
" K c #005B00",
" L c #F9504A",
" P c #C5E2C5",
" I c #CBA993",
" U c #004900",
" Y c #004700",
" T c #004100",
" R c #003F00",
" E c #D7BBCD",
" W c #003D00",
" Q c #003B00",
" ! c #003900",
" ~ c #003500",
" ^ c #003300",
" / c #003100",
" ( c #002F00",
" ) c #002D00",
" _ c #002900",
" ` c #002700",
" ' c #F10000",
" ] c #F99F9F",
" [ c #6F6FC3",
" { c #F74E4E",
" } c #7CCB83",
" | c #B5BAE3",
".  c #D1E5D0",
".. c #FB6162",
".X c #5353BB",
".o c #6969C0",
".O c #EB0000",
".+ c #FA4240",
".@ c #F7DA5D",
".# c #F64C53",
".$ c #000091",
".% c #00007D",
".& c #E2DFD3",
".* c #7474C7",
".= c #F83737",
".- c #F9C1C2",
".; c #7E7DCA",
".: c #6F6AAE",
".> c #46AE46",
"., c #F93B3B",
".< c #E2D8CC",
".1 c #42AE42",
".2 c #3DAC3D",
".3 c #5857B5",
".4 c #3BAA3B",
".5 c #000083",
".6 c #7D75A1",
".7 c #36A836",
".8 c #35A835",
".9 c #FA5D56",
".0 c #FA3F3F",
".q c #32A632",
".w c #2FA42F",
".e c #2CA22C",
".r c #F30000",
".t c #B9C7AD",
".y c #1E9E1E",
".u c #F1D3D7",
".i c #1F9C1F",
".p c #199C19",
".a c #1A9A1A",
".s c #149A14",
".d c #F83636",
".f c #000089",
".g c #FA4B45",
".h c #7C75A6",
".j c #EAEAF4",
".k c #F83D43",
".l c #7577CA",
".z c #F93A3A",
".x c #EBE1EB",
".c c #81C989",
".v c #5655BC",
".b c #8F95D6",
".n c #5151B7",
".m c #ED0000",
".M c #ECE7EF",
".N c #F4D962",
".B c #F2DDE1",
".V c #C7E3C7",
".C c #F73131",
".Z c #F74148",
".A c #7776C8",
".S c #F8666D",
".D c #F83535",
".F c #E9CBC4",
".G c #0F970E",
".H c #7272C6",
".J c None",
/* pixels */
".$.f 7.$.f.5 o.% w : = - E ' 1.m",
" =.; *   s.* C 6.o V.j 2 8 J {.O",
" 7 v N.N.h.v.n i |.x X.=.C F A.t",
" 7 a y.@.6.n.l t.u L l.C.#.F P K",
" =.A.: M.3 ;.M m +.d # O q } 5 R",
".5.H.X S j.B.9.,.d.Z d.V u.a.4 Q",
".% [.b e ].+ B.D b.& & p g.s.7 ~",
" = , 4 3.0.z.k @.  %.i.p k c G /",
" D.-.g.0.z.S.< Z.q.y > z.G n.w )",
" h.. < 0 x . f.>.1.2 9.8 r.w.e `",
" $.r ' I.c H U Y T W ! ^ ( ) _ ~"
};
