/* XPM */
const char *icon_famfamfam_flags_nc[] = {
/* width height ncolors chars_per_pixel */
"16 11 157 2",
/* colors */
"   c #000000",
" . c #F53F60",
" X c #FD0005",
" o c #F83659",
" O c #F9F948",
" + c #719CDF",
" @ c #0023B9",
" # c #338459",
" $ c #187545",
" % c #9B9B45",
" & c #7CA5E3",
" * c #106F3D",
" = c #0F6F3C",
" - c #FD000B",
" ; c #002FBF",
" : c #66A684",
" > c #8FB3E8",
" , c #F1F15A",
" < c #F62B53",
" 1 c #C6A886",
" 2 c #F9F93A",
" 3 c #F5F561",
" 4 c #3D8B62",
" 5 c #FBFC49",
" 6 c #D3D750",
" 7 c #FCEE75",
" 8 c #5A8DDB",
" 9 c #0F4BC3",
" 0 c #6D99DD",
" q c #C2CF95",
" w c #4B8A6C",
" e c #F8F835",
" r c #79A2E2",
" t c #004BCB",
" y c #5589D9",
" u c #A0A04F",
" i c #F73053",
" p c #89A4E1",
" a c #99AEC9",
" s c #507F6A",
" d c #F31945",
" f c #1E7949",
" g c #A8C753",
" h c #001BB7",
" j c #54552F",
" k c #F5254A",
" l c #F43B60",
" z c #589178",
" x c #F41F49",
" c c #F73059",
" v c #E30000",
" b c #767650",
" n c #0029BD",
" m c #0B6D39",
" M c #469169",
" N c #003700",
" B c #003100",
" V c #F8F137",
" C c #002900",
" Z c #FDFD53",
" A c #711D7D",
" S c #002300",
" D c #F42045",
" F c #F4365C",
" G c #8FB3E9",
" H c #001B00",
" J c #001500",
" K c #000D00",
" L c #F9F93B",
" P c #0039C3",
" I c #000500",
" U c #0035C3",
" Y c #98ADCA",
" T c #39895F",
" R c #FCFC4B",
" E c #250035",
" W c #A677AD",
" Q c #35855B",
" ! c #328358",
" ~ c #8FAAE2",
" ^ c #A471AB",
" / c #2F8155",
" ( c #147241",
" ) c #137240",
" _ c #000DAF",
" ` c #72714B",
" ' c #0047C9",
" ] c #0043C9",
" [ c #6D6D46",
" { c #0000A5",
" } c #9E9E4B",
" | c #F5244F",
".  c #F5C13A",
".. c #A4A454",
".X c #FBFB46",
".o c #919134",
".O c #E2D09E",
".+ c #4D4D3A",
".@ c #5E90DC",
".# c #FCFC54",
".$ c #9FBCA8",
".% c #474734",
".& c #E50000",
".* c #197545",
".= c #6493DB",
".- c #FEFE59",
".; c #FD0007",
".: c #F5F52F",
".> c #F41F4A",
"., c #79A840",
".< c #ECEE5B",
".1 c #FAFA41",
".2 c #F62B4F",
".3 c #F5254E",
".4 c #767651",
".5 c #FBF94F",
".6 c #FDBE83",
".7 c #F21441",
".8 c #54846E",
".9 c #53523F",
".0 c #6996DC",
".q c #83AAE5",
".w c #FDFD54",
".e c #76AC43",
".r c #237C4E",
".t c #B7D479",
".y c #759FE1",
".u c #F31A45",
".i c #5086D7",
".p c #5DA07D",
".a c #FCB97B",
".s c #7FA8E4",
".d c #989840",
".f c #0005AD",
".g c #003FC7",
".h c #F7C644",
".j c #2F8156",
".k c #4B82D5",
".l c #A16DA9",
".z c #2C7F53",
".x c #9E69A6",
".c c #FBF958",
".v c #48483A",
".b c #9B65A3",
".n c #9861A0",
".m c #6294DE",
".M c #428E65",
".N c #0015B3",
".B c #247D4E",
".V c #5C5E40",
".C c #1F7949",
".Z c #61A380",
".A c #E70000",
".S c #DEE270",
".D c #0000A9",
".F c #F62A54",
".G c None",
/* pixels */
" t t t t ' ].g P U ; n @ h.N _.f",
" 9 G G ~ a Y p.q.s & r.y + 0.0.D",
" t > q.S ,.#.<.$.m.@ 8 y.i.k.= {",
" A.O 3.-...4 R O 1 ^.l.x.b.n W E",
".;.6.c.w b }.X.1.h o i.2 k D ..A",
" - 7 Z u ` [.d L V c <.3 x.u l.&",
" X.a.5 5 %.d 2 e. .F |.> d.7 F v",
" N.t 6 %.9.+.o.:.e.B.C.* ( * #  ",
" B : g.V.v.% j.,.r f $ ) = m.j  ",
" C.Z.p z.8 s w M.M 4 T Q ! /.z  ",
" S H J K I                      "
};
