/* XPM */
const char *icon_famfamfam_flags_ne[] = {
/* width height ncolors chars_per_pixel */
"16 11 155 2",
/* colors */
"   c #A1C7A1",
" . c #F5E3D6",
" X c #FDA971",
" o c #EB0300",
" O c #FEEFE5",
" + c #FCA469",
" @ c #F93500",
" # c #66BD66",
" $ c #F97C3B",
" % c #189619",
" & c #58B958",
" * c #F4F5F5",
" = c #FCA165",
" - c #F8E8DB",
" ; c #F7E6DA",
" : c #FA8642",
" > c #3FAB3F",
" , c #F8A978",
" < c #39A939",
" 1 c #FDEEE3",
" 2 c #34A534",
" 3 c #F32100",
" 4 c #F87536",
" 5 c #32A532",
" 6 c #FAEAE0",
" 7 c #2F9F2F",
" 8 c #239D23",
" 9 c #E90000",
" 0 c #1E991E",
" q c #FEFEFE",
" w c #DBB59D",
" e c #FDFCFD",
" r c #FCFCFC",
" t c #FBFCFB",
" y c #FAFAFA",
" u c #FB9E60",
" i c #FFB07B",
" p c #F6F6F6",
" a c #F4F4F4",
" s c #FEF2EA",
" d c #F2F2F2",
" f c #0B8F0B",
" g c #E8F4E8",
" h c #ED1B00",
" j c #E0F0E0",
" k c #DFF0DF",
" l c #007500",
" z c #D7E8D7",
" x c #D5E8D5",
" c c #007100",
" v c #FDEDE2",
" b c #006F00",
" n c #D2E6D2",
" m c #006500",
" M c #D0E4D0",
" N c #F9E9DE",
" B c #006300",
" V c #005D00",
" C c #FB3900",
" Z c #005700",
" A c #005100",
" S c #004D00",
" D c #004700",
" F c #004100",
" G c #003D00",
" H c #003900",
" J c #F7B186",
" K c #003500",
" L c #003300",
" P c #002F00",
" I c #002D00",
" U c #FFAB7A",
" Y c #002900",
" T c #002700",
" R c #002100",
" E c #0F920E",
" W c #F5D9C9",
" Q c #FC8D4C",
" ! c #54B755",
" ~ c #F52700",
" ^ c #F6C8AC",
" / c #F87F37",
" ( c #FB8A47",
" ) c #FDA76D",
" _ c #F7A471",
" ` c #5DBC5D",
" ' c #EF0F00",
" ] c #FABD98",
" [ c #50B450",
" { c #4BB24B",
" } c #FD4B00",
" | c #FD4500",
".  c #46B046",
".. c #FD4300",
".X c #44AE44",
".o c #F78A49",
".O c #FD3D00",
".+ c #FBD4BD",
".@ c #42AE42",
".# c #3DAC3D",
".$ c #DCEEDD",
".% c #FEAB74",
".& c #3AA83A",
".* c #D7EAD8",
".= c #35A835",
".- c #FBEBE1",
".; c #2FA42F",
".: c #2EA22E",
".> c #2CA22C",
"., c #FA9B5C",
".< c #FEAD77",
".1 c #29A029",
".2 c #D8ECDC",
".3 c #F8CDB3",
".4 c #FDFDFD",
".5 c #FBFBFB",
".6 c #F9AE7F",
".7 c #F7F7F7",
".8 c #139413",
".9 c #F9CFB7",
".0 c #F5F5F5",
".q c #FE9659",
".w c #F9823D",
".e c #F3F3F3",
".r c #F72D00",
".t c #F1F1F1",
".y c #F89653",
".u c #F77B31",
".i c #E2F1E2",
".p c #FE985C",
".a c #F6E4D8",
".s c #DDEFDD",
".d c #F99857",
".f c #FD8F51",
".g c #D4E7D4",
".h c #FCECE1",
".j c #FAB286",
".k c #D7D7D7",
".l c #D5D5D5",
".z c #FE9A5F",
".x c #F6E6DB",
".c c #D3D3D3",
".v c #DAEDDD",
".b c #C5DFC5",
".n c #FD9354",
".m c #F7934E",
".M c #F11900",
".N c #F6762C",
".B c #FEAE79",
".V c #FF5900",
".C c #61BE62",
".Z c #FF4D00",
".A c #FF4B00",
".S c #FF4300",
".D c None",
/* pixels */
".V.A.Z.Z } |...O C @.r ~ 3.M ' h",
".Z i i.B.<.% X ) + = u.,.d.y.m o",
".S U.z.p.q.n.f Q ( :.w /.u.N.o 9",
" W s O O 1 v.h.- 6 N - ;.a ..x w",
".0 q q.4 e r.+.j.6.3.7 p.0 a.0.k",
".e q.4 r r.5 ] $ 4 J p.0 a.e *.l",
".t.4 r t.5 y.9 , _ ^.0 a.e d a.c",
".b g.i j k.s.$.v.2.* x.g n M z  ",
" b #.X >.& 2.:.1 8 0 %.8 E f 7 R",
" c.C ` & ! [ {. .@.# <.= 5.;.> Y",
" l m B V Z A S D F G H L P I T K"
};
