/* XPM */
const char *icon_famfamfam_flags_nf[] = {
/* width height ncolors chars_per_pixel */
"16 11 147 2",
/* colors */
"   c #000000",
" . c #A1C1A1",
" X c #9BBD9B",
" o c #90B390",
" O c #8BB58B",
" + c #85AF85",
" @ c #7BA77B",
" # c #79A979",
" $ c #76AD76",
" % c #FDFDFE",
" & c #6AA56A",
" * c #6A9F6A",
" = c #66A366",
" - c #5F9F5F",
" ; c #5D9D5D",
" : c #5C9D5C",
" > c #5C935C",
" , c #5D915D",
" < c #589958",
" 1 c #549754",
" 2 c #539753",
" 3 c #D7D9D5",
" 4 c #4F954F",
" 5 c #4E934E",
" 6 c #499149",
" 7 c #498F49",
" 8 c #3F893F",
" 9 c #418541",
" 0 c #7BB07A",
" q c #3D833D",
" w c #3B853B",
" e c #C8DDC9",
" r c #3A7F3A",
" t c #318131",
" y c #327F32",
" u c #2F7D2F",
" i c #FCFCFC",
" p c #2F772F",
" a c #FBFCFB",
" s c #2C7B2C",
" d c #FAFAFA",
" f c #F9FAF9",
" g c #F7F8F7",
" h c #2A732A",
" j c #F6F6F6",
" k c #F5F6F5",
" l c #F1F6F1",
" z c #207520",
" x c #F0F2F0",
" c c #589857",
" v c #E9EEE9",
" b c #0B670B",
" n c #CEE0CE",
" m c #CDDECD",
" M c #C4D6C4",
" N c #004300",
" B c #C2D8C2",
" V c #004100",
" C c #003D00",
" Z c #C0D6C0",
" A c #003B00",
" S c #003500",
" D c #BCD2BC",
" F c #002F00",
" G c #F8F9F7",
" H c #002700",
" J c #002100",
" K c #B4CCB4",
" L c #001900",
" P c #001300",
" I c #000D00",
" U c #000500",
" Y c #619F62",
" T c #0F6A0E",
" R c #9BBC9B",
" E c #589B59",
" W c #86AE86",
" Q c #80AA80",
" ! c #7EAC7E",
" ~ c #7BB07B",
" ^ c #79AE79",
" / c #7AA87A",
" ( c #75A675",
" ) c #6FA86F",
" _ c #6DA06D",
" ` c #639C63",
" ' c #5D985D",
" ] c #589A58",
" [ c #599459",
" { c #5A925A",
" } c #539653",
" | c #508E50",
".  c #4A8A4A",
".. c #458E45",
".X c #448E44",
".o c #448C44",
".O c #438643",
".+ c #3F8A3F",
".@ c #368236",
".# c #357E35",
".$ c #357C35",
".% c #2F7C2F",
".& c #FDFDFD",
".* c #2C7C2C",
".= c #2B7C2B",
".- c #FBFBFB",
".; c #FAFBFA",
".: c #267A26",
".> c #F7F7F7",
"., c #F6F7F6",
".< c #257825",
".1 c #F5F7F5",
".2 c #F5F5F5",
".3 c #F3F3F3",
".4 c #F1F1F1",
".5 c #1F741F",
".6 c #EFEFEF",
".7 c #EBEFEB",
".8 c #1A701A",
".9 c #EBEDEB",
".0 c #197019",
".q c #146E14",
".w c #E5E9E5",
".e c #E2EDE2",
".r c #106A10",
".t c #D7E7D7",
".y c #DDDDDD",
".u c #D9E3D9",
".i c #D7D7D7",
".p c #CEDFCE",
".a c #CCDFCC",
".s c #CADDCA",
".d c #C9DDC9",
".f c #C6DBC6",
".g c #CBD1CB",
".h c #CBCFCB",
".j c #C4D9C4",
".k c #337F32",
".l c #BFD5BF",
".z c #BED5BE",
".x c #C3CBC3",
".c c #BBD3BB",
".v c #B9D1B9",
".b c #B6CFB6",
".n c #72AA73",
".m c #B2CBB2",
".M c None",
/* pixels */
" N N N N X.7.3.4.9.6.w O P I U  ",
" N ~ ~ ^.t a % l.e i G m c } 5  ",
" N 0 - : n.;.& ! ( d., Z t.* 7  ",
" V ^ : E.a.- f ` '.1 g.z.=.:.o  ",
" C $ ] 1.s a.l. .O +.>.c.< z 8  ",
" A.n 2 4.d.- / 9 r * j.v.5.8 w  ",
" S ) 4 6.f . _ q.$ [ o.b.0.q.@  ",
" F & 6...j R | p h.# W K.q.r.k  ",
" H =.X.+ B v.p > { M.u.m T b u  ",
" J Y ; < e k.> Q @.2 x D y.% s  ",
" L P I U # 3.y.g.x.i.h ,        "
};
