/* XPM */
const char *icon_famfamfam_flags_ni[] = {
/* width height ncolors chars_per_pixel */
"16 11 147 2",
/* colors */
"   c #59A9F9",
" . c #0059FB",
" X c #58A9F8",
" o c #82BEF3",
" O c #7CBBF7",
" + c #0009E1",
" @ c #005FE7",
" # c #61AEFA",
" $ c #4099F4",
" % c #3A96F8",
" & c #55A7F8",
" * c #54A7F7",
" = c #F9EC94",
" - c #6AB3FC",
" ; c #6EB2F6",
" : c #0019E7",
" > c #85C0FC",
" , c #FBF099",
" < c #A0CFFC",
" 1 c #7FBAF6",
" 2 c #2A8DF5",
" 3 c #4AA0FA",
" 4 c #0000DD",
" 5 c #6AB0F5",
" 6 c #3E99F8",
" 7 c #0033ED",
" 8 c #F4F5F5",
" 9 c #002BED",
" 0 c #429CF5",
" q c #62AFFA",
" w c #4BA1F7",
" e c #6BB2FC",
" r c #0057DF",
" t c #0043F3",
" y c #7FBEFF",
" u c #FEFEFE",
" i c #FDFCFD",
" p c #1F87F3",
" a c #FCFCFC",
" s c #FBFCFB",
" d c #FAFAFA",
" f c #EEE281",
" g c #80BDF9",
" h c #F6F6F6",
" j c #3493F7",
" k c #3393F6",
" l c #0055F9",
" z c #F4F4F4",
" x c #0051F9",
" c c #F2F2F2",
" v c #4FA2F7",
" b c #0005DF",
" n c #489FFA",
" m c #8BC4FD",
" M c #0071FF",
" N c #459DFA",
" B c #006BFF",
" V c #64B0FE",
" C c #0067FF",
" Z c #ADC3B1",
" A c #88C2FD",
" S c #3896F7",
" D c #0013E5",
" F c #75BAFE",
" G c #90C7FE",
" H c #7AB5E5",
" J c #61AEFE",
" K c #6AAEF3",
" L c #2F97FB",
" P c #56A7FD",
" I c #71B8FD",
" U c #76B7F8",
" Y c #0029EB",
" T c #0025EB",
" R c #5EACFE",
" E c #72B5F7",
" W c #2589F4",
" Q c #003DF1",
" ! c #5AAAFD",
" ~ c #63AAF2",
" ^ c #7DB6E7",
" / c #5DABF9",
" ( c #7DBEFE",
" ) c #004FF7",
" _ c #004DF7",
" ` c #CE9177",
" ' c #0005DD",
" ] c #8EC6FE",
" [ c #66B2FB",
" { c #8BC4FB",
" } c #3F9AF9",
" | c #EBE07F",
".  c #127EF1",
".. c #7FBCEF",
".X c #F8EC8F",
".o c #6EB5FC",
".O c #0069FD",
".+ c #0065FD",
".@ c #88C2FB",
".# c #0061FD",
".$ c #005DFD",
".% c #000DE3",
".& c #3594F2",
".* c #2F91F6",
".= c #439DF9",
".- c #359BFF",
".; c #7FBFFF",
".: c #84C0FA",
".> c #5EACF9",
"., c #1681F1",
".< c #3292F2",
".1 c #4CA2FB",
".2 c #F7E98A",
".3 c #F6E989",
".4 c #479EF6",
".5 c #001FE9",
".6 c #FDFDFD",
".7 c #FBFBFB",
".8 c #7BBDFE",
".9 c #F7F7F7",
".0 c #F5F5F5",
".q c #F3F3F3",
".w c #7AB6F3",
".e c #0000DF",
".r c #71B3F4",
".t c #1B84F2",
".y c #E7E7E7",
".u c #0037EF",
".i c #E5E5E5",
".p c #78BBFE",
".a c #3795F3",
".s c #E3E3E3",
".d c #51A5FC",
".f c #3691F2",
".g c #FAED93",
".h c #6EB1F4",
".j c #A4D2FE",
".k c #7ABAF9",
".l c #004FF5",
".z c #0049F5",
".x c #F4E286",
".c c #3B98F3",
".v c #50A4F7",
".b c #F6E48B",
".n c #65B0FB",
".m c #66ADF2",
".M c None",
/* pixels */
" M B B B.O.+.#.$ . l ).z t Q.u.u",
" B.;.; (.8.p F I.o -.n # / X * Y",
" C y V J R ! P.d.1 n.= 6 S k v.5",
".-.j G ] m A > o...k U E ; 5 1 @",
".6 u u.6 i a ,.b.x.X.9 h.0 z.0.y",
".6 u.6 a a.7.g Z `.2 h.0 z.q 8.i",
".6.6 a s.7 d = f |.3.0 z.q c z.s",
" L < {.@.: g O ^ H.r.h K.m ~.w r",
" x e 3 N } % j.* 2 W p.t.,. .f.e",
" _ [ q.>   &.v w.4 0 $.c.a.&.< 4",
".l t Q.u 7 9 T.5 : D.% + b 4 4 '"
};
