/* XPM */
const char *icon_famfamfam_flags_np[] = {
/* width height ncolors chars_per_pixel */
"9 11 67 1",
/* colors */
"  c #1C2AB7",
". c #2E25AB",
"X c #AB0000",
"o c #D00000",
"O c #F9DDDD",
"+ c #3229C9",
"@ c #0B1149",
"# c #161236",
"$ c #FCF0F0",
"% c #1E1855",
"& c #131D7F",
"* c #DE0000",
"= c #EA8282",
"- c #3027B9",
"; c #C70000",
": c #0A1044",
"> c #F9DCDC",
", c #B30000",
"< c #EC0000",
"1 c #FBEBEB",
"2 c #060936",
"3 c #D80000",
"4 c #C10000",
"5 c #2C44B4",
"6 c #FAE6E6",
"7 c #111B75",
"8 c #F9DBDB",
"9 c #FBEAEA",
"0 c #DF4B4B",
"q c #E76D6D",
"w c #1D2DC9",
"e c #DD0000",
"r c #271F83",
"t c #0E165D",
"y c #121C78",
"u c #EC8888",
"i c #070B38",
"p c #F9E0E0",
"a c #0A0F3E",
"s c #F6D3D3",
"d c #2A2299",
"f c #1D2D96",
"g c #1A249D",
"h c #FAE4E4",
"j c #F2AEAE",
"k c #3329C6",
"l c #080C38",
"z c #070A37",
"x c #221C6C",
"c c #F9DFDF",
"v c #1F30D6",
"b c #090E3C",
"n c #FFFFFF",
"m c #111A72",
"M c #E45757",
"N c #F00000",
"B c #E70101",
"V c #DC0000",
"C c #181E7F",
"Z c #E45D5D",
"A c #0B1047",
"S c #E35252",
"D c #EA7D7D",
"F c #080D3A",
"G c #C20000",
"H c #1A153E",
"J c None",
/* pixels */
"+vvJJJJJJ",
"kNBwJJJJJ",
"-<hs JJJJ",
".$O86gJJJ",
"dj19eoCJJ",
"r*V5f&ymJ",
"x3u=7JJJJ",
"%Dpc0tJJJ",
"Hq>8Z,AJJ",
"#;MSG4XFJ",
"@:abFliz2"
};
