/* XPM */
const char *icon_famfamfam_flags_nr[] = {
/* width height ncolors chars_per_pixel */
"16 11 158 2",
/* colors */
"   c #000000",
" . c #5078A1",
" X c #4C749D",
" o c #28588A",
" O c #E7CD72",
" + c #000003",
" @ c #376392",
" # c #366391",
" $ c #ECD684",
" % c #597FA6",
" & c #E8CF76",
" * c #5379A0",
" = c #3C6690",
" - c #E2C970",
" ; c #6588AB",
" : c #7B99BA",
" > c #7A99B9",
" , c #436E9A",
" < c #E9D17A",
" 1 c #416C98",
" 2 c #DEC158",
" 3 c #3B6692",
" 4 c #000955",
" 5 c #4D759D",
" 6 c #93ABC4",
" 7 c #6084A9",
" 8 c #00004B",
" 9 c #466F96",
" 0 c #7091B2",
" q c #14487C",
" w c #4E77A1",
" e c #215182",
" r c #DFB51D",
" t c #366290",
" y c #000023",
" u c #5F84AB",
" i c #466F99",
" p c #001D5B",
" a c #567CA2",
" s c #698BAE",
" d c #225386",
" f c #356292",
" g c #6587AA",
" h c #406B96",
" j c #4F769E",
" k c #6185A9",
" l c #8FA8BF",
" z c #2D5C8D",
" x c #000001",
" c c #6085AB",
" v c #4A729C",
" b c #48709A",
" n c #315D8A",
" m c #13477D",
" M c #10457A",
" N c #7E9DBB",
" B c #00002F",
" V c #6284A6",
" C c #46709B",
" Z c #00001B",
" A c #5B81A9",
" S c #2D5B89",
" D c #B8C7D6",
" F c #557BA3",
" G c #000007",
" H c #5279A0",
" J c #326191",
" K c #6284A9",
" L c #F1DD9A",
" P c #000035",
" I c #3B6693",
" U c #000021",
" Y c #E8D17D",
" T c #5C80A6",
" R c #00000D",
" E c #6E8FB1",
" W c #6D8FB0",
" Q c #000D59",
" ! c #7E9CBA",
" ~ c #E8D380",
" ^ c #426B96",
" / c #00003B",
" ( c #000027",
" ) c #7796B6",
" _ c #305E8E",
" ` c #456F9C",
" ' c #00195F",
" ] c #000013",
" [ c #00155F",
" { c #00135F",
" } c #547AA4",
" | c #E6CB6D",
".  c #3A6591",
".. c #7E9BB6",
".X c #6387AC",
".o c #184B80",
".O c #2A5A8B",
".+ c #000041",
".@ c #285889",
".# c #3B6795",
".$ c #245485",
".% c #00002D",
".& c #35638F",
".* c #4B749E",
".= c #47709A",
".- c #467099",
".; c #000019",
".: c #577DA3",
".> c #547BA0",
"., c #53799F",
".< c #1E5082",
".1 c #000551",
".2 c #000351",
".3 c #325F8F",
".4 c #315F8E",
".5 c #BB8100",
".6 c #5E82A3",
".7 c #000047",
".8 c #FBFBFB",
".9 c #285785",
".0 c #3E6894",
".q c #3D6893",
".w c #000033",
".e c #DBE3EC",
".r c #E0C35C",
".t c #5A7EA2",
".y c #E4E8EE",
".u c #3C6895",
".i c #376490",
".p c #36628F",
".a c #34608D",
".s c #33608C",
".d c #5D82A8",
".f c #00004D",
".g c #E1C560",
".h c #000039",
".j c #6A8BAE",
".k c #7C9AB9",
".l c #4A739F",
".z c #E3C765",
".x c #1C4D7F",
".c c #305E8C",
".v c #7694B3",
".b c #426D97",
".n c #587EA6",
".m c #00135D",
".M c #6587AC",
".N c #E4C969",
".B c #1D4F83",
".V c #194B7F",
".C c #7494B4",
".Z c #7394B3",
".A c #2D5C8C",
".S c #2A5A89",
".D c #406B98",
".F c #00003F",
".G c #265685",
".H c None",
/* pixels */
" ' [ [ [.m Q 4.2 8.7.+ / P B ( y",
" [ N N.k > ).C 0 W s ; 7 T.: H.;",
" [ !.X c.d % F ..* C 1.u #.4 5 ]",
" { : u A.n } w.l `.D.# f _.O b R",
" p.. V.6.t., X.=.b.q.i.s S.9 9 +",
" r L $ ~ Y < & O |.N.z.g.r 2 -.5",
".1.Z a l.>.- h 3.&.c.S.G e.x =  ",
".f E 6.8.e , @ J z o d.B.o m t  ",
".7.j K.y D I.3.A.@.$.<.V q M.a  ",
".F.M k.v g * j v i ^.0. .p.a n  ",
".h.w.% ( U Z ] R G x            "
};
