/* XPM */
const char *icon_famfamfam_flags_nu[] = {
/* width height ncolors chars_per_pixel */
"16 11 149 2",
/* colors */
"   c #FEC0BE",
" . c #EBE241",
" X c #EDD54D",
" o c #ECD54C",
" O c #F3EF56",
" + c #FCD0D3",
" @ c #E6DC3C",
" # c #FDCB60",
" $ c #FBF961",
" % c #EEE647",
" & c #F5F35B",
" * c #837AC9",
" = c #7373D7",
" - c #FD827E",
" ; c #E6CA3F",
" : c #F0D956",
" > c #EFD955",
" , c #EBE447",
" < c #FDF352",
" 1 c #7F8BE9",
" 2 c #6E64B4",
" 3 c #E8CE44",
" 4 c #EFEA4E",
" 5 c #E6575A",
" 6 c #EFE64E",
" 7 c #D5DFFB",
" 8 c #5F7DF1",
" 9 c #F8F45A",
" 0 c #F6F258",
" q c #EAE13F",
" w c #FBF860",
" e c #FEABA9",
" r c #ED5F67",
" t c #DFC134",
" y c #F6E25B",
" u c #8383DF",
" i c #F2EB4D",
" p c #FBB4B3",
" a c #5656CA",
" s c #EEE749",
" d c #EFD654",
" f c #8294EB",
" g c #6F77DF",
" h c #E9E144",
" j c #E8E143",
" k c #DFC337",
" l c #F0A2A8",
" z c #3631B1",
" x c #6771D7",
" c c #7F85DE",
" v c #EEE94C",
" b c #FCDF71",
" n c #9DA9EE",
" m c #F6F157",
" M c #EAE03E",
" N c #EBD349",
" B c #FEE880",
" V c #EFD750",
" C c #ECE443",
" Z c #FFD8D7",
" A c #F4F158",
" S c #FD776F",
" D c #FBDA69",
" F c #DFC033",
" G c #F4EB58",
" H c #DED1E8",
" J c #FEEA83",
" K c #E6DC3D",
" L c #F4DF58",
" P c #FE9694",
" I c #EDE647",
" U c #E4C83B",
" Y c #DFC236",
" T c #E7E041",
" R c #6576D4",
" E c #F2EC4F",
" W c #E5E1F5",
" Q c #F0EA4D",
" ! c #F3DB5A",
" ~ c #EEE84B",
" ^ c #ECE649",
" / c #F94D43",
" ( c #F5F055",
" ) c #E9DF3C",
" _ c #F3EE53",
" ` c #F1EC51",
" ' c #EFEA4F",
" ] c #F5504C",
" [ c #FD958F",
" { c #F8F45B",
" } c #EFD64F",
" | c #F4F057",
".  c #F2DC55",
".. c #DF5957",
".X c #F8F65E",
".o c #E6E249",
".O c #DFC135",
".+ c #E7DF40",
".@ c #FEA4A0",
".# c #908BD9",
".$ c #E8CD41",
".% c #D9E2FC",
".& c #ECE548",
".* c #F6F155",
".= c #F4EF53",
".- c #EAD146",
".; c #EEE94D",
".: c #D6D3F2",
".> c #EAD349",
"., c #F1E953",
".< c #BDCAF7",
".1 c #F0D952",
".2 c #ECE444",
".3 c #F6F35B",
".4 c #F2EF57",
".5 c #E7DE3F",
".6 c #7184F5",
".7 c #E6CA3E",
".8 c #FD5345",
".9 c #E4C83C",
".0 c #EBE446",
".q c #F1494D",
".w c #F2EC50",
".e c #E8CE43",
".r c #F3DB5B",
".t c #EFEA4D",
".y c #EEE84C",
".u c #FDC6C5",
".i c #ECE64A",
".p c #FED369",
".a c #E8D046",
".s c #F9F65D",
".d c #F5F259",
".f c #5775EB",
".g c #FCFA63",
".h c #EFE749",
".j c #E1C538",
".k c #E9E143",
".l c #FEFA7C",
".z c #FBD3D6",
".x c #E7DF41",
".c c #E25C68",
".v c #E8CD42",
".b c #EDE74A",
".n c #EF959C",
".m c #F2ED52",
".M c #C7B5DE",
".N c #F0EB50",
".B c None",
/* pixels */
" = S u 1.8 g x / z > y L. .1 V X",
" 8.% Z W.l.:.u.<.6.4.s 9 0 (.m.>",
" r.z J e.p [ b l.c G O.m '.;.w.a",
".q + B P # - D.n 5.,.m '.;.i Q 3",
".f 7   H <.M p n R.o 4 v ^ , s.v",
" a.@.# f ] c *.. 2 6 v ^.0 h I ;",
".r.g.X &.d | _ `.t.y ^.0.k T C.9",
" ! $.3.d | _.N 4 ~.&.0.k.+.5 . k",
" : w A | _.N.t.b.& j.x.5 K @ M Y",
" :.s { m.*.= E i.h %.2 . q M ) t",
" d. .1 } o N.-.e.$.7 U.j Y.O t F"
};
