/* XPM */
const char *icon_famfamfam_flags_nz[] = {
/* width height ncolors chars_per_pixel */
"16 11 164 2",
/* colors */
"   c #000000",
" . c #3F54A1",
" X c #C37181",
" o c #8F5F86",
" O c #651F53",
" + c #374C99",
" @ c #000017",
" # c #495DA4",
" $ c #E0D4DF",
" % c #2D176B",
" & c #53539A",
" * c #000003",
" = c #000059",
" - c #243B90",
" ; c #000045",
" : c #4457A2",
" > c #2F4494",
" , c #92769C",
" < c #85173D",
" 1 c #00001D",
" 2 c #1F378E",
" 3 c #6171B1",
" 4 c #AE5265",
" 5 c #000009",
" 6 c #887CA9",
" 7 c #2C4294",
" 8 c #00005F",
" 9 c #945D80",
" 0 c #3B4F9C",
" q c #394D9A",
" w c #4B5EA5",
" e c #5D6FB0",
" r c #19318B",
" t c #18318A",
" y c #4B559B",
" u c #98799E",
" i c #3A4F9E",
" p c #000023",
" a c #8E597D",
" s c #F1A8A6",
" d c #334797",
" f c #00000F",
" g c #895378",
" h c #AF5F79",
" j c #D58991",
" k c #7B6395",
" l c #D76E72",
" z c #5365A9",
" x c #6B6199",
" c c #F1ACA9",
" v c #233A91",
" b c #000051",
" n c #00003D",
" m c #4458A4",
" M c #4256A2",
" N c #5D235D",
" B c #2C4193",
" V c #EB8582",
" C c #000029",
" Z c #6172B3",
" A c #000015",
" S c #E17778",
" D c #E57472",
" F c #2C4396",
" G c #2B4195",
" H c #000001",
" J c #E08284",
" K c #B1596D",
" L c #E3C4CC",
" P c #939CC6",
" I c #753D6A",
" U c #7F2349",
" Y c #586AAD",
" T c #E46B6A",
" R c #243B91",
" E c #6575B3",
" W c #344A9A",
" Q c #4559A4",
" ! c #000007",
" ~ c #00005D",
" ^ c #5062A8",
" / c #9787AF",
" ( c #1E358E",
" ) c #C3606A",
" _ c #7F153B",
" ` c #88567F",
" ' c #6A7AB7",
" ] c #00004F",
" [ c #495EA7",
" { c #606EAD",
" } c #A47B9A",
" | c #CF1919",
".  c #102986",
".. c #D9B2BA",
".X c #E4C0C8",
".o c #1F368E",
".O c #2F4597",
".+ c #E6CFD7",
".@ c #4054A1",
".# c #3B509C",
".$ c #000055",
".% c #C18395",
".& c #4F61A9",
".* c #4E61A8",
".= c #293F94",
".- c #804D76",
".; c #00002D",
".: c #A87390",
".> c #6264A1",
"., c #E97C7A",
".< c #374C9B",
".1 c #000019",
".2 c #354A99",
".3 c #142E89",
".4 c #42559F",
".5 c #A8485B",
".6 c #5466AA",
".7 c #C38293",
".8 c #344A9B",
".9 c #000047",
".0 c #D8BAC5",
".q c #000033",
".w c #4055A0",
".e c #435299",
".r c #3D519D",
".t c #00001F",
".y c #E79495",
".u c #C86670",
".i c #485AA1",
".p c #00000B",
".a c #E2B8BE",
".s c #2A4094",
".d c #000061",
".f c #6A7AB5",
".g c #3C519F",
".h c #805E8C",
".j c #3A4F9D",
".k c #9A9CC3",
".l c #00004D",
".z c #364B99",
".x c #D8AAB4",
".c c #79426E",
".v c #465AA2",
".b c #B66275",
".n c #000039",
".m c #D8A1AA",
".M c #E28789",
".N c #816290",
".B c #6E3663",
".V c #253C92",
".C c #000025",
".Z c #6676B4",
".A c #46468E",
".S c #000011",
".D c #000067",
".F c #916185",
".G c #B94650",
".H c #000053",
".J c #4B5BA3",
".K c #00003F",
".L c #2F4598",
".P c #2E4597",
".I c #6F7FB9",
".U c None",
/* pixels */
" X k.D _ <.$ O h 8.$ b.l ;.K.n n",
" %.X $.x.m.0.+.k.f E 3 } { z.* C",
" |.y V D T., S l.J M o.u 9 7 #.C",
" U.a s J.M c j.: :.g.< ` F g.i.t",
" x L /.%.7 P.. u.g.b y G.- 4.F.1",
" N 6 &.N.h.A.> , + ) K.V 2.c.# A",
".d.I.& [ Q.w 0.2.L.s -.o r.3.z f",
" ~ ' [ Q.@ i.8.O.s R.o r I.  d 5",
" =.Z m ..j W.P.= v ( t.5.G.B > *",
" ] Z e Y.6 ^ w.v.4.r q.e a > B  ",
".H.9.K.n.q.; C p 1 @.S.p ! * H.p"
};
