/* XPM */
const char *icon_famfamfam_flags_om[] = {
/* width height ncolors chars_per_pixel */
"16 11 135 2",
/* colors */
"   c #BF0000",
" . c #DB5D5D",
" X c #FCF7F7",
" o c #D43F3F",
" O c #D03B3B",
" + c #DD6162",
" @ c #CB1F1F",
" # c #CF3030",
" $ c #CA1414",
" % c #B90000",
" & c #D13F3F",
" * c #FCF0F0",
" = c #A50000",
" - c #D23636",
" ; c #18A219",
" : c #FDFDFE",
" > c #D84949",
" , c #910000",
" < c #DA5858",
" 1 c #D33A3A",
" 2 c #46B546",
" 3 c #D74B4B",
" 4 c #42B342",
" 5 c #E16F6F",
" 6 c #3DB13D",
" 7 c #3AB33A",
" 8 c #CE2B2B",
" 9 c #D64040",
" 0 c #39AF39",
" q c #F2BEBE",
" w c #32AB32",
" e c #9F0000",
" r c #2FAD2F",
" t c #2EAD2E",
" y c #2FA92F",
" u c #2CA92C",
" i c #2AAB2A",
" p c #1FA51F",
" a c #1EA51E",
" s c #19A319",
" d c #CA2020",
" f c #FEFEFE",
" g c #E37777",
" h c #FCFCFC",
" j c #14A114",
" k c #FAFAFA",
" l c #D64646",
" z c #F8F8F8",
" x c #F6F6F6",
" c c #D12A2A",
" v c #E06A6A",
" b c #AD0000",
" n c #D84A4B",
" m c #33AC32",
" M c #CD1F1F",
" N c #FDF9F9",
" B c #005500",
" V c #DB5454",
" C c #004F00",
" Z c #004B00",
" A c #004100",
" S c #003F00",
" D c #003D00",
" F c #E37676",
" G c #930000",
" H c #003700",
" J c #003300",
" K c #D64545",
" L c #F9E1E1",
" P c #003100",
" I c #002D00",
" U c #DC5858",
" Y c #0F9E0E",
" T c #D13636",
" R c #D84040",
" E c #B50000",
" W c #DA4F4F",
" Q c #EFEFF1",
" ! c #C91A1A",
" ~ c #CD2B2B",
" ^ c #DB5353",
" / c #D43535",
" ( c #D64444",
" ) c #D63B3A",
" _ c #DE6666",
" ` c #D84A49",
" ' c #50BA50",
" ] c #D43B3B",
" [ c #F7D7D7",
" { c #4BB84B",
" } c #BD0000",
" | c #D53F3F",
".  c #D23B3C",
".. c #34B034",
".X c #35AE35",
".o c #A90000",
".O c #E27273",
".+ c #D03030",
".@ c #29AA29",
".# c #24A824",
".$ c #D44141",
".% c #EEB0B0",
".& c #23A823",
".* c #FDFDFD",
".= c #FBFBFB",
".- c #13A013",
".; c #F9F9F9",
".: c #109E10",
".> c #F7F7F7",
"., c #F5F5F5",
".< c #0B9C0B",
".1 c #D85455",
".2 c #CC2525",
".3 c #EFEFEF",
".4 c #A30000",
".5 c #EDEDED",
".6 c #EBEBEB",
".7 c #E9E9E9",
".8 c #D32F2F",
".9 c #E7E7E7",
".0 c #E5E5E5",
".q c #E3E3E3",
".w c #E1E1E1",
".e c #DFDFDF",
".r c #DA4F50",
".t c #DDDDDD",
".y c #D9D9D9",
".u c #FEFAFA",
".i c #D7D7D7",
".p c #B10000",
".a c #CF2424",
".s c #D74646",
".d c #DD5959",
".f c #CB1919",
".g c None",
/* pixels */
"           Q.3.5.5.6.7.9.0.q.w.e",
"   * q X g f :.* h h.= k.; z.>.t",
"   L.u [.d.*.* h.= k.; z.> x.>.y",
"   X.% N V.* h.= k.; z.> x., x.i",
"   F U V.r 3 l.$.  T # ~.2 d & ,",
" }.O ^ W n.s 9 ] -.+ 8.2 @ ! O ,",
" % 5 W ` K R ) /.8 c.a M.f $ T G",
" E v > K | 7.. r i.# p s j.: m J",
" E _ ( o 1.. t.@.& a ;.- Y.< y P",
".p + . <.1 ' { 2 4 6 0.X w y u I",
" b.o =.4 e B C Z A S D H J P I I"
};
