/* XPM */
const char *icon_famfamfam_flags_pa[] = {
/* width height ncolors chars_per_pixel */
"16 11 132 2",
/* colors */
"   c #7CB3F7",
" . c #549DF4",
" X c #F2D3D3",
" o c #84B8F8",
" O c #ED6868",
" + c #5DA2F6",
" @ c #7AB3F8",
" # c #EF4949",
" $ c #EE3131",
" % c #78B1F6",
" & c #E10000",
" * c #F24242",
" = c #80B6F7",
" - c #59A0F5",
" ; c #FDFDFE",
" : c #0045ED",
" > c #62A5F7",
" , c #7FB6F9",
" < c #E94949",
" 1 c #F07474",
" 2 c #ED2C2C",
" 3 c #DB0000",
" 4 c #5EA3F6",
" 5 c #005BF3",
" 6 c #CFCDCD",
" 7 c #F17878",
" 8 c #EE8C8C",
" 9 c #6FABF6",
" 0 c #67A8F8",
" q c #E90000",
" w c #FEFEFE",
" e c #FDFCFD",
" r c #FCFCFC",
" t c #D50000",
" y c #FAFAFA",
" u c #001DDF",
" i c #F6F6F6",
" p c #F4F4F4",
" a c #F2F2F2",
" s c #F77070",
" d c #ED2B2B",
" f c #F13C3C",
" g c #EE7E7E",
" h c #0031E5",
" j c #E30000",
" k c #1B7FF5",
" l c #4592F0",
" z c #E92020",
" x c #4F99F3",
" c c #B2D3FB",
" v c #EC2626",
" b c #003FEB",
" n c #EF3736",
" m c #F27D7E",
" M c #EBF3FE",
" N c #DD0000",
" B c #0055F1",
" V c #EFEFF1",
" C c #004FF1",
" Z c #549CF4",
" A c #ED4444",
" S c #91C0FB",
" D c #E5F1FE",
" F c #E3EFFC",
" G c #ED3030",
" H c #EB0000",
" J c #D70000",
" K c #F1CBCB",
" L c #0017DD",
" P c #599FF5",
" I c #EC3F3F",
" U c #6AA9F5",
" Y c #E83231",
" T c #002BE3",
" R c #73AEF7",
" E c #78ADF2",
" W c #EC2B2B",
" Q c #D10000",
" ! c #F13C3D",
" ~ c #F56565",
" ^ c #BEDAFB",
" / c #F2D5D5",
" ( c #F44F50",
" ) c #83B8F9",
" _ c #EDF5FE",
" ` c #0037E9",
" ' c #77B1F7",
" ] c #F35C5C",
" [ c #FFFFFF",
" { c #DF0000",
" } c #FDFDFD",
" | c #FBFBFB",
".  c #F7F7F7",
".. c #EF3737",
".X c #F5F5F5",
".o c #F3F3F3",
".O c #5EA1F2",
".+ c #F46060",
".@ c #F1F1F1",
".# c #EFEFEF",
".$ c #004BEF",
".% c #EDEDED",
".& c #4995F1",
".* c #F13B3C",
".= c #F15353",
".- c #87BBF9",
".; c #66A6F3",
".: c #F24A4A",
".> c #ED0000",
"., c #539CF4",
".< c #F25757",
".1 c #D7D7D7",
".2 c #85B9FA",
".3 c #D3D3D3",
".4 c #62A4F2",
".5 c #EFC7C7",
".6 c #D1D1D1",
".7 c #CFCFCF",
".8 c #CBCBCB",
".9 c #EE6D6D",
".0 c #EB2525",
".q c #ED8383",
".w c #F04E4E",
".e c #EF3636",
".r c #9DC8FA",
".t c #589FF5",
".y c #E70000",
".u c #0025E1",
".i c #EF7171",
".p c #4C96F3",
".a c #4A96F1",
".s c None",
/* pixels */
".@.@.@.@.@ V.#.%.> H q.y j & { N",
".@ [ [ _ M w ; } s ~.+ ].<.=.w 3",
".@ [ D S.2 F } r ( * !.. $ 2 # J",
".@ w w ^ c } r |.: f n $ d v A t",
".@ w w } e r | y.*.e G W.0 z I Q",
" k.r.- o =   % E m 7 1.i.9 O g t",
" 5 ) 0 > 4 - . x.  i.X p.o a p.6",
" B , > + P Z.p.a i.X p 8.q a.o.7",
" C @ +.t., x.& l.X p K < Y.5 a.8",
".$ ' R 9 U.;.4.O i.X p / X a a.8",
" : b ` h T.u u L.1.3.6.7 6.8.8.8"
};
