/* XPM */
const char *icon_famfamfam_flags_pf[] = {
/* width height ncolors chars_per_pixel */
"16 11 134 2",
/* colors */
"   c #D82929",
" . c #BF0000",
" X c #E05455",
" o c #DF3C3D",
" O c #DE4949",
" + c #E86D6D",
" @ c #EFEE8A",
" # c #DD4B4B",
" $ c #E04444",
" % c #CD0000",
" & c #DD3737",
" * c #A50000",
" = c #93B6CE",
" - c #EBE9E9",
" ; c #DB4242",
" : c #F4F5F5",
" > c #EC7B7A",
" , c #EB7979",
" < c #E24C4C",
" 1 c #D31919",
" 2 c #9FB1BF",
" 3 c #C70000",
" 4 c #DF3F3F",
" 5 c #B30000",
" 6 c #EED47B",
" 7 c #E89B51",
" 8 c #9F0000",
" 9 c #D72323",
" 0 c #FEFEFE",
" q c #E14747",
" w c #D06961",
" e c #E5EFEC",
" r c #FDFCFD",
" t c #FCFCFC",
" y c #FBFCFB",
" u c #FAFAFA",
" i c #EFE282",
" p c #F8F8F8",
" a c #D32C2C",
" s c #F6F6F6",
" d c #C10000",
" f c #F4F4F4",
" g c #F2F2F2",
" h c #AD0000",
" j c #990000",
" k c #E65C5C",
" l c #E8E8E8",
" z c #E25858",
" x c #E66969",
" c c #E35C5C",
" v c #CF0000",
" b c #E04242",
" n c #E36848",
" m c #BB0000",
" M c #D00F0E",
" N c #BD9182",
" B c #A70000",
" V c #CADDEB",
" C c #F7F7DF",
" Z c #E46060",
" A c #FEFDFD",
" S c #E8DE59",
" D c #D21313",
" F c #F6F5F5",
" G c #E15353",
" H c #E76666",
" J c #D42F2F",
" K c #90B4CC",
" L c #C90000",
" P c #E25757",
" I c #EFED70",
" U c #D1E2EE",
" Y c #B50000",
" T c #E75F5F",
" R c #DA2E2E",
" E c #EBDA62",
" W c #D83939",
" Q c #E25D5D",
" ! c #D70000",
" ~ c #968296",
" ^ c #D93D3D",
" / c #E46162",
" ( c #9B0000",
" ) c #E97474",
" _ c #DD3A3A",
" ` c #D53232",
" ' c #D10000",
" ] c #F9F9C8",
" [ c #E45151",
" { c #CF0B0B",
" } c #A90000",
" | c #EBE964",
".  c #D51E1E",
".. c #DB3131",
".X c #F3F39A",
".o c #FDFDFD",
".O c #FBFBFB",
".+ c #D62F2F",
".@ c #E65959",
".# c #F9F9F9",
".$ c #CB0000",
".% c #F7F7F7",
".& c #F5F5F5",
".* c #92AFC2",
".= c #B70000",
".- c #F3F3F3",
".; c #A30000",
".: c #EA7777",
".> c #DD4646",
"., c #E9E9E9",
".< c #DA2C2C",
".1 c #E7E7E7",
".2 c #E5E5E5",
".3 c #E3E3E3",
".4 c #EB7B7B",
".5 c #DFDFDF",
".6 c #D63535",
".7 c #C50000",
".8 c #E55454",
".9 c #B10000",
".0 c #ECF5F2",
".q c #DF4E4E",
".w c #DC3434",
".e c #9D0000",
".r c #FCFCD0",
".t c #99869A",
".y c #FDFCFC",
".u c #E87071",
".i c #FCFCE7",
".p c #F5F4F4",
".a c #DE5050",
".s c #E66565",
".d c #D30000",
".f c None",
/* pixels */
" !.d.d.d.d ' v %.$ L.7.7 d . m m",
".d.4.4 ,.: ).u + x.s Z c P G.q 5",
" ' > T k.@.8 [ < q b o &...< O h",
" - 0 0 A.y r.r 6 i ] p.% s.p F.1",
"., 0 0.o r.i I n 7 | C s.& f.&.1",
"., 0.o t t.X E w N S @.& f.- :.2",
".,.o t y.O.0 2.t ~.* e f.- g f.3",
" l t.O.O u.# U = K V f.- g g.-.5",
" 3 H $ 4 _.w R   9.  1 D M {.+ (",
".7 / Q z X.a #.> ; ^ W.6 ` J a j",
" 3 d . m.= Y.9 h } B *.; 8.e ( 8"
};
