/* XPM */
const char *icon_famfamfam_flags_pg[] = {
/* width height ncolors chars_per_pixel */
"16 11 141 2",
/* colors */
"   c #000000",
" . c #B1B1B1",
" X c #F8BC37",
" o c #F62C2C",
" O c #D25151",
" + c #F4B61F",
" @ c #464B4B",
" # c #FC4C4C",
" $ c #F73030",
" % c #F50000",
" & c #6F0000",
" * c #F21414",
" = c #F8DB36",
" - c #F00B0B",
" ; c #797979",
" : c #FB4B47",
" > c #F33232",
" , c #FB4747",
" < c #EF0000",
" 1 c #F62B2B",
" 2 c #CF3636",
" 3 c #FA8642",
" 4 c #F43636",
" 5 c #FC4B4B",
" 6 c #636363",
" 7 c #F9D33D",
" 8 c #F7DA31",
" 9 c #F35959",
" 0 c #FC7365",
" q c #5D5D5D",
" w c #FD0000",
" e c #F74949",
" r c #FE7474",
" t c #E90000",
" y c #4B4B4B",
" u c #494949",
" i c #CD1919",
" p c #982A2A",
" a c #454545",
" s c #BCBDBD",
" d c #6B2F2F",
" f c #3D3D3D",
" g c #5B6161",
" h c #393939",
" j c #353535",
" k c #603B3B",
" l c #F37A19",
" z c #F70000",
" x c #2F2F2F",
" c c #F64444",
" v c #E30000",
" b c #292929",
" n c #F9CA3C",
" m c #F85353",
" M c #232323",
" N c #970F0E",
" B c #F95757",
" V c #F43B3B",
" C c #F10000",
" Z c #DD0000",
" A c #F53F3F",
" S c #FD5454",
" D c #B0B0B0",
" F c #F74E4E",
" G c #FE7979",
" H c #F6BC2B",
" J c #D87B7B",
" K c #211313",
" L c #F6AA2B",
" P c #D82C2C",
" I c #FF0000",
" U c #9C9C9C",
" Y c #9A9A9A",
" T c #795C5C",
" R c #EB0000",
" E c #F21714",
" W c #616162",
" Q c #FD7071",
" ! c #9E5C5C",
" ~ c #909090",
" ^ c #8C8C8C",
" / c #FC6969",
" ( c #7A7A7A",
" ) c #F90000",
" _ c #767676",
" ` c #747474",
" ' c #E50000",
" ] c #FD6D6D",
" [ c #F21010",
" { c #FA8942",
" } c #6A6A6A",
" | c #F41F1F",
".  c #666666",
".. c #F24241",
".X c #5C5C5C",
".o c #585858",
".O c #9B9D9D",
".+ c #F85E36",
".@ c #545454",
".# c #F30000",
".$ c #F3421A",
".% c #505050",
".& c #181919",
".* c #FBAD60",
".= c #F52B26",
".- c #DF0000",
".; c #4C4C4C",
".: c #4B4A4B",
".> c #464646",
"., c #7B7B7A",
".< c #444444",
".1 c #FE7777",
".2 c #424242",
".3 c #FA635C",
".4 c #404040",
".5 c #541F1F",
".6 c #F58425",
".7 c #8D7B7B",
".8 c #343434",
".9 c #F57625",
".0 c #F76931",
".q c #323232",
".w c #392F2F",
".e c #2E2E2E",
".r c #ED0000",
".t c #605F5F",
".y c #2A2A2A",
".u c #242424",
".i c #1E1E1E",
".p c #F49120",
".a c #FD5151",
".s c #C1C1C1",
".d c #FB0000",
".f c #F79030",
".g c #F22F2F",
".h c #E70000",
".j c #9B4646",
".k c #F9693C",
".l c #4D0000",
".z c #F12424",
".x c None",
/* pixels */
".l.h I I w w w w.d ) z %.# C <.r",
"  .7 J G.1 r Q ] / 0.*.3 B m F R",
"  .,.t ! 9 S.a # : 3 7 X.0 o e t",
"   ;.X g T O 5 , { n = 8 L.= c.h",
"   _.o s.O y.j...k.+.f H.9.p A.h",
"   (.s.@.: . @ k 2 $ 1.6 +.$ V '",
"   ` Y.;.> _.4 j.w p.z | l E 4 v",
"   } u a a U.8 x.y.u.5 i * [ >.-",
"  . .< D ^.8.e b M.i.& K N -.g.-",
"   W q ~ 6.% y.>.2 f h j.q d P Z",
"                               &"
};
