/* XPM */
const char *icon_famfamfam_flags_ph[] = {
/* width height ncolors chars_per_pixel */
"16 11 158 2",
/* colors */
"   c #000000",
" . c #2525A2",
" X c #000081",
" o c #FEFED8",
" O c #703082",
" + c #00006D",
" @ c #4141B0",
" # c #000059",
" $ c #FBEAC1",
" % c #F21414",
" & c #7979C9",
" * c #E10000",
" = c #FBFBF9",
" - c #5857B9",
" ; c #F83434",
" : c #F5F5F3",
" > c #F0F0F8",
" , c #000073",
" < c #FEFEF5",
" 1 c #7171C4",
" 2 c #4444AF",
" 3 c #F33232",
" 4 c #5353B7",
" 5 c #2626A2",
" 6 c #EF0000",
" 7 c #6160BE",
" 8 c #FEFEB9",
" 9 c #F43636",
" 0 c #6D6DC3",
" q c #00008D",
" w c #F9958D",
" e c #F72F2F",
" r c #000079",
" t c #F21313",
" y c #20209F",
" u c #F95455",
" i c #3131A9",
" p c #B2B2E2",
" a c #FEFEE7",
" s c #67257B",
" d c #FA8F91",
" f c #6969C2",
" g c #3D3CAE",
" h c #F5F5E8",
" j c #631F77",
" k c #E90000",
" l c #F95858",
" z c #FCFCFC",
" x c #FAFAFA",
" c c #5454B7",
" v c #00007F",
" b c #F62A2A",
" n c #ADAD97",
" m c #4747B4",
" M c #7070C5",
" N c #F72E2E",
" B c #4E4EB4",
" V c #E30000",
" C c #FAFA6B",
" Z c #FBFBE3",
" A c #FEFEDC",
" S c #F22C2C",
" D c #7777C8",
" F c #FAD1CB",
" G c #FCFCF1",
" H c #2C2CA6",
" J c #FDFD53",
" K c #00005D",
" L c #FDFD7E",
" P c #3B3BAE",
" I c #F10000",
" U c #A68D96",
" Y c #F62929",
" T c #DD0000",
" R c #EFEF1A",
" E c #FCFCC9",
" W c #000035",
" Q c #FAAAAD",
" ! c #FAF2F2",
" ~ c #F23232",
" ^ c #6C2B7E",
" / c #000063",
" ( c #4242B1",
" ) c #FBFBEC",
" _ c #EB0000",
" ` c #4949B1",
" ' c #00003B",
" ] c #F52424",
" [ c #3C3CAE",
" { c #00007D",
" } c #4B4BB6",
" | c #7474C7",
".  c #9F9FDA",
".. c #000069",
".X c #F96566",
".o c #FDFCEA",
".O c #F94445",
".+ c #743685",
".@ c #F1F1E8",
".# c #E50000",
".$ c #F64242",
".% c #3636AB",
".& c #000041",
".* c #F21010",
".= c #7777C3",
".- c #F41F1F",
".; c #4241B0",
".: c #F33535",
".> c #3F3FAD",
"., c #F74646",
".< c #D2D2E7",
".1 c #3030A8",
".2 c #F52323",
".3 c #F43939",
".4 c #EDEDD3",
".5 c #F30000",
".6 c #FEFE73",
".7 c #000047",
".8 c #4C4CB6",
".9 c #FFFFFF",
".0 c #DF0000",
".q c #5F1A73",
".w c #F53D3D",
".e c #F10B0B",
".r c #FCFC5D",
".t c #F7F7F7",
".y c #F5F5F5",
".u c #F3F3F3",
".i c #FDFDD5",
".p c #3737AB",
".a c #FBFBD3",
".s c #000075",
".d c #F10F0E",
".f c #F85050",
".g c #F41E1E",
".h c #753B88",
".j c #5151B7",
".k c #FCFC77",
".l c #00004D",
".z c #ED0000",
".x c #F59B49",
".c c #5E5EBD",
".v c #3131A8",
".b c #5C5CBB",
".n c #FBFC8D",
".m c #F7F7E9",
".M c #F83535",
".N c #2B2BA5",
".B c #F74B4B",
".V c #F31919",
".C c #000053",
".Z c #F22F2F",
".A c #6565C0",
".S c #E70000",
".D c #FFFF37",
".F c #FCFCFE",
".G c #4747B3",
".H c None",
/* pixels */
" n q X X v { r.s , +.. / K #.C.l",
".D.4.  & D | M 0 f.A 7.b - 4 B.7",
".m.9.F p.c c.j.8 m ( g.p i H `.&",
".t < A a.< 1 }.G.; [.p.v.N 5 2 '",
".y o.6 L.o >.= @ P.%.1.N . y.> W",
" h 8 J.r E = C U.+ O ^ s j.q.h  ",
" :.i.k.n ) ! w.M e b ].-.V % 9 V",
".u G.a Z F.X ; e b ].-.V %.* 3.0",
".@ z x Q.O ; N Y.2.g.V t.d.e.Z.0",
" R $ d l u.f.B.,.$.w.3.: ~.Z S T",
".x.5 I 6.z.z _ k.S.# V *.0 T T T"
};
