/* XPM */
const char *icon_famfamfam_flags_pk[] = {
/* width height ncolors chars_per_pixel */
"16 11 146 2",
/* colors */
"   c #85C985",
" . c #74C374",
" X c #6DC16D",
" o c #6DB96D",
" O c #62BD62",
" + c #5EBB5E",
" @ c #5EB95E",
" # c #5CB95C",
" $ c #5DB75D",
" % c #5AB95A",
" & c #57AF57",
" * c #53B353",
" = c #50B350",
" - c #50B150",
" ; c #4EB14E",
" : c #4AAD4A",
" > c #46AD46",
" , c #45AD45",
" < c #46AB46",
" 1 c #42A742",
" 2 c #3FA93F",
" 3 c #3DAB3D",
" 4 c #3EA73E",
" 5 c #3DA73D",
" 6 c #3CA73C",
" 7 c #7CC47B",
" 8 c #36A536",
" 9 c #34A534",
" 0 c #2EA32E",
" q c #2F9D2F",
" w c #2C9F2C",
" e c #2A9B2A",
" r c #FEFEFE",
" t c #FCFCFC",
" y c #1A991A",
" u c #FAFAFA",
" i c #F7FCF7",
" p c #159715",
" a c #58B657",
" s c #F5FAF5",
" d c #139313",
" f c #F2F8F2",
" g c #F0F6F0",
" h c #EFF4EF",
" j c #4BB04A",
" k c #EAF2EA",
" l c #008900",
" z c #DCEADC",
" x c #007D00",
" c c #007B00",
" v c #007700",
" b c #007300",
" n c #D5E8D5",
" m c #007100",
" M c #006B00",
" N c #006700",
" B c #D0E4D0",
" V c #006100",
" C c #005B00",
" Z c #2BA02A",
" A c #005700",
" S c #004900",
" D c #004700",
" F c #004500",
" G c #004300",
" H c #003F00",
" J c #003B00",
" K c #003900",
" L c #003500",
" P c #70C371",
" I c #003300",
" U c #002F00",
" Y c #002D00",
" T c #002B00",
" R c #002900",
" E c #6BBF6C",
" W c #002500",
" Q c #002300",
" ! c #002100",
" ~ c #ACD6AC",
" ^ c #A7D6A7",
" / c #A6D4A6",
" ( c #5FB960",
" ) c #EDF5EF",
" _ c #94CC94",
" ` c #92CE92",
" ' c #90CA90",
" ] c #87C687",
" [ c #7FC87F",
" { c #2AA12B",
" } c #69BE69",
" | c #65BE65",
".  c #5CB45C",
".. c #55B655",
".X c #54B654",
".o c #51B451",
".O c #50B450",
".+ c #4BB04B",
".@ c #49AE49",
".# c #46AE46",
".$ c #45AE45",
".% c #44AC44",
".& c #41AC41",
".* c #40AA40",
".= c #3BA83B",
".- c #3AA83A",
".; c #37A637",
".: c #34A434",
".> c #35A235",
"., c #31A431",
".< c #32A232",
".1 c #30A230",
".2 c #2FA02F",
".3 c #2CA22C",
".4 c #269E26",
".5 c #249A24",
".6 c #209A20",
".7 c #FFFFFF",
".8 c #61BB60",
".9 c #1E9A1E",
".0 c #1F981F",
".q c #FDFDFD",
".w c #FBFBFB",
".e c #F4F9F4",
".r c #F3F9F3",
".t c #F1F9F1",
".y c #F1F7F1",
".u c #EFF7EF",
".i c #F0F5F0",
".p c #EFF5EF",
".a c #EDF3ED",
".s c #0B900B",
".d c #EBF3EB",
".f c #E9F1E9",
".g c #E5F3E5",
".h c #E7EFE7",
".j c #E5EDE5",
".k c #E1EFE1",
".l c #E3EBE3",
".z c #DBE7DB",
".x c #33A332",
".c c #BBDFBB",
".v c #ACD7AC",
".b c #A7D3A7",
".n c #A3D3A3",
".m c None",
/* pixels */
".t.t.t.g l x c v b m M N V C A C",
".t.7.7 i [ . P X } |.8 # a * ; S",
".t.7 r s O.X.o.O E.# 3.;.,.3.@ G",
".t r r.e +.o.+.c ^ 5.& ~ :.4.% H",
".t r r.r %.+  .k ( 8 $ n /.6 2 K",
".u r.q f.. < ` k ,.1 {.  4 y.= I",
" ).q t.y =.* 7.i.n e.5.0.9 p 8 U",
".a t.w g j.-.:.v h _ ].b & d.x T",
".d t u.p.$ 9 0 Z ' B z o q.s.2 W",
".f.w u g @ -.+ > 1 2 6.>.<.2 w !",
".h.j.l.z C D F H J L U Y R W Q Y"
};
