/* XPM */
const char *icon_famfamfam_flags_pl[] = {
/* width height ncolors chars_per_pixel */
"16 11 107 2",
/* colors */
"   c #F96060",
" . c #F50000",
" X c #F21414",
" o c #E10000",
" O c #FC6666",
" + c #FA6464",
" @ c #F83434",
" # c #FDFDFE",
" $ c #FB6868",
" % c #F33232",
" & c #FA5D5D",
" * c #EF0000",
" = c #F85B5B",
" - c #FC6C6C",
" ; c #F43636",
" : c #F72F2F",
" > c #FDEDED",
" , c #F21313",
" < c #F95455",
" 1 c #F65252",
" 2 c #FD0000",
" 3 c #E9D9D9",
" 4 c #E90000",
" 5 c #E7D7D7",
" 6 c #F95858",
" 7 c #FEFEFE",
" 8 c #FDFCFD",
" 9 c #FCFCFC",
" 0 c #FAFAFA",
" q c #F8F8F8",
" w c #F6F6F6",
" e c #F4F4F4",
" r c #FE8E8E",
" t c #F62A2A",
" y c #F93B3A",
" u c #F54D4D",
" i c #FB4A49",
" p c #F70000",
" a c #F72E2E",
" s c #E30000",
" d c #FD6F6F",
" f c #F34444",
" g c #F22C2C",
" h c #F44848",
" j c #FB4545",
" k c #F10000",
" l c #F62929",
" z c #DD0000",
" x c #FC6A6A",
" c c #F23232",
" v c #FB6162",
" b c #EB0000",
" n c #FC7070",
" m c #FA4040",
" M c #E7D5D5",
" N c #F52424",
" B c #FC4F4F",
" V c #FDF1F1",
" C c #FDEFF1",
" Z c #FD7474",
" A c #F75657",
" S c #F90000",
" D c #E50000",
" F c #F64242",
" G c #F21010",
" H c #F41F1F",
" J c #F33535",
" K c #F74646",
" L c #FA3F3F",
" P c #F52323",
" I c #F43939",
" U c #F30000",
" Y c #FFFFFF",
" T c #DF0000",
" R c #FDFDFD",
" E c #F53D3D",
" W c #FBFBFB",
" Q c #F10B0B",
" ! c #F9F9F9",
" ~ c #F7F7F7",
" ^ c #F5F5F5",
" / c #F10F0E",
" ( c #F93A3A",
" ) c #F85050",
" _ c #F41E1E",
" ` c #FB4949",
" ' c #ED0000",
" ] c #FFF1F1",
" [ c #FDEFEF",
" { c #FBEDED",
" } c #F9EBEB",
" | c #F7E9E9",
".  c #F5E7E7",
".. c #F3E5E5",
".X c #F1E3E3",
".o c #EFE1E1",
".O c #F83535",
".+ c #F74B4B",
".@ c #EDDFDF",
".# c #FB0000",
".$ c #EBDDDD",
".% c #F31919",
".& c #F45F5F",
".* c #F22F2F",
".= c #FA4444",
".- c #E70000",
".; c None",
/* pixels */
" ] ] ] ] V C [ > { } |. ...X.o.@",
" ] Y Y 7 7 7 # R 9 9 W 0 ! q ~.$",
" ] Y 7 7 7 R R 9 W 0 ! q ~ w ~ 3",
" ] 7 7 7 R R 9 W 0 ! q ~ w ^ w 5",
" V 7 7 R 8 9 W 0 ! q ~ w ^ e ^ M",
" 2 r Z n - $ +   = A 1 u h f.& D",
" 2 d B i j m y.O : t N H.% X ; s",
".# x ` j L ( @ : t N H.% X G % T",
" S O.= L ( @ a l P _.% , / Q.* T",
" p v & 6 < ).+ K F E I J c.* g z",
" . U k * ' ' b 4.- D s o T z z z"
};
