/* XPM */
const char *icon_famfamfam_flags_pm[] = {
/* width height ncolors chars_per_pixel */
"16 11 170 2",
/* colors */
"   c #00002B",
" . c #E1E0E0",
" X c #44459C",
" o c #E08244",
" O c #000017",
" + c #404198",
" @ c #E4D144",
" # c #615C8A",
" $ c #5458BC",
" % c #C6AF37",
" & c #CBB728",
" * c #000045",
" = c #6D6C9C",
" - c #BFAF47",
" ; c #000031",
" : c #776D5D",
" > c #DBA366",
" , c #00001D",
" < c #BBA639",
" 1 c #D6C764",
" 2 c #F7BDB3",
" 3 c #E7D339",
" 4 c #D25664",
" 5 c #00005F",
" 6 c #DECA3A",
" 7 c #4A4CB8",
" 8 c #3C3F9D",
" 9 c #BCA629",
" 0 c #6A6474",
" q c #BEAE42",
" w c #00008D",
" e c #F5C6C1",
" r c #DBE0E6",
" t c #D14D5C",
" y c #504FB7",
" u c #5657A9",
" i c #C1AF52",
" p c #E7D33F",
" a c #BFAF50",
" s c #696476",
" d c #000065",
" f c #7575BA",
" g c #E90000",
" h c #EB7D6B",
" j c #00003D",
" k c #3334A4",
" l c #F2887F",
" z c #EED82B",
" x c #E8E8E5",
" c c #B7A02A",
" v c #4042B4",
" b c #E3CE34",
" n c #000029",
" m c #615C71",
" M c #696690",
" N c #898381",
" B c #CCB845",
" V c #990000",
" C c #35379F",
" Z c #575BB3",
" A c #7B7AA8",
" S c #5759B3",
" D c #DDE1E7",
" F c #D89E68",
" G c #5355AF",
" H c #3638AD",
" J c #796F71",
" K c #E30000",
" L c #E48C60",
" P c #4A4CB0",
" I c #9B8F5A",
" U c #C2A91D",
" Y c #CFBF58",
" T c #C6B338",
" R c #256300",
" E c #000085",
" W c #00001B",
" Q c #4E50A3",
" ! c #6B6270",
" ~ c #FACAC1",
" ^ c #00005D",
" / c #928B7F",
" ( c #4C50B8",
" ) c #C2B258",
" _ c #000049",
" ` c #C5B551",
" ' c #6C6353",
" ] c #000035",
" [ c #E7E5E6",
" { c #D7D3D3",
" } c #7878AE",
" | c #9A9176",
".  c #4143A3",
".. c #BBAA3D",
".X c #5A5AA1",
".o c #000077",
".O c #D1BD38",
".+ c #DED173",
".@ c #000063",
".# c #484AA3",
".$ c #5455BC",
".% c #E1E3E3",
".& c #5A5AA4",
".* c #D8C438",
".= c #E2D57A",
".- c #F1DB36",
".; c #154F0D",
".: c #D70000",
".> c #000027",
"., c #E3CC32",
".< c #7F80BE",
".1 c #B8A336",
".2 c #C3AC23",
".3 c #52529F",
".4 c #E6D44F",
".5 c #000041",
".6 c #595DB6",
".7 c #4E4C9E",
".8 c #4B4C9B",
".9 c #DDE3E8",
".0 c #F16961",
".q c #E0E0E1",
".w c #000083",
".e c #5556A8",
".r c #00006F",
".t c #4C4FA9",
".y c #A49967",
".u c #D66571",
".i c #E3CC27",
".p c #000047",
".a c #3332AE",
".s c #7577C7",
".d c #000033",
".f c #C9D3D7",
".g c #C0AF36",
".h c #4D4DB0",
".j c #BFAE56",
".k c #C0B14D",
".l c #B4A034",
".z c #817358",
".x c #E8E7E8",
".c c #E7E7E7",
".v c #000061",
".b c #827B70",
".n c #3B3FB2",
".m c #F1816D",
".M c #00004D",
".N c #EF7F6B",
".B c #615960",
".V c #D90000",
".C c #EEEAE7",
".Z c #F2B9B3",
".A c #000039",
".S c #83A281",
".D c #E2E1E5",
".F c #E6D554",
".G c #4F53B8",
".H c #E1D059",
".J c #00007B",
".K c #7778C8",
".L c #000011",
".P c #C8BB72",
".I c #2F6D03",
".U c #000067",
".Y c #5151BD",
".T c #E70000",
".R c #BDAD53",
".E c #595ABE",
".W c #E7E8E6",
".Q c None",
/* pixels */
" R.m h.; w E.w.o.J.U d.r.v.@ 5 ^",
".m.x.c e.K.s.<.= f.+ } A.P Z.G.M",
".N.c ..Z.E $ 1.H u Y M.7 a + 7 _",
".I ~ 2.S.$.Y.F.4 | @ ` #.* s.&.p",
" { [.C.9 y ( = N p 3.k z q !.j _",
".%.q x D.h /.X.y.- b -.i...z.R *",
".f.D.W r P ) i B.b I 0 m : 9.8 j",
" g l.0 4 v.3 6.,.O T.g &.2.B.a ;",
".T > o t.n H J % <.1.l c U ' k  ",
" K F L.u.6 S G.e.t Q.#.  X 8 C ,",
".T.:.V V.p.5.A.d ].> n.> O ,.L W"
};
