/* XPM */
const char *icon_famfamfam_flags_pn[] = {
/* width height ncolors chars_per_pixel */
"16 11 162 2",
/* colors */
"   c #D5677F",
" . c #4D66B2",
" X c #00002B",
" o c #7782CE",
" O c #6276B6",
" + c #000081",
" @ c #507958",
" # c #FE8986",
" $ c #506597",
" % c #4B7553",
" & c #EAB8BE",
" * c #00006D",
" = c #B5B3E3",
" - c #F89597",
" ; c #8492E1",
" : c #465EAE",
" > c #4D64A1",
" , c #000045",
" < c #F79999",
" 1 c #C36387",
" 2 c #99A4E8",
" 3 c #DDA2B4",
" 4 c #6F83C2",
" 5 c #415AAC",
" 6 c #000073",
" 7 c #3B5DDB",
" 8 c #435BA4",
" 9 c #878D9E",
" 0 c #546EAE",
" q c #4059A1",
" w c #598060",
" e c #415A98",
" r c #9BB0ED",
" t c #00004B",
" y c #659486",
" u c #D6CFE8",
" i c #ACB923",
" p c #6A7FC0",
" a c #3B54A9",
" s c #3750A5",
" d c #5467A7",
" f c #ED6567",
" g c #CED7F7",
" h c #C16481",
" j c #697DC2",
" k c #3953A0",
" l c #A298CF",
" z c #6277BB",
" x c #546CB7",
" c c #4F71E7",
" v c #F0A2AB",
" b c #ABB460",
" n c #D7CEE8",
" m c #405EA3",
" M c #FEE1E0",
" N c #3C55A9",
" B c #7AA975",
" V c #000057",
" C c #FFEEEE",
" Z c #C46A79",
" A c #4860AE",
" S c #FEA19E",
" D c #596FB8",
" F c #CC6E84",
" G c #889AE6",
" H c #00002F",
" J c #3651A6",
" K c #1B39C7",
" L c #465EAF",
" P c #7387C4",
" I c #4D6AB9",
" U c #FE9897",
" Y c #00005D",
" T c #667BB7",
" R c #6A7351",
" E c #7389C7",
" W c #5E74B9",
" Q c #617348",
" ! c #CAB5D7",
" ~ c #000035",
" ^ c #EAB1BB",
" / c #4F67B4",
" ( c #4C63B1",
" ) c #547C5C",
" _ c #4E64A9",
" ` c #6361CB",
" ' c #4F7857",
" ] c #465DAB",
" [ c #000077",
" { c #7F5DAB",
" } c #F0E0E8",
" | c #496986",
".  c #6DA092",
".. c #000063",
".X c #4F6899",
".o c #FDA29F",
".O c #516FE7",
".+ c #00003B",
".@ c #3955A1",
".# c #000027",
".$ c #314CA3",
".% c #FED0D1",
".& c #4159AC",
".* c #FAE2E4",
".= c #5A6FB7",
".- c #000041",
".; c #BCBF40",
".: c #DB9EAB",
".> c #ED6771",
"., c #00002D",
".< c #4A62B1",
".1 c #FCD8D5",
".2 c #2E4AA6",
".3 c #4B7555",
".4 c #3A55AB",
".5 c #5D6E9F",
".6 c #5953B9",
".7 c #7C8964",
".8 c #AEBFF5",
".9 c #FD7373",
".0 c #000047",
".q c #2946A4",
".w c #AE6185",
".e c #5A7674",
".r c #000033",
".t c #4966B6",
".y c #4C65AF",
".u c #FDA9A4",
".i c #CED3F3",
".p c #405AAD",
".a c #8E9393",
".s c #3C56A9",
".d c #4057A3",
".f c #335075",
".g c #31497D",
".h c #5C72BB",
".j c #00004D",
".k c #77AC5E",
".l c #586EB7",
".z c #5F71DF",
".x c #556CB4",
".c c #F5B3B6",
".v c #000039",
".b c #477250",
".n c #667BBE",
".m c #7B69BF",
".M c #3650A6",
".N c #446382",
".B c #000025",
".V c #FDCECE",
".C c #F7E5E9",
".Z c #000067",
".A c #5068B2",
".S c #000053",
".D c #75825F",
".F c #9B8ECA",
".G c #7C8C7D",
".H c #6E82C2",
".J c #66815A",
".K c #3654AC",
".L c #7976B9",
".P c None",
/* pixels */
" ` <.z.m f 7 { 1 K [ *.Z.. Y V.S",
".O g C n.1 u }.8 2.H j T O.h.l t",
".>.*.V S #.u.c v h . d.X 9.@ 0 ,",
"  .C.% U.9.o ^ 3.w _.k.e.a.D B.-",
" c.i M ! - =.: r o m | R Q.J.5.+",
".6 & G l F ;.F Z.L.s e w y @ > ~",
" + E D I.t (.p.K.4 k.N ). .3 $ H",
" [ P x / ( L 5 N J.2.; ' %.b b X",
" 6 4 /.< :.& a.M.$.q.7.f i.g.G.#",
" * p.n z W.=.x.A.y A ] 8 q.d s.B",
".Z.. Y V.S.j.0.-.+.v.r., X.#.B.B"
};
