/* XPM */
const char *icon_famfamfam_flags_pr[] = {
/* width height ncolors chars_per_pixel */
"16 11 157 2",
/* colors */
"   c #BF0000",
" . c #AB0000",
" X c #F0E6F2",
" o c #970000",
" O c #CB3333",
" + c #830000",
" @ c #4B4BFC",
" # c #D85050",
" $ c #CE3939",
" % c #D64E4E",
" & c #D34141",
" * c #6851E0",
" = c #B90000",
" - c #D75252",
" ; c #A50000",
" : c #910000",
" > c #4D4EFA",
" , c #D85656",
" < c #A45DA7",
" 1 c #5859FE",
" 2 c #C51F1F",
" 3 c #C70000",
" 4 c #E16F6F",
" 5 c #0000F7",
" 6 c #D75858",
" 7 c #D55656",
" 8 c #857BF5",
" 9 c #9F0000",
" 0 c #DC6060",
" q c #FBF8F8",
" w c #D65A5A",
" e c #D2D1FE",
" r c #F3F0F0",
" t c #F1EEEE",
" y c #DD6464",
" u c #FAFAFA",
" i c #0000FD",
" p c #F8F8F8",
" a c #F6F6F6",
" s c #C10000",
" d c #F4F4F4",
" f c #F2F2F2",
" g c #DE6868",
" h c #AD0000",
" j c #D9C9C9",
" k c #4444FA",
" l c #0000D5",
" z c #DFDFFD",
" x c #F9FAFC",
" c c #850000",
" v c #DF6C6C",
" b c #6866FC",
" n c #D35353",
" m c #5F5DFD",
" M c #7874FB",
" N c #CD3536",
" B c #D44A4A",
" V c #CC5A6D",
" C c #D13030",
" Z c #CF0000",
" A c #B77BB8",
" S c #F9F5F5",
" D c #D8D9F9",
" F c #BB0000",
" G c #4949FB",
" H c #E37D80",
" J c #A70000",
" K c #F1EDED",
" L c #9C3D83",
" P c #F7F7F6",
" I c #F6F5F5",
" U c #DA6363",
" Y c #FBFBFD",
" T c #D95D62",
" R c #CB3030",
" E c #D34545",
" W c #E5CDCD",
" Q c #B50000",
" ! c #7D7BFF",
" ~ c #A10000",
" ^ c #D64B4B",
" / c #8D0000",
" ( c #DF5D57",
" ) c #706AFC",
" _ c #4A46FB",
" ` c #D13C3C",
" ' c #5D60FD",
" ] c #C72525",
" [ c #7979FE",
" { c #CE3639",
" } c #AA68AA",
" | c #E27374",
".  c #E3D1D1",
".. c #0000FB",
".X c #D85353",
".o c #9B0000",
".O c #870000",
".+ c #C31A1A",
".@ c #6C68FE",
".# c #D95557",
".$ c #C2C0FC",
".% c #DDDBFC",
".& c #DA5B5B",
".* c #BD0000",
".= c #E87E79",
".- c #5F5FFE",
".; c #A90000",
".: c #0000D9",
".> c #4040FA",
"., c #FAF7F7",
".< c #810000",
".1 c #D86B73",
".2 c #F6F3F3",
".3 c #A45FA3",
".4 c #F4F1F1",
".5 c #D03D3D",
".6 c #918DFD",
".7 c #FBFBFB",
".8 c #F9F9F9",
".9 c #F7F7F7",
".0 c #7F6BE8",
".q c #F5F5F5",
".w c #D14141",
".e c #F3F3F3",
".r c #4545FB",
".t c #CB3B3B",
".y c #8F8FFE",
".u c #C5C3FE",
".i c #D9BFBF",
".p c #8F0000",
".a c #F5F7F8",
".s c #DB6768",
".d c #FDFAF9",
".f c #FCF8F8",
".g c #5451FC",
".h c #0000F9",
".j c #E9DDEC",
".k c #FAF6F6",
".l c #F8F4F4",
".z c #B10000",
".x c #4946FB",
".c c #6D61F0",
".v c #F2EEEE",
".b c #F0ECEC",
".n c #9D0000",
".m c #E37776",
".M c #D85E5E",
".N c #890000",
".B c #F8F8F7",
".V c #F7F6F6",
".C c #C92B2B",
".Z c #D86B6B",
".A c #A30009",
".S c #7E7AFD",
".D c #0000FF",
".F c #D44646",
".G c None",
/* pixels */
".:.A Z 3 s  .* F = Q.z.z h.; ; J",
".D 8 A H.=.m | 4 v g y 0.& , - 9",
".D !.-.0 X.d.f q.,.k S.l.V I.2 W",
".D [.@ 1 ' z x.7 u.8 p.9 a.q a. ",
" i.y e.6 m @ } V.# # ^.F & ` 6.n",
" i.u Y.%.g.x.> L { C.C ] 2.+.t +",
" i.S.$ M _.>.3.1.s U.M w 7 n.Z ~",
".. ) G.r > D.a.9 a.q d.e f f.e j",
".h b k *.j.B P I.4 r.v t K.b K.i",
" 5.c < T (.X % B E.w.5 $ N O R +",
" l + = . ~ 9.o o :.p /.N c c.<.O"
};
