/* XPM */
const char *icon_famfamfam_flags_pt[] = {
/* width height ncolors chars_per_pixel */
"16 11 145 2",
/* colors */
"   c #9BB559",
" . c #F04130",
" X c #F62C2C",
" o c #549655",
" O c #F73030",
" + c #F50000",
" @ c #F21414",
" # c #E10000",
" $ c #E6D0D4",
" % c #F18151",
" & c #CEC84F",
" * c #69A25C",
" = c #77AD77",
" - c #76AD76",
" ; c #6AA56A",
" : c #66A366",
" > c #FB5347",
" , c #5F9F5F",
" < c #F33232",
" 1 c #EEBA36",
" 2 c #5D9D5D",
" 3 c #5C9D5C",
" 4 c #EF0000",
" 5 c #F62B2B",
" 6 c #589958",
" 7 c #509550",
" 8 c #F43636",
" 9 c #499149",
" 0 c #F9C151",
" q c #F21313",
" w c #7BB07A",
" e c #CAC854",
" r c #FC6565",
" t c #E1C939",
" y c #FD0000",
" u c #F74949",
" i c #E90000",
" p c #FA4242",
" a c #F52626",
" s c #F83736",
" d c #C7C854",
" f c #539145",
" g c #F5DBD4",
" h c #EF7051",
" j c #FA5C5C",
" k c #F4674C",
" l c #FB6060",
" z c #F70000",
" x c #F72E2E",
" c c #F64444",
" v c #E30000",
" b c #F85353",
" n c #005900",
" m c #F5AC4C",
" M c #004F00",
" N c #004D00",
" B c #004B00",
" V c #004500",
" C c #F22C2C",
" Z c #003F00",
" A c #F95757",
" S c #003B00",
" D c #F52525",
" F c #003500",
" G c #003300",
" H c #F43B3B",
" J c #002B00",
" K c #002100",
" L c #EA8376",
" P c #F10000",
" I c #001900",
" U c #001300",
" Y c #DD0000",
" T c #000D00",
" R c #F53F3F",
" E c #000B00",
" W c #F74E4E",
" Q c #ED765B",
" ! c #619F62",
" ~ c #EFB142",
" ^ c #F23232",
" / c #F33529",
" ( c #F93C3C",
" ) c #F42020",
" _ c #E77858",
" ` c #EB0000",
" ' c #FD7071",
" ] c #F52424",
" [ c #7BB07B",
" { c #79AE79",
" } c #74AE74",
" | c #D9C23C",
".  c #6FA86F",
".. c #FC6969",
".X c #F83737",
".o c #F90000",
".O c #E8764B",
".+ c #E50000",
".@ c #F64242",
".# c #FD6D6D",
".$ c #F21010",
".% c #419134",
".& c #539653",
".* c #4F944F",
".= c #E67860",
".- c #F41F1F",
".; c #F33535",
".: c #F74646",
".> c #E9CC55",
"., c #448E44",
".< c #BFB946",
".1 c #3F8A3F",
".2 c #F52323",
".3 c #F43939",
".4 c #E7A332",
".5 c #3A843A",
".6 c #F30000",
".7 c #9AB349",
".8 c #E9AF37",
".9 c #DF0000",
".0 c #F53D3D",
".q c #F10B0B",
".w c #F31A1A",
".e c #F10F0E",
".r c #F53C36",
".t c #F41E1E",
".y c #F3AB47",
".u c #DAD359",
".i c #ED0000",
".p c #F32F2A",
".a c #F93C3D",
".s c #F0B83D",
".d c #EEDDDD",
".f c #F73131",
".g c #D6E8FA",
".h c #ADBB40",
".j c #F74B4B",
".k c #FB0000",
".l c #F31919",
".z c #72AA73",
".x c #E0C830",
".c c #EA692A",
".v c #F22F2F",
".b c #E70000",
".n c None",
/* pixels */
" n N N N B M y y.k.o z +.6 P 4.i",
" B [ [ { = } '.#.. r l j A b W `",
" N w , *   d 0 m > p.a.X.f X u i",
" N { 3.u.> h k.y ~ ( s.f 5 a c.b",
" B - 6 e % g $ Q.s.r O 5 D ) R.b",
" V.z.& &.O.d.g.= 1 . 5 D.-.w H.+",
" Z. .*.7.< _ L t.x.p ].-.l @ 8 v",
" S ; 9 f.h |.8.4.c ].-.l @.$ <.9",
" F :.,.1.5.% x /.2.t.l q.e.q.v.9",
" J ! 2 6 o 7.j.:.@.0.3.; ^.v C Y",
" G K I U E T ` i.b.+ v #.9 Y Y Y"
};
