/* XPM */
const char *icon_famfamfam_flags_pw[] = {
/* width height ncolors chars_per_pixel */
"16 11 151 2",
/* colors */
"   c #26A2F5",
" . c #42ABF6",
" X c #36A8F4",
" o c #35A8F3",
" O c #0047E7",
" + c #76C8FE",
" @ c #4FB6FC",
" # c #0041E7",
" $ c #6AC3FC",
" % c #58BBFE",
" & c #37A8F8",
" * c #58B9FE",
" = c #85CCBD",
" - c #2BA5F6",
" ; c #FEFC1E",
" : c #1F9EF4",
" > c #0059ED",
" , c #0051ED",
" < c #1399F2",
" 1 c #75C1A3",
" 2 c #70C4FE",
" 3 c #6FC4FD",
" 4 c #FDFB16",
" 5 c #5CBEFE",
" 6 c #1097F2",
" 7 c #0F97F1",
" 8 c #0069F3",
" 9 c #0067F3",
" 0 c #45B0FB",
" q c #CAE87F",
" w c #59BAFE",
" e c #2CA6F6",
" r c #209FF4",
" t c #0079F9",
" y c #C4E15B",
" u c #0033DF",
" i c #0031DF",
" p c #0075F9",
" a c #002FDF",
" s c #149AF2",
" d c #5CBBFA",
" f c #FFFC00",
" g c #44AFF6",
" h c #65C0FC",
" j c #58BBF9",
" k c #31A9F7",
" l c #FFFC03",
" z c #58B9F9",
" x c #0093FF",
" c c #0089FF",
" v c #0087FF",
" b c #003FE5",
" n c #25A2F5",
" m c #003DE5",
" M c #25A0F5",
" N c #6DC3FD",
" B c #61BEFB",
" V c #3AAAF9",
" C c #FEFC05",
" Z c #78C3A1",
" A c #49B2F7",
" S c #9ED58E",
" D c #69BFFC",
" F c #3DABF5",
" G c #5DBCFA",
" H c #004FEB",
" J c #004BEB",
" K c #72C6FE",
" L c #C9E983",
" P c #39A9F4",
" I c #37ABF2",
" U c #79C9FE",
" Y c #0063F1",
" T c #F2F82A",
" R c #DBEB45",
" E c #1A9CF3",
" W c #59BBF2",
" Q c #F1F536",
" ! c #0039DD",
" ~ c #37ABF8",
" ^ c #002FDD",
" / c #0071F7",
" ( c #002BDD",
" ) c #0029DD",
" _ c #A7DA99",
" ` c #0B95F1",
" ' c #32A5F3",
" ] c #2BA4F6",
" [ c #84CAB2",
" { c #1F9FF4",
" } c #F2F726",
" | c #1F9BF4",
".  c #5FBFFE",
".. c #FCFA12",
".X c #3BAAF5",
".o c #7BCAFF",
".O c #4EB6F7",
".+ c #0089FD",
".@ c #4EB4F7",
".# c #0087FD",
".$ c #0083FD",
".% c #0081FD",
".& c #003BE3",
".* c #007DFD",
".= c #0037E3",
".- c #5CBDFE",
".; c #FFFC04",
".: c #3CACE5",
".> c #77C8FE",
"., c #DDED53",
".< c #4BB2F7",
".1 c #44B1FA",
".2 c #FEFC1A",
".3 c #3FADF5",
".4 c #189BF3",
".5 c #004DE9",
".6 c #33A6F3",
".7 c #54B7F9",
".8 c #0045E9",
".9 c #53B7F8",
".0 c #74C4FE",
".q c #47B0F6",
".w c #F8F721",
".e c #7BC6B2",
".r c #1499F2",
".t c #2FA4F2",
".y c #50B3F8",
".u c #49B4FB",
".i c #2BA4EE",
".p c #0061EF",
".a c #005FEF",
".s c #005DEF",
".d c #3DADF9",
".f c #31A8F7",
".g c #FBFA34",
".h c #2CA2F2",
".j c #C4E261",
".k c #199CF3",
".l c #0077F5",
".z c #006DF5",
".x c #42AEFA",
".c c #1E9DF4",
".v c #66C0FC",
".b c #3FAEFA",
".n c #007BFB",
".m c #0035E1",
".M c #0079FB",
".N c #8BCFC7",
".B c #53B8FD",
".V c #79C8FE",
".C c None",
/* pixels */
" x c c c.+.$.%.*.M p /.z 9 Y.s.p",
" v.o.o U.>.0 2 N D h B d z.9.@ H",
" c.o.  5 w.N L q =.x.d ~ k e A.5",
" c.V.- * _ ;.;.2.g [ &.f -   g O",
".# + % j T f f f 4., I ] n r.3 #",
".$ K.B W C f f f l Q.: M { E.X m",
".% 3 @.O } f f f.. R.i :.k s X.=",
".n $.u 0 S 4 l...w Z |.k.r 6.6 u",
" t.v.1.b V.e.j y 1.c.4 < 7 `.t a",
" / B G z.7.y.<.q . F P o '.t.h )",
".l 8 Y.a > , J.8 # b.&.m i ^ ( !"
};
