/* XPM */
const char *icon_famfamfam_flags_py[] = {
/* width height ncolors chars_per_pixel */
"16 11 147 2",
/* colors */
"   c #EFF3FB",
" . c #EFF1FB",
" X c #EA8079",
" o c #EDEFF9",
" O c #F62C2C",
" + c #F9D2D0",
" @ c #0003CD",
" # c #FEF9F9",
" $ c #FC4C4C",
" % c #0000C3",
" & c #F8F3F3",
" * c #627EE4",
" = c #F6F1F1",
" - c #F50000",
" ; c #0000AF",
" : c #CFD3DB",
" > c #F0F2F8",
" , c #EFF0F7",
" < c #4666DC",
" 1 c #ECEEF4",
" 2 c #738CE7",
" 3 c #0000C9",
" 4 c #F4F5F5",
" 5 c #647FE2",
" 6 c #FB4747",
" 7 c #0000B5",
" 8 c #EF0000",
" 9 c #CFD3E1",
" 0 c #5470DC",
" q c #FCF6F6",
" w c #F6F0F0",
" e c #3D5ED9",
" r c #FC6565",
" t c #6882E2",
" y c #F2F3F9",
" u c #FD0000",
" i c #0000BB",
" p c #F74949",
" a c #FE7474",
" s c #E90000",
" d c #FA4242",
" f c #EBEDF2",
" g c #0000A7",
" h c #FEFEFE",
" j c #5975DD",
" k c #FDFCFD",
" l c #FCFCFC",
" z c #FBFCFB",
" x c #FAFAFA",
" c c #F6CCC8",
" v c #FFF5F5",
" b c #F6F6F6",
" n c #F4F4F4",
" m c #F9DBD8",
" M c #EDF1F7",
" N c #F2F2F2",
" B c #FA5C5C",
" V c #6682E6",
" C c #0000C1",
" Z c #FB6060",
" A c #F7D9D9",
" S c #F70000",
" D c #E7DDDD",
" F c #FE5959",
" G c #0000AD",
" H c #F85353",
" J c #6B85E4",
" K c #8399EB",
" L c #506FDA",
" P c #0011D1",
" I c #5C78DF",
" U c #F6D4D1",
" Y c #EA7973",
" T c #F95757",
" R c #0000C7",
" E c #FE5F5F",
" W c #F10000",
" Q c #F3928C",
" ! c #D3D7E3",
" ~ c #FD5454",
" ^ c #CFD1DF",
" / c #F74E4E",
" ( c #FF7B7A",
" ) c #FE7979",
" _ c #7A93E8",
" ` c #5976E2",
" ' c #FDF8F8",
" ] c #5370DC",
" [ c #F7F7FC",
" { c #FADEDE",
" } c #FAF4F5",
" | c #F9F4F4",
".  c #FF0000",
".. c #F7F2F2",
".X c #0000B9",
".o c #EB0000",
".O c #778FE8",
".+ c #7081CA",
".@ c #FD7071",
".# c #EFF1F7",
".$ c #FC6969",
".% c #506EDF",
".& c #F83737",
".* c #3658D6",
".= c #F90000",
".- c #0000AB",
".; c #FD6D6D",
".: c #6F89E6",
".> c #5573DD",
"., c #FDF7F7",
".< c #FBF5F5",
".1 c #4B6ADD",
".2 c #F5EFEF",
".3 c #000BCF",
".4 c #FEFBFB",
".5 c #F3F4FA",
".6 c #F30000",
".7 c #0000B1",
".8 c #EBECF2",
".9 c #EAECF1",
".0 c #E9EAF0",
".q c #FDFDFD",
".w c #FBFBFB",
".e c #F7F7F7",
".r c #F5F5F5",
".t c #FE7777",
".y c #F3F3F3",
".u c #5D7AE4",
".i c #4262DA",
".p c #FF7B7B",
".a c #9ABD7A",
".s c #607BE0",
".d c #ED0000",
".f c #F93C3D",
".g c #F4F5FA",
".h c #F73131",
".j c #FE5C5C",
".k c #EFEFF5",
".l c #F18D87",
".z c #5472E1",
".x c #FD5151",
".c c #395CD7",
".v c #7F96EA",
".b c #0000BD",
".n c #FB0000",
".m c #E7E9F0",
".M c None",
/* pixels */
". . . .  u u u u.n.= S -.6 W 8.d",
". .p.p ).t a.@.;.$ r Z B T H /.o",
".  ( E.j F ~.x $ 6 d.f.&.h O p s",
" v.4 # # '., q.< } | &.. w.2 = D",
"   h h.q k l { Q.l A.e b.r n.r !",
" . h.q l l.w +.a.+ c b.r n.y 4 9",
" o.q l z.w x m X Y U.r n.y N n ^",
" M [.g.5 y >.# ,.k 1 f.9.0.m.8 :",
" P K V *.u `.z.%.1 <.i e.c.* 0 g",
".3.v _.O 2.: J t 5.s I j.> ] L g",
" @ 3 R % C.b i.X 7.7 ; G.- g g g"
};
