/* XPM */
const char *icon_famfamfam_flags_qa[] = {
/* width height ncolors chars_per_pixel */
"16 11 108 2",
/* colors */
"   c #000000",
" . c #8C5D58",
" X c #62221B",
" o c #250000",
" O c #70362F",
" + c #753E37",
" @ c #F7F5F5",
" # c #F5F5F3",
" $ c #F5F3F3",
" % c #7D4842",
" & c #F3F1F1",
" * c #7B4640",
" = c #F1EFEF",
" - c #85524D",
" ; c #EBE9E9",
" : c #E9E7E7",
" > c #E7E5E5",
" , c #E3E3E1",
" < c #5E1D16",
" 1 c #936661",
" 2 c #64271F",
" 3 c #996E6A",
" 4 c #784139",
" 5 c #753D36",
" 6 c #050000",
" 7 c #703731",
" 8 c #7D4741",
" 9 c #77413B",
" 0 c #FEFEFE",
" q c #FCFCFC",
" w c #FBFCFB",
" e c #FAFAFA",
" r c #F8F8F8",
" t c #7F4D46",
" y c #865550",
" u c #130000",
" i c #5A1A11",
" p c #8F615C",
" a c #60221A",
" s c #A07773",
" d c #682C25",
" f c #743C34",
" g c #F9F5F5",
" h c #713831",
" j c #210000",
" k c #F1EFED",
" l c #79423C",
" z c #78423B",
" x c #EFEDEB",
" c c #85524B",
" v c #0D0000",
" b c #966A65",
" n c #1B0000",
" m c #926661",
" M c #682B24",
" N c #9E7670",
" B c #642720",
" V c #70372F",
" C c #6D332C",
" Z c #78413A",
" A c #753F37",
" S c #723B34",
" D c #7A453F",
" F c #895751",
" G c #885750",
" H c #83514B",
" J c #9C736D",
" K c #64261F",
" L c #996F6A",
" P c #70362E",
" I c #60221B",
" U c #570D05",
" Y c #6D322B",
" T c #6C322A",
" R c #79423A",
" E c #A17975",
" W c #763E37",
" Q c #753C36",
" ! c #743C35",
" ~ c #814C45",
" ^ c #703831",
" / c #7E4842",
" ( c #FFFFFF",
" ) c #FDFDFD",
" _ c #FBFBFB",
" ` c #825049",
" ' c #F9F9F9",
" ] c #F1F1F1",
" [ c #5E1D15",
" { c #84544E",
" } c #6C3129",
" | c #692D26",
".  c #682D25",
".. c #743B34",
".X c #723932",
".o c #A6807C",
".O c #7D4740",
".+ c #7C473F",
".@ c #7A433D",
".# c #79433C",
".$ c #170000",
".% c #723B35",
".& c #814D47",
".* c #7F4B45",
".= c #8C5B55",
".- c #7C4942",
".; c #8A5953",
".: c None",
/* pixels */
" g @ @ @ # U o j n u v 6        ",
" g ( ( 0 0 0 E N J L b 1 p ..;  ",
" @ ( 0 0 0.o.= F -.& /.@ W.X {  ",
" @ 0 0 0 q ) G c.& %.# W h C `  ",
" @ 0 0 ) q s c ~ 8 l 5 h Y |.*  ",
" $ 0 ) q q _ ~.O R Q 7 Y | B *  ",
" & ) q w e 3.+ Z ! V T.  B X z  ",
" ] q _ _ ' ' 4 f O } d 2 I < A  ",
" = q e e ' m.. P } M K a [ i.%  ",
" k _ e ' ' r y H t.- D 9 + S ^  ",
" x ; : > ,.$                    "
};
