/* XPM */
const char *icon_famfamfam_flags_re[] = {
/* width height ncolors chars_per_pixel */
"16 11 130 2",
/* colors */
"   c #ADADAD",
" . c #BAC9E8",
" X c #A7A7A7",
" o c #EC5E50",
" O c #ED7468",
" + c #A9BCE1",
" @ c #9F9F9F",
" # c #6989CD",
" $ c #B3C3E4",
" % c #E10000",
" & c #CD0000",
" * c #C0CEEA",
" = c #F17E72",
" - c #B1C3E5",
" ; c #F58D83",
" : c #F3776A",
" > c #EA574A",
" , c #F06C5D",
" < c #9CB0DA",
" 1 c #DB0000",
" 2 c #E9E9EA",
" 3 c #AABDE1",
" 4 c #C70000",
" 5 c #F57D72",
" 6 c #E96659",
" 7 c #97ACD8",
" 8 c #C4D3ED",
" 9 c #C3D1EC",
" 0 c #F4887E",
" q c #F17064",
" w c #A6B9E0",
" e c #A5B9DF",
" r c #EA6A5D",
" t c #D50000",
" y c #F8F8F8",
" u c #F6F6F6",
" i c #EC6E62",
" p c #F4F4F4",
" a c #E95648",
" s c #A0B5DD",
" d c #5377C3",
" f c #F0F0F0",
" g c #EEEEEE",
" h c #ECECEC",
" j c #AEC0E4",
" k c #EAEAEA",
" l c #E8E8E8",
" z c #E6E6E6",
" x c #6F8FD1",
" c c #E4E4E4",
" v c #E2E2E2",
" b c #B7C7E6",
" n c #DCDCDC",
" m c #E64D3E",
" M c #F27164",
" N c #D2D2D2",
" B c #CECECE",
" V c #EE6456",
" C c #B3B0B0",
" Z c #BECCE9",
" A c #EC6D61",
" S c #EA5748",
" D c #BEBEBE",
" F c #6385CB",
" G c #B8B8B8",
" H c #F3776B",
" J c #DD0000",
" K c #ECEBEB",
" L c #AEBFE3",
" P c #F79389",
" I c #EB5D4F",
" U c #A9BDE1",
" Y c #B7C8E8",
" T c #EB0000",
" R c #E9665A",
" E c #EE6355",
" W c #C1CFEB",
" Q c #B1C2E5",
" ! c #7395D3",
" ~ c #7393D3",
" ^ c #7191D1",
" / c #EF0700",
" ( c #EF695C",
" ) c #E50000",
" _ c #E86355",
" ` c #2D57AF",
" ' c #EF786C",
" ] c #4971BD",
" [ c #C4D2ED",
" { c #C3D0EC",
" } c #A5B8DF",
" | c #EA695D",
".  c #B4C5E7",
".. c #EE6457",
".X c #B2C3E5",
".o c #AFBFE2",
".O c #CB0000",
".+ c #F7F7F7",
".@ c #F3F3F3",
".# c #F06A5C",
".$ c #A0B4DD",
".% c #234FAB",
".& c #F1F1F1",
".* c #EFEFEF",
".= c #EDEDED",
".- c #AEBFE4",
".; c #EBEBEB",
".: c #E9E9E9",
".> c #AABDE0",
"., c #E7E7E7",
".< c #E5E5E5",
".1 c #A7B9DD",
".2 c #3F67B9",
".3 c #F28478",
".4 c #DFDFDF",
".5 c #5B7FC7",
".6 c #D5D5D5",
".7 c #F17063",
".8 c #C50000",
".9 c #F8978E",
".0 c #A3B5DC",
".q c #CFCFCF",
".w c #E85243",
".e c #1747A5",
".r c #F11300",
".t c #A1B5DD",
".y c #355FB5",
".u c #E70000",
".i c #D30000",
".p c None",
/* pixels */
" ! ! ! ! ^.4 n.6 N B.q.r / T.u )",
" ! 8 8 9 W y.+.+ u p.@.9 P ; 0 %",
" ! [ Y. .X.= h.;.: k., 5 H M.3 J",
" ~ {.  - j.*.; h.;.:.< : q , = 1",
" x * Q.- 3 g.= K 2 l.<.7.#.. ' t",
" # Z L U w.&.*.=.=.;.: ( V o O.i",
" F . + e.t f g h.; l., E I > i &",
".5 b } s < g h.; l z c I S.w r.O",
" d $.$ < 7 h k l z c v a.w m R 4",
" ].o.>.1.0.= h k l.,.< A | 6 _.8",
".2.y `.%.e D G C   X @ &.O 4.8.8"
};
