/* XPM */
const char *icon_famfamfam_flags_ro[] = {
/* width height ncolors chars_per_pixel */
"16 11 152 2",
/* colors */
"   c #F7F72F",
" . c #4974D9",
" X c #F62C2C",
" o c #F7F746",
" O c #F3DD00",
" + c #F1F140",
" @ c #F50000",
" # c #0000AF",
" $ c #F4F450",
" % c #F21414",
" & c #FAFA42",
" * c #E10000",
" = c #F6F62A",
" - c #5880DD",
" ; c #0013BF",
" : c #F9F93A",
" > c #F33232",
" , c #0000B5",
" < c #406CD9",
" 1 c #5D83DB",
" 2 c #EF0000",
" 3 c #7697E3",
" 4 c #F62B2B",
" 5 c #F3F34B",
" 6 c #547CDC",
" 7 c #537CDB",
" 8 c #4B75DD",
" 9 c #F43636",
" 0 c #FBF060",
" q c #446FD6",
" w c #001DC5",
" e c #F21313",
" r c #4F78DA",
" t c #F8F835",
" y c #F74949",
" u c #7B9AE4",
" i c #E7BD00",
" p c #E90000",
" a c #F52626",
" s c #F2F246",
" d c #F5F556",
" f c #5981E0",
" g c #FA5C5C",
" h c #F5DF00",
" j c #F7F730",
" k c #F7E930",
" l c #F64444",
" z c #0000AD",
" x c #E30000",
" c c #FAFA40",
" v c #F5E624",
" b c #F85353",
" n c #F22C2C",
" m c #F95757",
" M c #EFDD00",
" N c #F52525",
" B c #F43B3B",
" V c #000DBD",
" C c #7999E4",
" Z c #F10000",
" A c #0000B3",
" S c #F6E82B",
" D c #DD0000",
" F c #F6F642",
" G c #F53F3F",
" H c #F9F93B",
" J c #F4E51F",
" K c #F74E4E",
" L c #F23232",
" P c #FCFC4B",
" I c #F5F523",
" U c #001DC3",
" Y c #F2F255",
" T c #0019C3",
" R c #FDFD6D",
" E c #547CDD",
" W c #F42020",
" Q c #668ADE",
" ! c #F4E739",
" ~ c #5C83DE",
" ^ c #E9BD00",
" / c #EB0000",
" ( c #587FDA",
" ) c #6F91E0",
" _ c #FCFC65",
" ` c #4F78DB",
" ' c #F5F53D",
" ] c #F8F836",
" [ c #4571DB",
" { c #F8EA36",
" } c #001DC9",
" | c #F7E300",
".  c #FBFB46",
".. c #F7E100",
".X c #3F6BD5",
".o c #F4F41E",
".O c #F8F878",
".+ c #F7D500",
".@ c #F83737",
".# c #F7F72E",
".$ c #4974D8",
".% c #0000AB",
".& c #E50000",
".* c #F21010",
".= c #E3A900",
".- c #F9EC3D",
".; c #F41F1F",
".: c #F33535",
".> c #4570D7",
"., c #7798E7",
".< c #7294E2",
".1 c #547DDF",
".2 c #FAFA41",
".3 c #F3E319",
".4 c #0007BB",
".5 c #FDFD51",
".6 c #F6F629",
".7 c #7B9BE4",
".8 c #F30000",
".9 c #F7F74B",
".0 c #5880DC",
".q c #DF0000",
".w c #5079DE",
".e c #F10B0B",
".r c #F0F03A",
".t c #F31A1A",
".y c #7999E5",
".u c #0019C1",
".i c #F9F93C",
".p c #F10F0E",
".a c #6A8EE0",
".s c #F6F65A",
".d c #5F85DF",
".f c #FCFC4C",
".g c #0000B7",
".h c #EBC100",
".j c #F5F524",
".k c #ED0000",
".l c #F8F834",
".z c #002BC7",
".x c #F73131",
".c c #FDFD71",
".v c #3A68D8",
".b c #6186DD",
".n c #F31919",
".m c #F22F2F",
".M c #FBFB47",
".N c #E70000",
".B c #E5B900",
".V c #0000A9",
".C c #FCFC69",
".Z c None",
/* pixels */
".z U U w } M |.. h O.+ @.8 Z 2.k",
" T.7.7.y.,.O.c R.C _ 0 g m b K /",
" U u.d ~ f.s.5.f.M &.-.@.x X y p",
" U C ~ -.1 d P.M &.i {.x 4 a l.N",
".u 3.0 6.w $. .2.i ] k 4 N W G.N",
" ;.< 7 ` 8 5 c H ] j S N.;.t B.&",
" V ) r . [ s : t   = v.;.n % 9 x",
".4.a.$.> < +.l   =.j J.n %.* >.q",
".g Q q.X.v.r.#.6 I.o.3 e.p.e.m.q",
" A.b 1 ( E Y.9 o F ' !.: L.m n D",
" , #.%.V z i.h ^ i.B.= *.q D D D"
};
