/* XPM */
const char *icon_famfamfam_flags_rs[] = {
/* width height ncolors chars_per_pixel */
"16 11 119 2",
/* colors */
"   c #00569B",
" . c #BF0000",
" X c #F56459",
" o c #E40000",
" O c #D43232",
" + c #D00000",
" @ c #E55D53",
" # c #CE3E43",
" $ c #CD3E42",
" % c #F06257",
" & c #E10000",
" * c #005AA1",
" = c #D25E61",
" - c #347EB3",
" ; c #CD0000",
" : c #E05B51",
" > c #005597",
" , c #3073A5",
" < c #D93333",
" 1 c #3682B8",
" 2 c #005CA4",
" 3 c #E88055",
" 4 c #DC5950",
" 5 c #C43C3F",
" 6 c #F1BABA",
" 7 c #DB0000",
" 8 c #D77779",
" 9 c #E75E54",
" 0 c #C70000",
" q c #EB3737",
" w c #005496",
" e c #DB3434",
" r c #ED6156",
" t c #D50000",
" y c #357FB6",
" u c #005699",
" i c #C10000",
" p c #DE5A51",
" a c #F4F4F4",
" s c #F2F2F2",
" d c #F0F0F0",
" f c #D63232",
" g c #E95F55",
" h c #D20000",
" j c #001D78",
" k c #E6E6E6",
" l c #00569C",
" z c #D9584F",
" x c #F5665A",
" c c #D2353B",
" v c #D33232",
" b c #CE6E72",
" n c #F5F1F1",
" m c #EBC2C3",
" M c #E00000",
" N c #EDA3A4",
" B c #005AA2",
" V c #005598",
" C c #E53636",
" Z c #D83333",
" A c #DD0000",
" S c #EB6056",
" D c #F5F576",
" F c #C90000",
" G c #F56559",
" H c #F36357",
" J c #DA0000",
" K c #EEB8B8",
" L c #001E7A",
" P c #00579E",
" I c #F0C7C7",
" U c #D03F45",
" Y c #EDC3C4",
" T c #DD3434",
" R c #D70000",
" E c #EDD0D1",
" W c #D03131",
" Q c #D15D60",
" ! c #C30000",
" ~ c #005497",
" ^ c #DD7A7C",
" / c #005BA4",
" ( c #001D76",
" ) c #00569A",
" _ c #001A6C",
" ` c #F56458",
" ' c #005DA7",
" ] c #D53232",
" [ c #E20000",
" { c #E73636",
" } c #3073A4",
" | c #CB0000",
".  c #D54145",
".. c #F5F5F5",
".X c #F3F3F3",
".o c #F1F1F1",
".O c #EFEFEF",
".+ c #EDEDED",
".@ c #D73333",
".# c #F5F577",
".$ c #EBEBEB",
".% c #E9E9E9",
".& c #E7E7E7",
".* c #00579C",
".= c #E5E5E5",
".- c #E57E54",
".; c #D03F43",
".: c #D8574E",
".> c #D90000",
"., c #D23131",
".< c #00599F",
".1 c #E35C52",
".2 c #C50000",
".3 c #D07174",
".4 c #E93737",
".5 c #E9CCCE",
".6 c #C83D41",
".7 c #D73232",
".8 c None",
/* pixels */
" o [ M A 7.> R t h + + ; | F 0.2",
" & x G ` H % r S g 9 @.1 : p 4 !",
" A X q.4 c 3.- U T e Z.7 ] v z i",
" J H { C. .# D # <.@ f O., W.: .",
" L 1 ' 2 N.; $ K P.*   ) V V , _",
" j y / B 6.. n I l ) u V > ~ } _",
" ( - *.< ^ = Q 8 ) V V ~ w w } _",
".........6 Y m 5 a.X s.o.o.O...=",
" a...... E.3 b.5 s.o.o.o.O.O s.=",
" d.......... a s s s s d d s s.=",
".+.$.%.%.& k.=.=.=.=.=.=.=.=.=.="
};
