/* XPM */
const char *icon_famfamfam_flags_ru[] = {
/* width height ncolors chars_per_pixel */
"16 11 136 2",
/* colors */
"   c #F1F1FD",
" . c #EFEFFB",
" X c #7D7DF5",
" o c #8F8FF6",
" O c #CA2F5D",
" + c #9E9EFE",
" @ c #DFDFEB",
" # c #4B4BFC",
" $ c #DDDDE9",
" % c #F50000",
" & c #BD1043",
" * c #2A2AF6",
" = c #E10000",
" - c #FC6666",
" ; c #F83434",
" : c #7676FE",
" > c #FDFDFE",
" , c #3636F4",
" < c #2F2FF7",
" 1 c #FA5D5D",
" 2 c #EF0000",
" 3 c #9696FC",
" 4 c #D34972",
" 5 c #B30000",
" 6 c #0000E3",
" 7 c #2B2BF6",
" 8 c #F21313",
" 9 c #F95455",
" 0 c #CC3461",
" q c #3B3BF5",
" w c #9B9BFD",
" e c #E90000",
" r c #F95858",
" t c #CE3A66",
" y c #FEFEFE",
" u c #FCFCFC",
" i c #C41F4F",
" p c #FAFAFA",
" a c #0000FD",
" s c #F5F5FF",
" d c #F8F8F8",
" f c #F3F3FD",
" g c #F6F6F6",
" h c #3030F7",
" j c #EFEFF9",
" k c #EDEDF7",
" l c #EBEBF5",
" z c #E9E9F3",
" x c #E7E7F1",
" c c #E5E5EF",
" v c #A0A0FE",
" b c #F70000",
" n c #F72E2E",
" m c #E30000",
" M c #9393FB",
" N c #3535F8",
" B c #BF1446",
" V c #1414F2",
" C c #F22C2C",
" Z c #8F8FFA",
" A c #F10000",
" S c #D03F6A",
" D c #C62453",
" F c #F62929",
" G c #DD0000",
" H c #D1456E",
" J c #1919F3",
" K c #F23232",
" L c #C82A58",
" P c #7272FE",
" I c #3636F8",
" U c #FB6162",
" Y c #4B4AFC",
" T c #EB0000",
" R c #2A2BF6",
" E c #DC6A8C",
" W c #5353FD",
" Q c #F5F5FD",
" ! c #C8325E",
" ~ c #C2194B",
" ^ c #0000E7",
" / c #3B3BF9",
" ( c #8C8CF9",
" ) c #504FFD",
" _ c #4F4FFC",
" ` c #1A1AF3",
" ' c #F90000",
" ] c #E50000",
" [ c #F64242",
" { c #5858FE",
" } c #8888F8",
" | c #F33535",
".  c #F74646",
".. c #FA3F3F",
".X c #4040FA",
".o c #5454FD",
".O c #F52323",
".+ c #6F6FFD",
".@ c #E1E3EF",
".# c #1F1FF4",
".$ c #F43939",
".% c #F30000",
".& c #FFFFFF",
".* c #DF0000",
".= c #FDFDFD",
".- c #F53D3D",
".; c #FBFBFB",
".: c #F10B0B",
".> c #F9F9F9",
"., c #F7F7F7",
".< c #4949FF",
".1 c #9898FD",
".2 c #4545FB",
".3 c #2424F5",
".4 c #F10F0E",
".5 c #3F3FF5",
".6 c #F93A3A",
".7 c #F85050",
".8 c #F41E1E",
".9 c #7B0000",
".0 c #ED0000",
".q c #B1B1FE",
".w c #4141FA",
".e c #2020F4",
".r c #8585F7",
".t c #494AFB",
".y c #0000E5",
".u c #F74B4B",
".i c #F31919",
".p c #8181F6",
".a c #4646FB",
".s c #F22F2F",
".d c #FA4444",
".f c #E70000",
".g c #2525F5",
".h c None",
/* pixels */
" s s s s Q f f   . j k l z x c.@",
" s.&.& y y y >.= u u.; p.> d., @",
" s.& y y y.=.= u.; p.> d., g., $",
".<.q v + w.1 3 M Z ( }.r.p X o ^",
" a : {.o ) #.a.w / I h 7.g.e.5 ^",
" a P W _ Y.a.X / I h R.g.# ` q.y",
" a.+ _.t.2.X / N < *.3.# J V , 6",
" 5 E 4 H S t 0 O L D i ~ B & !.9",
" ' -.d...6 ; n F.O.8.i 8.4.:.s.*",
" b U 1 r 9.7.u.  [.-.$ | K.s C G",
" %.% A 2.0.0 T e.f ] m =.* G G G"
};
