/* XPM */
const char *icon_famfamfam_flags_sb[] = {
/* width height ncolors chars_per_pixel */
"16 11 145 2",
/* colors */
"   c #000000",
" . c #D3C83A",
" X c #E3C461",
" o c #E4C96F",
" O c #0000C3",
" + c #9E9EEA",
" @ c #5151DA",
" # c #6565DD",
" $ c #7B7BE5",
" % c #4B4BD7",
" & c #8F8FE8",
" * c #A3A3EB",
" = c #BFBE43",
" - c #E8CC47",
" ; c #187019",
" : c #E3E3F8",
" > c #F7F7FB",
" , c #786FBA",
" < c #7575E2",
" 1 c #59353F",
" 2 c #468D46",
" 3 c #448B44",
" 4 c #3F893F",
" 5 c #4747D9",
" 6 c #3B853B",
" 7 c #676B00",
" 8 c #0000BB",
" 9 c #BCA178",
" 0 c #E4C45D",
" q c #327F32",
" w c #E9CC4E",
" e c #2F7D2F",
" r c #E4CE49",
" t c #BFA888",
" y c #2C7B2C",
" u c #2A7B2A",
" i c #297B29",
" p c #257725",
" a c #237723",
" s c #E1D45D",
" d c #207520",
" f c #6D6DE0",
" g c #FAFAFD",
" h c #6160DE",
" j c #D8CA40",
" k c #8C8CE7",
" l c #4542D3",
" z c #0B670B",
" x c #A2B043",
" c c #C8C044",
" v c #558F36",
" b c #6969DF",
" n c #E8CC3F",
" m c #7474E3",
" M c #C8C247",
" N c #2C7A2B",
" B c #494ADD",
" V c #0000C7",
" C c #AAB547",
" Z c #7070E2",
" A c #0000B3",
" S c #000900",
" D c #00009F",
" F c #4B4BD8",
" G c #4646DD",
" H c #5C5CE2",
" J c #0F6A0E",
" K c #B79D82",
" L c #A1A1EA",
" P c #9FAD3F",
" I c #C79300",
" U c #549355",
" Y c #F7F7FC",
" T c #4646E0",
" R c #915700",
" E c #4747D7",
" W c #4242DC",
" Q c #0000B9",
" ! c #B5B5F0",
" ~ c #C4AB81",
" ^ c #AA9899",
" / c #7071E1",
" ( c #D2D2F5",
" ) c #8787E7",
" _ c #6F6FE0",
" ` c #4C4CD8",
" ' c #2A792B",
" ] c #0000BF",
" [ c #6B6BDF",
" { c #907FA0",
" } c #509250",
" | c #E3D263",
".  c #4644D5",
".. c #4B904B",
".X c #498C49",
".o c #5353DB",
".O c #5151D9",
".+ c #428A42",
".@ c #A697A8",
".# c #3D863D",
".$ c #A9A9ED",
".% c #398439",
".& c #4241DE",
".* c #5C5CDD",
".= c #368236",
".- c #358235",
".; c #0000B1",
".: c #3B3BD7",
".> c #2F7C2F",
"., c #D5B86C",
".< c #2E7C2E",
".1 c #4F4FDA",
".2 c #2A7A2A",
".3 c #267626",
".4 c #247824",
".5 c #257625",
".6 c #1F741F",
".7 c #1E741E",
".8 c #1A701A",
".9 c #197019",
".0 c #146E14",
".q c #136C13",
".w c #CFC74B",
".e c #106A10",
".r c #0000B7",
".t c #A1A1EB",
".y c #5454DB",
".u c #6A6AE0",
".i c #709C40",
".p c #E4C74F",
".a c #436700",
".s c #F7F7FD",
".d c #337F32",
".f c #5252DC",
".g c #C39B00",
".h c #BEC568",
".j c #AF9900",
".k c #0000BD",
".l c #C7B292",
".z c #AEA2B5",
".x c #5859DB",
".c c #0303CD",
".v c #8E7EA6",
".b c #4949E0",
".n c None",
/* pixels */
".c ) ] $.c ].k.k Q.r A.; 8 D R.g",
".t.s k g.$ < Z f b # h H.@ o | 7",
" O + ( m.*.y @ ` E W l 9 n c.X  ",
" V & : / [.O F 5.& { 0 r P.3 3  ",
".: Y.x > * % G.  K - = N.5 d 4  ",
" O !.o L.f T.v X j x ' p.6.8 6  ",
".k _.1 B , ~ w M v u.4.6.9.0.=  ",
" 8.u.b ^., . C.>.2.4.6.9.0.e.d  ",
" ].z t.p.w.i.< i a.7 ;.q J z e  ",
" 1.l s.h U }.. 2.+.#.%.- q.> y  ",
" I.j.a S                        "
};
