/* XPM */
const char *icon_famfamfam_flags_sc[] = {
/* width height ncolors chars_per_pixel */
"16 11 157 2",
/* colors */
"   c #854D0F",
" . c #9799A8",
" X c #FCFB4B",
" o c #FCF94B",
" O c #000081",
" + c #A9A9A9",
" @ c #F62C2C",
" # c #F93B3C",
" $ c #F84848",
" % c #F73030",
" & c #F50000",
" * c #7979C9",
" = c #5F5FC0",
" - c #FB8B47",
" ; c #FA7D85",
" : c #FB8547",
" > c #71BD71",
" , c #000087",
" < c #FEFE74",
" 1 c #05012F",
" 2 c #F4F5F5",
" 3 c #FBFC49",
" 4 c #2B9525",
" 5 c #EF0000",
" 6 c #F62B2B",
" 7 c #CBEED3",
" 8 c #E0E06A",
" 9 c #FBFB00",
" 0 c #000079",
" q c #FB8C46",
" w c #2FA32F",
" e c #2CA12C",
" r c #F74949",
" t c #ECF5F3",
" y c #E90000",
" u c #FA4242",
" i c #7676C8",
" p c #F52626",
" a c #83570B",
" s c #159715",
" d c #F83736",
" f c #F6F6F6",
" g c #F4F4F4",
" h c #F2F2F2",
" j c #FA5C5C",
" k c #EEF0EE",
" l c #5C5CC2",
" z c #009500",
" x c #F93B3A",
" c c #008300",
" v c #FB6060",
" b c #A8DBAC",
" n c #FA9F44",
" m c #7B7BC9",
" M c #F64444",
" N c #FB9745",
" B c #FB9545",
" V c #D3E4D3",
" C c #006700",
" Z c #7272CA",
" A c #CFE6CF",
" S c #F85353",
" D c #005100",
" F c #000085",
" G c #FA4141",
" H c #004100",
" J c #F95757",
" K c #003D00",
" L c #003B00",
" P c #F95357",
" I c #003900",
" U c #F52525",
" Y c #003500",
" T c #003300",
" R c #002F00",
" E c #002D00",
" W c #002900",
" Q c #002700",
" ! c #002100",
" ~ c #F10000",
" ^ c #7979CD",
" / c #D6DB7C",
" ( c #FDFD00",
" ) c #FCF769",
" _ c #A1D2A1",
" ` c #E7CFCF",
" ' c #F74E4E",
" ] c #00008B",
" [ c #FCFA4B",
" { c #F6D6D7",
" } c #FDFD6D",
" | c #F93C3C",
".  c #F73A3A",
".. c #83C883",
".X c #F5C2C2",
".o c #EB0000",
".O c #F78B8C",
".+ c #FA4040",
".@ c #F4B7B7",
".# c #000091",
".$ c #F3F0F1",
".% c #5BB85B",
".& c #F83737",
".* c #EBE7DF",
".= c #FBFB49",
".- c #F93B3B",
".; c #42AE42",
".: c #FC9665",
".> c #3CA83C",
"., c #FBB267",
".< c #000083",
".1 c #39A639",
".2 c #7B7BCA",
".3 c #35A435",
".4 c #FA3F3F",
".5 c #32A432",
".6 c #FB8F46",
".7 c #DBDB68",
".8 c #FDFD51",
".9 c #F30000",
".0 c #FA4142",
".q c #C9C900",
".w c #F83636",
".e c #FDFD54",
".r c #F5F5F5",
".t c #000089",
".y c #F3F3F3",
".u c #F7E6ED",
".i c #F9B7B7",
".p c #F89B9F",
".a c #F93A3A",
".s c #E5E5E5",
".d c #D4D767",
".f c #F70700",
".g c #E3E3E3",
".h c #F56464",
".j c #FCF84C",
".k c #F62D2D",
".l c #ED0000",
".z c #919199",
".x c #F93C3D",
".c c #5C5CBB",
".v c #F9ED00",
".b c #FDFC50",
".n c #FCFC4F",
".m c #F73131",
".M c #F67575",
".N c #FDFD71",
".B c #8C8B97",
".V c #F45252",
".C c #B3D9B3",
".Z c #F83535",
".A c #E70000",
".S c #6161BC",
".D c #F5B2B2",
".F c #7070C4",
".G c None",
/* pixels */
".#.t.t ] O.q ( ( 9.v.f &.9 ~ 5.l",
" F.2.2 ^ + <.N } ).: v j J S '.o",
".t m =.S 8.e.8.j : u.x.&.m @ r y",
" , * l.z.e.8 o -.0 | d.m 6 p M.A",
" , i.c.7.b [ q G #.w % 6 U.V.D `",
".< Z.B.n X.6.+.-.w %.k.h.@.$ 2.s",
" O.F.d 3 B.+ x.Z. .M.X g.y h g.g",
" F ..= N.4.a $.O {.r g.y k V.C c",
" 0 / n.4 P.p.u f t A _ >.> s w !",
" 1., ;.i.* 7 b...%.;.1.3.5 w e Q",
"   a 4 z C D H K L K I T R E W Y"
};
