/* XPM */
const char *icon_famfamfam_flags_sd[] = {
/* width height ncolors chars_per_pixel */
"16 11 137 2",
/* colors */
"   c #000000",
" . c #F62C2C",
" X c #FC4C4C",
" o c #F50000",
" O c #79C979",
" + c #FBECEC",
" @ c #F9EAEA",
" # c #6AC36A",
" $ c #0F0F0E",
" % c #545455",
" & c #62B162",
" * c #78B271",
" = c #53B953",
" - c #5CA95C",
" ; c #F4F5F5",
" : c #FB4747",
" > c #4FB74F",
" , c #EF0000",
" < c #49B549",
" 1 c #54A154",
" 2 c #539F53",
" 3 c #F8E9E8",
" 4 c #5D615D",
" 5 c #F5E5E5",
" 6 c #FC6565",
" 7 c #FD0000",
" 8 c #F74949",
" 9 c #FBEFEE",
" 0 c #FE7474",
" q c #E90000",
" w c #FA4242",
" e c #4B4B4B",
" r c #FAFAFA",
" t c #F8F8F8",
" y c #F6F6F6",
" u c #F4F4F4",
" i c #F2F2F2",
" p c #FA5C5C",
" a c #3D3D3D",
" s c #393939",
" d c #008F00",
" f c #353535",
" g c #008B00",
" h c #E6E6E6",
" j c #DEF2DE",
" k c #008700",
" l c #E4E4E4",
" z c #008300",
" x c #E2E2E2",
" c c #FB6060",
" v c #007F00",
" b c #F70000",
" n c #2F2F2F",
" m c #E0E0E0",
" M c #007B00",
" N c #007900",
" B c #70AF6B",
" V c #FE5959",
" C c #006D00",
" Z c #292929",
" A c #F85353",
" S c #232323",
" D c #FDEEEF",
" F c #F95757",
" G c #003D00",
" H c #F6E8E8",
" J c #131313",
" K c #0B0B0B",
" L c #F10000",
" P c #FD5454",
" I c #F74E4E",
" U c #FE7979",
" Y c #FF0000",
" T c #FCEDED",
" R c #EB0000",
" E c #FAEBEB",
" W c #FD7071",
" Q c #76C876",
" ! c #6FC46F",
" ~ c #66C266",
" ^ c #FC5E5C",
" / c #68B068",
" ( c #195F00",
" ) c #5CC25C",
" _ c #FC6969",
" ` c #58BC58",
" ' c #F8FAF9",
" ] c #F83737",
" [ c #54BC54",
" { c #F90000",
" } c #4BB44B",
" | c #49B649",
".  c #FD6D6D",
".. c #7BCF7A",
".X c #E7C7C7",
".o c #F7E8E7",
".O c #F6E6E6",
".+ c #E0F4E4",
".@ c #585858",
".# c #F30000",
".$ c #505050",
".% c #181919",
".& c #FBFBFB",
".* c #F9F9F9",
".= c #464646",
".- c #F7F7F7",
".; c #F5F5F5",
".: c #FE7777",
".> c #424242",
"., c #F3F3F3",
".< c #3F463F",
".1 c #3A3A3A",
".2 c #EBEBEB",
".3 c #E9EBE9",
".4 c #E9E9E9",
".5 c #E7E7E7",
".6 c #343434",
".7 c #323232",
".8 c #E3E3E3",
".9 c #E1E1E1",
".0 c #2E2E2E",
".q c #ED0000",
".w c #2C2C2C",
".e c #F93C3D",
".r c #FC7D7B",
".t c #F73131",
".y c #1E1E1E",
".u c #CFCFCF",
".i c #CDCDCD",
".p c #CBCBCB",
".a c #72C673",
".s c #FD5151",
".d c #90BF8A",
".f c #FB0000",
".g c #BDBDBD",
".h c #6EAC6F",
".j c None",
/* pixels */
" ( Y Y Y 7 7 7 7.f { b o.# L ,.q",
" d.d.r U.: 0 W.  _ 6 c p F A I R",
" g.. * ^ V P.s X : w.e ].t . 8 q",
" k O ) B 9 D T + E @ 3.o.O 5 H.X",
" k Q ` [ /.+.& r.* t.- y.; u.;.u",
" z.a = > } - '.* t.- y.; u., ;.i",
" v ! > < & j.* t.- y.; u., i u.p",
" M # | 1.3.2.4.5 h l.8 x.9 m.8.g",
" N ~ 2.<.1.6.0 Z S.y.% J $ K n  ",
" C.h 4.@ %.$ e.=.> a s f.7 n.w  ",
" G                              "
};
