/* XPM */
const char *icon_famfamfam_flags_se[] = {
/* width height ncolors chars_per_pixel */
"16 11 144 2",
/* colors */
"   c #5093AE",
" . c #F4CA1F",
" X c #001963",
" o c #F9D43B",
" O c #5896C3",
" + c #E58B00",
" @ c #5899B9",
" # c #F4CE36",
" $ c #FCD94B",
" % c #448CAF",
" & c #267AA2",
" * c #002169",
" = c #2F7DA4",
" - c #619EBE",
" ; c #F3C91A",
" : c #6DA7C3",
" > c #FEE274",
" , c #F6CE2A",
" < c #3181A9",
" 1 c #337BAB",
" 2 c #7BB0CA",
" 3 c #F9D33A",
" 4 c #3D88AE",
" 5 c #F7D02E",
" 6 c #FEE477",
" 7 c #00276F",
" 8 c #6AA5C3",
" 9 c #EDA100",
" 0 c #ED9D00",
" q c #1469A0",
" w c #468DB0",
" e c #297BA4",
" r c #FEDD59",
" t c #1F70A4",
" y c #3784AB",
" u c #FDE16F",
" i c #478FB4",
" p c #003375",
" a c #2377A1",
" s c #F8D235",
" d c #00003D",
" f c #3180A8",
" g c #F7D64B",
" h c #FBD745",
" j c #5D9DBC",
" k c #0F6A97",
" l c #E78F00",
" z c #5C9BBB",
" x c #FDDC54",
" c c #FEE376",
" v c #2C7CA6",
" b c #2B7CA5",
" n c #5C9DBE",
" m c #F9D43C",
" M c #F2C714",
" N c #F5CC24",
" B c #FAD640",
" V c #428AAE",
" C c #FDDB50",
" Z c #004381",
" A c #FDE271",
" S c #000553",
" D c #2C7BA2",
" F c #3D86AC",
" G c #00276D",
" H c #F6CE2B",
" J c #2F7FA8",
" K c #498FB1",
" L c #000021",
" P c #F4CB1F",
" I c #79AEC9",
" U c #0B6795",
" Y c #3C88AE",
" T c #5898B9",
" R c #F7D02F",
" E c #000D59",
" W c #FDC100",
" Q c #FDBF00",
" ! c #66A3C0",
" ~ c #FDBD00",
" ^ c #4991B4",
" / c #FDBB00",
" ( c #FAD53F",
" ) c #10659D",
" _ c #002F73",
" ` c #002D73",
" ' c #00003B",
" ] c #5396B7",
" [ c #F9D955",
" { c #000027",
" } c #619FBE",
" | c #136C99",
".  c #2F7CA4",
".. c #428BB0",
".X c #F8D236",
".o c #196CA2",
".O c #FBD746",
".+ c #5F9FBF",
".@ c #F9D43A",
".# c #000041",
".$ c #69A4C2",
".% c #F8D850",
".& c #4C92B6",
".* c #00002D",
".= c #FBD949",
".- c #E38700",
".; c #00417F",
".: c #327FA6",
".> c #F5CC25",
"., c #458EB2",
".< c #FAD641",
".1 c #448EB1",
".2 c #F3C919",
".3 c #000047",
".4 c #2478A2",
".5 c #F4D03B",
".6 c #FDDB51",
".7 c #000033",
".8 c #FEE273",
".9 c #4E93B4",
".0 c #7BB0C9",
".q c #00001F",
".w c #F5D23F",
".e c #3F8AAF",
".r c #1E749F",
".t c #3984A9",
".y c #F4CB20",
".u c #2A7BA4",
".i c #00004D",
".p c #FEDD58",
".a c #000039",
".s c #F7D030",
".d c #3582A8",
".f c #18709C",
".g c #65A1C0",
".h c #EB9900",
".j c #000025",
".k c #FAD540",
".l c #00135D",
".z c #F8D234",
".x c #FCDA4F",
".c c #428BB1",
".v c #FDDC53",
".b c None",
/* pixels */
" Z Z Z Z W Q ~ p ` G * X.l E S.i",
" Z 2 2 I 6 > A :.$.g - z T ].9.3",
" Z.0.+ n r x.6.& i.c 4 y < v K.#",
".; I n O x.6 $  .. Y y f b & % '",
" W c.p x C $.O.< m.X.s H.>.y.w l",
" ~.8.v.x $.O B o.X.s H.> P ;.5 +",
" / u.x.= h.k.@ s R , N ..2 M #.-",
" _ 8 ^., (.@.z J.u.4 t.o q ) 1 d",
" 7 !.1.e 3.z 5 e a.r.f | k U = L",
" * } j @ [.% g w V F.t.d.:.  D.q",
" X.l E S 9 0.h d.a.7.* {.j L.q.q"
};
