/* XPM */
const char *icon_famfamfam_flags_sk[] = {
/* width height ncolors chars_per_pixel */
"16 11 153 2",
/* colors */
"   c #FDF5F5",
" . c #E17F8E",
" X c #BF0000",
" o c #FBF3F3",
" O c #FBF1F3",
" + c #F9EFF1",
" @ c #F7EFEF",
" # c #F5EBED",
" $ c #F7585B",
" % c #F3E9EB",
" & c #ACB7EE",
" * c #F1E7E9",
" = c #3F59D9",
" - c #EDE3E5",
" ; c #EBE1E3",
" : c #3855D2",
" > c #F58F94",
" , c #8594E2",
" < c #E7DDDF",
" 1 c #F50000",
" 2 c #CC314B",
" 3 c #FB8986",
" 4 c #E10000",
" 5 c #F69EA2",
" 6 c #FC6666",
" 7 c #8997DF",
" 8 c #D7C2D9",
" 9 c #FDFDFE",
" 0 c #D03B55",
" q c #FE6361",
" w c #DDC5D8",
" e c #F17B7F",
" r c #FA5D5D",
" t c #EF0000",
" y c #6B75D5",
" u c #7A8ADD",
" i c #4561D7",
" p c #CA2C48",
" a c #F21313",
" s c #F95455",
" d c #6B6ECE",
" f c #E90000",
" g c #F95858",
" h c #FEFEFE",
" j c #5973DD",
" k c #FCFCFC",
" l c #FAFAFA",
" z c #F8F8F8",
" x c #F6F6F6",
" c c #FDF3F3",
" v c #7D7ED2",
" b c #6076DD",
" n c #D24059",
" m c #435AD1",
" M c #EF6972",
" N c #EFE5E5",
" B c #3C59D4",
" V c #F70000",
" C c #F72E2E",
" Z c #F48B91",
" A c #4D63D4",
" S c #4C63D3",
" D c #E30000",
" F c #7687DB",
" G c #849BEC",
" H c #8399EB",
" J c #566AD6",
" K c #F22C2C",
" L c #8675C3",
" P c #5166D4",
" I c #F10000",
" U c #7E8EDF",
" Y c #F62929",
" T c #DD0000",
" R c #FDDEDE",
" E c #FC6560",
" W c #F23232",
" Q c #8D0000",
" ! c #8298E9",
" ~ c #0323C9",
" ^ c #FB6162",
" / c #EB0000",
" ( c #7078D4",
" ) c #485ED1",
" _ c #F0ADB3",
" ` c #CE3650",
" ' c #001FC9",
" ] c #E1778A",
" [ c #405DD6",
" { c #C7233F",
" } c #F90000",
" | c #5167D6",
".  c #0003B5",
".. c #F48B8F",
".X c #E50000",
".o c #F64242",
".O c #FD8584",
".+ c #FDF5F7",
".@ c #8898E4",
".# c #F33535",
".$ c #001FCF",
".% c #F74646",
".& c #F5EDEF",
".* c #FDCDCC",
".= c #F52323",
".- c #5E71D5",
".; c #F43939",
".: c #D2C1DD",
".> c #F30000",
"., c #FFFFFF",
".< c #DF0000",
".1 c #FDFDFD",
".2 c #F53D3D",
".3 c #FBFBFB",
".4 c #00009D",
".5 c #E0B3C3",
".6 c #F10B0B",
".7 c #F9F9F9",
".8 c #566EDA",
".9 c #5B6FD5",
".0 c #546ED8",
".q c #F7F7F7",
".w c #4D69DB",
".e c #4A65D8",
".r c #E68694",
".t c #F16C74",
".y c #C92843",
".u c #F10F0E",
".i c #F85050",
".p c #FCDEDE",
".a c #909AE1",
".s c #526CD9",
".d c #F41E1E",
".f c #FDEDEC",
".g c #ED0000",
".h c #0000A3",
".j c #FCE2E1",
".k c #3E57CF",
".l c #F69096",
".z c #F3747C",
".x c #8291E0",
".c c #CE435B",
".v c #485ED2",
".b c #F74B4B",
".n c #F31919",
".m c #F22F2F",
".M c #FA4444",
".N c #FA7472",
".B c #FA5A5B",
".V c #F95A5A",
".C c #E70000",
".Z c #425ACF",
".A c None",
/* pixels */
".+         c o O + @.& # % * N -",
".+.,., h h h 9.1 k k.3 l.7 z.q ;",
"  ., 5.l > Z.. k.3 l.7 z.q x.q <",
" = &.z q R.O.B.a.@ ,.x U u F 7. ",
" ~ G.t.*.f.j $ v.8 J P S ).Z.-.4",
" ' H M E.p 3.V (.s | A.v m.k.9.4",
".$ !.: L y d.5 j.w.e i [ B :.0.h",
" X ].r w b 8 . n 0 ` 2 p.y {.c Q",
" } 6.M.N _ e C Y.=.d.n a.u.6.m.<",
" V ^ r g s.i.b.%.o.2.;.# W.m K T",
" 1.> I t.g.g / f.C.X D 4.< T T T"
};
