/* XPM */
const char *icon_famfamfam_flags_sm[] = {
/* width height ncolors chars_per_pixel */
"16 11 135 2",
/* colors */
"   c #F1F7FD",
" . c #8EB881",
" X c #75A265",
" o c #92B071",
" O c #60ACF9",
" + c #0039E7",
" @ c #9CB974",
" # c #406D9E",
" $ c #94C6F7",
" % c #469CF3",
" & c #56A4F2",
" * c #9B9269",
" = c #004DED",
" - c #6CB2F7",
" ; c #FDFDFE",
" : c #65AFFA",
" > c #0047ED",
" , c #E9CE70",
" < c #DDE7EF",
" 1 c #5FA9F4",
" 2 c #75B7F9",
" 3 c #53A2F2",
" 4 c #6DB4FB",
" 5 c #D5DBE7",
" 6 c #90A9AD",
" 7 c #7DBCFA",
" 8 c #005DF3",
" 9 c #76B9FD",
" 0 c #65AEF6",
" q c #91C1B4",
" w c #58A5F3",
" e c #72B7FC",
" r c #86BCB3",
" t c #DDC895",
" y c #006FF9",
" u c #FEFEFE",
" i c #0027DF",
" p c #0025DF",
" a c #FDFCFD",
" s c #FCFCFC",
" d c #0021DF",
" f c #FAFAFA",
" g c #61ACF5",
" h c #F8F8F8",
" j c #F6F6F6",
" k c #F4F4F4",
" l c #BDAB68",
" z c #8BC4FD",
" x c #4099F2",
" c c #DFB65B",
" v c #0033E5",
" b c #002FE5",
" n c #75A466",
" m c #3D97F2",
" M c #3C97F1",
" N c #EDF3FD",
" B c #59A6F3",
" V c #4893D5",
" C c #459EF3",
" Z c #459CF3",
" A c #84C0FC",
" S c #0041EB",
" D c #DFE7EF",
" F c #D9E1E9",
" G c #55A4F2",
" H c #D7DFE7",
" J c #64AFFA",
" K c #419AF2",
" L c #80BEFB",
" P c #DAB25F",
" I c #0059F1",
" U c #4A9FF4",
" Y c #BFAC58",
" T c #68B0F7",
" R c #88C3FC",
" E c #659DD3",
" W c #8AC0F4",
" Q c #69B2FB",
" ! c #0069F7",
" ~ c #0021DD",
" ^ c #001FDD",
" / c #FAFAF8",
" ( c #C1B96A",
" ) c #71B7FC",
" _ c #4FA2F5",
" ` c #8EC6FE",
" ' c #7EB3E1",
" ] c #E2D09E",
" [ c #60AAF5",
" { c #59A9F8",
" } c #558D48",
" | c #007BFD",
".  c #0077FD",
".. c #6EB5FC",
".X c #6DB5FB",
".o c #002DE3",
".O c #002BE3",
".+ c #F1F9FF",
".@ c #F1F7FF",
".# c #EFF5FD",
".$ c #5CA8F4",
".% c #5BA8F3",
".& c #EDF1FB",
".* c #EBF1F9",
".= c #E9EFF7",
".- c #71B4F8",
".; c #E7EDF5",
".: c #69B1FA",
".> c #E5EBF3",
"., c #E3E9F1",
".< c #FBFBF8",
".1 c #003DE9",
".2 c #DDE3EB",
".3 c #79B9F9",
".4 c #C2B160",
".5 c #FFFFFF",
".6 c #FDFDFD",
".7 c #FBFBFB",
".8 c #F9F9F9",
".9 c #F7F7F7",
".0 c #3895F1",
".q c #F5F5F5",
".w c #0053EF",
".e c #AF9D64",
".r c #0063F5",
".t c #A3CCD2",
".y c #6AACD2",
".u c #459DF3",
".i c #FAFAF9",
".p c #E9CD6E",
".a c #47739F",
".s c #0073FB",
".d c #0029E1",
".f c #4199F2",
".g c None",
/* pixels */
".+.@.@.@  .#.# N.&.*.=.;.>., D <",
".@.5.5 u u u ;.6 s s.7 f.8 h.9.2",
".@.5 u u u.6.6.<.i f.8 h.9 j.9 F",
".@ u u u.6.6 / ,.p.8 h.9 j.q j H",
"   u u.6 a . ] c P t X j.q k.q 5",
" | ` 9 e...t l q r.e 6 _ U % [ b",
".  z ).X Q n ( @ o * } U Z K.$.O",
".s R 4 Q :.y '.4 Y E V C.f m B i",
" y A.: J O { $.a # W.u x M.0 & d",
" ! L 7.3 2.- - T 0 g 1.% w G 3 ^",
".r 8 I.w = > S.1 + v.o.d p ~ ^ ^"
};
