/* XPM */
const char *icon_famfamfam_flags_sn[] = {
/* width height ncolors chars_per_pixel */
"16 11 153 2",
/* colors */
"   c #F7F72F",
" . c #F62C2C",
" X c #F7F746",
" o c #9ED441",
" O c #F4F239",
" + c #E7F336",
" @ c #F50000",
" # c #79C979",
" $ c #F21414",
" % c #FAFA42",
" & c #E10000",
" * c #F8F736",
" = c #6AC36A",
" - c #F6F62A",
" ; c #5FBF5F",
" : c #5CBD5C",
" > c #F9F93A",
" , c #58B958",
" < c #54B954",
" 1 c #53B953",
" 2 c #50B750",
" 3 c #F33232",
" 4 c #4FB74F",
" 5 c #8CCE35",
" 6 c #EF0000",
" 7 c #4BB54B",
" 8 c #F62B2B",
" 9 c #49B549",
" 0 c #44B144",
" q c #FBFA60",
" w c #3FAF3F",
" e c #F43636",
" r c #7BCA7A",
" t c #FBDF00",
" y c #FBDD00",
" u c #F21313",
" i c #F9F940",
" p c #E7D900",
" a c #F7F834",
" s c #97D13C",
" d c #F74949",
" f c #E90000",
" g c #F52626",
" h c #FA5C5C",
" j c #FCFD74",
" k c #EFF646",
" l c #008100",
" z c #007F00",
" x c #007D00",
" c c #007B00",
" v c #F5F424",
" b c #007700",
" n c #F64444",
" m c #007300",
" M c #E30000",
" N c #006F00",
" B c #006900",
" V c #F85353",
" C c #006300",
" Z c #005D00",
" A c #005900",
" S c #005300",
" D c #004D00",
" F c #F22C2C",
" G c #B1DE30",
" H c #F95757",
" J c #F52525",
" K c #F43B3B",
" L c #F10000",
" P c #FAFA46",
" I c #DD0000",
" U c #F6F642",
" Y c #F53F3F",
" T c #F8F93A",
" R c #F74E4E",
" E c #54B755",
" W c #F23232",
" Q c #FCFC4B",
" ! c #F5F523",
" ~ c #FDE100",
" ^ c #F7F750",
" / c #FDDF00",
" ( c #FDFD6D",
" ) c #E9DB00",
" _ c #F42020",
" ` c #EFF62A",
" ' c #7BCA7B",
" ] c #F3F524",
" [ c #79C879",
" { c #EB0000",
" } c #77C877",
" | c #76C876",
".  c #55B63B",
".. c #82C82F",
".X c #F5F53D",
".o c #6FC46F",
".O c #FCF265",
".+ c #66C066",
".@ c #F4F41E",
".# c #F7D700",
".$ c #5CBE5C",
".% c #5DBC5D",
".& c #59BC59",
".* c #58BC58",
".= c #F83737",
".- c #54BA54",
".; c #F7F72E",
".: c #E3D100",
".> c #FCFC54",
"., c #E50000",
".< c #49B449",
".1 c #F21010",
".2 c #F9F83D",
".3 c #45B245",
".4 c #C3E440",
".5 c #F41F1F",
".6 c #F33535",
".7 c #3AAC3A",
".8 c #FAFB4B",
".9 c #F3F119",
".0 c #FDFD51",
".q c #F6F629",
".w c #F30000",
".e c #F7F74B",
".r c #F8FA42",
".t c #DF0000",
".y c #F10B0B",
".u c #F31A1A",
".i c #F9F93C",
".p c #EBDD00",
".a c #F10F0E",
".s c #40AF3F",
".d c #F7F630",
".f c #FCFC4C",
".g c #ED0000",
".h c #F8F834",
".j c #48B136",
".k c #F73131",
".l c #FDFD71",
".z c #F9DB00",
".x c #72C673",
".c c #E5D700",
".v c #F6F52B",
".b c #FBFC51",
".n c #F31919",
".m c #F22F2F",
".M c #FBFB47",
".N c #61BE62",
".B c #F4F21F",
".V c #E70000",
".C c #58BC59",
".Z c #FCF469",
".A c None",
/* pixels */
" l l l l z t ~ / y.z.# @.w L 6.g",
" l ' ' # } j.l (.Z.O q h H V R {",
" l r ;.$.&.>.0.f.M %.2.=.k . d f",
" z [ :.C.-.b Q.M.r.i *.k 8 g n.V",
" x |.* < 2.8 k o s +.d 8 J _ Y.V",
" c.x 1 4 7 P.4. .j G.v J.5.u K.,",
" b.o 4 9.3 i > 5.. ` v.5.n $ e M",
" m =.<.3.s T.h   - ].B.n $.1 3.t",
" N.+ 0 w.7 a.;.q !.@.9 u.a.y.m.t",
" B.N.% , E ^.e X U.X O.6 W.m F I",
" C Z A S D.p.p ) p.c.: &.t I I I"
};
