/* XPM */
const char *icon_famfamfam_flags_so[] = {
/* width height ncolors chars_per_pixel */
"16 11 157 2",
/* colors */
"   c #79BCFE",
" . c #94C9FE",
" X c #E1ECF7",
" o c #63B0FC",
" O c #60ACF9",
" + c #0045E7",
" @ c #0041E7",
" # c #003FE7",
" $ c #7CBBFA",
" % c #469CF3",
" & c #D7E9FA",
" * c #0F85FF",
" = c #0D87FD",
" - c #56A4F2",
" ; c #0057ED",
" : c #0051ED",
" > c #6CB2F7",
" , c #65AFFA",
" < c #5FA9F4",
" 1 c #75B7F9",
" 2 c #53A2F2",
" 3 c #6DB4FB",
" 4 c #4B9FF4",
" 5 c #90C4F9",
" 6 c #8AC3FD",
" 7 c #69B0F7",
" 8 c #0067F3",
" 9 c #0783FD",
" 0 c #7DBCFA",
" q c #76B9FD",
" w c #65AEF6",
" e c #5FADFA",
" r c #81BBF7",
" t c #58A5F3",
" y c #73B7FD",
" u c #72B7FC",
" i c #51A4F6",
" p c #50A2F5",
" a c #0077F9",
" s c #0031DF",
" d c #0075F9",
" f c #002FDF",
" g c #002DDF",
" h c #469DF5",
" j c #59A9F7",
" k c #4EA2F6",
" l c #BEDAF7",
" z c #8BC4FD",
" x c #AED4FB",
" c c #4099F2",
" v c #003DE5",
" b c #003BE5",
" n c #6BB3FB",
" m c #1187FF",
" M c #D8E9F9",
" N c #B2D5F8",
" B c #0F87FD",
" V c #7FBFFE",
" C c #3D97F2",
" Z c #3C97F1",
" A c #55A7F9",
" S c #59A6F3",
" D c #9BC9F5",
" F c #004DEB",
" G c #67B1FA",
" H c #459CF3",
" J c #84C0FC",
" K c #7CBDFE",
" L c #5BAAF8",
" P c #55A4F2",
" I c #70B6FC",
" U c #8DC5FE",
" Y c #64AFFA",
" T c #419AF2",
" R c #80BEFB",
" E c #0063F1",
" W c #95CAFF",
" Q c #94C8FE",
" ! c #E2EDF8",
" ~ c #4A9FF4",
" ^ c #88C3FC",
" / c #8CC0F6",
" ( c #54A6F7",
" ) c #0035DD",
" _ c #91C8FE",
" ` c #69B2FB",
" ' c #002DDD",
" ] c #0071F7",
" [ c #006FF7",
" { c #0029DD",
" } c #0027DD",
" | c #5DABF9",
".  c #F1F5F9",
".. c #037FFD",
".X c #F0F3F8",
".o c #71B7FC",
".O c #4FA2F5",
".+ c #8EC6FE",
".@ c #60AAF5",
".# c #7ABCFE",
".$ c #57A7F6",
".% c #0039E3",
".& c #007DFD",
".* c #0035E3",
".= c #6DB5FB",
".- c #98C8F7",
".; c #6DB3FB",
".: c #1389FF",
".> c #68AFF6",
"., c #5CA8F4",
".< c #5BA8F3",
".1 c #76BAFD",
".2 c #54A5F6",
".3 c #71B4F8",
".4 c #70B4F7",
".5 c #49A0F5",
".6 c #69B1FA",
".7 c #004BE9",
".8 c #86C2FC",
".9 c #0047E9",
".0 c #64ADF5",
".q c #79B9F9",
".w c #2191FF",
".e c #8FC7FE",
".r c #6DB2F7",
".t c #459CF4",
".y c #AED3F8",
".u c #0B83FD",
".i c #59A8F7",
".p c #0061EF",
".a c #3895F1",
".s c #005DEF",
".d c #70B6FD",
".f c #75B7F8",
".g c #C1DDFA",
".h c #4DA1F5",
".j c #B8DAFB",
".k c #ADD3FA",
".l c #55A6F6",
".z c #7AB8F6",
".x c #6CB4FC",
".c c #0075F5",
".v c #006DF5",
".b c #5EABF8",
".n c #0581FD",
".m c #469DF4",
".M c #62ACF5",
".N c #7CBEFE",
".B c #5BA9F8",
".V c #71B7FD",
".C c #007BFB",
".Z c #0079FB",
".A c #0033E1",
".S c #63AEF9",
".D c #4199F2",
".F c #A6D1FC",
".G c None",
/* pixels */
".w.:.:.: B.u.n.&.Z d ].v 8 E.s.p",
" * W W . _.e U 6.8 J R $.q.f.4 F",
".: W V.N.#.1 y I n G.S.b j.l >.7",
" m Q K  .1.V o x.k A L.i.2 p.> +",
" = _   q.d.F.j & M N.- i.O 4.0 #",
" 9.+ q u.x.;.g. .X l.$.h ~ %.@ b",
".. z.o.= ` e 5 ! X / h ~ H T.,.*",
".C ^ 3 ` , |.y r.z D.t H.D C S s",
" a J.6 Y O.B ( k.5.m % c Z.a - g",
" [ R 0.q 1.3.r 7 w.M <.< t P 2 }",
".c 8 E.s ; : F.9 @ v.%.A f ' { )"
};
