/* XPM */
const char *icon_famfamfam_flags_st[] = {
/* width height ncolors chars_per_pixel */
"16 11 168 2",
/* colors */
"   c #F4F436",
" . c #13980B",
" X c #CC7F62",
" o c #E6ED32",
" O c #FE5958",
" + c #EEF551",
" @ c #95BF00",
" # c #E2EA10",
" $ c #7BCD7B",
" % c #F50000",
" & c #B7D100",
" * c #5CBD59",
" = c #FC504F",
" - c #58B955",
" ; c #40AF3A",
" : c #54B951",
" > c #F6F62A",
" , c #A09E2F",
" < c #4CB349",
" 1 c #F9F93A",
" 2 c #1C9D13",
" 3 c #F4F42B",
" 4 c #FC654B",
" 5 c #E5ED26",
" 6 c #9DC700",
" 7 c #AEAB3C",
" 8 c #5CBA58",
" 9 c #F4F53B",
" 0 c #EEF43F",
" q c #57B853",
" w c #FD0000",
" e c #52B64E",
" r c #35AA2E",
" t c #E7EE24",
" y c #F46349",
" u c #46B242",
" i c #F5F53F",
" p c #46AE42",
" a c #41B03D",
" s c #2AA423",
" d c #AD0000",
" f c #F4F420",
" g c #20A019",
" h c #EBEA2B",
" j c #009300",
" k c #F7F730",
" l c #008900",
" z c #008700",
" x c #008300",
" c c #008100",
" v c #E9F136",
" b c #007D00",
" n c #ECF22F",
" m c #F19659",
" M c #007900",
" N c #007500",
" B c #007300",
" V c #007100",
" C c #FD6F6F",
" Z c #FAFA40",
" A c #006D00",
" S c #006700",
" D c #EDF447",
" F c #006300",
" G c #006100",
" H c #005D00",
" J c #E6E51F",
" K c #E07766",
" L c #005700",
" P c #BB0000",
" I c #005100",
" U c #004F00",
" Y c #004D00",
" T c #004700",
" R c #004100",
" E c #003D00",
" W c #003900",
" Q c #FD8054",
" ! c #003500",
" ~ c #003300",
" ^ c #AAA730",
" / c #002F00",
" ( c #002D00",
" ) c #002900",
" _ c #002700",
" ` c #EBF234",
" ' c #3EAB39",
" ] c #3AA935",
" [ c #EBF12A",
" { c #36AB31",
" } c #34A52F",
" | c #FC6A6A",
".  c #FE7979",
".. c #FCFC4B",
".X c #7CCA79",
".o c #FD9350",
".O c #7AC877",
".+ c #77C874",
".@ c #74C671",
".# c #70C46D",
".$ c #F5755C",
".% c #E6ED14",
".& c #FF0000",
".* c #FC6D4F",
".= c #5FC05C",
".- c #45B43F",
".; c #F8F836",
".: c #E8EF44",
".> c #EAF23C",
"., c #53B650",
".< c #FBFB46",
".1 c #424236",
".2 c #5DC05D",
".3 c #2E2E1F",
".4 c #FD5353",
".5 c #179A0E",
".6 c #8C8A25",
".7 c #E86E5F",
".8 c #F90000",
".9 c #E50000",
".0 c #BBD500",
".q c #6DC369",
".w c #ECF33A",
".e c #69C165",
".r c #A4A125",
".t c #E7F02B",
".y c #60BD5C",
".u c #F0EF41",
".i c #58BB54",
".p c #F08845",
".a c #99983B",
".s c #50B74C",
".d c #3BAD34",
".f c #4FB34B",
".g c #4BB547",
".h c #36A72F",
".j c #4AB146",
".k c #EDF44B",
".l c #B5D100",
".z c #30A729",
".x c #E6EE19",
".c c #959319",
".v c #EE857B",
".b c #FB7749",
".n c #25A11E",
".m c #EBEA35",
".M c #36A732",
".N c #F2F214",
".B c #30A72C",
".V c #F4827A",
".C c #F5F524",
".Z c #F0F654",
".A c #BA6F44",
".S c #65BE60",
".D c #E6EE1F",
".F c #FB8C45",
".G c #5CBA57",
".H c #FE7273",
".J c #F7F740",
".K c #42AE3D",
".L c #FB0000",
".P c #3CAE37",
".I c #FE7676",
".U c #E8F131",
".Y c #9E9B1A",
".T c #31A42C",
".R c #ECF442",
".E c None",
/* pixels */
" P j l l z x c b M N V A S F H G",
" %.v $.X.O.+.@.#.q.e.S.y.G q e Y",
".&.V.7.= *.i :.s.g u a.P {.B < U",
".&. .$ m.Z +.k D.R.> v.U.t 5.: 6",
" w.I O Q.o...<.u 7.; k h.r f i.0",
" w.H.4.* 4.<.J.a.1 ^ 3.6.3.Y 9 &",
" w C =.b.F Z 1.m , >.C J.c.N  .l",
".L | y.p 0.w ` n [ t.D.x.% # o @",
".8 K.A.- ;.d r.z s.n g 2.5 ..h ~",
".9 X.2 8 -.,.f.j p.K ' ].M }.T _",
" d B F H L I Y T R E W ~ / ( ) !"
};
