/* XPM */
const char *icon_famfamfam_flags_sy[] = {
/* width height ncolors chars_per_pixel */
"16 11 108 2",
/* colors */
"   c #000000",
" . c #F62C2C",
" X c #FC4C4C",
" o c #97D39A",
" O c #F50000",
" + c #0F0F0E",
" @ c #545455",
" # c #F4F5F5",
" $ c #FB4747",
" % c #EF0000",
" & c #A3DAA5",
" * c #9DD69F",
" = c #9DD49F",
" - c #F3FBF7",
" ; c #5D5D5D",
" : c #FC6565",
" > c #80C882",
" , c #FD0000",
" < c #F74949",
" 1 c #FE7474",
" 2 c #E90000",
" 3 c #FA4242",
" 4 c #FEFEFE",
" 5 c #4B4B4B",
" 6 c #FCFCFC",
" 7 c #FBFCFB",
" 8 c #FAFAFA",
" 9 c #F8F8F8",
" 0 c #F6F6F6",
" q c #F4F4F4",
" w c #F2F2F2",
" e c #3F3F3F",
" r c #FA5C5C",
" t c #3D3D3D",
" y c #393939",
" u c #E1F0E1",
" i c #353535",
" p c #F3F8F6",
" a c #95D396",
" s c #FB6060",
" d c #F70000",
" f c #2F2F2F",
" g c #FE5959",
" h c #292929",
" j c #F85353",
" k c #232323",
" l c #F95757",
" z c #131313",
" x c #F1F9F0",
" c c #FE5F5F",
" v c #66BF67",
" b c #0B0B0B",
" n c #F10000",
" m c #FD5454",
" M c #F4FBF6",
" N c #F74E4E",
" B c #FF7B7A",
" V c #FE7979",
" C c #EDEFEF",
" Z c #E9F3EB",
" A c #FF0000",
" S c #EB0000",
" D c #616162",
" F c #FD7071",
" G c #FC6969",
" H c #F83737",
" J c #F90000",
" K c #A7DBA9",
" L c #FD6D6D",
" P c #666666",
" I c #585858",
" U c #F30000",
" Y c #505050",
" T c #181919",
" R c #FDFDFD",
" E c #FBFBFB",
" W c #F9F9F9",
" Q c #F5FBF5",
" ! c #464646",
" ~ c #F7F7F7",
" ^ c #444444",
" / c #F5F5F5",
" ( c #FE7777",
" ) c #424242",
" _ c #F3F3F3",
" ` c #F1F1F1",
" ' c #EFEFEF",
" ] c #EDEDED",
" [ c #3A3A3A",
" { c #343434",
" } c #FF7B7B",
" | c #323232",
".  c #52B554",
".. c #2E2E2E",
".X c #ED0000",
".o c #2C2C2C",
".O c #F93C3D",
".+ c #D7D7D7",
".@ c #D5D5D5",
".# c #85CA86",
".$ c #D1D1D1",
".% c #F73131",
".& c #1E1E1E",
".* c #CFCFCF",
".= c #FE5C5C",
".- c #FD5151",
".; c #FB0000",
".: c None",
/* pixels */
" A A A A , , , ,.; J d O U n %.X",
" A } } V ( 1 F L G : s r l j N S",
" A B c.= g m.- X $ 3.O H.% . < 2",
" ` 4 4 4 R R 6 E 8 W 9 ~ 0 / 0.+",
" ` 4 4 R M K - 8 W p o Z / q /.@",
" ' 4 R 6 & v * W 9 =.  > q _ #.$",
" C R 6 7 Q a x 9 ~ 0.# u _ w q.$",
" ] 6 E E 8 W 9 ~ 0 / q _ w w _.*",
"   P ^ e [ {.. h k.& T z + b f  ",
"   D ; I @ Y 5 ! ) t y i | f.o  ",
"                                "
};
