/* XPM */
const char *icon_famfamfam_flags_sz[] = {
/* width height ncolors chars_per_pixel */
"16 11 169 2",
/* colors */
"   c #8F8B89",
" . c #390000",
" X c #BF5C5C",
" o c #F7CB82",
" O c #F3BA5D",
" + c #3B7DC1",
" @ c #CC7979",
" # c #003191",
" $ c #A39C99",
" % c #798DB5",
" & c #AECBDF",
" * c #C7AEAF",
" = c #F1B554",
" - c #BF5D58",
" ; c #D14500",
" : c #F3B759",
" > c #F2B758",
" , c #A3C3D7",
" < c #7D0000",
" 1 c #C25854",
" 2 c #9A1919",
" 3 c #837290",
" 4 c #5393BD",
" 5 c #A1C1D8",
" 6 c #B04B4C",
" 7 c #00459D",
" 8 c #F9C97C",
" 9 c #B73F3F",
" 0 c #0755A7",
" q c #0B5D97",
" w c #DDA571",
" e c #F6C26F",
" r c #C77676",
" t c #F2BE6B",
" y c #86AEC7",
" u c #E39B63",
" i c #9BBDD5",
" p c #002789",
" a c #83ACC4",
" s c #C18952",
" d c #236BB5",
" f c #F6EDE9",
" g c #F2E9E5",
" h c #EAA638",
" j c #4F0000",
" k c #90B3CA",
" l c #B44C4C",
" z c #585051",
" x c #3F81C3",
" c c #EAC2BC",
" v c #7A2020",
" b c #850000",
" n c #DFCEC8",
" m c #474040",
" M c #B3CFE2",
" N c #AD3231",
" B c #A19DB6",
" V c #558FCB",
" C c #3F3838",
" Z c #FBD494",
" A c #AE3F3F",
" S c #A22626",
" D c #1761AF",
" F c #350000",
" G c #F4BC62",
" H c #564B4B",
" J c #003D95",
" K c #F0B554",
" L c #9A1514",
" P c #E9A336",
" I c #F59903",
" U c #3173BB",
" Y c #7F0000",
" T c #F5BE66",
" R c #A83232",
" E c #4B87C7",
" W c #4B4343",
" Q c #C5C1BE",
" ! c #4985C5",
" ~ c #C1BDBA",
" ^ c #EDAB40",
" / c #C87675",
" ( c #CABEBC",
" ) c #89B0C8",
" _ c #372F2F",
" ` c #C57272",
" ' c #FACB7E",
" ] c #F4BB61",
" [ c #AFCCE0",
" { c #DFC1B6",
" } c #A73A3A",
" | c #004BA1",
".  c #EDAD46",
".. c #E3E0DE",
".X c #933A3A",
".o c #98BBD3",
".O c #D4985F",
".+ c #A6C4DA",
".@ c #EDB253",
".# c #014FA5",
".$ c #870000",
".% c #00338D",
".& c #BA8042",
".* c #002D8D",
".= c #D48C4B",
".- c #F3BA5C",
".; c #F9C879",
".: c #F5C16B",
".> c #175FAD",
"., c #A29A97",
".< c #B1CDE1",
".1 c #DAAB78",
".2 c #4E3434",
".3 c #3777BF",
".4 c #003793",
".5 c #377FAB",
".6 c #810000",
".7 c #3173B9",
".8 c #AD3835",
".9 c #84ADC5",
".0 c #B24A3D",
".q c #A5C5D8",
".w c #0F5BAB",
".e c #666162",
".r c #564F4F",
".t c #F18900",
".y c #BE5959",
".u c #003F99",
".i c #AA2D2B",
".p c #EBA93C",
".a c #9A4546",
".s c #A4C3DA",
".d c #4C4545",
".f c #8CB2C9",
".g c #EEB04C",
".h c #C87673",
".j c #9FC1D5",
".k c #A25151",
".l c #2B6FB9",
".z c #9DBFD3",
".x c #B3CEE2",
".c c #B34444",
".v c #DD6100",
".b c #961717",
".n c #EEB24F",
".m c #3F0000",
".M c #9BA8C7",
".N c #DFCFCB",
".B c #4583C5",
".V c #9EBFD7",
".C c #AC3533",
".Z c #545153",
".A c #99BDD2",
".S c #98BBD1",
".D c #96B9CF",
".F c #ABC8DD",
".G c #F7C472",
".H c #A8C4DA",
".J c #E4B6B2",
".K c #F5BF66",
".L c #002B8B",
".P c #003D77",
".I c #534C4B",
".U c #F8C676",
".Y c #CCC8C5",
".T c #1D65B1",
".R c #BC534C",
".E c #8EB3CA",
".W c None",
/* pixels */
" V E E E !.B x +.3 U.l d.T D.w.>",
" 4 M M.x.< [ &.F.H.+.s 5.V i.o q",
" I Z ' 8.;.U.G e.:.K G O > K t.v",
".$ @ X.y 1.k z.I f c.R N.i S.c j",
" b r - u.O.r.Z.d.Y g.N.= n v A.m",
".6.h w.1 H $., m ~.e   {.& s.0 .",
" < / B.M.a W m C Q.. *.C 3 % } F",
" Y ` l 6 9.X.2 _ (.J.8 2 L.b R F",
".t o T ].- : =.n.g.  ^.p h P.@ ;",
".5.q ,.j.z.A.S.D k.E.f ) y.9 a.P",
".7.T D.w 0.# | 7.u J.4 #.*.L p.%"
};
