/* XPM */
const char *icon_famfamfam_flags_td[] = {
/* width height ncolors chars_per_pixel */
"16 11 163 2",
/* colors */
"   c #000095",
" . c #F2E873",
" X c #BF0000",
" o c #EAD054",
" O c #EB4A4C",
" + c #F7EC8F",
" @ c #EDE26E",
" # c #6482CF",
" $ c #E42E2E",
" % c #E32C2D",
" & c #708DD4",
" * c #001BA5",
" = c #EFE89E",
" - c #859DD8",
" ; c #E84C4C",
" : c #E7484B",
" > c #E42E31",
" , c #F06C6E",
" < c #CD0000",
" 1 c #889FDE",
" 2 c #EEE275",
" 3 c #E63436",
" 4 c #ED6161",
" 5 c #EA4547",
" 6 c #F4E188",
" 7 c #7590D5",
" 8 c #8EA4DD",
" 9 c #0537B3",
" 0 c #F2E572",
" q c #E54545",
" w c #DB0000",
" e c #E73E3D",
" r c #F4E777",
" t c #E73C3D",
" y c #8AA2DC",
" u c #0031B1",
" i c #E3D870",
" p c #607FCD",
" a c #E94242",
" s c #F1E577",
" d c #6D8AD3",
" f c #F1E46D",
" g c #E7BB00",
" h c #8FA5DD",
" j c #000093",
" k c #C10000",
" l c #E6DD83",
" z c #002DB7",
" x c #E6DC79",
" c c #EFE164",
" v c #E22A2A",
" b c #EED563",
" n c #E7393C",
" m c #0019A3",
" M c #EEE270",
" N c #E64848",
" B c #EFD767",
" V c #CF0000",
" C c #F5E87A",
" Z c #5777CD",
" A c #F8EE94",
" S c #6584D4",
" D c #F1D96C",
" F c #F0E261",
" G c #EB5D5D",
" H c #CD9700",
" J c #0021A9",
" K c #7590D3",
" L c #E12525",
" P c #E85050",
" I c #E9CD50",
" U c #EA4748",
" Y c #DBBD00",
" T c #EDD301",
" R c #8DA4DD",
" E c #C90000",
" W c #E95454",
" Q c #ED6565",
" ! c #F6ED8E",
" ~ c #002DAF",
" ^ c #7A93D4",
" / c #E9DF81",
" ( c #6E8AD2",
" ) c #0335B5",
" _ c #ECD159",
" ` c #879EDA",
" ' c #0133B3",
" ] c #F1D90B",
" [ c #EDD507",
" { c #D70000",
" } c #D5B500",
" | c #C30000",
".  c #F1E46E",
".. c #C1AB00",
".X c #1543B9",
".o c #617FD2",
".O c #E22828",
".+ c #F4E874",
".@ c #000FA1",
".# c #EFE365",
".$ c #7D96D6",
".% c #EB5958",
".& c #E32A2C",
".* c #5B7BCF",
".= c #F5EA78",
".- c #EBDE57",
".; c #F2E56B",
".: c #F0E569",
".> c #607ECD",
"., c #E94142",
".< c #F6EA7C",
".1 c #ECE05B",
".2 c #F3E76F",
".3 c #6A87D0",
".4 c #E43233",
".5 c #EEE260",
".6 c #DF0000",
".7 c #ECD368",
".8 c #EBE288",
".9 c #5B7ACB",
".0 c #CB0000",
".q c #F2E571",
".w c #E63838",
".e c #5173CB",
".r c #6985D2",
".t c #F1E466",
".y c #6583CE",
".u c #0029AD",
".i c #EBD500",
".p c #718ED3",
".a c #F3E775",
".s c #708CD2",
".d c #0335B3",
".f c #6987D5",
".g c #E7DD7D",
".h c #F0E268",
".j c #E64748",
".k c #D90000",
".l c #D7B900",
".z c #000399",
".x c #E93E41",
".c c #ECDD5A",
".v c #C50000",
".b c #EE696A",
".n c #F7ED93",
".m c #E43132",
".M c #E5DA74",
".N c #EEDF5F",
".B c #7893D6",
".V c #E9E185",
".C c #EDD35E",
".Z c #6E8AD6",
".A c #F1E66F",
".S c #E63737",
".D c #6986D1",
".F c #819AD8",
".G c #EFE163",
".H c #DBC921",
".J c #D30000",
".K c #E44242",
".L c #748FD5",
".P c #D1B700",
".I c None",
/* pixels */
".X 9 9 ) z.H ] [ T.i g.6 w.k.k {",
" ' h h R 1 = A.n + ! 6 ,.b Q 4.J",
" 9 h.B.L.Z.8.< C r . D O U a G V",
".d 8 7 &.f.V.=.a 0.A B 5., e.% <",
" u y.p d S /.+.q. .: b.x t.w W.0",
" ~ ` (.D.o.g.2 f.h.#.C n.S.4 P E",
".u -.3 #.* x.;.h c.5 _ 3.m $ ;.v",
" J.F.y.> Z.M.t.G.N.1 o > % v N |",
" *.$ p.9.e i F.N.c.- I.&.O L q k",
".@ ^ K.s.r l s 2 M @.7 :.j q.K X",
" m.z   j  .. Y.l }.P H.v | k X k"
};
