/* XPM */
const char *icon_famfamfam_flags_tf[] = {
/* width height ncolors chars_per_pixel */
"16 11 144 2",
/* colors */
"   c #5868A9",
" . c #00002B",
" X c #6A79B4",
" o c #000977",
" O c #6575AF",
" + c #000017",
" @ c #7684B9",
" # c #BBC1D5",
" $ c #F93B3C",
" % c #8591C1",
" & c #FC4C4C",
" * c #41539C",
" = c #40539B",
" - c #7D89B9",
" ; c #4F60A3",
" : c #3A4D95",
" > c #000045",
" , c #6171AE",
" < c #5C6BA9",
" 1 c #5A69A7",
" 2 c #7F8BBE",
" 3 c #4F62A6",
" 4 c #00001D",
" 5 c #3A4D98",
" 6 c #364994",
" 7 c #5C6DAC",
" 8 c #E2E4EA",
" 9 c #5767A7",
" 0 c #FB4747",
" q c #00004B",
" w c #6574AE",
" e c #919BC2",
" r c #8894C3",
" t c #304391",
" y c #FC4B4B",
" u c #40529A",
" i c #3E5098",
" p c #DCDEE7",
" a c #4E5FA1",
" s c #00000F",
" d c #000065",
" f c #FD0000",
" g c #3C4E99",
" h c #000051",
" j c #4C5DA2",
" k c #FEFEFE",
" l c #4A5BA0",
" z c #FDFCFD",
" x c #FCFCFC",
" c c #6F7FB7",
" v c #FB4646",
" b c #5364A2",
" n c #000975",
" m c #7A88BB",
" M c #000015",
" N c #4A5DA3",
" B c #00006B",
" V c #42559B",
" C c #405199",
" Z c #000057",
" A c #5464A6",
" S c #6675B1",
" D c #5060A2",
" F c #000043",
" G c #5E6DA9",
" H c #7280B6",
" J c #3B4D97",
" K c #00001B",
" L c #4E60A3",
" P c #FA4141",
" I c #6E7CB5",
" U c #00005D",
" Y c #5665A4",
" T c #000049",
" R c #8D98C6",
" E c #8C98C5",
" W c #485AA0",
" Q c #45569D",
" ! c #5869A9",
" ~ c #000021",
" ^ c #00000D",
" / c #44589F",
" ( c #000063",
" ) c #41549C",
" _ c #FD7071",
" ` c #7B88B7",
" ' c #FA4040",
" ] c #7483BA",
" [ c #4A5B9E",
" { c #717FB7",
" } c #6D7BB3",
" | c #000027",
".  c #3B4E99",
".. c #000373",
".X c #FC6969",
".o c #5868A8",
".O c #425399",
".+ c #DFE1E7",
".@ c #6977B2",
".# c #FD6D6D",
".$ c #8A95C5",
".% c #F93B3B",
".& c #314492",
".* c #00002D",
".= c #5364A6",
".- c #000019",
".; c #7D89B8",
".: c #6171AD",
".> c #606FAC",
"., c #00006F",
".< c #6E7CB3",
".1 c #3C4F99",
".2 c #FA4142",
".3 c #FFFFFF",
".4 c #FDFDFD",
".5 c #5D6DAC",
".6 c #FBFBFB",
".7 c #E6E8ED",
".8 c #7581B3",
".9 c #000033",
".0 c #F83636",
".q c #6A78B2",
".w c #8C98C6",
".e c #00000B",
".r c #46589F",
".t c #000061",
".y c #5263A4",
".u c #BCC2D7",
".i c #000039",
".p c #2D4190",
".a c #828EBF",
".s c #3F529B",
".d c #000025",
".f c #4E5FA3",
".g c #000011",
".h c #E8E9EE",
".j c #7784B4",
".k c #FD5151",
".l c #FB0000",
".z c #374A96",
".x c #354894",
".c c #00003F",
".v c #45579D",
".b c None",
/* pixels */
" o o o.3.4.4 f f.l.t U Z h q F T",
" o R.w k k k _.#.X c }.@ w.> <.i",
" o E ] k k.4.k & 0 3 j.r ) g 9.9",
" n.$ { k.4.4 y 0.2 N.r *. .z.y .",
".. r I.4 z x v P $ / = 5.x.& a.d",
"., % X x x.6 '.%.0.s.1 6 t.p [ ~",
" B.a S ,.5 ! A ; l.v.;.h.7 p `.-",
" d 2 ,.5  .= L l Q u V -.u.O i +",
" ( m 7.o.=.f W Q C J b 8 #.+.8.g",
" U @ H.<.q O.: G 1 Y D e 8.j : ^",
" Z h q >.c.i.9.* | ~ 4 K M s.e K"
};
