/* XPM */
const char *icon_famfamfam_flags_tg[] = {
/* width height ncolors chars_per_pixel */
"16 11 156 2",
/* colors */
"   c #58AB24",
" . c #F4CC1F",
" X c #F94646",
" o c #DCC82F",
" O c #DAC419",
" + c #FADA3F",
" @ c #FE7172",
" # c #FC5959",
" $ c #FEB7B7",
" % c #DCC61E",
" & c #63AE2B",
" * c #2AA02B",
" = c #53B550",
" - c #FAD842",
" ; c #6BB436",
" : c #4EB34B",
" > c #F0D542",
" , c #F8D536",
" < c #DF8D00",
" 1 c #F6D02A",
" 2 c #EDDA4C",
" 3 c #FD7777",
" 4 c #F9D93A",
" 5 c #54A81F",
" 6 c #61B02F",
" 7 c #FE7B7B",
" 8 c #FC4B4B",
" 9 c #3BB13B",
" 0 c #FD797A",
" q c #F6D644",
" w c #65B036",
" e c #EFD43D",
" r c #30A330",
" t c #FBC500",
" y c #6AC269",
" u c #FD0000",
" i c #66C065",
" p c #259D25",
" a c #D7C00E",
" s c #F3CA19",
" d c #FED0D0",
" f c #FEFEFE",
" g c #4AB046",
" h c #E4D13F",
" j c #1A971A",
" k c #D3B100",
" l c #72B53F",
" z c #E79D00",
" x c #D9C213",
" c c #3DAA39",
" v c #FB4646",
" b c #39A835",
" n c #E6D344",
" m c #FE9B9B",
" M c #33A42F",
" N c #4FA519",
" B c #5DAD2A",
" V c #008700",
" C c #FCE46A",
" Z c #007700",
" A c #F9D63C",
" S c #007300",
" D c #007100",
" F c #FE8787",
" G c #006F00",
" H c #F2C914",
" J c #006B00",
" K c #AB7D00",
" L c #FDB3B4",
" P c #006500",
" I c #6FC96D",
" U c #006100",
" Y c #005F00",
" T c #005B00",
" R c #5FAC25",
" E c #005500",
" W c #F5CE24",
" Q c #005100",
" ! c #004F00",
" ~ c #004D00",
" ^ c #004B00",
" / c #FD5B5B",
" ( c #004500",
" ) c #003F00",
" _ c #F8D534",
" ` c #003D00",
" ' c #5EBB5C",
" ] c #003700",
" [ c #003300",
" { c #003100",
" } c #59B957",
" | c #002F00",
".  c #002D00",
".. c #002B00",
".X c #002900",
".o c #002700",
".O c #EED237",
".+ c #55B035",
".@ c #FDDEDE",
".# c #F1D747",
".$ c #FC5656",
".% c #F7D22F",
".& c #E4CF3A",
".* c #FF0000",
".= c #5BA920",
".- c #65BE62",
".; c #D6BE0B",
".: c #60BC5D",
".> c #FDE4E4",
"., c #5BBA58",
".< c #F5CF26",
".1 c #EDD549",
".2 c #D59700",
".3 c #FF8383",
".4 c #FB5151",
".5 c #45AE42",
".6 c #E2CE34",
".7 c #35A632",
".8 c #FC5555",
".9 c #FB5554",
".0 c #FBDD49",
".q c #EBCE2C",
".w c #3BA63B",
".e c #36A636",
".r c #F7D331",
".t c #FE7E7E",
".y c #EDD031",
".u c #FEDADA",
".i c #1F9A1F",
".p c #74BE41",
".a c #FB5050",
".s c #41AD3D",
".d c #FBDC45",
".f c #54B753",
".g c #6FB63C",
".h c #FE7777",
".j c #30A32C",
".k c #FF7B7B",
".l c #DFCA29",
".z c #FE7D7D",
".x c #FA4B4B",
".c c #E1CC2E",
".v c #62BE60",
".b c #67B130",
".n c #EBDC66",
".m c #57B855",
".M c #FE7676",
".N c #FD5E5E",
".B c #50B44E",
".V c #DDC723",
".C c #F2C710",
".Z c #F3CE32",
".A c #FBE347",
".S c #F6D12B",
".D c #4BA314",
".F c None",
/* pixels */
".*.*.*.* u u u V Z S G J P U T Y",
".*.k.k.t.h 7 0 I y i.v ' }.f.B ~",
".*.3 m d @.N / 2.# > e.O.y.q.1.2",
".*.z.u f.@ /.$.A - A ,.r.S.< q z",
" u.M $.> L 8.4.p.g ;.b & R.= l Q",
" u F.N #.8 v.x 9.e r * p.i j.w |",
" u 3 #.9.a.x X.+ 6 B   5 N.D w (",
" t C.0.d + 4 _.% 1 W . s H.C.Z <",
" k.n n h.&.6.c.l.V % O x a.; o K",
" D.-.:.,.m = : g.5.s c b.7 M.j.X",
" S P U T E ! ^ ( ) ` ] {. ...o ["
};
