/* XPM */
const char *icon_famfamfam_flags_th[] = {
/* width height ncolors chars_per_pixel */
"16 11 143 2",
/* colors */
"   c #F24949",
" . c #F85C5C",
" X c #0B0D99",
" o c #3B3BA7",
" O c #191996",
" + c #5557B3",
" @ c #F96060",
" # c #F50000",
" $ c #9395D2",
" % c #3B3BAA",
" & c #E10000",
" * c #4B4AB3",
" = c #000031",
" - c #000073",
" ; c #4646B1",
" : c #9B9CD6",
" > c #5353B7",
" , c #EF0000",
" < c #6769BA",
" 1 c #504FB4",
" 2 c #7B7CC7",
" 3 c #8587CA",
" 4 c #FE7B7B",
" 5 c #FD797A",
" 6 c #4040AE",
" 7 c #6667BC",
" 8 c #7778C6",
" 9 c #4B4BB2",
" 0 c #7676C5",
" q c #5858B8",
" w c #FD0000",
" e c #ADAEDD",
" r c #FC7272",
" t c #E90000",
" y c #FEFEFE",
" u c #3636A7",
" i c #FCFCFC",
" p c #FAFAFA",
" a c #7272C4",
" s c #F8F8F8",
" d c #F6F6F6",
" f c #F86364",
" g c #F4F4F4",
" h c #3F3FA9",
" j c #F2F2F2",
" k c #FB7474",
" l c #00007F",
" z c #7779C2",
" x c #3030A4",
" c c #595BB5",
" v c #F34B4B",
" b c #6A6CBF",
" n c #F70000",
" m c #E30000",
" M c #1F1F9D",
" N c #F96B6B",
" B c #4145B1",
" V c #F44F4F",
" C c #7F80C6",
" Z c #3B3BAB",
" A c #9091D0",
" S c #FA6F6F",
" D c #3535A5",
" F c #F55353",
" G c #4646AF",
" H c #6F6FC0",
" J c #FD7575",
" K c #F10000",
" L c #F24646",
" P c #DD0000",
" I c #F65757",
" U c #2F2FA2",
" Y c #F75B5B",
" T c #FF0000",
" R c #2B2BA1",
" E c #8283C8",
" W c #9394D2",
" Q c #EB0000",
" ! c #7374C3",
" ~ c #FE7F7F",
" ^ c #1A1A9A",
" / c #4545AD",
" ( c #2A2BA3",
" ) c #141494",
" _ c #25259E",
" ` c #00007D",
" ' c #7B7BC4",
" ] c #4E50AF",
" [ c #3636A8",
" { c #FF8383",
" } c #6E70C1",
" | c #4141AC",
".  c #F90000",
".. c #E50000",
".X c #3030A5",
".o c #9697D4",
".O c #2A2A9F",
".+ c #3B3BA9",
".@ c #494AB0",
".# c #00005B",
".$ c #F76060",
".% c #F30000",
".& c #5153B1",
".* c #24249C",
".= c #FFFFFF",
".- c #DF0000",
".; c #FDFDFD",
".: c #FBFBFB",
".> c #8A8BCB",
"., c #F9F9F9",
".< c #000033",
".1 c #F7F7F7",
".2 c #F5F5F5",
".3 c #4040AA",
".4 c #F3F3F3",
".5 c #F1F1F1",
".6 c #4F4FB2",
".7 c #20209B",
".8 c #E9E9E9",
".9 c #FB6A6A",
".0 c #F96868",
".q c #989AD5",
".w c #DFDFDF",
".e c #ED0000",
".r c #4F4FB5",
".t c #FC6E6E",
".y c #3636A3",
".u c #000025",
".i c #00007B",
".p c #F24343",
".a c #6263BA",
".s c #FE8180",
".d c #FA6565",
".f c #FB0000",
".g c #5454B6",
".h c #25259F",
".j c #E70000",
".k c #F75858",
".l c #8C8ECF",
".z c #1F1F99",
".x c #5D5FB8",
".c c #898ACC",
".v c None",
/* pixels */
" T T T T w w w w.f.  n #.% K ,.e",
" T { {.s ~ 4 5 J r.t.9.d @ ..k Q",
".=.= y y y.;.; i.: p., s.1 d.1.8",
" B e :.q.o $ A.l.c 3 E C ' z.> l",
" ` 0 q.g 1 9 G | % u x R _.7 h.<",
".i a >.r * ; 6 Z [.X (.h M ^.+ =",
" - H.6.@ /.3 o D U.O.*.z O ).y.u",
" X W 2 8 ! } b 7.a.x c +.& ] <.#",
"., i p p., s.1 d.2 g.4 j.5.5 j.w",
" n k S N.0 f.$ Y I F V v   L.p P",
" #.% K ,.e.e Q t.j.. m &.- P P P"
};
