/* XPM */
const char *icon_famfamfam_flags_tj[] = {
/* width height ncolors chars_per_pixel */
"16 11 116 2",
/* colors */
"   c #000000",
" . c #BF0000",
" X c #619E62",
" o c #0F670E",
" O c #AB0000",
" + c #549455",
" @ c #CE2C2C",
" # c #F4D678",
" $ c #D64E4E",
" % c #E27474",
" & c #DD6565",
" * c #A50000",
" = c #F8DD8C",
" - c #D64747",
" ; c #66A166",
" : c #F4F5F5",
" > c #DE6969",
" , c #589758",
" < c #509150",
" 1 c #DF6D6D",
" 2 c #B30000",
" 3 c #D33C3D",
" 4 c #448B44",
" 5 c #DC6060",
" 6 c #3F873F",
" 7 c #D54242",
" 8 c #F7D97D",
" 9 c #357F35",
" 0 c #327D32",
" q c #FEFEFE",
" w c #2F7B2F",
" e c #FDFCFD",
" r c #FCFCFC",
" t c #FBFCFB",
" y c #2C792C",
" u c #FAFAFA",
" i c #F8F8F8",
" p c #F6F6F6",
" a c #F4F4F4",
" s c #237523",
" d c #F2F2F2",
" f c #E47B7B",
" g c #1E711E",
" h c #D13737",
" j c #990000",
" k c #F7DB83",
" l c #F7E19A",
" z c #F3D475",
" x c #E17071",
" c c #BB0000",
" v c #DB5454",
" b c #A70000",
" n c #F9E9B6",
" m c #002500",
" M c #001D00",
" N c #001700",
" B c #000F00",
" V c #000700",
" C c #DD5C5C",
" Z c #A10000",
" A c #D44949",
" S c #DA5C5C",
" D c #F9E5A8",
" F c #D95151",
" G c #D03131",
" H c #D85353",
" J c #AF0000",
" K c #E27777",
" L c #D95757",
" P c #5D9A5D",
" I c #F6DF97",
" U c #D84C4C",
" Y c #DE5F5F",
" T c #186D19",
" R c #BD0000",
" E c #4B8E4B",
" W c #F7E19B",
" Q c #468A46",
" ! c #428842",
" ~ c #950000",
" ^ c #3D843D",
" / c #3A843A",
" ( c #398239",
" ) c #348034",
" _ c #FDFDFD",
" ` c #2E7C2E",
" ' c #2F7A2F",
" ] c #FBFBFB",
" [ c #F9F9F9",
" { c #297829",
" } c #F5CF5D",
" | c #F7F7F7",
".  c #F5F5F5",
".. c #F5D87E",
".X c #F8F6EE",
".o c #B70000",
".O c #F3F3F3",
".+ c #F1F1F1",
".@ c #F6D161",
".# c #136A13",
".$ c #0B640B",
".% c #DBDBDB",
".& c #F8F2DD",
".* c #D7D7D7",
".= c #D5D5D5",
".- c #D3D3D3",
".; c #F8E29E",
".: c #B10000",
".> c #9D0000",
"., c #F8E5AB",
".< c #DD5959",
".1 c #F5D673",
".2 c #E47B7A",
".3 c #E37979",
".4 c #F8DE8D",
".5 c None",
/* pixels */
" . . . . R c c.o 2.: J O b * Z.>",
" . f f.3 K % x 1 > & 5 S L H $ j",
" ..2 Y C.< v F U - 7 3 h G @ A ~",
".  q q q _ _ 8 D.,.1.X | p.  p.%",
".  q q _ e.4 n.; W.&.. p.  a. .*",
".O q _ r = ] u l I | p z a.O :.=",
".+ _ r t ] u k.@ } #.  a.O d a.-",
".+ r ] ] u [ i | p.  a.O d d.O.-",
" m ; 4 6 / ) ` { s g T.# o.$ w  ",
" M X P , + < E Q ! ^ ( 9 0 ' y  ",
" N B V                          "
};
