/* XPM */
const char *icon_famfamfam_flags_tk[] = {
/* width height ncolors chars_per_pixel */
"16 11 156 2",
/* colors */
"   c #BAB871",
" . c #C1BB5A",
" X c #8C96A7",
" o c #000081",
" O c #8B939C",
" + c #5D77D2",
" @ c #0000C3",
" # c #818E88",
" $ c #0000AF",
" % c #5870DA",
" & c #000087",
" * c #000073",
" = c #BABC7A",
" - c #5D75D8",
" ; c #8B978E",
" : c #A4A56B",
" > c #A7A464",
" , c #A0AB92",
" < c #3B56D1",
" 1 c #536CD8",
" 2 c #0000B5",
" 3 c #5268C3",
" 4 c #0000A1",
" 5 c #586FD6",
" 6 c #A0A595",
" 7 c #00008D",
" 8 c #5F7DE0",
" 9 c #1A3AC4",
" 0 c #516CC5",
" q c #000079",
" w c #000BC5",
" e c #6578C8",
" r c #5871D9",
" t c #0005C5",
" y c #0003C5",
" u c #5A8E7E",
" i c #536BD4",
" p c #0000BB",
" a c #D8D065",
" s c #E7EAF8",
" d c #60A448",
" f c #0000A7",
" g c #445ECF",
" h c #CCC459",
" j c #000093",
" k c #203FC6",
" l c #00007F",
" z c #7992E5",
" x c #DFD97C",
" c c #6D7FCC",
" v c #89908E",
" b c #3F5ACD",
" n c #EADB4B",
" m c #919C99",
" M c #0000AD",
" N c #2F4BC7",
" B c #000099",
" V c #B7B872",
" C c #6F84DE",
" Z c #0B2CBE",
" A c #3B56CC",
" S c #3551D0",
" D c #000085",
" F c #5C7ADF",
" G c #969662",
" H c #B0B161",
" J c #000071",
" K c #A3A65E",
" L c #B7B96B",
" P c #465DBC",
" I c #B4B568",
" U c #0000B3",
" Y c #B0B164",
" T c #2C49CA",
" R c #498A65",
" E c #3B56D2",
" W c #C9C679",
" Q c #7B8BBE",
" ! c #667CDB",
" ~ c #000077",
" ^ c #D9CE4D",
" / c #5F76D4",
" ( c #1334BB",
" ) c #0001C3",
" _ c #0000B9",
" ` c #6178D9",
" ' c #0000A5",
" ] c #B8B67F",
" [ c #A4B093",
" { c #2C48C6",
" } c #000091",
" | c #CAC255",
".  c #F3E670",
".. c #D6CD6E",
".X c #828E82",
".o c #3651C9",
".O c #00007D",
".+ c #768AE0",
".@ c #F4E874",
".# c #52A03B",
".$ c #4E67D3",
".% c #2F4CCF",
".& c #0000AB",
".* c #324DC8",
".= c #CFC860",
".- c #7286DF",
".; c #B0B27D",
".: c #43806B",
".> c #556ED3",
"., c #407C68",
".< c #3651CF",
".1 c #000083",
".2 c #E9EBF7",
".3 c #4963D1",
".4 c #2F4BC8",
".5 c #2A56B9",
".6 c #B3B8AE",
".7 c #EBDD50",
".8 c #4963D4",
".9 c #7A838D",
".0 c #C5BA45",
".q c #1435C1",
".w c #00009D",
".e c #57A33F",
".r c #9DA98E",
".t c #6A80DD",
".y c #A7A87A",
".u c #7991E5",
".i c #5BA450",
".p c #A6A679",
".a c #334EC8",
".s c #8C9991",
".d c #E2E7F6",
".f c #445FD2",
".g c #4461BE",
".h c #4F68D6",
".j c #AAAFA1",
".k c #7F91DA",
".l c #AFB05D",
".z c #2D5AB1",
".x c #415BD2",
".c c #2645C8",
".v c #E3DC86",
".b c #00007B",
".n c #A1A79B",
".m c #97A29B",
".M c #7B94E6",
".N c #DDD258",
".B c #607CDC",
".V c #0000A9",
".C c #D3CB58",
".Z c #CEC85D",
".A c #919E81",
".S c #B4B47F",
".D c #1030BF",
".F c None",
/* pixels */
" w t t t ) p 2 f 4 M $.V ' 4.w.w",
" y.M.M z.k.6.v.@.  x.j c 5 i.$ j",
" t.M 8.B s Q W [ ,.r.=.p P T.3 }",
" y.u F r /.2 +.S.; V L |.9.c g 7",
" @.+ %.n X.>.d.x E ; I # > k b &",
" _.- 1...m = 0 <.<.g Y.X.0 9 A.1",
" 2 C.h ] m.N.s S.%.5.i d G.q.o l",
" U.t.8 O  .Z ^ . :.z R.e.,.D.a.O",
" $ !.f 3.y h.A H.l K.:.# ( Z.4.b",
".& ` - 5 e 6 a.7 n.C v u.* N { ~",
".& ' 4.w B B 7 * J o D l.O.b q.b"
};
