/* XPM */
const char *icon_famfamfam_flags_tl[] = {
/* width height ncolors chars_per_pixel */
"16 11 135 2",
/* colors */
"   c #000000",
" . c #F62C2C",
" X c #FC5C4C",
" o c #FF0900",
" O c #FC4C4C",
" + c #F73A30",
" @ c #F73030",
" # c #F50000",
" $ c #F21414",
" % c #E10000",
" & c #F83434",
" * c #F9763B",
" = c #7A8045",
" - c #797979",
" ; c #545458",
" : c #F33232",
" > c #FB4747",
" , c #EF0000",
" < c #F62B2B",
" 1 c #6D6D6D",
" 2 c #FA8642",
" 3 c #F43636",
" 4 c #F88736",
" 5 c #F72F2F",
" 6 c #F21313",
" 7 c #F95455",
" 8 c #D7D7D8",
" 9 c #FC6565",
" 0 c #FD0000",
" q c #F74949",
" w c #FE7474",
" e c #E90000",
" r c #FA4242",
" t c #F52626",
" y c #494949",
" u c #F83736",
" i c #8E8D47",
" p c #FA5C5C",
" a c #F62A2A",
" s c #FDB651",
" d c #FDBA7C",
" f c #818A44",
" g c #FB6060",
" h c #F70000",
" j c #F72E2E",
" k c #F64444",
" l c #F2D73F",
" z c #E30000",
" x c #F9433D",
" c c #F9DD5D",
" v c #F85353",
" b c #E8EF4C",
" n c #F22C2C",
" m c #F84C35",
" M c #F95757",
" N c #F52525",
" B c #F43B3B",
" V c #F10000",
" C c #EEEDED",
" Z c #F62929",
" A c #DD0000",
" S c #F7AD5E",
" D c #F53F3F",
" F c #FD5454",
" G c #F74E4E",
" H c #F9E53B",
" J c #F23232",
" K c #E1E841",
" L c #A4A4A4",
" P c #F93C3C",
" I c #F42020",
" U c #FF0000",
" Y c #EB0000",
" T c #FD7071",
" R c #F52424",
" E c #EEF040",
" W c #F96659",
" Q c #F6F355",
" ! c #FC6969",
" ~ c #F83737",
" ^ c #F90000",
" / c #FE855A",
" ( c #E50000",
" ) c #F64242",
" _ c #FD6D6D",
" ` c #F21010",
" ' c #A3A3A2",
" ] c #F41F1F",
" [ c #F33535",
" { c #666666",
" } c #F74646",
" | c #F9FA40",
".  c #7F8150",
".. c #5C5C5C",
".X c #8F9659",
".o c #F52323",
".O c #F43939",
".+ c #F30000",
".@ c #FA4142",
".# c #DF0000",
".$ c #4B4A4B",
".% c #F53D3D",
".& c #F10B0B",
".* c #450000",
".= c #F83636",
".- c #7B7B7A",
".; c #B3AB7C",
".: c #F5F5F5",
".> c #FE7777",
"., c #F31A1A",
".< c #717145",
".1 c #F9F93C",
".2 c #711900",
".3 c #F10F0E",
".4 c #F85050",
".5 c #FE817A",
".6 c #F41E1E",
".7 c #ED0000",
".8 c #4C4C52",
".9 c #F93C3D",
".0 c #D7D7D7",
".q c #D5D5D5",
".w c #F88B38",
".e c #F9B33C",
".r c #F73131",
".t c #FD5151",
".y c #F74B4B",
".u c #FB0000",
".i c #9AA25F",
".p c #F31919",
".a c #F22F2F",
".s c #9D9662",
".d c #E70000",
".f c #FBE147",
".g c None",
/* pixels */
".2 o U U 0 0 0 0.u ^ h #.+ V ,.7",
"  .; d.5.> w T _ ! 9 g p M v G Y",
"  .-.i c / F.t O > r.9 ~.r . q e",
"   -...X Q s X >.@ P u.r < t k.d",
"   L.0 ;.  b.f 2 x.= @ < N I D.d",
"   C.: 8.$ i |.1.w @ < N ]., B (",
"   '.q.8.< K H 4 + a R ].p $ 3 z",
"   1 y = E.e m 5 a R ].p $ ` :.#",
"   { f l * & j Z.o.6.p 6.3.&.a.#",
"  .s S W 7.4.y } ).%.O [ J.a n A",
".* V V ,.7.7 Y e.d ( z %.# A A A"
};
