/* XPM */
const char *icon_famfamfam_flags_tm[] = {
/* width height ncolors chars_per_pixel */
"16 11 144 2",
/* colors */
"   c #000000",
" . c #1B6A3B",
" X c #CF7565",
" o c #166636",
" O c #156635",
" + c #AB0000",
" @ c #0D602D",
" # c #367D52",
" $ c #337B4F",
" % c #2C7548",
" & c #DE8A70",
" * c #54906C",
" = c #DC918F",
" - c #4D8C65",
" ; c #75A789",
" : c #910000",
" > c #85B095",
" , c #3A7E55",
" < c #D37F75",
" 1 c #367C51",
" 2 c #C16360",
" 3 c #5B9572",
" 4 c #31784C",
" 5 c #30764B",
" 6 c #C1D6C9",
" 7 c #7CAC8F",
" 8 c #9F0000",
" 9 c #7AAA8D",
" 0 c #0B632D",
" q c #74A687",
" w c #6FA282",
" e c #CC6C67",
" r c #277245",
" t c #DD9388",
" y c #226E40",
" u c #216E3F",
" i c #206E3E",
" p c #42855C",
" a c #AD0000",
" s c #679E7D",
" d c #3D8157",
" f c #3C8156",
" g c #639A79",
" h c #5E9674",
" j c #59946F",
" k c #106231",
" l c #E4ECE7",
" z c #D16954",
" x c #337B50",
" c c #2B7548",
" v c #287345",
" b c #508E69",
" n c #267143",
" m c #257142",
" M c #003900",
" N c #003700",
" B c #003500",
" V c #4C8A65",
" C c #003100",
" Z c #4A8A63",
" A c #206D3D",
" S c #002F00",
" D c #002D00",
" F c #002B00",
" G c #E2A199",
" H c #CD6553",
" J c #CF776C",
" K c #002500",
" L c #45865E",
" P c #002300",
" I c #42845B",
" U c #001D00",
" Y c #D27265",
" T c #001700",
" R c #001500",
" E c #000F00",
" W c #649979",
" Q c #000700",
" ! c #1A693A",
" ~ c #B7605E",
" ^ c #7EAC8F",
" / c #116331",
" ( c #C9645F",
" ) c #C8645E",
" _ c #317A4D",
" ` c #30784C",
" ' c #2E764A",
" ] c #2B7447",
" [ c #528F6A",
" { c #BFD4C8",
" } c #4F8D67",
" | c #76A88A",
".  c #BB2719",
".. c #B5CEBE",
".X c #70A484",
".o c #C55B54",
".O c #D8E5DD",
".+ c #D5857E",
".@ c #DC9A92",
".# c #8EB59E",
".$ c #9D6354",
".% c #1B6A3A",
".& c #166635",
".* c #3B7F56",
".= c #397F54",
".- c #956859",
".; c #367B51",
".: c #D4796C",
".> c #33794E",
"., c #30774B",
".< c #2C7547",
".1 c #CF7167",
".2 c #7CAB8F",
".3 c #CE6A5C",
".4 c #6FA182",
".5 c #CC6D67",
".6 c #8FB69E",
".7 c #488A62",
".8 c #478861",
".9 c #CF736D",
".0 c #43865D",
".q c #42845C",
".w c #40825A",
".e c #D3E2DA",
".r c #3C8056",
".t c #629978",
".y c #377C51",
".u c #347A4E",
".i c #80AE92",
".p c #CE695B",
".a c #E2EBE5",
".s c #2D764A",
".d c #2C7649",
".f c #518F6A",
".g c #277244",
".h c #267243",
".j c #890000",
".k c #488961",
".l c #478760",
".z c #6CA081",
".x c #D17164",
".c c #3E8157",
".v c #649A79",
".b c None",
/* pixels */
" M M.  + 8 C D 0 P U R E Q      ",
" M 7 t = G ;.i w 6.#.t h j * }  ",
" M.2.9 &.5 > [ ^.7.a 3.= x ' Z  ",
" N 9.:.1 Y.f...k { l.v $.s v L  ",
" B | e 2 ( -.4.O.e.6.0.s r y.w  ",
" S q.x ~.3.8 p d W p.d.g u ..*  ",
" F.X ).-.o.q f # _ %.h u.% o.y  ",
" K.z.p.$ H.r 1 4 c n i.%.& /.u  ",
" U s.@ z.+ 1 ` ] m A ! O k @.,  ",
" T g J < X b V.l I.c ,.;.> 5.<  ",
" E Q : a.j                      "
};
