/* XPM */
const char *icon_famfamfam_flags_tr[] = {
/* width height ncolors chars_per_pixel */
"16 11 134 2",
/* colors */
"   c #FBF3F3",
" . c #F62C2C",
" X c #FCBEBF",
" o c #F50000",
" O c #F78C8C",
" + c #F21414",
" @ c #FD9F9F",
" # c #E10000",
" $ c #FC6666",
" % c #F7F5F5",
" & c #FA7171",
" * c #F9E3E3",
" = c #FC8080",
" - c #F56262",
" ; c #F33232",
" : c #FB4747",
" > c #F8D8D8",
" , c #FA5D5D",
" < c #EF0000",
" 1 c #F74343",
" 2 c #F62B2B",
" 3 c #F8E5E5",
" 4 c #F43636",
" 5 c #F21313",
" 6 c #F95455",
" 7 c #FF7F7F",
" 8 c #FC6565",
" 9 c #FD0000",
" 0 c #F86161",
" q c #F74949",
" w c #FE7474",
" e c #E90000",
" r c #FA4242",
" t c #FA7070",
" y c #F95858",
" u c #F5D1D1",
" i c #F52626",
" p c #F83736",
" a c #FB4646",
" s c #FA5C5C",
" d c #FBA2A2",
" f c #F93B3A",
" g c #FE7A7A",
" h c #FB6060",
" j c #FA4848",
" k c #F70000",
" l c #F6EFEF",
" z c #F64444",
" x c #FE5959",
" c c #E30000",
" v c #FD6F6F",
" b c #FD9D9D",
" n c #F93D3D",
" m c #F85353",
" M c #FF7E7E",
" N c #F63030",
" B c #F22C2C",
" V c #F95757",
" C c #F52525",
" Z c #F43B3B",
" A c #FE5F5F",
" S c #FB4545",
" D c #F10000",
" F c #F88787",
" G c #DD0000",
" H c #F53F3F",
" J c #FC6A6A",
" K c #F8E3E3",
" L c #F74E4E",
" P c #FE7979",
" I c #F23232",
" U c #FE5858",
" Y c #F7B7B7",
" T c #F93C3C",
" R c #FAB0B0",
" E c #F42020",
" W c #FF0000",
" Q c #EB0000",
" ! c #FD7071",
" ~ c #FA4040",
" ^ c #F52424",
" / c #FC4F4F",
" ( c #FB6565",
" ) c #FD5353",
" _ c #FC6969",
" ` c #F83737",
" ' c #FCF3F3",
" ] c #F90000",
" [ c #F7D7D7",
" { c #E50000",
" } c #F64242",
" | c #FD6D6D",
".  c #FC5555",
".. c #F21010",
".X c #F93B3B",
".o c #F41F1F",
".O c #F67D7D",
".+ c #FD7A7A",
".@ c #F33535",
".# c #F74646",
".$ c #FA3F3F",
".% c #F52323",
".& c #F43939",
".* c #FBC0C0",
".= c #F30000",
".- c #DF0000",
".; c #F53D3D",
".: c #F10B0B",
".> c #FE7777",
"., c #F31A1A",
".< c #FDE9E9",
".1 c #F10F0E",
".2 c #F93A3A",
".3 c #F85050",
".4 c #FDF6F6",
".5 c #FF7B7B",
".6 c #F41E1E",
".7 c #FB4949",
".8 c #ED0000",
".9 c #FDB4B4",
".0 c #F93C3D",
".q c #FE7D7D",
".w c #F73131",
".e c #FE5C5C",
".r c #FE7273",
".t c #FCE4E4",
".y c #F74B4B",
".u c #F63333",
".i c #FB0000",
".p c #F31919",
".a c #F22F2F",
".s c #FA4444",
".d c #E70000",
".f c None",
/* pixels */
" W W W W 9 9 9 9.i ] k o.= D <.8",
" W M.5 P.> w ! | _ 8 h s V m L Q",
" W 7 A.e x @ b.  : r.0 `.w . q e",
" W.q.e x.9.<.t.* j T p.w 2 i z.d",
" 9 g U.+.4 = a t n K 1 . C E H.d",
" 9.r ) X ' a ~.X 3 % l -.o., Z {",
" 9 v / d   & f 0 Y.O u E.p + 4 c",
".i J.7 S R * > [ N ^.o.p +.. ;.-",
" ] $.s.$.2 F O.u.%.6.p 5.1.:.a.-",
" k ( , y 6.3.y.# }.;.&.@ I.a B G",
" o.= D <.8.8 Q e.d { c #.- G G G"
};
