/* XPM */
const char *icon_famfamfam_flags_tt[] = {
/* width height ncolors chars_per_pixel */
"16 11 147 2",
/* colors */
"   c #000000",
" . c #F62C2C",
" X c #E3C1C1",
" o c #F50000",
" O c #999999",
" + c #F21414",
" @ c #F9EAEA",
" # c #FC6666",
" $ c #F1E2E2",
" % c #F83434",
" & c #F28A8A",
" * c #7F7F7F",
" = c #7B7B7B",
" - c #F99494",
" ; c #797979",
" : c #777777",
" > c #F33232",
" , c #FA5D5D",
" < c #EF0000",
" 1 c #F62B2B",
" 2 c #6F6F6F",
" 3 c #FA9898",
" 4 c #696969",
" 5 c #F43636",
" 6 c #636363",
" 7 c #616161",
" 8 c #F95455",
" 9 c #595959",
" 0 c #FC6565",
" q c #555555",
" w c #FD0000",
" e c #F74949",
" r c #FCEFEF",
" t c #515151",
" y c #FAEDED",
" u c #E90000",
" i c #FA4242",
" p c #F95858",
" a c #F52626",
" s c #4B4B4B",
" d c #F83736",
" f c #414141",
" g c #FA5C5C",
" h c #3B3B3B",
" j c #353535",
" k c #FB4A49",
" l c #FB6060",
" z c #F70000",
" x c #2F2F2F",
" c c #F72E2E",
" v c #F64444",
" b c #E30000",
" n c #FD6F6F",
" m c #F7E6E6",
" M c #FB9B9B",
" N c #F85353",
" B c #F5E4E4",
" V c #1F1F1F",
" C c #FFB9B9",
" Z c #191919",
" A c #F95757",
" S c #171717",
" D c #FDE5E5",
" F c #F52525",
" G c #F4E6E6",
" H c #F43B3B",
" J c #131313",
" K c #F37F7F",
" L c #FDF2F2",
" P c #FB4545",
" I c #F10000",
" U c #FDA3A3",
" Y c #DD0000",
" T c #F53F3F",
" R c #FC6A6A",
" E c #FDB0B0",
" W c #F74E4E",
" Q c #FE7979",
" ! c #FDEBEB",
" ~ c #FE5858",
" ^ c #F4E3E2",
" / c #F42020",
" ( c #9E9E9E",
" ) c #FF0000",
" _ c #FB6162",
" ` c #656566",
" ' c #F27A7A",
" ] c #FCEDED",
" [ c #EB0000",
" { c #FAEBEB",
" } c #FC9E9E",
" | c #FC4F4F",
".  c #FDF1F1",
".. c #888888",
".X c #828282",
".o c #FD5353",
".O c #FC6969",
".+ c #F83737",
".@ c #FEF5F5",
".# c #F90000",
".$ c #727272",
".% c #E50000",
".& c #F58686",
".* c #6C6C6C",
".= c #F41F1F",
".- c #F1DEDE",
".; c #FEA8A9",
".: c #F74646",
".> c #FD5959",
"., c #F68A8A",
".< c #FA3F3F",
".1 c #F8E8E8",
".2 c #F6E6E6",
".3 c #5C5C5C",
".4 c #DBBBBB",
".5 c #585858",
".6 c #545454",
".7 c #F30000",
".8 c #181919",
".9 c #DF0000",
".0 c #4C4C4C",
".q c #464646",
".w c #F31A1A",
".e c #F93A3A",
".r c #363636",
".t c #F85050",
".y c #323232",
".u c #FB4949",
".i c #ED0000",
".p c #2A2A2A",
".a c #F93C3D",
".s c #242424",
".d c #F2E1E1",
".f c #F69696",
".g c #F73131",
".h c #E50505",
".j c #FE7273",
".k c #F78D8D",
".l c #FF2525",
".z c #FEF3F3",
".x c #F74B4B",
".c c #FB0000",
".v c #F89191",
".b c #FE7676",
".n c #FA4444",
".m c #E70000",
".M c None",
/* pixels */
" ! Z     S D.> w.c.# z o.7 I <.i",
".l.@ ( ; : O L E.O 0 l g A N W [",
" ) C.z.. 9.6 * ] M i.a.+.g . e u",
" ) Q.;. .X t s : { - d.g 1 a v.m",
" w.b ~ U r =.q f 2.1.k 1 F / T.m",
" w.j.o | } y.$ h.r `.2.&.=.w H.%",
" w n | k P 3 @ 4 x.p.3 ^ K + 5 b",
".c R.u P.<.e.v m 7.s V q.d ' >.9",
".# #.n.<.e % c., B.5.8 J.0.- &.9",
" z _ , p 8.t.x.:.f G.* j.y 6 $ Y",
" o.7 I <.i.i [ u.m.h X        .4"
};
