/* XPM */
const char *icon_famfamfam_flags_tw[] = {
/* width height ncolors chars_per_pixel */
"16 11 132 2",
/* colors */
"   c #F62C2C",
" . c #5C83D1",
" X c #F73030",
" o c #F50000",
" O c #F21414",
" + c #E10000",
" @ c #7193D8",
" # c #FC6666",
" $ c #F83434",
" % c #001BAB",
" & c #9899DD",
" * c #F33232",
" = c #FA5D5D",
" - c #EF0000",
" ; c #F62B2B",
" : c #F9F9FD",
" > c #F43636",
" , c #ED4750",
" < c #F72F2F",
" 1 c #F21313",
" 2 c #0023B1",
" 3 c #F95455",
" 4 c #FC6565",
" 5 c #FD0000",
" 6 c #F74949",
" 7 c #E90000",
" 8 c #FA4242",
" 9 c #F95858",
" 0 c #FEFEFE",
" q c #5782D1",
" w c #F52626",
" e c #F83736",
" r c #FA5C5C",
" t c #F62A2A",
" y c #7799D9",
" u c #F93B3A",
" i c #84A4DF",
" p c #82A2DD",
" a c #FB4A49",
" s c #FB6060",
" d c #F70000",
" f c #F72E2E",
" g c #F64444",
" h c #E30000",
" j c #FD6F6F",
" k c #B9B9E8",
" l c #7595DA",
" z c #F85353",
" x c #F22C2C",
" c c #F95757",
" v c #5881D1",
" b c #F52525",
" n c #F43B3B",
" m c #9999DC",
" M c #0011A9",
" N c #FB4545",
" B c #F10000",
" V c #F62929",
" C c #DD0000",
" Z c #F53F3F",
" A c #FC6A6A",
" S c #F9F9FB",
" D c #537DCF",
" F c #F74E4E",
" G c #4F79CB",
" H c #F23232",
" J c #0021AF",
" K c #F93C3C",
" L c #001FAF",
" P c #F42020",
" I c #4E7BCD",
" U c #FB6162",
" Y c #4A75C9",
" T c #EB0000",
" R c #FA4040",
" E c #F52424",
" W c #FC4F4F",
" Q c #F83737",
" ! c #F1363A",
" ~ c #F90000",
" ^ c #E50000",
" / c #F64242",
" ( c #F21010",
" ) c #F41F1F",
" _ c #F33535",
" ` c #F74646",
" ' c #9090D8",
" ] c #5C85D3",
" [ c #FA3F3F",
" { c #B6B7E6",
" } c #587FCF",
" | c #F52323",
".  c #F43939",
".. c #7D9EDC",
".X c #F30000",
".o c #DF0000",
".O c #5781D1",
".+ c #F53D3D",
".@ c #EA3B46",
".# c #F10B0B",
".$ c #F83636",
".% c #F31A1A",
".& c #7A9CDC",
".* c #EC414B",
".= c #F10F0E",
".- c #F93A3A",
".; c #F9F9FC",
".: c #F85050",
".> c #0019AD",
"., c #F41E1E",
".< c #FB4949",
".1 c #9393DA",
".2 c #ED0000",
".3 c #F93C3D",
".4 c #7F9FDD",
".5 c #F73131",
".6 c #7D9DDB",
".7 c #0027B3",
".8 c #0025B3",
".9 c #F16970",
".0 c #F83535",
".q c #F74B4B",
".w c #FB0000",
".e c #638BD5",
".r c #F31919",
".t c #F22F2F",
".y c #FA4444",
".u c #6087D2",
".i c #E70000",
".p c #537ECF",
".a c #527CCE",
".s c None",
/* pixels */
".7.7.7.7 2 L.> M + ~ d o.X B -.2",
".7 i i { k...& y.9 4 s r c z F T",
".7 i & : 0 m ] v , 8.3 Q.5   6 7",
".8 p.1.; S ' q D.* K e.5 ; w g.i",
" J.4.e l @.O.p I.@.$ X ; b P Z.i",
" %.6.u . }.a G Y ! X ; b ).% n ^",
" 5 j W a N R u.0 < t E ).r O > h",
".w A.< N [.- $ < t E ).r O ( *.o",
" ~ #.y [.- $ f V |.,.r 1.=.#.t.o",
" d U = 9 3.:.q ` /.+.  _ H.t x C",
" o.X B -.2.2 T 7.i ^ h +.o C C C"
};
