/* XPM */
const char *icon_famfamfam_flags_tz[] = {
/* width height ncolors chars_per_pixel */
"16 11 158 2",
/* colors */
"   c #000000",
" . c #BBB73D",
" X c #42ADF6",
" o c #6FC84B",
" O c #C4CB35",
" + c #36A8F4",
" @ c #35A8F3",
" # c #9AD07C",
" $ c #0041E7",
" % c #8F8E57",
" & c #E6E949",
" * c #CBDF00",
" = c #79C979",
" - c #74C774",
" ; c #6DC36D",
" : c #A2D394",
" > c #69BF69",
" , c #818100",
" < c #E5ED37",
" 1 c #6DC64F",
" 2 c #5FBF5F",
" 3 c #D9E53F",
" 4 c #3BA9F5",
" 5 c #1399F2",
" 6 c #535240",
" 7 c #5CBD5C",
" 8 c #383836",
" 9 c #5C572B",
" 0 c #363434",
" q c #54B954",
" w c #514D34",
" e c #54B754",
" r c #E7E846",
" t c #53B553",
" y c #37332B",
" u c #51B551",
" i c #D7EA4A",
" p c #D4E847",
" a c #8B8845",
" s c #98D083",
" d c #1097F2",
" f c #0F97F1",
" g c #53AD00",
" h c #9DC900",
" j c #7BCA7A",
" k c #189CF3",
" l c #5D5D5D",
" z c #74C0C9",
" x c #535353",
" c c #444437",
" v c #1C9BF0",
" b c #E1DE46",
" n c #0031DF",
" m c #002FDF",
" M c #149AF2",
" N c #002DDF",
" B c #899D00",
" V c #989326",
" C c #57512F",
" Z c #BFBD00",
" A c #3F3F3F",
" S c #C1E15B",
" D c #555544",
" F c #D2E544",
" G c #009300",
" H c #009100",
" J c #353535",
" K c #008900",
" L c #008700",
" P c #003DE5",
" I c #008500",
" U c #003BE5",
" Y c #008300",
" T c #008100",
" R c #313131",
" E c #CFCB41",
" W c #007D00",
" Q c #007B00",
" ! c #007900",
" ~ c #D7E442",
" ^ c #006F00",
" / c #A4DE4B",
" ( c #70C571",
" ) c #004BD7",
" _ c #55B1BD",
" ` c #52B950",
" ' c #7D7B3C",
" ] c #D8ED6A",
" [ c #39A9F4",
" { c #AEE047",
" } c #EFED5C",
" | c #E6F05D",
".  c #D4EA4B",
".. c #7BCA7B",
".X c #0035DD",
".o c #79C879",
".O c #77C877",
".+ c #76C876",
".@ c #002DDD",
".# c #0029DD",
".$ c #0027DD",
".% c #0B95F1",
".& c #32A5F3",
".* c #6FC46F",
".= c #5CBE5C",
".- c #898740",
".; c #59BC59",
".: c #58BC58",
".> c #D5D145",
"., c #928C2B",
".< c #54BA54",
".1 c #0039E3",
".2 c #D5D266",
".3 c #51B451",
".4 c #0035E3",
".5 c #656462",
".6 c #E3E342",
".7 c #1A99F2",
".8 c #E0E860",
".9 c #C2C532",
".0 c #33A6F3",
".q c #0047E9",
".w c #585858",
".e c #33A2DF",
".r c #9DDB4F",
".t c #8BD365",
".y c #3E3E3B",
".u c #1499F2",
".i c #4E4E4E",
".p c #0047C1",
".a c #F5F349",
".s c #DAE860",
".d c #2FA4F2",
".f c #3A3A3A",
".g c #363636",
".h c #2CA2F2",
".j c #303030",
".k c #2C2C2C",
".l c #E1DE42",
".z c #918B2F",
".x c #969055",
".c c #C0C032",
".v c #4A4A3C",
".b c #797449",
".n c #51B84C",
".m c #3DACF5",
".M c #72C673",
".N c #DBE960",
".B c #D1DB00",
".V c #343130",
".C c #53B0BB",
".Z c #0033E1",
".A c #403F3F",
".S c #5FC100",
".D c #CFE64A",
".F c #3B3B3A",
".G c #58BC59",
".H c None",
/* pixels */
" H K K K L Y T W ! ^ Q.S Z      ",
" I.... =.O - ( ; >.t.N } % x.i  ",
" K j 2.=.;.< u.n {.6 . c R.k.b B",
" L.o 7.G q.3 o p.l ' 8 R y V.s h",
" L.+.: e ` / r E.v.g.j 9 O.D :.p",
" Y.M t 1.  b.-.y.g.V., 3 F.C 4 U",
" Q.*.r &.> 6.F J C.9 < #.7 M +.4",
" G ].a a.A.f 0.z ~ S _ v.u d.0 n",
".B.2 D A.f w.c i s.e k 5 f.%.d N",
"  .5 l.w.x.8 | z X.m [ @.&.d.h.$",
"       , * g ).q $ P.1.Z m.@.#.X"
};
