/* XPM */
const char *icon_famfamfam_flags_ug[] = {
/* width height ncolors chars_per_pixel */
"16 11 152 2",
/* colors */
"   c #000000",
" . c #7B7B72",
" X c #737D00",
" o c #FAFA3F",
" O c #FBE054",
" + c #DFDF00",
" @ c #F2F837",
" # c #F73030",
" $ c #F50000",
" % c #F7DA3C",
" & c #E10000",
" * c #F9F7F7",
" = c #CED145",
" - c #FAFF7A",
" ; c #F9F93A",
" : c #F36235",
" > c #CACE3A",
" , c #78786E",
" < c #EF0000",
" 1 c #F76F46",
" 2 c #F62B2B",
" 3 c #F1F749",
" 4 c #74746A",
" 5 c #F4FA42",
" 6 c #6F6F6F",
" 7 c #F4D42B",
" 8 c #6B6B6B",
" 9 c #9F9E9E",
" 0 c #6C6C62",
" q c #FC4B4B",
" w c #F6FD51",
" e c #68685E",
" r c #BDC219",
" t c #FBCD00",
" y c #FADE4B",
" u c #9F3B3B",
" i c #FD0000",
" p c #F2F22F",
" a c #E90000",
" s c #4F4F4F",
" d c #F3F93D",
" f c #F5FF00",
" g c #F8F8F8",
" h c #454545",
" j c #AD4F4F",
" k c #F87750",
" l c #F8DB42",
" z c #ABB300",
" x c #F6D836",
" c c #BCBF14",
" v c #C3C732",
" b c #818179",
" n c #F70000",
" m c #710000",
" M c #BE7273",
" N c #E30000",
" B c #1F1F1F",
" V c #F7744B",
" C c #F25C2F",
" Z c #191919",
" A c #F52525",
" S c #D64545",
" D c #FBC2C2",
" F c #F26032",
" G c #AA4A4B",
" H c #F10000",
" J c #F6FB4C",
" K c #88887F",
" L c #DD0000",
" P c #F53F3F",
" I c #B6B6B6",
" U c #84847B",
" Y c #FD5454",
" T c #F2F213",
" R c #FBDF51",
" E c #F5F523",
" W c #FB8562",
" Q c #FE5858",
" ! c #901A1A",
" ~ c #F9FE5F",
" ^ c #F1F10B",
" / c #F42020",
" ( c #9C9C9C",
" ) c #EB0000",
" _ c #F8BBBB",
" ` c #F5FA47",
" ' c #FCE879",
" ] c #FD4F50",
" [ c #F1F10E",
" { c #F6F4F4",
" } c #BFC41F",
" | c #F4F41E",
".  c #FA825D",
".. c #F66C42",
".X c #150000",
".o c #BABD10",
".O c #7F7F75",
".+ c #F7F72E",
".@ c #C1C624",
".# c #E50000",
".$ c #706F66",
".% c #C4C82A",
".& c #F97B55",
".* c #F46539",
".= c #F9DD47",
".- c #E39F00",
".; c #CCCF3F",
".: c #931F1F",
".> c #F3F319",
"., c #DDE900",
".< c #C6CA2F",
".1 c #F97F58",
".2 c #F5693D",
".3 c #F6F629",
".4 c #962525",
".5 c #F30000",
".6 c #FAFA44",
".7 c #C8CC34",
".8 c #A74646",
".9 c #FBE259",
".0 c #DF0000",
".q c #494A49",
".w c #D0D349",
".e c #992B2B",
".r c #F9F9F9",
".t c #F8FE59",
".y c #F1F731",
".u c #404040",
".i c #86867E",
".p c #363636",
".a c #F8FE5C",
".s c #ED0000",
".d c #F25B2C",
".f c #646459",
".g c #606055",
".h c #F8F834",
".j c #F9F900",
".k c #242424",
".l c #F7FD54",
".z c #F0F62C",
".x c #F4D844",
".c c #F5D631",
".v c #FCFC66",
".b c #141414",
".n c #F4D326",
".m c #FE7676",
".M c #BDBDBD",
".N c #FCE35C",
".B c #E70000",
".V c #D8DC6A",
".C c #AF5353",
".Z c None",
/* pixels */
"                                ",
"   K K.i U b.O . , 4.$ 0 e.f.g  ",
" f - ~.a.t.l w J ` 5 d @.y.z 3.,",
" t '.N.9 O R y.= l % x.c 7.n.x.-",
" i.m Q Y ] q D 9.r _ # 2 A / P.B",
" m M.C j G.8 * ( 8 {.e.4.: ! u.X",
"   6 s.q h.u.M g S I.k B Z.b.p  ",
" z.V.w =.; >.7.<.%.@ } r c.o v X",
".j.v.6 o ;.h.+.3 E |.> T [ ^ p +",
" n W. .1.& k V 1...2.* : F C.d L",
" $.5 H <.s.s ) a.B.# N &.0 L L L"
};
