/* XPM */
const char *icon_famfamfam_flags_um[] = {
/* width height ncolors chars_per_pixel */
"16 11 131 2",
/* colors */
"   c #E83232",
" . c #A7A7A7",
" X c #EA4141",
" o c #DB3C3C",
" O c #93B6DF",
" + c #92B6DE",
" @ c #577DCF",
" # c #CD0000",
" $ c #E83838",
" % c #858585",
" & c #A9BEE7",
" * c #F4F5F5",
" = c #EC4B4C",
" - c #DD0202",
" ; c #5C5959",
" : c #EC4F4F",
" > c #9F0000",
" , c #D9D9DA",
" < c #E94242",
" 1 c #8B0000",
" 2 c #FEFEFE",
" 3 c #ABBFE8",
" 4 c #FDFEFD",
" 5 c #FCFCFC",
" 6 c #A9BDE6",
" 7 c #EF6F6F",
" 8 c #FAFAFA",
" 9 c #E32828",
" 0 c #F8F8F8",
" q c #A5B9E2",
" w c #A4B9E1",
" e c #F6F6F6",
" r c #A3B7E0",
" t c #F4F4F4",
" y c #EE6464",
" u c #F2F2F2",
" i c #F0F0F0",
" p c #8DB5DE",
" a c #EEEEEE",
" s c #ECECEC",
" d c #EAEAEA",
" f c #D20000",
" g c #E8E8E8",
" h c #E02828",
" j c #710000",
" k c #6BA4DA",
" l c #DCDCDC",
" z c #CF0000",
" x c #6095D9",
" c c #D4D4D4",
" v c #B9C9EB",
" b c #D0D0D0",
" n c #E83636",
" m c #7CB4DD",
" M c #7BB4DC",
" N c #CC0000",
" B c #A6BAE2",
" V c #C2C2C2",
" C c #E93A3A",
" Z c #EB4949",
" A c #E62D2D",
" S c #EBEBEA",
" D c #EB4D4C",
" F c #E73131",
" G c #EE5C5C",
" H c #EB4242",
" J c #B20000",
" K c #B9CAED",
" L c #E93939",
" P c #B6C8EA",
" I c #E33333",
" U c #D33737",
" Y c #E62C2C",
" T c #E02626",
" R c #C00000",
" E c #787878",
" W c #DCDADA",
" Q c #E9EAEA",
" ! c #DB2424",
" ~ c #D92222",
" ^ c #950000",
" / c #BACBED",
" ( c #B9C9EC",
" ) c #BA0000",
" _ c #B6C7E9",
" ` c #B4C5E7",
" ' c #A60000",
" ] c #5B83D5",
" [ c #5983D3",
" { c #ACC0E9",
" } c #5981D3",
" | c #4C4C4C",
".  c #AABEE7",
".. c #577FD1",
".X c #EE5657",
".o c #A8BCE5",
".O c #557DCF",
".+ c #F9F9F9",
".@ c #A6BAE3",
".# c #537BCD",
".$ c #F7F7F7",
".% c #7E0000",
".& c #A3B8E0",
".* c #F5F5F5",
".= c #4F77C9",
".- c #F3F3F3",
".; c #F1F1F1",
".: c #6EA7DA",
".> c #EFEFEF",
"., c #E72F2F",
".< c #EDEDED",
".1 c #DD0201",
".2 c #DC0000",
".3 c #CD1C1C",
".4 c #E9E9E9",
".5 c #E7E7E7",
".6 c #E5E5E5",
".7 c #7B0000",
".8 c #E1E1E1",
".9 c #D90000",
".0 c #CFCFCF",
".q c #D41F1F",
".w c #EB4646",
".e c #F29F9F",
".r c #D60000",
".t c #E62A2A",
".y c #A7BBE3",
".u c #8EB5DE",
".i c #D30000",
".p c #E93D3D",
".a c None",
/* pixels */
" ] ] ] ] }...O.#.= I h -.2.9.r.i",
" ] 2 / 4 ( 5 P 8 `.$ e t u u i E",
" ] / { 3. .o.y B.& y.X = H C D #",
" [ K 5 & 8.y.$.& O u i a s S.< .",
" } v 6.o.y q.& + m Z X L   A < )",
" @ 5.o 0 q.*.u.;.: a s d.4.5 Q %",
".# _.@ w r p M k x $ F Y 9 ! o >",
".0.+ e t.-.;.> a s d g.5.6 l W |",
" I.e 7 G :.w.p n.,.t T ~.q.3 U.%",
" V e *.- u i a.< s d g.8 , c b ;",
".1.2.9.r.i f z N R J ' ^ 1.7 j j"
};
