/* XPM */
const char *icon_famfamfam_flags_uz[] = {
/* width height ncolors chars_per_pixel */
"16 11 141 2",
/* colors */
"   c #000000",
" . c #AF5C74",
" X c #00002B",
" o c #54A655",
" O c #F2F2F7",
" + c #B56A80",
" @ c #9F3F5A",
" # c #000045",
" $ c #000031",
" % c #A24760",
" & c #00001D",
" * c #2C2C91",
" = c #66B166",
" - c #A85169",
" ; c #B9B9D9",
" : c #5F5FAF",
" > c #00005F",
" , c #F4F5F5",
" < c #188619",
" 1 c #58A958",
" 2 c #902644",
" 3 c #4BA14B",
" 4 c #373798",
" 5 c #449F44",
" 6 c #429B42",
" 7 c #3D993D",
" 8 c #C3C3D5",
" 9 c #5353A6",
" 0 c #3A993A",
" q c #399739",
" w c #8F8DC3",
" e c #349534",
" r c #329132",
" t c #94324E",
" y c #298F29",
" u c #FEFEFE",
" i c #FDFCFD",
" p c #FCFCFC",
" a c #FBFCFB",
" s c #FAFAFA",
" d c #F8F8F8",
" f c #F6F6F6",
" g c #5C5CAB",
" h c #F4F4F4",
" j c #F2F2F2",
" k c #D9D8EA",
" l c #138313",
" z c #ABABD4",
" x c #000015",
" c c #0B7D0B",
" v c #8B1F3E",
" b c #932B49",
" n c #6565B0",
" m c #004F00",
" M c #004700",
" N c #003F00",
" B c #003900",
" V c #4E4EA3",
" C c #003300",
" Z c #A44963",
" A c #002D00",
" S c #002700",
" D c #DDDDED",
" F c #001F00",
" G c #001900",
" H c #861435",
" J c #000049",
" K c #001100",
" L c #0F800E",
" P c #000B00",
" I c #000700",
" U c #000100",
" Y c #AC5971",
" T c #D9D9EC",
" R c #5857A9",
" E c #922A47",
" W c #D5D5E8",
" Q c #C1C1D1",
" ! c #7979BC",
" ~ c #7777BA",
" ^ c #B3B3D7",
" / c #C2C2DF",
" ( c #650000",
" ) c #D5D5EB",
" _ c #BE798C",
" ` c #6160AE",
" ' c #F1F1F9",
" ] c #EFEFF7",
" [ c #EDEFF5",
" { c #150000",
" } c #3D3C9B",
" | c #5DAC5D",
".  c #4949A0",
".. c #881939",
".X c #ADADD7",
".o c #50A450",
".O c #97314E",
".+ c #469E46",
".@ c #952F4C",
".# c #3F9C3F",
".$ c #993753",
".% c #359435",
".& c #DFDFED",
".* c #00005B",
".= c #A2455F",
".- c #2E922E",
".; c #2F902F",
".: c #A0415D",
".> c #2C8E2C",
"., c #FDFDFD",
".< c #831030",
".1 c #238C23",
".2 c #FBFBFB",
".3 c #A54B65",
".4 c #F9F9F9",
".5 c #CCCCE4",
".6 c #1E881E",
".7 c #F7F7F7",
".8 c #F5F5F5",
".9 c #F3F3F3",
".0 c #EAEAF4",
".q c #8F2442",
".w c #000061",
".e c #C6C6E1",
".r c #9797CA",
".t c #9C3A55",
".y c #530000",
".u c #000039",
".i c #E2E2EF",
".p c #983451",
".a c #313194",
".s c #000025",
".d c #42429E",
".f c #9C3C58",
".g c #BDBDD1",
".h c #DCDCEC",
".j c #9F445E",
".k c #AB546D",
".l c #00003F",
".z c #61AE62",
".x c None",
/* pixels */
".w.X ) : >.* ; w ^ J #.l.u $ X.s",
".w O z ! ~.i T.&.5 n ` g R 9 V &",
".w D.0.r.h.e k / W.d } 4.a *.  x",
" ( _ . Y.k -.3 %.:.f.$.O b 2.j {",
" ' u u., i p.2 s.4 d.7 f.8 h.8 8",
" ] u., p p.2 s.4 d.7 f.8 h.9 , Q",
" [., p a.2 s.4 d.7 f.8 h.9 j h.g",
".y + Z.= @.t.p.@ E.q v.. H.< t  ",
" m = 5.# 0 e.- y.1.6 < l L c.;  ",
" M.z | 1 o.o 3.+ 6 7 q.% r.;.>  ",
" N B C A S F G K P I U          "
};
