/* XPM */
const char *icon_famfamfam_flags_va[] = {
/* width height ncolors chars_per_pixel */
"16 11 144 2",
/* colors */
"   c #FAE971",
" . c #D1AB00",
" X c #F6E56D",
" o c #F8E665",
" O c #FCED8A",
" + c #F9E973",
" @ c #F4E36E",
" # c #CDD0CC",
" $ c #DFBF00",
" % c #F7F7F5",
" & c #FAE86D",
" * c #F7E66A",
" = c #EFEDED",
" - c #E5E3CC",
" ; c #BBB732",
" : c #F8E564",
" > c #F5E361",
" , c #EBCF15",
" < c #F6E258",
" 1 c #F9E97C",
" 2 c #D9B700",
" 3 c #D3D3D1",
" 4 c #D9D7C3",
" 5 c #F6E565",
" 6 c #D9A4B6",
" 7 c #F1EFE1",
" 8 c #EFEDDF",
" 9 c #E7C900",
" 0 c #E7C700",
" q c #F7E45F",
" w c #A8AC6E",
" e c #F4E25C",
" r c #FCEC7B",
" t c #FCFCFC",
" y c #BBB6AF",
" u c #F5E153",
" i c #FAFAFA",
" p c #EBCD07",
" a c #F8F8F8",
" s c #F6F6F6",
" d c #FCF092",
" f c #F4F4F4",
" g c #E5C901",
" h c #F2F2F2",
" j c #C4C27C",
" k c #FBED87",
" l c #F5E156",
" z c #F6F5EF",
" x c #FCED8B",
" c c #CCBC5F",
" v c #EAE6AE",
" b c #FAE86B",
" n c #FBED8D",
" m c #CDA700",
" M c #C9BF7D",
" N c #F5E266",
" B c #F7E775",
" V c #FAE86E",
" C c #ECE7A9",
" Z c #F8F6ED",
" A c #F6F4EB",
" S c #F8E562",
" D c #DBB700",
" F c #E5E2C3",
" G c #FCFCF4",
" H c #FAFAF2",
" J c #F8E86F",
" K c #BDBC81",
" L c #E0B19D",
" P c #BEA361",
" I c #FBEA75",
" U c #F7E671",
" Y c #E9C900",
" T c #F9E769",
" R c #E1E3E3",
" E c #F1F1F6",
" W c #F0F0EB",
" Q c #F1F1E2",
" ! c #EBCD05",
" ~ c #F8F8F6",
" ^ c #E9CD03",
" / c #D5AF00",
" ( c #DBDCEA",
" ) c #F5F3E9",
" _ c #F7E460",
" ` c #F3F0DD",
" ' c #FBE971",
" ] c #DFADB9",
" [ c #F2F2F3",
" { c #F8E664",
" } c #E3C300",
" | c #E0A7A6",
".  c #EBE3E2",
".. c #EAE1E1",
".X c #F9E668",
".o c #F5F5EF",
".O c #CFA700",
".+ c #F6E35B",
".@ c #FAEA80",
".# c #FCEB78",
".$ c #F9F9F6",
".% c #F7F7F4",
".& c #FCEF8F",
".* c #FBEC84",
".= c #DDBF00",
".- c #FBFBFB",
".; c #F9F9F9",
".: c #F7F7F7",
".> c #F5F5F5",
"., c #F4F5F4",
".< c #DDD063",
".1 c #F3F3F3",
".2 c #F1F1F1",
".3 c #EFEFEF",
".4 c #EDEDED",
".5 c #EBEBEB",
".6 c #EAEBEA",
".7 c #E9E9E9",
".8 c #E7E7E7",
".9 c #E5E5E5",
".0 c #F9E767",
".q c #DFDFDF",
".w c #DDDDDD",
".e c #DBDBDB",
".r c #F3E057",
".t c #D7D7D7",
".y c #D7B300",
".u c #D5D5D5",
".i c #F4DF4E",
".p c #EBCD03",
".a c #D3D3D3",
".s c #E9CB01",
".d c #F9E76A",
".f c #D1D1D1",
".g c #FCEE8E",
".h c #CFCFCF",
".j c #F7E45E",
".k c #FAE96E",
".l c #FBF9F0",
".z c #E5C500",
".x c #A9886E",
".c c #FCED87",
".v c #F8E879",
".b c None",
/* pixels */
" ,.p p p ^ Y 0 g 8.3.4.5.7.8.9 R",
" p d d.&.g x.c n G t.- i.; a.:.q",
" p d r.# I ' b +.l i.; ~ % s.:.w",
" !.&.# I '.k.0 J H E - j K F `.e",
".s.g I ' V.d S *.$ ( w M c ; v.t",
" Y O   V T o.j 5 Z.:.o P.x W.,.u",
" 9 k & T o _ < >.% C.< L 6 y # 3",
".z.*.X { _.+ u e z Q 7 ] | =.6.a",
" }.@ : q.+ l.i.r ) f.1... .2 h.h",
" $ 1.v B U X N @ A.> f.1 [ h h.h",
".= D 2.y / ..O m 4.t.u.a.f.h.h.h"
};
