/* XPM */
const char *icon_famfamfam_flags_ve[] = {
/* width height ncolors chars_per_pixel */
"16 11 159 2",
/* colors */
"   c #000000",
" . c #2525CD",
" X c #771072",
" o c #F3D700",
" O c #3030D1",
" + c #7676E4",
" @ c #F50000",
" # c #F7F749",
" $ c #5353DC",
" % c #FAFA42",
" & c #3B3BD5",
" * c #E10000",
" = c #B7D500",
" - c #B7D300",
" ; c #43003B",
" : c #E3E3F2",
" > c #FC6666",
" , c #F83434",
" < c #A5A5EA",
" 1 c #FEFE74",
" 2 c #4F4FDB",
" 3 c #FAFA5C",
" 4 c #EDCD00",
" 5 c #FEFE77",
" 6 c #5858DD",
" 7 c #FA5D5D",
" 8 c #EF0000",
" 9 c #F6F644",
" 0 c #F9F93D",
" q c #AE6AAA",
" w c #4B4BDA",
" e c #00008D",
" r c #FBDF00",
" t c #F21313",
" y c #E6E6F4",
" u c #F95455",
" i c #3636CF",
" p c #ACD289",
" a c #F9F957",
" s c #0000BB",
" d c #F1F1F8",
" f c #E90000",
" g c #E7B900",
" h c #F95858",
" j c #9595E3",
" k c #DFE0F0",
" l c #6F6FE2",
" z c #F5DB00",
" x c #842480",
" c c #1A1ACA",
" v c #0000C1",
" b c #F70000",
" n c #F72E2E",
" m c #E30000",
" M c #9C9CE6",
" N c #8384DE",
" B c #494ADA",
" V c #953F90",
" C c #F22C2C",
" Z c #1F1FCB",
" A c #EFD100",
" S c #F6F62B",
" D c #8B2F86",
" F c #2A2ACF",
" G c #F10000",
" H c #F62929",
" J c #DD0000",
" K c #3535D3",
" L c #FDEB00",
" P c #7D1978",
" I c #FDE500",
" U c #F23232",
" Y c #FCFC4B",
" T c #FDE300",
" R c #FDE100",
" E c #B9DA69",
" W c #FDFD6D",
" Q c #419700",
" ! c #FB6162",
" ~ c #F5F526",
" ^ c #E9BD00",
" / c #EB0000",
" ( c #5454DD",
" ) c #FCFC65",
" _ c #F8F836",
" ` c #000091",
" ' c #2B2BCF",
" ] c #FCFC7C",
" [ c #F7DB00",
" { c #3636D3",
" } c #6769D8",
" | c #0000BF",
".  c #F90000",
".. c #7B1475",
".X c #E50000",
".o c #F64242",
".O c #3B3BD1",
".+ c #4B4ADA",
".@ c #FBFB60",
".# c #FEFE59",
".$ c #F7F731",
".% c #F33535",
".& c #F8F853",
".* c #F74646",
".= c #E9E9F7",
".- c #3B3BD4",
".; c #FA3F3F",
".: c #F1D500",
".> c #F52323",
"., c #FEFE5C",
".< c #F43939",
".1 c #9B4997",
".2 c #FDFD51",
".3 c #F2F2F9",
".4 c #1414C8",
".5 c #984594",
".6 c #7272E2",
".7 c #F30000",
".8 c #DF0000",
".9 c #504FDB",
".0 c #F53D3D",
".q c #F10B0B",
".w c #FDFD54",
".e c #F6F62C",
".r c #FFE700",
".t c #000089",
".y c #F7F74E",
".u c #FFDD00",
".i c #F9F93C",
".p c #F10F0E",
".a c #439500",
".s c #F93A3A",
".d c #801F7C",
".f c #F85050",
".g c #1919C9",
".h c #F41E1E",
".j c #FCFC4C",
".k c #FEFE79",
".l c #EBC100",
".z c #ED0000",
".x c #2F2FD1",
".c c #FDFD71",
".v c #F9DD00",
".b c #2020CC",
".n c #923A8D",
".m c #F38A7F",
".M c #F8F837",
".N c #8E3489",
".B c #8B3286",
".V c #F74B4B",
".C c #F31919",
".Z c #F22F2F",
".A c #FBFB47",
".S c #FA4444",
".D c #872A82",
".F c #3F3FD3",
".G c #E70000",
".H c #FCFC69",
".J c None",
/* pixels */
" L - =.r I I T R r.v [ z o.: A 4",
" Q.m ] p 5 1.c W.H ).@ 3 a.&.y.l",
".a N } E.#.w.2.j.A % 0.M.$.e # ^",
".u.k.,.#.w.2 Y.A %.i _.$ S ~ 9 g",
" v + 6 (.9 w.=.3 d y O ' ..b.F `",
" |.6 $ 2.+.= < & { M : . Z c.O e",
" s l 2 B.= <.- K.x F j k.g.4 i.t",
" ; q.1.5 V.n.N D.D x.d P.. X.B  ",
".  >.S.;.s , n H.>.h.C t.p.q.Z.8",
" b ! 7 h u.f.V.*.o.0.<.% U.Z C J",
" @.7 G 8.z.z / f.G.X m *.8 J J J"
};
