/* XPM */
const char *icon_famfamfam_flags_vi[] = {
/* width height ncolors chars_per_pixel */
"16 11 144 2",
/* colors */
"   c #F2EC73",
" . c #E6DD5A",
" X c #E1E1EA",
" o c #FDFBE1",
" O c #A9A8DE",
" + c #8883AD",
" @ c #E8E15F",
" # c #F4F0A3",
" $ c #F5F5F0",
" % c #F4EE8F",
" & c #F2E88D",
" * c #ECE048",
" = c #9595D7",
" - c #DDDF82",
" ; c #F1F1EF",
" : c #FDFDFE",
" > c #FBFBFC",
" , c #DCD56D",
" < c #D3D5A3",
" 1 c #F7F7F8",
" 2 c #DDDD5A",
" 3 c #499250",
" 4 c #D9D195",
" 5 c #F7F7E4",
" 6 c #E9D93E",
" 7 c #E3D442",
" 8 c #F7F3D0",
" 9 c #5A43D5",
" 0 c #F8F6F2",
" q c #CFCFCD",
" w c #CFCDCD",
" e c #EBDD43",
" r c #F7EE9E",
" t c #DFD962",
" y c #E1D725",
" u c #DCDCEA",
" i c #786CDE",
" p c #E7DB42",
" a c #BB9A42",
" s c #FCFCFC",
" d c #FBFCFB",
" f c #D66B53",
" g c #FAFAFA",
" h c #7968CB",
" j c #E6EAE3",
" k c #D3D3D7",
" l c #EBD51E",
" z c #F2F2F2",
" x c #F5EB56",
" c c #B9B9E5",
" v c #BFBF6D",
" b c #DC7173",
" n c #EDE779",
" m c #ECE5A3",
" M c #EEE831",
" N c #F0F1E9",
" B c #D4CEBD",
" V c #F9F2A9",
" C c #EDCFCF",
" Z c #C9BF52",
" A c #F1E76C",
" S c #BEBEE6",
" D c #B5B6F1",
" F c #B8B7EA",
" G c #F3E985",
" H c #EBCBD0",
" J c #F1F1F0",
" K c #F6F1A2",
" L c #EBDF55",
" P c #FAFAF2",
" I c #EFEFF1",
" U c #D0CD62",
" Y c #EDEDEF",
" T c #CECE2B",
" R c #F3E74C",
" E c #BFBFCF",
" W c #EBDF58",
" Q c #F7F7FC",
" ! c #BDBDCD",
" ~ c #BBBBCB",
" ^ c #E6E37E",
" / c #EDE867",
" ( c #7575CF",
" ) c #5E49DD",
" _ c #FCF9DC",
" ` c #D8D8E7",
" ' c #E4E596",
" ] c #9C9CE1",
" [ c #918CBF",
" { c #F7EF98",
" } c #AEAEE2",
" | c #FCF6BE",
".  c #F9F7F0",
".. c #F2F2F3",
".X c #D6D5F2",
".o c #C9C8EF",
".O c #9B9BD9",
".+ c #C2C2E8",
".@ c #E0D942",
".# c #F9F6D5",
".$ c #F2E96E",
".% c #F8F2C0",
".& c #FBEF8E",
".* c #BCBCBA",
".= c #BCCEA6",
".- c #E7E7CD",
".; c #DDD581",
".: c #8B7FE0",
".> c #F5EF49",
"., c #FBFBFB",
".< c #ECE554",
".1 c #F9F9F9",
".2 c #E4DE2B",
".3 c #F7F7F7",
".4 c #F1F1F1",
".5 c #EFEFEF",
".6 c #EDEDED",
".7 c #EBEBEB",
".8 c #E9E9E9",
".9 c #8989CD",
".0 c #E7E7E7",
".q c #E5E5E5",
".w c #E3E3E3",
".e c #E1E1E1",
".r c #AAA9E0",
".t c #DFDFDF",
".y c #DDDDDD",
".u c #7775CF",
".i c #D9D9D9",
".p c #E3D73A",
".a c #D7D7D7",
".s c #D3D3D3",
".d c #D1D1D1",
".f c #CFCFCF",
".g c #CBCBCB",
".h c #D8605E",
".j c #EEEED6",
".k c #D9716C",
".l c #C2C1ED",
".z c #6450DD",
".x c #92B34D",
".c c #F8F0A4",
".v c #FDFDF5",
".b c None",
/* pixels */
".4.4.4.4.4 I.5.6.6.7.8.0.q.w.e.t",
" ; V _ o |.& : r { s.c.%.# 8 & 4",
".4 # / n % K.v  .> P 5 A L.@ 2 v",
" Y > G @.< x.: [ + i.; M T.p.- k",
" ( Q B ^ . R h.z ) 9 7.2 t m } E",
".u.X F s s.$ 0 b C.h 6 <.O u.r !",
" =.l.o d 3 W. .k H f * D.9 X O ~",
".6 s.,., e.x ' Z a U - l ` z z q",
".7 s g g N.= j p y , ].* J.4 z.g",
".8., g.1.1 1.3 $.j.+ c S.. z z.g",
".0.q.w.e.t.y.i.a.a.s.d.f w.g.g.g"
};
