/* XPM */
const char *icon_famfamfam_flags_vn[] = {
/* width height ncolors chars_per_pixel */
"16 11 127 2",
/* colors */
"   c #F7F72F",
" . c #FC784C",
" X c #F62C2C",
" o c #FBBF47",
" O c #FCD54B",
" + c #F50000",
" @ c #F21414",
" # c #E10000",
" $ c #F83E34",
" % c #FC6666",
" & c #FACC42",
" * c #F8C136",
" = c #F33232",
" - c #F6332B",
" ; c #FA5D5D",
" : c #EF0000",
" > c #F62B2B",
" , c #F43636",
" < c #FC4B4B",
" 1 c #F21313",
" 2 c #F95455",
" 3 c #F8F835",
" 4 c #FC6565",
" 5 c #FD0000",
" 6 c #F74949",
" 7 c #FE7474",
" 8 c #E90000",
" 9 c #FA4242",
" 0 c #F95858",
" q c #F9733A",
" w c #F52626",
" e c #F64E2A",
" r c #F83736",
" t c #FB5446",
" y c #FA5C5C",
" u c #F7F730",
" i c #FB4A49",
" p c #FB6060",
" a c #F70000",
" s c #F64444",
" d c #FE5959",
" f c #E30000",
" g c #FD6F6F",
" h c #FAFA40",
" j c #F85353",
" k c #F22C2C",
" l c #F95757",
" z c #F52525",
" x c #F43B3B",
" c c #FE5F5F",
" v c #FB4545",
" b c #F10000",
" n c #F62929",
" m c #DD0000",
" M c #F53F3F",
" N c #FD5454",
" B c #F9F93B",
" V c #FC6A6A",
" C c #F74E4E",
" Z c #FF7B7A",
" A c #FE7979",
" S c #F23232",
" D c #FE5858",
" F c #F93C3C",
" G c #F42020",
" H c #FF0000",
" J c #FB6162",
" K c #EB0000",
" L c #FD7071",
" P c #FA4040",
" I c #F52424",
" U c #FD5150",
" Y c #F8F836",
" T c #FC4F4F",
" R c #FB7647",
" E c #FD5353",
" W c #FC6969",
" Q c #F83737",
" ! c #F6422B",
" ~ c #F90000",
" ^ c #F7602F",
" / c #FBCB46",
" ( c #E50000",
" ) c #F64242",
" _ c #FD6D6D",
" ` c #F21010",
" ' c #F41F1F",
" ] c #FC4A4B",
" [ c #F33535",
" { c #F74646",
" } c #FAFA41",
" | c #FA3F3F",
".  c #F52323",
".. c #F6772A",
".X c #F43939",
".o c #F30000",
".O c #DF0000",
".+ c #F53D3D",
".@ c #F10B0B",
".# c #FE7777",
".$ c #F31A1A",
".% c #F4301E",
".& c #F9F93C",
".* c #F10F0E",
".= c #F93A3A",
".- c #F7432E",
".; c #F85050",
".: c #FF7B7B",
".> c #FB4949",
"., c #F5F524",
".< c #ED0000",
".1 c #F93C3D",
".2 c #F7D230",
".3 c #F8F834",
".4 c #F73131",
".5 c #FE5C5C",
".6 c #FE7273",
".7 c #FD5151",
".8 c #F32719",
".9 c #F74B4B",
".0 c #FB0000",
".q c #FE7676",
".w c #F31919",
".e c #F22F2F",
".r c #FA4444",
".t c #E70000",
".y c None",
/* pixels */
" H H H H 5 5 5 5.0 ~ a +.o b :.<",
" H.:.: A.# 7 L _ W 4 p y l j C K",
" H Z c.5 d N.7 . R 9.1 Q.4 X 6 8",
" H A.5 d N.7 < o & F r.4 > w s.t",
" 5.q D N U O / }.& *.2 - z G M.t",
" 5.6 E T ] t h B Y u ! z '.$ x (",
" 5 g T i v P q 3  .. I '.w @ , f",
".0 V.> v |.=.3 ^ e., '.w @ ` =.O",
" ~ %.r |.= $.- n. .%.8 1.*.@.e.O",
" a J ; 0 2.;.9 { ).+.X [ S.e k m",
" +.o b :.<.< K 8.t ( f #.O m m m"
};
