/* XPM */
const char *icon_famfamfam_flags_wf[] = {
/* width height ncolors chars_per_pixel */
"16 11 138 2",
/* colors */
"   c #C33232",
" . c #000095",
" X c #D35C5C",
" o c #EDCBCB",
" O c #AB0000",
" + c #C22727",
" @ c #D14F50",
" # c #970000",
" $ c #CC4B4B",
" % c #D46060",
" & c #CB4040",
" * c #6F0000",
" = c #E29595",
" - c #D76666",
" ; c #BD2525",
" : c #D45959",
" > c #D25757",
" , c #D86A6A",
" < c #A50000",
" 1 c #B70B0B",
" 2 c #C73535",
" 3 c #C12F2F",
" 4 c #C93B3A",
" 5 c #B70F0E",
" 6 c #C32A2A",
" 7 c #CB3F3F",
" 8 c #D35454",
" 9 c #C83B3C",
" 0 c #C73B3B",
" q c #9F0000",
" w c #C53939",
" e c #CD4E4E",
" r c #DA8C8C",
" t c #D97474",
" y c #770000",
" u c #E2AEAE",
" i c #D05454",
" p c #D86969",
" a c #E9ABAB",
" s c #FEFEFE",
" d c #C73434",
" f c #CF4949",
" g c #000093",
" h c #AD0000",
" j c #EFD8D8",
" k c #C02323",
" l c #CC4949",
" z c #EECDCD",
" x c #850000",
" c c #C23232",
" v c #C32929",
" b c #C73A3A",
" n c #DD7777",
" m c #C33636",
" M c #CC4242",
" N c #D05353",
" B c #A70000",
" V c #7676D1",
" C c #CE5151",
" Z c #930000",
" A c #C53131",
" S c #7F0000",
" D c #C32F2F",
" F c #CA4646",
" G c #C93B3B",
" H c #A10000",
" J c #E09090",
" K c #C53737",
" L c #C33535",
" P c #8D0000",
" I c #C42C2C",
" U c #CC4141",
" Y c #7979D3",
" T c #E4AEAE",
" R c #E39696",
" E c #B81313",
" W c #E19494",
" Q c #E9A9A9",
" ! c #C73D3C",
" ~ c #CE5050",
" ^ c #D66565",
" / c #CD4545",
" ( c #AF0000",
" ) c #D05455",
" _ c #C73F3F",
" ` c #C33B3B",
" ' c #9B0000",
" ] c #DD8989",
" [ c #DA6F6F",
" { c #D96F6E",
" } c #730000",
" | c #C93A3A",
".  c #D14F4F",
".. c #DF8D8E",
".X c #C53636",
".o c #C93C3D",
".O c #950000",
".+ c #810000",
".@ c #C52F2F",
".# c #CD4444",
".$ c #E5B1B1",
".% c #E3AFAF",
".& c #6D0000",
".* c #CF5353",
".= c #FFFFFF",
".- c #E5BEBE",
".; c #FDFDFD",
".: c #CF4A49",
".> c #BE1E1E",
"., c #F7F7F7",
".< c #D14341",
".1 c #CA4444",
".2 c #C84242",
".3 c #F3F3F3",
".4 c #A30000",
".5 c #D14E4E",
".6 c #8F0000",
".7 c #D35D5D",
".8 c #7B0000",
".9 c #7B7BD3",
".0 c #670000",
".q c #E29293",
".w c #CE4E4E",
".e c #D56162",
".r c #C52E2E",
".t c #CC4142",
".y c #E49898",
".u c #C73D3D",
".i c #DA8E8E",
".p c #890000",
".a c #CE4747",
".s c #BA1919",
".d c #C22E2E",
".f c #CA4343",
".g c #D25858",
".h c #750000",
".j c #C02C2C",
".k c None",
/* pixels */
" . ..=.= ( h f ( O B.4 q ' # Z.O",
" ..9.= s n t a { p ^ % X >.* e x",
" ..9 s s : i.y.5.a M.o K A I l x",
" . Y s s 8 C = f.t.w z., j !.1.+",
" g V s.; @ N W U 9 o.f.$ 0.% _ S",
".< Q R.q J.. ] G.X., T +.i.3 `.8",
" ( [. .: / & 4 2 D j b r.d.- m y",
" O , f / 7 | d.@ 6 b u.3.- ;   }",
" B -.# 7 | d.r v k.>.s E 5 1 3 *",
" H.e.7.g ) ~ $ F.2.u w L c 3.j.0",
" < ' # Z.6 P.p x.+.8 y.h } *.&.h"
};
