/* XPM */
const char *icon_famfamfam_flags_ws[] = {
/* width height ncolors chars_per_pixel */
"16 11 133 2",
/* colors */
"   c #515195",
" . c #00002B",
" X c #464694",
" o c #F62C2C",
" O c #50468A",
" + c #F73030",
" @ c #F50000",
" # c #F21414",
" $ c #E10000",
" % c #FC6666",
" & c #000031",
" * c #F83434",
" = c #58589B",
" - c #7A7AAF",
" ; c #8B8BB9",
" : c #F33232",
" > c #FA5D5D",
" , c #9C9CC3",
" < c #EF0000",
" 1 c #52478B",
" 2 c #51478A",
" 3 c #F62B2B",
" 4 c #ABABCB",
" 5 c #D0D1E2",
" 6 c #000037",
" 7 c #F43636",
" 8 c #000023",
" 9 c #F72F2F",
" 0 c #F21313",
" q c #756DA3",
" w c #4C4188",
" e c #F95455",
" r c #FC6565",
" t c #473B83",
" y c #463B82",
" u c #FD0000",
" i c #AEB5D4",
" p c #F74949",
" a c #E90000",
" s c #FA4242",
" d c #F95858",
" f c #F52626",
" g c #7B7BAF",
" h c #F83736",
" j c #8C8CB9",
" k c #554A8D",
" l c #FA5C5C",
" z c #F62A2A",
" x c #F93B3A",
" c c #FB4A49",
" v c #FB6060",
" b c #F70000",
" n c #F72E2E",
" m c #F64444",
" M c #E30000",
" N c #FD6F6F",
" B c #4B4086",
" V c #F85353",
" C c #BBBBD6",
" Z c #4B4B93",
" A c #F22C2C",
" S c #F95757",
" D c #F52525",
" F c #F43B3B",
" G c #9BA3CA",
" H c #41367F",
" J c #FB4545",
" K c #F10000",
" L c #F62929",
" P c #DD0000",
" I c #F53F3F",
" U c #FC6A6A",
" Y c #F74E4E",
" T c #F23232",
" R c #4C4186",
" E c #F93C3C",
" W c #F42020",
" Q c #FB6162",
" ! c #EB0000",
" ~ c #FA4040",
" ^ c #7269A1",
" / c #00003B",
" ( c #F52424",
" ) c #FC4F4F",
" _ c #F83737",
" ` c #7979AE",
" ' c #F90000",
" ] c #9C9DC3",
" [ c #E50000",
" { c #F64242",
" } c #F21010",
" | c #F41F1F",
".  c #F33535",
".. c #7A72A8",
".X c #F74646",
".o c #7171A9",
".O c #FA3F3F",
".+ c #5E5393",
".@ c #F52323",
".# c #F43939",
".$ c #4B4B94",
".% c #F30000",
".& c #5A5A9C",
".* c #DF0000",
".= c #F53D3D",
".- c #6969A4",
".; c #F10B0B",
".: c #000033",
".> c #F83636",
"., c #F31A1A",
".< c #BEBED6",
".1 c #F10F0E",
".2 c #F93A3A",
".3 c #F85050",
".4 c #F41E1E",
".5 c #6363A1",
".6 c #FB4949",
".7 c #ED0000",
".8 c #786FA5",
".9 c #F93C3D",
".0 c #000039",
".q c #7676B0",
".w c #F73131",
".e c #7B7BAE",
".r c #F83535",
".t c #F74B4B",
".y c #574C8E",
".u c #FB0000",
".i c #F31919",
".p c #F22F2F",
".a c #FA4444",
".s c #E70000",
".d c None",
/* pixels */
" / / / /.0.: & . 8 ' b @.% K <.7",
" / g ] 5 j.< ; q ^ r v l S V Y !",
" /.e C.-.5 ,  .y 1 s.9 _.w o p a",
".0 ` -.& 4.o.$ 2 w E h.w 3 f m.s",
" 6.q = i G Z X R t.> + 3 D W I.s",
" &...+.8 k O B y H + 3 D |., F [",
" u N ) c J ~ x.r 9 z ( |.i # 7 M",
".u U.6 J.O.2 * 9 z ( |.i # } :.*",
" ' %.a.O.2 * n L.@.4.i 0.1.;.p.*",
" b Q > d e.3.t.X {.=.#.  T.p A P",
" @.% K <.7.7 ! a.s [ M $.* P P P"
};
