/* XPM */
const char *icon_famfamfam_flags_ye[] = {
/* width height ncolors chars_per_pixel */
"16 11 120 2",
/* colors */
"   c #000000",
" . c #F6A9A9",
" X c #ABABAB",
" o c #F56659",
" O c #A9A9A9",
" + c #F04C3D",
" @ c #A5A5A5",
" # c #F47165",
" $ c #A1A1A1",
" % c #E10000",
" & c #F57569",
" * c #F45D51",
" = c #FF8D8D",
" - c #F4F5F5",
" ; c #EF0000",
" : c #DB0000",
" > c #F6695C",
" , c #F77F74",
" < c #656565",
" 1 c #585758",
" 2 c #F78177",
" 3 c #535353",
" 4 c #E74D4D",
" 5 c #E90000",
" 6 c #4F4F4F",
" 7 c #4D4D4D",
" 8 c #FEFEFE",
" 9 c #FBB6B6",
" 0 c #FDFCFD",
" q c #FCFCFC",
" w c #FBFCFB",
" e c #D50000",
" r c #EF4637",
" t c #FAFAFA",
" y c #EF5C4E",
" u c #F8857B",
" i c #F8F8F8",
" p c #F6F6F6",
" a c #F25547",
" s c #434343",
" d c #F4F4F4",
" f c #F2F2F2",
" g c #3F3F3F",
" h c #3D3D3D",
" j c #3B3B3B",
" k c #373737",
" l c #2D2D2D",
" z c #E30000",
" x c #F8AFAF",
" c c #ED4131",
" v c #EE5749",
" b c #F15042",
" n c #81817F",
" m c #FAB3B4",
" M c #F78479",
" N c #FCB9B9",
" B c #B8B8B8",
" V c #F6B3B3",
" C c #B0B0B0",
" Z c #333232",
" A c #AEAEAE",
" S c #EC3C2C",
" D c #FDBDBD",
" F c #F67B71",
" G c #A8A8A8",
" H c #A2A2A2",
" J c #69696A",
" K c #9E9E9E",
" L c #9C9C9C",
" P c #EB0000",
" I c #D70000",
" U c #F9B2B2",
" Y c #F2695C",
" T c #F6786D",
" R c #F46254",
" E c #F36D60",
" W c #F5A7A7",
" Q c #E50000",
" ! c #F06053",
" ~ c #6E6E6E",
" ^ c #F3594C",
" / c #F7ADAC",
" ( c #FEC0C0",
" ) c #606060",
" _ c #5C5C5C",
" ` c #222323",
" ' c #F66C5F",
" ] c #DF0000",
" [ c #FDFDFD",
" { c #4A4A4A",
" } c #FBFBFB",
" | c #484848",
".  c #F9F9F9",
".. c #464646",
".X c #F7F7F7",
".o c #F5F5F5",
".O c #F3F3F3",
".+ c #F1F1F1",
".@ c #FDBBBB",
".# c #383838",
".$ c #363636",
".% c #FEBFBF",
".& c #ED0000",
".* c #F26557",
".= c #FECCCC",
".- c #282828",
".; c #D90000",
".: c #D7D7D7",
".> c #D5D5D5",
"., c #D3D3D3",
".< c #1E1E1E",
".1 c #1A1A1A",
".2 c #161616",
".3 c #C5C5C5",
".4 c #F8857A",
".5 c #424141",
".6 c #E70000",
".7 c #B5B5B5",
".8 c #B3B3B3",
".9 c None",
/* pixels */
" ; ; ; ;.&.& P 5 5.6 Q z % ] :.;",
" ; u u M 2 , F T & # E Y.* ! y I",
" ;.4 ' > o R * ^ a b + r c S v e",
" =.= (.% D.@ N 9 m U x / . W V 4",
".o 8 8 [ 0 q } t.  i.X p.o d.o.:",
".O 8 [ q q } t.  i.X p.o d.O -.>",
".+ [ q w } t.  i.X p.o d.O f d.,",
" n.3 B.7.8 C A X G @ H $ K L O k",
"   ~ 7 | s h.# Z l.- `.<.1.2.#  ",
"   J < ) _ 1 3 6 {...5 g j k.$  ",
"                                "
};
