/* XPM */
const char *icon_famfamfam_flags_zm[] = {
/* width height ncolors chars_per_pixel */
"16 11 145 2",
/* colors */
"   c #000000",
" . c #78AE68",
" X c #94C994",
" o c #8FC78F",
" O c #8DC58D",
" + c #8AC38A",
" @ c #88C388",
" # c #2E1919",
" $ c #7FBF7F",
" % c #7CBD7C",
" & c #372525",
" * c #79B979",
" = c #76B976",
" - c #75B775",
" ; c #F18A47",
" : c #72B772",
" > c #71B771",
" , c #EF3535",
" < c #6EB56E",
" 1 c #6DB56D",
" 2 c #6AB36A",
" 3 c #69B169",
" 4 c #67B167",
" 5 c #68AF68",
" 6 c #64AF64",
" 7 c #61AD61",
" 8 c #60AD60",
" 9 c #5EAB5E",
" 0 c #5DAB5D",
" q c #5BA95B",
" w c #57A757",
" e c #54A554",
" r c #53A553",
" t c #59B466",
" y c #4DA14D",
" u c #151410",
" i c #499F49",
" p c #ED853F",
" a c #E9342E",
" s c #66B065",
" d c #5EAE5D",
" f c #EB3A33",
" g c #E89957",
" h c #1A1914",
" j c #232320",
" k c #038103",
" l c #037F03",
" z c #E3A25F",
" x c #007F00",
" c c #007D00",
" v c #007B00",
" b c #007900",
" n c #007700",
" m c #E88839",
" M c #007500",
" N c #007300",
" B c #E30000",
" V c #006F00",
" C c #006D00",
" Z c #E72F28",
" A c #006900",
" S c #006300",
" D c #CF0000",
" F c #331F1F",
" G c #005D00",
" H c #005900",
" J c #005300",
" K c #004D00",
" L c #004700",
" P c #004100",
" I c #ED7F37",
" U c #003D00",
" Y c #003B00",
" T c #003900",
" R c #003300",
" E c #EF1F1F",
" W c #6BB36C",
" Q c #DD0000",
" ! c #112700",
" ~ c #E8423C",
" ^ c #95CA95",
" / c #94C894",
" ( c #F52B2B",
" ) c #91C891",
" _ c #8BC48B",
" ` c #87C287",
" ' c #84C084",
" ] c #80BE80",
" [ c #DD9F5B",
" { c #291414",
" } c #7CBE7C",
" | c #7DBC7D",
".  c #7ABC7A",
".. c #79BC79",
".X c #D70000",
".o c #76BA76",
".O c #71B471",
".+ c #34332F",
".@ c #6FB66F",
".# c #6EB66E",
".$ c #6DB46D",
".% c #6DB26D",
".& c #6AB26A",
".* c #69B269",
".= c #69B069",
".- c #67B067",
".; c #65B065",
".: c #65AE65",
".> c #62AE62",
"., c #62AC62",
".< c #60AC60",
".1 c #3E3432",
".2 c #E62922",
".3 c #5CAA5C",
".4 c #5BAA5B",
".5 c #59A859",
".6 c #58A858",
".7 c #57A857",
".8 c #1F1D1A",
".9 c #56A656",
".0 c #E50000",
".q c #52A452",
".w c #50A250",
".e c #4EA24E",
".r c #E8A465",
".t c #100F0B",
".y c #EE1919",
".u c #240F0E",
".i c #73B772",
".p c #EE8843",
".a c #E4241C",
".s c #DF0000",
".d c #65AF64",
".f c #5EAB5D",
".g c #E78C3F",
".h c #ED833B",
".j c #F12525",
".k c #8EC68F",
".l c #C50000",
".z c #9CB075",
".x c #79BC7A",
".c c #EB7E35",
".v c #E70000",
".b c #ED1313",
".n c None",
/* pixels */
" k k k k x c b M N C A S G H J K",
" k ^ ^ X ) o O + ` '.z.r z [ g !",
" k ^ $ }. .o.i.@ W 4 t d.g m . P",
" l / %.x.o :.# 2.-.> 9.5 e.w 5 Y",
" c ).. = : < 2 s.>.f f ( & j ;.v",
" v.k = : <.&.; 7 0.6 a.j F.8.p.0",
" n _ > 1.*.; 8.3.7 r Z E # h p B",
" N @.$.*.d.<.4 w.q.e.2.y { u.h.s",
" V ' 3 6.< q.9.q y i.a.b.u.t I.s",
" A ] | * -.O.%.=.:., ~ ,.1.+.c Q",
" S G H J K L P U T R.l.X     D Q"
};
