/* XPM */
const char *icon_famfamfam_flags_zw[] = {
/* width height ncolors chars_per_pixel */
"16 11 167 2",
/* colors */
"   c #000000",
" . c #96634E",
" X c #F5F423",
" o c #95B37E",
" O c #A9DD6D",
" + c #CC482A",
" @ c #99D050",
" # c #F7D68F",
" $ c #DFDD00",
" % c #F1F00B",
" & c #B2E179",
" * c #ADDF74",
" = c #E7876F",
" - c #B33425",
" ; c #F7F749",
" : c #FAFA42",
" > c #94D24E",
" , c #E56D42",
" < c #D73C10",
" 1 c #B90000",
" 2 c #8AA962",
" 3 c #EDC5BD",
" 4 c #F4F31E",
" 5 c #CA4324",
" 6 c #C15346",
" 7 c #D84014",
" 8 c #F1A28C",
" 9 c #BB4436",
" 0 c #F1ECE8",
" q c #F9F93D",
" w c #9C5C56",
" e c #FEFD84",
" r c #ABDE71",
" t c #F2BD5E",
" y c #F3F219",
" u c #FFFAFC",
" i c #E0552F",
" p c #F6F529",
" a c #9BD557",
" s c #FCFCFC",
" d c #DE5826",
" f c #A4775D",
" g c #BB4C3F",
" h c #AD0000",
" j c #3B3B3B",
" k c #E05C2B",
" l c #E4693C",
" z c #008500",
" x c #008100",
" c c #007F00",
" v c #007D00",
" b c #A15746",
" n c #007900",
" m c #007500",
" M c #007300",
" N c #006F00",
" B c #006D00",
" V c #006900",
" C c #86C331",
" Z c #006300",
" A c #252525",
" S c #005F00",
" D c #005D00",
" F c #F2B9A9",
" G c #005900",
" H c #A2D45D",
" J c #005300",
" K c #1F1F1F",
" L c #FCFB4F",
" P c #004D00",
" I c #BC493C",
" U c #004700",
" Y c #DB491F",
" T c #004100",
" R c #003D00",
" E c #003900",
" W c #003700",
" Q c #ED9379",
" ! c #003300",
" ~ c #002D00",
" ^ c #D05235",
" / c #002B00",
" ( c #002900",
" ) c #002500",
" _ c #002100",
" ` c #001F00",
" ' c #EE977D",
" ] c #A4DA65",
" [ c #000100",
" { c #404242",
" } c #E9E900",
" | c #D94419",
".  c #F1A690",
".. c #F5F4F0",
".X c #9FD359",
".o c #CE4D2F",
".O c #E16131",
".+ c #8AC637",
".@ c #87C434",
".# c #059300",
".$ c #F1F10E",
".% c #B9B762",
".& c #E36536",
".* c #DD5A3A",
".= c #E15B34",
".- c #E77247",
".; c #D3573A",
".: c #F9F43A",
".> c #B83F30",
"., c #F7F72E",
".< c #EFF2F0",
".1 c #E8764B",
".2 c #5F0000",
".3 c #FEFC59",
".4 c #F7F731",
".5 c #DE522A",
".6 c #2A2B2B",
".7 c #C93F1F",
".8 c #FDFD51",
".9 c #F2F12F",
".0 c #8CC73B",
".q c #94CD46",
".w c #A1D860",
".e c #F7F7F7",
".r c #FDFD54",
".t c #F6F62C",
".y c #90CB42",
".u c #F5F5F5",
".i c #F5F3F5",
".p c #F4F3F4",
".a c #F1EFF1",
".s c #C53614",
".d c #EFEFEF",
".f c #A7DC69",
".g c #EE977E",
".h c #DD5832",
".j c #E26F44",
".k c #363636",
".l c #FEFD58",
".z c #CD5236",
".x c #E1E7E1",
".c c #C73A19",
".v c #303030",
".b c #FCFC4C",
".n c #9CD154",
".m c #D7E1D7",
".M c #B02F20",
".N c #F8F834",
".B c #AFE077",
".V c #A7A54B",
".C c #1A1A1A",
".Z c #98D353",
".A c #FCFCFB",
".S c #F8F837",
".D c #FAFAF9",
".F c #890000",
".G c #FDFC53",
".H c #9ED75C",
".J c #BE4E41",
".K c #B5392B",
".L c #DD4E24",
".P c #8EC83F",
".I c #E67551",
".U c #FBFB47",
".Y c #97CE4B",
".T c #F2F113",
".R c None",
/* pixels */
".m W z x c v n m M B V Z D G J G",
".i s o &.B * r O.f ].w.H a.Z >.#",
".u u.A.%.3.r.8.b.U : q.S.4.t ; }",
".u e. .A f.I.1.- , l.&.O k d.j 1",
" = #.l.g Q w 6.J I 9.>.K -.M g.2",
" 3 8.G L F.e { j.k.v.6 A K.C j  ",
".a ' L t.p b.; ^.o + 5.7.c.s.z.F",
".d.A.D 0 ..*.= i.5.L Y | 7 <.h h",
".d s...V.:.N., p X 4 y.T.$ %.9 $",
".e.< 2 H.X.n @.Y.q.y.P.0.+.@ C N",
".x [ S J P U T R E ! ~ ( ) _ ` /"
};
