/* XPM */
static char * lua_xpm[] = {
"16 16 5 1",
" 	c None",
".	c #C0C0C0",
"+	c #000080",
"@	c #808080",
"#	c #FFFFFF",
"            .++.",
"            ++++",
"    @++++@  ++++",
"  @++++++++@.++.",
" @++++++@##@@   ",
" +++++++####+   ",
"@+++++++####+@  ",
"++++++++@##@++  ",
"++++++++++++++  ",
"++++++++++++++  ",
"++++++++++++++  ",
"@++++++++++++@  ",
" ++++++++++++   ",
" @++++++++++@   ",
"  @++++++++@    ",
"    @++++@      "};
